<?xml version="1.0" encoding="UTF-8" standalone="no"?>
<!DOCTYPE svg PUBLIC "-//W3C//DTD SVG 1.1//EN"
 "http://www.w3.org/Graphics/SVG/1.1/DTD/svg11.dtd">
<!-- Generated by graphviz version 2.43.0 (0)
 -->
<!-- Pages: 1 -->
<svg width="257pt" height="241pt"
 viewBox="0.00 0.00 256.90 241.22" xmlns="http://www.w3.org/2000/svg" xmlns:xlink="http://www.w3.org/1999/xlink">
<g id="graph0" class="graph" transform="scale(1 1) rotate(0) translate(4 237.22)">
<polygon fill="white" stroke="transparent" points="-4,4 -4,-237.22 252.9,-237.22 252.9,4 -4,4"/>
<!-- 0 -->
<g id="node1" class="node">
<title>0</title>
<ellipse fill="none" stroke="black" cx="124.45" cy="-206.35" rx="53.98" ry="26.74"/>
<text text-anchor="middle" x="124.45" y="-210.15" font-family="Times,serif" font-size="14.00">eH_in_H</text>
<text text-anchor="middle" x="124.45" y="-195.15" font-family="Times,serif" font-size="14.00">(1.0)</text>
</g>
<!-- 1 -->
<g id="node2" class="node">
<title>1</title>
<ellipse fill="#9aff9a" stroke="black" cx="124.45" cy="-116.61" rx="124.4" ry="26.74"/>
<text text-anchor="middle" x="124.45" y="-120.41" font-family="Times,serif" font-size="14.00">eauto.</text>
<text text-anchor="middle" x="124.45" y="-105.41" font-family="Times,serif" font-size="14.00">(0.784087132716841)</text>
</g>
<!-- 0&#45;&gt;1 -->
<g id="edge1" class="edge">
<title>0&#45;&gt;1</title>
<path fill="none" stroke="black" d="M124.45,-179.03C124.45,-171.06 124.45,-162.17 124.45,-153.68"/>
<polygon fill="black" stroke="black" points="127.95,-153.61 124.45,-143.61 120.95,-153.61 127.95,-153.61"/>
</g>
<!-- 2 -->
<g id="node3" class="node">
<title>2</title>
<ellipse fill="green" stroke="black" cx="124.45" cy="-26.87" rx="35.21" ry="26.74"/>
<text text-anchor="middle" x="124.45" y="-30.67" font-family="Times,serif" font-size="14.00">QED</text>
<text text-anchor="middle" x="124.45" y="-15.67" font-family="Times,serif" font-size="14.00">(1.0)</text>
</g>
<!-- 1&#45;&gt;2 -->
<g id="edge2" class="edge">
<title>1&#45;&gt;2</title>
<path fill="none" stroke="black" d="M124.45,-89.29C124.45,-81.32 124.45,-72.43 124.45,-63.94"/>
<polygon fill="green" stroke="black" points="127.95,-63.87 124.45,-53.87 120.95,-63.87 127.95,-63.87"/>
</g>
</g>
</svg>
