<?xml version="1.0" encoding="UTF-8" standalone="no"?>
<!DOCTYPE svg PUBLIC "-//W3C//DTD SVG 1.1//EN"
 "http://www.w3.org/Graphics/SVG/1.1/DTD/svg11.dtd">
<!-- Generated by graphviz version 2.43.0 (0)
 -->
<!-- Pages: 1 -->
<svg width="2255pt" height="869pt"
 viewBox="0.00 0.00 2254.63 869.40" xmlns="http://www.w3.org/2000/svg" xmlns:xlink="http://www.w3.org/1999/xlink">
<g id="graph0" class="graph" transform="scale(1 1) rotate(0) translate(4 865.4)">
<polygon fill="white" stroke="transparent" points="-4,4 -4,-865.4 2250.63,-865.4 2250.63,4 -4,4"/>
<!-- 0 -->
<g id="node1" class="node">
<title>0</title>
<ellipse fill="none" stroke="black" cx="1176.81" cy="-834.53" rx="51.74" ry="26.74"/>
<text text-anchor="middle" x="1176.81" y="-838.33" font-family="Times,serif" font-size="14.00">T_1_6_3</text>
<text text-anchor="middle" x="1176.81" y="-823.33" font-family="Times,serif" font-size="14.00">(1.0)</text>
</g>
<!-- 1 -->
<g id="node2" class="node">
<title>1</title>
<ellipse fill="orange" stroke="black" cx="729.81" cy="-744.79" rx="130.63" ry="26.74"/>
<text text-anchor="middle" x="729.81" y="-748.59" font-family="Times,serif" font-size="14.00">eauto.</text>
<text text-anchor="middle" x="729.81" y="-733.59" font-family="Times,serif" font-size="14.00">(0.4061515669089761)</text>
</g>
<!-- 0&#45;&gt;1 -->
<g id="edge1" class="edge">
<title>0&#45;&gt;1</title>
<path fill="none" stroke="black" d="M1128.98,-824.14C1058.57,-810.32 925.34,-784.17 832.24,-765.9"/>
<polygon fill="black" stroke="black" points="832.72,-762.42 822.23,-763.93 831.37,-769.29 832.72,-762.42"/>
</g>
<!-- 2 -->
<g id="node3" class="node">
<title>2</title>
<ellipse fill="none" stroke="black" cx="1021.81" cy="-744.79" rx="143.59" ry="26.74"/>
<text text-anchor="middle" x="1021.81" y="-748.59" font-family="Times,serif" font-size="14.00">econstructor.</text>
<text text-anchor="middle" x="1021.81" y="-733.59" font-family="Times,serif" font-size="14.00">(0.011891215585811406)</text>
</g>
<!-- 0&#45;&gt;2 -->
<g id="edge2" class="edge">
<title>0&#45;&gt;2</title>
<path fill="none" stroke="black" d="M1142.8,-814.28C1122.74,-802.92 1096.93,-788.31 1074.31,-775.5"/>
<polygon fill="black" stroke="black" points="1075.91,-772.39 1065.48,-770.51 1072.46,-778.48 1075.91,-772.39"/>
</g>
<!-- 31 -->
<g id="node4" class="node">
<title>31</title>
<ellipse fill="none" stroke="black" cx="1332.81" cy="-744.79" rx="143.59" ry="26.74"/>
<text text-anchor="middle" x="1332.81" y="-748.59" font-family="Times,serif" font-size="14.00">red.</text>
<text text-anchor="middle" x="1332.81" y="-733.59" font-family="Times,serif" font-size="14.00">(0.011692878573281508)</text>
</g>
<!-- 0&#45;&gt;31 -->
<g id="edge3" class="edge">
<title>0&#45;&gt;31</title>
<path fill="none" stroke="black" d="M1211.05,-814.28C1231.24,-802.92 1257.22,-788.31 1279.99,-775.5"/>
<polygon fill="black" stroke="black" points="1281.86,-778.46 1288.86,-770.51 1278.43,-772.36 1281.86,-778.46"/>
</g>
<!-- 34 -->
<g id="node5" class="node">
<title>34</title>
<ellipse fill="none" stroke="black" cx="1777.81" cy="-744.79" rx="149.81" ry="26.74"/>
<text text-anchor="middle" x="1777.81" y="-748.59" font-family="Times,serif" font-size="14.00">eapply T_1_6_2.</text>
<text text-anchor="middle" x="1777.81" y="-733.59" font-family="Times,serif" font-size="14.00">(0.0025943355166726085)</text>
</g>
<!-- 0&#45;&gt;34 -->
<g id="edge4" class="edge">
<title>0&#45;&gt;34</title>
<path fill="none" stroke="black" d="M1226,-826.35C1318.69,-812.82 1521.79,-783.17 1654.04,-763.86"/>
<polygon fill="black" stroke="black" points="1654.84,-767.28 1664.23,-762.37 1653.83,-760.35 1654.84,-767.28"/>
</g>
<!-- 3 -->
<g id="node6" class="node">
<title>3</title>
<ellipse fill="none" stroke="black" cx="422.81" cy="-655.05" rx="130.63" ry="26.74"/>
<text text-anchor="middle" x="422.81" y="-658.85" font-family="Times,serif" font-size="14.00">split.</text>
<text text-anchor="middle" x="422.81" y="-643.85" font-family="Times,serif" font-size="14.00">(0.9293670225938199)</text>
</g>
<!-- 2&#45;&gt;3 -->
<g id="edge5" class="edge">
<title>2&#45;&gt;3</title>
<path fill="none" stroke="black" d="M920.13,-725.75C903.35,-722.98 886.11,-720.27 869.81,-717.92 734.71,-698.46 699.8,-702.16 564.81,-681.92 552.27,-680.04 539.14,-677.89 526.15,-675.66"/>
<polygon fill="black" stroke="black" points="526.7,-672.2 516.25,-673.93 525.5,-679.1 526.7,-672.2"/>
</g>
<!-- 17 -->
<g id="node7" class="node">
<title>17</title>
<ellipse fill="orange" stroke="black" cx="710.81" cy="-655.05" rx="137.36" ry="26.74"/>
<text text-anchor="middle" x="710.81" y="-658.85" font-family="Times,serif" font-size="14.00">eauto.</text>
<text text-anchor="middle" x="710.81" y="-643.85" font-family="Times,serif" font-size="14.00">(0.06828619205326023)</text>
</g>
<!-- 2&#45;&gt;17 -->
<g id="edge6" class="edge">
<title>2&#45;&gt;17</title>
<path fill="none" stroke="black" d="M944.54,-721.99C899.61,-709.31 842.91,-693.32 796.6,-680.25"/>
<polygon fill="black" stroke="black" points="797.46,-676.86 786.89,-677.51 795.56,-683.6 797.46,-676.86"/>
</g>
<!-- 18 -->
<g id="node8" class="node">
<title>18</title>
<ellipse fill="none" stroke="black" cx="1021.81" cy="-655.05" rx="156.04" ry="26.74"/>
<text text-anchor="middle" x="1021.81" y="-658.85" font-family="Times,serif" font-size="14.00">intuition.</text>
<text text-anchor="middle" x="1021.81" y="-643.85" font-family="Times,serif" font-size="14.00">(0.00024104743570616606)</text>
</g>
<!-- 2&#45;&gt;18 -->
<g id="edge7" class="edge">
<title>2&#45;&gt;18</title>
<path fill="none" stroke="black" d="M1021.81,-717.47C1021.81,-709.5 1021.81,-700.61 1021.81,-692.12"/>
<polygon fill="black" stroke="black" points="1025.31,-692.05 1021.81,-682.05 1018.31,-692.05 1025.31,-692.05"/>
</g>
<!-- 32 -->
<g id="node34" class="node">
<title>32</title>
<ellipse fill="orange" stroke="black" cx="1332.81" cy="-655.05" rx="137.36" ry="26.74"/>
<text text-anchor="middle" x="1332.81" y="-658.85" font-family="Times,serif" font-size="14.00">eauto.</text>
<text text-anchor="middle" x="1332.81" y="-643.85" font-family="Times,serif" font-size="14.00">(0.47387952739612116)</text>
</g>
<!-- 31&#45;&gt;32 -->
<g id="edge33" class="edge">
<title>31&#45;&gt;32</title>
<path fill="none" stroke="black" d="M1332.81,-717.47C1332.81,-709.5 1332.81,-700.61 1332.81,-692.12"/>
<polygon fill="black" stroke="black" points="1336.31,-692.05 1332.81,-682.05 1329.31,-692.05 1336.31,-692.05"/>
</g>
<!-- 33 -->
<g id="node35" class="node">
<title>33</title>
<ellipse fill="orange" stroke="black" cx="1624.81" cy="-655.05" rx="137.36" ry="26.74"/>
<text text-anchor="middle" x="1624.81" y="-658.85" font-family="Times,serif" font-size="14.00">subst.</text>
<text text-anchor="middle" x="1624.81" y="-643.85" font-family="Times,serif" font-size="14.00">(0.08811977473721476)</text>
</g>
<!-- 31&#45;&gt;33 -->
<g id="edge34" class="edge">
<title>31&#45;&gt;33</title>
<path fill="none" stroke="black" d="M1406.5,-721.65C1447.88,-709.22 1499.63,-693.67 1542.35,-680.83"/>
<polygon fill="black" stroke="black" points="1543.6,-684.11 1552.17,-677.88 1541.58,-677.41 1543.6,-684.11"/>
</g>
<!-- 35 -->
<g id="node36" class="node">
<title>35</title>
<ellipse fill="blue" stroke="black" cx="1912.81" cy="-655.05" rx="130.63" ry="26.74"/>
<text text-anchor="middle" x="1912.81" y="-658.85" font-family="Times,serif" font-size="14.00">eauto.</text>
<text text-anchor="middle" x="1912.81" y="-643.85" font-family="Times,serif" font-size="14.00">(0.9984079951040847)</text>
</g>
<!-- 34&#45;&gt;35 -->
<g id="edge35" class="edge">
<title>34&#45;&gt;35</title>
<path fill="none" stroke="black" d="M1816.5,-718.65C1831.88,-708.65 1849.72,-697.05 1865.84,-686.58"/>
<polygon fill="black" stroke="black" points="1868.11,-689.28 1874.59,-680.89 1864.3,-683.41 1868.11,-689.28"/>
</g>
<!-- 4 -->
<g id="node9" class="node">
<title>4</title>
<ellipse fill="orange" stroke="black" cx="130.81" cy="-565.31" rx="130.63" ry="26.74"/>
<text text-anchor="middle" x="130.81" y="-569.11" font-family="Times,serif" font-size="14.00">eauto.</text>
<text text-anchor="middle" x="130.81" y="-554.11" font-family="Times,serif" font-size="14.00">(0.7738420453800761)</text>
</g>
<!-- 3&#45;&gt;4 -->
<g id="edge8" class="edge">
<title>3&#45;&gt;4</title>
<path fill="none" stroke="black" d="M351.01,-632.47C309.01,-619.86 255.87,-603.89 212.31,-590.8"/>
<polygon fill="black" stroke="black" points="213.18,-587.41 202.6,-587.88 211.17,-594.11 213.18,-587.41"/>
</g>
<!-- 5 -->
<g id="node10" class="node">
<title>5</title>
<ellipse fill="none" stroke="black" cx="422.81" cy="-565.31" rx="143.59" ry="26.74"/>
<text text-anchor="middle" x="422.81" y="-569.11" font-family="Times,serif" font-size="14.00">econstructor.</text>
<text text-anchor="middle" x="422.81" y="-554.11" font-family="Times,serif" font-size="14.00">(0.023679722979721634)</text>
</g>
<!-- 3&#45;&gt;5 -->
<g id="edge9" class="edge">
<title>3&#45;&gt;5</title>
<path fill="none" stroke="black" d="M422.81,-627.73C422.81,-619.76 422.81,-610.87 422.81,-602.38"/>
<polygon fill="black" stroke="black" points="426.31,-602.31 422.81,-592.31 419.31,-602.31 426.31,-602.31"/>
</g>
<!-- 19 -->
<g id="node22" class="node">
<title>19</title>
<ellipse fill="orange" stroke="black" cx="1018.81" cy="-565.31" rx="137.36" ry="26.74"/>
<text text-anchor="middle" x="1018.81" y="-569.11" font-family="Times,serif" font-size="14.00">eauto.</text>
<text text-anchor="middle" x="1018.81" y="-554.11" font-family="Times,serif" font-size="14.00">(0.16977393267352084)</text>
</g>
<!-- 18&#45;&gt;19 -->
<g id="edge21" class="edge">
<title>18&#45;&gt;19</title>
<path fill="none" stroke="black" d="M1020.91,-627.73C1020.64,-619.76 1020.34,-610.87 1020.05,-602.38"/>
<polygon fill="black" stroke="black" points="1023.54,-602.19 1019.7,-592.31 1016.55,-602.43 1023.54,-602.19"/>
</g>
<!-- 20 -->
<g id="node23" class="node">
<title>20</title>
<ellipse fill="none" stroke="black" cx="1310.81" cy="-565.31" rx="137.36" ry="26.74"/>
<text text-anchor="middle" x="1310.81" y="-569.11" font-family="Times,serif" font-size="14.00">econstructor.</text>
<text text-anchor="middle" x="1310.81" y="-554.11" font-family="Times,serif" font-size="14.00">(0.07720472990227326)</text>
</g>
<!-- 18&#45;&gt;20 -->
<g id="edge22" class="edge">
<title>18&#45;&gt;20</title>
<path fill="none" stroke="black" d="M1096.62,-631.34C1137.03,-619.07 1187,-603.9 1228.51,-591.3"/>
<polygon fill="black" stroke="black" points="1229.77,-594.57 1238.32,-588.32 1227.74,-587.87 1229.77,-594.57"/>
</g>
<!-- 6 -->
<g id="node11" class="node">
<title>6</title>
<ellipse fill="orange" stroke="black" cx="134.81" cy="-475.57" rx="130.63" ry="26.74"/>
<text text-anchor="middle" x="134.81" y="-479.37" font-family="Times,serif" font-size="14.00">eauto.</text>
<text text-anchor="middle" x="134.81" y="-464.37" font-family="Times,serif" font-size="14.00">(0.8866577740874977)</text>
</g>
<!-- 5&#45;&gt;6 -->
<g id="edge10" class="edge">
<title>5&#45;&gt;6</title>
<path fill="none" stroke="black" d="M349.77,-542.06C308.8,-529.58 257.61,-513.98 215.47,-501.14"/>
<polygon fill="black" stroke="black" points="216.38,-497.76 205.79,-498.19 214.34,-504.46 216.38,-497.76"/>
</g>
<!-- 7 -->
<g id="node12" class="node">
<title>7</title>
<ellipse fill="orange" stroke="black" cx="420.81" cy="-475.57" rx="137.36" ry="26.74"/>
<text text-anchor="middle" x="420.81" y="-479.37" font-family="Times,serif" font-size="14.00">apply l1.</text>
<text text-anchor="middle" x="420.81" y="-464.37" font-family="Times,serif" font-size="14.00">(0.03112164465510311)</text>
</g>
<!-- 5&#45;&gt;7 -->
<g id="edge11" class="edge">
<title>5&#45;&gt;7</title>
<path fill="none" stroke="black" d="M422.21,-537.99C422.03,-530.02 421.83,-521.13 421.64,-512.64"/>
<polygon fill="black" stroke="black" points="425.13,-512.49 421.41,-502.57 418.14,-512.65 425.13,-512.49"/>
</g>
<!-- 8 -->
<g id="node13" class="node">
<title>8</title>
<ellipse fill="none" stroke="black" cx="725.81" cy="-475.57" rx="149.81" ry="26.74"/>
<text text-anchor="middle" x="725.81" y="-479.37" font-family="Times,serif" font-size="14.00">red.</text>
<text text-anchor="middle" x="725.81" y="-464.37" font-family="Times,serif" font-size="14.00">(0.0033902196662988636)</text>
</g>
<!-- 5&#45;&gt;8 -->
<g id="edge12" class="edge">
<title>5&#45;&gt;8</title>
<path fill="none" stroke="black" d="M498.49,-542.4C541.36,-529.98 595.14,-514.41 639.63,-501.53"/>
<polygon fill="black" stroke="black" points="640.63,-504.88 649.26,-498.74 638.68,-498.16 640.63,-504.88"/>
</g>
<!-- 9 -->
<g id="node14" class="node">
<title>9</title>
<ellipse fill="orange" stroke="black" cx="510.81" cy="-385.83" rx="130.63" ry="26.74"/>
<text text-anchor="middle" x="510.81" y="-389.63" font-family="Times,serif" font-size="14.00">simpl.</text>
<text text-anchor="middle" x="510.81" y="-374.63" font-family="Times,serif" font-size="14.00">(0.7875400465418659)</text>
</g>
<!-- 8&#45;&gt;9 -->
<g id="edge13" class="edge">
<title>8&#45;&gt;9</title>
<path fill="none" stroke="black" d="M667.35,-450.71C639.53,-439.36 606.14,-425.73 577.35,-413.98"/>
<polygon fill="black" stroke="black" points="578.36,-410.62 567.78,-410.08 575.72,-417.1 578.36,-410.62"/>
</g>
<!-- 10 -->
<g id="node15" class="node">
<title>10</title>
<ellipse fill="none" stroke="black" cx="790.81" cy="-385.83" rx="130.63" ry="26.74"/>
<text text-anchor="middle" x="790.81" y="-389.63" font-family="Times,serif" font-size="14.00">intros.</text>
<text text-anchor="middle" x="790.81" y="-374.63" font-family="Times,serif" font-size="14.00">(0.2048464921619426)</text>
</g>
<!-- 8&#45;&gt;10 -->
<g id="edge14" class="edge">
<title>8&#45;&gt;10</title>
<path fill="none" stroke="black" d="M744.97,-448.72C751.45,-439.97 758.78,-430.07 765.66,-420.79"/>
<polygon fill="black" stroke="black" points="768.66,-422.61 771.8,-412.5 763.04,-418.45 768.66,-422.61"/>
</g>
<!-- 11 -->
<g id="node16" class="node">
<title>11</title>
<ellipse fill="blue" stroke="black" cx="790.81" cy="-296.09" rx="143.59" ry="26.74"/>
<text text-anchor="middle" x="790.81" y="-299.89" font-family="Times,serif" font-size="14.00">eauto.</text>
<text text-anchor="middle" x="790.81" y="-284.89" font-family="Times,serif" font-size="14.00">(0.020239467682743126)</text>
</g>
<!-- 10&#45;&gt;11 -->
<g id="edge15" class="edge">
<title>10&#45;&gt;11</title>
<path fill="none" stroke="black" d="M790.81,-358.51C790.81,-350.54 790.81,-341.65 790.81,-333.16"/>
<polygon fill="black" stroke="black" points="794.31,-333.09 790.81,-323.09 787.31,-333.09 794.31,-333.09"/>
</g>
<!-- 12 -->
<g id="node17" class="node">
<title>12</title>
<ellipse fill="blue" stroke="black" cx="790.81" cy="-206.35" rx="130.63" ry="26.74"/>
<text text-anchor="middle" x="790.81" y="-210.15" font-family="Times,serif" font-size="14.00">eauto.</text>
<text text-anchor="middle" x="790.81" y="-195.15" font-family="Times,serif" font-size="14.00">(0.9908266588953075)</text>
</g>
<!-- 11&#45;&gt;12 -->
<g id="edge16" class="edge">
<title>11&#45;&gt;12</title>
<path fill="none" stroke="black" d="M790.81,-268.77C790.81,-260.8 790.81,-251.91 790.81,-243.42"/>
<polygon fill="black" stroke="black" points="794.31,-243.35 790.81,-233.35 787.31,-243.35 794.31,-243.35"/>
</g>
<!-- 13 -->
<g id="node18" class="node">
<title>13</title>
<ellipse fill="orange" stroke="black" cx="498.81" cy="-116.61" rx="130.63" ry="26.74"/>
<text text-anchor="middle" x="498.81" y="-120.41" font-family="Times,serif" font-size="14.00">eauto.</text>
<text text-anchor="middle" x="498.81" y="-105.41" font-family="Times,serif" font-size="14.00">(0.9100533612334357)</text>
</g>
<!-- 12&#45;&gt;13 -->
<g id="edge17" class="edge">
<title>12&#45;&gt;13</title>
<path fill="none" stroke="black" d="M719.01,-183.77C677.01,-171.16 623.87,-155.19 580.31,-142.1"/>
<polygon fill="black" stroke="black" points="581.18,-138.7 570.6,-139.18 579.17,-145.41 581.18,-138.7"/>
</g>
<!-- 14 -->
<g id="node19" class="node">
<title>14</title>
<ellipse fill="none" stroke="black" cx="790.81" cy="-116.61" rx="143.59" ry="26.74"/>
<text text-anchor="middle" x="790.81" y="-120.41" font-family="Times,serif" font-size="14.00">unfold G_.</text>
<text text-anchor="middle" x="790.81" y="-105.41" font-family="Times,serif" font-size="14.00">(0.004730143115561469)</text>
</g>
<!-- 12&#45;&gt;14 -->
<g id="edge18" class="edge">
<title>12&#45;&gt;14</title>
<path fill="none" stroke="black" d="M790.81,-179.03C790.81,-171.06 790.81,-162.17 790.81,-153.68"/>
<polygon fill="black" stroke="black" points="794.31,-153.61 790.81,-143.61 787.31,-153.61 794.31,-153.61"/>
</g>
<!-- 16 -->
<g id="node20" class="node">
<title>16</title>
<ellipse fill="orange" stroke="black" cx="1101.81" cy="-116.61" rx="149.81" ry="26.74"/>
<text text-anchor="middle" x="1101.81" y="-120.41" font-family="Times,serif" font-size="14.00">simpl.</text>
<text text-anchor="middle" x="1101.81" y="-105.41" font-family="Times,serif" font-size="14.00">(0.0029086590979071607)</text>
</g>
<!-- 12&#45;&gt;16 -->
<g id="edge19" class="edge">
<title>12&#45;&gt;16</title>
<path fill="none" stroke="black" d="M865.7,-184.22C910.34,-171.63 967.22,-155.58 1013.97,-142.39"/>
<polygon fill="black" stroke="black" points="1015.11,-145.71 1023.78,-139.62 1013.21,-138.97 1015.11,-145.71"/>
</g>
<!-- 15 -->
<g id="node21" class="node">
<title>15</title>
<ellipse fill="orange" stroke="black" cx="790.81" cy="-26.87" rx="137.36" ry="26.74"/>
<text text-anchor="middle" x="790.81" y="-30.67" font-family="Times,serif" font-size="14.00">unfold G_.</text>
<text text-anchor="middle" x="790.81" y="-15.67" font-family="Times,serif" font-size="14.00">(0.17842596021804533)</text>
</g>
<!-- 14&#45;&gt;15 -->
<g id="edge20" class="edge">
<title>14&#45;&gt;15</title>
<path fill="none" stroke="black" d="M790.81,-89.29C790.81,-81.32 790.81,-72.43 790.81,-63.94"/>
<polygon fill="black" stroke="black" points="794.31,-63.87 790.81,-53.87 787.31,-63.87 794.31,-63.87"/>
</g>
<!-- 21 -->
<g id="node24" class="node">
<title>21</title>
<ellipse fill="orange" stroke="black" cx="1024.81" cy="-475.57" rx="130.63" ry="26.74"/>
<text text-anchor="middle" x="1024.81" y="-479.37" font-family="Times,serif" font-size="14.00">eauto.</text>
<text text-anchor="middle" x="1024.81" y="-464.37" font-family="Times,serif" font-size="14.00">(0.8866577740874977)</text>
</g>
<!-- 20&#45;&gt;21 -->
<g id="edge23" class="edge">
<title>20&#45;&gt;21</title>
<path fill="none" stroke="black" d="M1239.01,-542.28C1198.33,-529.8 1147.33,-514.16 1105.3,-501.26"/>
<polygon fill="black" stroke="black" points="1106.24,-497.89 1095.65,-498.3 1104.19,-504.58 1106.24,-497.89"/>
</g>
<!-- 22 -->
<g id="node25" class="node">
<title>22</title>
<ellipse fill="orange" stroke="black" cx="1310.81" cy="-475.57" rx="137.36" ry="26.74"/>
<text text-anchor="middle" x="1310.81" y="-479.37" font-family="Times,serif" font-size="14.00">apply l1.</text>
<text text-anchor="middle" x="1310.81" y="-464.37" font-family="Times,serif" font-size="14.00">(0.03112164465510311)</text>
</g>
<!-- 20&#45;&gt;22 -->
<g id="edge24" class="edge">
<title>20&#45;&gt;22</title>
<path fill="none" stroke="black" d="M1310.81,-537.99C1310.81,-530.02 1310.81,-521.13 1310.81,-512.64"/>
<polygon fill="black" stroke="black" points="1314.31,-512.57 1310.81,-502.57 1307.31,-512.57 1314.31,-512.57"/>
</g>
<!-- 23 -->
<g id="node26" class="node">
<title>23</title>
<ellipse fill="none" stroke="black" cx="1615.81" cy="-475.57" rx="149.81" ry="26.74"/>
<text text-anchor="middle" x="1615.81" y="-479.37" font-family="Times,serif" font-size="14.00">red.</text>
<text text-anchor="middle" x="1615.81" y="-464.37" font-family="Times,serif" font-size="14.00">(0.0033902196662988636)</text>
</g>
<!-- 20&#45;&gt;23 -->
<g id="edge25" class="edge">
<title>20&#45;&gt;23</title>
<path fill="none" stroke="black" d="M1385.82,-542.73C1429.2,-530.25 1483.98,-514.5 1529.19,-501.49"/>
<polygon fill="black" stroke="black" points="1530.34,-504.8 1538.98,-498.67 1528.4,-498.08 1530.34,-504.8"/>
</g>
<!-- 24 -->
<g id="node27" class="node">
<title>24</title>
<ellipse fill="orange" stroke="black" cx="1549.81" cy="-385.83" rx="130.63" ry="26.74"/>
<text text-anchor="middle" x="1549.81" y="-389.63" font-family="Times,serif" font-size="14.00">simpl.</text>
<text text-anchor="middle" x="1549.81" y="-374.63" font-family="Times,serif" font-size="14.00">(0.7875400465418659)</text>
</g>
<!-- 23&#45;&gt;24 -->
<g id="edge26" class="edge">
<title>23&#45;&gt;24</title>
<path fill="none" stroke="black" d="M1596.37,-448.72C1589.72,-439.88 1582.19,-429.87 1575.15,-420.51"/>
<polygon fill="black" stroke="black" points="1577.93,-418.38 1569.12,-412.5 1572.34,-422.59 1577.93,-418.38"/>
</g>
<!-- 25 -->
<g id="node28" class="node">
<title>25</title>
<ellipse fill="none" stroke="black" cx="1829.81" cy="-385.83" rx="130.63" ry="26.74"/>
<text text-anchor="middle" x="1829.81" y="-389.63" font-family="Times,serif" font-size="14.00">intros.</text>
<text text-anchor="middle" x="1829.81" y="-374.63" font-family="Times,serif" font-size="14.00">(0.2048464921619426)</text>
</g>
<!-- 23&#45;&gt;25 -->
<g id="edge27" class="edge">
<title>23&#45;&gt;25</title>
<path fill="none" stroke="black" d="M1674.01,-450.71C1701.7,-439.36 1734.93,-425.73 1763.59,-413.98"/>
<polygon fill="black" stroke="black" points="1765.19,-417.11 1773.11,-410.08 1762.53,-410.63 1765.19,-417.11"/>
</g>
<!-- 26 -->
<g id="node29" class="node">
<title>26</title>
<ellipse fill="blue" stroke="black" cx="1829.81" cy="-296.09" rx="143.59" ry="26.74"/>
<text text-anchor="middle" x="1829.81" y="-299.89" font-family="Times,serif" font-size="14.00">eauto.</text>
<text text-anchor="middle" x="1829.81" y="-284.89" font-family="Times,serif" font-size="14.00">(0.020239467682743126)</text>
</g>
<!-- 25&#45;&gt;26 -->
<g id="edge28" class="edge">
<title>25&#45;&gt;26</title>
<path fill="none" stroke="black" d="M1829.81,-358.51C1829.81,-350.54 1829.81,-341.65 1829.81,-333.16"/>
<polygon fill="black" stroke="black" points="1833.31,-333.09 1829.81,-323.09 1826.31,-333.09 1833.31,-333.09"/>
</g>
<!-- 27 -->
<g id="node30" class="node">
<title>27</title>
<ellipse fill="blue" stroke="black" cx="1829.81" cy="-206.35" rx="130.63" ry="26.74"/>
<text text-anchor="middle" x="1829.81" y="-210.15" font-family="Times,serif" font-size="14.00">eauto.</text>
<text text-anchor="middle" x="1829.81" y="-195.15" font-family="Times,serif" font-size="14.00">(0.9908266588953075)</text>
</g>
<!-- 26&#45;&gt;27 -->
<g id="edge29" class="edge">
<title>26&#45;&gt;27</title>
<path fill="none" stroke="black" d="M1829.81,-268.77C1829.81,-260.8 1829.81,-251.91 1829.81,-243.42"/>
<polygon fill="black" stroke="black" points="1833.31,-243.35 1829.81,-233.35 1826.31,-243.35 1833.31,-243.35"/>
</g>
<!-- 28 -->
<g id="node31" class="node">
<title>28</title>
<ellipse fill="orange" stroke="black" cx="1537.81" cy="-116.61" rx="137.36" ry="26.74"/>
<text text-anchor="middle" x="1537.81" y="-120.41" font-family="Times,serif" font-size="14.00">eauto.</text>
<text text-anchor="middle" x="1537.81" y="-105.41" font-family="Times,serif" font-size="14.00">(0.48560388372946667)</text>
</g>
<!-- 27&#45;&gt;28 -->
<g id="edge30" class="edge">
<title>27&#45;&gt;28</title>
<path fill="none" stroke="black" d="M1758.01,-183.77C1716.33,-171.25 1663.66,-155.42 1620.28,-142.39"/>
<polygon fill="black" stroke="black" points="1621.19,-139.01 1610.61,-139.48 1619.18,-145.71 1621.19,-139.01"/>
</g>
<!-- 29 -->
<g id="node32" class="node">
<title>29</title>
<ellipse fill="orange" stroke="black" cx="1829.81" cy="-116.61" rx="137.36" ry="26.74"/>
<text text-anchor="middle" x="1829.81" y="-120.41" font-family="Times,serif" font-size="14.00">try discriminate.</text>
<text text-anchor="middle" x="1829.81" y="-105.41" font-family="Times,serif" font-size="14.00">(0.12891341989779623)</text>
</g>
<!-- 27&#45;&gt;29 -->
<g id="edge31" class="edge">
<title>27&#45;&gt;29</title>
<path fill="none" stroke="black" d="M1829.81,-179.03C1829.81,-171.06 1829.81,-162.17 1829.81,-153.68"/>
<polygon fill="black" stroke="black" points="1833.31,-153.61 1829.81,-143.61 1826.31,-153.61 1833.31,-153.61"/>
</g>
<!-- 30 -->
<g id="node33" class="node">
<title>30</title>
<ellipse fill="orange" stroke="black" cx="2115.81" cy="-116.61" rx="130.63" ry="26.74"/>
<text text-anchor="middle" x="2115.81" y="-120.41" font-family="Times,serif" font-size="14.00">try congruence.</text>
<text text-anchor="middle" x="2115.81" y="-105.41" font-family="Times,serif" font-size="14.00">(0.0899392287561515)</text>
</g>
<!-- 27&#45;&gt;30 -->
<g id="edge32" class="edge">
<title>27&#45;&gt;30</title>
<path fill="none" stroke="black" d="M1900.51,-183.66C1941.33,-171.14 1992.82,-155.34 2035.21,-142.34"/>
<polygon fill="black" stroke="black" points="2036.41,-145.63 2044.94,-139.35 2034.35,-138.94 2036.41,-145.63"/>
</g>
<!-- 36 -->
<g id="node37" class="node">
<title>36</title>
<ellipse fill="blue" stroke="black" cx="1913.81" cy="-565.31" rx="130.63" ry="26.74"/>
<text text-anchor="middle" x="1913.81" y="-569.11" font-family="Times,serif" font-size="14.00">eauto.</text>
<text text-anchor="middle" x="1913.81" y="-554.11" font-family="Times,serif" font-size="14.00">(0.9491891338358673)</text>
</g>
<!-- 35&#45;&gt;36 -->
<g id="edge36" class="edge">
<title>35&#45;&gt;36</title>
<path fill="none" stroke="black" d="M1913.11,-627.73C1913.21,-619.76 1913.31,-610.87 1913.4,-602.38"/>
<polygon fill="black" stroke="black" points="1916.9,-602.35 1913.52,-592.31 1909.9,-602.27 1916.9,-602.35"/>
</g>
<!-- 37 -->
<g id="node38" class="node">
<title>37</title>
<ellipse fill="orange" stroke="black" cx="1914.81" cy="-475.57" rx="130.63" ry="26.74"/>
<text text-anchor="middle" x="1914.81" y="-479.37" font-family="Times,serif" font-size="14.00">eauto.</text>
<text text-anchor="middle" x="1914.81" y="-464.37" font-family="Times,serif" font-size="14.00">(0.9181791774867242)</text>
</g>
<!-- 36&#45;&gt;37 -->
<g id="edge37" class="edge">
<title>36&#45;&gt;37</title>
<path fill="none" stroke="black" d="M1914.11,-537.99C1914.21,-530.02 1914.31,-521.13 1914.4,-512.64"/>
<polygon fill="black" stroke="black" points="1917.9,-512.61 1914.52,-502.57 1910.9,-512.53 1917.9,-512.61"/>
</g>
</g>
</svg>
