<?xml version="1.0" encoding="UTF-8" standalone="no"?>
<!DOCTYPE svg PUBLIC "-//W3C//DTD SVG 1.1//EN"
 "http://www.w3.org/Graphics/SVG/1.1/DTD/svg11.dtd">
<!-- Generated by graphviz version 2.43.0 (0)
 -->
<!-- Pages: 1 -->
<svg width="1160pt" height="151pt"
 viewBox="0.00 0.00 1159.99 151.48" xmlns="http://www.w3.org/2000/svg" xmlns:xlink="http://www.w3.org/1999/xlink">
<g id="graph0" class="graph" transform="scale(1 1) rotate(0) translate(4 147.48)">
<polygon fill="white" stroke="transparent" points="-4,4 -4,-147.48 1155.99,-147.48 1155.99,4 -4,4"/>
<!-- 0 -->
<g id="node1" class="node">
<title>0</title>
<ellipse fill="none" stroke="black" cx="565.81" cy="-116.61" rx="48.17" ry="26.74"/>
<text text-anchor="middle" x="565.81" y="-120.41" font-family="Times,serif" font-size="14.00">eh_is_e</text>
<text text-anchor="middle" x="565.81" y="-105.41" font-family="Times,serif" font-size="14.00">(1.0)</text>
</g>
<!-- 1 -->
<g id="node2" class="node">
<title>1</title>
<ellipse fill="orange" stroke="black" cx="130.81" cy="-26.87" rx="130.63" ry="26.74"/>
<text text-anchor="middle" x="130.81" y="-30.67" font-family="Times,serif" font-size="14.00">eauto.</text>
<text text-anchor="middle" x="130.81" y="-15.67" font-family="Times,serif" font-size="14.00">(0.7200709077282363)</text>
</g>
<!-- 0&#45;&gt;1 -->
<g id="edge1" class="edge">
<title>0&#45;&gt;1</title>
<path fill="none" stroke="black" d="M520.9,-106.55C453.15,-92.88 323.03,-66.64 231.77,-48.23"/>
<polygon fill="black" stroke="black" points="232.44,-44.8 221.95,-46.25 231.06,-51.66 232.44,-44.8"/>
</g>
<!-- 2 -->
<g id="node3" class="node">
<title>2</title>
<ellipse fill="orange" stroke="black" cx="416.81" cy="-26.87" rx="137.36" ry="26.74"/>
<text text-anchor="middle" x="416.81" y="-30.67" font-family="Times,serif" font-size="14.00">intuition.</text>
<text text-anchor="middle" x="416.81" y="-15.67" font-family="Times,serif" font-size="14.00">(0.07889038054343647)</text>
</g>
<!-- 0&#45;&gt;2 -->
<g id="edge2" class="edge">
<title>0&#45;&gt;2</title>
<path fill="none" stroke="black" d="M533.48,-96.57C514.23,-85.23 489.36,-70.59 467.54,-57.74"/>
<polygon fill="black" stroke="black" points="469.11,-54.6 458.72,-52.54 465.56,-60.63 469.11,-54.6"/>
</g>
<!-- 3 -->
<g id="node4" class="node">
<title>3</title>
<ellipse fill="orange" stroke="black" cx="715.81" cy="-26.87" rx="143.59" ry="26.74"/>
<text text-anchor="middle" x="715.81" y="-30.67" font-family="Times,serif" font-size="14.00">try discriminate.</text>
<text text-anchor="middle" x="715.81" y="-15.67" font-family="Times,serif" font-size="14.00">(0.045173377359721906)</text>
</g>
<!-- 0&#45;&gt;3 -->
<g id="edge3" class="edge">
<title>0&#45;&gt;3</title>
<path fill="none" stroke="black" d="M598.36,-96.57C617.67,-85.28 642.58,-70.71 664.49,-57.89"/>
<polygon fill="black" stroke="black" points="666.49,-60.78 673.35,-52.71 662.95,-54.74 666.49,-60.78"/>
</g>
<!-- 4 -->
<g id="node5" class="node">
<title>4</title>
<ellipse fill="orange" stroke="black" cx="1014.81" cy="-26.87" rx="137.36" ry="26.74"/>
<text text-anchor="middle" x="1014.81" y="-30.67" font-family="Times,serif" font-size="14.00">try congruence.</text>
<text text-anchor="middle" x="1014.81" y="-15.67" font-family="Times,serif" font-size="14.00">(0.02243110256036291)</text>
</g>
<!-- 0&#45;&gt;4 -->
<g id="edge4" class="edge">
<title>0&#45;&gt;4</title>
<path fill="none" stroke="black" d="M610.92,-106.8C680.4,-93.22 815.49,-66.82 910.24,-48.31"/>
<polygon fill="black" stroke="black" points="911,-51.72 920.14,-46.37 909.66,-44.85 911,-51.72"/>
</g>
</g>
</svg>
