<?xml version="1.0" encoding="UTF-8" standalone="no"?>
<!DOCTYPE svg PUBLIC "-//W3C//DTD SVG 1.1//EN"
 "http://www.w3.org/Graphics/SVG/1.1/DTD/svg11.dtd">
<!-- Generated by graphviz version 2.43.0 (0)
 -->
<!-- Pages: 1 -->
<svg width="588pt" height="331pt"
 viewBox="0.00 0.00 587.72 330.96" xmlns="http://www.w3.org/2000/svg" xmlns:xlink="http://www.w3.org/1999/xlink">
<g id="graph0" class="graph" transform="scale(1 1) rotate(0) translate(4 326.96)">
<polygon fill="white" stroke="transparent" points="-4,4 -4,-326.96 583.72,-326.96 583.72,4 -4,4"/>
<!-- 0 -->
<g id="node1" class="node">
<title>0</title>
<ellipse fill="none" stroke="black" cx="286.18" cy="-296.09" rx="113.69" ry="26.74"/>
<text text-anchor="middle" x="286.18" y="-299.89" font-family="Times,serif" font-size="14.00">Subgroup_inhabited</text>
<text text-anchor="middle" x="286.18" y="-284.89" font-family="Times,serif" font-size="14.00">(1.0)</text>
</g>
<!-- 1 -->
<g id="node2" class="node">
<title>1</title>
<ellipse fill="orange" stroke="black" cx="137.18" cy="-206.35" rx="137.36" ry="26.74"/>
<text text-anchor="middle" x="137.18" y="-210.15" font-family="Times,serif" font-size="14.00">eauto.</text>
<text text-anchor="middle" x="137.18" y="-195.15" font-family="Times,serif" font-size="14.00">(0.38978075742321205)</text>
</g>
<!-- 0&#45;&gt;1 -->
<g id="edge1" class="edge">
<title>0&#45;&gt;1</title>
<path fill="none" stroke="black" d="M245.07,-270.88C227.37,-260.46 206.5,-248.17 187.86,-237.19"/>
<polygon fill="black" stroke="black" points="189.58,-234.15 179.19,-232.09 186.03,-240.18 189.58,-234.15"/>
</g>
<!-- 2 -->
<g id="node3" class="node">
<title>2</title>
<ellipse fill="#9aff9a" stroke="black" cx="436.18" cy="-206.35" rx="143.59" ry="26.74"/>
<text text-anchor="middle" x="436.18" y="-210.15" font-family="Times,serif" font-size="14.00">econstructor.</text>
<text text-anchor="middle" x="436.18" y="-195.15" font-family="Times,serif" font-size="14.00">(0.032200773995887486)</text>
</g>
<!-- 0&#45;&gt;2 -->
<g id="edge2" class="edge">
<title>0&#45;&gt;2</title>
<path fill="none" stroke="black" d="M327.56,-270.88C345.38,-260.46 366.39,-248.17 385.16,-237.19"/>
<polygon fill="black" stroke="black" points="387.02,-240.16 393.89,-232.09 383.49,-234.12 387.02,-240.16"/>
</g>
<!-- 3 -->
<g id="node4" class="node">
<title>3</title>
<ellipse fill="#9aff9a" stroke="black" cx="436.18" cy="-116.61" rx="130.63" ry="26.74"/>
<text text-anchor="middle" x="436.18" y="-120.41" font-family="Times,serif" font-size="14.00">eauto.</text>
<text text-anchor="middle" x="436.18" y="-105.41" font-family="Times,serif" font-size="14.00">(0.9703981763483425)</text>
</g>
<!-- 2&#45;&gt;3 -->
<g id="edge3" class="edge">
<title>2&#45;&gt;3</title>
<path fill="none" stroke="black" d="M436.18,-179.03C436.18,-171.06 436.18,-162.17 436.18,-153.68"/>
<polygon fill="black" stroke="black" points="439.68,-153.61 436.18,-143.61 432.68,-153.61 439.68,-153.61"/>
</g>
<!-- 4 -->
<g id="node5" class="node">
<title>4</title>
<ellipse fill="green" stroke="black" cx="436.18" cy="-26.87" rx="35.21" ry="26.74"/>
<text text-anchor="middle" x="436.18" y="-30.67" font-family="Times,serif" font-size="14.00">QED</text>
<text text-anchor="middle" x="436.18" y="-15.67" font-family="Times,serif" font-size="14.00">(1.0)</text>
</g>
<!-- 3&#45;&gt;4 -->
<g id="edge4" class="edge">
<title>3&#45;&gt;4</title>
<path fill="none" stroke="black" d="M436.18,-89.29C436.18,-81.32 436.18,-72.43 436.18,-63.94"/>
<polygon fill="green" stroke="black" points="439.68,-63.87 436.18,-53.87 432.68,-63.87 439.68,-63.87"/>
</g>
</g>
</svg>
