<?xml version="1.0" encoding="UTF-8" standalone="no"?>
<!DOCTYPE svg PUBLIC "-//W3C//DTD SVG 1.1//EN"
 "http://www.w3.org/Graphics/SVG/1.1/DTD/svg11.dtd">
<!-- Generated by graphviz version 2.43.0 (0)
 -->
<!-- Pages: 1 -->
<svg width="4310pt" height="600pt"
 viewBox="0.00 0.00 4310.45 600.18" xmlns="http://www.w3.org/2000/svg" xmlns:xlink="http://www.w3.org/1999/xlink">
<g id="graph0" class="graph" transform="scale(1 1) rotate(0) translate(4 596.18)">
<polygon fill="white" stroke="transparent" points="-4,4 -4,-596.18 4306.45,-596.18 4306.45,4 -4,4"/>
<!-- 0 -->
<g id="node1" class="node">
<title>0</title>
<ellipse fill="none" stroke="black" cx="2170.18" cy="-565.31" rx="96.75" ry="26.74"/>
<text text-anchor="middle" x="2170.18" y="-569.11" font-family="Times,serif" font-size="14.00">eH_right_neutral</text>
<text text-anchor="middle" x="2170.18" y="-554.11" font-family="Times,serif" font-size="14.00">(1.0)</text>
</g>
<!-- 1 -->
<g id="node2" class="node">
<title>1</title>
<ellipse fill="orange" stroke="black" cx="2027.18" cy="-475.57" rx="130.63" ry="26.74"/>
<text text-anchor="middle" x="2027.18" y="-479.37" font-family="Times,serif" font-size="14.00">eauto.</text>
<text text-anchor="middle" x="2027.18" y="-464.37" font-family="Times,serif" font-size="14.00">(0.5524527523579281)</text>
</g>
<!-- 0&#45;&gt;1 -->
<g id="edge1" class="edge">
<title>0&#45;&gt;1</title>
<path fill="none" stroke="black" d="M2131.48,-540.57C2114.42,-530.1 2094.18,-517.68 2076.09,-506.58"/>
<polygon fill="black" stroke="black" points="2077.76,-503.5 2067.4,-501.25 2074.1,-509.46 2077.76,-503.5"/>
</g>
<!-- 2 -->
<g id="node3" class="node">
<title>2</title>
<ellipse fill="none" stroke="black" cx="2313.18" cy="-475.57" rx="137.36" ry="26.74"/>
<text text-anchor="middle" x="2313.18" y="-479.37" font-family="Times,serif" font-size="14.00">red.</text>
<text text-anchor="middle" x="2313.18" y="-464.37" font-family="Times,serif" font-size="14.00">(0.01576956500778804)</text>
</g>
<!-- 0&#45;&gt;2 -->
<g id="edge2" class="edge">
<title>0&#45;&gt;2</title>
<path fill="none" stroke="black" d="M2208.88,-540.57C2225.87,-530.14 2246.01,-517.78 2264.04,-506.72"/>
<polygon fill="black" stroke="black" points="2266.01,-509.62 2272.7,-501.41 2262.35,-503.65 2266.01,-509.62"/>
</g>
<!-- 3 -->
<g id="node4" class="node">
<title>3</title>
<ellipse fill="none" stroke="black" cx="1294.18" cy="-385.83" rx="130.63" ry="26.74"/>
<text text-anchor="middle" x="1294.18" y="-389.63" font-family="Times,serif" font-size="14.00">intros.</text>
<text text-anchor="middle" x="1294.18" y="-374.63" font-family="Times,serif" font-size="14.00">(0.9474977659873883)</text>
</g>
<!-- 2&#45;&gt;3 -->
<g id="edge3" class="edge">
<title>2&#45;&gt;3</title>
<path fill="none" stroke="black" d="M2217.97,-456.22C2201.1,-453.39 2183.66,-450.74 2167.18,-448.7 1908.63,-416.72 1604.8,-399.83 1432.33,-392.15"/>
<polygon fill="black" stroke="black" points="1432.32,-388.65 1422.18,-391.71 1432.01,-395.64 1432.32,-388.65"/>
</g>
<!-- 16 -->
<g id="node5" class="node">
<title>16</title>
<ellipse fill="orange" stroke="black" cx="2161.18" cy="-385.83" rx="143.59" ry="26.74"/>
<text text-anchor="middle" x="2161.18" y="-389.63" font-family="Times,serif" font-size="14.00">eauto.</text>
<text text-anchor="middle" x="2161.18" y="-374.63" font-family="Times,serif" font-size="14.00">(0.016126195556153387)</text>
</g>
<!-- 2&#45;&gt;16 -->
<g id="edge4" class="edge">
<title>2&#45;&gt;16</title>
<path fill="none" stroke="black" d="M2270.43,-449.9C2252.54,-439.57 2231.59,-427.48 2212.85,-416.66"/>
<polygon fill="black" stroke="black" points="2214.54,-413.59 2204.13,-411.62 2211.04,-419.65 2214.54,-413.59"/>
</g>
<!-- 17 -->
<g id="node6" class="node">
<title>17</title>
<ellipse fill="orange" stroke="black" cx="2466.18" cy="-385.83" rx="143.59" ry="26.74"/>
<text text-anchor="middle" x="2466.18" y="-389.63" font-family="Times,serif" font-size="14.00">simpl.</text>
<text text-anchor="middle" x="2466.18" y="-374.63" font-family="Times,serif" font-size="14.00">(0.014286349813798237)</text>
</g>
<!-- 2&#45;&gt;17 -->
<g id="edge5" class="edge">
<title>2&#45;&gt;17</title>
<path fill="none" stroke="black" d="M2356.2,-449.9C2374.29,-439.53 2395.48,-427.37 2414.41,-416.52"/>
<polygon fill="black" stroke="black" points="2416.28,-419.48 2423.21,-411.47 2412.79,-413.41 2416.28,-419.48"/>
</g>
<!-- 18 -->
<g id="node7" class="node">
<title>18</title>
<ellipse fill="none" stroke="black" cx="3354.18" cy="-385.83" rx="143.59" ry="26.74"/>
<text text-anchor="middle" x="3354.18" y="-389.63" font-family="Times,serif" font-size="14.00">unfold star.</text>
<text text-anchor="middle" x="3354.18" y="-374.63" font-family="Times,serif" font-size="14.00">(0.004820114482527873)</text>
</g>
<!-- 2&#45;&gt;18 -->
<g id="edge6" class="edge">
<title>2&#45;&gt;18</title>
<path fill="none" stroke="black" d="M2437.46,-464.1C2632.93,-447.62 3010.93,-415.76 3215.16,-398.55"/>
<polygon fill="black" stroke="black" points="3215.68,-402.02 3225.35,-397.69 3215.09,-395.04 3215.68,-402.02"/>
</g>
<!-- 4 -->
<g id="node8" class="node">
<title>4</title>
<ellipse fill="none" stroke="black" cx="721.18" cy="-296.09" rx="130.63" ry="26.74"/>
<text text-anchor="middle" x="721.18" y="-299.89" font-family="Times,serif" font-size="14.00">unfold star.</text>
<text text-anchor="middle" x="721.18" y="-284.89" font-family="Times,serif" font-size="14.00">(0.4619660182629378)</text>
</g>
<!-- 3&#45;&gt;4 -->
<g id="edge7" class="edge">
<title>3&#45;&gt;4</title>
<path fill="none" stroke="black" d="M1191.41,-369.09C1090.79,-353.69 937.88,-330.27 833.96,-314.36"/>
<polygon fill="black" stroke="black" points="834.47,-310.9 824.06,-312.84 833.41,-317.82 834.47,-310.9"/>
</g>
<!-- 15 -->
<g id="node9" class="node">
<title>15</title>
<ellipse fill="orange" stroke="black" cx="1294.18" cy="-296.09" rx="137.36" ry="26.74"/>
<text text-anchor="middle" x="1294.18" y="-299.89" font-family="Times,serif" font-size="14.00">eauto.</text>
<text text-anchor="middle" x="1294.18" y="-284.89" font-family="Times,serif" font-size="14.00">(0.02563259841961102)</text>
</g>
<!-- 3&#45;&gt;15 -->
<g id="edge8" class="edge">
<title>3&#45;&gt;15</title>
<path fill="none" stroke="black" d="M1294.18,-358.51C1294.18,-350.54 1294.18,-341.65 1294.18,-333.16"/>
<polygon fill="black" stroke="black" points="1297.68,-333.09 1294.18,-323.09 1290.68,-333.09 1297.68,-333.09"/>
</g>
<!-- 19 -->
<g id="node20" class="node">
<title>19</title>
<ellipse fill="none" stroke="black" cx="2322.18" cy="-296.09" rx="130.63" ry="26.74"/>
<text text-anchor="middle" x="2322.18" y="-299.89" font-family="Times,serif" font-size="14.00">intros.</text>
<text text-anchor="middle" x="2322.18" y="-284.89" font-family="Times,serif" font-size="14.00">(0.8707412494508424)</text>
</g>
<!-- 18&#45;&gt;19 -->
<g id="edge19" class="edge">
<title>18&#45;&gt;19</title>
<path fill="none" stroke="black" d="M3225.56,-373.9C3027.6,-357.06 2650.37,-324.99 2451.8,-308.11"/>
<polygon fill="black" stroke="black" points="2451.87,-304.6 2441.6,-307.24 2451.27,-311.58 2451.87,-304.6"/>
</g>
<!-- 34 -->
<g id="node21" class="node">
<title>34</title>
<ellipse fill="none" stroke="black" cx="3354.18" cy="-296.09" rx="143.59" ry="26.74"/>
<text text-anchor="middle" x="3354.18" y="-299.89" font-family="Times,serif" font-size="14.00">unfold star_.</text>
<text text-anchor="middle" x="3354.18" y="-284.89" font-family="Times,serif" font-size="14.00">(0.021994524008983284)</text>
</g>
<!-- 18&#45;&gt;34 -->
<g id="edge20" class="edge">
<title>18&#45;&gt;34</title>
<path fill="none" stroke="black" d="M3354.18,-358.51C3354.18,-350.54 3354.18,-341.65 3354.18,-333.16"/>
<polygon fill="black" stroke="black" points="3357.68,-333.09 3354.18,-323.09 3350.68,-333.09 3357.68,-333.09"/>
</g>
<!-- 40 -->
<g id="node22" class="node">
<title>40</title>
<ellipse fill="orange" stroke="black" cx="3659.18" cy="-296.09" rx="143.59" ry="26.74"/>
<text text-anchor="middle" x="3659.18" y="-299.89" font-family="Times,serif" font-size="14.00">eauto.</text>
<text text-anchor="middle" x="3659.18" y="-284.89" font-family="Times,serif" font-size="14.00">(0.016524069201343566)</text>
</g>
<!-- 18&#45;&gt;40 -->
<g id="edge21" class="edge">
<title>18&#45;&gt;40</title>
<path fill="none" stroke="black" d="M3430.36,-362.92C3473.84,-350.41 3528.47,-334.69 3573.44,-321.75"/>
<polygon fill="black" stroke="black" points="3574.54,-325.08 3583.18,-318.95 3572.6,-318.35 3574.54,-325.08"/>
</g>
<!-- 41 -->
<g id="node23" class="node">
<title>41</title>
<ellipse fill="orange" stroke="black" cx="3970.18" cy="-296.09" rx="149.81" ry="26.74"/>
<text text-anchor="middle" x="3970.18" y="-299.89" font-family="Times,serif" font-size="14.00">simpl.</text>
<text text-anchor="middle" x="3970.18" y="-284.89" font-family="Times,serif" font-size="14.00">(0.0025902489667342806)</text>
</g>
<!-- 18&#45;&gt;41 -->
<g id="edge22" class="edge">
<title>18&#45;&gt;41</title>
<path fill="none" stroke="black" d="M3470.54,-370.03C3563.19,-358.02 3696.12,-340.3 3812.18,-322.96 3825.45,-320.98 3839.34,-318.82 3853.13,-316.63"/>
<polygon fill="black" stroke="black" points="3853.83,-320.06 3863.15,-315.03 3852.73,-313.15 3853.83,-320.06"/>
</g>
<!-- 5 -->
<g id="node10" class="node">
<title>5</title>
<ellipse fill="none" stroke="black" cx="137.18" cy="-206.35" rx="137.36" ry="26.74"/>
<text text-anchor="middle" x="137.18" y="-210.15" font-family="Times,serif" font-size="14.00">unfold star_.</text>
<text text-anchor="middle" x="137.18" y="-195.15" font-family="Times,serif" font-size="14.00">(0.38406338139900786)</text>
</g>
<!-- 4&#45;&gt;5 -->
<g id="edge9" class="edge">
<title>4&#45;&gt;5</title>
<path fill="none" stroke="black" d="M613.02,-280.89C524.28,-268.97 395.42,-251.09 283.18,-233.22 270.94,-231.27 258.15,-229.14 245.43,-226.97"/>
<polygon fill="black" stroke="black" points="245.72,-223.47 235.27,-225.22 244.53,-230.36 245.72,-223.47"/>
</g>
<!-- 7 -->
<g id="node11" class="node">
<title>7</title>
<ellipse fill="orange" stroke="black" cx="429.18" cy="-206.35" rx="137.36" ry="26.74"/>
<text text-anchor="middle" x="429.18" y="-210.15" font-family="Times,serif" font-size="14.00">eauto.</text>
<text text-anchor="middle" x="429.18" y="-195.15" font-family="Times,serif" font-size="14.00">(0.06292804911638064)</text>
</g>
<!-- 4&#45;&gt;7 -->
<g id="edge10" class="edge">
<title>4&#45;&gt;7</title>
<path fill="none" stroke="black" d="M649.37,-273.51C607.69,-260.99 555.02,-245.16 511.65,-232.13"/>
<polygon fill="black" stroke="black" points="512.56,-228.75 501.97,-229.22 510.54,-235.45 512.56,-228.75"/>
</g>
<!-- 8 -->
<g id="node12" class="node">
<title>8</title>
<ellipse fill="orange" stroke="black" cx="721.18" cy="-206.35" rx="137.36" ry="26.74"/>
<text text-anchor="middle" x="721.18" y="-210.15" font-family="Times,serif" font-size="14.00">rewrite starH_is_star.</text>
<text text-anchor="middle" x="721.18" y="-195.15" font-family="Times,serif" font-size="14.00">(0.05673733741354342)</text>
</g>
<!-- 4&#45;&gt;8 -->
<g id="edge11" class="edge">
<title>4&#45;&gt;8</title>
<path fill="none" stroke="black" d="M721.18,-268.77C721.18,-260.8 721.18,-251.91 721.18,-243.42"/>
<polygon fill="black" stroke="black" points="724.68,-243.35 721.18,-233.35 717.68,-243.35 724.68,-243.35"/>
</g>
<!-- 9 -->
<g id="node13" class="node">
<title>9</title>
<ellipse fill="none" stroke="black" cx="1020.18" cy="-206.35" rx="143.59" ry="26.74"/>
<text text-anchor="middle" x="1020.18" y="-210.15" font-family="Times,serif" font-size="14.00">destruct Gr.</text>
<text text-anchor="middle" x="1020.18" y="-195.15" font-family="Times,serif" font-size="14.00">(0.016069691858770926)</text>
</g>
<!-- 4&#45;&gt;9 -->
<g id="edge12" class="edge">
<title>4&#45;&gt;9</title>
<path fill="none" stroke="black" d="M793.94,-273.74C836.7,-261.19 890.94,-245.27 935.6,-232.17"/>
<polygon fill="black" stroke="black" points="936.66,-235.51 945.27,-229.33 934.69,-228.79 936.66,-235.51"/>
</g>
<!-- 6 -->
<g id="node14" class="node">
<title>6</title>
<ellipse fill="orange" stroke="black" cx="137.18" cy="-116.61" rx="137.36" ry="26.74"/>
<text text-anchor="middle" x="137.18" y="-120.41" font-family="Times,serif" font-size="14.00">unfold G_.</text>
<text text-anchor="middle" x="137.18" y="-105.41" font-family="Times,serif" font-size="14.00">(0.09741185570017907)</text>
</g>
<!-- 5&#45;&gt;6 -->
<g id="edge13" class="edge">
<title>5&#45;&gt;6</title>
<path fill="none" stroke="black" d="M137.18,-179.03C137.18,-171.06 137.18,-162.17 137.18,-153.68"/>
<polygon fill="black" stroke="black" points="140.68,-153.61 137.18,-143.61 133.68,-153.61 140.68,-153.61"/>
</g>
<!-- 10 -->
<g id="node15" class="node">
<title>10</title>
<ellipse fill="orange" stroke="black" cx="588.18" cy="-116.61" rx="130.63" ry="26.74"/>
<text text-anchor="middle" x="588.18" y="-120.41" font-family="Times,serif" font-size="14.00">eauto.</text>
<text text-anchor="middle" x="588.18" y="-105.41" font-family="Times,serif" font-size="14.00">(0.4707181027896193)</text>
</g>
<!-- 9&#45;&gt;10 -->
<g id="edge14" class="edge">
<title>9&#45;&gt;10</title>
<path fill="none" stroke="black" d="M925.37,-186.1C855.4,-171.88 760.33,-152.57 688.97,-138.08"/>
<polygon fill="black" stroke="black" points="689.56,-134.63 679.06,-136.07 688.17,-141.49 689.56,-134.63"/>
</g>
<!-- 11 -->
<g id="node16" class="node">
<title>11</title>
<ellipse fill="none" stroke="black" cx="874.18" cy="-116.61" rx="137.36" ry="26.74"/>
<text text-anchor="middle" x="874.18" y="-120.41" font-family="Times,serif" font-size="14.00">simpl.</text>
<text text-anchor="middle" x="874.18" y="-105.41" font-family="Times,serif" font-size="14.00">(0.15065028339900324)</text>
</g>
<!-- 9&#45;&gt;11 -->
<g id="edge15" class="edge">
<title>9&#45;&gt;11</title>
<path fill="none" stroke="black" d="M978.73,-180.44C961.63,-170.17 941.68,-158.17 923.81,-147.43"/>
<polygon fill="black" stroke="black" points="925.6,-144.43 915.22,-142.28 921.99,-150.43 925.6,-144.43"/>
</g>
<!-- 14 -->
<g id="node17" class="node">
<title>14</title>
<ellipse fill="orange" stroke="black" cx="1166.18" cy="-116.61" rx="137.36" ry="26.74"/>
<text text-anchor="middle" x="1166.18" y="-120.41" font-family="Times,serif" font-size="14.00">try discriminate.</text>
<text text-anchor="middle" x="1166.18" y="-105.41" font-family="Times,serif" font-size="14.00">(0.06396966730978239)</text>
</g>
<!-- 9&#45;&gt;14 -->
<g id="edge16" class="edge">
<title>9&#45;&gt;14</title>
<path fill="none" stroke="black" d="M1061.63,-180.44C1078.72,-170.17 1098.68,-158.17 1116.55,-147.43"/>
<polygon fill="black" stroke="black" points="1118.36,-150.43 1125.13,-142.28 1114.76,-144.43 1118.36,-150.43"/>
</g>
<!-- 12 -->
<g id="node18" class="node">
<title>12</title>
<ellipse fill="orange" stroke="black" cx="731.18" cy="-26.87" rx="130.63" ry="26.74"/>
<text text-anchor="middle" x="731.18" y="-30.67" font-family="Times,serif" font-size="14.00">eauto.</text>
<text text-anchor="middle" x="731.18" y="-15.67" font-family="Times,serif" font-size="14.00">(0.5518978196019043)</text>
</g>
<!-- 11&#45;&gt;12 -->
<g id="edge17" class="edge">
<title>11&#45;&gt;12</title>
<path fill="none" stroke="black" d="M833.58,-90.7C816.99,-80.52 797.64,-68.65 780.26,-57.99"/>
<polygon fill="black" stroke="black" points="781.73,-54.78 771.38,-52.54 778.07,-60.75 781.73,-54.78"/>
</g>
<!-- 13 -->
<g id="node19" class="node">
<title>13</title>
<ellipse fill="orange" stroke="black" cx="1017.18" cy="-26.87" rx="137.36" ry="26.74"/>
<text text-anchor="middle" x="1017.18" y="-30.67" font-family="Times,serif" font-size="14.00">try easy.</text>
<text text-anchor="middle" x="1017.18" y="-15.67" font-family="Times,serif" font-size="14.00">(0.06375134862522706)</text>
</g>
<!-- 11&#45;&gt;13 -->
<g id="edge18" class="edge">
<title>11&#45;&gt;13</title>
<path fill="none" stroke="black" d="M914.77,-90.7C931.23,-80.61 950.39,-68.85 967.65,-58.26"/>
<polygon fill="black" stroke="black" points="969.79,-61.05 976.48,-52.84 966.13,-55.09 969.79,-61.05"/>
</g>
<!-- 20 -->
<g id="node24" class="node">
<title>20</title>
<ellipse fill="none" stroke="black" cx="1598.18" cy="-206.35" rx="137.36" ry="26.74"/>
<text text-anchor="middle" x="1598.18" y="-210.15" font-family="Times,serif" font-size="14.00">unfold star_.</text>
<text text-anchor="middle" x="1598.18" y="-195.15" font-family="Times,serif" font-size="14.00">(0.22066175875039043)</text>
</g>
<!-- 19&#45;&gt;20 -->
<g id="edge23" class="edge">
<title>19&#45;&gt;20</title>
<path fill="none" stroke="black" d="M2211.43,-281.67C2079.65,-265.7 1860.22,-239.11 1722.67,-222.44"/>
<polygon fill="black" stroke="black" points="1722.85,-218.93 1712.5,-221.2 1722.01,-225.88 1722.85,-218.93"/>
</g>
<!-- 22 -->
<g id="node25" class="node">
<title>22</title>
<ellipse fill="orange" stroke="black" cx="2023.18" cy="-206.35" rx="137.36" ry="26.74"/>
<text text-anchor="middle" x="2023.18" y="-210.15" font-family="Times,serif" font-size="14.00">eauto.</text>
<text text-anchor="middle" x="2023.18" y="-195.15" font-family="Times,serif" font-size="14.00">(0.05758695078971104)</text>
</g>
<!-- 19&#45;&gt;22 -->
<g id="edge24" class="edge">
<title>19&#45;&gt;22</title>
<path fill="none" stroke="black" d="M2249.42,-273.74C2206.34,-261.1 2151.6,-245.03 2106.75,-231.87"/>
<polygon fill="black" stroke="black" points="2107.63,-228.48 2097.05,-229.03 2105.66,-235.2 2107.63,-228.48"/>
</g>
<!-- 23 -->
<g id="node26" class="node">
<title>23</title>
<ellipse fill="none" stroke="black" cx="2322.18" cy="-206.35" rx="143.59" ry="26.74"/>
<text text-anchor="middle" x="2322.18" y="-210.15" font-family="Times,serif" font-size="14.00">rewrite starH_is_star.</text>
<text text-anchor="middle" x="2322.18" y="-195.15" font-family="Times,serif" font-size="14.00">(0.020533191109991956)</text>
</g>
<!-- 19&#45;&gt;23 -->
<g id="edge25" class="edge">
<title>19&#45;&gt;23</title>
<path fill="none" stroke="black" d="M2322.18,-268.77C2322.18,-260.8 2322.18,-251.91 2322.18,-243.42"/>
<polygon fill="black" stroke="black" points="2325.68,-243.35 2322.18,-233.35 2318.68,-243.35 2325.68,-243.35"/>
</g>
<!-- 28 -->
<g id="node27" class="node">
<title>28</title>
<ellipse fill="none" stroke="black" cx="2913.18" cy="-206.35" rx="143.59" ry="26.74"/>
<text text-anchor="middle" x="2913.18" y="-210.15" font-family="Times,serif" font-size="14.00">destruct Gr.</text>
<text text-anchor="middle" x="2913.18" y="-195.15" font-family="Times,serif" font-size="14.00">(0.020404317029375237)</text>
</g>
<!-- 19&#45;&gt;28 -->
<g id="edge26" class="edge">
<title>19&#45;&gt;28</title>
<path fill="none" stroke="black" d="M2426.14,-279.66C2528.76,-264.42 2685.53,-241.15 2793.33,-225.14"/>
<polygon fill="black" stroke="black" points="2793.91,-228.6 2803.28,-223.67 2792.88,-221.67 2793.91,-228.6"/>
</g>
<!-- 35 -->
<g id="node38" class="node">
<title>35</title>
<ellipse fill="none" stroke="black" cx="3205.18" cy="-206.35" rx="130.63" ry="26.74"/>
<text text-anchor="middle" x="3205.18" y="-210.15" font-family="Times,serif" font-size="14.00">intros.</text>
<text text-anchor="middle" x="3205.18" y="-195.15" font-family="Times,serif" font-size="14.00">(0.9899514462893075)</text>
</g>
<!-- 34&#45;&gt;35 -->
<g id="edge37" class="edge">
<title>34&#45;&gt;35</title>
<path fill="none" stroke="black" d="M3311.88,-270.18C3294.36,-259.86 3273.89,-247.81 3255.59,-237.04"/>
<polygon fill="black" stroke="black" points="3257.2,-233.92 3246.81,-231.87 3253.65,-239.96 3257.2,-233.92"/>
</g>
<!-- 37 -->
<g id="node39" class="node">
<title>37</title>
<ellipse fill="orange" stroke="black" cx="3504.18" cy="-206.35" rx="149.81" ry="26.74"/>
<text text-anchor="middle" x="3504.18" y="-210.15" font-family="Times,serif" font-size="14.00">eauto.</text>
<text text-anchor="middle" x="3504.18" y="-195.15" font-family="Times,serif" font-size="14.00">(0.0035425851160647095)</text>
</g>
<!-- 34&#45;&gt;37 -->
<g id="edge38" class="edge">
<title>34&#45;&gt;37</title>
<path fill="none" stroke="black" d="M3396.76,-270.18C3414.25,-259.95 3434.66,-248.01 3452.96,-237.31"/>
<polygon fill="black" stroke="black" points="3454.88,-240.24 3461.75,-232.17 3451.35,-234.2 3454.88,-240.24"/>
</g>
<!-- 38 -->
<g id="node40" class="node">
<title>38</title>
<ellipse fill="orange" stroke="black" cx="3822.18" cy="-206.35" rx="149.81" ry="26.74"/>
<text text-anchor="middle" x="3822.18" y="-210.15" font-family="Times,serif" font-size="14.00">unfold G_.</text>
<text text-anchor="middle" x="3822.18" y="-195.15" font-family="Times,serif" font-size="14.00">(0.0006010439724493962)</text>
</g>
<!-- 34&#45;&gt;38 -->
<g id="edge39" class="edge">
<title>34&#45;&gt;38</title>
<path fill="none" stroke="black" d="M3453.14,-276.54C3528.77,-262.36 3633.01,-242.81 3711.42,-228.12"/>
<polygon fill="black" stroke="black" points="3712.15,-231.54 3721.34,-226.26 3710.86,-224.66 3712.15,-231.54"/>
</g>
<!-- 39 -->
<g id="node41" class="node">
<title>39</title>
<ellipse fill="orange" stroke="black" cx="4146.18" cy="-206.35" rx="156.04" ry="26.74"/>
<text text-anchor="middle" x="4146.18" y="-210.15" font-family="Times,serif" font-size="14.00">unfold star_.</text>
<text text-anchor="middle" x="4146.18" y="-195.15" font-family="Times,serif" font-size="14.00">(0.00010038850391437953)</text>
</g>
<!-- 34&#45;&gt;39 -->
<g id="edge40" class="edge">
<title>34&#45;&gt;39</title>
<path fill="none" stroke="black" d="M3454.14,-276.72C3471.45,-273.93 3489.31,-271.29 3506.18,-269.22 3716.32,-243.43 3770.87,-257.64 3981.18,-233.22 3996.06,-231.49 4011.66,-229.41 4027.08,-227.18"/>
<polygon fill="black" stroke="black" points="4027.79,-230.61 4037.18,-225.7 4026.78,-223.69 4027.79,-230.61"/>
</g>
<!-- 21 -->
<g id="node28" class="node">
<title>21</title>
<ellipse fill="orange" stroke="black" cx="1458.18" cy="-116.61" rx="137.36" ry="26.74"/>
<text text-anchor="middle" x="1458.18" y="-120.41" font-family="Times,serif" font-size="14.00">unfold G_.</text>
<text text-anchor="middle" x="1458.18" y="-105.41" font-family="Times,serif" font-size="14.00">(0.09741185570017907)</text>
</g>
<!-- 20&#45;&gt;21 -->
<g id="edge27" class="edge">
<title>20&#45;&gt;21</title>
<path fill="none" stroke="black" d="M1558.43,-180.44C1542.33,-170.35 1523.57,-158.59 1506.67,-148"/>
<polygon fill="black" stroke="black" points="1508.35,-144.93 1498.02,-142.58 1504.64,-150.86 1508.35,-144.93"/>
</g>
<!-- 24 -->
<g id="node29" class="node">
<title>24</title>
<ellipse fill="orange" stroke="black" cx="1744.18" cy="-116.61" rx="130.63" ry="26.74"/>
<text text-anchor="middle" x="1744.18" y="-120.41" font-family="Times,serif" font-size="14.00">eauto.</text>
<text text-anchor="middle" x="1744.18" y="-105.41" font-family="Times,serif" font-size="14.00">(0.1353918419982179)</text>
</g>
<!-- 23&#45;&gt;24 -->
<g id="edge28" class="edge">
<title>23&#45;&gt;24</title>
<path fill="none" stroke="black" d="M2219.81,-187.43C2202.91,-184.65 2185.57,-181.9 2169.18,-179.48 2042.87,-160.83 2010.34,-163.09 1884.18,-143.48 1872.13,-141.61 1859.53,-139.5 1847.04,-137.31"/>
<polygon fill="black" stroke="black" points="1847.51,-133.84 1837.06,-135.54 1846.29,-140.73 1847.51,-133.84"/>
</g>
<!-- 25 -->
<g id="node30" class="node">
<title>25</title>
<ellipse fill="orange" stroke="black" cx="2030.18" cy="-116.61" rx="137.36" ry="26.74"/>
<text text-anchor="middle" x="2030.18" y="-120.41" font-family="Times,serif" font-size="14.00">unfold star.</text>
<text text-anchor="middle" x="2030.18" y="-105.41" font-family="Times,serif" font-size="14.00">(0.11969939269862218)</text>
</g>
<!-- 23&#45;&gt;25 -->
<g id="edge29" class="edge">
<title>23&#45;&gt;25</title>
<path fill="none" stroke="black" d="M2248.49,-183.21C2207.12,-170.78 2155.37,-155.23 2112.64,-142.39"/>
<polygon fill="black" stroke="black" points="2113.41,-138.97 2102.83,-139.44 2111.4,-145.67 2113.41,-138.97"/>
</g>
<!-- 26 -->
<g id="node31" class="node">
<title>26</title>
<ellipse fill="orange" stroke="black" cx="2322.18" cy="-116.61" rx="137.36" ry="26.74"/>
<text text-anchor="middle" x="2322.18" y="-120.41" font-family="Times,serif" font-size="14.00">trivial.</text>
<text text-anchor="middle" x="2322.18" y="-105.41" font-family="Times,serif" font-size="14.00">(0.11764857545082927)</text>
</g>
<!-- 23&#45;&gt;26 -->
<g id="edge30" class="edge">
<title>23&#45;&gt;26</title>
<path fill="none" stroke="black" d="M2322.18,-179.03C2322.18,-171.06 2322.18,-162.17 2322.18,-153.68"/>
<polygon fill="black" stroke="black" points="2325.68,-153.61 2322.18,-143.61 2318.68,-153.61 2325.68,-153.61"/>
</g>
<!-- 27 -->
<g id="node32" class="node">
<title>27</title>
<ellipse fill="orange" stroke="black" cx="2621.18" cy="-116.61" rx="143.59" ry="26.74"/>
<text text-anchor="middle" x="2621.18" y="-120.41" font-family="Times,serif" font-size="14.00">idtac.</text>
<text text-anchor="middle" x="2621.18" y="-105.41" font-family="Times,serif" font-size="14.00">(0.012853650696770046)</text>
</g>
<!-- 23&#45;&gt;27 -->
<g id="edge31" class="edge">
<title>23&#45;&gt;27</title>
<path fill="none" stroke="black" d="M2397.24,-183.32C2439.62,-170.89 2492.71,-155.31 2536.56,-142.44"/>
<polygon fill="black" stroke="black" points="2537.73,-145.74 2546.34,-139.57 2535.76,-139.03 2537.73,-145.74"/>
</g>
<!-- 29 -->
<g id="node33" class="node">
<title>29</title>
<ellipse fill="orange" stroke="black" cx="2913.18" cy="-116.61" rx="130.63" ry="26.74"/>
<text text-anchor="middle" x="2913.18" y="-120.41" font-family="Times,serif" font-size="14.00">eauto.</text>
<text text-anchor="middle" x="2913.18" y="-105.41" font-family="Times,serif" font-size="14.00">(0.4707181027896193)</text>
</g>
<!-- 28&#45;&gt;29 -->
<g id="edge32" class="edge">
<title>28&#45;&gt;29</title>
<path fill="none" stroke="black" d="M2913.18,-179.03C2913.18,-171.06 2913.18,-162.17 2913.18,-153.68"/>
<polygon fill="black" stroke="black" points="2916.68,-153.61 2913.18,-143.61 2909.68,-153.61 2916.68,-153.61"/>
</g>
<!-- 30 -->
<g id="node34" class="node">
<title>30</title>
<ellipse fill="none" stroke="black" cx="3199.18" cy="-116.61" rx="137.36" ry="26.74"/>
<text text-anchor="middle" x="3199.18" y="-120.41" font-family="Times,serif" font-size="14.00">simpl.</text>
<text text-anchor="middle" x="3199.18" y="-105.41" font-family="Times,serif" font-size="14.00">(0.15065028339900324)</text>
</g>
<!-- 28&#45;&gt;30 -->
<g id="edge33" class="edge">
<title>28&#45;&gt;30</title>
<path fill="none" stroke="black" d="M2985.72,-183.1C3025.86,-170.78 3075.87,-155.44 3117.4,-142.7"/>
<polygon fill="black" stroke="black" points="3118.68,-145.97 3127.21,-139.69 3116.63,-139.28 3118.68,-145.97"/>
</g>
<!-- 33 -->
<g id="node35" class="node">
<title>33</title>
<ellipse fill="orange" stroke="black" cx="3491.18" cy="-116.61" rx="137.36" ry="26.74"/>
<text text-anchor="middle" x="3491.18" y="-120.41" font-family="Times,serif" font-size="14.00">try discriminate.</text>
<text text-anchor="middle" x="3491.18" y="-105.41" font-family="Times,serif" font-size="14.00">(0.06396966730978239)</text>
</g>
<!-- 28&#45;&gt;33 -->
<g id="edge34" class="edge">
<title>28&#45;&gt;33</title>
<path fill="none" stroke="black" d="M3015.29,-187.38C3031.95,-184.62 3049.03,-181.89 3065.18,-179.48 3189.27,-160.95 3221.15,-162.43 3345.18,-143.48 3357.65,-141.57 3370.7,-139.45 3383.64,-137.26"/>
<polygon fill="black" stroke="black" points="3384.24,-140.71 3393.51,-135.58 3383.06,-133.81 3384.24,-140.71"/>
</g>
<!-- 31 -->
<g id="node36" class="node">
<title>31</title>
<ellipse fill="orange" stroke="black" cx="3056.18" cy="-26.87" rx="130.63" ry="26.74"/>
<text text-anchor="middle" x="3056.18" y="-30.67" font-family="Times,serif" font-size="14.00">eauto.</text>
<text text-anchor="middle" x="3056.18" y="-15.67" font-family="Times,serif" font-size="14.00">(0.5518978196019043)</text>
</g>
<!-- 30&#45;&gt;31 -->
<g id="edge35" class="edge">
<title>30&#45;&gt;31</title>
<path fill="none" stroke="black" d="M3158.58,-90.7C3141.99,-80.52 3122.64,-68.65 3105.26,-57.99"/>
<polygon fill="black" stroke="black" points="3106.73,-54.78 3096.38,-52.54 3103.07,-60.75 3106.73,-54.78"/>
</g>
<!-- 32 -->
<g id="node37" class="node">
<title>32</title>
<ellipse fill="orange" stroke="black" cx="3342.18" cy="-26.87" rx="137.36" ry="26.74"/>
<text text-anchor="middle" x="3342.18" y="-30.67" font-family="Times,serif" font-size="14.00">try easy.</text>
<text text-anchor="middle" x="3342.18" y="-15.67" font-family="Times,serif" font-size="14.00">(0.06375134862522706)</text>
</g>
<!-- 30&#45;&gt;32 -->
<g id="edge36" class="edge">
<title>30&#45;&gt;32</title>
<path fill="none" stroke="black" d="M3239.77,-90.7C3256.23,-80.61 3275.39,-68.85 3292.65,-58.26"/>
<polygon fill="black" stroke="black" points="3294.79,-61.05 3301.48,-52.84 3291.13,-55.09 3294.79,-61.05"/>
</g>
<!-- 36 -->
<g id="node42" class="node">
<title>36</title>
<ellipse fill="orange" stroke="black" cx="3777.18" cy="-116.61" rx="130.63" ry="26.74"/>
<text text-anchor="middle" x="3777.18" y="-120.41" font-family="Times,serif" font-size="14.00">unfold G_.</text>
<text text-anchor="middle" x="3777.18" y="-105.41" font-family="Times,serif" font-size="14.00">(0.1539752972937354)</text>
</g>
<!-- 35&#45;&gt;36 -->
<g id="edge41" class="edge">
<title>35&#45;&gt;36</title>
<path fill="none" stroke="black" d="M3298.05,-187.38C3313.75,-184.57 3329.91,-181.83 3345.18,-179.48 3474.42,-159.59 3507.94,-163.37 3637.18,-143.48 3649.23,-141.63 3661.83,-139.53 3674.32,-137.34"/>
<polygon fill="black" stroke="black" points="3675.07,-140.77 3684.31,-135.58 3673.85,-133.87 3675.07,-140.77"/>
</g>
</g>
</svg>
