<?xml version="1.0" encoding="UTF-8" standalone="no"?>
<!DOCTYPE svg PUBLIC "-//W3C//DTD SVG 1.1//EN"
 "http://www.w3.org/Graphics/SVG/1.1/DTD/svg11.dtd">
<!-- Generated by graphviz version 2.43.0 (0)
 -->
<!-- Pages: 1 -->
<svg width="724pt" height="510pt"
 viewBox="0.00 0.00 724.36 510.44" xmlns="http://www.w3.org/2000/svg" xmlns:xlink="http://www.w3.org/1999/xlink">
<g id="graph0" class="graph" transform="scale(1 1) rotate(0) translate(4 506.44)">
<polygon fill="white" stroke="transparent" points="-4,4 -4,-506.44 720.36,-506.44 720.36,4 -4,4"/>
<!-- 0 -->
<g id="node1" class="node">
<title>0</title>
<ellipse fill="none" stroke="black" cx="276.81" cy="-475.57" rx="35.21" ry="26.74"/>
<text text-anchor="middle" x="276.81" y="-479.37" font-family="Times,serif" font-size="14.00">l1</text>
<text text-anchor="middle" x="276.81" y="-464.37" font-family="Times,serif" font-size="14.00">(1.0)</text>
</g>
<!-- 1 -->
<g id="node2" class="node">
<title>1</title>
<ellipse fill="orange" stroke="black" cx="130.81" cy="-385.83" rx="130.63" ry="26.74"/>
<text text-anchor="middle" x="130.81" y="-389.63" font-family="Times,serif" font-size="14.00">eauto.</text>
<text text-anchor="middle" x="130.81" y="-374.63" font-family="Times,serif" font-size="14.00">(0.6487614449022338)</text>
</g>
<!-- 0&#45;&gt;1 -->
<g id="edge1" class="edge">
<title>0&#45;&gt;1</title>
<path fill="none" stroke="black" d="M249.7,-458.27C230.32,-446.63 203.69,-430.62 180.54,-416.71"/>
<polygon fill="black" stroke="black" points="182.24,-413.65 171.86,-411.5 178.63,-419.65 182.24,-413.65"/>
</g>
<!-- 2 -->
<g id="node3" class="node">
<title>2</title>
<ellipse fill="#9aff9a" stroke="black" cx="422.81" cy="-385.83" rx="143.59" ry="26.74"/>
<text text-anchor="middle" x="422.81" y="-389.63" font-family="Times,serif" font-size="14.00">red.</text>
<text text-anchor="middle" x="422.81" y="-374.63" font-family="Times,serif" font-size="14.00">(0.024288357013344093)</text>
</g>
<!-- 0&#45;&gt;2 -->
<g id="edge2" class="edge">
<title>0&#45;&gt;2</title>
<path fill="none" stroke="black" d="M303.93,-458.27C323.24,-446.67 349.74,-430.74 372.83,-416.87"/>
<polygon fill="black" stroke="black" points="374.71,-419.82 381.48,-411.67 371.11,-413.82 374.71,-419.82"/>
</g>
<!-- 3 -->
<g id="node4" class="node">
<title>3</title>
<ellipse fill="#9aff9a" stroke="black" cx="422.81" cy="-296.09" rx="130.63" ry="26.74"/>
<text text-anchor="middle" x="422.81" y="-299.89" font-family="Times,serif" font-size="14.00">intros.</text>
<text text-anchor="middle" x="422.81" y="-284.89" font-family="Times,serif" font-size="14.00">(0.7441106621530721)</text>
</g>
<!-- 2&#45;&gt;3 -->
<g id="edge3" class="edge">
<title>2&#45;&gt;3</title>
<path fill="none" stroke="black" d="M422.81,-358.51C422.81,-350.54 422.81,-341.65 422.81,-333.16"/>
<polygon fill="black" stroke="black" points="426.31,-333.09 422.81,-323.09 419.31,-333.09 426.31,-333.09"/>
</g>
<!-- 4 -->
<g id="node5" class="node">
<title>4</title>
<ellipse fill="orange" stroke="black" cx="273.81" cy="-206.35" rx="137.36" ry="26.74"/>
<text text-anchor="middle" x="273.81" y="-210.15" font-family="Times,serif" font-size="14.00">eauto.</text>
<text text-anchor="middle" x="273.81" y="-195.15" font-family="Times,serif" font-size="14.00">(0.13324059847549996)</text>
</g>
<!-- 3&#45;&gt;4 -->
<g id="edge4" class="edge">
<title>3&#45;&gt;4</title>
<path fill="none" stroke="black" d="M380.91,-270.42C363.38,-260.09 342.85,-248 324.48,-237.19"/>
<polygon fill="black" stroke="black" points="326.05,-234.05 315.66,-231.99 322.5,-240.08 326.05,-234.05"/>
</g>
<!-- 5 -->
<g id="node6" class="node">
<title>5</title>
<ellipse fill="#9aff9a" stroke="black" cx="572.81" cy="-206.35" rx="143.59" ry="26.74"/>
<text text-anchor="middle" x="572.81" y="-210.15" font-family="Times,serif" font-size="14.00">destruct sub.</text>
<text text-anchor="middle" x="572.81" y="-195.15" font-family="Times,serif" font-size="14.00">(0.027394368075067167)</text>
</g>
<!-- 3&#45;&gt;5 -->
<g id="edge5" class="edge">
<title>3&#45;&gt;5</title>
<path fill="none" stroke="black" d="M465,-270.42C482.57,-260.14 503.14,-248.11 521.57,-237.32"/>
<polygon fill="black" stroke="black" points="523.56,-240.21 530.43,-232.14 520.03,-234.17 523.56,-240.21"/>
</g>
<!-- 6 -->
<g id="node7" class="node">
<title>6</title>
<ellipse fill="#9aff9a" stroke="black" cx="572.81" cy="-116.61" rx="137.36" ry="26.74"/>
<text text-anchor="middle" x="572.81" y="-120.41" font-family="Times,serif" font-size="14.00">eauto.</text>
<text text-anchor="middle" x="572.81" y="-105.41" font-family="Times,serif" font-size="14.00">(0.39399533355931665)</text>
</g>
<!-- 5&#45;&gt;6 -->
<g id="edge6" class="edge">
<title>5&#45;&gt;6</title>
<path fill="none" stroke="black" d="M572.81,-179.03C572.81,-171.06 572.81,-162.17 572.81,-153.68"/>
<polygon fill="black" stroke="black" points="576.31,-153.61 572.81,-143.61 569.31,-153.61 576.31,-153.61"/>
</g>
<!-- 7 -->
<g id="node8" class="node">
<title>7</title>
<ellipse fill="green" stroke="black" cx="572.81" cy="-26.87" rx="35.21" ry="26.74"/>
<text text-anchor="middle" x="572.81" y="-30.67" font-family="Times,serif" font-size="14.00">QED</text>
<text text-anchor="middle" x="572.81" y="-15.67" font-family="Times,serif" font-size="14.00">(1.0)</text>
</g>
<!-- 6&#45;&gt;7 -->
<g id="edge7" class="edge">
<title>6&#45;&gt;7</title>
<path fill="none" stroke="black" d="M572.81,-89.29C572.81,-81.32 572.81,-72.43 572.81,-63.94"/>
<polygon fill="green" stroke="black" points="576.31,-63.87 572.81,-53.87 569.31,-63.87 576.31,-63.87"/>
</g>
</g>
</svg>
