<?xml version="1.0" encoding="UTF-8" standalone="no"?>
<!DOCTYPE svg PUBLIC "-//W3C//DTD SVG 1.1//EN"
 "http://www.w3.org/Graphics/SVG/1.1/DTD/svg11.dtd">
<!-- Generated by graphviz version 2.43.0 (0)
 -->
<!-- Pages: 1 -->
<svg width="2722pt" height="421pt"
 viewBox="0.00 0.00 2722.09 420.70" xmlns="http://www.w3.org/2000/svg" xmlns:xlink="http://www.w3.org/1999/xlink">
<g id="graph0" class="graph" transform="scale(1 1) rotate(0) translate(4 416.7)">
<polygon fill="white" stroke="transparent" points="-4,4 -4,-416.7 2718.09,-416.7 2718.09,4 -4,4"/>
<!-- 0 -->
<g id="node1" class="node">
<title>0</title>
<ellipse fill="none" stroke="black" cx="756.18" cy="-385.83" rx="35.21" ry="26.74"/>
<text text-anchor="middle" x="756.18" y="-389.63" font-family="Times,serif" font-size="14.00">Ex4</text>
<text text-anchor="middle" x="756.18" y="-374.63" font-family="Times,serif" font-size="14.00">(1.0)</text>
</g>
<!-- 1 -->
<g id="node2" class="node">
<title>1</title>
<ellipse fill="orange" stroke="black" cx="620.18" cy="-296.09" rx="130.63" ry="26.74"/>
<text text-anchor="middle" x="620.18" y="-299.89" font-family="Times,serif" font-size="14.00">eauto.</text>
<text text-anchor="middle" x="620.18" y="-284.89" font-family="Times,serif" font-size="14.00">(0.4017676799361351)</text>
</g>
<!-- 0&#45;&gt;1 -->
<g id="edge1" class="edge">
<title>0&#45;&gt;1</title>
<path fill="none" stroke="black" d="M729.63,-367.71C711.83,-356.22 687.9,-340.78 666.96,-327.27"/>
<polygon fill="black" stroke="black" points="668.8,-324.29 658.5,-321.81 665,-330.17 668.8,-324.29"/>
</g>
<!-- 2 -->
<g id="node3" class="node">
<title>2</title>
<ellipse fill="none" stroke="black" cx="893.18" cy="-296.09" rx="124.4" ry="26.74"/>
<text text-anchor="middle" x="893.18" y="-299.89" font-family="Times,serif" font-size="14.00">unfold e.</text>
<text text-anchor="middle" x="893.18" y="-284.89" font-family="Times,serif" font-size="14.00">(0.034251820250473)</text>
</g>
<!-- 0&#45;&gt;2 -->
<g id="edge2" class="edge">
<title>0&#45;&gt;2</title>
<path fill="none" stroke="black" d="M782.59,-367.91C800.57,-356.4 824.85,-340.85 846.09,-327.25"/>
<polygon fill="black" stroke="black" points="848.13,-330.1 854.66,-321.76 844.35,-324.2 848.13,-330.1"/>
</g>
<!-- 3 -->
<g id="node4" class="node">
<title>3</title>
<ellipse fill="orange" stroke="black" cx="601.18" cy="-206.35" rx="137.36" ry="26.74"/>
<text text-anchor="middle" x="601.18" y="-210.15" font-family="Times,serif" font-size="14.00">eauto.</text>
<text text-anchor="middle" x="601.18" y="-195.15" font-family="Times,serif" font-size="14.00">(0.33443134007892267)</text>
</g>
<!-- 2&#45;&gt;3 -->
<g id="edge3" class="edge">
<title>2&#45;&gt;3</title>
<path fill="none" stroke="black" d="M822.49,-273.85C780.6,-261.26 727.3,-245.25 683.51,-232.09"/>
<polygon fill="black" stroke="black" points="684.34,-228.68 673.75,-229.16 682.32,-235.39 684.34,-228.68"/>
</g>
<!-- 4 -->
<g id="node5" class="node">
<title>4</title>
<ellipse fill="none" stroke="black" cx="893.18" cy="-206.35" rx="137.36" ry="26.74"/>
<text text-anchor="middle" x="893.18" y="-210.15" font-family="Times,serif" font-size="14.00">unfold e_.</text>
<text text-anchor="middle" x="893.18" y="-195.15" font-family="Times,serif" font-size="14.00">(0.09892209281597601)</text>
</g>
<!-- 2&#45;&gt;4 -->
<g id="edge4" class="edge">
<title>2&#45;&gt;4</title>
<path fill="none" stroke="black" d="M893.18,-268.77C893.18,-260.8 893.18,-251.91 893.18,-243.42"/>
<polygon fill="black" stroke="black" points="896.68,-243.35 893.18,-233.35 889.68,-243.35 896.68,-243.35"/>
</g>
<!-- 10 -->
<g id="node6" class="node">
<title>10</title>
<ellipse fill="none" stroke="black" cx="1961.18" cy="-206.35" rx="143.59" ry="26.74"/>
<text text-anchor="middle" x="1961.18" y="-210.15" font-family="Times,serif" font-size="14.00">destruct Gr.</text>
<text text-anchor="middle" x="1961.18" y="-195.15" font-family="Times,serif" font-size="14.00">(0.030640675047655386)</text>
</g>
<!-- 2&#45;&gt;10 -->
<g id="edge5" class="edge">
<title>2&#45;&gt;10</title>
<path fill="none" stroke="black" d="M1007.98,-285.66C1205.4,-269.44 1608.48,-236.33 1821.72,-218.81"/>
<polygon fill="black" stroke="black" points="1822.05,-222.29 1831.73,-217.99 1821.47,-215.32 1822.05,-222.29"/>
</g>
<!-- 5 -->
<g id="node7" class="node">
<title>5</title>
<ellipse fill="orange" stroke="black" cx="137.18" cy="-116.61" rx="137.36" ry="26.74"/>
<text text-anchor="middle" x="137.18" y="-120.41" font-family="Times,serif" font-size="14.00">intros.</text>
<text text-anchor="middle" x="137.18" y="-105.41" font-family="Times,serif" font-size="14.00">(0.10345936173819936)</text>
</g>
<!-- 4&#45;&gt;5 -->
<g id="edge6" class="edge">
<title>4&#45;&gt;5</title>
<path fill="none" stroke="black" d="M797.57,-187.03C780.82,-184.21 763.52,-181.56 747.18,-179.48 541.99,-153.4 488.37,-169.56 283.18,-143.48 270.03,-141.81 256.26,-139.76 242.65,-137.56"/>
<polygon fill="black" stroke="black" points="243.22,-134.11 232.79,-135.93 242.08,-141.01 243.22,-134.11"/>
</g>
<!-- 6 -->
<g id="node8" class="node">
<title>6</title>
<ellipse fill="orange" stroke="black" cx="429.18" cy="-116.61" rx="137.36" ry="26.74"/>
<text text-anchor="middle" x="429.18" y="-120.41" font-family="Times,serif" font-size="14.00">unfold G_.</text>
<text text-anchor="middle" x="429.18" y="-105.41" font-family="Times,serif" font-size="14.00">(0.03833313874496487)</text>
</g>
<!-- 4&#45;&gt;6 -->
<g id="edge7" class="edge">
<title>4&#45;&gt;6</title>
<path fill="none" stroke="black" d="M797.04,-187.17C720.8,-172.75 614.33,-152.62 535.55,-137.72"/>
<polygon fill="black" stroke="black" points="536.07,-134.26 525.59,-135.84 534.77,-141.14 536.07,-134.26"/>
</g>
<!-- 7 -->
<g id="node9" class="node">
<title>7</title>
<ellipse fill="orange" stroke="black" cx="734.18" cy="-116.61" rx="149.81" ry="26.74"/>
<text text-anchor="middle" x="734.18" y="-120.41" font-family="Times,serif" font-size="14.00">unfold star_.</text>
<text text-anchor="middle" x="734.18" y="-105.41" font-family="Times,serif" font-size="14.00">(0.0051745603878896465)</text>
</g>
<!-- 4&#45;&gt;7 -->
<g id="edge8" class="edge">
<title>4&#45;&gt;7</title>
<path fill="none" stroke="black" d="M848.89,-180.91C830,-170.49 807.8,-158.23 787.98,-147.3"/>
<polygon fill="black" stroke="black" points="789.51,-144.14 779.06,-142.38 786.12,-150.27 789.51,-144.14"/>
</g>
<!-- 8 -->
<g id="node10" class="node">
<title>8</title>
<ellipse fill="orange" stroke="black" cx="1052.18" cy="-116.61" rx="149.81" ry="26.74"/>
<text text-anchor="middle" x="1052.18" y="-120.41" font-family="Times,serif" font-size="14.00">unfold inv_.</text>
<text text-anchor="middle" x="1052.18" y="-105.41" font-family="Times,serif" font-size="14.00">(0.0049235969177028735)</text>
</g>
<!-- 4&#45;&gt;8 -->
<g id="edge9" class="edge">
<title>4&#45;&gt;8</title>
<path fill="none" stroke="black" d="M937.47,-180.91C956.35,-170.49 978.56,-158.23 998.38,-147.3"/>
<polygon fill="black" stroke="black" points="1000.23,-150.27 1007.3,-142.38 996.85,-144.14 1000.23,-150.27"/>
</g>
<!-- 9 -->
<g id="node11" class="node">
<title>9</title>
<ellipse fill="orange" stroke="black" cx="1370.18" cy="-116.61" rx="149.81" ry="26.74"/>
<text text-anchor="middle" x="1370.18" y="-120.41" font-family="Times,serif" font-size="14.00">unfold e_.</text>
<text text-anchor="middle" x="1370.18" y="-105.41" font-family="Times,serif" font-size="14.00">(0.0021410526633716047)</text>
</g>
<!-- 4&#45;&gt;9 -->
<g id="edge10" class="edge">
<title>4&#45;&gt;9</title>
<path fill="none" stroke="black" d="M990.86,-187.38C1068.36,-173.13 1176.77,-153.19 1257.85,-138.27"/>
<polygon fill="black" stroke="black" points="1258.9,-141.64 1268.1,-136.39 1257.63,-134.75 1258.9,-141.64"/>
</g>
<!-- 11 -->
<g id="node12" class="node">
<title>11</title>
<ellipse fill="none" stroke="black" cx="1675.18" cy="-116.61" rx="137.36" ry="26.74"/>
<text text-anchor="middle" x="1675.18" y="-120.41" font-family="Times,serif" font-size="14.00">simpl.</text>
<text text-anchor="middle" x="1675.18" y="-105.41" font-family="Times,serif" font-size="14.00">(0.44995006264380727)</text>
</g>
<!-- 10&#45;&gt;11 -->
<g id="edge11" class="edge">
<title>10&#45;&gt;11</title>
<path fill="none" stroke="black" d="M1888.64,-183.1C1848.5,-170.78 1798.48,-155.44 1756.96,-142.7"/>
<polygon fill="black" stroke="black" points="1757.73,-139.28 1747.15,-139.69 1755.68,-145.97 1757.73,-139.28"/>
</g>
<!-- 15 -->
<g id="node13" class="node">
<title>15</title>
<ellipse fill="orange" stroke="black" cx="1961.18" cy="-116.61" rx="130.63" ry="26.74"/>
<text text-anchor="middle" x="1961.18" y="-120.41" font-family="Times,serif" font-size="14.00">eauto.</text>
<text text-anchor="middle" x="1961.18" y="-105.41" font-family="Times,serif" font-size="14.00">(0.4315608779261556)</text>
</g>
<!-- 10&#45;&gt;15 -->
<g id="edge12" class="edge">
<title>10&#45;&gt;15</title>
<path fill="none" stroke="black" d="M1961.18,-179.03C1961.18,-171.06 1961.18,-162.17 1961.18,-153.68"/>
<polygon fill="black" stroke="black" points="1964.68,-153.61 1961.18,-143.61 1957.68,-153.61 1964.68,-153.61"/>
</g>
<!-- 16 -->
<g id="node14" class="node">
<title>16</title>
<ellipse fill="orange" stroke="black" cx="2253.18" cy="-116.61" rx="143.59" ry="26.74"/>
<text text-anchor="middle" x="2253.18" y="-120.41" font-family="Times,serif" font-size="14.00">try reflexivity.</text>
<text text-anchor="middle" x="2253.18" y="-105.41" font-family="Times,serif" font-size="14.00">(0.016227638818623817)</text>
</g>
<!-- 10&#45;&gt;16 -->
<g id="edge13" class="edge">
<title>10&#45;&gt;16</title>
<path fill="none" stroke="black" d="M2034.86,-183.21C2075.93,-170.87 2127.21,-155.46 2169.75,-142.68"/>
<polygon fill="black" stroke="black" points="2170.95,-145.97 2179.52,-139.74 2168.93,-139.27 2170.95,-145.97"/>
</g>
<!-- 17 -->
<g id="node15" class="node">
<title>17</title>
<ellipse fill="orange" stroke="black" cx="2564.18" cy="-116.61" rx="149.81" ry="26.74"/>
<text text-anchor="middle" x="2564.18" y="-120.41" font-family="Times,serif" font-size="14.00">try discriminate.</text>
<text text-anchor="middle" x="2564.18" y="-105.41" font-family="Times,serif" font-size="14.00">(0.0024698432364476976)</text>
</g>
<!-- 10&#45;&gt;17 -->
<g id="edge14" class="edge">
<title>10&#45;&gt;17</title>
<path fill="none" stroke="black" d="M2076.08,-190.15C2166,-178.07 2294.16,-160.44 2406.18,-143.48 2419.45,-141.47 2433.33,-139.3 2447.13,-137.1"/>
<polygon fill="black" stroke="black" points="2447.83,-140.53 2457.15,-135.49 2446.72,-133.62 2447.83,-140.53"/>
</g>
<!-- 12 -->
<g id="node16" class="node">
<title>12</title>
<ellipse fill="orange" stroke="black" cx="1389.18" cy="-26.87" rx="130.63" ry="26.74"/>
<text text-anchor="middle" x="1389.18" y="-30.67" font-family="Times,serif" font-size="14.00">eauto.</text>
<text text-anchor="middle" x="1389.18" y="-15.67" font-family="Times,serif" font-size="14.00">(0.8756336413064632)</text>
</g>
<!-- 11&#45;&gt;12 -->
<g id="edge15" class="edge">
<title>11&#45;&gt;12</title>
<path fill="none" stroke="black" d="M1603.38,-93.58C1562.7,-81.1 1511.7,-65.46 1469.67,-52.56"/>
<polygon fill="black" stroke="black" points="1470.6,-49.19 1460.02,-49.6 1468.55,-55.88 1470.6,-49.19"/>
</g>
<!-- 13 -->
<g id="node17" class="node">
<title>13</title>
<ellipse fill="orange" stroke="black" cx="1675.18" cy="-26.87" rx="137.36" ry="26.74"/>
<text text-anchor="middle" x="1675.18" y="-30.67" font-family="Times,serif" font-size="14.00">try easy.</text>
<text text-anchor="middle" x="1675.18" y="-15.67" font-family="Times,serif" font-size="14.00">(0.01597504705682312)</text>
</g>
<!-- 11&#45;&gt;13 -->
<g id="edge16" class="edge">
<title>11&#45;&gt;13</title>
<path fill="none" stroke="black" d="M1675.18,-89.29C1675.18,-81.32 1675.18,-72.43 1675.18,-63.94"/>
<polygon fill="black" stroke="black" points="1678.68,-63.87 1675.18,-53.87 1671.68,-63.87 1678.68,-63.87"/>
</g>
<!-- 14 -->
<g id="node18" class="node">
<title>14</title>
<ellipse fill="orange" stroke="black" cx="1974.18" cy="-26.87" rx="143.59" ry="26.74"/>
<text text-anchor="middle" x="1974.18" y="-30.67" font-family="Times,serif" font-size="14.00">f_equal.</text>
<text text-anchor="middle" x="1974.18" y="-15.67" font-family="Times,serif" font-size="14.00">(0.006573513300258032)</text>
</g>
<!-- 11&#45;&gt;14 -->
<g id="edge17" class="edge">
<title>11&#45;&gt;14</title>
<path fill="none" stroke="black" d="M1749.09,-93.92C1791.61,-81.44 1845.21,-65.71 1889.44,-52.74"/>
<polygon fill="black" stroke="black" points="1890.69,-56.02 1899.3,-49.84 1888.72,-49.3 1890.69,-56.02"/>
</g>
</g>
</svg>
