<?xml version="1.0" encoding="UTF-8" standalone="no"?>
<!DOCTYPE svg PUBLIC "-//W3C//DTD SVG 1.1//EN"
 "http://www.w3.org/Graphics/SVG/1.1/DTD/svg11.dtd">
<!-- Generated by graphviz version 2.43.0 (0)
 -->
<!-- Pages: 1 -->
<svg width="2064pt" height="869pt"
 viewBox="0.00 0.00 2063.99 869.40" xmlns="http://www.w3.org/2000/svg" xmlns:xlink="http://www.w3.org/1999/xlink">
<g id="graph0" class="graph" transform="scale(1 1) rotate(0) translate(4 865.4)">
<polygon fill="white" stroke="transparent" points="-4,4 -4,-865.4 2059.99,-865.4 2059.99,4 -4,4"/>
<!-- 0 -->
<g id="node1" class="node">
<title>0</title>
<ellipse fill="none" stroke="black" cx="877.81" cy="-834.53" rx="51.74" ry="26.74"/>
<text text-anchor="middle" x="877.81" y="-838.33" font-family="Times,serif" font-size="14.00">T_1_6_2</text>
<text text-anchor="middle" x="877.81" y="-823.33" font-family="Times,serif" font-size="14.00">(1.0)</text>
</g>
<!-- 1 -->
<g id="node2" class="node">
<title>1</title>
<ellipse fill="orange" stroke="black" cx="585.81" cy="-744.79" rx="130.63" ry="26.74"/>
<text text-anchor="middle" x="585.81" y="-748.59" font-family="Times,serif" font-size="14.00">eauto.</text>
<text text-anchor="middle" x="585.81" y="-733.59" font-family="Times,serif" font-size="14.00">(0.7875825645408189)</text>
</g>
<!-- 0&#45;&gt;1 -->
<g id="edge1" class="edge">
<title>0&#45;&gt;1</title>
<path fill="none" stroke="black" d="M833.78,-820.3C789.84,-807.1 721.27,-786.49 667.37,-770.3"/>
<polygon fill="black" stroke="black" points="668.07,-766.85 657.48,-767.33 666.05,-773.56 668.07,-766.85"/>
</g>
<!-- 2 -->
<g id="node3" class="node">
<title>2</title>
<ellipse fill="none" stroke="black" cx="877.81" cy="-744.79" rx="143.59" ry="26.74"/>
<text text-anchor="middle" x="877.81" y="-748.59" font-family="Times,serif" font-size="14.00">econstructor.</text>
<text text-anchor="middle" x="877.81" y="-733.59" font-family="Times,serif" font-size="14.00">(0.023058659918791566)</text>
</g>
<!-- 0&#45;&gt;2 -->
<g id="edge2" class="edge">
<title>0&#45;&gt;2</title>
<path fill="none" stroke="black" d="M877.81,-807.21C877.81,-799.24 877.81,-790.35 877.81,-781.86"/>
<polygon fill="black" stroke="black" points="881.31,-781.79 877.81,-771.79 874.31,-781.8 881.31,-781.79"/>
</g>
<!-- 31 -->
<g id="node4" class="node">
<title>31</title>
<ellipse fill="#9aff9a" stroke="black" cx="1478.81" cy="-744.79" rx="143.59" ry="26.74"/>
<text text-anchor="middle" x="1478.81" y="-748.59" font-family="Times,serif" font-size="14.00">red.</text>
<text text-anchor="middle" x="1478.81" y="-733.59" font-family="Times,serif" font-size="14.00">(0.022674057883092794)</text>
</g>
<!-- 0&#45;&gt;31 -->
<g id="edge3" class="edge">
<title>0&#45;&gt;31</title>
<path fill="none" stroke="black" d="M927,-826.35C1020.37,-812.72 1225.79,-782.73 1357.95,-763.44"/>
<polygon fill="black" stroke="black" points="1358.74,-766.86 1368.13,-761.95 1357.73,-759.93 1358.74,-766.86"/>
</g>
<!-- 3 -->
<g id="node5" class="node">
<title>3</title>
<ellipse fill="none" stroke="black" cx="426.81" cy="-655.05" rx="130.63" ry="26.74"/>
<text text-anchor="middle" x="426.81" y="-658.85" font-family="Times,serif" font-size="14.00">split.</text>
<text text-anchor="middle" x="426.81" y="-643.85" font-family="Times,serif" font-size="14.00">(0.9295721714041895)</text>
</g>
<!-- 2&#45;&gt;3 -->
<g id="edge4" class="edge">
<title>2&#45;&gt;3</title>
<path fill="none" stroke="black" d="M780.79,-724.91C706.71,-710.5 604.86,-690.69 529.43,-676.01"/>
<polygon fill="black" stroke="black" points="529.92,-672.54 519.44,-674.07 528.59,-679.42 529.92,-672.54"/>
</g>
<!-- 17 -->
<g id="node6" class="node">
<title>17</title>
<ellipse fill="orange" stroke="black" cx="722.81" cy="-655.05" rx="137.36" ry="26.74"/>
<text text-anchor="middle" x="722.81" y="-658.85" font-family="Times,serif" font-size="14.00">eauto.</text>
<text text-anchor="middle" x="722.81" y="-643.85" font-family="Times,serif" font-size="14.00">(0.06830126964289332)</text>
</g>
<!-- 2&#45;&gt;17 -->
<g id="edge5" class="edge">
<title>2&#45;&gt;17</title>
<path fill="none" stroke="black" d="M834.23,-719.12C815.91,-708.75 794.44,-696.59 775.26,-685.74"/>
<polygon fill="black" stroke="black" points="776.77,-682.57 766.34,-680.69 773.32,-688.66 776.77,-682.57"/>
</g>
<!-- 18 -->
<g id="node7" class="node">
<title>18</title>
<ellipse fill="none" stroke="black" cx="1033.81" cy="-655.05" rx="156.04" ry="26.74"/>
<text text-anchor="middle" x="1033.81" y="-658.85" font-family="Times,serif" font-size="14.00">intuition.</text>
<text text-anchor="middle" x="1033.81" y="-643.85" font-family="Times,serif" font-size="14.00">(0.00024110077394020045)</text>
</g>
<!-- 2&#45;&gt;18 -->
<g id="edge6" class="edge">
<title>2&#45;&gt;18</title>
<path fill="none" stroke="black" d="M921.68,-719.12C940.04,-708.79 961.55,-696.7 980.79,-685.88"/>
<polygon fill="black" stroke="black" points="982.73,-688.8 989.73,-680.84 979.3,-682.7 982.73,-688.8"/>
</g>
<!-- 32 -->
<g id="node33" class="node">
<title>32</title>
<ellipse fill="orange" stroke="black" cx="1338.81" cy="-655.05" rx="124.4" ry="26.74"/>
<text text-anchor="middle" x="1338.81" y="-658.85" font-family="Times,serif" font-size="14.00">eauto.</text>
<text text-anchor="middle" x="1338.81" y="-643.85" font-family="Times,serif" font-size="14.00">(0.535995980861052)</text>
</g>
<!-- 31&#45;&gt;32 -->
<g id="edge32" class="edge">
<title>31&#45;&gt;32</title>
<path fill="none" stroke="black" d="M1439.07,-718.88C1422.82,-708.7 1403.89,-696.83 1386.87,-686.17"/>
<polygon fill="black" stroke="black" points="1388.51,-683.06 1378.17,-680.72 1384.79,-688.99 1388.51,-683.06"/>
</g>
<!-- 33 -->
<g id="node34" class="node">
<title>33</title>
<ellipse fill="orange" stroke="black" cx="1618.81" cy="-655.05" rx="137.36" ry="26.74"/>
<text text-anchor="middle" x="1618.81" y="-658.85" font-family="Times,serif" font-size="14.00">subst.</text>
<text text-anchor="middle" x="1618.81" y="-643.85" font-family="Times,serif" font-size="14.00">(0.09967056930655181)</text>
</g>
<!-- 31&#45;&gt;33 -->
<g id="edge33" class="edge">
<title>31&#45;&gt;33</title>
<path fill="none" stroke="black" d="M1518.56,-718.88C1534.67,-708.79 1553.42,-697.03 1570.33,-686.44"/>
<polygon fill="black" stroke="black" points="1572.36,-689.3 1578.97,-681.02 1568.64,-683.37 1572.36,-689.3"/>
</g>
<!-- 34 -->
<g id="node35" class="node">
<title>34</title>
<ellipse fill="#9aff9a" stroke="black" cx="1907.81" cy="-655.05" rx="130.63" ry="26.74"/>
<text text-anchor="middle" x="1907.81" y="-658.85" font-family="Times,serif" font-size="14.00">exists GrH.</text>
<text text-anchor="middle" x="1907.81" y="-643.85" font-family="Times,serif" font-size="14.00">(0.0130335427316129)</text>
</g>
<!-- 31&#45;&gt;34 -->
<g id="edge34" class="edge">
<title>31&#45;&gt;34</title>
<path fill="none" stroke="black" d="M1573.23,-724.48C1642.62,-710.29 1736.74,-691.04 1807.49,-676.57"/>
<polygon fill="black" stroke="black" points="1808.21,-679.99 1817.31,-674.56 1806.81,-673.14 1808.21,-679.99"/>
</g>
<!-- 4 -->
<g id="node8" class="node">
<title>4</title>
<ellipse fill="orange" stroke="black" cx="146.81" cy="-565.31" rx="124.4" ry="26.74"/>
<text text-anchor="middle" x="146.81" y="-569.11" font-family="Times,serif" font-size="14.00">eauto.</text>
<text text-anchor="middle" x="146.81" y="-554.11" font-family="Times,serif" font-size="14.00">(0.932609920276366)</text>
</g>
<!-- 3&#45;&gt;4 -->
<g id="edge7" class="edge">
<title>3&#45;&gt;4</title>
<path fill="none" stroke="black" d="M357.24,-632.25C317.21,-619.7 266.78,-603.9 225.33,-590.91"/>
<polygon fill="black" stroke="black" points="226.13,-587.5 215.55,-587.85 224.04,-594.18 226.13,-587.5"/>
</g>
<!-- 5 -->
<g id="node9" class="node">
<title>5</title>
<ellipse fill="none" stroke="black" cx="426.81" cy="-565.31" rx="137.36" ry="26.74"/>
<text text-anchor="middle" x="426.81" y="-569.11" font-family="Times,serif" font-size="14.00">econstructor.</text>
<text text-anchor="middle" x="426.81" y="-554.11" font-family="Times,serif" font-size="14.00">(0.02853805310117138)</text>
</g>
<!-- 3&#45;&gt;5 -->
<g id="edge8" class="edge">
<title>3&#45;&gt;5</title>
<path fill="none" stroke="black" d="M426.81,-627.73C426.81,-619.76 426.81,-610.87 426.81,-602.38"/>
<polygon fill="black" stroke="black" points="430.31,-602.31 426.81,-592.31 423.31,-602.31 430.31,-602.31"/>
</g>
<!-- 19 -->
<g id="node21" class="node">
<title>19</title>
<ellipse fill="orange" stroke="black" cx="1021.81" cy="-565.31" rx="137.36" ry="26.74"/>
<text text-anchor="middle" x="1021.81" y="-569.11" font-family="Times,serif" font-size="14.00">eauto.</text>
<text text-anchor="middle" x="1021.81" y="-554.11" font-family="Times,serif" font-size="14.00">(0.31759728233381024)</text>
</g>
<!-- 18&#45;&gt;19 -->
<g id="edge20" class="edge">
<title>18&#45;&gt;19</title>
<path fill="none" stroke="black" d="M1030.21,-627.73C1029.12,-619.76 1027.91,-610.87 1026.75,-602.38"/>
<polygon fill="black" stroke="black" points="1030.19,-601.75 1025.37,-592.31 1023.26,-602.7 1030.19,-601.75"/>
</g>
<!-- 20 -->
<g id="node22" class="node">
<title>20</title>
<ellipse fill="none" stroke="black" cx="1307.81" cy="-565.31" rx="130.63" ry="26.74"/>
<text text-anchor="middle" x="1307.81" y="-569.11" font-family="Times,serif" font-size="14.00">econstructor.</text>
<text text-anchor="middle" x="1307.81" y="-554.11" font-family="Times,serif" font-size="14.00">(0.1444274277808619)</text>
</g>
<!-- 18&#45;&gt;20 -->
<g id="edge21" class="edge">
<title>18&#45;&gt;20</title>
<path fill="none" stroke="black" d="M1105.45,-631.11C1143.45,-618.94 1190.22,-603.97 1229.23,-591.48"/>
<polygon fill="black" stroke="black" points="1230.51,-594.74 1238.96,-588.36 1228.37,-588.07 1230.51,-594.74"/>
</g>
<!-- 6 -->
<g id="node10" class="node">
<title>6</title>
<ellipse fill="orange" stroke="black" cx="130.81" cy="-475.57" rx="130.63" ry="26.74"/>
<text text-anchor="middle" x="130.81" y="-479.37" font-family="Times,serif" font-size="14.00">eauto.</text>
<text text-anchor="middle" x="130.81" y="-464.37" font-family="Times,serif" font-size="14.00">(0.9102988728840442)</text>
</g>
<!-- 5&#45;&gt;6 -->
<g id="edge9" class="edge">
<title>5&#45;&gt;6</title>
<path fill="none" stroke="black" d="M353.27,-542.51C310.69,-529.89 256.99,-513.97 213.02,-500.94"/>
<polygon fill="black" stroke="black" points="213.8,-497.52 203.22,-498.03 211.81,-504.23 213.8,-497.52"/>
</g>
<!-- 7 -->
<g id="node11" class="node">
<title>7</title>
<ellipse fill="orange" stroke="black" cx="416.81" cy="-475.57" rx="137.36" ry="26.74"/>
<text text-anchor="middle" x="416.81" y="-479.37" font-family="Times,serif" font-size="14.00">apply l1.</text>
<text text-anchor="middle" x="416.81" y="-464.37" font-family="Times,serif" font-size="14.00">(0.03195145011756985)</text>
</g>
<!-- 5&#45;&gt;7 -->
<g id="edge10" class="edge">
<title>5&#45;&gt;7</title>
<path fill="none" stroke="black" d="M423.81,-537.99C422.91,-530.02 421.89,-521.13 420.93,-512.64"/>
<polygon fill="black" stroke="black" points="424.39,-512.11 419.78,-502.57 417.43,-512.91 424.39,-512.11"/>
</g>
<!-- 8 -->
<g id="node12" class="node">
<title>8</title>
<ellipse fill="none" stroke="black" cx="721.81" cy="-475.57" rx="149.81" ry="26.74"/>
<text text-anchor="middle" x="721.81" y="-479.37" font-family="Times,serif" font-size="14.00">red.</text>
<text text-anchor="middle" x="721.81" y="-464.37" font-family="Times,serif" font-size="14.00">(0.0034806132493872765)</text>
</g>
<!-- 5&#45;&gt;8 -->
<g id="edge11" class="edge">
<title>5&#45;&gt;8</title>
<path fill="none" stroke="black" d="M500.12,-542.51C541.68,-530.15 593.87,-514.62 637.18,-501.74"/>
<polygon fill="black" stroke="black" points="638.25,-505.08 646.84,-498.87 636.26,-498.37 638.25,-505.08"/>
</g>
<!-- 9 -->
<g id="node13" class="node">
<title>9</title>
<ellipse fill="orange" stroke="black" cx="435.81" cy="-385.83" rx="130.63" ry="26.74"/>
<text text-anchor="middle" x="435.81" y="-389.63" font-family="Times,serif" font-size="14.00">simpl.</text>
<text text-anchor="middle" x="435.81" y="-374.63" font-family="Times,serif" font-size="14.00">(0.7884627317192194)</text>
</g>
<!-- 8&#45;&gt;9 -->
<g id="edge12" class="edge">
<title>8&#45;&gt;9</title>
<path fill="none" stroke="black" d="M648.53,-452.09C608.08,-439.68 557.78,-424.25 516.25,-411.51"/>
<polygon fill="black" stroke="black" points="517.02,-408.08 506.44,-408.5 514.97,-414.78 517.02,-408.08"/>
</g>
<!-- 10 -->
<g id="node14" class="node">
<title>10</title>
<ellipse fill="none" stroke="black" cx="721.81" cy="-385.83" rx="137.36" ry="26.74"/>
<text text-anchor="middle" x="721.81" y="-389.63" font-family="Times,serif" font-size="14.00">intros.</text>
<text text-anchor="middle" x="721.81" y="-374.63" font-family="Times,serif" font-size="14.00">(0.20508648199172985)</text>
</g>
<!-- 8&#45;&gt;10 -->
<g id="edge13" class="edge">
<title>8&#45;&gt;10</title>
<path fill="none" stroke="black" d="M721.81,-448.25C721.81,-440.28 721.81,-431.39 721.81,-422.9"/>
<polygon fill="black" stroke="black" points="725.31,-422.83 721.81,-412.83 718.31,-422.83 725.31,-422.83"/>
</g>
<!-- 11 -->
<g id="node15" class="node">
<title>11</title>
<ellipse fill="blue" stroke="black" cx="721.81" cy="-296.09" rx="143.59" ry="26.74"/>
<text text-anchor="middle" x="721.81" y="-299.89" font-family="Times,serif" font-size="14.00">eauto.</text>
<text text-anchor="middle" x="721.81" y="-284.89" font-family="Times,serif" font-size="14.00">(0.018828645542080323)</text>
</g>
<!-- 10&#45;&gt;11 -->
<g id="edge14" class="edge">
<title>10&#45;&gt;11</title>
<path fill="none" stroke="black" d="M721.81,-358.51C721.81,-350.54 721.81,-341.65 721.81,-333.16"/>
<polygon fill="black" stroke="black" points="725.31,-333.09 721.81,-323.09 718.31,-333.09 725.31,-333.09"/>
</g>
<!-- 12 -->
<g id="node16" class="node">
<title>12</title>
<ellipse fill="blue" stroke="black" cx="719.81" cy="-206.35" rx="130.63" ry="26.74"/>
<text text-anchor="middle" x="719.81" y="-210.15" font-family="Times,serif" font-size="14.00">eauto.</text>
<text text-anchor="middle" x="719.81" y="-195.15" font-family="Times,serif" font-size="14.00">(0.9924794489683522)</text>
</g>
<!-- 11&#45;&gt;12 -->
<g id="edge15" class="edge">
<title>11&#45;&gt;12</title>
<path fill="none" stroke="black" d="M721.21,-268.77C721.03,-260.8 720.83,-251.91 720.64,-243.42"/>
<polygon fill="black" stroke="black" points="724.13,-243.27 720.41,-233.35 717.14,-243.43 724.13,-243.27"/>
</g>
<!-- 13 -->
<g id="node17" class="node">
<title>13</title>
<ellipse fill="orange" stroke="black" cx="426.81" cy="-116.61" rx="130.63" ry="26.74"/>
<text text-anchor="middle" x="426.81" y="-120.41" font-family="Times,serif" font-size="14.00">eauto.</text>
<text text-anchor="middle" x="426.81" y="-105.41" font-family="Times,serif" font-size="14.00">(0.9039489173009247)</text>
</g>
<!-- 12&#45;&gt;13 -->
<g id="edge16" class="edge">
<title>12&#45;&gt;13</title>
<path fill="none" stroke="black" d="M647.76,-183.77C605.55,-171.13 552.09,-155.13 508.34,-142.02"/>
<polygon fill="black" stroke="black" points="509.17,-138.62 498.59,-139.1 507.16,-145.32 509.17,-138.62"/>
</g>
<!-- 14 -->
<g id="node18" class="node">
<title>14</title>
<ellipse fill="none" stroke="black" cx="718.81" cy="-116.61" rx="143.59" ry="26.74"/>
<text text-anchor="middle" x="718.81" y="-120.41" font-family="Times,serif" font-size="14.00">unfold G_.</text>
<text text-anchor="middle" x="718.81" y="-105.41" font-family="Times,serif" font-size="14.00">(0.004698415759206118)</text>
</g>
<!-- 12&#45;&gt;14 -->
<g id="edge17" class="edge">
<title>12&#45;&gt;14</title>
<path fill="none" stroke="black" d="M719.51,-179.03C719.42,-171.06 719.32,-162.17 719.23,-153.68"/>
<polygon fill="black" stroke="black" points="722.72,-153.57 719.11,-143.61 715.73,-153.65 722.72,-153.57"/>
</g>
<!-- 16 -->
<g id="node19" class="node">
<title>16</title>
<ellipse fill="orange" stroke="black" cx="1029.81" cy="-116.61" rx="149.81" ry="26.74"/>
<text text-anchor="middle" x="1029.81" y="-120.41" font-family="Times,serif" font-size="14.00">simpl.</text>
<text text-anchor="middle" x="1029.81" y="-105.41" font-family="Times,serif" font-size="14.00">(0.0028891493153359034)</text>
</g>
<!-- 12&#45;&gt;16 -->
<g id="edge18" class="edge">
<title>12&#45;&gt;16</title>
<path fill="none" stroke="black" d="M794.46,-184.22C838.95,-171.63 895.65,-155.58 942.25,-142.39"/>
<polygon fill="black" stroke="black" points="943.37,-145.72 952.03,-139.62 941.46,-138.98 943.37,-145.72"/>
</g>
<!-- 15 -->
<g id="node20" class="node">
<title>15</title>
<ellipse fill="orange" stroke="black" cx="718.81" cy="-26.87" rx="137.36" ry="26.74"/>
<text text-anchor="middle" x="718.81" y="-30.67" font-family="Times,serif" font-size="14.00">unfold G_.</text>
<text text-anchor="middle" x="718.81" y="-15.67" font-family="Times,serif" font-size="14.00">(0.11873303217422544)</text>
</g>
<!-- 14&#45;&gt;15 -->
<g id="edge19" class="edge">
<title>14&#45;&gt;15</title>
<path fill="none" stroke="black" d="M718.81,-89.29C718.81,-81.32 718.81,-72.43 718.81,-63.94"/>
<polygon fill="black" stroke="black" points="722.31,-63.87 718.81,-53.87 715.31,-63.87 722.31,-63.87"/>
</g>
<!-- 21 -->
<g id="node23" class="node">
<title>21</title>
<ellipse fill="orange" stroke="black" cx="1021.81" cy="-475.57" rx="130.63" ry="26.74"/>
<text text-anchor="middle" x="1021.81" y="-479.37" font-family="Times,serif" font-size="14.00">eauto.</text>
<text text-anchor="middle" x="1021.81" y="-464.37" font-family="Times,serif" font-size="14.00">(0.9102988728840442)</text>
</g>
<!-- 20&#45;&gt;21 -->
<g id="edge22" class="edge">
<title>20&#45;&gt;21</title>
<path fill="none" stroke="black" d="M1237.12,-542.62C1196.3,-530.1 1144.81,-514.3 1102.42,-501.3"/>
<polygon fill="black" stroke="black" points="1103.28,-497.9 1092.69,-498.31 1101.22,-504.59 1103.28,-497.9"/>
</g>
<!-- 22 -->
<g id="node24" class="node">
<title>22</title>
<ellipse fill="orange" stroke="black" cx="1307.81" cy="-475.57" rx="137.36" ry="26.74"/>
<text text-anchor="middle" x="1307.81" y="-479.37" font-family="Times,serif" font-size="14.00">apply l1.</text>
<text text-anchor="middle" x="1307.81" y="-464.37" font-family="Times,serif" font-size="14.00">(0.03195145011756985)</text>
</g>
<!-- 20&#45;&gt;22 -->
<g id="edge23" class="edge">
<title>20&#45;&gt;22</title>
<path fill="none" stroke="black" d="M1307.81,-537.99C1307.81,-530.02 1307.81,-521.13 1307.81,-512.64"/>
<polygon fill="black" stroke="black" points="1311.31,-512.57 1307.81,-502.57 1304.31,-512.57 1311.31,-512.57"/>
</g>
<!-- 23 -->
<g id="node25" class="node">
<title>23</title>
<ellipse fill="none" stroke="black" cx="1612.81" cy="-475.57" rx="149.81" ry="26.74"/>
<text text-anchor="middle" x="1612.81" y="-479.37" font-family="Times,serif" font-size="14.00">red.</text>
<text text-anchor="middle" x="1612.81" y="-464.37" font-family="Times,serif" font-size="14.00">(0.0034806132493872765)</text>
</g>
<!-- 20&#45;&gt;23 -->
<g id="edge24" class="edge">
<title>20&#45;&gt;23</title>
<path fill="none" stroke="black" d="M1381.65,-543.07C1425.17,-530.55 1480.47,-514.64 1526.07,-501.52"/>
<polygon fill="black" stroke="black" points="1527.3,-504.81 1535.94,-498.68 1525.36,-498.09 1527.3,-504.81"/>
</g>
<!-- 24 -->
<g id="node26" class="node">
<title>24</title>
<ellipse fill="orange" stroke="black" cx="1339.81" cy="-385.83" rx="130.63" ry="26.74"/>
<text text-anchor="middle" x="1339.81" y="-389.63" font-family="Times,serif" font-size="14.00">simpl.</text>
<text text-anchor="middle" x="1339.81" y="-374.63" font-family="Times,serif" font-size="14.00">(0.7884627317192194)</text>
</g>
<!-- 23&#45;&gt;24 -->
<g id="edge25" class="edge">
<title>23&#45;&gt;24</title>
<path fill="none" stroke="black" d="M1542.16,-451.86C1504.14,-439.64 1457.17,-424.55 1418.06,-411.98"/>
<polygon fill="black" stroke="black" points="1418.88,-408.57 1408.29,-408.84 1416.74,-415.23 1418.88,-408.57"/>
</g>
<!-- 25 -->
<g id="node27" class="node">
<title>25</title>
<ellipse fill="none" stroke="black" cx="1625.81" cy="-385.83" rx="137.36" ry="26.74"/>
<text text-anchor="middle" x="1625.81" y="-389.63" font-family="Times,serif" font-size="14.00">intros.</text>
<text text-anchor="middle" x="1625.81" y="-374.63" font-family="Times,serif" font-size="14.00">(0.20508648199172985)</text>
</g>
<!-- 23&#45;&gt;25 -->
<g id="edge26" class="edge">
<title>23&#45;&gt;25</title>
<path fill="none" stroke="black" d="M1616.72,-448.25C1617.9,-440.28 1619.21,-431.39 1620.47,-422.9"/>
<polygon fill="black" stroke="black" points="1623.96,-423.24 1621.96,-412.83 1617.03,-422.21 1623.96,-423.24"/>
</g>
<!-- 26 -->
<g id="node28" class="node">
<title>26</title>
<ellipse fill="blue" stroke="black" cx="1625.81" cy="-296.09" rx="143.59" ry="26.74"/>
<text text-anchor="middle" x="1625.81" y="-299.89" font-family="Times,serif" font-size="14.00">eauto.</text>
<text text-anchor="middle" x="1625.81" y="-284.89" font-family="Times,serif" font-size="14.00">(0.018828645542080323)</text>
</g>
<!-- 25&#45;&gt;26 -->
<g id="edge27" class="edge">
<title>25&#45;&gt;26</title>
<path fill="none" stroke="black" d="M1625.81,-358.51C1625.81,-350.54 1625.81,-341.65 1625.81,-333.16"/>
<polygon fill="black" stroke="black" points="1629.31,-333.09 1625.81,-323.09 1622.31,-333.09 1629.31,-333.09"/>
</g>
<!-- 27 -->
<g id="node29" class="node">
<title>27</title>
<ellipse fill="blue" stroke="black" cx="1625.81" cy="-206.35" rx="130.63" ry="26.74"/>
<text text-anchor="middle" x="1625.81" y="-210.15" font-family="Times,serif" font-size="14.00">eauto.</text>
<text text-anchor="middle" x="1625.81" y="-195.15" font-family="Times,serif" font-size="14.00">(0.9924794489683522)</text>
</g>
<!-- 26&#45;&gt;27 -->
<g id="edge28" class="edge">
<title>26&#45;&gt;27</title>
<path fill="none" stroke="black" d="M1625.81,-268.77C1625.81,-260.8 1625.81,-251.91 1625.81,-243.42"/>
<polygon fill="black" stroke="black" points="1629.31,-243.35 1625.81,-233.35 1622.31,-243.35 1629.31,-243.35"/>
</g>
<!-- 28 -->
<g id="node30" class="node">
<title>28</title>
<ellipse fill="orange" stroke="black" cx="1334.81" cy="-116.61" rx="137.36" ry="26.74"/>
<text text-anchor="middle" x="1334.81" y="-120.41" font-family="Times,serif" font-size="14.00">eauto.</text>
<text text-anchor="middle" x="1334.81" y="-105.41" font-family="Times,serif" font-size="14.00">(0.40772372552022634)</text>
</g>
<!-- 27&#45;&gt;28 -->
<g id="edge29" class="edge">
<title>27&#45;&gt;28</title>
<path fill="none" stroke="black" d="M1554.26,-183.77C1512.72,-171.25 1460.23,-155.42 1417,-142.39"/>
<polygon fill="black" stroke="black" points="1417.95,-139.02 1407.36,-139.48 1415.93,-145.72 1417.95,-139.02"/>
</g>
<!-- 29 -->
<g id="node31" class="node">
<title>29</title>
<ellipse fill="orange" stroke="black" cx="1626.81" cy="-116.61" rx="137.36" ry="26.74"/>
<text text-anchor="middle" x="1626.81" y="-120.41" font-family="Times,serif" font-size="14.00">try discriminate.</text>
<text text-anchor="middle" x="1626.81" y="-105.41" font-family="Times,serif" font-size="14.00">(0.10823854268571229)</text>
</g>
<!-- 27&#45;&gt;29 -->
<g id="edge30" class="edge">
<title>27&#45;&gt;29</title>
<path fill="none" stroke="black" d="M1626.11,-179.03C1626.21,-171.06 1626.31,-162.17 1626.4,-153.68"/>
<polygon fill="black" stroke="black" points="1629.9,-153.65 1626.52,-143.61 1622.9,-153.57 1629.9,-153.65"/>
</g>
<!-- 30 -->
<g id="node32" class="node">
<title>30</title>
<ellipse fill="orange" stroke="black" cx="1918.81" cy="-116.61" rx="137.36" ry="26.74"/>
<text text-anchor="middle" x="1918.81" y="-120.41" font-family="Times,serif" font-size="14.00">try congruence.</text>
<text text-anchor="middle" x="1918.81" y="-105.41" font-family="Times,serif" font-size="14.00">(0.07551495459945644)</text>
</g>
<!-- 27&#45;&gt;30 -->
<g id="edge31" class="edge">
<title>27&#45;&gt;30</title>
<path fill="none" stroke="black" d="M1697.87,-183.77C1739.77,-171.23 1792.74,-155.36 1836.31,-142.32"/>
<polygon fill="black" stroke="black" points="1837.45,-145.63 1846.02,-139.41 1835.44,-138.92 1837.45,-145.63"/>
</g>
<!-- 35 -->
<g id="node36" class="node">
<title>35</title>
<ellipse fill="#9aff9a" stroke="black" cx="1909.81" cy="-565.31" rx="130.63" ry="26.74"/>
<text text-anchor="middle" x="1909.81" y="-569.11" font-family="Times,serif" font-size="14.00">split.</text>
<text text-anchor="middle" x="1909.81" y="-554.11" font-family="Times,serif" font-size="14.00">(0.6145022743230387)</text>
</g>
<!-- 34&#45;&gt;35 -->
<g id="edge35" class="edge">
<title>34&#45;&gt;35</title>
<path fill="none" stroke="black" d="M1908.41,-627.73C1908.6,-619.76 1908.8,-610.87 1908.99,-602.38"/>
<polygon fill="black" stroke="black" points="1912.49,-602.39 1909.22,-592.31 1905.49,-602.23 1912.49,-602.39"/>
</g>
<!-- 36 -->
<g id="node37" class="node">
<title>36</title>
<ellipse fill="#9aff9a" stroke="black" cx="1911.81" cy="-475.57" rx="130.63" ry="26.74"/>
<text text-anchor="middle" x="1911.81" y="-479.37" font-family="Times,serif" font-size="14.00">eauto.</text>
<text text-anchor="middle" x="1911.81" y="-464.37" font-family="Times,serif" font-size="14.00">(0.9219751063953234)</text>
</g>
<!-- 35&#45;&gt;36 -->
<g id="edge36" class="edge">
<title>35&#45;&gt;36</title>
<path fill="none" stroke="black" d="M1910.41,-537.99C1910.6,-530.02 1910.8,-521.13 1910.99,-512.64"/>
<polygon fill="black" stroke="black" points="1914.49,-512.65 1911.22,-502.57 1907.49,-512.49 1914.49,-512.65"/>
</g>
<!-- 37 -->
<g id="node38" class="node">
<title>37</title>
<ellipse fill="#9aff9a" stroke="black" cx="1911.81" cy="-385.83" rx="130.63" ry="26.74"/>
<text text-anchor="middle" x="1911.81" y="-389.63" font-family="Times,serif" font-size="14.00">eauto.</text>
<text text-anchor="middle" x="1911.81" y="-374.63" font-family="Times,serif" font-size="14.00">(0.8944246002904542)</text>
</g>
<!-- 36&#45;&gt;37 -->
<g id="edge37" class="edge">
<title>36&#45;&gt;37</title>
<path fill="none" stroke="black" d="M1911.81,-448.25C1911.81,-440.28 1911.81,-431.39 1911.81,-422.9"/>
<polygon fill="black" stroke="black" points="1915.31,-422.83 1911.81,-412.83 1908.31,-422.83 1915.31,-422.83"/>
</g>
<!-- 38 -->
<g id="node39" class="node">
<title>38</title>
<ellipse fill="green" stroke="black" cx="1911.81" cy="-296.09" rx="35.21" ry="26.74"/>
<text text-anchor="middle" x="1911.81" y="-299.89" font-family="Times,serif" font-size="14.00">QED</text>
<text text-anchor="middle" x="1911.81" y="-284.89" font-family="Times,serif" font-size="14.00">(1.0)</text>
</g>
<!-- 37&#45;&gt;38 -->
<g id="edge38" class="edge">
<title>37&#45;&gt;38</title>
<path fill="none" stroke="black" d="M1911.81,-358.51C1911.81,-350.54 1911.81,-341.65 1911.81,-333.16"/>
<polygon fill="green" stroke="black" points="1915.31,-333.09 1911.81,-323.09 1908.31,-333.09 1915.31,-333.09"/>
</g>
</g>
</svg>
