<?xml version="1.0" encoding="UTF-8" standalone="no"?>
<!DOCTYPE svg PUBLIC "-//W3C//DTD SVG 1.1//EN"
 "http://www.w3.org/Graphics/SVG/1.1/DTD/svg11.dtd">
<!-- Generated by graphviz version 2.43.0 (0)
 -->
<!-- Pages: 1 -->
<svg width="2217pt" height="600pt"
 viewBox="0.00 0.00 2217.09 600.18" xmlns="http://www.w3.org/2000/svg" xmlns:xlink="http://www.w3.org/1999/xlink">
<g id="graph0" class="graph" transform="scale(1 1) rotate(0) translate(4 596.18)">
<polygon fill="white" stroke="transparent" points="-4,4 -4,-596.18 2213.09,-596.18 2213.09,4 -4,4"/>
<!-- 0 -->
<g id="node1" class="node">
<title>0</title>
<ellipse fill="none" stroke="black" cx="683.81" cy="-565.31" rx="78.48" ry="26.74"/>
<text text-anchor="middle" x="683.81" y="-569.11" font-family="Times,serif" font-size="14.00">starH_is_star</text>
<text text-anchor="middle" x="683.81" y="-554.11" font-family="Times,serif" font-size="14.00">(1.0)</text>
</g>
<!-- 1 -->
<g id="node2" class="node">
<title>1</title>
<ellipse fill="orange" stroke="black" cx="130.81" cy="-475.57" rx="130.63" ry="26.74"/>
<text text-anchor="middle" x="130.81" y="-479.37" font-family="Times,serif" font-size="14.00">eauto.</text>
<text text-anchor="middle" x="130.81" y="-464.37" font-family="Times,serif" font-size="14.00">(0.5933654709691323)</text>
</g>
<!-- 0&#45;&gt;1 -->
<g id="edge1" class="edge">
<title>0&#45;&gt;1</title>
<path fill="none" stroke="black" d="M612.07,-554.32C529.6,-542.66 390.23,-522.41 270.81,-502.44 259.1,-500.48 246.85,-498.35 234.68,-496.17"/>
<polygon fill="black" stroke="black" points="234.96,-492.66 224.49,-494.34 233.72,-499.55 234.96,-492.66"/>
</g>
<!-- 2 -->
<g id="node3" class="node">
<title>2</title>
<ellipse fill="orange" stroke="black" cx="403.81" cy="-475.57" rx="124.4" ry="26.74"/>
<text text-anchor="middle" x="403.81" y="-479.37" font-family="Times,serif" font-size="14.00">try congruence.</text>
<text text-anchor="middle" x="403.81" y="-464.37" font-family="Times,serif" font-size="14.00">(0.127751269007576)</text>
</g>
<!-- 0&#45;&gt;2 -->
<g id="edge2" class="edge">
<title>0&#45;&gt;2</title>
<path fill="none" stroke="black" d="M627.15,-546.56C585.38,-533.47 528.04,-515.5 481.93,-501.05"/>
<polygon fill="black" stroke="black" points="482.85,-497.67 472.27,-498.02 480.76,-504.35 482.85,-497.67"/>
</g>
<!-- 3 -->
<g id="node4" class="node">
<title>3</title>
<ellipse fill="orange" stroke="black" cx="683.81" cy="-475.57" rx="137.36" ry="26.74"/>
<text text-anchor="middle" x="683.81" y="-479.37" font-family="Times,serif" font-size="14.00">try discriminate.</text>
<text text-anchor="middle" x="683.81" y="-464.37" font-family="Times,serif" font-size="14.00">(0.10227643065829241)</text>
</g>
<!-- 0&#45;&gt;3 -->
<g id="edge3" class="edge">
<title>0&#45;&gt;3</title>
<path fill="none" stroke="black" d="M683.81,-537.99C683.81,-530.02 683.81,-521.13 683.81,-512.64"/>
<polygon fill="black" stroke="black" points="687.31,-512.57 683.81,-502.57 680.31,-512.57 687.31,-512.57"/>
</g>
<!-- 4 -->
<g id="node5" class="node">
<title>4</title>
<ellipse fill="orange" stroke="black" cx="975.81" cy="-475.57" rx="137.36" ry="26.74"/>
<text text-anchor="middle" x="975.81" y="-479.37" font-family="Times,serif" font-size="14.00">intuition.</text>
<text text-anchor="middle" x="975.81" y="-464.37" font-family="Times,serif" font-size="14.00">(0.09704175346450024)</text>
</g>
<!-- 0&#45;&gt;4 -->
<g id="edge4" class="edge">
<title>0&#45;&gt;4</title>
<path fill="none" stroke="black" d="M741.5,-546.98C784.89,-533.94 844.93,-515.9 893.38,-501.34"/>
<polygon fill="black" stroke="black" points="894.65,-504.61 903.22,-498.39 892.63,-497.91 894.65,-504.61"/>
</g>
<!-- 5 -->
<g id="node6" class="node">
<title>5</title>
<ellipse fill="#9aff9a" stroke="black" cx="1274.81" cy="-475.57" rx="143.59" ry="26.74"/>
<text text-anchor="middle" x="1274.81" y="-479.37" font-family="Times,serif" font-size="14.00">destruct H.</text>
<text text-anchor="middle" x="1274.81" y="-464.37" font-family="Times,serif" font-size="14.00">(0.006807081101798052)</text>
</g>
<!-- 0&#45;&gt;5 -->
<g id="edge5" class="edge">
<title>0&#45;&gt;5</title>
<path fill="none" stroke="black" d="M755.98,-554.73C842.87,-543.05 993.18,-522.4 1121.81,-502.44 1134.76,-500.43 1148.3,-498.26 1161.75,-496.04"/>
<polygon fill="black" stroke="black" points="1162.71,-499.43 1172,-494.35 1161.57,-492.53 1162.71,-499.43"/>
</g>
<!-- 6 -->
<g id="node7" class="node">
<title>6</title>
<ellipse fill="orange" stroke="black" cx="1131.81" cy="-385.83" rx="130.63" ry="26.74"/>
<text text-anchor="middle" x="1131.81" y="-389.63" font-family="Times,serif" font-size="14.00">eauto.</text>
<text text-anchor="middle" x="1131.81" y="-374.63" font-family="Times,serif" font-size="14.00">(0.3921216036942221)</text>
</g>
<!-- 5&#45;&gt;6 -->
<g id="edge6" class="edge">
<title>5&#45;&gt;6</title>
<path fill="none" stroke="black" d="M1234.22,-449.66C1217.62,-439.48 1198.28,-427.61 1180.9,-416.95"/>
<polygon fill="black" stroke="black" points="1182.37,-413.74 1172.02,-411.5 1178.71,-419.71 1182.37,-413.74"/>
</g>
<!-- 7 -->
<g id="node8" class="node">
<title>7</title>
<ellipse fill="#9aff9a" stroke="black" cx="1417.81" cy="-385.83" rx="137.36" ry="26.74"/>
<text text-anchor="middle" x="1417.81" y="-389.63" font-family="Times,serif" font-size="14.00">simpl.</text>
<text text-anchor="middle" x="1417.81" y="-374.63" font-family="Times,serif" font-size="14.00">(0.12548657269060004)</text>
</g>
<!-- 5&#45;&gt;7 -->
<g id="edge7" class="edge">
<title>5&#45;&gt;7</title>
<path fill="none" stroke="black" d="M1315.41,-449.66C1331.86,-439.57 1351.02,-427.81 1368.29,-417.22"/>
<polygon fill="black" stroke="black" points="1370.42,-420.01 1377.12,-411.8 1366.76,-414.05 1370.42,-420.01"/>
</g>
<!-- 8 -->
<g id="node9" class="node">
<title>8</title>
<ellipse fill="orange" stroke="black" cx="820.81" cy="-296.09" rx="130.63" ry="26.74"/>
<text text-anchor="middle" x="820.81" y="-299.89" font-family="Times,serif" font-size="14.00">eauto.</text>
<text text-anchor="middle" x="820.81" y="-284.89" font-family="Times,serif" font-size="14.00">(0.9525209305763948)</text>
</g>
<!-- 7&#45;&gt;8 -->
<g id="edge8" class="edge">
<title>7&#45;&gt;8</title>
<path fill="none" stroke="black" d="M1320.57,-366.75C1304.31,-363.98 1287.61,-361.27 1271.81,-358.96 1133.7,-338.77 1097.85,-343.74 959.81,-322.96 947.84,-321.16 935.33,-319.09 922.92,-316.93"/>
<polygon fill="black" stroke="black" points="923.46,-313.47 913,-315.17 922.24,-320.36 923.46,-313.47"/>
</g>
<!-- 9 -->
<g id="node10" class="node">
<title>9</title>
<ellipse fill="orange" stroke="black" cx="1112.81" cy="-296.09" rx="143.59" ry="26.74"/>
<text text-anchor="middle" x="1112.81" y="-299.89" font-family="Times,serif" font-size="14.00">try easy.</text>
<text text-anchor="middle" x="1112.81" y="-284.89" font-family="Times,serif" font-size="14.00">(0.008963266172758043)</text>
</g>
<!-- 7&#45;&gt;9 -->
<g id="edge9" class="edge">
<title>7&#45;&gt;9</title>
<path fill="none" stroke="black" d="M1342.81,-363.25C1299.18,-350.7 1244.03,-334.84 1198.67,-321.79"/>
<polygon fill="black" stroke="black" points="1199.43,-318.37 1188.85,-318.96 1197.49,-325.09 1199.43,-318.37"/>
</g>
<!-- 10 -->
<g id="node11" class="node">
<title>10</title>
<ellipse fill="none" stroke="black" cx="1417.81" cy="-296.09" rx="143.59" ry="26.74"/>
<text text-anchor="middle" x="1417.81" y="-299.89" font-family="Times,serif" font-size="14.00">unfold star.</text>
<text text-anchor="middle" x="1417.81" y="-284.89" font-family="Times,serif" font-size="14.00">(0.001185573327214356)</text>
</g>
<!-- 7&#45;&gt;10 -->
<g id="edge10" class="edge">
<title>7&#45;&gt;10</title>
<path fill="none" stroke="black" d="M1417.81,-358.51C1417.81,-350.54 1417.81,-341.65 1417.81,-333.16"/>
<polygon fill="black" stroke="black" points="1421.31,-333.09 1417.81,-323.09 1414.31,-333.09 1421.31,-333.09"/>
</g>
<!-- 15 -->
<g id="node12" class="node">
<title>15</title>
<ellipse fill="orange" stroke="black" cx="1728.81" cy="-296.09" rx="149.81" ry="26.74"/>
<text text-anchor="middle" x="1728.81" y="-299.89" font-family="Times,serif" font-size="14.00">f_equal.</text>
<text text-anchor="middle" x="1728.81" y="-284.89" font-family="Times,serif" font-size="14.00">(0.0006369842664728551)</text>
</g>
<!-- 7&#45;&gt;15 -->
<g id="edge11" class="edge">
<title>7&#45;&gt;15</title>
<path fill="none" stroke="black" d="M1493.89,-363.37C1538.38,-350.82 1594.73,-334.92 1641.09,-321.84"/>
<polygon fill="black" stroke="black" points="1642.14,-325.18 1650.82,-319.1 1640.24,-318.44 1642.14,-325.18"/>
</g>
<!-- 16 -->
<g id="node13" class="node">
<title>16</title>
<ellipse fill="#9aff9a" stroke="black" cx="2052.81" cy="-296.09" rx="156.04" ry="26.74"/>
<text text-anchor="middle" x="2052.81" y="-299.89" font-family="Times,serif" font-size="14.00">apply sub.</text>
<text text-anchor="middle" x="2052.81" y="-284.89" font-family="Times,serif" font-size="14.00">(0.00039000242341297354)</text>
</g>
<!-- 7&#45;&gt;16 -->
<g id="edge12" class="edge">
<title>7&#45;&gt;16</title>
<path fill="none" stroke="black" d="M1531.41,-370.67C1626.67,-358.61 1766.24,-340.49 1887.81,-322.96 1901.81,-320.94 1916.45,-318.76 1931,-316.54"/>
<polygon fill="black" stroke="black" points="1931.68,-319.97 1941.04,-315 1930.62,-313.05 1931.68,-319.97"/>
</g>
<!-- 11 -->
<g id="node14" class="node">
<title>11</title>
<ellipse fill="none" stroke="black" cx="1259.81" cy="-206.35" rx="166.75" ry="26.74"/>
<text text-anchor="middle" x="1259.81" y="-210.15" font-family="Times,serif" font-size="14.00">unfold Group_definitions.star_.</text>
<text text-anchor="middle" x="1259.81" y="-195.15" font-family="Times,serif" font-size="14.00">(0.20972706178343517)</text>
</g>
<!-- 10&#45;&gt;11 -->
<g id="edge13" class="edge">
<title>10&#45;&gt;11</title>
<path fill="none" stroke="black" d="M1373.38,-270.42C1354.78,-260.09 1333,-247.99 1313.51,-237.17"/>
<polygon fill="black" stroke="black" points="1315.18,-234.09 1304.74,-232.3 1311.78,-240.21 1315.18,-234.09"/>
</g>
<!-- 14 -->
<g id="node15" class="node">
<title>14</title>
<ellipse fill="orange" stroke="black" cx="1575.81" cy="-206.35" rx="130.63" ry="26.74"/>
<text text-anchor="middle" x="1575.81" y="-210.15" font-family="Times,serif" font-size="14.00">eauto.</text>
<text text-anchor="middle" x="1575.81" y="-195.15" font-family="Times,serif" font-size="14.00">(0.1790938951907016)</text>
</g>
<!-- 10&#45;&gt;14 -->
<g id="edge14" class="edge">
<title>10&#45;&gt;14</title>
<path fill="none" stroke="black" d="M1462.25,-270.42C1481.16,-259.91 1503.38,-247.58 1523.11,-236.62"/>
<polygon fill="black" stroke="black" points="1524.95,-239.6 1531.99,-231.69 1521.55,-233.48 1524.95,-239.6"/>
</g>
<!-- 17 -->
<g id="node18" class="node">
<title>17</title>
<ellipse fill="green" stroke="black" cx="2052.81" cy="-206.35" rx="35.21" ry="26.74"/>
<text text-anchor="middle" x="2052.81" y="-210.15" font-family="Times,serif" font-size="14.00">QED</text>
<text text-anchor="middle" x="2052.81" y="-195.15" font-family="Times,serif" font-size="14.00">(1.0)</text>
</g>
<!-- 16&#45;&gt;17 -->
<g id="edge17" class="edge">
<title>16&#45;&gt;17</title>
<path fill="none" stroke="black" d="M2052.81,-268.77C2052.81,-260.8 2052.81,-251.91 2052.81,-243.42"/>
<polygon fill="green" stroke="black" points="2056.31,-243.35 2052.81,-233.35 2049.31,-243.35 2056.31,-243.35"/>
</g>
<!-- 12 -->
<g id="node16" class="node">
<title>12</title>
<ellipse fill="none" stroke="black" cx="1259.81" cy="-116.61" rx="137.36" ry="26.74"/>
<text text-anchor="middle" x="1259.81" y="-120.41" font-family="Times,serif" font-size="14.00">destruct sub.</text>
<text text-anchor="middle" x="1259.81" y="-105.41" font-family="Times,serif" font-size="14.00">(0.03238929379908136)</text>
</g>
<!-- 11&#45;&gt;12 -->
<g id="edge15" class="edge">
<title>11&#45;&gt;12</title>
<path fill="none" stroke="black" d="M1259.81,-179.03C1259.81,-171.06 1259.81,-162.17 1259.81,-153.68"/>
<polygon fill="black" stroke="black" points="1263.31,-153.61 1259.81,-143.61 1256.31,-153.61 1263.31,-153.61"/>
</g>
<!-- 13 -->
<g id="node17" class="node">
<title>13</title>
<ellipse fill="none" stroke="black" cx="1259.81" cy="-26.87" rx="137.36" ry="26.74"/>
<text text-anchor="middle" x="1259.81" y="-30.67" font-family="Times,serif" font-size="14.00">simpl in H1.</text>
<text text-anchor="middle" x="1259.81" y="-15.67" font-family="Times,serif" font-size="14.00">(0.07659789111156722)</text>
</g>
<!-- 12&#45;&gt;13 -->
<g id="edge16" class="edge">
<title>12&#45;&gt;13</title>
<path fill="none" stroke="black" d="M1259.81,-89.29C1259.81,-81.32 1259.81,-72.43 1259.81,-63.94"/>
<polygon fill="black" stroke="black" points="1263.31,-63.87 1259.81,-53.87 1256.31,-63.87 1263.31,-63.87"/>
</g>
</g>
</svg>
