<?xml version="1.0" encoding="UTF-8" standalone="no"?>
<!DOCTYPE svg PUBLIC "-//W3C//DTD SVG 1.1//EN"
 "http://www.w3.org/Graphics/SVG/1.1/DTD/svg11.dtd">
<!-- Generated by graphviz version 2.43.0 (0)
 -->
<!-- Pages: 1 -->
<svg width="556pt" height="780pt"
 viewBox="0.00 0.00 555.99 779.66" xmlns="http://www.w3.org/2000/svg" xmlns:xlink="http://www.w3.org/1999/xlink">
<g id="graph0" class="graph" transform="scale(1 1) rotate(0) translate(4 775.66)">
<polygon fill="white" stroke="transparent" points="-4,4 -4,-775.66 551.99,-775.66 551.99,4 -4,4"/>
<!-- 0 -->
<g id="node1" class="node">
<title>0</title>
<ellipse fill="none" stroke="black" cx="270.81" cy="-744.79" rx="51.74" ry="26.74"/>
<text text-anchor="middle" x="270.81" y="-748.59" font-family="Times,serif" font-size="14.00">T_1_6_8</text>
<text text-anchor="middle" x="270.81" y="-733.59" font-family="Times,serif" font-size="14.00">(1.0)</text>
</g>
<!-- 1 -->
<g id="node2" class="node">
<title>1</title>
<ellipse fill="orange" stroke="black" cx="130.81" cy="-655.05" rx="130.63" ry="26.74"/>
<text text-anchor="middle" x="130.81" y="-658.85" font-family="Times,serif" font-size="14.00">simpl.</text>
<text text-anchor="middle" x="130.81" y="-643.85" font-family="Times,serif" font-size="14.00">(0.7699795126098529)</text>
</g>
<!-- 0&#45;&gt;1 -->
<g id="edge1" class="edge">
<title>0&#45;&gt;1</title>
<path fill="none" stroke="black" d="M238.7,-723.66C220.97,-712.56 198.62,-698.54 178.86,-686.16"/>
<polygon fill="black" stroke="black" points="180.61,-683.13 170.28,-680.79 176.9,-689.06 180.61,-683.13"/>
</g>
<!-- 2 -->
<g id="node3" class="node">
<title>2</title>
<ellipse fill="#9aff9a" stroke="black" cx="410.81" cy="-655.05" rx="130.63" ry="26.74"/>
<text text-anchor="middle" x="410.81" y="-658.85" font-family="Times,serif" font-size="14.00">split.</text>
<text text-anchor="middle" x="410.81" y="-643.85" font-family="Times,serif" font-size="14.00">(0.0442948925679544)</text>
</g>
<!-- 0&#45;&gt;2 -->
<g id="edge2" class="edge">
<title>0&#45;&gt;2</title>
<path fill="none" stroke="black" d="M302.93,-723.66C320.65,-712.56 343.01,-698.54 362.77,-686.16"/>
<polygon fill="black" stroke="black" points="364.73,-689.06 371.35,-680.79 361.02,-683.13 364.73,-689.06"/>
</g>
<!-- 3 -->
<g id="node4" class="node">
<title>3</title>
<ellipse fill="#9aff9a" stroke="black" cx="410.81" cy="-565.31" rx="130.63" ry="26.74"/>
<text text-anchor="middle" x="410.81" y="-569.11" font-family="Times,serif" font-size="14.00">intros.</text>
<text text-anchor="middle" x="410.81" y="-554.11" font-family="Times,serif" font-size="14.00">(0.7609732143135827)</text>
</g>
<!-- 2&#45;&gt;3 -->
<g id="edge3" class="edge">
<title>2&#45;&gt;3</title>
<path fill="none" stroke="black" d="M410.81,-627.73C410.81,-619.76 410.81,-610.87 410.81,-602.38"/>
<polygon fill="black" stroke="black" points="414.31,-602.31 410.81,-592.31 407.31,-602.31 414.31,-602.31"/>
</g>
<!-- 4 -->
<g id="node5" class="node">
<title>4</title>
<ellipse fill="#9aff9a" stroke="black" cx="410.81" cy="-475.57" rx="137.36" ry="26.74"/>
<text text-anchor="middle" x="410.81" y="-479.37" font-family="Times,serif" font-size="14.00">eauto.</text>
<text text-anchor="middle" x="410.81" y="-464.37" font-family="Times,serif" font-size="14.00">(0.13848142587153578)</text>
</g>
<!-- 3&#45;&gt;4 -->
<g id="edge4" class="edge">
<title>3&#45;&gt;4</title>
<path fill="none" stroke="black" d="M410.81,-537.99C410.81,-530.02 410.81,-521.13 410.81,-512.64"/>
<polygon fill="black" stroke="black" points="414.31,-512.57 410.81,-502.57 407.31,-512.57 414.31,-512.57"/>
</g>
<!-- 5 -->
<g id="node6" class="node">
<title>5</title>
<ellipse fill="#9aff9a" stroke="black" cx="410.81" cy="-385.83" rx="130.63" ry="26.74"/>
<text text-anchor="middle" x="410.81" y="-389.63" font-family="Times,serif" font-size="14.00">intros.</text>
<text text-anchor="middle" x="410.81" y="-374.63" font-family="Times,serif" font-size="14.00">(0.8286775134230854)</text>
</g>
<!-- 4&#45;&gt;5 -->
<g id="edge5" class="edge">
<title>4&#45;&gt;5</title>
<path fill="none" stroke="black" d="M410.81,-448.25C410.81,-440.28 410.81,-431.39 410.81,-422.9"/>
<polygon fill="black" stroke="black" points="414.31,-422.83 410.81,-412.83 407.31,-422.83 414.31,-422.83"/>
</g>
<!-- 6 -->
<g id="node7" class="node">
<title>6</title>
<ellipse fill="#9aff9a" stroke="black" cx="410.81" cy="-296.09" rx="137.36" ry="26.74"/>
<text text-anchor="middle" x="410.81" y="-299.89" font-family="Times,serif" font-size="14.00">econstructor.</text>
<text text-anchor="middle" x="410.81" y="-284.89" font-family="Times,serif" font-size="14.00">(0.06289421096207738)</text>
</g>
<!-- 5&#45;&gt;6 -->
<g id="edge6" class="edge">
<title>5&#45;&gt;6</title>
<path fill="none" stroke="black" d="M410.81,-358.51C410.81,-350.54 410.81,-341.65 410.81,-333.16"/>
<polygon fill="black" stroke="black" points="414.31,-333.09 410.81,-323.09 407.31,-333.09 414.31,-333.09"/>
</g>
<!-- 7 -->
<g id="node8" class="node">
<title>7</title>
<ellipse fill="#9aff9a" stroke="black" cx="410.81" cy="-206.35" rx="130.63" ry="26.74"/>
<text text-anchor="middle" x="410.81" y="-210.15" font-family="Times,serif" font-size="14.00">eauto.</text>
<text text-anchor="middle" x="410.81" y="-195.15" font-family="Times,serif" font-size="14.00">(0.8652203459493032)</text>
</g>
<!-- 6&#45;&gt;7 -->
<g id="edge7" class="edge">
<title>6&#45;&gt;7</title>
<path fill="none" stroke="black" d="M410.81,-268.77C410.81,-260.8 410.81,-251.91 410.81,-243.42"/>
<polygon fill="black" stroke="black" points="414.31,-243.35 410.81,-233.35 407.31,-243.35 414.31,-243.35"/>
</g>
<!-- 8 -->
<g id="node9" class="node">
<title>8</title>
<ellipse fill="#9aff9a" stroke="black" cx="410.81" cy="-116.61" rx="130.63" ry="26.74"/>
<text text-anchor="middle" x="410.81" y="-120.41" font-family="Times,serif" font-size="14.00">eauto.</text>
<text text-anchor="middle" x="410.81" y="-105.41" font-family="Times,serif" font-size="14.00">(0.8652964683171683)</text>
</g>
<!-- 7&#45;&gt;8 -->
<g id="edge8" class="edge">
<title>7&#45;&gt;8</title>
<path fill="none" stroke="black" d="M410.81,-179.03C410.81,-171.06 410.81,-162.17 410.81,-153.68"/>
<polygon fill="black" stroke="black" points="414.31,-153.61 410.81,-143.61 407.31,-153.61 414.31,-153.61"/>
</g>
<!-- 9 -->
<g id="node10" class="node">
<title>9</title>
<ellipse fill="green" stroke="black" cx="410.81" cy="-26.87" rx="35.21" ry="26.74"/>
<text text-anchor="middle" x="410.81" y="-30.67" font-family="Times,serif" font-size="14.00">QED</text>
<text text-anchor="middle" x="410.81" y="-15.67" font-family="Times,serif" font-size="14.00">(1.0)</text>
</g>
<!-- 8&#45;&gt;9 -->
<g id="edge9" class="edge">
<title>8&#45;&gt;9</title>
<path fill="none" stroke="black" d="M410.81,-89.29C410.81,-81.32 410.81,-72.43 410.81,-63.94"/>
<polygon fill="green" stroke="black" points="414.31,-63.87 410.81,-53.87 407.31,-63.87 414.31,-63.87"/>
</g>
</g>
</svg>
