<?xml version="1.0" encoding="UTF-8" standalone="no"?>
<!DOCTYPE svg PUBLIC "-//W3C//DTD SVG 1.1//EN"
 "http://www.w3.org/Graphics/SVG/1.1/DTD/svg11.dtd">
<!-- Generated by graphviz version 2.43.0 (0)
 -->
<!-- Pages: 1 -->
<svg width="6485pt" height="690pt"
 viewBox="0.00 0.00 6484.99 689.92" xmlns="http://www.w3.org/2000/svg" xmlns:xlink="http://www.w3.org/1999/xlink">
<g id="graph0" class="graph" transform="scale(1 1) rotate(0) translate(4 685.92)">
<polygon fill="white" stroke="transparent" points="-4,4 -4,-685.92 6480.99,-685.92 6480.99,4 -4,4"/>
<!-- 0 -->
<g id="node1" class="node">
<title>0</title>
<ellipse fill="none" stroke="black" cx="1466.18" cy="-655.05" rx="36.12" ry="26.74"/>
<text text-anchor="middle" x="1466.18" y="-658.85" font-family="Times,serif" font-size="14.00">triv1</text>
<text text-anchor="middle" x="1466.18" y="-643.85" font-family="Times,serif" font-size="14.00">(1.0)</text>
</g>
<!-- 1 -->
<g id="node2" class="node">
<title>1</title>
<ellipse fill="#9aff9a" stroke="black" cx="1466.18" cy="-565.31" rx="130.63" ry="26.74"/>
<text text-anchor="middle" x="1466.18" y="-569.11" font-family="Times,serif" font-size="14.00">intros.</text>
<text text-anchor="middle" x="1466.18" y="-554.11" font-family="Times,serif" font-size="14.00">(0.9094200661523424)</text>
</g>
<!-- 0&#45;&gt;1 -->
<g id="edge1" class="edge">
<title>0&#45;&gt;1</title>
<path fill="none" stroke="black" d="M1466.18,-627.73C1466.18,-619.76 1466.18,-610.87 1466.18,-602.38"/>
<polygon fill="black" stroke="black" points="1469.68,-602.31 1466.18,-592.31 1462.68,-602.31 1469.68,-602.31"/>
</g>
<!-- 2 -->
<g id="node3" class="node">
<title>2</title>
<ellipse fill="#9aff9a" stroke="black" cx="1466.18" cy="-475.57" rx="137.36" ry="26.74"/>
<text text-anchor="middle" x="1466.18" y="-479.37" font-family="Times,serif" font-size="14.00">unfold star.</text>
<text text-anchor="middle" x="1466.18" y="-464.37" font-family="Times,serif" font-size="14.00">(0.24770928264153835)</text>
</g>
<!-- 1&#45;&gt;2 -->
<g id="edge2" class="edge">
<title>1&#45;&gt;2</title>
<path fill="none" stroke="black" d="M1466.18,-537.99C1466.18,-530.02 1466.18,-521.13 1466.18,-512.64"/>
<polygon fill="black" stroke="black" points="1469.68,-512.57 1466.18,-502.57 1462.68,-512.57 1469.68,-512.57"/>
</g>
<!-- 3 -->
<g id="node4" class="node">
<title>3</title>
<ellipse fill="none" stroke="black" cx="741.18" cy="-385.83" rx="130.63" ry="26.74"/>
<text text-anchor="middle" x="741.18" y="-389.63" font-family="Times,serif" font-size="14.00">unfold star_.</text>
<text text-anchor="middle" x="741.18" y="-374.63" font-family="Times,serif" font-size="14.00">(0.6096810767804925)</text>
</g>
<!-- 2&#45;&gt;3 -->
<g id="edge3" class="edge">
<title>2&#45;&gt;3</title>
<path fill="none" stroke="black" d="M1351.7,-460.72C1218.08,-444.55 998.08,-417.92 861.86,-401.43"/>
<polygon fill="black" stroke="black" points="862.14,-397.94 851.79,-400.22 861.3,-404.89 862.14,-397.94"/>
</g>
<!-- 10 -->
<g id="node5" class="node">
<title>10</title>
<ellipse fill="#9aff9a" stroke="black" cx="2956.18" cy="-385.83" rx="137.36" ry="26.74"/>
<text text-anchor="middle" x="2956.18" y="-389.63" font-family="Times,serif" font-size="14.00">unfold inv.</text>
<text text-anchor="middle" x="2956.18" y="-374.63" font-family="Times,serif" font-size="14.00">(0.06805182750724846)</text>
</g>
<!-- 2&#45;&gt;10 -->
<g id="edge4" class="edge">
<title>2&#45;&gt;10</title>
<path fill="none" stroke="black" d="M1596.12,-466.92C1874.91,-450.5 2528.4,-412.02 2816.06,-395.08"/>
<polygon fill="black" stroke="black" points="2816.36,-398.57 2826.13,-394.49 2815.95,-391.58 2816.36,-398.57"/>
</g>
<!-- 4 -->
<g id="node6" class="node">
<title>4</title>
<ellipse fill="orange" stroke="black" cx="137.18" cy="-296.09" rx="137.36" ry="26.74"/>
<text text-anchor="middle" x="137.18" y="-299.89" font-family="Times,serif" font-size="14.00">unfold G_.</text>
<text text-anchor="middle" x="137.18" y="-284.89" font-family="Times,serif" font-size="14.00">(0.23050646529181695)</text>
</g>
<!-- 3&#45;&gt;4 -->
<g id="edge5" class="edge">
<title>3&#45;&gt;4</title>
<path fill="none" stroke="black" d="M630.87,-371.22C537.98,-359.45 401.7,-341.46 283.18,-322.96 270.71,-321.02 257.67,-318.87 244.73,-316.66"/>
<polygon fill="black" stroke="black" points="245.31,-313.21 234.86,-314.97 244.13,-320.11 245.31,-313.21"/>
</g>
<!-- 5 -->
<g id="node7" class="node">
<title>5</title>
<ellipse fill="orange" stroke="black" cx="436.18" cy="-296.09" rx="143.59" ry="26.74"/>
<text text-anchor="middle" x="436.18" y="-299.89" font-family="Times,serif" font-size="14.00">unfold star_.</text>
<text text-anchor="middle" x="436.18" y="-284.89" font-family="Times,serif" font-size="14.00">(0.012455310556959379)</text>
</g>
<!-- 3&#45;&gt;5 -->
<g id="edge6" class="edge">
<title>3&#45;&gt;5</title>
<path fill="none" stroke="black" d="M667.35,-363.59C623.48,-350.97 567.66,-334.91 521.86,-321.74"/>
<polygon fill="black" stroke="black" points="522.83,-318.37 512.25,-318.97 520.89,-325.1 522.83,-318.37"/>
</g>
<!-- 6 -->
<g id="node8" class="node">
<title>6</title>
<ellipse fill="orange" stroke="black" cx="741.18" cy="-296.09" rx="143.59" ry="26.74"/>
<text text-anchor="middle" x="741.18" y="-299.89" font-family="Times,serif" font-size="14.00">unfold inv_.</text>
<text text-anchor="middle" x="741.18" y="-284.89" font-family="Times,serif" font-size="14.00">(0.009864554345681056)</text>
</g>
<!-- 3&#45;&gt;6 -->
<g id="edge7" class="edge">
<title>3&#45;&gt;6</title>
<path fill="none" stroke="black" d="M741.18,-358.51C741.18,-350.54 741.18,-341.65 741.18,-333.16"/>
<polygon fill="black" stroke="black" points="744.68,-333.09 741.18,-323.09 737.68,-333.09 744.68,-333.09"/>
</g>
<!-- 7 -->
<g id="node9" class="node">
<title>7</title>
<ellipse fill="none" stroke="black" cx="1046.18" cy="-296.09" rx="143.59" ry="26.74"/>
<text text-anchor="middle" x="1046.18" y="-299.89" font-family="Times,serif" font-size="14.00">destruct Gr.</text>
<text text-anchor="middle" x="1046.18" y="-284.89" font-family="Times,serif" font-size="14.00">(0.007060981226545886)</text>
</g>
<!-- 3&#45;&gt;7 -->
<g id="edge8" class="edge">
<title>3&#45;&gt;7</title>
<path fill="none" stroke="black" d="M815.01,-363.59C858.87,-350.97 914.7,-334.91 960.5,-321.74"/>
<polygon fill="black" stroke="black" points="961.47,-325.1 970.11,-318.97 959.53,-318.37 961.47,-325.1"/>
</g>
<!-- 11 -->
<g id="node12" class="node">
<title>11</title>
<ellipse fill="none" stroke="black" cx="1911.18" cy="-296.09" rx="130.63" ry="26.74"/>
<text text-anchor="middle" x="1911.18" y="-299.89" font-family="Times,serif" font-size="14.00">unfold star_.</text>
<text text-anchor="middle" x="1911.18" y="-284.89" font-family="Times,serif" font-size="14.00">(0.5143427973217211)</text>
</g>
<!-- 10&#45;&gt;11 -->
<g id="edge11" class="edge">
<title>10&#45;&gt;11</title>
<path fill="none" stroke="black" d="M2831.94,-374.4C2632.6,-357.66 2243.19,-324.97 2040.6,-307.96"/>
<polygon fill="black" stroke="black" points="2040.76,-304.46 2030.5,-307.11 2040.17,-311.43 2040.76,-304.46"/>
</g>
<!-- 24 -->
<g id="node13" class="node">
<title>24</title>
<ellipse fill="orange" stroke="black" cx="2813.18" cy="-296.09" rx="130.63" ry="26.74"/>
<text text-anchor="middle" x="2813.18" y="-299.89" font-family="Times,serif" font-size="14.00">simpl.</text>
<text text-anchor="middle" x="2813.18" y="-284.89" font-family="Times,serif" font-size="14.00">(0.1810624847197233)</text>
</g>
<!-- 10&#45;&gt;24 -->
<g id="edge12" class="edge">
<title>10&#45;&gt;24</title>
<path fill="none" stroke="black" d="M2915.58,-359.92C2898.99,-349.74 2879.64,-337.87 2862.26,-327.21"/>
<polygon fill="black" stroke="black" points="2863.73,-324 2853.38,-321.76 2860.07,-329.97 2863.73,-324"/>
</g>
<!-- 25 -->
<g id="node14" class="node">
<title>25</title>
<ellipse fill="orange" stroke="black" cx="3099.18" cy="-296.09" rx="137.36" ry="26.74"/>
<text text-anchor="middle" x="3099.18" y="-299.89" font-family="Times,serif" font-size="14.00">eauto.</text>
<text text-anchor="middle" x="3099.18" y="-284.89" font-family="Times,serif" font-size="14.00">(0.08125520110939437)</text>
</g>
<!-- 10&#45;&gt;25 -->
<g id="edge13" class="edge">
<title>10&#45;&gt;25</title>
<path fill="none" stroke="black" d="M2996.77,-359.92C3013.23,-349.83 3032.39,-338.07 3049.65,-327.48"/>
<polygon fill="black" stroke="black" points="3051.79,-330.27 3058.48,-322.06 3048.13,-324.31 3051.79,-330.27"/>
</g>
<!-- 26 -->
<g id="node15" class="node">
<title>26</title>
<ellipse fill="none" stroke="black" cx="4319.18" cy="-296.09" rx="143.59" ry="26.74"/>
<text text-anchor="middle" x="4319.18" y="-299.89" font-family="Times,serif" font-size="14.00">unfold inv_.</text>
<text text-anchor="middle" x="4319.18" y="-284.89" font-family="Times,serif" font-size="14.00">(0.057410272722205245)</text>
</g>
<!-- 10&#45;&gt;26 -->
<g id="edge14" class="edge">
<title>10&#45;&gt;26</title>
<path fill="none" stroke="black" d="M3085.02,-376.54C3340.05,-360.12 3907.56,-323.59 4174.76,-306.39"/>
<polygon fill="black" stroke="black" points="4175.17,-309.87 4184.92,-305.73 4174.72,-302.88 4175.17,-309.87"/>
</g>
<!-- 37 -->
<g id="node16" class="node">
<title>37</title>
<ellipse fill="#9aff9a" stroke="black" cx="5352.18" cy="-296.09" rx="137.36" ry="26.74"/>
<text text-anchor="middle" x="5352.18" y="-299.89" font-family="Times,serif" font-size="14.00">destruct Gr.</text>
<text text-anchor="middle" x="5352.18" y="-284.89" font-family="Times,serif" font-size="14.00">(0.02327506556848154)</text>
</g>
<!-- 10&#45;&gt;37 -->
<g id="edge15" class="edge">
<title>10&#45;&gt;37</title>
<path fill="none" stroke="black" d="M3090.13,-379.93C3506.8,-364.67 4777.82,-318.12 5208.06,-302.37"/>
<polygon fill="black" stroke="black" points="5208.2,-305.87 5218.06,-302 5207.94,-298.87 5208.2,-305.87"/>
</g>
<!-- 8 -->
<g id="node10" class="node">
<title>8</title>
<ellipse fill="orange" stroke="black" cx="773.18" cy="-206.35" rx="124.4" ry="26.74"/>
<text text-anchor="middle" x="773.18" y="-210.15" font-family="Times,serif" font-size="14.00">try discriminate.</text>
<text text-anchor="middle" x="773.18" y="-195.15" font-family="Times,serif" font-size="14.00">(0.266155498654631)</text>
</g>
<!-- 7&#45;&gt;8 -->
<g id="edge9" class="edge">
<title>7&#45;&gt;8</title>
<path fill="none" stroke="black" d="M976.23,-272.61C937.7,-260.23 889.8,-244.83 850.21,-232.11"/>
<polygon fill="black" stroke="black" points="851.18,-228.74 840.59,-229.02 849.04,-235.41 851.18,-228.74"/>
</g>
<!-- 9 -->
<g id="node11" class="node">
<title>9</title>
<ellipse fill="orange" stroke="black" cx="1046.18" cy="-206.35" rx="130.63" ry="26.74"/>
<text text-anchor="middle" x="1046.18" y="-210.15" font-family="Times,serif" font-size="14.00">eauto.</text>
<text text-anchor="middle" x="1046.18" y="-195.15" font-family="Times,serif" font-size="14.00">(0.2607992633753594)</text>
</g>
<!-- 7&#45;&gt;9 -->
<g id="edge10" class="edge">
<title>7&#45;&gt;9</title>
<path fill="none" stroke="black" d="M1046.18,-268.77C1046.18,-260.8 1046.18,-251.91 1046.18,-243.42"/>
<polygon fill="black" stroke="black" points="1049.68,-243.35 1046.18,-233.35 1042.68,-243.35 1049.68,-243.35"/>
</g>
<!-- 12 -->
<g id="node17" class="node">
<title>12</title>
<ellipse fill="orange" stroke="black" cx="1326.18" cy="-206.35" rx="130.63" ry="26.74"/>
<text text-anchor="middle" x="1326.18" y="-210.15" font-family="Times,serif" font-size="14.00">unfold G_.</text>
<text text-anchor="middle" x="1326.18" y="-195.15" font-family="Times,serif" font-size="14.00">(0.2315341651062877)</text>
</g>
<!-- 11&#45;&gt;12 -->
<g id="edge16" class="edge">
<title>11&#45;&gt;12</title>
<path fill="none" stroke="black" d="M1801.71,-281.25C1711.5,-269.52 1580.33,-251.69 1466.18,-233.22 1454.46,-231.32 1442.2,-229.23 1430.03,-227.07"/>
<polygon fill="black" stroke="black" points="1430.3,-223.57 1419.84,-225.25 1429.06,-230.46 1430.3,-223.57"/>
</g>
<!-- 13 -->
<g id="node18" class="node">
<title>13</title>
<ellipse fill="orange" stroke="black" cx="1612.18" cy="-206.35" rx="137.36" ry="26.74"/>
<text text-anchor="middle" x="1612.18" y="-210.15" font-family="Times,serif" font-size="14.00">unfold star_.</text>
<text text-anchor="middle" x="1612.18" y="-195.15" font-family="Times,serif" font-size="14.00">(0.01251084035111531)</text>
</g>
<!-- 11&#45;&gt;13 -->
<g id="edge17" class="edge">
<title>11&#45;&gt;13</title>
<path fill="none" stroke="black" d="M1838.42,-273.74C1795.34,-261.1 1740.6,-245.03 1695.75,-231.87"/>
<polygon fill="black" stroke="black" points="1696.63,-228.48 1686.05,-229.03 1694.66,-235.2 1696.63,-228.48"/>
</g>
<!-- 14 -->
<g id="node19" class="node">
<title>14</title>
<ellipse fill="none" stroke="black" cx="1911.18" cy="-206.35" rx="143.59" ry="26.74"/>
<text text-anchor="middle" x="1911.18" y="-210.15" font-family="Times,serif" font-size="14.00">unfold inv_.</text>
<text text-anchor="middle" x="1911.18" y="-195.15" font-family="Times,serif" font-size="14.00">(0.009908538437292488)</text>
</g>
<!-- 11&#45;&gt;14 -->
<g id="edge18" class="edge">
<title>11&#45;&gt;14</title>
<path fill="none" stroke="black" d="M1911.18,-268.77C1911.18,-260.8 1911.18,-251.91 1911.18,-243.42"/>
<polygon fill="black" stroke="black" points="1914.68,-243.35 1911.18,-233.35 1907.68,-243.35 1914.68,-243.35"/>
</g>
<!-- 19 -->
<g id="node20" class="node">
<title>19</title>
<ellipse fill="none" stroke="black" cx="2502.18" cy="-206.35" rx="143.59" ry="26.74"/>
<text text-anchor="middle" x="2502.18" y="-210.15" font-family="Times,serif" font-size="14.00">destruct Gr.</text>
<text text-anchor="middle" x="2502.18" y="-195.15" font-family="Times,serif" font-size="14.00">(0.006640098970963062)</text>
</g>
<!-- 11&#45;&gt;19 -->
<g id="edge19" class="edge">
<title>11&#45;&gt;19</title>
<path fill="none" stroke="black" d="M2015.14,-279.66C2117.76,-264.42 2274.53,-241.15 2382.33,-225.14"/>
<polygon fill="black" stroke="black" points="2382.91,-228.6 2392.28,-223.67 2381.88,-221.67 2382.91,-228.6"/>
</g>
<!-- 27 -->
<g id="node29" class="node">
<title>27</title>
<ellipse fill="none" stroke="black" cx="4021.18" cy="-206.35" rx="130.63" ry="26.74"/>
<text text-anchor="middle" x="4021.18" y="-210.15" font-family="Times,serif" font-size="14.00">unfold star_.</text>
<text text-anchor="middle" x="4021.18" y="-195.15" font-family="Times,serif" font-size="14.00">(0.7082215362832847)</text>
</g>
<!-- 26&#45;&gt;27 -->
<g id="edge28" class="edge">
<title>26&#45;&gt;27</title>
<path fill="none" stroke="black" d="M4244.37,-273.06C4201.57,-260.46 4147.81,-244.63 4103.78,-231.67"/>
<polygon fill="black" stroke="black" points="4104.54,-228.25 4093.96,-228.78 4102.57,-234.96 4104.54,-228.25"/>
</g>
<!-- 32 -->
<g id="node30" class="node">
<title>32</title>
<ellipse fill="none" stroke="black" cx="4618.18" cy="-206.35" rx="143.59" ry="26.74"/>
<text text-anchor="middle" x="4618.18" y="-210.15" font-family="Times,serif" font-size="14.00">destruct Gr.</text>
<text text-anchor="middle" x="4618.18" y="-195.15" font-family="Times,serif" font-size="14.00">(0.038051671286216636)</text>
</g>
<!-- 26&#45;&gt;32 -->
<g id="edge29" class="edge">
<title>26&#45;&gt;32</title>
<path fill="none" stroke="black" d="M4394.24,-273.06C4436.62,-260.63 4489.71,-245.05 4533.56,-232.18"/>
<polygon fill="black" stroke="black" points="4534.73,-235.48 4543.34,-229.31 4532.76,-228.77 4534.73,-235.48"/>
</g>
<!-- 36 -->
<g id="node31" class="node">
<title>36</title>
<ellipse fill="orange" stroke="black" cx="4923.18" cy="-206.35" rx="143.59" ry="26.74"/>
<text text-anchor="middle" x="4923.18" y="-210.15" font-family="Times,serif" font-size="14.00">unfold G_.</text>
<text text-anchor="middle" x="4923.18" y="-195.15" font-family="Times,serif" font-size="14.00">(0.015169015214737487)</text>
</g>
<!-- 26&#45;&gt;36 -->
<g id="edge30" class="edge">
<title>26&#45;&gt;36</title>
<path fill="none" stroke="black" d="M4435.45,-280.23C4526.83,-268.3 4657.27,-250.7 4771.18,-233.22 4783.93,-231.26 4797.28,-229.12 4810.53,-226.94"/>
<polygon fill="black" stroke="black" points="4811.35,-230.36 4820.64,-225.27 4810.2,-223.45 4811.35,-230.36"/>
</g>
<!-- 38 -->
<g id="node39" class="node">
<title>38</title>
<ellipse fill="orange" stroke="black" cx="5352.18" cy="-206.35" rx="130.63" ry="26.74"/>
<text text-anchor="middle" x="5352.18" y="-210.15" font-family="Times,serif" font-size="14.00">eauto.</text>
<text text-anchor="middle" x="5352.18" y="-195.15" font-family="Times,serif" font-size="14.00">(0.4969908306416539)</text>
</g>
<!-- 37&#45;&gt;38 -->
<g id="edge38" class="edge">
<title>37&#45;&gt;38</title>
<path fill="none" stroke="black" d="M5352.18,-268.77C5352.18,-260.8 5352.18,-251.91 5352.18,-243.42"/>
<polygon fill="black" stroke="black" points="5355.68,-243.35 5352.18,-233.35 5348.68,-243.35 5355.68,-243.35"/>
</g>
<!-- 39 -->
<g id="node40" class="node">
<title>39</title>
<ellipse fill="#9aff9a" stroke="black" cx="5774.18" cy="-206.35" rx="137.36" ry="26.74"/>
<text text-anchor="middle" x="5774.18" y="-210.15" font-family="Times,serif" font-size="14.00">simpl.</text>
<text text-anchor="middle" x="5774.18" y="-195.15" font-family="Times,serif" font-size="14.00">(0.16003879115962696)</text>
</g>
<!-- 37&#45;&gt;39 -->
<g id="edge39" class="edge">
<title>37&#45;&gt;39</title>
<path fill="none" stroke="black" d="M5443.75,-276.05C5511.1,-262.05 5602.65,-243.01 5672.31,-228.53"/>
<polygon fill="black" stroke="black" points="5673.35,-231.89 5682.43,-226.43 5671.92,-225.04 5673.35,-231.89"/>
</g>
<!-- 15 -->
<g id="node21" class="node">
<title>15</title>
<ellipse fill="orange" stroke="black" cx="1002.18" cy="-116.61" rx="137.36" ry="26.74"/>
<text text-anchor="middle" x="1002.18" y="-120.41" font-family="Times,serif" font-size="14.00">unfold G_.</text>
<text text-anchor="middle" x="1002.18" y="-105.41" font-family="Times,serif" font-size="14.00">(0.23072950629849126)</text>
</g>
<!-- 14&#45;&gt;15 -->
<g id="edge20" class="edge">
<title>14&#45;&gt;15</title>
<path fill="none" stroke="black" d="M1811.82,-186.94C1794,-184.1 1775.58,-181.46 1758.18,-179.48 1488.33,-148.8 1417.9,-175.23 1148.18,-143.48 1134.81,-141.91 1120.8,-139.9 1106.99,-137.69"/>
<polygon fill="black" stroke="black" points="1107.4,-134.21 1096.97,-136.06 1106.28,-141.12 1107.4,-134.21"/>
</g>
<!-- 16 -->
<g id="node22" class="node">
<title>16</title>
<ellipse fill="orange" stroke="black" cx="1301.18" cy="-116.61" rx="143.59" ry="26.74"/>
<text text-anchor="middle" x="1301.18" y="-120.41" font-family="Times,serif" font-size="14.00">unfold star_.</text>
<text text-anchor="middle" x="1301.18" y="-105.41" font-family="Times,serif" font-size="14.00">(0.012467366933579608)</text>
</g>
<!-- 14&#45;&gt;16 -->
<g id="edge21" class="edge">
<title>14&#45;&gt;16</title>
<path fill="none" stroke="black" d="M1809.24,-187.38C1792.21,-184.59 1774.71,-181.85 1758.18,-179.48 1623.07,-160.1 1588.28,-162.94 1453.18,-143.48 1440.07,-141.59 1426.34,-139.47 1412.74,-137.27"/>
<polygon fill="black" stroke="black" points="1413.29,-133.81 1402.86,-135.65 1412.16,-140.72 1413.29,-133.81"/>
</g>
<!-- 17 -->
<g id="node23" class="node">
<title>17</title>
<ellipse fill="orange" stroke="black" cx="1606.18" cy="-116.61" rx="143.59" ry="26.74"/>
<text text-anchor="middle" x="1606.18" y="-120.41" font-family="Times,serif" font-size="14.00">unfold inv_.</text>
<text text-anchor="middle" x="1606.18" y="-105.41" font-family="Times,serif" font-size="14.00">(0.009874102946002048)</text>
</g>
<!-- 14&#45;&gt;17 -->
<g id="edge22" class="edge">
<title>14&#45;&gt;17</title>
<path fill="none" stroke="black" d="M1835,-183.44C1791.52,-170.93 1736.89,-155.21 1691.91,-142.27"/>
<polygon fill="black" stroke="black" points="1692.76,-138.87 1682.18,-139.47 1690.82,-145.6 1692.76,-138.87"/>
</g>
<!-- 18 -->
<g id="node24" class="node">
<title>18</title>
<ellipse fill="none" stroke="black" cx="1911.18" cy="-116.61" rx="143.59" ry="26.74"/>
<text text-anchor="middle" x="1911.18" y="-120.41" font-family="Times,serif" font-size="14.00">destruct Gr.</text>
<text text-anchor="middle" x="1911.18" y="-105.41" font-family="Times,serif" font-size="14.00">(0.006937533418437451)</text>
</g>
<!-- 14&#45;&gt;18 -->
<g id="edge23" class="edge">
<title>14&#45;&gt;18</title>
<path fill="none" stroke="black" d="M1911.18,-179.03C1911.18,-171.06 1911.18,-162.17 1911.18,-153.68"/>
<polygon fill="black" stroke="black" points="1914.68,-153.61 1911.18,-143.61 1907.68,-153.61 1914.68,-153.61"/>
</g>
<!-- 20 -->
<g id="node25" class="node">
<title>20</title>
<ellipse fill="none" stroke="black" cx="2210.18" cy="-116.61" rx="137.36" ry="26.74"/>
<text text-anchor="middle" x="2210.18" y="-120.41" font-family="Times,serif" font-size="14.00">simpl.</text>
<text text-anchor="middle" x="2210.18" y="-105.41" font-family="Times,serif" font-size="14.00">(0.44689404415429224)</text>
</g>
<!-- 19&#45;&gt;20 -->
<g id="edge24" class="edge">
<title>19&#45;&gt;20</title>
<path fill="none" stroke="black" d="M2428.49,-183.21C2387.12,-170.78 2335.37,-155.23 2292.64,-142.39"/>
<polygon fill="black" stroke="black" points="2293.41,-138.97 2282.83,-139.44 2291.4,-145.67 2293.41,-138.97"/>
</g>
<!-- 21 -->
<g id="node26" class="node">
<title>21</title>
<ellipse fill="orange" stroke="black" cx="2502.18" cy="-116.61" rx="137.36" ry="26.74"/>
<text text-anchor="middle" x="2502.18" y="-120.41" font-family="Times,serif" font-size="14.00">eauto.</text>
<text text-anchor="middle" x="2502.18" y="-105.41" font-family="Times,serif" font-size="14.00">(0.43001528002663186)</text>
</g>
<!-- 19&#45;&gt;21 -->
<g id="edge25" class="edge">
<title>19&#45;&gt;21</title>
<path fill="none" stroke="black" d="M2502.18,-179.03C2502.18,-171.06 2502.18,-162.17 2502.18,-153.68"/>
<polygon fill="black" stroke="black" points="2505.68,-153.61 2502.18,-143.61 2498.68,-153.61 2505.68,-153.61"/>
</g>
<!-- 22 -->
<g id="node27" class="node">
<title>22</title>
<ellipse fill="orange" stroke="black" cx="2801.18" cy="-116.61" rx="143.59" ry="26.74"/>
<text text-anchor="middle" x="2801.18" y="-120.41" font-family="Times,serif" font-size="14.00">try reflexivity.</text>
<text text-anchor="middle" x="2801.18" y="-105.41" font-family="Times,serif" font-size="14.00">(0.015912341339622944)</text>
</g>
<!-- 19&#45;&gt;22 -->
<g id="edge26" class="edge">
<title>19&#45;&gt;22</title>
<path fill="none" stroke="black" d="M2577.24,-183.32C2619.62,-170.89 2672.71,-155.31 2716.56,-142.44"/>
<polygon fill="black" stroke="black" points="2717.73,-145.74 2726.34,-139.57 2715.76,-139.03 2717.73,-145.74"/>
</g>
<!-- 23 -->
<g id="node28" class="node">
<title>23</title>
<ellipse fill="orange" stroke="black" cx="3112.18" cy="-116.61" rx="149.81" ry="26.74"/>
<text text-anchor="middle" x="3112.18" y="-120.41" font-family="Times,serif" font-size="14.00">try discriminate.</text>
<text text-anchor="middle" x="3112.18" y="-105.41" font-family="Times,serif" font-size="14.00">(0.0024268513499969384)</text>
</g>
<!-- 19&#45;&gt;23 -->
<g id="edge27" class="edge">
<title>19&#45;&gt;23</title>
<path fill="none" stroke="black" d="M2617.95,-190.35C2709.34,-178.31 2840.02,-160.64 2954.18,-143.48 2967.45,-141.49 2981.34,-139.32 2995.13,-137.13"/>
<polygon fill="black" stroke="black" points="2995.83,-140.56 3005.15,-135.52 2994.72,-133.65 2995.83,-140.56"/>
</g>
<!-- 28 -->
<g id="node32" class="node">
<title>28</title>
<ellipse fill="orange" stroke="black" cx="3417.18" cy="-116.61" rx="137.36" ry="26.74"/>
<text text-anchor="middle" x="3417.18" y="-120.41" font-family="Times,serif" font-size="14.00">unfold G_.</text>
<text text-anchor="middle" x="3417.18" y="-105.41" font-family="Times,serif" font-size="14.00">(0.23072950629849126)</text>
</g>
<!-- 27&#45;&gt;28 -->
<g id="edge31" class="edge">
<title>27&#45;&gt;28</title>
<path fill="none" stroke="black" d="M3910.87,-191.74C3817.98,-179.97 3681.7,-161.98 3563.18,-143.48 3550.71,-141.53 3537.67,-139.39 3524.73,-137.18"/>
<polygon fill="black" stroke="black" points="3525.31,-133.73 3514.86,-135.49 3524.13,-140.63 3525.31,-133.73"/>
</g>
<!-- 29 -->
<g id="node33" class="node">
<title>29</title>
<ellipse fill="orange" stroke="black" cx="3716.18" cy="-116.61" rx="143.59" ry="26.74"/>
<text text-anchor="middle" x="3716.18" y="-120.41" font-family="Times,serif" font-size="14.00">unfold star_.</text>
<text text-anchor="middle" x="3716.18" y="-105.41" font-family="Times,serif" font-size="14.00">(0.012467366933579608)</text>
</g>
<!-- 27&#45;&gt;29 -->
<g id="edge32" class="edge">
<title>27&#45;&gt;29</title>
<path fill="none" stroke="black" d="M3947.35,-184.11C3903.48,-171.49 3847.66,-155.43 3801.86,-142.26"/>
<polygon fill="black" stroke="black" points="3802.83,-138.89 3792.25,-139.49 3800.89,-145.62 3802.83,-138.89"/>
</g>
<!-- 30 -->
<g id="node34" class="node">
<title>30</title>
<ellipse fill="orange" stroke="black" cx="4021.18" cy="-116.61" rx="143.59" ry="26.74"/>
<text text-anchor="middle" x="4021.18" y="-120.41" font-family="Times,serif" font-size="14.00">unfold inv_.</text>
<text text-anchor="middle" x="4021.18" y="-105.41" font-family="Times,serif" font-size="14.00">(0.009874102946002048)</text>
</g>
<!-- 27&#45;&gt;30 -->
<g id="edge33" class="edge">
<title>27&#45;&gt;30</title>
<path fill="none" stroke="black" d="M4021.18,-179.03C4021.18,-171.06 4021.18,-162.17 4021.18,-153.68"/>
<polygon fill="black" stroke="black" points="4024.68,-153.61 4021.18,-143.61 4017.68,-153.61 4024.68,-153.61"/>
</g>
<!-- 31 -->
<g id="node35" class="node">
<title>31</title>
<ellipse fill="none" stroke="black" cx="4326.18" cy="-116.61" rx="143.59" ry="26.74"/>
<text text-anchor="middle" x="4326.18" y="-120.41" font-family="Times,serif" font-size="14.00">destruct Gr.</text>
<text text-anchor="middle" x="4326.18" y="-105.41" font-family="Times,serif" font-size="14.00">(0.006937533418437451)</text>
</g>
<!-- 27&#45;&gt;31 -->
<g id="edge34" class="edge">
<title>27&#45;&gt;31</title>
<path fill="none" stroke="black" d="M4095.01,-184.11C4138.87,-171.49 4194.7,-155.43 4240.5,-142.26"/>
<polygon fill="black" stroke="black" points="4241.47,-145.62 4250.11,-139.49 4239.53,-138.89 4241.47,-145.62"/>
</g>
<!-- 33 -->
<g id="node36" class="node">
<title>33</title>
<ellipse fill="orange" stroke="black" cx="4618.18" cy="-116.61" rx="130.63" ry="26.74"/>
<text text-anchor="middle" x="4618.18" y="-120.41" font-family="Times,serif" font-size="14.00">eauto.</text>
<text text-anchor="middle" x="4618.18" y="-105.41" font-family="Times,serif" font-size="14.00">(0.4956825394142337)</text>
</g>
<!-- 32&#45;&gt;33 -->
<g id="edge35" class="edge">
<title>32&#45;&gt;33</title>
<path fill="none" stroke="black" d="M4618.18,-179.03C4618.18,-171.06 4618.18,-162.17 4618.18,-153.68"/>
<polygon fill="black" stroke="black" points="4621.68,-153.61 4618.18,-143.61 4614.68,-153.61 4621.68,-153.61"/>
</g>
<!-- 34 -->
<g id="node37" class="node">
<title>34</title>
<ellipse fill="none" stroke="black" cx="4904.18" cy="-116.61" rx="137.36" ry="26.74"/>
<text text-anchor="middle" x="4904.18" y="-120.41" font-family="Times,serif" font-size="14.00">simpl.</text>
<text text-anchor="middle" x="4904.18" y="-105.41" font-family="Times,serif" font-size="14.00">(0.15941850780076444)</text>
</g>
<!-- 32&#45;&gt;34 -->
<g id="edge36" class="edge">
<title>32&#45;&gt;34</title>
<path fill="none" stroke="black" d="M4690.72,-183.1C4730.86,-170.78 4780.87,-155.44 4822.4,-142.7"/>
<polygon fill="black" stroke="black" points="4823.68,-145.97 4832.21,-139.69 4821.63,-139.28 4823.68,-145.97"/>
</g>
<!-- 35 -->
<g id="node38" class="node">
<title>35</title>
<ellipse fill="orange" stroke="black" cx="5196.18" cy="-116.61" rx="137.36" ry="26.74"/>
<text text-anchor="middle" x="5196.18" y="-120.41" font-family="Times,serif" font-size="14.00">try discriminate.</text>
<text text-anchor="middle" x="5196.18" y="-105.41" font-family="Times,serif" font-size="14.00">(0.06870390842765954)</text>
</g>
<!-- 32&#45;&gt;35 -->
<g id="edge37" class="edge">
<title>32&#45;&gt;35</title>
<path fill="none" stroke="black" d="M4720.29,-187.38C4736.95,-184.62 4754.03,-181.89 4770.18,-179.48 4894.27,-160.95 4926.15,-162.43 5050.18,-143.48 5062.65,-141.57 5075.7,-139.45 5088.64,-137.26"/>
<polygon fill="black" stroke="black" points="5089.24,-140.71 5098.51,-135.58 5088.06,-133.81 5089.24,-140.71"/>
</g>
<!-- 40 -->
<g id="node41" class="node">
<title>40</title>
<ellipse fill="orange" stroke="black" cx="5488.18" cy="-116.61" rx="137.36" ry="26.74"/>
<text text-anchor="middle" x="5488.18" y="-120.41" font-family="Times,serif" font-size="14.00">eauto.</text>
<text text-anchor="middle" x="5488.18" y="-105.41" font-family="Times,serif" font-size="14.00">(0.37843850801534035)</text>
</g>
<!-- 39&#45;&gt;40 -->
<g id="edge40" class="edge">
<title>39&#45;&gt;40</title>
<path fill="none" stroke="black" d="M5702.38,-183.32C5662.01,-170.94 5611.47,-155.43 5569.62,-142.6"/>
<polygon fill="black" stroke="black" points="5570.6,-139.23 5560.01,-139.65 5568.54,-145.93 5570.6,-139.23"/>
</g>
<!-- 41 -->
<g id="node42" class="node">
<title>41</title>
<ellipse fill="orange" stroke="black" cx="5774.18" cy="-116.61" rx="130.63" ry="26.74"/>
<text text-anchor="middle" x="5774.18" y="-120.41" font-family="Times,serif" font-size="14.00">try easy.</text>
<text text-anchor="middle" x="5774.18" y="-105.41" font-family="Times,serif" font-size="14.00">(0.3165165031307932)</text>
</g>
<!-- 39&#45;&gt;41 -->
<g id="edge41" class="edge">
<title>39&#45;&gt;41</title>
<path fill="none" stroke="black" d="M5774.18,-179.03C5774.18,-171.06 5774.18,-162.17 5774.18,-153.68"/>
<polygon fill="black" stroke="black" points="5777.68,-153.61 5774.18,-143.61 5770.68,-153.61 5777.68,-153.61"/>
</g>
<!-- 42 -->
<g id="node43" class="node">
<title>42</title>
<ellipse fill="orange" stroke="black" cx="6060.18" cy="-116.61" rx="137.36" ry="26.74"/>
<text text-anchor="middle" x="6060.18" y="-120.41" font-family="Times,serif" font-size="14.00">f_equal.</text>
<text text-anchor="middle" x="6060.18" y="-105.41" font-family="Times,serif" font-size="14.00">(0.03158807493743265)</text>
</g>
<!-- 39&#45;&gt;42 -->
<g id="edge42" class="edge">
<title>39&#45;&gt;42</title>
<path fill="none" stroke="black" d="M5845.98,-183.32C5886.35,-170.94 5936.89,-155.43 5978.74,-142.6"/>
<polygon fill="black" stroke="black" points="5979.81,-145.93 5988.35,-139.65 5977.76,-139.23 5979.81,-145.93"/>
</g>
<!-- 43 -->
<g id="node44" class="node">
<title>43</title>
<ellipse fill="#9aff9a" stroke="black" cx="6346.18" cy="-116.61" rx="130.63" ry="26.74"/>
<text text-anchor="middle" x="6346.18" y="-120.41" font-family="Times,serif" font-size="14.00">congruence.</text>
<text text-anchor="middle" x="6346.18" y="-105.41" font-family="Times,serif" font-size="14.00">(0.0042016393756321)</text>
</g>
<!-- 39&#45;&gt;43 -->
<g id="edge43" class="edge">
<title>39&#45;&gt;43</title>
<path fill="none" stroke="black" d="M5885.8,-190.63C5973.14,-178.8 6097.58,-161.28 6206.18,-143.48 6217.9,-141.56 6230.15,-139.45 6242.32,-137.29"/>
<polygon fill="black" stroke="black" points="6243.29,-140.67 6252.51,-135.46 6242.05,-133.78 6243.29,-140.67"/>
</g>
<!-- 44 -->
<g id="node45" class="node">
<title>44</title>
<ellipse fill="green" stroke="black" cx="6346.18" cy="-26.87" rx="35.21" ry="26.74"/>
<text text-anchor="middle" x="6346.18" y="-30.67" font-family="Times,serif" font-size="14.00">QED</text>
<text text-anchor="middle" x="6346.18" y="-15.67" font-family="Times,serif" font-size="14.00">(1.0)</text>
</g>
<!-- 43&#45;&gt;44 -->
<g id="edge44" class="edge">
<title>43&#45;&gt;44</title>
<path fill="none" stroke="black" d="M6346.18,-89.29C6346.18,-81.32 6346.18,-72.43 6346.18,-63.94"/>
<polygon fill="green" stroke="black" points="6349.68,-63.87 6346.18,-53.87 6342.68,-63.87 6349.68,-63.87"/>
</g>
</g>
</svg>
