<?xml version="1.0" encoding="UTF-8" standalone="no"?>
<!DOCTYPE svg PUBLIC "-//W3C//DTD SVG 1.1//EN"
 "http://www.w3.org/Graphics/SVG/1.1/DTD/svg11.dtd">
<!-- Generated by graphviz version 2.43.0 (0)
 -->
<!-- Pages: 1 -->
<svg width="8326pt" height="690pt"
 viewBox="0.00 0.00 8326.09 689.92" xmlns="http://www.w3.org/2000/svg" xmlns:xlink="http://www.w3.org/1999/xlink">
<g id="graph0" class="graph" transform="scale(1 1) rotate(0) translate(4 685.92)">
<polygon fill="white" stroke="transparent" points="-4,4 -4,-685.92 8322.09,-685.92 8322.09,4 -4,4"/>
<!-- 0 -->
<g id="node1" class="node">
<title>0</title>
<ellipse fill="none" stroke="black" cx="2244.18" cy="-655.05" rx="36.12" ry="26.74"/>
<text text-anchor="middle" x="2244.18" y="-658.85" font-family="Times,serif" font-size="14.00">triv2</text>
<text text-anchor="middle" x="2244.18" y="-643.85" font-family="Times,serif" font-size="14.00">(1.0)</text>
</g>
<!-- 1 -->
<g id="node2" class="node">
<title>1</title>
<ellipse fill="#9aff9a" stroke="black" cx="2244.18" cy="-565.31" rx="130.63" ry="26.74"/>
<text text-anchor="middle" x="2244.18" y="-569.11" font-family="Times,serif" font-size="14.00">intros.</text>
<text text-anchor="middle" x="2244.18" y="-554.11" font-family="Times,serif" font-size="14.00">(0.8910021593393372)</text>
</g>
<!-- 0&#45;&gt;1 -->
<g id="edge1" class="edge">
<title>0&#45;&gt;1</title>
<path fill="none" stroke="black" d="M2244.18,-627.73C2244.18,-619.76 2244.18,-610.87 2244.18,-602.38"/>
<polygon fill="black" stroke="black" points="2247.68,-602.31 2244.18,-592.31 2240.68,-602.31 2247.68,-602.31"/>
</g>
<!-- 2 -->
<g id="node3" class="node">
<title>2</title>
<ellipse fill="orange" stroke="black" cx="2101.18" cy="-475.57" rx="130.63" ry="26.74"/>
<text text-anchor="middle" x="2101.18" y="-479.37" font-family="Times,serif" font-size="14.00">eauto.</text>
<text text-anchor="middle" x="2101.18" y="-464.37" font-family="Times,serif" font-size="14.00">(0.5241373775274111)</text>
</g>
<!-- 1&#45;&gt;2 -->
<g id="edge2" class="edge">
<title>1&#45;&gt;2</title>
<path fill="none" stroke="black" d="M2203.96,-539.64C2187.36,-529.45 2167.96,-517.54 2150.51,-506.84"/>
<polygon fill="black" stroke="black" points="2151.94,-503.61 2141.59,-501.36 2148.28,-509.58 2151.94,-503.61"/>
</g>
<!-- 3 -->
<g id="node4" class="node">
<title>3</title>
<ellipse fill="#9aff9a" stroke="black" cx="2387.18" cy="-475.57" rx="137.36" ry="26.74"/>
<text text-anchor="middle" x="2387.18" y="-479.37" font-family="Times,serif" font-size="14.00">unfold star.</text>
<text text-anchor="middle" x="2387.18" y="-464.37" font-family="Times,serif" font-size="14.00">(0.14618582162767907)</text>
</g>
<!-- 1&#45;&gt;3 -->
<g id="edge3" class="edge">
<title>1&#45;&gt;3</title>
<path fill="none" stroke="black" d="M2284.39,-539.64C2300.99,-529.45 2320.4,-517.54 2337.85,-506.84"/>
<polygon fill="black" stroke="black" points="2340.08,-509.58 2346.77,-501.36 2336.42,-503.61 2340.08,-509.58"/>
</g>
<!-- 4 -->
<g id="node5" class="node">
<title>4</title>
<ellipse fill="none" stroke="black" cx="741.18" cy="-385.83" rx="130.63" ry="26.74"/>
<text text-anchor="middle" x="741.18" y="-389.63" font-family="Times,serif" font-size="14.00">unfold star_.</text>
<text text-anchor="middle" x="741.18" y="-374.63" font-family="Times,serif" font-size="14.00">(0.6586940705203177)</text>
</g>
<!-- 3&#45;&gt;4 -->
<g id="edge4" class="edge">
<title>3&#45;&gt;4</title>
<path fill="none" stroke="black" d="M2292.81,-455.94C2275.68,-453.11 2257.94,-450.52 2241.18,-448.7 1980.21,-420.33 1201.2,-398.3 880.99,-390.2"/>
<polygon fill="black" stroke="black" points="880.8,-386.69 870.72,-389.94 880.63,-393.69 880.8,-386.69"/>
</g>
<!-- 12 -->
<g id="node6" class="node">
<title>12</title>
<ellipse fill="none" stroke="black" cx="1939.18" cy="-385.83" rx="137.36" ry="26.74"/>
<text text-anchor="middle" x="1939.18" y="-389.63" font-family="Times,serif" font-size="14.00">unfold star_.</text>
<text text-anchor="middle" x="1939.18" y="-374.63" font-family="Times,serif" font-size="14.00">(0.07352261315210344)</text>
</g>
<!-- 3&#45;&gt;12 -->
<g id="edge5" class="edge">
<title>3&#45;&gt;12</title>
<path fill="none" stroke="black" d="M2292.72,-456.07C2219.87,-441.8 2119.18,-422.08 2043.88,-407.34"/>
<polygon fill="black" stroke="black" points="2044.38,-403.87 2033.9,-405.38 2043.04,-410.74 2044.38,-403.87"/>
</g>
<!-- 20 -->
<g id="node7" class="node">
<title>20</title>
<ellipse fill="orange" stroke="black" cx="2238.18" cy="-385.83" rx="143.59" ry="26.74"/>
<text text-anchor="middle" x="2238.18" y="-389.63" font-family="Times,serif" font-size="14.00">eauto.</text>
<text text-anchor="middle" x="2238.18" y="-374.63" font-family="Times,serif" font-size="14.00">(0.045165461976532914)</text>
</g>
<!-- 3&#45;&gt;20 -->
<g id="edge6" class="edge">
<title>3&#45;&gt;20</title>
<path fill="none" stroke="black" d="M2345.28,-449.9C2327.82,-439.62 2307.39,-427.59 2289.08,-416.8"/>
<polygon fill="black" stroke="black" points="2290.67,-413.68 2280.28,-411.62 2287.12,-419.71 2290.67,-413.68"/>
</g>
<!-- 21 -->
<g id="node8" class="node">
<title>21</title>
<ellipse fill="orange" stroke="black" cx="2537.18" cy="-385.83" rx="137.36" ry="26.74"/>
<text text-anchor="middle" x="2537.18" y="-389.63" font-family="Times,serif" font-size="14.00">simpl.</text>
<text text-anchor="middle" x="2537.18" y="-374.63" font-family="Times,serif" font-size="14.00">(0.04208958644577897)</text>
</g>
<!-- 3&#45;&gt;21 -->
<g id="edge7" class="edge">
<title>3&#45;&gt;21</title>
<path fill="none" stroke="black" d="M2429.36,-449.9C2447.01,-439.57 2467.68,-427.48 2486.17,-416.67"/>
<polygon fill="black" stroke="black" points="2488.19,-419.54 2495.05,-411.47 2484.65,-413.5 2488.19,-419.54"/>
</g>
<!-- 22 -->
<g id="node9" class="node">
<title>22</title>
<ellipse fill="none" stroke="black" cx="2836.18" cy="-385.83" rx="143.59" ry="26.74"/>
<text text-anchor="middle" x="2836.18" y="-389.63" font-family="Times,serif" font-size="14.00">destruct Gr.</text>
<text text-anchor="middle" x="2836.18" y="-374.63" font-family="Times,serif" font-size="14.00">(0.028782603392292893)</text>
</g>
<!-- 3&#45;&gt;22 -->
<g id="edge8" class="edge">
<title>3&#45;&gt;22</title>
<path fill="none" stroke="black" d="M2481.85,-456.07C2554.24,-441.92 2654.08,-422.42 2729.33,-407.71"/>
<polygon fill="black" stroke="black" points="2730.17,-411.11 2739.31,-405.76 2728.83,-404.24 2730.17,-411.11"/>
</g>
<!-- 29 -->
<g id="node10" class="node">
<title>29</title>
<ellipse fill="#9aff9a" stroke="black" cx="5127.18" cy="-385.83" rx="143.59" ry="26.74"/>
<text text-anchor="middle" x="5127.18" y="-389.63" font-family="Times,serif" font-size="14.00">unfold inv.</text>
<text text-anchor="middle" x="5127.18" y="-374.63" font-family="Times,serif" font-size="14.00">(0.008229639525294489)</text>
</g>
<!-- 3&#45;&gt;29 -->
<g id="edge9" class="edge">
<title>3&#45;&gt;29</title>
<path fill="none" stroke="black" d="M2522.12,-470.25C2982.95,-455.49 4492.54,-407.15 4976.46,-391.66"/>
<polygon fill="black" stroke="black" points="4976.77,-395.15 4986.66,-391.33 4976.55,-388.15 4976.77,-395.15"/>
</g>
<!-- 5 -->
<g id="node11" class="node">
<title>5</title>
<ellipse fill="orange" stroke="black" cx="137.18" cy="-296.09" rx="137.36" ry="26.74"/>
<text text-anchor="middle" x="137.18" y="-299.89" font-family="Times,serif" font-size="14.00">unfold G_.</text>
<text text-anchor="middle" x="137.18" y="-284.89" font-family="Times,serif" font-size="14.00">(0.23014639361119166)</text>
</g>
<!-- 4&#45;&gt;5 -->
<g id="edge10" class="edge">
<title>4&#45;&gt;5</title>
<path fill="none" stroke="black" d="M630.87,-371.22C537.98,-359.45 401.7,-341.46 283.18,-322.96 270.71,-321.02 257.67,-318.87 244.73,-316.66"/>
<polygon fill="black" stroke="black" points="245.31,-313.21 234.86,-314.97 244.13,-320.11 245.31,-313.21"/>
</g>
<!-- 6 -->
<g id="node12" class="node">
<title>6</title>
<ellipse fill="orange" stroke="black" cx="436.18" cy="-296.09" rx="143.59" ry="26.74"/>
<text text-anchor="middle" x="436.18" y="-299.89" font-family="Times,serif" font-size="14.00">unfold star_.</text>
<text text-anchor="middle" x="436.18" y="-284.89" font-family="Times,serif" font-size="14.00">(0.012435857214678256)</text>
</g>
<!-- 4&#45;&gt;6 -->
<g id="edge11" class="edge">
<title>4&#45;&gt;6</title>
<path fill="none" stroke="black" d="M667.35,-363.59C623.48,-350.97 567.66,-334.91 521.86,-321.74"/>
<polygon fill="black" stroke="black" points="522.83,-318.37 512.25,-318.97 520.89,-325.1 522.83,-318.37"/>
</g>
<!-- 7 -->
<g id="node13" class="node">
<title>7</title>
<ellipse fill="orange" stroke="black" cx="741.18" cy="-296.09" rx="143.59" ry="26.74"/>
<text text-anchor="middle" x="741.18" y="-299.89" font-family="Times,serif" font-size="14.00">unfold inv_.</text>
<text text-anchor="middle" x="741.18" y="-284.89" font-family="Times,serif" font-size="14.00">(0.009849147379210032)</text>
</g>
<!-- 4&#45;&gt;7 -->
<g id="edge12" class="edge">
<title>4&#45;&gt;7</title>
<path fill="none" stroke="black" d="M741.18,-358.51C741.18,-350.54 741.18,-341.65 741.18,-333.16"/>
<polygon fill="black" stroke="black" points="744.68,-333.09 741.18,-323.09 737.68,-333.09 744.68,-333.09"/>
</g>
<!-- 8 -->
<g id="node14" class="node">
<title>8</title>
<ellipse fill="none" stroke="black" cx="1046.18" cy="-296.09" rx="143.59" ry="26.74"/>
<text text-anchor="middle" x="1046.18" y="-299.89" font-family="Times,serif" font-size="14.00">destruct Gr.</text>
<text text-anchor="middle" x="1046.18" y="-284.89" font-family="Times,serif" font-size="14.00">(0.007063325004451957)</text>
</g>
<!-- 4&#45;&gt;8 -->
<g id="edge13" class="edge">
<title>4&#45;&gt;8</title>
<path fill="none" stroke="black" d="M815.01,-363.59C858.87,-350.97 914.7,-334.91 960.5,-321.74"/>
<polygon fill="black" stroke="black" points="961.47,-325.1 970.11,-318.97 959.53,-318.37 961.47,-325.1"/>
</g>
<!-- 13 -->
<g id="node18" class="node">
<title>13</title>
<ellipse fill="orange" stroke="black" cx="1345.18" cy="-296.09" rx="137.36" ry="26.74"/>
<text text-anchor="middle" x="1345.18" y="-299.89" font-family="Times,serif" font-size="14.00">unfold G_.</text>
<text text-anchor="middle" x="1345.18" y="-284.89" font-family="Times,serif" font-size="14.00">(0.23014639361119166)</text>
</g>
<!-- 12&#45;&gt;13 -->
<g id="edge17" class="edge">
<title>12&#45;&gt;13</title>
<path fill="none" stroke="black" d="M1826.23,-370.44C1735.54,-358.6 1605,-340.9 1491.18,-322.96 1478.94,-321.03 1466.14,-318.91 1453.43,-316.75"/>
<polygon fill="black" stroke="black" points="1453.71,-313.24 1443.26,-315 1452.52,-320.14 1453.71,-313.24"/>
</g>
<!-- 14 -->
<g id="node19" class="node">
<title>14</title>
<ellipse fill="orange" stroke="black" cx="1644.18" cy="-296.09" rx="143.59" ry="26.74"/>
<text text-anchor="middle" x="1644.18" y="-299.89" font-family="Times,serif" font-size="14.00">unfold star_.</text>
<text text-anchor="middle" x="1644.18" y="-284.89" font-family="Times,serif" font-size="14.00">(0.012435857214678256)</text>
</g>
<!-- 12&#45;&gt;14 -->
<g id="edge18" class="edge">
<title>12&#45;&gt;14</title>
<path fill="none" stroke="black" d="M1865.88,-363.03C1824.08,-350.6 1771.52,-334.97 1728.08,-322.04"/>
<polygon fill="black" stroke="black" points="1728.97,-318.66 1718.38,-319.16 1726.97,-325.37 1728.97,-318.66"/>
</g>
<!-- 15 -->
<g id="node20" class="node">
<title>15</title>
<ellipse fill="orange" stroke="black" cx="1949.18" cy="-296.09" rx="143.59" ry="26.74"/>
<text text-anchor="middle" x="1949.18" y="-299.89" font-family="Times,serif" font-size="14.00">unfold inv_.</text>
<text text-anchor="middle" x="1949.18" y="-284.89" font-family="Times,serif" font-size="14.00">(0.009849147379210032)</text>
</g>
<!-- 12&#45;&gt;15 -->
<g id="edge19" class="edge">
<title>12&#45;&gt;15</title>
<path fill="none" stroke="black" d="M1942.18,-358.51C1943.09,-350.54 1944.1,-341.65 1945.07,-333.16"/>
<polygon fill="black" stroke="black" points="1948.56,-333.43 1946.21,-323.09 1941.6,-332.63 1948.56,-333.43"/>
</g>
<!-- 16 -->
<g id="node21" class="node">
<title>16</title>
<ellipse fill="none" stroke="black" cx="2254.18" cy="-296.09" rx="143.59" ry="26.74"/>
<text text-anchor="middle" x="2254.18" y="-299.89" font-family="Times,serif" font-size="14.00">destruct Gr.</text>
<text text-anchor="middle" x="2254.18" y="-284.89" font-family="Times,serif" font-size="14.00">(0.007063325004451957)</text>
</g>
<!-- 12&#45;&gt;16 -->
<g id="edge20" class="edge">
<title>12&#45;&gt;16</title>
<path fill="none" stroke="black" d="M2015.83,-363.48C2061.31,-350.81 2119.13,-334.71 2166.43,-321.53"/>
<polygon fill="black" stroke="black" points="2167.66,-324.82 2176.36,-318.77 2165.79,-318.08 2167.66,-324.82"/>
</g>
<!-- 23 -->
<g id="node25" class="node">
<title>23</title>
<ellipse fill="orange" stroke="black" cx="2556.18" cy="-296.09" rx="130.63" ry="26.74"/>
<text text-anchor="middle" x="2556.18" y="-299.89" font-family="Times,serif" font-size="14.00">eauto.</text>
<text text-anchor="middle" x="2556.18" y="-284.89" font-family="Times,serif" font-size="14.00">(0.4955986092277068)</text>
</g>
<!-- 22&#45;&gt;23 -->
<g id="edge24" class="edge">
<title>22&#45;&gt;23</title>
<path fill="none" stroke="black" d="M2764.8,-362.46C2725.35,-350.1 2676.24,-334.71 2635.58,-321.97"/>
<polygon fill="black" stroke="black" points="2636.56,-318.61 2625.98,-318.96 2634.47,-325.29 2636.56,-318.61"/>
</g>
<!-- 24 -->
<g id="node26" class="node">
<title>24</title>
<ellipse fill="none" stroke="black" cx="2836.18" cy="-296.09" rx="130.63" ry="26.74"/>
<text text-anchor="middle" x="2836.18" y="-299.89" font-family="Times,serif" font-size="14.00">simpl.</text>
<text text-anchor="middle" x="2836.18" y="-284.89" font-family="Times,serif" font-size="14.00">(0.1593904981194492)</text>
</g>
<!-- 22&#45;&gt;24 -->
<g id="edge25" class="edge">
<title>22&#45;&gt;24</title>
<path fill="none" stroke="black" d="M2836.18,-358.51C2836.18,-350.54 2836.18,-341.65 2836.18,-333.16"/>
<polygon fill="black" stroke="black" points="2839.68,-333.09 2836.18,-323.09 2832.68,-333.09 2839.68,-333.09"/>
</g>
<!-- 28 -->
<g id="node27" class="node">
<title>28</title>
<ellipse fill="orange" stroke="black" cx="3122.18" cy="-296.09" rx="137.36" ry="26.74"/>
<text text-anchor="middle" x="3122.18" y="-299.89" font-family="Times,serif" font-size="14.00">try discriminate.</text>
<text text-anchor="middle" x="3122.18" y="-284.89" font-family="Times,serif" font-size="14.00">(0.06869033051059523)</text>
</g>
<!-- 22&#45;&gt;28 -->
<g id="edge26" class="edge">
<title>22&#45;&gt;28</title>
<path fill="none" stroke="black" d="M2908.72,-362.58C2948.86,-350.26 2998.87,-334.92 3040.4,-322.18"/>
<polygon fill="black" stroke="black" points="3041.68,-325.45 3050.21,-319.17 3039.63,-318.76 3041.68,-325.45"/>
</g>
<!-- 30 -->
<g id="node31" class="node">
<title>30</title>
<ellipse fill="none" stroke="black" cx="4044.18" cy="-296.09" rx="130.63" ry="26.74"/>
<text text-anchor="middle" x="4044.18" y="-299.89" font-family="Times,serif" font-size="14.00">unfold star_.</text>
<text text-anchor="middle" x="4044.18" y="-284.89" font-family="Times,serif" font-size="14.00">(0.5359799752271626)</text>
</g>
<!-- 29&#45;&gt;30 -->
<g id="edge30" class="edge">
<title>29&#45;&gt;30</title>
<path fill="none" stroke="black" d="M4997.35,-374.31C4789.13,-357.44 4382.8,-324.52 4174.35,-307.64"/>
<polygon fill="black" stroke="black" points="4174.52,-304.14 4164.27,-306.82 4173.96,-311.12 4174.52,-304.14"/>
</g>
<!-- 42 -->
<g id="node32" class="node">
<title>42</title>
<ellipse fill="orange" stroke="black" cx="4981.18" cy="-296.09" rx="137.36" ry="26.74"/>
<text text-anchor="middle" x="4981.18" y="-299.89" font-family="Times,serif" font-size="14.00">simpl.</text>
<text text-anchor="middle" x="4981.18" y="-284.89" font-family="Times,serif" font-size="14.00">(0.19408799584262626)</text>
</g>
<!-- 29&#45;&gt;42 -->
<g id="edge31" class="edge">
<title>29&#45;&gt;42</title>
<path fill="none" stroke="black" d="M5085.73,-359.92C5068.63,-349.65 5048.68,-337.65 5030.81,-326.91"/>
<polygon fill="black" stroke="black" points="5032.6,-323.91 5022.22,-321.76 5028.99,-329.91 5032.6,-323.91"/>
</g>
<!-- 43 -->
<g id="node33" class="node">
<title>43</title>
<ellipse fill="none" stroke="black" cx="5273.18" cy="-296.09" rx="137.36" ry="26.74"/>
<text text-anchor="middle" x="5273.18" y="-299.89" font-family="Times,serif" font-size="14.00">unfold star_.</text>
<text text-anchor="middle" x="5273.18" y="-284.89" font-family="Times,serif" font-size="14.00">(0.05982538632145971)</text>
</g>
<!-- 29&#45;&gt;43 -->
<g id="edge32" class="edge">
<title>29&#45;&gt;43</title>
<path fill="none" stroke="black" d="M5168.63,-359.92C5185.72,-349.65 5205.68,-337.65 5223.55,-326.91"/>
<polygon fill="black" stroke="black" points="5225.36,-329.91 5232.13,-321.76 5221.76,-323.91 5225.36,-329.91"/>
</g>
<!-- 55 -->
<g id="node34" class="node">
<title>55</title>
<ellipse fill="orange" stroke="black" cx="5565.18" cy="-296.09" rx="137.36" ry="26.74"/>
<text text-anchor="middle" x="5565.18" y="-299.89" font-family="Times,serif" font-size="14.00">eauto.</text>
<text text-anchor="middle" x="5565.18" y="-284.89" font-family="Times,serif" font-size="14.00">(0.04528987749919432)</text>
</g>
<!-- 29&#45;&gt;55 -->
<g id="edge33" class="edge">
<title>29&#45;&gt;55</title>
<path fill="none" stroke="black" d="M5222.49,-365.74C5293.03,-351.61 5389.05,-332.37 5461.51,-317.86"/>
<polygon fill="black" stroke="black" points="5462.45,-321.24 5471.57,-315.84 5461.08,-314.37 5462.45,-321.24"/>
</g>
<!-- 56 -->
<g id="node35" class="node">
<title>56</title>
<ellipse fill="#9aff9a" stroke="black" cx="7119.18" cy="-296.09" rx="137.36" ry="26.74"/>
<text text-anchor="middle" x="7119.18" y="-299.89" font-family="Times,serif" font-size="14.00">destruct Gr.</text>
<text text-anchor="middle" x="7119.18" y="-284.89" font-family="Times,serif" font-size="14.00">(0.02425419220754099)</text>
</g>
<!-- 29&#45;&gt;56 -->
<g id="edge34" class="edge">
<title>29&#45;&gt;56</title>
<path fill="none" stroke="black" d="M5265.67,-378.73C5629.2,-362.72 6607.93,-319.61 6976.33,-303.38"/>
<polygon fill="black" stroke="black" points="6976.68,-306.87 6986.51,-302.93 6976.37,-299.88 6976.68,-306.87"/>
</g>
<!-- 9 -->
<g id="node15" class="node">
<title>9</title>
<ellipse fill="orange" stroke="black" cx="760.18" cy="-206.35" rx="130.63" ry="26.74"/>
<text text-anchor="middle" x="760.18" y="-210.15" font-family="Times,serif" font-size="14.00">eauto.</text>
<text text-anchor="middle" x="760.18" y="-195.15" font-family="Times,serif" font-size="14.00">(0.6045173031069236)</text>
</g>
<!-- 8&#45;&gt;9 -->
<g id="edge14" class="edge">
<title>8&#45;&gt;9</title>
<path fill="none" stroke="black" d="M973.64,-272.84C933.11,-260.4 882.51,-244.88 840.75,-232.07"/>
<polygon fill="black" stroke="black" points="841.74,-228.71 831.16,-229.13 839.69,-235.4 841.74,-228.71"/>
</g>
<!-- 10 -->
<g id="node16" class="node">
<title>10</title>
<ellipse fill="orange" stroke="black" cx="1046.18" cy="-206.35" rx="137.36" ry="26.74"/>
<text text-anchor="middle" x="1046.18" y="-210.15" font-family="Times,serif" font-size="14.00">simpl.</text>
<text text-anchor="middle" x="1046.18" y="-195.15" font-family="Times,serif" font-size="14.00">(0.07529908767981905)</text>
</g>
<!-- 8&#45;&gt;10 -->
<g id="edge15" class="edge">
<title>8&#45;&gt;10</title>
<path fill="none" stroke="black" d="M1046.18,-268.77C1046.18,-260.8 1046.18,-251.91 1046.18,-243.42"/>
<polygon fill="black" stroke="black" points="1049.68,-243.35 1046.18,-233.35 1042.68,-243.35 1049.68,-243.35"/>
</g>
<!-- 11 -->
<g id="node17" class="node">
<title>11</title>
<ellipse fill="orange" stroke="black" cx="1345.18" cy="-206.35" rx="143.59" ry="26.74"/>
<text text-anchor="middle" x="1345.18" y="-210.15" font-family="Times,serif" font-size="14.00">try discriminate.</text>
<text text-anchor="middle" x="1345.18" y="-195.15" font-family="Times,serif" font-size="14.00">(0.036087841235407044)</text>
</g>
<!-- 8&#45;&gt;11 -->
<g id="edge16" class="edge">
<title>8&#45;&gt;11</title>
<path fill="none" stroke="black" d="M1121.24,-273.06C1163.62,-260.63 1216.71,-245.05 1260.56,-232.18"/>
<polygon fill="black" stroke="black" points="1261.73,-235.48 1270.34,-229.31 1259.76,-228.77 1261.73,-235.48"/>
</g>
<!-- 17 -->
<g id="node22" class="node">
<title>17</title>
<ellipse fill="orange" stroke="black" cx="1679.18" cy="-206.35" rx="130.63" ry="26.74"/>
<text text-anchor="middle" x="1679.18" y="-210.15" font-family="Times,serif" font-size="14.00">eauto.</text>
<text text-anchor="middle" x="1679.18" y="-195.15" font-family="Times,serif" font-size="14.00">(0.6045173031069236)</text>
</g>
<!-- 16&#45;&gt;17 -->
<g id="edge21" class="edge">
<title>16&#45;&gt;17</title>
<path fill="none" stroke="black" d="M2152.07,-277.11C2135.41,-274.35 2118.33,-271.62 2102.18,-269.22 1976.77,-250.58 1944.46,-252.75 1819.18,-233.22 1807.23,-231.36 1794.74,-229.26 1782.34,-227.09"/>
<polygon fill="black" stroke="black" points="1782.89,-223.63 1772.43,-225.34 1781.67,-230.53 1782.89,-223.63"/>
</g>
<!-- 18 -->
<g id="node23" class="node">
<title>18</title>
<ellipse fill="orange" stroke="black" cx="1965.18" cy="-206.35" rx="137.36" ry="26.74"/>
<text text-anchor="middle" x="1965.18" y="-210.15" font-family="Times,serif" font-size="14.00">simpl.</text>
<text text-anchor="middle" x="1965.18" y="-195.15" font-family="Times,serif" font-size="14.00">(0.07529908767981905)</text>
</g>
<!-- 16&#45;&gt;18 -->
<g id="edge22" class="edge">
<title>16&#45;&gt;18</title>
<path fill="none" stroke="black" d="M2180.88,-272.84C2140.08,-260.45 2089.18,-245 2047.07,-232.21"/>
<polygon fill="black" stroke="black" points="2047.99,-228.83 2037.4,-229.28 2045.95,-235.53 2047.99,-228.83"/>
</g>
<!-- 19 -->
<g id="node24" class="node">
<title>19</title>
<ellipse fill="orange" stroke="black" cx="2264.18" cy="-206.35" rx="143.59" ry="26.74"/>
<text text-anchor="middle" x="2264.18" y="-210.15" font-family="Times,serif" font-size="14.00">try discriminate.</text>
<text text-anchor="middle" x="2264.18" y="-195.15" font-family="Times,serif" font-size="14.00">(0.036087841235407044)</text>
</g>
<!-- 16&#45;&gt;19 -->
<g id="edge23" class="edge">
<title>16&#45;&gt;19</title>
<path fill="none" stroke="black" d="M2257.18,-268.77C2258.09,-260.8 2259.1,-251.91 2260.07,-243.42"/>
<polygon fill="black" stroke="black" points="2263.56,-243.69 2261.21,-233.35 2256.6,-242.89 2263.56,-243.69"/>
</g>
<!-- 25 -->
<g id="node28" class="node">
<title>25</title>
<ellipse fill="orange" stroke="black" cx="2556.18" cy="-206.35" rx="130.63" ry="26.74"/>
<text text-anchor="middle" x="2556.18" y="-210.15" font-family="Times,serif" font-size="14.00">eauto.</text>
<text text-anchor="middle" x="2556.18" y="-195.15" font-family="Times,serif" font-size="14.00">(0.6424842140703554)</text>
</g>
<!-- 24&#45;&gt;25 -->
<g id="edge27" class="edge">
<title>24&#45;&gt;25</title>
<path fill="none" stroke="black" d="M2766.61,-273.29C2726.87,-260.84 2676.9,-245.18 2635.63,-232.25"/>
<polygon fill="black" stroke="black" points="2636.47,-228.84 2625.88,-229.19 2634.38,-235.52 2636.47,-228.84"/>
</g>
<!-- 26 -->
<g id="node29" class="node">
<title>26</title>
<ellipse fill="orange" stroke="black" cx="2836.18" cy="-206.35" rx="130.63" ry="26.74"/>
<text text-anchor="middle" x="2836.18" y="-210.15" font-family="Times,serif" font-size="14.00">try easy.</text>
<text text-anchor="middle" x="2836.18" y="-195.15" font-family="Times,serif" font-size="14.00">(0.2515452370194189)</text>
</g>
<!-- 24&#45;&gt;26 -->
<g id="edge28" class="edge">
<title>24&#45;&gt;26</title>
<path fill="none" stroke="black" d="M2836.18,-268.77C2836.18,-260.8 2836.18,-251.91 2836.18,-243.42"/>
<polygon fill="black" stroke="black" points="2839.68,-243.35 2836.18,-233.35 2832.68,-243.35 2839.68,-243.35"/>
</g>
<!-- 27 -->
<g id="node30" class="node">
<title>27</title>
<ellipse fill="orange" stroke="black" cx="3135.18" cy="-206.35" rx="149.81" ry="26.74"/>
<text text-anchor="middle" x="3135.18" y="-210.15" font-family="Times,serif" font-size="14.00">f_equal.</text>
<text text-anchor="middle" x="3135.18" y="-195.15" font-family="Times,serif" font-size="14.00">(0.0038894979435976375)</text>
</g>
<!-- 24&#45;&gt;27 -->
<g id="edge29" class="edge">
<title>24&#45;&gt;27</title>
<path fill="none" stroke="black" d="M2908.94,-273.74C2951.46,-261.26 3005.33,-245.45 3049.84,-232.39"/>
<polygon fill="black" stroke="black" points="3050.87,-235.74 3059.48,-229.56 3048.9,-229.02 3050.87,-235.74"/>
</g>
<!-- 31 -->
<g id="node36" class="node">
<title>31</title>
<ellipse fill="orange" stroke="black" cx="3440.18" cy="-206.35" rx="137.36" ry="26.74"/>
<text text-anchor="middle" x="3440.18" y="-210.15" font-family="Times,serif" font-size="14.00">unfold G_.</text>
<text text-anchor="middle" x="3440.18" y="-195.15" font-family="Times,serif" font-size="14.00">(0.23106388031383276)</text>
</g>
<!-- 30&#45;&gt;31 -->
<g id="edge35" class="edge">
<title>30&#45;&gt;31</title>
<path fill="none" stroke="black" d="M3933.87,-281.48C3840.98,-269.71 3704.7,-251.72 3586.18,-233.22 3573.71,-231.27 3560.67,-229.13 3547.73,-226.92"/>
<polygon fill="black" stroke="black" points="3548.31,-223.47 3537.86,-225.23 3547.13,-230.37 3548.31,-223.47"/>
</g>
<!-- 32 -->
<g id="node37" class="node">
<title>32</title>
<ellipse fill="orange" stroke="black" cx="3739.18" cy="-206.35" rx="143.59" ry="26.74"/>
<text text-anchor="middle" x="3739.18" y="-210.15" font-family="Times,serif" font-size="14.00">unfold star_.</text>
<text text-anchor="middle" x="3739.18" y="-195.15" font-family="Times,serif" font-size="14.00">(0.012485428732250076)</text>
</g>
<!-- 30&#45;&gt;32 -->
<g id="edge36" class="edge">
<title>30&#45;&gt;32</title>
<path fill="none" stroke="black" d="M3970.35,-273.85C3926.48,-261.23 3870.66,-245.17 3824.86,-232"/>
<polygon fill="black" stroke="black" points="3825.83,-228.63 3815.25,-229.23 3823.89,-235.36 3825.83,-228.63"/>
</g>
<!-- 33 -->
<g id="node38" class="node">
<title>33</title>
<ellipse fill="none" stroke="black" cx="4044.18" cy="-206.35" rx="143.59" ry="26.74"/>
<text text-anchor="middle" x="4044.18" y="-210.15" font-family="Times,serif" font-size="14.00">unfold inv_.</text>
<text text-anchor="middle" x="4044.18" y="-195.15" font-family="Times,serif" font-size="14.00">(0.009888417246025122)</text>
</g>
<!-- 30&#45;&gt;33 -->
<g id="edge37" class="edge">
<title>30&#45;&gt;33</title>
<path fill="none" stroke="black" d="M4044.18,-268.77C4044.18,-260.8 4044.18,-251.91 4044.18,-243.42"/>
<polygon fill="black" stroke="black" points="4047.68,-243.35 4044.18,-233.35 4040.68,-243.35 4047.68,-243.35"/>
</g>
<!-- 38 -->
<g id="node39" class="node">
<title>38</title>
<ellipse fill="none" stroke="black" cx="4549.18" cy="-206.35" rx="137.36" ry="26.74"/>
<text text-anchor="middle" x="4549.18" y="-210.15" font-family="Times,serif" font-size="14.00">destruct Gr.</text>
<text text-anchor="middle" x="4549.18" y="-195.15" font-family="Times,serif" font-size="14.00">(0.00662723116689414)</text>
</g>
<!-- 30&#45;&gt;38 -->
<g id="edge38" class="edge">
<title>30&#45;&gt;38</title>
<path fill="none" stroke="black" d="M4141.85,-278.12C4226.88,-263.35 4350.07,-241.94 4438.69,-226.55"/>
<polygon fill="black" stroke="black" points="4439.52,-229.96 4448.77,-224.8 4438.32,-223.06 4439.52,-229.96"/>
</g>
<!-- 44 -->
<g id="node47" class="node">
<title>44</title>
<ellipse fill="orange" stroke="black" cx="4974.18" cy="-206.35" rx="137.36" ry="26.74"/>
<text text-anchor="middle" x="4974.18" y="-210.15" font-family="Times,serif" font-size="14.00">unfold G_.</text>
<text text-anchor="middle" x="4974.18" y="-195.15" font-family="Times,serif" font-size="14.00">(0.23106388031383276)</text>
</g>
<!-- 43&#45;&gt;44 -->
<g id="edge46" class="edge">
<title>43&#45;&gt;44</title>
<path fill="none" stroke="black" d="M5199.27,-273.4C5156.33,-260.8 5102.11,-244.89 5057.64,-231.84"/>
<polygon fill="black" stroke="black" points="5058.6,-228.47 5048.02,-229.02 5056.63,-235.19 5058.6,-228.47"/>
</g>
<!-- 45 -->
<g id="node48" class="node">
<title>45</title>
<ellipse fill="orange" stroke="black" cx="5273.18" cy="-206.35" rx="143.59" ry="26.74"/>
<text text-anchor="middle" x="5273.18" y="-210.15" font-family="Times,serif" font-size="14.00">unfold star_.</text>
<text text-anchor="middle" x="5273.18" y="-195.15" font-family="Times,serif" font-size="14.00">(0.012485428732250076)</text>
</g>
<!-- 43&#45;&gt;45 -->
<g id="edge47" class="edge">
<title>43&#45;&gt;45</title>
<path fill="none" stroke="black" d="M5273.18,-268.77C5273.18,-260.8 5273.18,-251.91 5273.18,-243.42"/>
<polygon fill="black" stroke="black" points="5276.68,-243.35 5273.18,-233.35 5269.68,-243.35 5276.68,-243.35"/>
</g>
<!-- 46 -->
<g id="node49" class="node">
<title>46</title>
<ellipse fill="none" stroke="black" cx="5578.18" cy="-206.35" rx="143.59" ry="26.74"/>
<text text-anchor="middle" x="5578.18" y="-210.15" font-family="Times,serif" font-size="14.00">unfold inv_.</text>
<text text-anchor="middle" x="5578.18" y="-195.15" font-family="Times,serif" font-size="14.00">(0.009888417246025122)</text>
</g>
<!-- 43&#45;&gt;46 -->
<g id="edge48" class="edge">
<title>43&#45;&gt;46</title>
<path fill="none" stroke="black" d="M5348.18,-273.51C5391.81,-260.96 5446.96,-245.1 5492.32,-232.05"/>
<polygon fill="black" stroke="black" points="5493.5,-235.35 5502.14,-229.22 5491.56,-228.63 5493.5,-235.35"/>
</g>
<!-- 51 -->
<g id="node50" class="node">
<title>51</title>
<ellipse fill="none" stroke="black" cx="6547.18" cy="-206.35" rx="137.36" ry="26.74"/>
<text text-anchor="middle" x="6547.18" y="-210.15" font-family="Times,serif" font-size="14.00">destruct Gr.</text>
<text text-anchor="middle" x="6547.18" y="-195.15" font-family="Times,serif" font-size="14.00">(0.00662723116689414)</text>
</g>
<!-- 43&#45;&gt;51 -->
<g id="edge49" class="edge">
<title>43&#45;&gt;51</title>
<path fill="none" stroke="black" d="M5367.96,-276.59C5384.96,-273.76 5402.56,-271.14 5419.18,-269.22 5769.91,-228.68 6185.15,-214.56 6400.75,-209.75"/>
<polygon fill="black" stroke="black" points="6400.94,-213.25 6410.86,-209.53 6400.79,-206.25 6400.94,-213.25"/>
</g>
<!-- 57 -->
<g id="node58" class="node">
<title>57</title>
<ellipse fill="orange" stroke="black" cx="7119.18" cy="-206.35" rx="137.36" ry="26.74"/>
<text text-anchor="middle" x="7119.18" y="-210.15" font-family="Times,serif" font-size="14.00">eauto.</text>
<text text-anchor="middle" x="7119.18" y="-195.15" font-family="Times,serif" font-size="14.00">(0.49693265454966445)</text>
</g>
<!-- 56&#45;&gt;57 -->
<g id="edge57" class="edge">
<title>56&#45;&gt;57</title>
<path fill="none" stroke="black" d="M7119.18,-268.77C7119.18,-260.8 7119.18,-251.91 7119.18,-243.42"/>
<polygon fill="black" stroke="black" points="7122.68,-243.35 7119.18,-233.35 7115.68,-243.35 7122.68,-243.35"/>
</g>
<!-- 58 -->
<g id="node59" class="node">
<title>58</title>
<ellipse fill="#9aff9a" stroke="black" cx="7551.18" cy="-206.35" rx="137.36" ry="26.74"/>
<text text-anchor="middle" x="7551.18" y="-210.15" font-family="Times,serif" font-size="14.00">simpl.</text>
<text text-anchor="middle" x="7551.18" y="-195.15" font-family="Times,serif" font-size="14.00">(0.16002005755155543)</text>
</g>
<!-- 56&#45;&gt;58 -->
<g id="edge58" class="edge">
<title>56&#45;&gt;58</title>
<path fill="none" stroke="black" d="M7211.85,-276.27C7281.35,-262.15 7376.46,-242.84 7448.31,-228.24"/>
<polygon fill="black" stroke="black" points="7449.18,-231.64 7458.29,-226.22 7447.79,-224.78 7449.18,-231.64"/>
</g>
<!-- 34 -->
<g id="node40" class="node">
<title>34</title>
<ellipse fill="orange" stroke="black" cx="3142.18" cy="-116.61" rx="130.63" ry="26.74"/>
<text text-anchor="middle" x="3142.18" y="-120.41" font-family="Times,serif" font-size="14.00">unfold G_.</text>
<text text-anchor="middle" x="3142.18" y="-105.41" font-family="Times,serif" font-size="14.00">(0.2304159963101597)</text>
</g>
<!-- 33&#45;&gt;34 -->
<g id="edge39" class="edge">
<title>33&#45;&gt;34</title>
<path fill="none" stroke="black" d="M3945.06,-186.87C3927.49,-184.05 3909.33,-181.44 3892.18,-179.48 3621.91,-148.61 3551.2,-176.43 3281.18,-143.48 3268.56,-141.94 3255.35,-139.96 3242.32,-137.79"/>
<polygon fill="black" stroke="black" points="3242.84,-134.33 3232.4,-136.1 3241.67,-141.23 3242.84,-134.33"/>
</g>
<!-- 35 -->
<g id="node41" class="node">
<title>35</title>
<ellipse fill="orange" stroke="black" cx="3434.18" cy="-116.61" rx="143.59" ry="26.74"/>
<text text-anchor="middle" x="3434.18" y="-120.41" font-family="Times,serif" font-size="14.00">unfold star_.</text>
<text text-anchor="middle" x="3434.18" y="-105.41" font-family="Times,serif" font-size="14.00">(0.012450423591460195)</text>
</g>
<!-- 33&#45;&gt;35 -->
<g id="edge40" class="edge">
<title>33&#45;&gt;35</title>
<path fill="none" stroke="black" d="M3942.5,-187.3C3925.71,-184.53 3908.47,-181.82 3892.18,-179.48 3756.64,-159.99 3721.72,-162.97 3586.18,-143.48 3573.07,-141.59 3559.34,-139.47 3545.74,-137.27"/>
<polygon fill="black" stroke="black" points="3546.29,-133.82 3535.86,-135.66 3545.16,-140.73 3546.29,-133.82"/>
</g>
<!-- 36 -->
<g id="node42" class="node">
<title>36</title>
<ellipse fill="orange" stroke="black" cx="3739.18" cy="-116.61" rx="143.59" ry="26.74"/>
<text text-anchor="middle" x="3739.18" y="-120.41" font-family="Times,serif" font-size="14.00">unfold inv_.</text>
<text text-anchor="middle" x="3739.18" y="-105.41" font-family="Times,serif" font-size="14.00">(0.009860683889257532)</text>
</g>
<!-- 33&#45;&gt;36 -->
<g id="edge41" class="edge">
<title>33&#45;&gt;36</title>
<path fill="none" stroke="black" d="M3968,-183.44C3924.52,-170.93 3869.89,-155.21 3824.91,-142.27"/>
<polygon fill="black" stroke="black" points="3825.76,-138.87 3815.18,-139.47 3823.82,-145.6 3825.76,-138.87"/>
</g>
<!-- 37 -->
<g id="node43" class="node">
<title>37</title>
<ellipse fill="none" stroke="black" cx="4044.18" cy="-116.61" rx="143.59" ry="26.74"/>
<text text-anchor="middle" x="4044.18" y="-120.41" font-family="Times,serif" font-size="14.00">destruct Gr.</text>
<text text-anchor="middle" x="4044.18" y="-105.41" font-family="Times,serif" font-size="14.00">(0.006928105204541152)</text>
</g>
<!-- 33&#45;&gt;37 -->
<g id="edge42" class="edge">
<title>33&#45;&gt;37</title>
<path fill="none" stroke="black" d="M4044.18,-179.03C4044.18,-171.06 4044.18,-162.17 4044.18,-153.68"/>
<polygon fill="black" stroke="black" points="4047.68,-153.61 4044.18,-143.61 4040.68,-153.61 4047.68,-153.61"/>
</g>
<!-- 39 -->
<g id="node44" class="node">
<title>39</title>
<ellipse fill="none" stroke="black" cx="4336.18" cy="-116.61" rx="130.63" ry="26.74"/>
<text text-anchor="middle" x="4336.18" y="-120.41" font-family="Times,serif" font-size="14.00">simpl.</text>
<text text-anchor="middle" x="4336.18" y="-105.41" font-family="Times,serif" font-size="14.00">(0.5933236682480498)</text>
</g>
<!-- 38&#45;&gt;39 -->
<g id="edge43" class="edge">
<title>38&#45;&gt;39</title>
<path fill="none" stroke="black" d="M4492.1,-181.84C4464.42,-170.44 4431.02,-156.68 4402.24,-144.82"/>
<polygon fill="black" stroke="black" points="4403.26,-141.46 4392.68,-140.88 4400.59,-147.93 4403.26,-141.46"/>
</g>
<!-- 40 -->
<g id="node45" class="node">
<title>40</title>
<ellipse fill="orange" stroke="black" cx="4622.18" cy="-116.61" rx="137.36" ry="26.74"/>
<text text-anchor="middle" x="4622.18" y="-120.41" font-family="Times,serif" font-size="14.00">eauto.</text>
<text text-anchor="middle" x="4622.18" y="-105.41" font-family="Times,serif" font-size="14.00">(0.24970230222417525)</text>
</g>
<!-- 38&#45;&gt;40 -->
<g id="edge44" class="edge">
<title>38&#45;&gt;40</title>
<path fill="none" stroke="black" d="M4570.69,-179.5C4578.11,-170.57 4586.54,-160.45 4594.4,-151"/>
<polygon fill="black" stroke="black" points="4597.12,-153.2 4600.82,-143.28 4591.74,-148.72 4597.12,-153.2"/>
</g>
<!-- 41 -->
<g id="node46" class="node">
<title>41</title>
<ellipse fill="orange" stroke="black" cx="4921.18" cy="-116.61" rx="143.59" ry="26.74"/>
<text text-anchor="middle" x="4921.18" y="-120.41" font-family="Times,serif" font-size="14.00">try discriminate.</text>
<text text-anchor="middle" x="4921.18" y="-105.41" font-family="Times,serif" font-size="14.00">(0.004010840405184076)</text>
</g>
<!-- 38&#45;&gt;41 -->
<g id="edge45" class="edge">
<title>38&#45;&gt;41</title>
<path fill="none" stroke="black" d="M4634.52,-185.22C4691.1,-171.88 4765.45,-154.34 4824.25,-140.47"/>
<polygon fill="black" stroke="black" points="4825.37,-143.8 4834.3,-138.1 4823.76,-136.99 4825.37,-143.8"/>
</g>
<!-- 47 -->
<g id="node51" class="node">
<title>47</title>
<ellipse fill="orange" stroke="black" cx="5213.18" cy="-116.61" rx="130.63" ry="26.74"/>
<text text-anchor="middle" x="5213.18" y="-120.41" font-family="Times,serif" font-size="14.00">unfold G_.</text>
<text text-anchor="middle" x="5213.18" y="-105.41" font-family="Times,serif" font-size="14.00">(0.2304159963101597)</text>
</g>
<!-- 46&#45;&gt;47 -->
<g id="edge50" class="edge">
<title>46&#45;&gt;47</title>
<path fill="none" stroke="black" d="M5492.14,-184.67C5436.06,-171.19 5362.91,-153.6 5305.6,-139.83"/>
<polygon fill="black" stroke="black" points="5306.36,-136.41 5295.81,-137.47 5304.72,-143.21 5306.36,-136.41"/>
</g>
<!-- 48 -->
<g id="node52" class="node">
<title>48</title>
<ellipse fill="orange" stroke="black" cx="5505.18" cy="-116.61" rx="143.59" ry="26.74"/>
<text text-anchor="middle" x="5505.18" y="-120.41" font-family="Times,serif" font-size="14.00">unfold star_.</text>
<text text-anchor="middle" x="5505.18" y="-105.41" font-family="Times,serif" font-size="14.00">(0.012450423591460195)</text>
</g>
<!-- 46&#45;&gt;48 -->
<g id="edge51" class="edge">
<title>46&#45;&gt;48</title>
<path fill="none" stroke="black" d="M5556.67,-179.5C5549.25,-170.57 5540.82,-160.45 5532.96,-151"/>
<polygon fill="black" stroke="black" points="5535.62,-148.72 5526.53,-143.28 5530.24,-153.2 5535.62,-148.72"/>
</g>
<!-- 49 -->
<g id="node53" class="node">
<title>49</title>
<ellipse fill="orange" stroke="black" cx="5810.18" cy="-116.61" rx="143.59" ry="26.74"/>
<text text-anchor="middle" x="5810.18" y="-120.41" font-family="Times,serif" font-size="14.00">unfold inv_.</text>
<text text-anchor="middle" x="5810.18" y="-105.41" font-family="Times,serif" font-size="14.00">(0.009860683889257532)</text>
</g>
<!-- 46&#45;&gt;49 -->
<g id="edge52" class="edge">
<title>46&#45;&gt;49</title>
<path fill="none" stroke="black" d="M5639.74,-182.07C5670.16,-170.57 5707.03,-156.62 5738.68,-144.65"/>
<polygon fill="black" stroke="black" points="5740.21,-147.81 5748.33,-141 5737.74,-141.27 5740.21,-147.81"/>
</g>
<!-- 50 -->
<g id="node54" class="node">
<title>50</title>
<ellipse fill="none" stroke="black" cx="6115.18" cy="-116.61" rx="143.59" ry="26.74"/>
<text text-anchor="middle" x="6115.18" y="-120.41" font-family="Times,serif" font-size="14.00">destruct Gr.</text>
<text text-anchor="middle" x="6115.18" y="-105.41" font-family="Times,serif" font-size="14.00">(0.006928105204541152)</text>
</g>
<!-- 46&#45;&gt;50 -->
<g id="edge53" class="edge">
<title>46&#45;&gt;50</title>
<path fill="none" stroke="black" d="M5685.27,-188.41C5762.54,-176.13 5869.34,-159.01 5963.18,-143.48 5975.7,-141.41 5988.8,-139.22 6001.83,-137.02"/>
<polygon fill="black" stroke="black" points="6002.49,-140.46 6011.77,-135.34 6001.33,-133.56 6002.49,-140.46"/>
</g>
<!-- 52 -->
<g id="node55" class="node">
<title>52</title>
<ellipse fill="none" stroke="black" cx="6407.18" cy="-116.61" rx="130.63" ry="26.74"/>
<text text-anchor="middle" x="6407.18" y="-120.41" font-family="Times,serif" font-size="14.00">simpl.</text>
<text text-anchor="middle" x="6407.18" y="-105.41" font-family="Times,serif" font-size="14.00">(0.5933236682480498)</text>
</g>
<!-- 51&#45;&gt;52 -->
<g id="edge54" class="edge">
<title>51&#45;&gt;52</title>
<path fill="none" stroke="black" d="M6507.43,-180.44C6491.19,-170.26 6472.25,-158.39 6455.24,-147.73"/>
<polygon fill="black" stroke="black" points="6456.87,-144.62 6446.54,-142.28 6453.15,-150.55 6456.87,-144.62"/>
</g>
<!-- 53 -->
<g id="node56" class="node">
<title>53</title>
<ellipse fill="orange" stroke="black" cx="6693.18" cy="-116.61" rx="137.36" ry="26.74"/>
<text text-anchor="middle" x="6693.18" y="-120.41" font-family="Times,serif" font-size="14.00">eauto.</text>
<text text-anchor="middle" x="6693.18" y="-105.41" font-family="Times,serif" font-size="14.00">(0.24970230222417525)</text>
</g>
<!-- 51&#45;&gt;53 -->
<g id="edge55" class="edge">
<title>51&#45;&gt;53</title>
<path fill="none" stroke="black" d="M6588.24,-180.68C6605.34,-170.4 6625.36,-158.37 6643.3,-147.58"/>
<polygon fill="black" stroke="black" points="6645.15,-150.55 6651.92,-142.4 6641.55,-144.55 6645.15,-150.55"/>
</g>
<!-- 54 -->
<g id="node57" class="node">
<title>54</title>
<ellipse fill="orange" stroke="black" cx="6992.18" cy="-116.61" rx="143.59" ry="26.74"/>
<text text-anchor="middle" x="6992.18" y="-120.41" font-family="Times,serif" font-size="14.00">try discriminate.</text>
<text text-anchor="middle" x="6992.18" y="-105.41" font-family="Times,serif" font-size="14.00">(0.004010840405184076)</text>
</g>
<!-- 51&#45;&gt;54 -->
<g id="edge56" class="edge">
<title>51&#45;&gt;54</title>
<path fill="none" stroke="black" d="M6641.28,-186.8C6712.92,-172.67 6811.57,-153.22 6886.03,-138.54"/>
<polygon fill="black" stroke="black" points="6886.77,-141.96 6895.91,-136.59 6885.42,-135.09 6886.77,-141.96"/>
</g>
<!-- 59 -->
<g id="node60" class="node">
<title>59</title>
<ellipse fill="orange" stroke="black" cx="7278.18" cy="-116.61" rx="124.4" ry="26.74"/>
<text text-anchor="middle" x="7278.18" y="-120.41" font-family="Times,serif" font-size="14.00">eauto.</text>
<text text-anchor="middle" x="7278.18" y="-105.41" font-family="Times,serif" font-size="14.00">(0.643985004531735)</text>
</g>
<!-- 58&#45;&gt;59 -->
<g id="edge59" class="edge">
<title>58&#45;&gt;59</title>
<path fill="none" stroke="black" d="M7481.94,-183.1C7443.26,-170.67 7394.99,-155.15 7355.14,-142.34"/>
<polygon fill="black" stroke="black" points="7356.05,-138.96 7345.46,-139.23 7353.91,-145.63 7356.05,-138.96"/>
</g>
<!-- 60 -->
<g id="node61" class="node">
<title>60</title>
<ellipse fill="orange" stroke="black" cx="7551.18" cy="-116.61" rx="130.63" ry="26.74"/>
<text text-anchor="middle" x="7551.18" y="-120.41" font-family="Times,serif" font-size="14.00">try easy.</text>
<text text-anchor="middle" x="7551.18" y="-105.41" font-family="Times,serif" font-size="14.00">(0.2521328486170476)</text>
</g>
<!-- 58&#45;&gt;60 -->
<g id="edge60" class="edge">
<title>58&#45;&gt;60</title>
<path fill="none" stroke="black" d="M7551.18,-179.03C7551.18,-171.06 7551.18,-162.17 7551.18,-153.68"/>
<polygon fill="black" stroke="black" points="7554.68,-153.61 7551.18,-143.61 7547.68,-153.61 7554.68,-153.61"/>
</g>
<!-- 61 -->
<g id="node62" class="node">
<title>61</title>
<ellipse fill="orange" stroke="black" cx="7850.18" cy="-116.61" rx="149.81" ry="26.74"/>
<text text-anchor="middle" x="7850.18" y="-120.41" font-family="Times,serif" font-size="14.00">f_equal.</text>
<text text-anchor="middle" x="7850.18" y="-105.41" font-family="Times,serif" font-size="14.00">(0.0038985833757954422)</text>
</g>
<!-- 58&#45;&gt;61 -->
<g id="edge61" class="edge">
<title>58&#45;&gt;61</title>
<path fill="none" stroke="black" d="M7625.09,-183.66C7667.37,-171.25 7720.6,-155.63 7764.68,-142.7"/>
<polygon fill="black" stroke="black" points="7765.91,-145.99 7774.52,-139.81 7763.94,-139.27 7765.91,-145.99"/>
</g>
<!-- 62 -->
<g id="node63" class="node">
<title>62</title>
<ellipse fill="#9aff9a" stroke="black" cx="8168.18" cy="-116.61" rx="149.81" ry="26.74"/>
<text text-anchor="middle" x="8168.18" y="-120.41" font-family="Times,serif" font-size="14.00">congruence.</text>
<text text-anchor="middle" x="8168.18" y="-105.41" font-family="Times,serif" font-size="14.00">(0.0034226766039341565)</text>
</g>
<!-- 58&#45;&gt;62 -->
<g id="edge62" class="edge">
<title>58&#45;&gt;62</title>
<path fill="none" stroke="black" d="M7664.23,-190.94C7757,-178.91 7891.72,-160.97 8009.18,-143.48 8022.65,-141.48 8036.74,-139.3 8050.74,-137.08"/>
<polygon fill="black" stroke="black" points="8051.58,-140.5 8060.9,-135.47 8050.48,-133.58 8051.58,-140.5"/>
</g>
<!-- 63 -->
<g id="node64" class="node">
<title>63</title>
<ellipse fill="green" stroke="black" cx="8168.18" cy="-26.87" rx="35.21" ry="26.74"/>
<text text-anchor="middle" x="8168.18" y="-30.67" font-family="Times,serif" font-size="14.00">QED</text>
<text text-anchor="middle" x="8168.18" y="-15.67" font-family="Times,serif" font-size="14.00">(1.0)</text>
</g>
<!-- 62&#45;&gt;63 -->
<g id="edge63" class="edge">
<title>62&#45;&gt;63</title>
<path fill="none" stroke="black" d="M8168.18,-89.29C8168.18,-81.32 8168.18,-72.43 8168.18,-63.94"/>
<polygon fill="green" stroke="black" points="8171.68,-63.87 8168.18,-53.87 8164.68,-63.87 8171.68,-63.87"/>
</g>
</g>
</svg>
