<?xml version="1.0" encoding="UTF-8" standalone="no"?>
<!DOCTYPE svg PUBLIC "-//W3C//DTD SVG 1.1//EN"
 "http://www.w3.org/Graphics/SVG/1.1/DTD/svg11.dtd">
<!-- Generated by graphviz version 2.43.0 (0)
 -->
<!-- Pages: 1 -->
<svg width="3217pt" height="510pt"
 viewBox="0.00 0.00 3217.11 510.44" xmlns="http://www.w3.org/2000/svg" xmlns:xlink="http://www.w3.org/1999/xlink">
<g id="graph0" class="graph" transform="scale(1 1) rotate(0) translate(4 506.44)">
<polygon fill="white" stroke="transparent" points="-4,4 -4,-506.44 3213.11,-506.44 3213.11,4 -4,4"/>
<!-- 0 -->
<g id="node1" class="node">
<title>0</title>
<ellipse fill="none" stroke="black" cx="858.81" cy="-475.57" rx="72.25" ry="26.74"/>
<text text-anchor="middle" x="858.81" y="-479.37" font-family="Times,serif" font-size="14.00">cancellation</text>
<text text-anchor="middle" x="858.81" y="-464.37" font-family="Times,serif" font-size="14.00">(1.0)</text>
</g>
<!-- 1 -->
<g id="node2" class="node">
<title>1</title>
<ellipse fill="none" stroke="black" cx="423.81" cy="-385.83" rx="130.63" ry="26.74"/>
<text text-anchor="middle" x="423.81" y="-389.63" font-family="Times,serif" font-size="14.00">intros.</text>
<text text-anchor="middle" x="423.81" y="-374.63" font-family="Times,serif" font-size="14.00">(0.8091403408619512)</text>
</g>
<!-- 0&#45;&gt;1 -->
<g id="edge1" class="edge">
<title>0&#45;&gt;1</title>
<path fill="none" stroke="black" d="M796.49,-462C725.53,-447.69 608.6,-424.1 524.63,-407.16"/>
<polygon fill="black" stroke="black" points="525.31,-403.73 514.81,-405.19 523.93,-410.59 525.31,-403.73"/>
</g>
<!-- 7 -->
<g id="node3" class="node">
<title>7</title>
<ellipse fill="orange" stroke="black" cx="712.81" cy="-385.83" rx="137.36" ry="26.74"/>
<text text-anchor="middle" x="712.81" y="-389.63" font-family="Times,serif" font-size="14.00">simpl.</text>
<text text-anchor="middle" x="712.81" y="-374.63" font-family="Times,serif" font-size="14.00">(0.09363906790035614)</text>
</g>
<!-- 0&#45;&gt;7 -->
<g id="edge2" class="edge">
<title>0&#45;&gt;7</title>
<path fill="none" stroke="black" d="M821.97,-452.43C804.03,-441.64 782.18,-428.51 762.75,-416.84"/>
<polygon fill="black" stroke="black" points="764.4,-413.75 754.02,-411.6 760.79,-419.75 764.4,-413.75"/>
</g>
<!-- 8 -->
<g id="node4" class="node">
<title>8</title>
<ellipse fill="orange" stroke="black" cx="1004.81" cy="-385.83" rx="137.36" ry="26.74"/>
<text text-anchor="middle" x="1004.81" y="-389.63" font-family="Times,serif" font-size="14.00">eauto.</text>
<text text-anchor="middle" x="1004.81" y="-374.63" font-family="Times,serif" font-size="14.00">(0.08043557549306696)</text>
</g>
<!-- 0&#45;&gt;8 -->
<g id="edge3" class="edge">
<title>0&#45;&gt;8</title>
<path fill="none" stroke="black" d="M895.66,-452.43C913.6,-441.64 935.45,-428.51 954.88,-416.84"/>
<polygon fill="black" stroke="black" points="956.84,-419.75 963.61,-411.6 953.23,-413.75 956.84,-419.75"/>
</g>
<!-- 9 -->
<g id="node5" class="node">
<title>9</title>
<ellipse fill="none" stroke="black" cx="1448.81" cy="-385.83" rx="143.59" ry="26.74"/>
<text text-anchor="middle" x="1448.81" y="-389.63" font-family="Times,serif" font-size="14.00">unfold star.</text>
<text text-anchor="middle" x="1448.81" y="-374.63" font-family="Times,serif" font-size="14.00">(0.005738881262298861)</text>
</g>
<!-- 0&#45;&gt;9 -->
<g id="edge4" class="edge">
<title>0&#45;&gt;9</title>
<path fill="none" stroke="black" d="M925.06,-464.72C1022.71,-450.2 1206.86,-422.81 1328.71,-404.69"/>
<polygon fill="black" stroke="black" points="1329.46,-408.12 1338.83,-403.19 1328.43,-401.2 1329.46,-408.12"/>
</g>
<!-- 2 -->
<g id="node6" class="node">
<title>2</title>
<ellipse fill="orange" stroke="black" cx="131.81" cy="-296.09" rx="130.63" ry="26.74"/>
<text text-anchor="middle" x="131.81" y="-299.89" font-family="Times,serif" font-size="14.00">eauto.</text>
<text text-anchor="middle" x="131.81" y="-284.89" font-family="Times,serif" font-size="14.00">(0.7807464146129901)</text>
</g>
<!-- 1&#45;&gt;2 -->
<g id="edge5" class="edge">
<title>1&#45;&gt;2</title>
<path fill="none" stroke="black" d="M352.01,-363.25C310.01,-350.64 256.87,-334.67 213.31,-321.58"/>
<polygon fill="black" stroke="black" points="214.18,-318.18 203.6,-318.66 212.17,-324.89 214.18,-318.18"/>
</g>
<!-- 3 -->
<g id="node7" class="node">
<title>3</title>
<ellipse fill="none" stroke="black" cx="423.81" cy="-296.09" rx="143.59" ry="26.74"/>
<text text-anchor="middle" x="423.81" y="-299.89" font-family="Times,serif" font-size="14.00">destruct Gr.</text>
<text text-anchor="middle" x="423.81" y="-284.89" font-family="Times,serif" font-size="14.00">(0.010694258531549173)</text>
</g>
<!-- 1&#45;&gt;3 -->
<g id="edge6" class="edge">
<title>1&#45;&gt;3</title>
<path fill="none" stroke="black" d="M423.81,-358.51C423.81,-350.54 423.81,-341.65 423.81,-333.16"/>
<polygon fill="black" stroke="black" points="427.31,-333.09 423.81,-323.09 420.31,-333.09 427.31,-333.09"/>
</g>
<!-- 10 -->
<g id="node11" class="node">
<title>10</title>
<ellipse fill="none" stroke="black" cx="1162.81" cy="-296.09" rx="130.63" ry="26.74"/>
<text text-anchor="middle" x="1162.81" y="-299.89" font-family="Times,serif" font-size="14.00">intros.</text>
<text text-anchor="middle" x="1162.81" y="-284.89" font-family="Times,serif" font-size="14.00">(0.8557175809349941)</text>
</g>
<!-- 9&#45;&gt;10 -->
<g id="edge10" class="edge">
<title>9&#45;&gt;10</title>
<path fill="none" stroke="black" d="M1376.28,-362.58C1335.74,-350.14 1285.14,-334.62 1243.38,-321.81"/>
<polygon fill="black" stroke="black" points="1244.38,-318.45 1233.79,-318.87 1242.33,-325.14 1244.38,-318.45"/>
</g>
<!-- 16 -->
<g id="node12" class="node">
<title>16</title>
<ellipse fill="orange" stroke="black" cx="1448.81" cy="-296.09" rx="137.36" ry="26.74"/>
<text text-anchor="middle" x="1448.81" y="-299.89" font-family="Times,serif" font-size="14.00">eauto.</text>
<text text-anchor="middle" x="1448.81" y="-284.89" font-family="Times,serif" font-size="14.00">(0.09409944956336651)</text>
</g>
<!-- 9&#45;&gt;16 -->
<g id="edge11" class="edge">
<title>9&#45;&gt;16</title>
<path fill="none" stroke="black" d="M1448.81,-358.51C1448.81,-350.54 1448.81,-341.65 1448.81,-333.16"/>
<polygon fill="black" stroke="black" points="1452.31,-333.09 1448.81,-323.09 1445.31,-333.09 1452.31,-333.09"/>
</g>
<!-- 17 -->
<g id="node13" class="node">
<title>17</title>
<ellipse fill="orange" stroke="black" cx="1740.81" cy="-296.09" rx="137.36" ry="26.74"/>
<text text-anchor="middle" x="1740.81" y="-299.89" font-family="Times,serif" font-size="14.00">simpl.</text>
<text text-anchor="middle" x="1740.81" y="-284.89" font-family="Times,serif" font-size="14.00">(0.03734402335558177)</text>
</g>
<!-- 9&#45;&gt;17 -->
<g id="edge12" class="edge">
<title>9&#45;&gt;17</title>
<path fill="none" stroke="black" d="M1522.5,-362.69C1563.88,-350.26 1615.63,-334.71 1658.35,-321.87"/>
<polygon fill="black" stroke="black" points="1659.6,-325.15 1668.17,-318.92 1657.58,-318.45 1659.6,-325.15"/>
</g>
<!-- 18 -->
<g id="node14" class="node">
<title>18</title>
<ellipse fill="none" stroke="black" cx="2275.81" cy="-296.09" rx="149.81" ry="26.74"/>
<text text-anchor="middle" x="2275.81" y="-299.89" font-family="Times,serif" font-size="14.00">unfold star_.</text>
<text text-anchor="middle" x="2275.81" y="-284.89" font-family="Times,serif" font-size="14.00">(0.0063280012973092655)</text>
</g>
<!-- 9&#45;&gt;18 -->
<g id="edge13" class="edge">
<title>9&#45;&gt;18</title>
<path fill="none" stroke="black" d="M1571.73,-371.79C1723.52,-355.69 1980.94,-328.37 2138.91,-311.62"/>
<polygon fill="black" stroke="black" points="2139.59,-315.06 2149.17,-310.53 2138.85,-308.1 2139.59,-315.06"/>
</g>
<!-- 4 -->
<g id="node8" class="node">
<title>4</title>
<ellipse fill="orange" stroke="black" cx="130.81" cy="-206.35" rx="130.63" ry="26.74"/>
<text text-anchor="middle" x="130.81" y="-210.15" font-family="Times,serif" font-size="14.00">eauto.</text>
<text text-anchor="middle" x="130.81" y="-195.15" font-family="Times,serif" font-size="14.00">(0.6989691139048101)</text>
</g>
<!-- 3&#45;&gt;4 -->
<g id="edge7" class="edge">
<title>3&#45;&gt;4</title>
<path fill="none" stroke="black" d="M349.88,-272.95C307.95,-260.4 255.42,-244.66 212.31,-231.76"/>
<polygon fill="black" stroke="black" points="213.29,-228.39 202.7,-228.88 211.28,-235.1 213.29,-228.39"/>
</g>
<!-- 5 -->
<g id="node9" class="node">
<title>5</title>
<ellipse fill="orange" stroke="black" cx="422.81" cy="-206.35" rx="143.59" ry="26.74"/>
<text text-anchor="middle" x="422.81" y="-210.15" font-family="Times,serif" font-size="14.00">try discriminate.</text>
<text text-anchor="middle" x="422.81" y="-195.15" font-family="Times,serif" font-size="14.00">(0.014585854431537303)</text>
</g>
<!-- 3&#45;&gt;5 -->
<g id="edge8" class="edge">
<title>3&#45;&gt;5</title>
<path fill="none" stroke="black" d="M423.51,-268.77C423.42,-260.8 423.32,-251.91 423.23,-243.42"/>
<polygon fill="black" stroke="black" points="426.72,-243.31 423.11,-233.35 419.73,-243.39 426.72,-243.31"/>
</g>
<!-- 6 -->
<g id="node10" class="node">
<title>6</title>
<ellipse fill="orange" stroke="black" cx="727.81" cy="-206.35" rx="143.59" ry="26.74"/>
<text text-anchor="middle" x="727.81" y="-210.15" font-family="Times,serif" font-size="14.00">try reflexivity.</text>
<text text-anchor="middle" x="727.81" y="-195.15" font-family="Times,serif" font-size="14.00">(0.014304720662532572)</text>
</g>
<!-- 3&#45;&gt;6 -->
<g id="edge9" class="edge">
<title>3&#45;&gt;6</title>
<path fill="none" stroke="black" d="M499.74,-273.18C543.08,-260.67 597.53,-244.95 642.36,-232.01"/>
<polygon fill="black" stroke="black" points="643.43,-235.35 652.06,-229.21 641.49,-228.62 643.43,-235.35"/>
</g>
<!-- 11 -->
<g id="node15" class="node">
<title>11</title>
<ellipse fill="orange" stroke="black" cx="1019.81" cy="-206.35" rx="130.63" ry="26.74"/>
<text text-anchor="middle" x="1019.81" y="-210.15" font-family="Times,serif" font-size="14.00">eauto.</text>
<text text-anchor="middle" x="1019.81" y="-195.15" font-family="Times,serif" font-size="14.00">(0.7820985157690558)</text>
</g>
<!-- 10&#45;&gt;11 -->
<g id="edge14" class="edge">
<title>10&#45;&gt;11</title>
<path fill="none" stroke="black" d="M1122.6,-270.42C1106,-260.23 1086.59,-248.32 1069.14,-237.62"/>
<polygon fill="black" stroke="black" points="1070.58,-234.39 1060.22,-232.14 1066.92,-240.36 1070.58,-234.39"/>
</g>
<!-- 12 -->
<g id="node16" class="node">
<title>12</title>
<ellipse fill="none" stroke="black" cx="1305.81" cy="-206.35" rx="137.36" ry="26.74"/>
<text text-anchor="middle" x="1305.81" y="-210.15" font-family="Times,serif" font-size="14.00">destruct Gr.</text>
<text text-anchor="middle" x="1305.81" y="-195.15" font-family="Times,serif" font-size="14.00">(0.01071277523876669)</text>
</g>
<!-- 10&#45;&gt;12 -->
<g id="edge15" class="edge">
<title>10&#45;&gt;12</title>
<path fill="none" stroke="black" d="M1203.03,-270.42C1219.63,-260.23 1239.04,-248.32 1256.49,-237.62"/>
<polygon fill="black" stroke="black" points="1258.71,-240.36 1265.41,-232.14 1255.05,-234.39 1258.71,-240.36"/>
</g>
<!-- 19 -->
<g id="node20" class="node">
<title>19</title>
<ellipse fill="none" stroke="black" cx="1828.81" cy="-206.35" rx="130.63" ry="26.74"/>
<text text-anchor="middle" x="1828.81" y="-210.15" font-family="Times,serif" font-size="14.00">intros.</text>
<text text-anchor="middle" x="1828.81" y="-195.15" font-family="Times,serif" font-size="14.00">(0.9896317985466719)</text>
</g>
<!-- 18&#45;&gt;19 -->
<g id="edge19" class="edge">
<title>18&#45;&gt;19</title>
<path fill="none" stroke="black" d="M2177.44,-275.78C2104.53,-261.47 2005.4,-242.01 1931.48,-227.5"/>
<polygon fill="black" stroke="black" points="1931.71,-223.98 1921.22,-225.49 1930.36,-230.85 1931.71,-223.98"/>
</g>
<!-- 25 -->
<g id="node21" class="node">
<title>25</title>
<ellipse fill="orange" stroke="black" cx="2120.81" cy="-206.35" rx="143.59" ry="26.74"/>
<text text-anchor="middle" x="2120.81" y="-210.15" font-family="Times,serif" font-size="14.00">eauto.</text>
<text text-anchor="middle" x="2120.81" y="-195.15" font-family="Times,serif" font-size="14.00">(0.004625368454038315)</text>
</g>
<!-- 18&#45;&gt;25 -->
<g id="edge20" class="edge">
<title>18&#45;&gt;25</title>
<path fill="none" stroke="black" d="M2231.81,-270.18C2213.58,-259.86 2192.28,-247.8 2173.24,-237.03"/>
<polygon fill="black" stroke="black" points="2174.82,-233.9 2164.39,-232.02 2171.37,-239.99 2174.82,-233.9"/>
</g>
<!-- 26 -->
<g id="node22" class="node">
<title>26</title>
<ellipse fill="orange" stroke="black" cx="2431.81" cy="-206.35" rx="149.81" ry="26.74"/>
<text text-anchor="middle" x="2431.81" y="-210.15" font-family="Times,serif" font-size="14.00">unfold G_.</text>
<text text-anchor="middle" x="2431.81" y="-195.15" font-family="Times,serif" font-size="14.00">(0.0006072060082140089)</text>
</g>
<!-- 18&#45;&gt;26 -->
<g id="edge21" class="edge">
<title>18&#45;&gt;26</title>
<path fill="none" stroke="black" d="M2320.1,-270.18C2338.38,-259.9 2359.71,-247.91 2378.8,-237.17"/>
<polygon fill="black" stroke="black" points="2380.69,-240.12 2387.69,-232.17 2377.26,-234.02 2380.69,-240.12"/>
</g>
<!-- 27 -->
<g id="node23" class="node">
<title>27</title>
<ellipse fill="orange" stroke="black" cx="2755.81" cy="-206.35" rx="156.04" ry="26.74"/>
<text text-anchor="middle" x="2755.81" y="-210.15" font-family="Times,serif" font-size="14.00">unfold star_.</text>
<text text-anchor="middle" x="2755.81" y="-195.15" font-family="Times,serif" font-size="14.00">(0.00010601410163420528)</text>
</g>
<!-- 18&#45;&gt;27 -->
<g id="edge22" class="edge">
<title>18&#45;&gt;27</title>
<path fill="none" stroke="black" d="M2378.2,-276.38C2455.43,-262.26 2561.38,-242.89 2641.4,-228.26"/>
<polygon fill="black" stroke="black" points="2642.31,-231.66 2651.52,-226.41 2641.05,-224.77 2642.31,-231.66"/>
</g>
<!-- 28 -->
<g id="node24" class="node">
<title>28</title>
<ellipse fill="orange" stroke="black" cx="3069.81" cy="-206.35" rx="139.1" ry="26.74"/>
<text text-anchor="middle" x="3069.81" y="-210.15" font-family="Times,serif" font-size="14.00">unfold inv_.</text>
<text text-anchor="middle" x="3069.81" y="-195.15" font-family="Times,serif" font-size="14.00">(8.77119332750617e&#45;05)</text>
</g>
<!-- 18&#45;&gt;28 -->
<g id="edge23" class="edge">
<title>18&#45;&gt;28</title>
<path fill="none" stroke="black" d="M2412.68,-285.01C2543.49,-274.65 2746.06,-256.74 2920.81,-233.22 2934.11,-231.43 2948.03,-229.33 2961.81,-227.1"/>
<polygon fill="black" stroke="black" points="2962.5,-230.53 2971.8,-225.46 2961.36,-223.63 2962.5,-230.53"/>
</g>
<!-- 13 -->
<g id="node17" class="node">
<title>13</title>
<ellipse fill="orange" stroke="black" cx="939.81" cy="-116.61" rx="130.63" ry="26.74"/>
<text text-anchor="middle" x="939.81" y="-120.41" font-family="Times,serif" font-size="14.00">eauto.</text>
<text text-anchor="middle" x="939.81" y="-105.41" font-family="Times,serif" font-size="14.00">(0.6597451460256656)</text>
</g>
<!-- 12&#45;&gt;13 -->
<g id="edge16" class="edge">
<title>12&#45;&gt;13</title>
<path fill="none" stroke="black" d="M1221.39,-185.11C1164.91,-171.57 1090.58,-153.75 1032.47,-139.82"/>
<polygon fill="black" stroke="black" points="1033.1,-136.37 1022.56,-137.45 1031.46,-143.18 1033.1,-136.37"/>
</g>
<!-- 14 -->
<g id="node18" class="node">
<title>14</title>
<ellipse fill="none" stroke="black" cx="1231.81" cy="-116.61" rx="143.59" ry="26.74"/>
<text text-anchor="middle" x="1231.81" y="-120.41" font-family="Times,serif" font-size="14.00">simpl in H.</text>
<text text-anchor="middle" x="1231.81" y="-105.41" font-family="Times,serif" font-size="14.00">(0.019090079927191115)</text>
</g>
<!-- 12&#45;&gt;14 -->
<g id="edge17" class="edge">
<title>12&#45;&gt;14</title>
<path fill="none" stroke="black" d="M1284.01,-179.5C1276.49,-170.57 1267.94,-160.45 1259.98,-151"/>
<polygon fill="black" stroke="black" points="1262.58,-148.66 1253.46,-143.28 1257.23,-153.18 1262.58,-148.66"/>
</g>
<!-- 15 -->
<g id="node19" class="node">
<title>15</title>
<ellipse fill="orange" stroke="black" cx="1536.81" cy="-116.61" rx="143.59" ry="26.74"/>
<text text-anchor="middle" x="1536.81" y="-120.41" font-family="Times,serif" font-size="14.00">try discriminate.</text>
<text text-anchor="middle" x="1536.81" y="-105.41" font-family="Times,serif" font-size="14.00">(0.013767346260456446)</text>
</g>
<!-- 12&#45;&gt;15 -->
<g id="edge18" class="edge">
<title>12&#45;&gt;15</title>
<path fill="none" stroke="black" d="M1366.81,-182.18C1397.21,-170.63 1434.16,-156.6 1465.83,-144.57"/>
<polygon fill="black" stroke="black" points="1467.37,-147.73 1475.48,-140.91 1464.89,-141.19 1467.37,-147.73"/>
</g>
<!-- 20 -->
<g id="node25" class="node">
<title>20</title>
<ellipse fill="orange" stroke="black" cx="1828.81" cy="-116.61" rx="130.63" ry="26.74"/>
<text text-anchor="middle" x="1828.81" y="-120.41" font-family="Times,serif" font-size="14.00">eauto.</text>
<text text-anchor="middle" x="1828.81" y="-105.41" font-family="Times,serif" font-size="14.00">(0.7850820555337861)</text>
</g>
<!-- 19&#45;&gt;20 -->
<g id="edge24" class="edge">
<title>19&#45;&gt;20</title>
<path fill="none" stroke="black" d="M1828.81,-179.03C1828.81,-171.06 1828.81,-162.17 1828.81,-153.68"/>
<polygon fill="black" stroke="black" points="1832.31,-153.61 1828.81,-143.61 1825.31,-153.61 1832.31,-153.61"/>
</g>
<!-- 21 -->
<g id="node26" class="node">
<title>21</title>
<ellipse fill="none" stroke="black" cx="2120.81" cy="-116.61" rx="143.59" ry="26.74"/>
<text text-anchor="middle" x="2120.81" y="-120.41" font-family="Times,serif" font-size="14.00">destruct Gr.</text>
<text text-anchor="middle" x="2120.81" y="-105.41" font-family="Times,serif" font-size="14.00">(0.010753642361764475)</text>
</g>
<!-- 19&#45;&gt;21 -->
<g id="edge25" class="edge">
<title>19&#45;&gt;21</title>
<path fill="none" stroke="black" d="M1900.62,-183.77C1942.07,-171.32 1994.38,-155.6 2037.61,-142.61"/>
<polygon fill="black" stroke="black" points="2038.68,-145.94 2047.25,-139.71 2036.67,-139.24 2038.68,-145.94"/>
</g>
<!-- 22 -->
<g id="node27" class="node">
<title>22</title>
<ellipse fill="orange" stroke="black" cx="1828.81" cy="-26.87" rx="130.63" ry="26.74"/>
<text text-anchor="middle" x="1828.81" y="-30.67" font-family="Times,serif" font-size="14.00">eauto.</text>
<text text-anchor="middle" x="1828.81" y="-15.67" font-family="Times,serif" font-size="14.00">(0.6989884035870362)</text>
</g>
<!-- 21&#45;&gt;22 -->
<g id="edge26" class="edge">
<title>21&#45;&gt;22</title>
<path fill="none" stroke="black" d="M2047.13,-93.47C2005.35,-80.92 1953,-65.18 1910.03,-52.27"/>
<polygon fill="black" stroke="black" points="1911.04,-48.92 1900.46,-49.4 1909.03,-55.63 1911.04,-48.92"/>
</g>
<!-- 23 -->
<g id="node28" class="node">
<title>23</title>
<ellipse fill="orange" stroke="black" cx="2120.81" cy="-26.87" rx="143.59" ry="26.74"/>
<text text-anchor="middle" x="2120.81" y="-30.67" font-family="Times,serif" font-size="14.00">try discriminate.</text>
<text text-anchor="middle" x="2120.81" y="-15.67" font-family="Times,serif" font-size="14.00">(0.014586257831603477)</text>
</g>
<!-- 21&#45;&gt;23 -->
<g id="edge27" class="edge">
<title>21&#45;&gt;23</title>
<path fill="none" stroke="black" d="M2120.81,-89.29C2120.81,-81.32 2120.81,-72.43 2120.81,-63.94"/>
<polygon fill="black" stroke="black" points="2124.31,-63.87 2120.81,-53.87 2117.31,-63.87 2124.31,-63.87"/>
</g>
<!-- 24 -->
<g id="node29" class="node">
<title>24</title>
<ellipse fill="orange" stroke="black" cx="2425.81" cy="-26.87" rx="143.59" ry="26.74"/>
<text text-anchor="middle" x="2425.81" y="-30.67" font-family="Times,serif" font-size="14.00">try reflexivity.</text>
<text text-anchor="middle" x="2425.81" y="-15.67" font-family="Times,serif" font-size="14.00">(0.014305116287299633)</text>
</g>
<!-- 21&#45;&gt;24 -->
<g id="edge28" class="edge">
<title>21&#45;&gt;24</title>
<path fill="none" stroke="black" d="M2196.99,-93.7C2240.47,-81.19 2295.1,-65.47 2340.08,-52.53"/>
<polygon fill="black" stroke="black" points="2341.17,-55.86 2349.82,-49.73 2339.24,-49.13 2341.17,-55.86"/>
</g>
</g>
</svg>
