<?xml version="1.0" encoding="UTF-8" standalone="no"?>
<!DOCTYPE svg PUBLIC "-//W3C//DTD SVG 1.1//EN"
 "http://www.w3.org/Graphics/SVG/1.1/DTD/svg11.dtd">
<!-- Generated by graphviz version 2.43.0 (0)
 -->
<!-- Pages: 1 -->
<svg width="4636pt" height="869pt"
 viewBox="0.00 0.00 4636.36 869.40" xmlns="http://www.w3.org/2000/svg" xmlns:xlink="http://www.w3.org/1999/xlink">
<g id="graph0" class="graph" transform="scale(1 1) rotate(0) translate(4 865.4)">
<polygon fill="white" stroke="transparent" points="-4,4 -4,-865.4 4632.36,-865.4 4632.36,4 -4,4"/>
<!-- 0 -->
<g id="node1" class="node">
<title>0</title>
<ellipse fill="none" stroke="black" cx="1698.81" cy="-834.53" rx="96.33" ry="26.74"/>
<text text-anchor="middle" x="1698.81" y="-838.33" font-family="Times,serif" font-size="14.00">technical_lemma</text>
<text text-anchor="middle" x="1698.81" y="-823.33" font-family="Times,serif" font-size="14.00">(1.0)</text>
</g>
<!-- 1 -->
<g id="node2" class="node">
<title>1</title>
<ellipse fill="#9aff9a" stroke="black" cx="1698.81" cy="-744.79" rx="130.63" ry="26.74"/>
<text text-anchor="middle" x="1698.81" y="-748.59" font-family="Times,serif" font-size="14.00">intros.</text>
<text text-anchor="middle" x="1698.81" y="-733.59" font-family="Times,serif" font-size="14.00">(0.9947232969207779)</text>
</g>
<!-- 0&#45;&gt;1 -->
<g id="edge1" class="edge">
<title>0&#45;&gt;1</title>
<path fill="none" stroke="black" d="M1698.81,-807.21C1698.81,-799.24 1698.81,-790.35 1698.81,-781.86"/>
<polygon fill="black" stroke="black" points="1702.31,-781.79 1698.81,-771.79 1695.31,-781.8 1702.31,-781.79"/>
</g>
<!-- 2 -->
<g id="node3" class="node">
<title>2</title>
<ellipse fill="orange" stroke="black" cx="1406.81" cy="-655.05" rx="130.63" ry="26.74"/>
<text text-anchor="middle" x="1406.81" y="-658.85" font-family="Times,serif" font-size="14.00">eauto.</text>
<text text-anchor="middle" x="1406.81" y="-643.85" font-family="Times,serif" font-size="14.00">(0.8255397262750449)</text>
</g>
<!-- 1&#45;&gt;2 -->
<g id="edge2" class="edge">
<title>1&#45;&gt;2</title>
<path fill="none" stroke="black" d="M1627.01,-722.21C1585.01,-709.6 1531.87,-693.63 1488.31,-680.54"/>
<polygon fill="black" stroke="black" points="1489.18,-677.15 1478.6,-677.62 1487.17,-683.85 1489.18,-677.15"/>
</g>
<!-- 3 -->
<g id="node4" class="node">
<title>3</title>
<ellipse fill="none" stroke="black" cx="1698.81" cy="-655.05" rx="143.59" ry="26.74"/>
<text text-anchor="middle" x="1698.81" y="-658.85" font-family="Times,serif" font-size="14.00">unfold Init.Nat.add.</text>
<text text-anchor="middle" x="1698.81" y="-643.85" font-family="Times,serif" font-size="14.00">(0.024885706995410845)</text>
</g>
<!-- 1&#45;&gt;3 -->
<g id="edge3" class="edge">
<title>1&#45;&gt;3</title>
<path fill="none" stroke="black" d="M1698.81,-717.47C1698.81,-709.5 1698.81,-700.61 1698.81,-692.12"/>
<polygon fill="black" stroke="black" points="1702.31,-692.05 1698.81,-682.05 1695.31,-692.05 1702.31,-692.05"/>
</g>
<!-- 52 -->
<g id="node5" class="node">
<title>52</title>
<ellipse fill="#9aff9a" stroke="black" cx="2583.81" cy="-655.05" rx="143.59" ry="26.74"/>
<text text-anchor="middle" x="2583.81" y="-658.85" font-family="Times,serif" font-size="14.00">simpl.</text>
<text text-anchor="middle" x="2583.81" y="-643.85" font-family="Times,serif" font-size="14.00">(0.024605539510138733)</text>
</g>
<!-- 1&#45;&gt;52 -->
<g id="edge4" class="edge">
<title>1&#45;&gt;52</title>
<path fill="none" stroke="black" d="M1814.97,-732.28C1978.42,-716.07 2275.65,-686.6 2448.76,-669.44"/>
<polygon fill="black" stroke="black" points="2449.35,-672.9 2458.96,-668.43 2448.66,-665.93 2449.35,-672.9"/>
</g>
<!-- 4 -->
<g id="node6" class="node">
<title>4</title>
<ellipse fill="none" stroke="black" cx="416.81" cy="-565.31" rx="130.63" ry="26.74"/>
<text text-anchor="middle" x="416.81" y="-569.11" font-family="Times,serif" font-size="14.00">simpl.</text>
<text text-anchor="middle" x="416.81" y="-554.11" font-family="Times,serif" font-size="14.00">(0.8430924490446943)</text>
</g>
<!-- 3&#45;&gt;4 -->
<g id="edge5" class="edge">
<title>3&#45;&gt;4</title>
<path fill="none" stroke="black" d="M1599.7,-635.51C1582.13,-632.7 1563.97,-630.1 1546.81,-628.18 1358.47,-607.07 812.25,-582.64 554.51,-571.88"/>
<polygon fill="black" stroke="black" points="554.48,-568.38 544.34,-571.46 554.19,-575.37 554.48,-568.38"/>
</g>
<!-- 7 -->
<g id="node7" class="node">
<title>7</title>
<ellipse fill="none" stroke="black" cx="1268.81" cy="-565.31" rx="143.59" ry="26.74"/>
<text text-anchor="middle" x="1268.81" y="-569.11" font-family="Times,serif" font-size="14.00">destruct m.</text>
<text text-anchor="middle" x="1268.81" y="-554.11" font-family="Times,serif" font-size="14.00">(0.004610265315220844)</text>
</g>
<!-- 3&#45;&gt;7 -->
<g id="edge6" class="edge">
<title>3&#45;&gt;7</title>
<path fill="none" stroke="black" d="M1604.45,-634.8C1536.09,-620.85 1443.68,-601.99 1373.14,-587.6"/>
<polygon fill="black" stroke="black" points="1373.83,-584.17 1363.33,-585.6 1372.43,-591.03 1373.83,-584.17"/>
</g>
<!-- 28 -->
<g id="node8" class="node">
<title>28</title>
<ellipse fill="orange" stroke="black" cx="1698.81" cy="-565.31" rx="149.81" ry="26.74"/>
<text text-anchor="middle" x="1698.81" y="-569.11" font-family="Times,serif" font-size="14.00">eauto.</text>
<text text-anchor="middle" x="1698.81" y="-554.11" font-family="Times,serif" font-size="14.00">(0.0019249591494514557)</text>
</g>
<!-- 3&#45;&gt;28 -->
<g id="edge7" class="edge">
<title>3&#45;&gt;28</title>
<path fill="none" stroke="black" d="M1698.81,-627.73C1698.81,-619.76 1698.81,-610.87 1698.81,-602.38"/>
<polygon fill="black" stroke="black" points="1702.31,-602.31 1698.81,-592.31 1695.31,-602.31 1702.31,-602.31"/>
</g>
<!-- 29 -->
<g id="node9" class="node">
<title>29</title>
<ellipse fill="none" stroke="black" cx="2135.81" cy="-565.31" rx="149.81" ry="26.74"/>
<text text-anchor="middle" x="2135.81" y="-569.11" font-family="Times,serif" font-size="14.00">destruct y.</text>
<text text-anchor="middle" x="2135.81" y="-554.11" font-family="Times,serif" font-size="14.00">(0.0006724937461264926)</text>
</g>
<!-- 3&#45;&gt;29 -->
<g id="edge8" class="edge">
<title>3&#45;&gt;29</title>
<path fill="none" stroke="black" d="M1794.18,-634.9C1863.37,-621.01 1957.04,-602.21 2028.79,-587.8"/>
<polygon fill="black" stroke="black" points="2029.65,-591.2 2038.77,-585.8 2028.27,-584.33 2029.65,-591.2"/>
</g>
<!-- 53 -->
<g id="node54" class="node">
<title>53</title>
<ellipse fill="orange" stroke="black" cx="2440.81" cy="-565.31" rx="137.36" ry="26.74"/>
<text text-anchor="middle" x="2440.81" y="-569.11" font-family="Times,serif" font-size="14.00">eauto.</text>
<text text-anchor="middle" x="2440.81" y="-554.11" font-family="Times,serif" font-size="14.00">(0.48513347826200165)</text>
</g>
<!-- 52&#45;&gt;53 -->
<g id="edge53" class="edge">
<title>52&#45;&gt;53</title>
<path fill="none" stroke="black" d="M2543.22,-629.14C2526.77,-619.05 2507.61,-607.29 2490.34,-596.7"/>
<polygon fill="black" stroke="black" points="2491.87,-593.53 2481.51,-591.28 2488.2,-599.49 2491.87,-593.53"/>
</g>
<!-- 54 -->
<g id="node55" class="node">
<title>54</title>
<ellipse fill="orange" stroke="black" cx="2726.81" cy="-565.31" rx="130.63" ry="26.74"/>
<text text-anchor="middle" x="2726.81" y="-569.11" font-family="Times,serif" font-size="14.00">f_equal.</text>
<text text-anchor="middle" x="2726.81" y="-554.11" font-family="Times,serif" font-size="14.00">(0.3126322455433161)</text>
</g>
<!-- 52&#45;&gt;54 -->
<g id="edge54" class="edge">
<title>52&#45;&gt;54</title>
<path fill="none" stroke="black" d="M2624.41,-629.14C2641,-618.96 2660.35,-607.09 2677.73,-596.43"/>
<polygon fill="black" stroke="black" points="2679.92,-599.19 2686.61,-590.98 2676.26,-593.22 2679.92,-599.19"/>
</g>
<!-- 55 -->
<g id="node56" class="node">
<title>55</title>
<ellipse fill="#9aff9a" stroke="black" cx="3018.81" cy="-565.31" rx="143.59" ry="26.74"/>
<text text-anchor="middle" x="3018.81" y="-569.11" font-family="Times,serif" font-size="14.00">ring.</text>
<text text-anchor="middle" x="3018.81" y="-554.11" font-family="Times,serif" font-size="14.00">(0.023957835304641364)</text>
</g>
<!-- 52&#45;&gt;55 -->
<g id="edge55" class="edge">
<title>52&#45;&gt;55</title>
<path fill="none" stroke="black" d="M2679.01,-634.85C2748.38,-620.86 2842.35,-601.9 2913.89,-587.47"/>
<polygon fill="black" stroke="black" points="2914.72,-590.88 2923.83,-585.47 2913.34,-584.02 2914.72,-590.88"/>
</g>
<!-- 5 -->
<g id="node10" class="node">
<title>5</title>
<ellipse fill="orange" stroke="black" cx="130.81" cy="-475.57" rx="130.63" ry="26.74"/>
<text text-anchor="middle" x="130.81" y="-479.37" font-family="Times,serif" font-size="14.00">eauto.</text>
<text text-anchor="middle" x="130.81" y="-464.37" font-family="Times,serif" font-size="14.00">(0.6669006638690808)</text>
</g>
<!-- 4&#45;&gt;5 -->
<g id="edge9" class="edge">
<title>4&#45;&gt;5</title>
<path fill="none" stroke="black" d="M346.12,-542.62C305.3,-530.1 253.81,-514.3 211.42,-501.3"/>
<polygon fill="black" stroke="black" points="212.28,-497.9 201.69,-498.31 210.22,-504.59 212.28,-497.9"/>
</g>
<!-- 6 -->
<g id="node11" class="node">
<title>6</title>
<ellipse fill="orange" stroke="black" cx="416.81" cy="-475.57" rx="137.36" ry="26.74"/>
<text text-anchor="middle" x="416.81" y="-479.37" font-family="Times,serif" font-size="14.00">f_equal.</text>
<text text-anchor="middle" x="416.81" y="-464.37" font-family="Times,serif" font-size="14.00">(0.11265511191542248)</text>
</g>
<!-- 4&#45;&gt;6 -->
<g id="edge10" class="edge">
<title>4&#45;&gt;6</title>
<path fill="none" stroke="black" d="M416.81,-537.99C416.81,-530.02 416.81,-521.13 416.81,-512.64"/>
<polygon fill="black" stroke="black" points="420.31,-512.57 416.81,-502.57 413.31,-512.57 420.31,-512.57"/>
</g>
<!-- 8 -->
<g id="node12" class="node">
<title>8</title>
<ellipse fill="none" stroke="black" cx="696.81" cy="-475.57" rx="124.4" ry="26.74"/>
<text text-anchor="middle" x="696.81" y="-479.37" font-family="Times,serif" font-size="14.00">simpl.</text>
<text text-anchor="middle" x="696.81" y="-464.37" font-family="Times,serif" font-size="14.00">(0.859007536239259)</text>
</g>
<!-- 7&#45;&gt;8 -->
<g id="edge11" class="edge">
<title>7&#45;&gt;8</title>
<path fill="none" stroke="black" d="M1152.37,-549.49C1063.97,-537.84 939.51,-520.6 830.81,-502.44 819.4,-500.53 807.47,-498.41 795.63,-496.23"/>
<polygon fill="black" stroke="black" points="796.19,-492.78 785.72,-494.39 794.91,-499.66 796.19,-492.78"/>
</g>
<!-- 11 -->
<g id="node13" class="node">
<title>11</title>
<ellipse fill="orange" stroke="black" cx="976.81" cy="-475.57" rx="137.36" ry="26.74"/>
<text text-anchor="middle" x="976.81" y="-479.37" font-family="Times,serif" font-size="14.00">eauto.</text>
<text text-anchor="middle" x="976.81" y="-464.37" font-family="Times,serif" font-size="14.00">(0.13254725074591106)</text>
</g>
<!-- 7&#45;&gt;11 -->
<g id="edge12" class="edge">
<title>7&#45;&gt;11</title>
<path fill="none" stroke="black" d="M1195.13,-542.17C1153.75,-529.74 1102,-514.19 1059.28,-501.35"/>
<polygon fill="black" stroke="black" points="1060.05,-497.93 1049.46,-498.4 1058.03,-504.63 1060.05,-497.93"/>
</g>
<!-- 12 -->
<g id="node14" class="node">
<title>12</title>
<ellipse fill="none" stroke="black" cx="1268.81" cy="-475.57" rx="137.36" ry="26.74"/>
<text text-anchor="middle" x="1268.81" y="-479.37" font-family="Times,serif" font-size="14.00">destruct y.</text>
<text text-anchor="middle" x="1268.81" y="-464.37" font-family="Times,serif" font-size="14.00">(0.00077588505326029)</text>
</g>
<!-- 7&#45;&gt;12 -->
<g id="edge13" class="edge">
<title>7&#45;&gt;12</title>
<path fill="none" stroke="black" d="M1268.81,-537.99C1268.81,-530.02 1268.81,-521.13 1268.81,-512.64"/>
<polygon fill="black" stroke="black" points="1272.31,-512.57 1268.81,-502.57 1265.31,-512.57 1272.31,-512.57"/>
</g>
<!-- 27 -->
<g id="node15" class="node">
<title>27</title>
<ellipse fill="orange" stroke="black" cx="1579.81" cy="-475.57" rx="156.04" ry="26.74"/>
<text text-anchor="middle" x="1579.81" y="-479.37" font-family="Times,serif" font-size="14.00">try reflexivity.</text>
<text text-anchor="middle" x="1579.81" y="-464.37" font-family="Times,serif" font-size="14.00">(0.00015636864648874076)</text>
</g>
<!-- 7&#45;&gt;27 -->
<g id="edge14" class="edge">
<title>7&#45;&gt;27</title>
<path fill="none" stroke="black" d="M1346.09,-542.51C1390.09,-530.1 1445.38,-514.5 1491.13,-501.59"/>
<polygon fill="black" stroke="black" points="1492.37,-504.88 1501.04,-498.79 1490.47,-498.14 1492.37,-504.88"/>
</g>
<!-- 30 -->
<g id="node32" class="node">
<title>30</title>
<ellipse fill="none" stroke="black" cx="1884.81" cy="-475.57" rx="130.63" ry="26.74"/>
<text text-anchor="middle" x="1884.81" y="-479.37" font-family="Times,serif" font-size="14.00">simpl.</text>
<text text-anchor="middle" x="1884.81" y="-464.37" font-family="Times,serif" font-size="14.00">(0.9268131428678231)</text>
</g>
<!-- 29&#45;&gt;30 -->
<g id="edge31" class="edge">
<title>29&#45;&gt;30</title>
<path fill="none" stroke="black" d="M2069.54,-541.14C2035.55,-529.26 1994.05,-514.75 1958.99,-502.5"/>
<polygon fill="black" stroke="black" points="1959.89,-499.1 1949.29,-499.11 1957.58,-505.71 1959.89,-499.1"/>
</g>
<!-- 49 -->
<g id="node33" class="node">
<title>49</title>
<ellipse fill="orange" stroke="black" cx="2170.81" cy="-475.57" rx="137.36" ry="26.74"/>
<text text-anchor="middle" x="2170.81" y="-479.37" font-family="Times,serif" font-size="14.00">eauto.</text>
<text text-anchor="middle" x="2170.81" y="-464.37" font-family="Times,serif" font-size="14.00">(0.03931311916652895)</text>
</g>
<!-- 29&#45;&gt;49 -->
<g id="edge32" class="edge">
<title>29&#45;&gt;49</title>
<path fill="none" stroke="black" d="M2146.13,-538.46C2149.44,-530.15 2153.18,-520.78 2156.72,-511.91"/>
<polygon fill="black" stroke="black" points="2160,-513.12 2160.46,-502.54 2153.5,-510.53 2160,-513.12"/>
</g>
<!-- 50 -->
<g id="node34" class="node">
<title>50</title>
<ellipse fill="orange" stroke="black" cx="2469.81" cy="-475.57" rx="143.59" ry="26.74"/>
<text text-anchor="middle" x="2469.81" y="-479.37" font-family="Times,serif" font-size="14.00">f_equal.</text>
<text text-anchor="middle" x="2469.81" y="-464.37" font-family="Times,serif" font-size="14.00">(0.010976672741993522)</text>
</g>
<!-- 29&#45;&gt;50 -->
<g id="edge33" class="edge">
<title>29&#45;&gt;50</title>
<path fill="none" stroke="black" d="M2217.95,-542.73C2266.75,-529.91 2328.72,-513.64 2378.98,-500.43"/>
<polygon fill="black" stroke="black" points="2380.08,-503.76 2388.87,-497.84 2378.3,-496.99 2380.08,-503.76"/>
</g>
<!-- 51 -->
<g id="node35" class="node">
<title>51</title>
<ellipse fill="orange" stroke="black" cx="2780.81" cy="-475.57" rx="149.81" ry="26.74"/>
<text text-anchor="middle" x="2780.81" y="-479.37" font-family="Times,serif" font-size="14.00">try congruence.</text>
<text text-anchor="middle" x="2780.81" y="-464.37" font-family="Times,serif" font-size="14.00">(0.0018452715655396142)</text>
</g>
<!-- 29&#45;&gt;51 -->
<g id="edge34" class="edge">
<title>29&#45;&gt;51</title>
<path fill="none" stroke="black" d="M2241.75,-546.29C2259.45,-543.5 2277.63,-540.78 2294.81,-538.44 2440.13,-518.66 2477.51,-522.3 2622.81,-502.44 2636.44,-500.58 2650.71,-498.47 2664.85,-496.28"/>
<polygon fill="black" stroke="black" points="2665.78,-499.68 2675.12,-494.67 2664.7,-492.76 2665.78,-499.68"/>
</g>
<!-- 9 -->
<g id="node16" class="node">
<title>9</title>
<ellipse fill="orange" stroke="black" cx="521.81" cy="-385.83" rx="130.63" ry="26.74"/>
<text text-anchor="middle" x="521.81" y="-389.63" font-family="Times,serif" font-size="14.00">eauto.</text>
<text text-anchor="middle" x="521.81" y="-374.63" font-family="Times,serif" font-size="14.00">(0.6669732122531965)</text>
</g>
<!-- 8&#45;&gt;9 -->
<g id="edge15" class="edge">
<title>8&#45;&gt;9</title>
<path fill="none" stroke="black" d="M649,-450.6C627.38,-439.76 601.67,-426.87 579.04,-415.52"/>
<polygon fill="black" stroke="black" points="580.39,-412.28 569.88,-410.93 577.25,-418.54 580.39,-412.28"/>
</g>
<!-- 10 -->
<g id="node17" class="node">
<title>10</title>
<ellipse fill="orange" stroke="black" cx="807.81" cy="-385.83" rx="137.36" ry="26.74"/>
<text text-anchor="middle" x="807.81" y="-389.63" font-family="Times,serif" font-size="14.00">f_equal.</text>
<text text-anchor="middle" x="807.81" y="-374.63" font-family="Times,serif" font-size="14.00">(0.11265395698125909)</text>
</g>
<!-- 8&#45;&gt;10 -->
<g id="edge16" class="edge">
<title>8&#45;&gt;10</title>
<path fill="none" stroke="black" d="M728.62,-449.43C740.93,-439.7 755.15,-428.46 768.12,-418.21"/>
<polygon fill="black" stroke="black" points="770.33,-420.92 776,-411.98 765.99,-415.43 770.33,-420.92"/>
</g>
<!-- 13 -->
<g id="node18" class="node">
<title>13</title>
<ellipse fill="none" stroke="black" cx="1220.81" cy="-385.83" rx="130.63" ry="26.74"/>
<text text-anchor="middle" x="1220.81" y="-389.63" font-family="Times,serif" font-size="14.00">simpl.</text>
<text text-anchor="middle" x="1220.81" y="-374.63" font-family="Times,serif" font-size="14.00">(0.7834789460554628)</text>
</g>
<!-- 12&#45;&gt;13 -->
<g id="edge17" class="edge">
<title>12&#45;&gt;13</title>
<path fill="none" stroke="black" d="M1254.67,-448.72C1250.03,-440.23 1244.78,-430.65 1239.84,-421.6"/>
<polygon fill="black" stroke="black" points="1242.89,-419.89 1235.02,-412.8 1236.75,-423.25 1242.89,-419.89"/>
</g>
<!-- 14 -->
<g id="node19" class="node">
<title>14</title>
<ellipse fill="blue" stroke="black" cx="1173.81" cy="-296.09" rx="130.63" ry="26.74"/>
<text text-anchor="middle" x="1173.81" y="-299.89" font-family="Times,serif" font-size="14.00">eauto.</text>
<text text-anchor="middle" x="1173.81" y="-284.89" font-family="Times,serif" font-size="14.00">(0.9484504564636997)</text>
</g>
<!-- 13&#45;&gt;14 -->
<g id="edge18" class="edge">
<title>13&#45;&gt;14</title>
<path fill="none" stroke="black" d="M1206.97,-358.98C1202.47,-350.58 1197.39,-341.1 1192.59,-332.14"/>
<polygon fill="black" stroke="black" points="1195.53,-330.22 1187.73,-323.06 1189.36,-333.53 1195.53,-330.22"/>
</g>
<!-- 15 -->
<g id="node20" class="node">
<title>15</title>
<ellipse fill="none" stroke="black" cx="594.81" cy="-206.35" rx="130.63" ry="26.74"/>
<text text-anchor="middle" x="594.81" y="-210.15" font-family="Times,serif" font-size="14.00">simpl.</text>
<text text-anchor="middle" x="594.81" y="-195.15" font-family="Times,serif" font-size="14.00">(0.8590790539881964)</text>
</g>
<!-- 14&#45;&gt;15 -->
<g id="edge19" class="edge">
<title>14&#45;&gt;15</title>
<path fill="none" stroke="black" d="M1064.92,-281.06C975.97,-269.28 847.06,-251.49 734.81,-233.22 723.09,-231.31 710.84,-229.21 698.67,-227.05"/>
<polygon fill="black" stroke="black" points="698.94,-223.54 688.48,-225.23 697.7,-230.43 698.94,-223.54"/>
</g>
<!-- 18 -->
<g id="node21" class="node">
<title>18</title>
<ellipse fill="orange" stroke="black" cx="874.81" cy="-206.35" rx="130.63" ry="26.74"/>
<text text-anchor="middle" x="874.81" y="-210.15" font-family="Times,serif" font-size="14.00">eauto.</text>
<text text-anchor="middle" x="874.81" y="-195.15" font-family="Times,serif" font-size="14.00">(0.1324532689418956)</text>
</g>
<!-- 14&#45;&gt;18 -->
<g id="edge20" class="edge">
<title>14&#45;&gt;18</title>
<path fill="none" stroke="black" d="M1101.05,-273.74C1057.65,-261 1002.41,-244.79 957.38,-231.58"/>
<polygon fill="black" stroke="black" points="958.22,-228.18 947.64,-228.72 956.25,-234.9 958.22,-228.18"/>
</g>
<!-- 19 -->
<g id="node22" class="node">
<title>19</title>
<ellipse fill="none" stroke="black" cx="1173.81" cy="-206.35" rx="149.81" ry="26.74"/>
<text text-anchor="middle" x="1173.81" y="-210.15" font-family="Times,serif" font-size="14.00">destruct y.</text>
<text text-anchor="middle" x="1173.81" y="-195.15" font-family="Times,serif" font-size="14.00">(0.0007756198295211146)</text>
</g>
<!-- 14&#45;&gt;19 -->
<g id="edge21" class="edge">
<title>14&#45;&gt;19</title>
<path fill="none" stroke="black" d="M1173.81,-268.77C1173.81,-260.8 1173.81,-251.91 1173.81,-243.42"/>
<polygon fill="black" stroke="black" points="1177.31,-243.35 1173.81,-233.35 1170.31,-243.35 1177.31,-243.35"/>
</g>
<!-- 26 -->
<g id="node23" class="node">
<title>26</title>
<ellipse fill="orange" stroke="black" cx="1497.81" cy="-206.35" rx="156.04" ry="26.74"/>
<text text-anchor="middle" x="1497.81" y="-210.15" font-family="Times,serif" font-size="14.00">try reflexivity.</text>
<text text-anchor="middle" x="1497.81" y="-195.15" font-family="Times,serif" font-size="14.00">(0.00015687619436211063)</text>
</g>
<!-- 14&#45;&gt;26 -->
<g id="edge22" class="edge">
<title>14&#45;&gt;26</title>
<path fill="none" stroke="black" d="M1250.6,-274.3C1297.44,-261.61 1357.57,-245.33 1406.8,-232"/>
<polygon fill="black" stroke="black" points="1407.75,-235.37 1416.49,-229.37 1405.92,-228.61 1407.75,-235.37"/>
</g>
<!-- 16 -->
<g id="node24" class="node">
<title>16</title>
<ellipse fill="orange" stroke="black" cx="455.81" cy="-116.61" rx="130.63" ry="26.74"/>
<text text-anchor="middle" x="455.81" y="-120.41" font-family="Times,serif" font-size="14.00">eauto.</text>
<text text-anchor="middle" x="455.81" y="-105.41" font-family="Times,serif" font-size="14.00">(0.6667416018315524)</text>
</g>
<!-- 15&#45;&gt;16 -->
<g id="edge23" class="edge">
<title>15&#45;&gt;16</title>
<path fill="none" stroke="black" d="M555.73,-180.68C539.59,-170.49 520.73,-158.58 503.76,-147.88"/>
<polygon fill="black" stroke="black" points="505.42,-144.78 495.09,-142.4 501.68,-150.7 505.42,-144.78"/>
</g>
<!-- 17 -->
<g id="node25" class="node">
<title>17</title>
<ellipse fill="orange" stroke="black" cx="741.81" cy="-116.61" rx="137.36" ry="26.74"/>
<text text-anchor="middle" x="741.81" y="-120.41" font-family="Times,serif" font-size="14.00">f_equal.</text>
<text text-anchor="middle" x="741.81" y="-105.41" font-family="Times,serif" font-size="14.00">(0.11265771727550493)</text>
</g>
<!-- 15&#45;&gt;17 -->
<g id="edge24" class="edge">
<title>15&#45;&gt;17</title>
<path fill="none" stroke="black" d="M636.15,-180.68C653.45,-170.35 673.7,-158.26 691.83,-147.45"/>
<polygon fill="black" stroke="black" points="693.74,-150.38 700.53,-142.25 690.15,-144.37 693.74,-150.38"/>
</g>
<!-- 20 -->
<g id="node26" class="node">
<title>20</title>
<ellipse fill="none" stroke="black" cx="1100.81" cy="-116.61" rx="130.63" ry="26.74"/>
<text text-anchor="middle" x="1100.81" y="-120.41" font-family="Times,serif" font-size="14.00">simpl.</text>
<text text-anchor="middle" x="1100.81" y="-105.41" font-family="Times,serif" font-size="14.00">(0.7834789460554628)</text>
</g>
<!-- 19&#45;&gt;20 -->
<g id="edge25" class="edge">
<title>19&#45;&gt;20</title>
<path fill="none" stroke="black" d="M1152.31,-179.5C1144.88,-170.57 1136.45,-160.45 1128.6,-151"/>
<polygon fill="black" stroke="black" points="1131.25,-148.72 1122.17,-143.28 1125.87,-153.2 1131.25,-148.72"/>
</g>
<!-- 21 -->
<g id="node27" class="node">
<title>21</title>
<ellipse fill="blue" stroke="black" cx="1386.81" cy="-116.61" rx="137.36" ry="26.74"/>
<text text-anchor="middle" x="1386.81" y="-120.41" font-family="Times,serif" font-size="14.00">eauto.</text>
<text text-anchor="middle" x="1386.81" y="-105.41" font-family="Times,serif" font-size="14.00">(0.20862930753283093)</text>
</g>
<!-- 19&#45;&gt;21 -->
<g id="edge26" class="edge">
<title>19&#45;&gt;21</title>
<path fill="none" stroke="black" d="M1231.74,-181.49C1259.07,-170.23 1291.85,-156.73 1320.21,-145.05"/>
<polygon fill="black" stroke="black" points="1321.73,-148.21 1329.64,-141.16 1319.06,-141.73 1321.73,-148.21"/>
</g>
<!-- 22 -->
<g id="node28" class="node">
<title>22</title>
<ellipse fill="none" stroke="black" cx="947.81" cy="-26.87" rx="130.63" ry="26.74"/>
<text text-anchor="middle" x="947.81" y="-30.67" font-family="Times,serif" font-size="14.00">simpl.</text>
<text text-anchor="middle" x="947.81" y="-15.67" font-family="Times,serif" font-size="14.00">(0.8591453927588737)</text>
</g>
<!-- 21&#45;&gt;22 -->
<g id="edge27" class="edge">
<title>21&#45;&gt;22</title>
<path fill="none" stroke="black" d="M1293.18,-96.9C1221.63,-82.6 1123.13,-62.91 1049.63,-48.22"/>
<polygon fill="black" stroke="black" points="1049.92,-44.71 1039.43,-46.18 1048.55,-51.57 1049.92,-44.71"/>
</g>
<!-- 23 -->
<g id="node29" class="node">
<title>23</title>
<ellipse fill="orange" stroke="black" cx="1233.81" cy="-26.87" rx="137.36" ry="26.74"/>
<text text-anchor="middle" x="1233.81" y="-30.67" font-family="Times,serif" font-size="14.00">eauto.</text>
<text text-anchor="middle" x="1233.81" y="-15.67" font-family="Times,serif" font-size="14.00">(0.13236601245461058)</text>
</g>
<!-- 21&#45;&gt;23 -->
<g id="edge28" class="edge">
<title>21&#45;&gt;23</title>
<path fill="none" stroke="black" d="M1343.79,-90.94C1325.71,-80.57 1304.51,-68.41 1285.58,-57.56"/>
<polygon fill="black" stroke="black" points="1287.2,-54.45 1276.78,-52.51 1283.72,-60.52 1287.2,-54.45"/>
</g>
<!-- 24 -->
<g id="node30" class="node">
<title>24</title>
<ellipse fill="none" stroke="black" cx="1538.81" cy="-26.87" rx="149.81" ry="26.74"/>
<text text-anchor="middle" x="1538.81" y="-30.67" font-family="Times,serif" font-size="14.00">destruct y.</text>
<text text-anchor="middle" x="1538.81" y="-15.67" font-family="Times,serif" font-size="14.00">(0.0007753742917422804)</text>
</g>
<!-- 21&#45;&gt;24 -->
<g id="edge29" class="edge">
<title>21&#45;&gt;24</title>
<path fill="none" stroke="black" d="M1429.56,-90.94C1447.45,-80.61 1468.4,-68.52 1487.15,-57.7"/>
<polygon fill="black" stroke="black" points="1488.95,-60.69 1495.86,-52.66 1485.45,-54.63 1488.95,-60.69"/>
</g>
<!-- 25 -->
<g id="node31" class="node">
<title>25</title>
<ellipse fill="orange" stroke="black" cx="1862.81" cy="-26.87" rx="156.04" ry="26.74"/>
<text text-anchor="middle" x="1862.81" y="-30.67" font-family="Times,serif" font-size="14.00">try reflexivity.</text>
<text text-anchor="middle" x="1862.81" y="-15.67" font-family="Times,serif" font-size="14.00">(0.00015734922106076763)</text>
</g>
<!-- 21&#45;&gt;25 -->
<g id="edge30" class="edge">
<title>21&#45;&gt;25</title>
<path fill="none" stroke="black" d="M1484.29,-97.64C1560.97,-83.51 1667.99,-63.78 1748.67,-48.91"/>
<polygon fill="black" stroke="black" points="1749.67,-52.28 1758.87,-47.03 1748.41,-45.4 1749.67,-52.28"/>
</g>
<!-- 31 -->
<g id="node36" class="node">
<title>31</title>
<ellipse fill="orange" stroke="black" cx="1598.81" cy="-385.83" rx="130.63" ry="26.74"/>
<text text-anchor="middle" x="1598.81" y="-389.63" font-family="Times,serif" font-size="14.00">eauto.</text>
<text text-anchor="middle" x="1598.81" y="-374.63" font-family="Times,serif" font-size="14.00">(0.6759639653962095)</text>
</g>
<!-- 30&#45;&gt;31 -->
<g id="edge35" class="edge">
<title>30&#45;&gt;31</title>
<path fill="none" stroke="black" d="M1814.12,-452.88C1773.3,-440.36 1721.81,-424.56 1679.42,-411.56"/>
<polygon fill="black" stroke="black" points="1680.28,-408.16 1669.69,-408.57 1678.22,-414.85 1680.28,-408.16"/>
</g>
<!-- 32 -->
<g id="node37" class="node">
<title>32</title>
<ellipse fill="orange" stroke="black" cx="1884.81" cy="-385.83" rx="137.36" ry="26.74"/>
<text text-anchor="middle" x="1884.81" y="-389.63" font-family="Times,serif" font-size="14.00">f_equal.</text>
<text text-anchor="middle" x="1884.81" y="-374.63" font-family="Times,serif" font-size="14.00">(0.15535980154048612)</text>
</g>
<!-- 30&#45;&gt;32 -->
<g id="edge36" class="edge">
<title>30&#45;&gt;32</title>
<path fill="none" stroke="black" d="M1884.81,-448.25C1884.81,-440.28 1884.81,-431.39 1884.81,-422.9"/>
<polygon fill="black" stroke="black" points="1888.31,-422.83 1884.81,-412.83 1881.31,-422.83 1888.31,-422.83"/>
</g>
<!-- 33 -->
<g id="node38" class="node">
<title>33</title>
<ellipse fill="none" stroke="black" cx="2170.81" cy="-385.83" rx="130.63" ry="26.74"/>
<text text-anchor="middle" x="2170.81" y="-389.63" font-family="Times,serif" font-size="14.00">destruct m.</text>
<text text-anchor="middle" x="2170.81" y="-374.63" font-family="Times,serif" font-size="14.00">(0.0117070882510196)</text>
</g>
<!-- 30&#45;&gt;33 -->
<g id="edge37" class="edge">
<title>30&#45;&gt;33</title>
<path fill="none" stroke="black" d="M1955.51,-452.88C1996.33,-440.36 2047.82,-424.56 2090.21,-411.56"/>
<polygon fill="black" stroke="black" points="2091.41,-414.85 2099.94,-408.57 2089.35,-408.16 2091.41,-414.85"/>
</g>
<!-- 41 -->
<g id="node39" class="node">
<title>41</title>
<ellipse fill="none" stroke="black" cx="3130.81" cy="-385.83" rx="149.81" ry="26.74"/>
<text text-anchor="middle" x="3130.81" y="-389.63" font-family="Times,serif" font-size="14.00">destruct m.</text>
<text text-anchor="middle" x="3130.81" y="-374.63" font-family="Times,serif" font-size="14.00">(0.0018369901638266575)</text>
</g>
<!-- 30&#45;&gt;41 -->
<g id="edge38" class="edge">
<title>30&#45;&gt;41</title>
<path fill="none" stroke="black" d="M1975.31,-456.12C1991.73,-453.26 2008.74,-450.63 2024.81,-448.7 2360.33,-408.48 2756.31,-394.33 2971.69,-389.4"/>
<polygon fill="black" stroke="black" points="2971.89,-392.9 2981.81,-389.17 2971.73,-385.9 2971.89,-392.9"/>
</g>
<!-- 34 -->
<g id="node40" class="node">
<title>34</title>
<ellipse fill="none" stroke="black" cx="2107.81" cy="-296.09" rx="124.4" ry="26.74"/>
<text text-anchor="middle" x="2107.81" y="-299.89" font-family="Times,serif" font-size="14.00">simpl.</text>
<text text-anchor="middle" x="2107.81" y="-284.89" font-family="Times,serif" font-size="14.00">(0.879216208166627)</text>
</g>
<!-- 33&#45;&gt;34 -->
<g id="edge39" class="edge">
<title>33&#45;&gt;34</title>
<path fill="none" stroke="black" d="M2152.25,-358.98C2145.97,-350.23 2138.86,-340.33 2132.2,-331.05"/>
<polygon fill="black" stroke="black" points="2134.92,-328.84 2126.24,-322.76 2129.23,-332.92 2134.92,-328.84"/>
</g>
<!-- 35 -->
<g id="node41" class="node">
<title>35</title>
<ellipse fill="blue" stroke="black" cx="2387.81" cy="-296.09" rx="137.36" ry="26.74"/>
<text text-anchor="middle" x="2387.81" y="-299.89" font-family="Times,serif" font-size="14.00">eauto.</text>
<text text-anchor="middle" x="2387.81" y="-284.89" font-family="Times,serif" font-size="14.00">(0.11579978036157422)</text>
</g>
<!-- 33&#45;&gt;35 -->
<g id="edge40" class="edge">
<title>33&#45;&gt;35</title>
<path fill="none" stroke="black" d="M2228.11,-361.66C2256.44,-350.21 2290.81,-336.31 2320.39,-324.35"/>
<polygon fill="black" stroke="black" points="2321.86,-327.53 2329.82,-320.54 2319.23,-321.04 2321.86,-327.53"/>
</g>
<!-- 42 -->
<g id="node47" class="node">
<title>42</title>
<ellipse fill="none" stroke="black" cx="3130.81" cy="-296.09" rx="124.4" ry="26.74"/>
<text text-anchor="middle" x="3130.81" y="-299.89" font-family="Times,serif" font-size="14.00">simpl.</text>
<text text-anchor="middle" x="3130.81" y="-284.89" font-family="Times,serif" font-size="14.00">(0.879216208166627)</text>
</g>
<!-- 41&#45;&gt;42 -->
<g id="edge46" class="edge">
<title>41&#45;&gt;42</title>
<path fill="none" stroke="black" d="M3130.81,-358.51C3130.81,-350.54 3130.81,-341.65 3130.81,-333.16"/>
<polygon fill="black" stroke="black" points="3134.31,-333.09 3130.81,-323.09 3127.31,-333.09 3134.31,-333.09"/>
</g>
<!-- 43 -->
<g id="node48" class="node">
<title>43</title>
<ellipse fill="blue" stroke="black" cx="3724.81" cy="-296.09" rx="137.36" ry="26.74"/>
<text text-anchor="middle" x="3724.81" y="-299.89" font-family="Times,serif" font-size="14.00">eauto.</text>
<text text-anchor="middle" x="3724.81" y="-284.89" font-family="Times,serif" font-size="14.00">(0.11579978036157422)</text>
</g>
<!-- 41&#45;&gt;43 -->
<g id="edge47" class="edge">
<title>41&#45;&gt;43</title>
<path fill="none" stroke="black" d="M3243.94,-368.12C3348.13,-352.73 3502.08,-329.99 3607.56,-314.41"/>
<polygon fill="black" stroke="black" points="3608.23,-317.85 3617.61,-312.93 3607.21,-310.92 3608.23,-317.85"/>
</g>
<!-- 36 -->
<g id="node42" class="node">
<title>36</title>
<ellipse fill="none" stroke="black" cx="1802.81" cy="-206.35" rx="130.63" ry="26.74"/>
<text text-anchor="middle" x="1802.81" y="-210.15" font-family="Times,serif" font-size="14.00">simpl.</text>
<text text-anchor="middle" x="1802.81" y="-195.15" font-family="Times,serif" font-size="14.00">(0.7838187781948978)</text>
</g>
<!-- 35&#45;&gt;36 -->
<g id="edge41" class="edge">
<title>35&#45;&gt;36</title>
<path fill="none" stroke="black" d="M2290.28,-277.17C2273.8,-274.35 2256.84,-271.6 2240.81,-269.22 2108.85,-249.65 2074.69,-253.35 1942.81,-233.22 1930.76,-231.38 1918.16,-229.29 1905.67,-227.11"/>
<polygon fill="black" stroke="black" points="1906.14,-223.64 1895.68,-225.35 1904.92,-230.54 1906.14,-223.64"/>
</g>
<!-- 37 -->
<g id="node43" class="node">
<title>37</title>
<ellipse fill="orange" stroke="black" cx="2088.81" cy="-206.35" rx="137.36" ry="26.74"/>
<text text-anchor="middle" x="2088.81" y="-210.15" font-family="Times,serif" font-size="14.00">eauto.</text>
<text text-anchor="middle" x="2088.81" y="-195.15" font-family="Times,serif" font-size="14.00">(0.19214948269525586)</text>
</g>
<!-- 35&#45;&gt;37 -->
<g id="edge42" class="edge">
<title>35&#45;&gt;37</title>
<path fill="none" stroke="black" d="M2313.9,-273.4C2270.97,-260.8 2216.74,-244.89 2172.27,-231.84"/>
<polygon fill="black" stroke="black" points="2173.23,-228.47 2162.65,-229.02 2171.26,-235.19 2173.23,-228.47"/>
</g>
<!-- 38 -->
<g id="node44" class="node">
<title>38</title>
<ellipse fill="orange" stroke="black" cx="2387.81" cy="-206.35" rx="143.59" ry="26.74"/>
<text text-anchor="middle" x="2387.81" y="-210.15" font-family="Times,serif" font-size="14.00">f_equal.</text>
<text text-anchor="middle" x="2387.81" y="-195.15" font-family="Times,serif" font-size="14.00">(0.008139033882703891)</text>
</g>
<!-- 35&#45;&gt;38 -->
<g id="edge43" class="edge">
<title>35&#45;&gt;38</title>
<path fill="none" stroke="black" d="M2387.81,-268.77C2387.81,-260.8 2387.81,-251.91 2387.81,-243.42"/>
<polygon fill="black" stroke="black" points="2391.31,-243.35 2387.81,-233.35 2384.31,-243.35 2391.31,-243.35"/>
</g>
<!-- 39 -->
<g id="node45" class="node">
<title>39</title>
<ellipse fill="orange" stroke="black" cx="2692.81" cy="-206.35" rx="143.59" ry="26.74"/>
<text text-anchor="middle" x="2692.81" y="-210.15" font-family="Times,serif" font-size="14.00">try congruence.</text>
<text text-anchor="middle" x="2692.81" y="-195.15" font-family="Times,serif" font-size="14.00">(0.003135730696687623)</text>
</g>
<!-- 35&#45;&gt;39 -->
<g id="edge44" class="edge">
<title>35&#45;&gt;39</title>
<path fill="none" stroke="black" d="M2462.82,-273.51C2506.44,-260.96 2561.6,-245.1 2606.96,-232.05"/>
<polygon fill="black" stroke="black" points="2608.14,-235.35 2616.78,-229.22 2606.2,-228.63 2608.14,-235.35"/>
</g>
<!-- 40 -->
<g id="node46" class="node">
<title>40</title>
<ellipse fill="orange" stroke="black" cx="2997.81" cy="-206.35" rx="143.59" ry="26.74"/>
<text text-anchor="middle" x="2997.81" y="-210.15" font-family="Times,serif" font-size="14.00">try reflexivity.</text>
<text text-anchor="middle" x="2997.81" y="-195.15" font-family="Times,serif" font-size="14.00">(0.002087883024393144)</text>
</g>
<!-- 35&#45;&gt;40 -->
<g id="edge45" class="edge">
<title>35&#45;&gt;40</title>
<path fill="none" stroke="black" d="M2501.37,-280.85C2594.14,-268.95 2728.62,-251.1 2845.81,-233.22 2858.57,-231.27 2871.92,-229.14 2885.17,-226.97"/>
<polygon fill="black" stroke="black" points="2885.99,-230.38 2895.28,-225.29 2884.84,-223.47 2885.99,-230.38"/>
</g>
<!-- 44 -->
<g id="node49" class="node">
<title>44</title>
<ellipse fill="none" stroke="black" cx="3289.81" cy="-206.35" rx="130.63" ry="26.74"/>
<text text-anchor="middle" x="3289.81" y="-210.15" font-family="Times,serif" font-size="14.00">simpl.</text>
<text text-anchor="middle" x="3289.81" y="-195.15" font-family="Times,serif" font-size="14.00">(0.7838187781948978)</text>
</g>
<!-- 43&#45;&gt;44 -->
<g id="edge48" class="edge">
<title>43&#45;&gt;44</title>
<path fill="none" stroke="black" d="M3631.76,-276.32C3560.97,-262.04 3463.66,-242.41 3390.95,-227.75"/>
<polygon fill="black" stroke="black" points="3391.35,-224.26 3380.85,-225.71 3389.96,-231.12 3391.35,-224.26"/>
</g>
<!-- 45 -->
<g id="node50" class="node">
<title>45</title>
<ellipse fill="orange" stroke="black" cx="3575.81" cy="-206.35" rx="137.36" ry="26.74"/>
<text text-anchor="middle" x="3575.81" y="-210.15" font-family="Times,serif" font-size="14.00">eauto.</text>
<text text-anchor="middle" x="3575.81" y="-195.15" font-family="Times,serif" font-size="14.00">(0.19214948269525586)</text>
</g>
<!-- 43&#45;&gt;45 -->
<g id="edge49" class="edge">
<title>43&#45;&gt;45</title>
<path fill="none" stroke="black" d="M3682.91,-270.42C3665.38,-260.09 3644.85,-248 3626.48,-237.19"/>
<polygon fill="black" stroke="black" points="3628.05,-234.05 3617.66,-231.99 3624.5,-240.08 3628.05,-234.05"/>
</g>
<!-- 46 -->
<g id="node51" class="node">
<title>46</title>
<ellipse fill="orange" stroke="black" cx="3874.81" cy="-206.35" rx="143.59" ry="26.74"/>
<text text-anchor="middle" x="3874.81" y="-210.15" font-family="Times,serif" font-size="14.00">f_equal.</text>
<text text-anchor="middle" x="3874.81" y="-195.15" font-family="Times,serif" font-size="14.00">(0.008139033882703891)</text>
</g>
<!-- 43&#45;&gt;46 -->
<g id="edge50" class="edge">
<title>43&#45;&gt;46</title>
<path fill="none" stroke="black" d="M3767,-270.42C3784.57,-260.14 3805.14,-248.11 3823.57,-237.32"/>
<polygon fill="black" stroke="black" points="3825.56,-240.21 3832.43,-232.14 3822.03,-234.17 3825.56,-240.21"/>
</g>
<!-- 47 -->
<g id="node52" class="node">
<title>47</title>
<ellipse fill="orange" stroke="black" cx="4179.81" cy="-206.35" rx="143.59" ry="26.74"/>
<text text-anchor="middle" x="4179.81" y="-210.15" font-family="Times,serif" font-size="14.00">try congruence.</text>
<text text-anchor="middle" x="4179.81" y="-195.15" font-family="Times,serif" font-size="14.00">(0.003135730696687623)</text>
</g>
<!-- 43&#45;&gt;47 -->
<g id="edge51" class="edge">
<title>43&#45;&gt;47</title>
<path fill="none" stroke="black" d="M3820.2,-276.7C3893.77,-262.51 3995.55,-242.88 4072.06,-228.13"/>
<polygon fill="black" stroke="black" points="4073.05,-231.5 4082.2,-226.17 4071.72,-224.63 4073.05,-231.5"/>
</g>
<!-- 48 -->
<g id="node53" class="node">
<title>48</title>
<ellipse fill="orange" stroke="black" cx="4484.81" cy="-206.35" rx="143.59" ry="26.74"/>
<text text-anchor="middle" x="4484.81" y="-210.15" font-family="Times,serif" font-size="14.00">try reflexivity.</text>
<text text-anchor="middle" x="4484.81" y="-195.15" font-family="Times,serif" font-size="14.00">(0.002087883024393144)</text>
</g>
<!-- 43&#45;&gt;48 -->
<g id="edge52" class="edge">
<title>43&#45;&gt;48</title>
<path fill="none" stroke="black" d="M3849.7,-284.85C3972.81,-274.18 4166.18,-255.85 4332.81,-233.22 4346.15,-231.41 4360.12,-229.31 4373.95,-227.11"/>
<polygon fill="black" stroke="black" points="4374.67,-230.54 4383.98,-225.49 4373.55,-223.63 4374.67,-230.54"/>
</g>
<!-- 56 -->
<g id="node57" class="node">
<title>56</title>
<ellipse fill="green" stroke="black" cx="3018.81" cy="-475.57" rx="35.21" ry="26.74"/>
<text text-anchor="middle" x="3018.81" y="-479.37" font-family="Times,serif" font-size="14.00">QED</text>
<text text-anchor="middle" x="3018.81" y="-464.37" font-family="Times,serif" font-size="14.00">(1.0)</text>
</g>
<!-- 55&#45;&gt;56 -->
<g id="edge56" class="edge">
<title>55&#45;&gt;56</title>
<path fill="none" stroke="black" d="M3018.81,-537.99C3018.81,-530.02 3018.81,-521.13 3018.81,-512.64"/>
<polygon fill="green" stroke="black" points="3022.31,-512.57 3018.81,-502.57 3015.31,-512.57 3022.31,-512.57"/>
</g>
</g>
</svg>
