<?xml version="1.0" encoding="UTF-8" standalone="no"?>
<!DOCTYPE svg PUBLIC "-//W3C//DTD SVG 1.1//EN"
 "http://www.w3.org/Graphics/SVG/1.1/DTD/svg11.dtd">
<!-- Generated by graphviz version 2.43.0 (0)
 -->
<!-- Pages: 1 -->
<svg width="2383pt" height="600pt"
 viewBox="0.00 0.00 2382.63 600.18" xmlns="http://www.w3.org/2000/svg" xmlns:xlink="http://www.w3.org/1999/xlink">
<g id="graph0" class="graph" transform="scale(1 1) rotate(0) translate(4 596.18)">
<polygon fill="white" stroke="transparent" points="-4,4 -4,-596.18 2378.63,-596.18 2378.63,4 -4,4"/>
<!-- 0 -->
<g id="node1" class="node">
<title>0</title>
<ellipse fill="none" stroke="black" cx="1335.81" cy="-565.31" rx="65.11" ry="26.74"/>
<text text-anchor="middle" x="1335.81" y="-569.11" font-family="Times,serif" font-size="14.00">sym_not_P</text>
<text text-anchor="middle" x="1335.81" y="-554.11" font-family="Times,serif" font-size="14.00">(1.0)</text>
</g>
<!-- 1 -->
<g id="node2" class="node">
<title>1</title>
<ellipse fill="#9aff9a" stroke="black" cx="1335.81" cy="-475.57" rx="130.63" ry="26.74"/>
<text text-anchor="middle" x="1335.81" y="-479.37" font-family="Times,serif" font-size="14.00">intros.</text>
<text text-anchor="middle" x="1335.81" y="-464.37" font-family="Times,serif" font-size="14.00">(0.9754794240580881)</text>
</g>
<!-- 0&#45;&gt;1 -->
<g id="edge1" class="edge">
<title>0&#45;&gt;1</title>
<path fill="none" stroke="black" d="M1335.81,-537.99C1335.81,-530.02 1335.81,-521.13 1335.81,-512.64"/>
<polygon fill="black" stroke="black" points="1339.31,-512.57 1335.81,-502.57 1332.31,-512.57 1339.31,-512.57"/>
</g>
<!-- 2 -->
<g id="node3" class="node">
<title>2</title>
<ellipse fill="none" stroke="black" cx="1189.81" cy="-385.83" rx="130.63" ry="26.74"/>
<text text-anchor="middle" x="1189.81" y="-389.63" font-family="Times,serif" font-size="14.00">elim H0.</text>
<text text-anchor="middle" x="1189.81" y="-374.63" font-family="Times,serif" font-size="14.00">(0.9616122359338877)</text>
</g>
<!-- 1&#45;&gt;2 -->
<g id="edge2" class="edge">
<title>1&#45;&gt;2</title>
<path fill="none" stroke="black" d="M1294.76,-449.9C1277.58,-439.57 1257.46,-427.48 1239.46,-416.67"/>
<polygon fill="black" stroke="black" points="1241.19,-413.62 1230.82,-411.47 1237.59,-419.62 1241.19,-413.62"/>
</g>
<!-- 13 -->
<g id="node4" class="node">
<title>13</title>
<ellipse fill="#9aff9a" stroke="black" cx="1785.81" cy="-385.83" rx="143.59" ry="26.74"/>
<text text-anchor="middle" x="1785.81" y="-389.63" font-family="Times,serif" font-size="14.00">red.</text>
<text text-anchor="middle" x="1785.81" y="-374.63" font-family="Times,serif" font-size="14.00">(0.015891163290701588)</text>
</g>
<!-- 1&#45;&gt;13 -->
<g id="edge3" class="edge">
<title>1&#45;&gt;13</title>
<path fill="none" stroke="black" d="M1428.24,-456.55C1500.98,-442.37 1602.45,-422.58 1678.73,-407.71"/>
<polygon fill="black" stroke="black" points="1679.7,-411.09 1688.85,-405.74 1678.36,-404.22 1679.7,-411.09"/>
</g>
<!-- 3 -->
<g id="node5" class="node">
<title>3</title>
<ellipse fill="orange" stroke="black" cx="605.81" cy="-296.09" rx="130.63" ry="26.74"/>
<text text-anchor="middle" x="605.81" y="-299.89" font-family="Times,serif" font-size="14.00">eauto.</text>
<text text-anchor="middle" x="605.81" y="-284.89" font-family="Times,serif" font-size="14.00">(0.5284756476212908)</text>
</g>
<!-- 2&#45;&gt;3 -->
<g id="edge4" class="edge">
<title>2&#45;&gt;3</title>
<path fill="none" stroke="black" d="M1080.59,-370.98C990.59,-359.24 859.71,-341.41 745.81,-322.96 734.09,-321.06 721.84,-318.96 709.66,-316.81"/>
<polygon fill="black" stroke="black" points="709.93,-313.3 699.47,-314.99 708.7,-320.19 709.93,-313.3"/>
</g>
<!-- 4 -->
<g id="node6" class="node">
<title>4</title>
<ellipse fill="none" stroke="black" cx="885.81" cy="-296.09" rx="130.63" ry="26.74"/>
<text text-anchor="middle" x="885.81" y="-299.89" font-family="Times,serif" font-size="14.00">apply H.</text>
<text text-anchor="middle" x="885.81" y="-284.89" font-family="Times,serif" font-size="14.00">(0.0113885233464634)</text>
</g>
<!-- 2&#45;&gt;4 -->
<g id="edge5" class="edge">
<title>2&#45;&gt;4</title>
<path fill="none" stroke="black" d="M1116.22,-363.59C1071.85,-350.78 1015.19,-334.43 969.17,-321.15"/>
<polygon fill="black" stroke="black" points="970.1,-317.77 959.52,-318.36 968.15,-324.5 970.1,-317.77"/>
</g>
<!-- 9 -->
<g id="node7" class="node">
<title>9</title>
<ellipse fill="none" stroke="black" cx="1487.81" cy="-296.09" rx="149.81" ry="26.74"/>
<text text-anchor="middle" x="1487.81" y="-299.89" font-family="Times,serif" font-size="14.00">eapply H.</text>
<text text-anchor="middle" x="1487.81" y="-284.89" font-family="Times,serif" font-size="14.00">(0.0009577270265805832)</text>
</g>
<!-- 2&#45;&gt;9 -->
<g id="edge6" class="edge">
<title>2&#45;&gt;9</title>
<path fill="none" stroke="black" d="M1262.71,-363.37C1304.92,-350.94 1358.27,-335.23 1402.44,-322.23"/>
<polygon fill="black" stroke="black" points="1403.69,-325.51 1412.3,-319.33 1401.71,-318.79 1403.69,-325.51"/>
</g>
<!-- 14 -->
<g id="node15" class="node">
<title>14</title>
<ellipse fill="#9aff9a" stroke="black" cx="2084.81" cy="-296.09" rx="124.4" ry="26.74"/>
<text text-anchor="middle" x="2084.81" y="-299.89" font-family="Times,serif" font-size="14.00">intros.</text>
<text text-anchor="middle" x="2084.81" y="-284.89" font-family="Times,serif" font-size="14.00">(0.991274158358506)</text>
</g>
<!-- 13&#45;&gt;14 -->
<g id="edge14" class="edge">
<title>13&#45;&gt;14</title>
<path fill="none" stroke="black" d="M1860.88,-362.8C1904.31,-350.06 1959,-334.01 2003.46,-320.96"/>
<polygon fill="black" stroke="black" points="2004.46,-324.32 2013.07,-318.14 2002.49,-317.6 2004.46,-324.32"/>
</g>
<!-- 5 -->
<g id="node8" class="node">
<title>5</title>
<ellipse fill="orange" stroke="black" cx="130.81" cy="-206.35" rx="130.63" ry="26.74"/>
<text text-anchor="middle" x="130.81" y="-210.15" font-family="Times,serif" font-size="14.00">eauto.</text>
<text text-anchor="middle" x="130.81" y="-195.15" font-family="Times,serif" font-size="14.00">(0.3890836093938293)</text>
</g>
<!-- 4&#45;&gt;5 -->
<g id="edge7" class="edge">
<title>4&#45;&gt;5</title>
<path fill="none" stroke="black" d="M794.54,-276.77C778.35,-273.93 761.62,-271.27 745.81,-269.22 535.42,-241.91 480.19,-260.67 269.81,-233.22 257.52,-231.62 244.67,-229.64 231.96,-227.5"/>
<polygon fill="black" stroke="black" points="232.26,-224 221.81,-225.75 231.07,-230.9 232.26,-224"/>
</g>
<!-- 6 -->
<g id="node9" class="node">
<title>6</title>
<ellipse fill="orange" stroke="black" cx="422.81" cy="-206.35" rx="143.59" ry="26.74"/>
<text text-anchor="middle" x="422.81" y="-210.15" font-family="Times,serif" font-size="14.00">try easy.</text>
<text text-anchor="middle" x="422.81" y="-195.15" font-family="Times,serif" font-size="14.00">(0.001435315624904834)</text>
</g>
<!-- 4&#45;&gt;6 -->
<g id="edge8" class="edge">
<title>4&#45;&gt;6</title>
<path fill="none" stroke="black" d="M792.12,-277.33C716.61,-263.02 610.34,-242.89 531.17,-227.88"/>
<polygon fill="black" stroke="black" points="531.64,-224.41 521.16,-225.99 530.34,-231.29 531.64,-224.41"/>
</g>
<!-- 7 -->
<g id="node10" class="node">
<title>7</title>
<ellipse fill="orange" stroke="black" cx="733.81" cy="-206.35" rx="149.81" ry="26.74"/>
<text text-anchor="middle" x="733.81" y="-210.15" font-family="Times,serif" font-size="14.00">apply H.</text>
<text text-anchor="middle" x="733.81" y="-195.15" font-family="Times,serif" font-size="14.00">(0.0005176996141702006)</text>
</g>
<!-- 4&#45;&gt;7 -->
<g id="edge9" class="edge">
<title>4&#45;&gt;7</title>
<path fill="none" stroke="black" d="M843.47,-270.65C825.5,-260.28 804.38,-248.08 785.5,-237.19"/>
<polygon fill="black" stroke="black" points="787.13,-234.08 776.72,-232.12 783.63,-240.15 787.13,-234.08"/>
</g>
<!-- 8 -->
<g id="node11" class="node">
<title>8</title>
<ellipse fill="orange" stroke="black" cx="1047.81" cy="-206.35" rx="145.83" ry="26.74"/>
<text text-anchor="middle" x="1047.81" y="-210.15" font-family="Times,serif" font-size="14.00">eapply H.</text>
<text text-anchor="middle" x="1047.81" y="-195.15" font-family="Times,serif" font-size="14.00">(7.648262550954064e&#45;05)</text>
</g>
<!-- 4&#45;&gt;8 -->
<g id="edge10" class="edge">
<title>4&#45;&gt;8</title>
<path fill="none" stroke="black" d="M930.94,-270.65C950.35,-260.14 973.2,-247.76 993.53,-236.75"/>
<polygon fill="black" stroke="black" points="995.24,-239.8 1002.37,-231.96 991.91,-233.65 995.24,-239.8"/>
</g>
<!-- 10 -->
<g id="node12" class="node">
<title>10</title>
<ellipse fill="orange" stroke="black" cx="1341.81" cy="-206.35" rx="130.63" ry="26.74"/>
<text text-anchor="middle" x="1341.81" y="-210.15" font-family="Times,serif" font-size="14.00">eauto.</text>
<text text-anchor="middle" x="1341.81" y="-195.15" font-family="Times,serif" font-size="14.00">(0.8100227766903727)</text>
</g>
<!-- 9&#45;&gt;10 -->
<g id="edge11" class="edge">
<title>9&#45;&gt;10</title>
<path fill="none" stroke="black" d="M1446.37,-270.18C1429.27,-259.91 1409.31,-247.91 1391.44,-237.17"/>
<polygon fill="black" stroke="black" points="1393.23,-234.17 1382.86,-232.02 1389.63,-240.17 1393.23,-234.17"/>
</g>
<!-- 11 -->
<g id="node13" class="node">
<title>11</title>
<ellipse fill="orange" stroke="black" cx="1633.81" cy="-206.35" rx="143.59" ry="26.74"/>
<text text-anchor="middle" x="1633.81" y="-210.15" font-family="Times,serif" font-size="14.00">try easy.</text>
<text text-anchor="middle" x="1633.81" y="-195.15" font-family="Times,serif" font-size="14.00">(0.013584391256991221)</text>
</g>
<!-- 9&#45;&gt;11 -->
<g id="edge12" class="edge">
<title>9&#45;&gt;11</title>
<path fill="none" stroke="black" d="M1529.26,-270.18C1546.13,-260.04 1565.79,-248.23 1583.47,-237.6"/>
<polygon fill="black" stroke="black" points="1585.75,-240.32 1592.52,-232.17 1582.14,-234.32 1585.75,-240.32"/>
</g>
<!-- 12 -->
<g id="node14" class="node">
<title>12</title>
<ellipse fill="orange" stroke="black" cx="1944.81" cy="-206.35" rx="149.81" ry="26.74"/>
<text text-anchor="middle" x="1944.81" y="-210.15" font-family="Times,serif" font-size="14.00">apply H.</text>
<text text-anchor="middle" x="1944.81" y="-195.15" font-family="Times,serif" font-size="14.00">(0.0024149992808245773)</text>
</g>
<!-- 9&#45;&gt;12 -->
<g id="edge13" class="edge">
<title>9&#45;&gt;12</title>
<path fill="none" stroke="black" d="M1587.54,-275.94C1660.68,-261.9 1759.96,-242.84 1835.3,-228.38"/>
<polygon fill="black" stroke="black" points="1836.14,-231.78 1845.3,-226.46 1834.82,-224.9 1836.14,-231.78"/>
</g>
<!-- 15 -->
<g id="node16" class="node">
<title>15</title>
<ellipse fill="#9aff9a" stroke="black" cx="2243.81" cy="-206.35" rx="130.63" ry="26.74"/>
<text text-anchor="middle" x="2243.81" y="-210.15" font-family="Times,serif" font-size="14.00">elim H0.</text>
<text text-anchor="middle" x="2243.81" y="-195.15" font-family="Times,serif" font-size="14.00">(0.8681269195377971)</text>
</g>
<!-- 14&#45;&gt;15 -->
<g id="edge15" class="edge">
<title>14&#45;&gt;15</title>
<path fill="none" stroke="black" d="M2128.68,-270.88C2147.9,-260.28 2170.62,-247.74 2190.78,-236.62"/>
<polygon fill="black" stroke="black" points="2192.47,-239.68 2199.54,-231.78 2189.09,-233.55 2192.47,-239.68"/>
</g>
<!-- 16 -->
<g id="node17" class="node">
<title>16</title>
<ellipse fill="#9aff9a" stroke="black" cx="2243.81" cy="-116.61" rx="130.63" ry="26.74"/>
<text text-anchor="middle" x="2243.81" y="-120.41" font-family="Times,serif" font-size="14.00">eauto.</text>
<text text-anchor="middle" x="2243.81" y="-105.41" font-family="Times,serif" font-size="14.00">(0.5132470202474475)</text>
</g>
<!-- 15&#45;&gt;16 -->
<g id="edge16" class="edge">
<title>15&#45;&gt;16</title>
<path fill="none" stroke="black" d="M2243.81,-179.03C2243.81,-171.06 2243.81,-162.17 2243.81,-153.68"/>
<polygon fill="black" stroke="black" points="2247.31,-153.61 2243.81,-143.61 2240.31,-153.61 2247.31,-153.61"/>
</g>
<!-- 17 -->
<g id="node18" class="node">
<title>17</title>
<ellipse fill="green" stroke="black" cx="2243.81" cy="-26.87" rx="35.21" ry="26.74"/>
<text text-anchor="middle" x="2243.81" y="-30.67" font-family="Times,serif" font-size="14.00">QED</text>
<text text-anchor="middle" x="2243.81" y="-15.67" font-family="Times,serif" font-size="14.00">(1.0)</text>
</g>
<!-- 16&#45;&gt;17 -->
<g id="edge17" class="edge">
<title>16&#45;&gt;17</title>
<path fill="none" stroke="black" d="M2243.81,-89.29C2243.81,-81.32 2243.81,-72.43 2243.81,-63.94"/>
<polygon fill="green" stroke="black" points="2247.31,-63.87 2243.81,-53.87 2240.31,-63.87 2247.31,-63.87"/>
</g>
</g>
</svg>
