<?xml version="1.0" encoding="UTF-8" standalone="no"?>
<!DOCTYPE svg PUBLIC "-//W3C//DTD SVG 1.1//EN"
 "http://www.w3.org/Graphics/SVG/1.1/DTD/svg11.dtd">
<!-- Generated by graphviz version 2.43.0 (0)
 -->
<!-- Pages: 1 -->
<svg width="2033pt" height="959pt"
 viewBox="0.00 0.00 2033.27 959.14" xmlns="http://www.w3.org/2000/svg" xmlns:xlink="http://www.w3.org/1999/xlink">
<g id="graph0" class="graph" transform="scale(1 1) rotate(0) translate(4 955.14)">
<polygon fill="white" stroke="transparent" points="-4,4 -4,-955.14 2029.27,-955.14 2029.27,4 -4,4"/>
<!-- 0 -->
<g id="node1" class="node">
<title>0</title>
<ellipse fill="none" stroke="black" cx="1147.45" cy="-924.27" rx="69.09" ry="26.74"/>
<text text-anchor="middle" x="1147.45" y="-928.07" font-family="Times,serif" font-size="14.00">pred_succZ</text>
<text text-anchor="middle" x="1147.45" y="-913.07" font-family="Times,serif" font-size="14.00">(1.0)</text>
</g>
<!-- 1 -->
<g id="node2" class="node">
<title>1</title>
<ellipse fill="#9aff9a" stroke="black" cx="1147.45" cy="-834.53" rx="130.63" ry="26.74"/>
<text text-anchor="middle" x="1147.45" y="-838.33" font-family="Times,serif" font-size="14.00">intros.</text>
<text text-anchor="middle" x="1147.45" y="-823.33" font-family="Times,serif" font-size="14.00">(0.9703776324360641)</text>
</g>
<!-- 0&#45;&gt;1 -->
<g id="edge1" class="edge">
<title>0&#45;&gt;1</title>
<path fill="none" stroke="black" d="M1147.45,-896.95C1147.45,-888.98 1147.45,-880.09 1147.45,-871.6"/>
<polygon fill="black" stroke="black" points="1150.95,-871.54 1147.45,-861.54 1143.95,-871.54 1150.95,-871.54"/>
</g>
<!-- 2 -->
<g id="node3" class="node">
<title>2</title>
<ellipse fill="#9aff9a" stroke="black" cx="1147.45" cy="-744.79" rx="130.63" ry="26.74"/>
<text text-anchor="middle" x="1147.45" y="-748.59" font-family="Times,serif" font-size="14.00">unfold predZ.</text>
<text text-anchor="middle" x="1147.45" y="-733.59" font-family="Times,serif" font-size="14.00">(0.6863148447647835)</text>
</g>
<!-- 1&#45;&gt;2 -->
<g id="edge2" class="edge">
<title>1&#45;&gt;2</title>
<path fill="none" stroke="black" d="M1147.45,-807.21C1147.45,-799.24 1147.45,-790.35 1147.45,-781.86"/>
<polygon fill="black" stroke="black" points="1150.95,-781.79 1147.45,-771.79 1143.95,-781.8 1150.95,-781.79"/>
</g>
<!-- 3 -->
<g id="node4" class="node">
<title>3</title>
<ellipse fill="none" stroke="black" cx="1004.45" cy="-655.05" rx="137.36" ry="26.74"/>
<text text-anchor="middle" x="1004.45" y="-658.85" font-family="Times,serif" font-size="14.00">destruct succZ.</text>
<text text-anchor="middle" x="1004.45" y="-643.85" font-family="Times,serif" font-size="14.00">(0.10728725181064712)</text>
</g>
<!-- 2&#45;&gt;3 -->
<g id="edge3" class="edge">
<title>2&#45;&gt;3</title>
<path fill="none" stroke="black" d="M1107.24,-719.12C1090.63,-708.93 1071.23,-697.02 1053.78,-686.32"/>
<polygon fill="black" stroke="black" points="1055.21,-683.09 1044.86,-680.84 1051.55,-689.06 1055.21,-683.09"/>
</g>
<!-- 13 -->
<g id="node5" class="node">
<title>13</title>
<ellipse fill="#9aff9a" stroke="black" cx="1520.45" cy="-655.05" rx="130.63" ry="26.74"/>
<text text-anchor="middle" x="1520.45" y="-658.85" font-family="Times,serif" font-size="14.00">destruct x.</text>
<text text-anchor="middle" x="1520.45" y="-643.85" font-family="Times,serif" font-size="14.00">(0.0933435464697202)</text>
</g>
<!-- 2&#45;&gt;13 -->
<g id="edge4" class="edge">
<title>2&#45;&gt;13</title>
<path fill="none" stroke="black" d="M1231.16,-724.1C1289.25,-710.44 1366.69,-692.22 1426.82,-678.07"/>
<polygon fill="black" stroke="black" points="1427.77,-681.45 1436.7,-675.75 1426.16,-674.63 1427.77,-681.45"/>
</g>
<!-- 4 -->
<g id="node6" class="node">
<title>4</title>
<ellipse fill="orange" stroke="black" cx="270.45" cy="-565.31" rx="124.4" ry="26.74"/>
<text text-anchor="middle" x="270.45" y="-569.11" font-family="Times,serif" font-size="14.00">eauto.</text>
<text text-anchor="middle" x="270.45" y="-554.11" font-family="Times,serif" font-size="14.00">(0.621026453390803)</text>
</g>
<!-- 3&#45;&gt;4 -->
<g id="edge5" class="edge">
<title>3&#45;&gt;4</title>
<path fill="none" stroke="black" d="M878.28,-644.37C756.39,-634.24 566.74,-616.42 403.45,-592.18 391.91,-590.47 379.84,-588.45 367.89,-586.3"/>
<polygon fill="black" stroke="black" points="368.36,-582.83 357.9,-584.48 367.11,-589.72 368.36,-582.83"/>
</g>
<!-- 5 -->
<g id="node7" class="node">
<title>5</title>
<ellipse fill="none" stroke="black" cx="556.45" cy="-565.31" rx="143.59" ry="26.74"/>
<text text-anchor="middle" x="556.45" y="-569.11" font-family="Times,serif" font-size="14.00">destruct x.</text>
<text text-anchor="middle" x="556.45" y="-554.11" font-family="Times,serif" font-size="14.00">(0.042819992960534535)</text>
</g>
<!-- 3&#45;&gt;5 -->
<g id="edge6" class="edge">
<title>3&#45;&gt;5</title>
<path fill="none" stroke="black" d="M909.99,-635.55C837.76,-621.4 738.15,-601.9 663.06,-587.19"/>
<polygon fill="black" stroke="black" points="663.59,-583.73 653.1,-585.24 662.24,-590.6 663.59,-583.73"/>
</g>
<!-- 10 -->
<g id="node8" class="node">
<title>10</title>
<ellipse fill="orange" stroke="black" cx="855.45" cy="-565.31" rx="137.36" ry="26.74"/>
<text text-anchor="middle" x="855.45" y="-569.11" font-family="Times,serif" font-size="14.00">simpl.</text>
<text text-anchor="middle" x="855.45" y="-554.11" font-family="Times,serif" font-size="14.00">(0.03147535396561295)</text>
</g>
<!-- 3&#45;&gt;10 -->
<g id="edge7" class="edge">
<title>3&#45;&gt;10</title>
<path fill="none" stroke="black" d="M962.55,-629.38C945.02,-619.05 924.49,-606.96 906.12,-596.15"/>
<polygon fill="black" stroke="black" points="907.69,-593.01 897.3,-590.95 904.14,-599.04 907.69,-593.01"/>
</g>
<!-- 11 -->
<g id="node9" class="node">
<title>11</title>
<ellipse fill="orange" stroke="black" cx="1154.45" cy="-565.31" rx="143.59" ry="26.74"/>
<text text-anchor="middle" x="1154.45" y="-569.11" font-family="Times,serif" font-size="14.00">subst.</text>
<text text-anchor="middle" x="1154.45" y="-554.11" font-family="Times,serif" font-size="14.00">(0.009932607198039003)</text>
</g>
<!-- 3&#45;&gt;11 -->
<g id="edge8" class="edge">
<title>3&#45;&gt;11</title>
<path fill="none" stroke="black" d="M1046.63,-629.38C1064.21,-619.1 1084.78,-607.07 1103.21,-596.28"/>
<polygon fill="black" stroke="black" points="1105.2,-599.17 1112.07,-591.1 1101.67,-593.13 1105.2,-599.17"/>
</g>
<!-- 12 -->
<g id="node10" class="node">
<title>12</title>
<ellipse fill="orange" stroke="black" cx="1459.45" cy="-565.31" rx="143.59" ry="26.74"/>
<text text-anchor="middle" x="1459.45" y="-569.11" font-family="Times,serif" font-size="14.00">destruct O.</text>
<text text-anchor="middle" x="1459.45" y="-554.11" font-family="Times,serif" font-size="14.00">(0.007999980204839384)</text>
</g>
<!-- 3&#45;&gt;12 -->
<g id="edge9" class="edge">
<title>3&#45;&gt;12</title>
<path fill="none" stroke="black" d="M1099.83,-635.66C1173.4,-621.47 1275.18,-601.84 1351.69,-587.09"/>
<polygon fill="black" stroke="black" points="1352.68,-590.46 1361.84,-585.13 1351.36,-583.59 1352.68,-590.46"/>
</g>
<!-- 14 -->
<g id="node15" class="node">
<title>14</title>
<ellipse fill="#9aff9a" stroke="black" cx="1751.45" cy="-565.31" rx="130.63" ry="26.74"/>
<text text-anchor="middle" x="1751.45" y="-569.11" font-family="Times,serif" font-size="14.00">eauto.</text>
<text text-anchor="middle" x="1751.45" y="-554.11" font-family="Times,serif" font-size="14.00">(0.8935799730328106)</text>
</g>
<!-- 13&#45;&gt;14 -->
<g id="edge14" class="edge">
<title>13&#45;&gt;14</title>
<path fill="none" stroke="black" d="M1580.84,-631.11C1611.61,-619.43 1649.2,-605.15 1681.25,-592.97"/>
<polygon fill="black" stroke="black" points="1682.91,-596.09 1691.01,-589.27 1680.42,-589.55 1682.91,-596.09"/>
</g>
<!-- 6 -->
<g id="node11" class="node">
<title>6</title>
<ellipse fill="orange" stroke="black" cx="124.45" cy="-475.57" rx="124.4" ry="26.74"/>
<text text-anchor="middle" x="124.45" y="-479.37" font-family="Times,serif" font-size="14.00">eauto.</text>
<text text-anchor="middle" x="124.45" y="-464.37" font-family="Times,serif" font-size="14.00">(0.914844590634407)</text>
</g>
<!-- 5&#45;&gt;6 -->
<g id="edge10" class="edge">
<title>5&#45;&gt;6</title>
<path fill="none" stroke="black" d="M461.65,-545.06C390.84,-530.67 294.34,-511.08 222.71,-496.53"/>
<polygon fill="black" stroke="black" points="223.27,-493.07 212.78,-494.51 221.88,-499.93 223.27,-493.07"/>
</g>
<!-- 7 -->
<g id="node12" class="node">
<title>7</title>
<ellipse fill="orange" stroke="black" cx="404.45" cy="-475.57" rx="137.36" ry="26.74"/>
<text text-anchor="middle" x="404.45" y="-479.37" font-family="Times,serif" font-size="14.00">simpl.</text>
<text text-anchor="middle" x="404.45" y="-464.37" font-family="Times,serif" font-size="14.00">(0.00759487978278989)</text>
</g>
<!-- 5&#45;&gt;7 -->
<g id="edge11" class="edge">
<title>5&#45;&gt;7</title>
<path fill="none" stroke="black" d="M513.71,-539.64C495.74,-529.27 474.69,-517.11 455.88,-506.26"/>
<polygon fill="black" stroke="black" points="457.55,-503.18 447.14,-501.21 454.05,-509.24 457.55,-503.18"/>
</g>
<!-- 8 -->
<g id="node13" class="node">
<title>8</title>
<ellipse fill="orange" stroke="black" cx="709.45" cy="-475.57" rx="149.81" ry="26.74"/>
<text text-anchor="middle" x="709.45" y="-479.37" font-family="Times,serif" font-size="14.00">intuition.</text>
<text text-anchor="middle" x="709.45" y="-464.37" font-family="Times,serif" font-size="14.00">(0.0013270468068698972)</text>
</g>
<!-- 5&#45;&gt;8 -->
<g id="edge12" class="edge">
<title>5&#45;&gt;8</title>
<path fill="none" stroke="black" d="M599.48,-539.64C617.48,-529.31 638.57,-517.22 657.44,-506.4"/>
<polygon fill="black" stroke="black" points="659.28,-509.37 666.22,-501.36 655.8,-503.3 659.28,-509.37"/>
</g>
<!-- 9 -->
<g id="node14" class="node">
<title>9</title>
<ellipse fill="orange" stroke="black" cx="1029.45" cy="-475.57" rx="152.06" ry="26.74"/>
<text text-anchor="middle" x="1029.45" y="-479.37" font-family="Times,serif" font-size="14.00">destruct OZ.</text>
<text text-anchor="middle" x="1029.45" y="-464.37" font-family="Times,serif" font-size="14.00">(4.0093314561077006e&#45;05)</text>
</g>
<!-- 5&#45;&gt;9 -->
<g id="edge13" class="edge">
<title>5&#45;&gt;9</title>
<path fill="none" stroke="black" d="M655.9,-545.86C732.29,-531.69 837.83,-512.12 917.24,-497.39"/>
<polygon fill="black" stroke="black" points="918.09,-500.79 927.28,-495.52 916.81,-493.91 918.09,-500.79"/>
</g>
<!-- 15 -->
<g id="node16" class="node">
<title>15</title>
<ellipse fill="#9aff9a" stroke="black" cx="1751.45" cy="-475.57" rx="137.36" ry="26.74"/>
<text text-anchor="middle" x="1751.45" y="-479.37" font-family="Times,serif" font-size="14.00">reflexivity.</text>
<text text-anchor="middle" x="1751.45" y="-464.37" font-family="Times,serif" font-size="14.00">(0.42806030582573823)</text>
</g>
<!-- 14&#45;&gt;15 -->
<g id="edge15" class="edge">
<title>14&#45;&gt;15</title>
<path fill="none" stroke="black" d="M1751.45,-537.99C1751.45,-530.02 1751.45,-521.13 1751.45,-512.64"/>
<polygon fill="black" stroke="black" points="1754.95,-512.57 1751.45,-502.57 1747.95,-512.57 1754.95,-512.57"/>
</g>
<!-- 16 -->
<g id="node17" class="node">
<title>16</title>
<ellipse fill="#9aff9a" stroke="black" cx="1751.45" cy="-385.83" rx="130.63" ry="26.74"/>
<text text-anchor="middle" x="1751.45" y="-389.63" font-family="Times,serif" font-size="14.00">simpl.</text>
<text text-anchor="middle" x="1751.45" y="-374.63" font-family="Times,serif" font-size="14.00">(0.3509905853573937)</text>
</g>
<!-- 15&#45;&gt;16 -->
<g id="edge16" class="edge">
<title>15&#45;&gt;16</title>
<path fill="none" stroke="black" d="M1751.45,-448.25C1751.45,-440.28 1751.45,-431.39 1751.45,-422.9"/>
<polygon fill="black" stroke="black" points="1754.95,-422.83 1751.45,-412.83 1747.95,-422.83 1754.95,-422.83"/>
</g>
<!-- 17 -->
<g id="node18" class="node">
<title>17</title>
<ellipse fill="orange" stroke="black" cx="1608.45" cy="-296.09" rx="137.36" ry="26.74"/>
<text text-anchor="middle" x="1608.45" y="-299.89" font-family="Times,serif" font-size="14.00">intros.</text>
<text text-anchor="middle" x="1608.45" y="-284.89" font-family="Times,serif" font-size="14.00">(0.31029119065162103)</text>
</g>
<!-- 16&#45;&gt;17 -->
<g id="edge17" class="edge">
<title>16&#45;&gt;17</title>
<path fill="none" stroke="black" d="M1711.24,-360.16C1694.63,-349.97 1675.23,-338.06 1657.78,-327.36"/>
<polygon fill="black" stroke="black" points="1659.21,-324.13 1648.86,-321.88 1655.55,-330.1 1659.21,-324.13"/>
</g>
<!-- 18 -->
<g id="node19" class="node">
<title>18</title>
<ellipse fill="#9aff9a" stroke="black" cx="1894.45" cy="-296.09" rx="130.63" ry="26.74"/>
<text text-anchor="middle" x="1894.45" y="-299.89" font-family="Times,serif" font-size="14.00">destruct n.</text>
<text text-anchor="middle" x="1894.45" y="-284.89" font-family="Times,serif" font-size="14.00">(0.1856390172151222)</text>
</g>
<!-- 16&#45;&gt;18 -->
<g id="edge18" class="edge">
<title>16&#45;&gt;18</title>
<path fill="none" stroke="black" d="M1791.66,-360.16C1808.27,-349.97 1827.67,-338.06 1845.12,-327.36"/>
<polygon fill="black" stroke="black" points="1847.35,-330.1 1854.04,-321.88 1843.69,-324.13 1847.35,-330.1"/>
</g>
<!-- 19 -->
<g id="node20" class="node">
<title>19</title>
<ellipse fill="#9aff9a" stroke="black" cx="1894.45" cy="-206.35" rx="130.63" ry="26.74"/>
<text text-anchor="middle" x="1894.45" y="-210.15" font-family="Times,serif" font-size="14.00">eauto.</text>
<text text-anchor="middle" x="1894.45" y="-195.15" font-family="Times,serif" font-size="14.00">(0.8665963903789825)</text>
</g>
<!-- 18&#45;&gt;19 -->
<g id="edge19" class="edge">
<title>18&#45;&gt;19</title>
<path fill="none" stroke="black" d="M1894.45,-268.77C1894.45,-260.8 1894.45,-251.91 1894.45,-243.42"/>
<polygon fill="black" stroke="black" points="1897.95,-243.35 1894.45,-233.35 1890.95,-243.35 1897.95,-243.35"/>
</g>
<!-- 20 -->
<g id="node21" class="node">
<title>20</title>
<ellipse fill="#9aff9a" stroke="black" cx="1894.45" cy="-116.61" rx="130.63" ry="26.74"/>
<text text-anchor="middle" x="1894.45" y="-120.41" font-family="Times,serif" font-size="14.00">eauto.</text>
<text text-anchor="middle" x="1894.45" y="-105.41" font-family="Times,serif" font-size="14.00">(0.6973048552812336)</text>
</g>
<!-- 19&#45;&gt;20 -->
<g id="edge20" class="edge">
<title>19&#45;&gt;20</title>
<path fill="none" stroke="black" d="M1894.45,-179.03C1894.45,-171.06 1894.45,-162.17 1894.45,-153.68"/>
<polygon fill="black" stroke="black" points="1897.95,-153.61 1894.45,-143.61 1890.95,-153.61 1897.95,-153.61"/>
</g>
<!-- 21 -->
<g id="node22" class="node">
<title>21</title>
<ellipse fill="green" stroke="black" cx="1894.45" cy="-26.87" rx="35.21" ry="26.74"/>
<text text-anchor="middle" x="1894.45" y="-30.67" font-family="Times,serif" font-size="14.00">QED</text>
<text text-anchor="middle" x="1894.45" y="-15.67" font-family="Times,serif" font-size="14.00">(1.0)</text>
</g>
<!-- 20&#45;&gt;21 -->
<g id="edge21" class="edge">
<title>20&#45;&gt;21</title>
<path fill="none" stroke="black" d="M1894.45,-89.29C1894.45,-81.32 1894.45,-72.43 1894.45,-63.94"/>
<polygon fill="green" stroke="black" points="1897.95,-63.87 1894.45,-53.87 1890.95,-63.87 1897.95,-63.87"/>
</g>
</g>
</svg>
