<?xml version="1.0" encoding="UTF-8" standalone="no"?>
<!DOCTYPE svg PUBLIC "-//W3C//DTD SVG 1.1//EN"
 "http://www.w3.org/Graphics/SVG/1.1/DTD/svg11.dtd">
<!-- Generated by graphviz version 2.43.0 (0)
 -->
<!-- Pages: 1 -->
<svg width="4993pt" height="690pt"
 viewBox="0.00 0.00 4992.72 689.92" xmlns="http://www.w3.org/2000/svg" xmlns:xlink="http://www.w3.org/1999/xlink">
<g id="graph0" class="graph" transform="scale(1 1) rotate(0) translate(4 685.92)">
<polygon fill="white" stroke="transparent" points="-4,4 -4,-685.92 4988.72,-685.92 4988.72,4 -4,4"/>
<!-- 0 -->
<g id="node1" class="node">
<title>0</title>
<ellipse fill="none" stroke="black" cx="2596.81" cy="-655.05" rx="97.66" ry="26.74"/>
<text text-anchor="middle" x="2596.81" y="-658.85" font-family="Times,serif" font-size="14.00">tech_succ_posOZ</text>
<text text-anchor="middle" x="2596.81" y="-643.85" font-family="Times,serif" font-size="14.00">(1.0)</text>
</g>
<!-- 1 -->
<g id="node2" class="node">
<title>1</title>
<ellipse fill="#9aff9a" stroke="black" cx="2596.81" cy="-565.31" rx="130.63" ry="26.74"/>
<text text-anchor="middle" x="2596.81" y="-569.11" font-family="Times,serif" font-size="14.00">intros.</text>
<text text-anchor="middle" x="2596.81" y="-554.11" font-family="Times,serif" font-size="14.00">(0.9487423339541328)</text>
</g>
<!-- 0&#45;&gt;1 -->
<g id="edge1" class="edge">
<title>0&#45;&gt;1</title>
<path fill="none" stroke="black" d="M2596.81,-627.73C2596.81,-619.76 2596.81,-610.87 2596.81,-602.38"/>
<polygon fill="black" stroke="black" points="2600.31,-602.31 2596.81,-592.31 2593.31,-602.31 2600.31,-602.31"/>
</g>
<!-- 2 -->
<g id="node3" class="node">
<title>2</title>
<ellipse fill="orange" stroke="black" cx="2310.81" cy="-475.57" rx="130.63" ry="26.74"/>
<text text-anchor="middle" x="2310.81" y="-479.37" font-family="Times,serif" font-size="14.00">eauto.</text>
<text text-anchor="middle" x="2310.81" y="-464.37" font-family="Times,serif" font-size="14.00">(0.2591866418358351)</text>
</g>
<!-- 1&#45;&gt;2 -->
<g id="edge2" class="edge">
<title>1&#45;&gt;2</title>
<path fill="none" stroke="black" d="M2526.12,-542.62C2485.3,-530.1 2433.81,-514.3 2391.42,-501.3"/>
<polygon fill="black" stroke="black" points="2392.28,-497.9 2381.69,-498.31 2390.22,-504.59 2392.28,-497.9"/>
</g>
<!-- 3 -->
<g id="node4" class="node">
<title>3</title>
<ellipse fill="none" stroke="black" cx="2596.81" cy="-475.57" rx="137.36" ry="26.74"/>
<text text-anchor="middle" x="2596.81" y="-479.37" font-family="Times,serif" font-size="14.00">unfold succZ.</text>
<text text-anchor="middle" x="2596.81" y="-464.37" font-family="Times,serif" font-size="14.00">(0.14372066223209295)</text>
</g>
<!-- 1&#45;&gt;3 -->
<g id="edge3" class="edge">
<title>1&#45;&gt;3</title>
<path fill="none" stroke="black" d="M2596.81,-537.99C2596.81,-530.02 2596.81,-521.13 2596.81,-512.64"/>
<polygon fill="black" stroke="black" points="2600.31,-512.57 2596.81,-502.57 2593.31,-512.57 2600.31,-512.57"/>
</g>
<!-- 48 -->
<g id="node5" class="node">
<title>48</title>
<ellipse fill="#9aff9a" stroke="black" cx="3245.81" cy="-475.57" rx="137.36" ry="26.74"/>
<text text-anchor="middle" x="3245.81" y="-479.37" font-family="Times,serif" font-size="14.00">rewrite &lt;&#45; succ_predZ.</text>
<text text-anchor="middle" x="3245.81" y="-464.37" font-family="Times,serif" font-size="14.00">(0.06575634338706272)</text>
</g>
<!-- 1&#45;&gt;48 -->
<g id="edge4" class="edge">
<title>1&#45;&gt;48</title>
<path fill="none" stroke="black" d="M2703.98,-549.82C2819.89,-534.15 3004.27,-509.23 3125.18,-492.88"/>
<polygon fill="black" stroke="black" points="3125.79,-496.33 3135.23,-491.52 3124.85,-489.39 3125.79,-496.33"/>
</g>
<!-- 4 -->
<g id="node6" class="node">
<title>4</title>
<ellipse fill="none" stroke="black" cx="1123.81" cy="-385.83" rx="137.36" ry="26.74"/>
<text text-anchor="middle" x="1123.81" y="-389.63" font-family="Times,serif" font-size="14.00">unfold posOZ.</text>
<text text-anchor="middle" x="1123.81" y="-374.63" font-family="Times,serif" font-size="14.00">(0.08188179471797002)</text>
</g>
<!-- 3&#45;&gt;4 -->
<g id="edge5" class="edge">
<title>3&#45;&gt;4</title>
<path fill="none" stroke="black" d="M2502.84,-455.92C2485.6,-453.07 2467.71,-450.48 2450.81,-448.7 1994.4,-400.54 1876.9,-440.76 1418.81,-412.7 1364.93,-409.4 1305.62,-404.46 1254.4,-399.77"/>
<polygon fill="black" stroke="black" points="1254.55,-396.27 1244.27,-398.84 1253.91,-403.24 1254.55,-396.27"/>
</g>
<!-- 6 -->
<g id="node7" class="node">
<title>6</title>
<ellipse fill="none" stroke="black" cx="1564.81" cy="-385.83" rx="137.36" ry="26.74"/>
<text text-anchor="middle" x="1564.81" y="-389.63" font-family="Times,serif" font-size="14.00">unfold IZ.</text>
<text text-anchor="middle" x="1564.81" y="-374.63" font-family="Times,serif" font-size="14.00">(0.03701101220426514)</text>
</g>
<!-- 3&#45;&gt;6 -->
<g id="edge6" class="edge">
<title>3&#45;&gt;6</title>
<path fill="none" stroke="black" d="M2501.61,-456.21C2484.74,-453.38 2467.29,-450.73 2450.81,-448.7 2190.35,-416.62 1884.61,-399.85 1708.91,-392.21"/>
<polygon fill="black" stroke="black" points="1708.97,-388.71 1698.83,-391.78 1708.67,-395.7 1708.97,-388.71"/>
</g>
<!-- 23 -->
<g id="node8" class="node">
<title>23</title>
<ellipse fill="none" stroke="black" cx="2447.81" cy="-385.83" rx="137.36" ry="26.74"/>
<text text-anchor="middle" x="2447.81" y="-389.63" font-family="Times,serif" font-size="14.00">case posOZ.</text>
<text text-anchor="middle" x="2447.81" y="-374.63" font-family="Times,serif" font-size="14.00">(0.03460823313309741)</text>
</g>
<!-- 3&#45;&gt;23 -->
<g id="edge7" class="edge">
<title>3&#45;&gt;23</title>
<path fill="none" stroke="black" d="M2554.91,-449.9C2537.38,-439.57 2516.85,-427.48 2498.48,-416.67"/>
<polygon fill="black" stroke="black" points="2500.05,-413.53 2489.66,-411.47 2496.5,-419.56 2500.05,-413.53"/>
</g>
<!-- 46 -->
<g id="node9" class="node">
<title>46</title>
<ellipse fill="orange" stroke="black" cx="2746.81" cy="-385.83" rx="143.59" ry="26.74"/>
<text text-anchor="middle" x="2746.81" y="-389.63" font-family="Times,serif" font-size="14.00">simpl.</text>
<text text-anchor="middle" x="2746.81" y="-374.63" font-family="Times,serif" font-size="14.00">(0.030586517593770703)</text>
</g>
<!-- 3&#45;&gt;46 -->
<g id="edge8" class="edge">
<title>3&#45;&gt;46</title>
<path fill="none" stroke="black" d="M2639,-449.9C2656.57,-439.62 2677.14,-427.59 2695.57,-416.8"/>
<polygon fill="black" stroke="black" points="2697.56,-419.69 2704.43,-411.62 2694.03,-413.65 2697.56,-419.69"/>
</g>
<!-- 47 -->
<g id="node10" class="node">
<title>47</title>
<ellipse fill="orange" stroke="black" cx="3051.81" cy="-385.83" rx="143.59" ry="26.74"/>
<text text-anchor="middle" x="3051.81" y="-389.63" font-family="Times,serif" font-size="14.00">eauto.</text>
<text text-anchor="middle" x="3051.81" y="-374.63" font-family="Times,serif" font-size="14.00">(0.019072014752771888)</text>
</g>
<!-- 3&#45;&gt;47 -->
<g id="edge9" class="edge">
<title>3&#45;&gt;47</title>
<path fill="none" stroke="black" d="M2692.2,-456.18C2765.77,-441.99 2867.55,-422.36 2944.06,-407.61"/>
<polygon fill="black" stroke="black" points="2945.05,-410.98 2954.2,-405.65 2943.72,-404.11 2945.05,-410.98"/>
</g>
<!-- 49 -->
<g id="node50" class="node">
<title>49</title>
<ellipse fill="#9aff9a" stroke="black" cx="3454.81" cy="-385.83" rx="137.36" ry="26.74"/>
<text text-anchor="middle" x="3454.81" y="-389.63" font-family="Times,serif" font-size="14.00">eauto.</text>
<text text-anchor="middle" x="3454.81" y="-374.63" font-family="Times,serif" font-size="14.00">(0.49248331867449513)</text>
</g>
<!-- 48&#45;&gt;49 -->
<g id="edge49" class="edge">
<title>48&#45;&gt;49</title>
<path fill="none" stroke="black" d="M3302.1,-450.94C3328.93,-439.68 3361.19,-426.14 3389.13,-414.4"/>
<polygon fill="black" stroke="black" points="3390.57,-417.6 3398.43,-410.5 3387.86,-411.14 3390.57,-417.6"/>
</g>
<!-- 5 -->
<g id="node11" class="node">
<title>5</title>
<ellipse fill="orange" stroke="black" cx="973.81" cy="-296.09" rx="137.36" ry="26.74"/>
<text text-anchor="middle" x="973.81" y="-299.89" font-family="Times,serif" font-size="14.00">eauto.</text>
<text text-anchor="middle" x="973.81" y="-284.89" font-family="Times,serif" font-size="14.00">(0.02797282226766591)</text>
</g>
<!-- 4&#45;&gt;5 -->
<g id="edge10" class="edge">
<title>4&#45;&gt;5</title>
<path fill="none" stroke="black" d="M1081.63,-360.16C1063.98,-349.83 1043.31,-337.74 1024.82,-326.93"/>
<polygon fill="black" stroke="black" points="1026.34,-323.76 1015.94,-321.73 1022.8,-329.8 1026.34,-323.76"/>
</g>
<!-- 7 -->
<g id="node12" class="node">
<title>7</title>
<ellipse fill="none" stroke="black" cx="1265.81" cy="-296.09" rx="137.36" ry="26.74"/>
<text text-anchor="middle" x="1265.81" y="-299.89" font-family="Times,serif" font-size="14.00">unfold posOZ.</text>
<text text-anchor="middle" x="1265.81" y="-284.89" font-family="Times,serif" font-size="14.00">(0.09251381263816931)</text>
</g>
<!-- 6&#45;&gt;7 -->
<g id="edge11" class="edge">
<title>6&#45;&gt;7</title>
<path fill="none" stroke="black" d="M1490.9,-363.14C1447.97,-350.54 1393.74,-334.63 1349.27,-321.58"/>
<polygon fill="black" stroke="black" points="1350.23,-318.21 1339.65,-318.76 1348.26,-324.93 1350.23,-318.21"/>
</g>
<!-- 9 -->
<g id="node13" class="node">
<title>9</title>
<ellipse fill="none" stroke="black" cx="1564.81" cy="-296.09" rx="143.59" ry="26.74"/>
<text text-anchor="middle" x="1564.81" y="-299.89" font-family="Times,serif" font-size="14.00">case posOZ.</text>
<text text-anchor="middle" x="1564.81" y="-284.89" font-family="Times,serif" font-size="14.00">(0.039140418203389246)</text>
</g>
<!-- 6&#45;&gt;9 -->
<g id="edge12" class="edge">
<title>6&#45;&gt;9</title>
<path fill="none" stroke="black" d="M1564.81,-358.51C1564.81,-350.54 1564.81,-341.65 1564.81,-333.16"/>
<polygon fill="black" stroke="black" points="1568.31,-333.09 1564.81,-323.09 1561.31,-333.09 1568.31,-333.09"/>
</g>
<!-- 24 -->
<g id="node28" class="node">
<title>24</title>
<ellipse fill="orange" stroke="black" cx="1862.81" cy="-296.09" rx="130.63" ry="26.74"/>
<text text-anchor="middle" x="1862.81" y="-299.89" font-family="Times,serif" font-size="14.00">eauto.</text>
<text text-anchor="middle" x="1862.81" y="-284.89" font-family="Times,serif" font-size="14.00">(0.6080028556203211)</text>
</g>
<!-- 23&#45;&gt;24 -->
<g id="edge27" class="edge">
<title>23&#45;&gt;24</title>
<path fill="none" stroke="black" d="M2334.67,-370.51C2244.6,-358.78 2115.42,-341.18 2002.81,-322.96 1991.09,-321.06 1978.84,-318.97 1966.66,-316.81"/>
<polygon fill="black" stroke="black" points="1966.93,-313.31 1956.47,-314.99 1965.7,-320.2 1966.93,-313.31"/>
</g>
<!-- 25 -->
<g id="node29" class="node">
<title>25</title>
<ellipse fill="orange" stroke="black" cx="2148.81" cy="-296.09" rx="137.36" ry="26.74"/>
<text text-anchor="middle" x="2148.81" y="-299.89" font-family="Times,serif" font-size="14.00">try discriminate.</text>
<text text-anchor="middle" x="2148.81" y="-284.89" font-family="Times,serif" font-size="14.00">(0.22496256035121895)</text>
</g>
<!-- 23&#45;&gt;25 -->
<g id="edge28" class="edge">
<title>23&#45;&gt;25</title>
<path fill="none" stroke="black" d="M2373.9,-363.14C2330.97,-350.54 2276.74,-334.63 2232.27,-321.58"/>
<polygon fill="black" stroke="black" points="2233.23,-318.21 2222.65,-318.76 2231.26,-324.93 2233.23,-318.21"/>
</g>
<!-- 26 -->
<g id="node30" class="node">
<title>26</title>
<ellipse fill="none" stroke="black" cx="2447.81" cy="-296.09" rx="143.59" ry="26.74"/>
<text text-anchor="middle" x="2447.81" y="-299.89" font-family="Times,serif" font-size="14.00">destruct n.</text>
<text text-anchor="middle" x="2447.81" y="-284.89" font-family="Times,serif" font-size="14.00">(0.020845063276220002)</text>
</g>
<!-- 23&#45;&gt;26 -->
<g id="edge29" class="edge">
<title>23&#45;&gt;26</title>
<path fill="none" stroke="black" d="M2447.81,-358.51C2447.81,-350.54 2447.81,-341.65 2447.81,-333.16"/>
<polygon fill="black" stroke="black" points="2451.31,-333.09 2447.81,-323.09 2444.31,-333.09 2451.31,-333.09"/>
</g>
<!-- 33 -->
<g id="node31" class="node">
<title>33</title>
<ellipse fill="orange" stroke="black" cx="2752.81" cy="-296.09" rx="143.59" ry="26.74"/>
<text text-anchor="middle" x="2752.81" y="-299.89" font-family="Times,serif" font-size="14.00">simpl.</text>
<text text-anchor="middle" x="2752.81" y="-284.89" font-family="Times,serif" font-size="14.00">(0.008180518403542402)</text>
</g>
<!-- 23&#45;&gt;33 -->
<g id="edge30" class="edge">
<title>23&#45;&gt;33</title>
<path fill="none" stroke="black" d="M2522.82,-363.25C2566.44,-350.7 2621.6,-334.84 2666.96,-321.79"/>
<polygon fill="black" stroke="black" points="2668.14,-325.09 2676.78,-318.96 2666.2,-318.37 2668.14,-325.09"/>
</g>
<!-- 34 -->
<g id="node32" class="node">
<title>34</title>
<ellipse fill="none" stroke="black" cx="3057.81" cy="-296.09" rx="143.59" ry="26.74"/>
<text text-anchor="middle" x="3057.81" y="-299.89" font-family="Times,serif" font-size="14.00">destruct IZ.</text>
<text text-anchor="middle" x="3057.81" y="-284.89" font-family="Times,serif" font-size="14.00">(0.007305119199562259)</text>
</g>
<!-- 23&#45;&gt;34 -->
<g id="edge31" class="edge">
<title>23&#45;&gt;34</title>
<path fill="none" stroke="black" d="M2545.06,-366.75C2561.32,-363.98 2578.02,-361.27 2593.81,-358.96 2731.93,-338.77 2767.63,-342.68 2905.81,-322.96 2918.93,-321.09 2932.65,-318.97 2946.26,-316.78"/>
<polygon fill="black" stroke="black" points="2946.83,-320.23 2956.14,-315.17 2945.71,-313.33 2946.83,-320.23"/>
</g>
<!-- 39 -->
<g id="node33" class="node">
<title>39</title>
<ellipse fill="none" stroke="black" cx="3362.81" cy="-296.09" rx="143.59" ry="26.74"/>
<text text-anchor="middle" x="3362.81" y="-299.89" font-family="Times,serif" font-size="14.00">destruct n.</text>
<text text-anchor="middle" x="3362.81" y="-284.89" font-family="Times,serif" font-size="14.00">(0.007106496789906902)</text>
</g>
<!-- 23&#45;&gt;39 -->
<g id="edge32" class="edge">
<title>23&#45;&gt;39</title>
<path fill="none" stroke="black" d="M2542.61,-366.37C2559.6,-363.54 2577.2,-360.91 2593.81,-358.96 2866.63,-326.94 2937.89,-354.05 3210.81,-322.96 3224.75,-321.37 3239.35,-319.35 3253.76,-317.14"/>
<polygon fill="black" stroke="black" points="3254.36,-320.59 3263.7,-315.58 3253.28,-313.67 3254.36,-320.59"/>
</g>
<!-- 8 -->
<g id="node14" class="node">
<title>8</title>
<ellipse fill="orange" stroke="black" cx="696.81" cy="-206.35" rx="130.63" ry="26.74"/>
<text text-anchor="middle" x="696.81" y="-210.15" font-family="Times,serif" font-size="14.00">eauto.</text>
<text text-anchor="middle" x="696.81" y="-195.15" font-family="Times,serif" font-size="14.00">(0.0817309495949194)</text>
</g>
<!-- 7&#45;&gt;8 -->
<g id="edge13" class="edge">
<title>7&#45;&gt;8</title>
<path fill="none" stroke="black" d="M1168.15,-277.1C1152.02,-274.33 1135.47,-271.6 1119.81,-269.22 994.47,-250.15 962.09,-252.75 836.81,-233.22 824.87,-231.36 812.37,-229.26 799.98,-227.09"/>
<polygon fill="black" stroke="black" points="800.53,-223.63 790.07,-225.34 799.31,-230.53 800.53,-223.63"/>
</g>
<!-- 10 -->
<g id="node15" class="node">
<title>10</title>
<ellipse fill="orange" stroke="black" cx="976.81" cy="-206.35" rx="130.63" ry="26.74"/>
<text text-anchor="middle" x="976.81" y="-210.15" font-family="Times,serif" font-size="14.00">eauto.</text>
<text text-anchor="middle" x="976.81" y="-195.15" font-family="Times,serif" font-size="14.00">(0.6417348727419991)</text>
</g>
<!-- 9&#45;&gt;10 -->
<g id="edge14" class="edge">
<title>9&#45;&gt;10</title>
<path fill="none" stroke="black" d="M1462.87,-277.17C1445.84,-274.38 1428.34,-271.62 1411.81,-269.22 1280.67,-250.17 1246.8,-253.35 1115.81,-233.22 1104.06,-231.41 1091.78,-229.37 1079.59,-227.23"/>
<polygon fill="black" stroke="black" points="1079.85,-223.72 1069.39,-225.42 1078.62,-230.61 1079.85,-223.72"/>
</g>
<!-- 11 -->
<g id="node16" class="node">
<title>11</title>
<ellipse fill="none" stroke="black" cx="1268.81" cy="-206.35" rx="143.59" ry="26.74"/>
<text text-anchor="middle" x="1268.81" y="-210.15" font-family="Times,serif" font-size="14.00">destruct n.</text>
<text text-anchor="middle" x="1268.81" y="-195.15" font-family="Times,serif" font-size="14.00">(0.018600121006926627)</text>
</g>
<!-- 9&#45;&gt;11 -->
<g id="edge15" class="edge">
<title>9&#45;&gt;11</title>
<path fill="none" stroke="black" d="M1490.5,-273.06C1448.63,-260.65 1396.19,-245.11 1352.83,-232.25"/>
<polygon fill="black" stroke="black" points="1353.74,-228.87 1343.16,-229.39 1351.75,-235.58 1353.74,-228.87"/>
</g>
<!-- 18 -->
<g id="node17" class="node">
<title>18</title>
<ellipse fill="none" stroke="black" cx="1573.81" cy="-206.35" rx="143.59" ry="26.74"/>
<text text-anchor="middle" x="1573.81" y="-210.15" font-family="Times,serif" font-size="14.00">f_equal.</text>
<text text-anchor="middle" x="1573.81" y="-195.15" font-family="Times,serif" font-size="14.00">(0.011030227273339067)</text>
</g>
<!-- 9&#45;&gt;18 -->
<g id="edge16" class="edge">
<title>9&#45;&gt;18</title>
<path fill="none" stroke="black" d="M1567.52,-268.77C1568.33,-260.8 1569.24,-251.91 1570.11,-243.42"/>
<polygon fill="black" stroke="black" points="1573.61,-243.66 1571.15,-233.35 1566.65,-242.94 1573.61,-243.66"/>
</g>
<!-- 12 -->
<g id="node18" class="node">
<title>12</title>
<ellipse fill="blue" stroke="black" cx="721.81" cy="-116.61" rx="130.63" ry="26.74"/>
<text text-anchor="middle" x="721.81" y="-120.41" font-family="Times,serif" font-size="14.00">eauto.</text>
<text text-anchor="middle" x="721.81" y="-105.41" font-family="Times,serif" font-size="14.00">(0.8665239756603613)</text>
</g>
<!-- 11&#45;&gt;12 -->
<g id="edge17" class="edge">
<title>11&#45;&gt;12</title>
<path fill="none" stroke="black" d="M1166.27,-187.49C1149.74,-184.73 1132.82,-181.97 1116.81,-179.48 1003.72,-161.88 974.78,-161.88 861.81,-143.48 850.09,-141.57 837.84,-139.47 825.67,-137.31"/>
<polygon fill="black" stroke="black" points="825.94,-133.8 815.48,-135.49 824.7,-140.69 825.94,-133.8"/>
</g>
<!-- 19 -->
<g id="node24" class="node">
<title>19</title>
<ellipse fill="orange" stroke="black" cx="1001.81" cy="-116.61" rx="130.63" ry="26.74"/>
<text text-anchor="middle" x="1001.81" y="-120.41" font-family="Times,serif" font-size="14.00">eauto.</text>
<text text-anchor="middle" x="1001.81" y="-105.41" font-family="Times,serif" font-size="14.00">(0.3237885994966646)</text>
</g>
<!-- 18&#45;&gt;19 -->
<g id="edge23" class="edge">
<title>18&#45;&gt;19</title>
<path fill="none" stroke="black" d="M1471.7,-187.38C1455.05,-184.62 1437.96,-181.89 1421.81,-179.48 1297.72,-160.95 1265.77,-162.89 1141.81,-143.48 1129.87,-141.61 1117.37,-139.51 1104.98,-137.34"/>
<polygon fill="black" stroke="black" points="1105.53,-133.88 1095.07,-135.58 1104.31,-140.77 1105.53,-133.88"/>
</g>
<!-- 20 -->
<g id="node25" class="node">
<title>20</title>
<ellipse fill="orange" stroke="black" cx="1281.81" cy="-116.61" rx="130.63" ry="26.74"/>
<text text-anchor="middle" x="1281.81" y="-120.41" font-family="Times,serif" font-size="14.00">intuition.</text>
<text text-anchor="middle" x="1281.81" y="-105.41" font-family="Times,serif" font-size="14.00">(0.0683091842671702)</text>
</g>
<!-- 18&#45;&gt;20 -->
<g id="edge24" class="edge">
<title>18&#45;&gt;20</title>
<path fill="none" stroke="black" d="M1500.13,-183.21C1458.35,-170.66 1406,-154.92 1363.03,-142.02"/>
<polygon fill="black" stroke="black" points="1364.04,-138.66 1353.46,-139.14 1362.03,-145.37 1364.04,-138.66"/>
</g>
<!-- 21 -->
<g id="node26" class="node">
<title>21</title>
<ellipse fill="none" stroke="black" cx="1573.81" cy="-116.61" rx="143.59" ry="26.74"/>
<text text-anchor="middle" x="1573.81" y="-120.41" font-family="Times,serif" font-size="14.00">symmetry.</text>
<text text-anchor="middle" x="1573.81" y="-105.41" font-family="Times,serif" font-size="14.00">(0.023916841171040436)</text>
</g>
<!-- 18&#45;&gt;21 -->
<g id="edge25" class="edge">
<title>18&#45;&gt;21</title>
<path fill="none" stroke="black" d="M1573.81,-179.03C1573.81,-171.06 1573.81,-162.17 1573.81,-153.68"/>
<polygon fill="black" stroke="black" points="1577.31,-153.61 1573.81,-143.61 1570.31,-153.61 1577.31,-153.61"/>
</g>
<!-- 22 -->
<g id="node27" class="node">
<title>22</title>
<ellipse fill="orange" stroke="black" cx="1884.81" cy="-116.61" rx="149.81" ry="26.74"/>
<text text-anchor="middle" x="1884.81" y="-120.41" font-family="Times,serif" font-size="14.00">f_equal.</text>
<text text-anchor="middle" x="1884.81" y="-105.41" font-family="Times,serif" font-size="14.00">(0.0060379215857710765)</text>
</g>
<!-- 18&#45;&gt;22 -->
<g id="edge26" class="edge">
<title>18&#45;&gt;22</title>
<path fill="none" stroke="black" d="M1651.09,-183.55C1695.43,-171.04 1751.24,-155.29 1797.21,-142.33"/>
<polygon fill="black" stroke="black" points="1798.18,-145.69 1806.86,-139.6 1796.28,-138.95 1798.18,-145.69"/>
</g>
<!-- 13 -->
<g id="node19" class="node">
<title>13</title>
<ellipse fill="orange" stroke="black" cx="130.81" cy="-26.87" rx="130.63" ry="26.74"/>
<text text-anchor="middle" x="130.81" y="-30.67" font-family="Times,serif" font-size="14.00">try discriminate.</text>
<text text-anchor="middle" x="130.81" y="-15.67" font-family="Times,serif" font-size="14.00">(0.9780061342341323)</text>
</g>
<!-- 12&#45;&gt;13 -->
<g id="edge18" class="edge">
<title>12&#45;&gt;13</title>
<path fill="none" stroke="black" d="M611.53,-102.02C519.88,-90.36 386.13,-72.51 269.81,-53.74 258.17,-51.86 246,-49.78 233.92,-47.63"/>
<polygon fill="black" stroke="black" points="234.26,-44.13 223.79,-45.81 233.02,-51.02 234.26,-44.13"/>
</g>
<!-- 14 -->
<g id="node20" class="node">
<title>14</title>
<ellipse fill="orange" stroke="black" cx="422.81" cy="-26.87" rx="143.59" ry="26.74"/>
<text text-anchor="middle" x="422.81" y="-30.67" font-family="Times,serif" font-size="14.00">eauto.</text>
<text text-anchor="middle" x="422.81" y="-15.67" font-family="Times,serif" font-size="14.00">(0.009806016067320554)</text>
</g>
<!-- 12&#45;&gt;14 -->
<g id="edge19" class="edge">
<title>12&#45;&gt;14</title>
<path fill="none" stroke="black" d="M649.05,-94.26C606.3,-81.71 552.05,-65.79 507.39,-52.69"/>
<polygon fill="black" stroke="black" points="508.31,-49.31 497.73,-49.85 506.34,-56.03 508.31,-49.31"/>
</g>
<!-- 15 -->
<g id="node21" class="node">
<title>15</title>
<ellipse fill="orange" stroke="black" cx="721.81" cy="-26.87" rx="137.36" ry="26.74"/>
<text text-anchor="middle" x="721.81" y="-30.67" font-family="Times,serif" font-size="14.00">intuition.</text>
<text text-anchor="middle" x="721.81" y="-15.67" font-family="Times,serif" font-size="14.00">(0.00751786293349796)</text>
</g>
<!-- 12&#45;&gt;15 -->
<g id="edge20" class="edge">
<title>12&#45;&gt;15</title>
<path fill="none" stroke="black" d="M721.81,-89.29C721.81,-81.32 721.81,-72.43 721.81,-63.94"/>
<polygon fill="black" stroke="black" points="725.31,-63.87 721.81,-53.87 718.31,-63.87 725.31,-63.87"/>
</g>
<!-- 16 -->
<g id="node22" class="node">
<title>16</title>
<ellipse fill="orange" stroke="black" cx="1032.81" cy="-26.87" rx="156.04" ry="26.74"/>
<text text-anchor="middle" x="1032.81" y="-30.67" font-family="Times,serif" font-size="14.00">simpl.</text>
<text text-anchor="middle" x="1032.81" y="-15.67" font-family="Times,serif" font-size="14.00">(0.00021931298763497675)</text>
</g>
<!-- 12&#45;&gt;16 -->
<g id="edge21" class="edge">
<title>12&#45;&gt;16</title>
<path fill="none" stroke="black" d="M796.7,-94.48C841.09,-81.96 897.58,-66.02 944.18,-52.88"/>
<polygon fill="black" stroke="black" points="945.29,-56.2 953.96,-50.12 943.39,-49.46 945.29,-56.2"/>
</g>
<!-- 17 -->
<g id="node23" class="node">
<title>17</title>
<ellipse fill="orange" stroke="black" cx="1352.81" cy="-26.87" rx="145.83" ry="26.74"/>
<text text-anchor="middle" x="1352.81" y="-30.67" font-family="Times,serif" font-size="14.00">subst.</text>
<text text-anchor="middle" x="1352.81" y="-15.67" font-family="Times,serif" font-size="14.00">(4.962473134844217e&#45;05)</text>
</g>
<!-- 12&#45;&gt;17 -->
<g id="edge22" class="edge">
<title>12&#45;&gt;17</title>
<path fill="none" stroke="black" d="M814.28,-97.5C830.1,-94.69 846.41,-91.99 861.81,-89.74 1010.43,-68.08 1049.01,-74.11 1197.81,-53.74 1211.41,-51.88 1225.64,-49.75 1239.74,-47.53"/>
<polygon fill="black" stroke="black" points="1240.65,-50.93 1249.98,-45.9 1239.55,-44.02 1240.65,-50.93"/>
</g>
<!-- 27 -->
<g id="node34" class="node">
<title>27</title>
<ellipse fill="blue" stroke="black" cx="2480.81" cy="-206.35" rx="124.4" ry="26.74"/>
<text text-anchor="middle" x="2480.81" y="-210.15" font-family="Times,serif" font-size="14.00">eauto.</text>
<text text-anchor="middle" x="2480.81" y="-195.15" font-family="Times,serif" font-size="14.00">(0.767737653721538)</text>
</g>
<!-- 26&#45;&gt;27 -->
<g id="edge33" class="edge">
<title>26&#45;&gt;27</title>
<path fill="none" stroke="black" d="M2457.54,-269.24C2460.66,-260.92 2464.19,-251.56 2467.52,-242.69"/>
<polygon fill="black" stroke="black" points="2470.8,-243.91 2471.05,-233.32 2464.25,-241.45 2470.8,-243.91"/>
</g>
<!-- 35 -->
<g id="node40" class="node">
<title>35</title>
<ellipse fill="orange" stroke="black" cx="2756.81" cy="-206.35" rx="124.4" ry="26.74"/>
<text text-anchor="middle" x="2756.81" y="-210.15" font-family="Times,serif" font-size="14.00">eauto.</text>
<text text-anchor="middle" x="2756.81" y="-195.15" font-family="Times,serif" font-size="14.00">(0.629785159174917)</text>
</g>
<!-- 34&#45;&gt;35 -->
<g id="edge39" class="edge">
<title>34&#45;&gt;35</title>
<path fill="none" stroke="black" d="M2982.64,-273.18C2938.75,-260.38 2883.36,-244.24 2838.42,-231.14"/>
<polygon fill="black" stroke="black" points="2839.28,-227.74 2828.7,-228.31 2837.33,-234.46 2839.28,-227.74"/>
</g>
<!-- 36 -->
<g id="node41" class="node">
<title>36</title>
<ellipse fill="orange" stroke="black" cx="3029.81" cy="-206.35" rx="130.63" ry="26.74"/>
<text text-anchor="middle" x="3029.81" y="-210.15" font-family="Times,serif" font-size="14.00">intuition.</text>
<text text-anchor="middle" x="3029.81" y="-195.15" font-family="Times,serif" font-size="14.00">(0.1634884808075011)</text>
</g>
<!-- 34&#45;&gt;36 -->
<g id="edge40" class="edge">
<title>34&#45;&gt;36</title>
<path fill="none" stroke="black" d="M3049.57,-269.24C3046.94,-261.01 3043.99,-251.76 3041.18,-242.97"/>
<polygon fill="black" stroke="black" points="3044.48,-241.78 3038.1,-233.32 3037.81,-243.91 3044.48,-241.78"/>
</g>
<!-- 37 -->
<g id="node42" class="node">
<title>37</title>
<ellipse fill="orange" stroke="black" cx="3315.81" cy="-206.35" rx="137.36" ry="26.74"/>
<text text-anchor="middle" x="3315.81" y="-210.15" font-family="Times,serif" font-size="14.00">try discriminate.</text>
<text text-anchor="middle" x="3315.81" y="-195.15" font-family="Times,serif" font-size="14.00">(0.13754872703675255)</text>
</g>
<!-- 34&#45;&gt;37 -->
<g id="edge41" class="edge">
<title>34&#45;&gt;37</title>
<path fill="none" stroke="black" d="M3124.93,-272.27C3160.15,-260.29 3203.44,-245.57 3239.89,-233.17"/>
<polygon fill="black" stroke="black" points="3241.14,-236.44 3249.48,-229.91 3238.89,-229.81 3241.14,-236.44"/>
</g>
<!-- 38 -->
<g id="node43" class="node">
<title>38</title>
<ellipse fill="orange" stroke="black" cx="3607.81" cy="-206.35" rx="137.36" ry="26.74"/>
<text text-anchor="middle" x="3607.81" y="-210.15" font-family="Times,serif" font-size="14.00">simpl.</text>
<text text-anchor="middle" x="3607.81" y="-195.15" font-family="Times,serif" font-size="14.00">(0.00633994345474746)</text>
</g>
<!-- 34&#45;&gt;38 -->
<g id="edge42" class="edge">
<title>34&#45;&gt;38</title>
<path fill="none" stroke="black" d="M3160.37,-277.25C3176.89,-274.49 3193.81,-271.72 3209.81,-269.22 3321.59,-251.73 3350.1,-251.09 3461.81,-233.22 3474.05,-231.26 3486.84,-229.13 3499.56,-226.95"/>
<polygon fill="black" stroke="black" points="3500.46,-230.34 3509.72,-225.2 3499.27,-223.45 3500.46,-230.34"/>
</g>
<!-- 40 -->
<g id="node44" class="node">
<title>40</title>
<ellipse fill="blue" stroke="black" cx="4081.81" cy="-206.35" rx="124.4" ry="26.74"/>
<text text-anchor="middle" x="4081.81" y="-210.15" font-family="Times,serif" font-size="14.00">eauto.</text>
<text text-anchor="middle" x="4081.81" y="-195.15" font-family="Times,serif" font-size="14.00">(0.767737653721538)</text>
</g>
<!-- 39&#45;&gt;40 -->
<g id="edge43" class="edge">
<title>39&#45;&gt;40</title>
<path fill="none" stroke="black" d="M3464.33,-277.07C3481.48,-274.27 3499.14,-271.54 3515.81,-269.22 3667.88,-248.07 3843.76,-229.81 3958.59,-218.72"/>
<polygon fill="black" stroke="black" points="3959.2,-222.18 3968.82,-217.74 3958.53,-215.21 3959.2,-222.18"/>
</g>
<!-- 28 -->
<g id="node35" class="node">
<title>28</title>
<ellipse fill="orange" stroke="black" cx="2183.81" cy="-116.61" rx="130.63" ry="26.74"/>
<text text-anchor="middle" x="2183.81" y="-120.41" font-family="Times,serif" font-size="14.00">eauto.</text>
<text text-anchor="middle" x="2183.81" y="-105.41" font-family="Times,serif" font-size="14.00">(0.3466643377746348)</text>
</g>
<!-- 27&#45;&gt;28 -->
<g id="edge34" class="edge">
<title>27&#45;&gt;28</title>
<path fill="none" stroke="black" d="M2409.3,-184.22C2366.12,-171.47 2310.95,-155.17 2265.98,-141.88"/>
<polygon fill="black" stroke="black" points="2266.84,-138.49 2256.26,-139.01 2264.86,-145.2 2266.84,-138.49"/>
</g>
<!-- 29 -->
<g id="node36" class="node">
<title>29</title>
<ellipse fill="orange" stroke="black" cx="2463.81" cy="-116.61" rx="130.63" ry="26.74"/>
<text text-anchor="middle" x="2463.81" y="-120.41" font-family="Times,serif" font-size="14.00">intuition.</text>
<text text-anchor="middle" x="2463.81" y="-105.41" font-family="Times,serif" font-size="14.00">(0.1567857034960826)</text>
</g>
<!-- 27&#45;&gt;29 -->
<g id="edge35" class="edge">
<title>27&#45;&gt;29</title>
<path fill="none" stroke="black" d="M2475.81,-179.5C2474.23,-171.36 2472.46,-162.22 2470.77,-153.51"/>
<polygon fill="black" stroke="black" points="2474.18,-152.73 2468.85,-143.58 2467.31,-154.06 2474.18,-152.73"/>
</g>
<!-- 30 -->
<g id="node37" class="node">
<title>30</title>
<ellipse fill="orange" stroke="black" cx="2749.81" cy="-116.61" rx="137.36" ry="26.74"/>
<text text-anchor="middle" x="2749.81" y="-120.41" font-family="Times,serif" font-size="14.00">try discriminate.</text>
<text text-anchor="middle" x="2749.81" y="-105.41" font-family="Times,serif" font-size="14.00">(0.08618438305709497)</text>
</g>
<!-- 27&#45;&gt;30 -->
<g id="edge36" class="edge">
<title>27&#45;&gt;30</title>
<path fill="none" stroke="black" d="M2547.65,-183.55C2585.24,-171.29 2632.35,-155.92 2671.64,-143.11"/>
<polygon fill="black" stroke="black" points="2673.03,-146.34 2681.45,-139.91 2670.85,-139.68 2673.03,-146.34"/>
</g>
<!-- 31 -->
<g id="node38" class="node">
<title>31</title>
<ellipse fill="orange" stroke="black" cx="3048.81" cy="-116.61" rx="143.59" ry="26.74"/>
<text text-anchor="middle" x="3048.81" y="-120.41" font-family="Times,serif" font-size="14.00">simpl.</text>
<text text-anchor="middle" x="3048.81" y="-105.41" font-family="Times,serif" font-size="14.00">(0.009523111351962071)</text>
</g>
<!-- 27&#45;&gt;31 -->
<g id="edge37" class="edge">
<title>27&#45;&gt;31</title>
<path fill="none" stroke="black" d="M2572.63,-188.08C2589.63,-185.07 2607.24,-182.08 2623.81,-179.48 2744.29,-160.62 2775.23,-161.65 2895.81,-143.48 2909,-141.49 2922.8,-139.31 2936.49,-137.08"/>
<polygon fill="black" stroke="black" points="2937.13,-140.52 2946.43,-135.44 2936,-133.61 2937.13,-140.52"/>
</g>
<!-- 32 -->
<g id="node39" class="node">
<title>32</title>
<ellipse fill="orange" stroke="black" cx="3359.81" cy="-116.61" rx="149.81" ry="26.74"/>
<text text-anchor="middle" x="3359.81" y="-120.41" font-family="Times,serif" font-size="14.00">subst.</text>
<text text-anchor="middle" x="3359.81" y="-105.41" font-family="Times,serif" font-size="14.00">(0.0022806084940187603)</text>
</g>
<!-- 27&#45;&gt;32 -->
<g id="edge38" class="edge">
<title>27&#45;&gt;32</title>
<path fill="none" stroke="black" d="M2570.2,-187.52C2587.91,-184.46 2606.41,-181.59 2623.81,-179.48 2879.33,-148.52 2946.05,-172.31 3201.81,-143.48 3216.18,-141.86 3231.22,-139.83 3246.09,-137.63"/>
<polygon fill="black" stroke="black" points="3246.97,-141.03 3256.33,-136.08 3245.92,-134.11 3246.97,-141.03"/>
</g>
<!-- 41 -->
<g id="node45" class="node">
<title>41</title>
<ellipse fill="orange" stroke="black" cx="3658.81" cy="-116.61" rx="130.63" ry="26.74"/>
<text text-anchor="middle" x="3658.81" y="-120.41" font-family="Times,serif" font-size="14.00">eauto.</text>
<text text-anchor="middle" x="3658.81" y="-105.41" font-family="Times,serif" font-size="14.00">(0.3466643377746348)</text>
</g>
<!-- 40&#45;&gt;41 -->
<g id="edge44" class="edge">
<title>40&#45;&gt;41</title>
<path fill="none" stroke="black" d="M3994.17,-187.17C3925.53,-172.93 3830.01,-153.12 3758.47,-138.28"/>
<polygon fill="black" stroke="black" points="3759.04,-134.82 3748.53,-136.22 3757.62,-141.68 3759.04,-134.82"/>
</g>
<!-- 42 -->
<g id="node46" class="node">
<title>42</title>
<ellipse fill="orange" stroke="black" cx="3938.81" cy="-116.61" rx="130.63" ry="26.74"/>
<text text-anchor="middle" x="3938.81" y="-120.41" font-family="Times,serif" font-size="14.00">intuition.</text>
<text text-anchor="middle" x="3938.81" y="-105.41" font-family="Times,serif" font-size="14.00">(0.1567857034960826)</text>
</g>
<!-- 40&#45;&gt;42 -->
<g id="edge45" class="edge">
<title>40&#45;&gt;42</title>
<path fill="none" stroke="black" d="M4041.6,-180.68C4025,-170.49 4005.59,-158.58 3988.14,-147.88"/>
<polygon fill="black" stroke="black" points="3989.58,-144.65 3979.22,-142.4 3985.92,-150.62 3989.58,-144.65"/>
</g>
<!-- 43 -->
<g id="node47" class="node">
<title>43</title>
<ellipse fill="orange" stroke="black" cx="4224.81" cy="-116.61" rx="137.36" ry="26.74"/>
<text text-anchor="middle" x="4224.81" y="-120.41" font-family="Times,serif" font-size="14.00">try discriminate.</text>
<text text-anchor="middle" x="4224.81" y="-105.41" font-family="Times,serif" font-size="14.00">(0.08618438305709497)</text>
</g>
<!-- 40&#45;&gt;43 -->
<g id="edge46" class="edge">
<title>40&#45;&gt;43</title>
<path fill="none" stroke="black" d="M4122.03,-180.68C4138.63,-170.49 4158.04,-158.58 4175.49,-147.88"/>
<polygon fill="black" stroke="black" points="4177.71,-150.62 4184.41,-142.4 4174.05,-144.65 4177.71,-150.62"/>
</g>
<!-- 44 -->
<g id="node48" class="node">
<title>44</title>
<ellipse fill="orange" stroke="black" cx="4523.81" cy="-116.61" rx="143.59" ry="26.74"/>
<text text-anchor="middle" x="4523.81" y="-120.41" font-family="Times,serif" font-size="14.00">simpl.</text>
<text text-anchor="middle" x="4523.81" y="-105.41" font-family="Times,serif" font-size="14.00">(0.009523111351962071)</text>
</g>
<!-- 40&#45;&gt;44 -->
<g id="edge47" class="edge">
<title>40&#45;&gt;44</title>
<path fill="none" stroke="black" d="M4171.26,-187.59C4242.6,-173.43 4342.69,-153.56 4418.01,-138.61"/>
<polygon fill="black" stroke="black" points="4418.87,-142.01 4428,-136.63 4417.51,-135.14 4418.87,-142.01"/>
</g>
<!-- 45 -->
<g id="node49" class="node">
<title>45</title>
<ellipse fill="orange" stroke="black" cx="4834.81" cy="-116.61" rx="149.81" ry="26.74"/>
<text text-anchor="middle" x="4834.81" y="-120.41" font-family="Times,serif" font-size="14.00">subst.</text>
<text text-anchor="middle" x="4834.81" y="-105.41" font-family="Times,serif" font-size="14.00">(0.0022806084940187603)</text>
</g>
<!-- 40&#45;&gt;45 -->
<g id="edge48" class="edge">
<title>40&#45;&gt;45</title>
<path fill="none" stroke="black" d="M4195.84,-195.5C4315.78,-184.66 4509.92,-165.8 4676.81,-143.48 4690.45,-141.66 4704.72,-139.57 4718.86,-137.39"/>
<polygon fill="black" stroke="black" points="4719.79,-140.79 4729.13,-135.79 4718.71,-133.88 4719.79,-140.79"/>
</g>
<!-- 50 -->
<g id="node51" class="node">
<title>50</title>
<ellipse fill="green" stroke="black" cx="3559.81" cy="-296.09" rx="35.21" ry="26.74"/>
<text text-anchor="middle" x="3559.81" y="-299.89" font-family="Times,serif" font-size="14.00">QED</text>
<text text-anchor="middle" x="3559.81" y="-284.89" font-family="Times,serif" font-size="14.00">(1.0)</text>
</g>
<!-- 49&#45;&gt;50 -->
<g id="edge50" class="edge">
<title>49&#45;&gt;50</title>
<path fill="none" stroke="black" d="M3485.19,-359.45C3498.86,-348.03 3514.98,-334.56 3528.73,-323.07"/>
<polygon fill="green" stroke="black" points="3531.09,-325.66 3536.52,-316.56 3526.6,-320.28 3531.09,-325.66"/>
</g>
</g>
</svg>
