<?xml version="1.0" encoding="UTF-8" standalone="no"?>
<!DOCTYPE svg PUBLIC "-//W3C//DTD SVG 1.1//EN"
 "http://www.w3.org/Graphics/SVG/1.1/DTD/svg11.dtd">
<!-- Generated by graphviz version 2.43.0 (0)
 -->
<!-- Pages: 1 -->
<svg width="2738pt" height="959pt"
 viewBox="0.00 0.00 2737.99 959.14" xmlns="http://www.w3.org/2000/svg" xmlns:xlink="http://www.w3.org/1999/xlink">
<g id="graph0" class="graph" transform="scale(1 1) rotate(0) translate(4 955.14)">
<polygon fill="white" stroke="transparent" points="-4,4 -4,-955.14 2733.99,-955.14 2733.99,4 -4,4"/>
<!-- 0 -->
<g id="node1" class="node">
<title>0</title>
<ellipse fill="none" stroke="black" cx="1549.81" cy="-924.27" rx="64.19" ry="26.74"/>
<text text-anchor="middle" x="1549.81" y="-928.07" font-family="Times,serif" font-size="14.00">opp_succZ</text>
<text text-anchor="middle" x="1549.81" y="-913.07" font-family="Times,serif" font-size="14.00">(1.0)</text>
</g>
<!-- 1 -->
<g id="node2" class="node">
<title>1</title>
<ellipse fill="#9aff9a" stroke="black" cx="1549.81" cy="-834.53" rx="124.4" ry="26.74"/>
<text text-anchor="middle" x="1549.81" y="-838.33" font-family="Times,serif" font-size="14.00">intros.</text>
<text text-anchor="middle" x="1549.81" y="-823.33" font-family="Times,serif" font-size="14.00">(0.975071570055549)</text>
</g>
<!-- 0&#45;&gt;1 -->
<g id="edge1" class="edge">
<title>0&#45;&gt;1</title>
<path fill="none" stroke="black" d="M1549.81,-896.95C1549.81,-888.98 1549.81,-880.09 1549.81,-871.6"/>
<polygon fill="black" stroke="black" points="1553.31,-871.54 1549.81,-861.54 1546.31,-871.54 1553.31,-871.54"/>
</g>
<!-- 2 -->
<g id="node3" class="node">
<title>2</title>
<ellipse fill="#9aff9a" stroke="black" cx="1549.81" cy="-744.79" rx="130.63" ry="26.74"/>
<text text-anchor="middle" x="1549.81" y="-748.59" font-family="Times,serif" font-size="14.00">unfold oppZ.</text>
<text text-anchor="middle" x="1549.81" y="-733.59" font-family="Times,serif" font-size="14.00">(0.2849485411342641)</text>
</g>
<!-- 1&#45;&gt;2 -->
<g id="edge2" class="edge">
<title>1&#45;&gt;2</title>
<path fill="none" stroke="black" d="M1549.81,-807.21C1549.81,-799.24 1549.81,-790.35 1549.81,-781.86"/>
<polygon fill="black" stroke="black" points="1553.31,-781.79 1549.81,-771.79 1546.31,-781.8 1553.31,-781.79"/>
</g>
<!-- 3 -->
<g id="node4" class="node">
<title>3</title>
<ellipse fill="none" stroke="black" cx="1403.81" cy="-655.05" rx="137.36" ry="26.74"/>
<text text-anchor="middle" x="1403.81" y="-658.85" font-family="Times,serif" font-size="14.00">destruct succZ.</text>
<text text-anchor="middle" x="1403.81" y="-643.85" font-family="Times,serif" font-size="14.00">(0.04495466015918734)</text>
</g>
<!-- 2&#45;&gt;3 -->
<g id="edge3" class="edge">
<title>2&#45;&gt;3</title>
<path fill="none" stroke="black" d="M1508.76,-719.12C1491.65,-708.84 1471.63,-696.81 1453.69,-686.02"/>
<polygon fill="black" stroke="black" points="1455.44,-682.99 1445.07,-680.84 1451.84,-688.99 1455.44,-682.99"/>
</g>
<!-- 20 -->
<g id="node5" class="node">
<title>20</title>
<ellipse fill="#9aff9a" stroke="black" cx="1916.81" cy="-655.05" rx="137.36" ry="26.74"/>
<text text-anchor="middle" x="1916.81" y="-658.85" font-family="Times,serif" font-size="14.00">destruct x.</text>
<text text-anchor="middle" x="1916.81" y="-643.85" font-family="Times,serif" font-size="14.00">(0.03911207845090084)</text>
</g>
<!-- 2&#45;&gt;20 -->
<g id="edge4" class="edge">
<title>2&#45;&gt;20</title>
<path fill="none" stroke="black" d="M1632.63,-723.99C1688.99,-710.52 1763.7,-692.66 1822.37,-678.63"/>
<polygon fill="black" stroke="black" points="1823.48,-681.96 1832.39,-676.23 1821.85,-675.16 1823.48,-681.96"/>
</g>
<!-- 4 -->
<g id="node6" class="node">
<title>4</title>
<ellipse fill="none" stroke="black" cx="682.81" cy="-565.31" rx="137.36" ry="26.74"/>
<text text-anchor="middle" x="682.81" y="-569.11" font-family="Times,serif" font-size="14.00">destruct x.</text>
<text text-anchor="middle" x="682.81" y="-554.11" font-family="Times,serif" font-size="14.00">(0.44061007457856366)</text>
</g>
<!-- 3&#45;&gt;4 -->
<g id="edge5" class="edge">
<title>3&#45;&gt;4</title>
<path fill="none" stroke="black" d="M1280.41,-643.23C1163.77,-632.41 984.01,-614.25 828.81,-592.18 816.12,-590.38 802.84,-588.29 789.68,-586.11"/>
<polygon fill="black" stroke="black" points="790.1,-582.63 779.66,-584.42 788.94,-589.53 790.1,-582.63"/>
</g>
<!-- 11 -->
<g id="node7" class="node">
<title>11</title>
<ellipse fill="orange" stroke="black" cx="968.81" cy="-565.31" rx="130.63" ry="26.74"/>
<text text-anchor="middle" x="968.81" y="-569.11" font-family="Times,serif" font-size="14.00">eauto.</text>
<text text-anchor="middle" x="968.81" y="-554.11" font-family="Times,serif" font-size="14.00">(0.1037068415985178)</text>
</g>
<!-- 3&#45;&gt;11 -->
<g id="edge6" class="edge">
<title>3&#45;&gt;11</title>
<path fill="none" stroke="black" d="M1310.76,-635.28C1239.97,-621 1142.66,-601.38 1069.95,-586.71"/>
<polygon fill="black" stroke="black" points="1070.35,-583.22 1059.85,-584.67 1068.96,-590.08 1070.35,-583.22"/>
</g>
<!-- 12 -->
<g id="node8" class="node">
<title>12</title>
<ellipse fill="orange" stroke="black" cx="1254.81" cy="-565.31" rx="137.36" ry="26.74"/>
<text text-anchor="middle" x="1254.81" y="-569.11" font-family="Times,serif" font-size="14.00">simpl.</text>
<text text-anchor="middle" x="1254.81" y="-554.11" font-family="Times,serif" font-size="14.00">(0.05610572157708983)</text>
</g>
<!-- 3&#45;&gt;12 -->
<g id="edge7" class="edge">
<title>3&#45;&gt;12</title>
<path fill="none" stroke="black" d="M1361.91,-629.38C1344.38,-619.05 1323.85,-606.96 1305.48,-596.15"/>
<polygon fill="black" stroke="black" points="1307.05,-593.01 1296.66,-590.95 1303.5,-599.04 1307.05,-593.01"/>
</g>
<!-- 13 -->
<g id="node9" class="node">
<title>13</title>
<ellipse fill="none" stroke="black" cx="1553.81" cy="-565.31" rx="143.59" ry="26.74"/>
<text text-anchor="middle" x="1553.81" y="-569.11" font-family="Times,serif" font-size="14.00">unfold predZ.</text>
<text text-anchor="middle" x="1553.81" y="-554.11" font-family="Times,serif" font-size="14.00">(0.051299578342847915)</text>
</g>
<!-- 3&#45;&gt;13 -->
<g id="edge8" class="edge">
<title>3&#45;&gt;13</title>
<path fill="none" stroke="black" d="M1446,-629.38C1463.57,-619.1 1484.14,-607.07 1502.57,-596.28"/>
<polygon fill="black" stroke="black" points="1504.56,-599.17 1511.43,-591.1 1501.03,-593.13 1504.56,-599.17"/>
</g>
<!-- 19 -->
<g id="node10" class="node">
<title>19</title>
<ellipse fill="orange" stroke="black" cx="1852.81" cy="-565.31" rx="137.36" ry="26.74"/>
<text text-anchor="middle" x="1852.81" y="-569.11" font-family="Times,serif" font-size="14.00">destruct OZ.</text>
<text text-anchor="middle" x="1852.81" y="-554.11" font-family="Times,serif" font-size="14.00">(0.02559352820741269)</text>
</g>
<!-- 3&#45;&gt;19 -->
<g id="edge9" class="edge">
<title>3&#45;&gt;19</title>
<path fill="none" stroke="black" d="M1498.49,-635.55C1571.62,-621.26 1672.75,-601.5 1748.26,-586.74"/>
<polygon fill="black" stroke="black" points="1749.13,-590.14 1758.27,-584.79 1747.79,-583.27 1749.13,-590.14"/>
</g>
<!-- 21 -->
<g id="node22" class="node">
<title>21</title>
<ellipse fill="#9aff9a" stroke="black" cx="2152.81" cy="-565.31" rx="130.63" ry="26.74"/>
<text text-anchor="middle" x="2152.81" y="-569.11" font-family="Times,serif" font-size="14.00">reflexivity.</text>
<text text-anchor="middle" x="2152.81" y="-554.11" font-family="Times,serif" font-size="14.00">(0.8547925110072799)</text>
</g>
<!-- 20&#45;&gt;21 -->
<g id="edge21" class="edge">
<title>20&#45;&gt;21</title>
<path fill="none" stroke="black" d="M1978.82,-631C2010.39,-619.26 2048.93,-604.93 2081.7,-592.75"/>
<polygon fill="black" stroke="black" points="2083.07,-595.97 2091.22,-589.21 2080.63,-589.41 2083.07,-595.97"/>
</g>
<!-- 5 -->
<g id="node11" class="node">
<title>5</title>
<ellipse fill="orange" stroke="black" cx="130.81" cy="-475.57" rx="130.63" ry="26.74"/>
<text text-anchor="middle" x="130.81" y="-479.37" font-family="Times,serif" font-size="14.00">eauto.</text>
<text text-anchor="middle" x="130.81" y="-464.37" font-family="Times,serif" font-size="14.00">(0.7672789708349365)</text>
</g>
<!-- 4&#45;&gt;5 -->
<g id="edge10" class="edge">
<title>4&#45;&gt;5</title>
<path fill="none" stroke="black" d="M573.79,-548.96C490.65,-537.01 373.36,-519.61 270.81,-502.44 259.1,-500.48 246.85,-498.34 234.69,-496.17"/>
<polygon fill="black" stroke="black" points="234.96,-492.66 224.49,-494.33 233.72,-499.55 234.96,-492.66"/>
</g>
<!-- 6 -->
<g id="node12" class="node">
<title>6</title>
<ellipse fill="none" stroke="black" cx="429.81" cy="-475.57" rx="149.81" ry="26.74"/>
<text text-anchor="middle" x="429.81" y="-479.37" font-family="Times,serif" font-size="14.00">simpl.</text>
<text text-anchor="middle" x="429.81" y="-464.37" font-family="Times,serif" font-size="14.00">(0.0030050809547782953)</text>
</g>
<!-- 4&#45;&gt;6 -->
<g id="edge11" class="edge">
<title>4&#45;&gt;6</title>
<path fill="none" stroke="black" d="M617.33,-541.6C583.47,-529.86 541.95,-515.46 506.58,-503.19"/>
<polygon fill="black" stroke="black" points="507.38,-499.77 496.78,-499.8 505.09,-506.38 507.38,-499.77"/>
</g>
<!-- 9 -->
<g id="node13" class="node">
<title>9</title>
<ellipse fill="orange" stroke="black" cx="753.81" cy="-475.57" rx="156.04" ry="26.74"/>
<text text-anchor="middle" x="753.81" y="-479.37" font-family="Times,serif" font-size="14.00">intuition.</text>
<text text-anchor="middle" x="753.81" y="-464.37" font-family="Times,serif" font-size="14.00">(0.00036047061761354776)</text>
</g>
<!-- 4&#45;&gt;9 -->
<g id="edge12" class="edge">
<title>4&#45;&gt;9</title>
<path fill="none" stroke="black" d="M703.73,-538.46C710.88,-529.62 718.99,-519.61 726.56,-510.25"/>
<polygon fill="black" stroke="black" points="729.48,-512.21 733.05,-502.24 724.03,-507.81 729.48,-512.21"/>
</g>
<!-- 10 -->
<g id="node14" class="node">
<title>10</title>
<ellipse fill="orange" stroke="black" cx="1073.81" cy="-475.57" rx="145.83" ry="26.74"/>
<text text-anchor="middle" x="1073.81" y="-479.37" font-family="Times,serif" font-size="14.00">destruct OZ.</text>
<text text-anchor="middle" x="1073.81" y="-464.37" font-family="Times,serif" font-size="14.00">(9.556463426809525e&#45;05)</text>
</g>
<!-- 4&#45;&gt;10 -->
<g id="edge13" class="edge">
<title>4&#45;&gt;10</title>
<path fill="none" stroke="black" d="M770.56,-544.62C830.94,-531.07 911.26,-513.05 974.06,-498.95"/>
<polygon fill="black" stroke="black" points="975,-502.33 983.99,-496.73 973.46,-495.5 975,-502.33"/>
</g>
<!-- 14 -->
<g id="node17" class="node">
<title>14</title>
<ellipse fill="none" stroke="black" cx="1546.81" cy="-475.57" rx="137.36" ry="26.74"/>
<text text-anchor="middle" x="1546.81" y="-479.37" font-family="Times,serif" font-size="14.00">destruct x.</text>
<text text-anchor="middle" x="1546.81" y="-464.37" font-family="Times,serif" font-size="14.00">(0.10476746928257512)</text>
</g>
<!-- 13&#45;&gt;14 -->
<g id="edge16" class="edge">
<title>13&#45;&gt;14</title>
<path fill="none" stroke="black" d="M1551.71,-537.99C1551.08,-530.02 1550.37,-521.13 1549.69,-512.64"/>
<polygon fill="black" stroke="black" points="1553.17,-512.26 1548.89,-502.57 1546.2,-512.82 1553.17,-512.26"/>
</g>
<!-- 7 -->
<g id="node15" class="node">
<title>7</title>
<ellipse fill="orange" stroke="black" cx="195.81" cy="-385.83" rx="130.63" ry="26.74"/>
<text text-anchor="middle" x="195.81" y="-389.63" font-family="Times,serif" font-size="14.00">eauto.</text>
<text text-anchor="middle" x="195.81" y="-374.63" font-family="Times,serif" font-size="14.00">(0.9136461135194022)</text>
</g>
<!-- 6&#45;&gt;7 -->
<g id="edge14" class="edge">
<title>6&#45;&gt;7</title>
<path fill="none" stroke="black" d="M367.11,-451.06C336.07,-439.42 298.48,-425.32 266.43,-413.31"/>
<polygon fill="black" stroke="black" points="267.26,-409.88 256.67,-409.65 264.81,-416.44 267.26,-409.88"/>
</g>
<!-- 8 -->
<g id="node16" class="node">
<title>8</title>
<ellipse fill="orange" stroke="black" cx="494.81" cy="-385.83" rx="149.81" ry="26.74"/>
<text text-anchor="middle" x="494.81" y="-389.63" font-family="Times,serif" font-size="14.00">intros.</text>
<text text-anchor="middle" x="494.81" y="-374.63" font-family="Times,serif" font-size="14.00">(0.0003737457249171406)</text>
</g>
<!-- 6&#45;&gt;8 -->
<g id="edge15" class="edge">
<title>6&#45;&gt;8</title>
<path fill="none" stroke="black" d="M448.97,-448.72C455.45,-439.97 462.78,-430.07 469.66,-420.79"/>
<polygon fill="black" stroke="black" points="472.66,-422.61 475.8,-412.5 467.04,-418.45 472.66,-422.61"/>
</g>
<!-- 15 -->
<g id="node18" class="node">
<title>15</title>
<ellipse fill="orange" stroke="black" cx="936.81" cy="-385.83" rx="130.63" ry="26.74"/>
<text text-anchor="middle" x="936.81" y="-389.63" font-family="Times,serif" font-size="14.00">eauto.</text>
<text text-anchor="middle" x="936.81" y="-374.63" font-family="Times,serif" font-size="14.00">(0.7674491865254955)</text>
</g>
<!-- 14&#45;&gt;15 -->
<g id="edge17" class="edge">
<title>14&#45;&gt;15</title>
<path fill="none" stroke="black" d="M1430.91,-461.1C1335.42,-449.57 1196.57,-431.86 1075.81,-412.7 1064.17,-410.85 1051.99,-408.79 1039.91,-406.65"/>
<polygon fill="black" stroke="black" points="1040.24,-403.16 1029.78,-404.84 1039.01,-410.05 1040.24,-403.16"/>
</g>
<!-- 16 -->
<g id="node19" class="node">
<title>16</title>
<ellipse fill="orange" stroke="black" cx="1228.81" cy="-385.83" rx="143.59" ry="26.74"/>
<text text-anchor="middle" x="1228.81" y="-389.63" font-family="Times,serif" font-size="14.00">simpl.</text>
<text text-anchor="middle" x="1228.81" y="-374.63" font-family="Times,serif" font-size="14.00">(0.003005747343086595)</text>
</g>
<!-- 14&#45;&gt;16 -->
<g id="edge18" class="edge">
<title>14&#45;&gt;16</title>
<path fill="none" stroke="black" d="M1469.43,-453.22C1423.33,-440.5 1364.68,-424.32 1316.83,-411.11"/>
<polygon fill="black" stroke="black" points="1317.67,-407.72 1307.1,-408.43 1315.81,-414.46 1317.67,-407.72"/>
</g>
<!-- 17 -->
<g id="node20" class="node">
<title>17</title>
<ellipse fill="orange" stroke="black" cx="1546.81" cy="-385.83" rx="156.04" ry="26.74"/>
<text text-anchor="middle" x="1546.81" y="-389.63" font-family="Times,serif" font-size="14.00">intuition.</text>
<text text-anchor="middle" x="1546.81" y="-374.63" font-family="Times,serif" font-size="14.00">(0.00036055055336525564)</text>
</g>
<!-- 14&#45;&gt;17 -->
<g id="edge19" class="edge">
<title>14&#45;&gt;17</title>
<path fill="none" stroke="black" d="M1546.81,-448.25C1546.81,-440.28 1546.81,-431.39 1546.81,-422.9"/>
<polygon fill="black" stroke="black" points="1550.31,-422.83 1546.81,-412.83 1543.31,-422.83 1550.31,-422.83"/>
</g>
<!-- 18 -->
<g id="node21" class="node">
<title>18</title>
<ellipse fill="orange" stroke="black" cx="1866.81" cy="-385.83" rx="145.83" ry="26.74"/>
<text text-anchor="middle" x="1866.81" y="-389.63" font-family="Times,serif" font-size="14.00">destruct O.</text>
<text text-anchor="middle" x="1866.81" y="-374.63" font-family="Times,serif" font-size="14.00">(9.558587167372975e&#45;05)</text>
</g>
<!-- 14&#45;&gt;18 -->
<g id="edge20" class="edge">
<title>14&#45;&gt;18</title>
<path fill="none" stroke="black" d="M1624.28,-453.33C1670.65,-440.62 1729.77,-424.41 1778.03,-411.17"/>
<polygon fill="black" stroke="black" points="1779.12,-414.5 1787.84,-408.48 1777.27,-407.75 1779.12,-414.5"/>
</g>
<!-- 22 -->
<g id="node23" class="node">
<title>22</title>
<ellipse fill="#9aff9a" stroke="black" cx="2160.81" cy="-475.57" rx="130.63" ry="26.74"/>
<text text-anchor="middle" x="2160.81" y="-479.37" font-family="Times,serif" font-size="14.00">eauto.</text>
<text text-anchor="middle" x="2160.81" y="-464.37" font-family="Times,serif" font-size="14.00">(0.4030289680628001)</text>
</g>
<!-- 21&#45;&gt;22 -->
<g id="edge22" class="edge">
<title>21&#45;&gt;22</title>
<path fill="none" stroke="black" d="M2155.22,-537.99C2155.94,-530.02 2156.75,-521.13 2157.53,-512.64"/>
<polygon fill="black" stroke="black" points="2161.02,-512.85 2158.44,-502.57 2154.05,-512.22 2161.02,-512.85"/>
</g>
<!-- 23 -->
<g id="node24" class="node">
<title>23</title>
<ellipse fill="orange" stroke="black" cx="2160.81" cy="-385.83" rx="130.63" ry="26.74"/>
<text text-anchor="middle" x="2160.81" y="-389.63" font-family="Times,serif" font-size="14.00">eauto.</text>
<text text-anchor="middle" x="2160.81" y="-374.63" font-family="Times,serif" font-size="14.00">(0.4131166026833632)</text>
</g>
<!-- 22&#45;&gt;23 -->
<g id="edge23" class="edge">
<title>22&#45;&gt;23</title>
<path fill="none" stroke="black" d="M2160.81,-448.25C2160.81,-440.28 2160.81,-431.39 2160.81,-422.9"/>
<polygon fill="black" stroke="black" points="2164.31,-422.83 2160.81,-412.83 2157.31,-422.83 2164.31,-422.83"/>
</g>
<!-- 24 -->
<g id="node25" class="node">
<title>24</title>
<ellipse fill="#9aff9a" stroke="black" cx="2446.81" cy="-385.83" rx="137.36" ry="26.74"/>
<text text-anchor="middle" x="2446.81" y="-389.63" font-family="Times,serif" font-size="14.00">simpl.</text>
<text text-anchor="middle" x="2446.81" y="-374.63" font-family="Times,serif" font-size="14.00">(0.20588830875227895)</text>
</g>
<!-- 22&#45;&gt;24 -->
<g id="edge24" class="edge">
<title>22&#45;&gt;24</title>
<path fill="none" stroke="black" d="M2231.51,-452.88C2272.03,-440.45 2323.05,-424.8 2365.25,-411.85"/>
<polygon fill="black" stroke="black" points="2366.41,-415.16 2374.94,-408.88 2364.36,-408.47 2366.41,-415.16"/>
</g>
<!-- 25 -->
<g id="node26" class="node">
<title>25</title>
<ellipse fill="orange" stroke="black" cx="2300.81" cy="-296.09" rx="137.36" ry="26.74"/>
<text text-anchor="middle" x="2300.81" y="-299.89" font-family="Times,serif" font-size="14.00">intros.</text>
<text text-anchor="middle" x="2300.81" y="-284.89" font-family="Times,serif" font-size="14.00">(0.13315044238093493)</text>
</g>
<!-- 24&#45;&gt;25 -->
<g id="edge25" class="edge">
<title>24&#45;&gt;25</title>
<path fill="none" stroke="black" d="M2405.76,-360.16C2388.65,-349.88 2368.63,-337.85 2350.69,-327.06"/>
<polygon fill="black" stroke="black" points="2352.44,-324.03 2342.07,-321.88 2348.84,-330.03 2352.44,-324.03"/>
</g>
<!-- 26 -->
<g id="node27" class="node">
<title>26</title>
<ellipse fill="#9aff9a" stroke="black" cx="2592.81" cy="-296.09" rx="137.36" ry="26.74"/>
<text text-anchor="middle" x="2592.81" y="-299.89" font-family="Times,serif" font-size="14.00">destruct n.</text>
<text text-anchor="middle" x="2592.81" y="-284.89" font-family="Times,serif" font-size="14.00">(0.09966679101100066)</text>
</g>
<!-- 24&#45;&gt;26 -->
<g id="edge26" class="edge">
<title>24&#45;&gt;26</title>
<path fill="none" stroke="black" d="M2487.87,-360.16C2504.98,-349.88 2525,-337.85 2542.94,-327.06"/>
<polygon fill="black" stroke="black" points="2544.79,-330.03 2551.56,-321.88 2541.19,-324.03 2544.79,-330.03"/>
</g>
<!-- 27 -->
<g id="node28" class="node">
<title>27</title>
<ellipse fill="#9aff9a" stroke="black" cx="2592.81" cy="-206.35" rx="124.4" ry="26.74"/>
<text text-anchor="middle" x="2592.81" y="-210.15" font-family="Times,serif" font-size="14.00">eauto.</text>
<text text-anchor="middle" x="2592.81" y="-195.15" font-family="Times,serif" font-size="14.00">(0.788374031681389)</text>
</g>
<!-- 26&#45;&gt;27 -->
<g id="edge27" class="edge">
<title>26&#45;&gt;27</title>
<path fill="none" stroke="black" d="M2592.81,-268.77C2592.81,-260.8 2592.81,-251.91 2592.81,-243.42"/>
<polygon fill="black" stroke="black" points="2596.31,-243.35 2592.81,-233.35 2589.31,-243.35 2596.31,-243.35"/>
</g>
<!-- 28 -->
<g id="node29" class="node">
<title>28</title>
<ellipse fill="#9aff9a" stroke="black" cx="2592.81" cy="-116.61" rx="124.4" ry="26.74"/>
<text text-anchor="middle" x="2592.81" y="-120.41" font-family="Times,serif" font-size="14.00">eauto.</text>
<text text-anchor="middle" x="2592.81" y="-105.41" font-family="Times,serif" font-size="14.00">(0.613908102475319)</text>
</g>
<!-- 27&#45;&gt;28 -->
<g id="edge28" class="edge">
<title>27&#45;&gt;28</title>
<path fill="none" stroke="black" d="M2592.81,-179.03C2592.81,-171.06 2592.81,-162.17 2592.81,-153.68"/>
<polygon fill="black" stroke="black" points="2596.31,-153.61 2592.81,-143.61 2589.31,-153.61 2596.31,-153.61"/>
</g>
<!-- 29 -->
<g id="node30" class="node">
<title>29</title>
<ellipse fill="green" stroke="black" cx="2592.81" cy="-26.87" rx="35.21" ry="26.74"/>
<text text-anchor="middle" x="2592.81" y="-30.67" font-family="Times,serif" font-size="14.00">QED</text>
<text text-anchor="middle" x="2592.81" y="-15.67" font-family="Times,serif" font-size="14.00">(1.0)</text>
</g>
<!-- 28&#45;&gt;29 -->
<g id="edge29" class="edge">
<title>28&#45;&gt;29</title>
<path fill="none" stroke="black" d="M2592.81,-89.29C2592.81,-81.32 2592.81,-72.43 2592.81,-63.94"/>
<polygon fill="green" stroke="black" points="2596.31,-63.87 2592.81,-53.87 2589.31,-63.87 2596.31,-63.87"/>
</g>
</g>
</svg>
