<?xml version="1.0" encoding="UTF-8" standalone="no"?>
<!DOCTYPE svg PUBLIC "-//W3C//DTD SVG 1.1//EN"
 "http://www.w3.org/Graphics/SVG/1.1/DTD/svg11.dtd">
<!-- Generated by graphviz version 2.43.0 (0)
 -->
<!-- Pages: 1 -->
<svg width="695pt" height="869pt"
 viewBox="0.00 0.00 694.99 869.40" xmlns="http://www.w3.org/2000/svg" xmlns:xlink="http://www.w3.org/1999/xlink">
<g id="graph0" class="graph" transform="scale(1 1) rotate(0) translate(4 865.4)">
<polygon fill="white" stroke="transparent" points="-4,4 -4,-865.4 690.99,-865.4 690.99,4 -4,4"/>
<!-- 0 -->
<g id="node1" class="node">
<title>0</title>
<ellipse fill="none" stroke="black" cx="260.45" cy="-834.53" rx="78.48" ry="26.74"/>
<text text-anchor="middle" x="260.45" y="-838.33" font-family="Times,serif" font-size="14.00">addZ_neutral</text>
<text text-anchor="middle" x="260.45" y="-823.33" font-family="Times,serif" font-size="14.00">(1.0)</text>
</g>
<!-- 1 -->
<g id="node2" class="node">
<title>1</title>
<ellipse fill="#9aff9a" stroke="black" cx="260.45" cy="-744.79" rx="143.59" ry="26.74"/>
<text text-anchor="middle" x="260.45" y="-748.59" font-family="Times,serif" font-size="14.00">red.</text>
<text text-anchor="middle" x="260.45" y="-733.59" font-family="Times,serif" font-size="14.00">(0.035430202343864556)</text>
</g>
<!-- 0&#45;&gt;1 -->
<g id="edge1" class="edge">
<title>0&#45;&gt;1</title>
<path fill="none" stroke="black" d="M260.45,-807.21C260.45,-799.24 260.45,-790.35 260.45,-781.86"/>
<polygon fill="black" stroke="black" points="263.95,-781.79 260.45,-771.79 256.95,-781.8 263.95,-781.79"/>
</g>
<!-- 2 -->
<g id="node3" class="node">
<title>2</title>
<ellipse fill="#9aff9a" stroke="black" cx="260.45" cy="-655.05" rx="130.63" ry="26.74"/>
<text text-anchor="middle" x="260.45" y="-658.85" font-family="Times,serif" font-size="14.00">split.</text>
<text text-anchor="middle" x="260.45" y="-643.85" font-family="Times,serif" font-size="14.00">(0.9500831384275624)</text>
</g>
<!-- 1&#45;&gt;2 -->
<g id="edge2" class="edge">
<title>1&#45;&gt;2</title>
<path fill="none" stroke="black" d="M260.45,-717.47C260.45,-709.5 260.45,-700.61 260.45,-692.12"/>
<polygon fill="black" stroke="black" points="263.95,-692.05 260.45,-682.05 256.95,-692.05 263.95,-692.05"/>
</g>
<!-- 3 -->
<g id="node4" class="node">
<title>3</title>
<ellipse fill="orange" stroke="black" cx="124.45" cy="-565.31" rx="124.4" ry="26.74"/>
<text text-anchor="middle" x="124.45" y="-569.11" font-family="Times,serif" font-size="14.00">eauto.</text>
<text text-anchor="middle" x="124.45" y="-554.11" font-family="Times,serif" font-size="14.00">(0.569122618434073)</text>
</g>
<!-- 2&#45;&gt;3 -->
<g id="edge3" class="edge">
<title>2&#45;&gt;3</title>
<path fill="none" stroke="black" d="M221.84,-629.14C206.06,-618.96 187.66,-607.09 171.13,-596.43"/>
<polygon fill="black" stroke="black" points="172.99,-593.46 162.68,-590.98 169.19,-599.34 172.99,-593.46"/>
</g>
<!-- 4 -->
<g id="node5" class="node">
<title>4</title>
<ellipse fill="#9aff9a" stroke="black" cx="397.45" cy="-565.31" rx="130.63" ry="26.74"/>
<text text-anchor="middle" x="397.45" y="-569.11" font-family="Times,serif" font-size="14.00">easy.</text>
<text text-anchor="middle" x="397.45" y="-554.11" font-family="Times,serif" font-size="14.00">(0.0942571654268919)</text>
</g>
<!-- 2&#45;&gt;4 -->
<g id="edge4" class="edge">
<title>2&#45;&gt;4</title>
<path fill="none" stroke="black" d="M299.34,-629.14C315.11,-619.05 333.46,-607.29 350,-596.7"/>
<polygon fill="black" stroke="black" points="351.93,-599.62 358.46,-591.28 348.15,-593.73 351.93,-599.62"/>
</g>
<!-- 5 -->
<g id="node6" class="node">
<title>5</title>
<ellipse fill="#9aff9a" stroke="black" cx="397.45" cy="-475.57" rx="130.63" ry="26.74"/>
<text text-anchor="middle" x="397.45" y="-479.37" font-family="Times,serif" font-size="14.00">intros.</text>
<text text-anchor="middle" x="397.45" y="-464.37" font-family="Times,serif" font-size="14.00">(0.9948085857215445)</text>
</g>
<!-- 4&#45;&gt;5 -->
<g id="edge5" class="edge">
<title>4&#45;&gt;5</title>
<path fill="none" stroke="black" d="M397.45,-537.99C397.45,-530.02 397.45,-521.13 397.45,-512.64"/>
<polygon fill="black" stroke="black" points="400.95,-512.57 397.45,-502.57 393.95,-512.57 400.95,-512.57"/>
</g>
<!-- 6 -->
<g id="node7" class="node">
<title>6</title>
<ellipse fill="#9aff9a" stroke="black" cx="397.45" cy="-385.83" rx="130.63" ry="26.74"/>
<text text-anchor="middle" x="397.45" y="-389.63" font-family="Times,serif" font-size="14.00">split.</text>
<text text-anchor="middle" x="397.45" y="-374.63" font-family="Times,serif" font-size="14.00">(0.2410857370162044)</text>
</g>
<!-- 5&#45;&gt;6 -->
<g id="edge6" class="edge">
<title>5&#45;&gt;6</title>
<path fill="none" stroke="black" d="M397.45,-448.25C397.45,-440.28 397.45,-431.39 397.45,-422.9"/>
<polygon fill="black" stroke="black" points="400.95,-422.83 397.45,-412.83 393.95,-422.83 400.95,-422.83"/>
</g>
<!-- 7 -->
<g id="node8" class="node">
<title>7</title>
<ellipse fill="orange" stroke="black" cx="251.45" cy="-296.09" rx="130.63" ry="26.74"/>
<text text-anchor="middle" x="251.45" y="-299.89" font-family="Times,serif" font-size="14.00">eauto.</text>
<text text-anchor="middle" x="251.45" y="-284.89" font-family="Times,serif" font-size="14.00">(0.8412736624735255)</text>
</g>
<!-- 6&#45;&gt;7 -->
<g id="edge7" class="edge">
<title>6&#45;&gt;7</title>
<path fill="none" stroke="black" d="M356.39,-360.16C339.22,-349.83 319.1,-337.74 301.1,-326.93"/>
<polygon fill="black" stroke="black" points="302.83,-323.88 292.45,-321.73 299.22,-329.88 302.83,-323.88"/>
</g>
<!-- 8 -->
<g id="node9" class="node">
<title>8</title>
<ellipse fill="#9aff9a" stroke="black" cx="543.45" cy="-296.09" rx="143.59" ry="26.74"/>
<text text-anchor="middle" x="543.45" y="-299.89" font-family="Times,serif" font-size="14.00">rewrite add_OZ.</text>
<text text-anchor="middle" x="543.45" y="-284.89" font-family="Times,serif" font-size="14.00">(0.021319297640865646)</text>
</g>
<!-- 6&#45;&gt;8 -->
<g id="edge8" class="edge">
<title>6&#45;&gt;8</title>
<path fill="none" stroke="black" d="M438.51,-360.16C455.61,-349.88 475.63,-337.85 493.58,-327.06"/>
<polygon fill="black" stroke="black" points="495.43,-330.03 502.2,-321.88 491.82,-324.03 495.43,-330.03"/>
</g>
<!-- 9 -->
<g id="node10" class="node">
<title>9</title>
<ellipse fill="#9aff9a" stroke="black" cx="543.45" cy="-206.35" rx="130.63" ry="26.74"/>
<text text-anchor="middle" x="543.45" y="-210.15" font-family="Times,serif" font-size="14.00">eauto.</text>
<text text-anchor="middle" x="543.45" y="-195.15" font-family="Times,serif" font-size="14.00">(0.4040644843592627)</text>
</g>
<!-- 8&#45;&gt;9 -->
<g id="edge9" class="edge">
<title>8&#45;&gt;9</title>
<path fill="none" stroke="black" d="M543.45,-268.77C543.45,-260.8 543.45,-251.91 543.45,-243.42"/>
<polygon fill="black" stroke="black" points="546.95,-243.35 543.45,-233.35 539.95,-243.35 546.95,-243.35"/>
</g>
<!-- 10 -->
<g id="node11" class="node">
<title>10</title>
<ellipse fill="#9aff9a" stroke="black" cx="543.45" cy="-116.61" rx="130.63" ry="26.74"/>
<text text-anchor="middle" x="543.45" y="-120.41" font-family="Times,serif" font-size="14.00">eauto.</text>
<text text-anchor="middle" x="543.45" y="-105.41" font-family="Times,serif" font-size="14.00">(0.8952889830450831)</text>
</g>
<!-- 9&#45;&gt;10 -->
<g id="edge10" class="edge">
<title>9&#45;&gt;10</title>
<path fill="none" stroke="black" d="M543.45,-179.03C543.45,-171.06 543.45,-162.17 543.45,-153.68"/>
<polygon fill="black" stroke="black" points="546.95,-153.61 543.45,-143.61 539.95,-153.61 546.95,-153.61"/>
</g>
<!-- 11 -->
<g id="node12" class="node">
<title>11</title>
<ellipse fill="green" stroke="black" cx="543.45" cy="-26.87" rx="35.21" ry="26.74"/>
<text text-anchor="middle" x="543.45" y="-30.67" font-family="Times,serif" font-size="14.00">QED</text>
<text text-anchor="middle" x="543.45" y="-15.67" font-family="Times,serif" font-size="14.00">(1.0)</text>
</g>
<!-- 10&#45;&gt;11 -->
<g id="edge11" class="edge">
<title>10&#45;&gt;11</title>
<path fill="none" stroke="black" d="M543.45,-89.29C543.45,-81.32 543.45,-72.43 543.45,-63.94"/>
<polygon fill="green" stroke="black" points="546.95,-63.87 543.45,-53.87 539.95,-63.87 546.95,-63.87"/>
</g>
</g>
</svg>
