<?xml version="1.0" encoding="UTF-8" standalone="no"?>
<!DOCTYPE svg PUBLIC "-//W3C//DTD SVG 1.1//EN"
 "http://www.w3.org/Graphics/SVG/1.1/DTD/svg11.dtd">
<!-- Generated by graphviz version 2.43.0 (0)
 -->
<!-- Pages: 1 -->
<svg width="2876pt" height="959pt"
 viewBox="0.00 0.00 2875.99 959.14" xmlns="http://www.w3.org/2000/svg" xmlns:xlink="http://www.w3.org/1999/xlink">
<g id="graph0" class="graph" transform="scale(1 1) rotate(0) translate(4 955.14)">
<polygon fill="white" stroke="transparent" points="-4,4 -4,-955.14 2871.99,-955.14 2871.99,4 -4,4"/>
<!-- 0 -->
<g id="node1" class="node">
<title>0</title>
<ellipse fill="none" stroke="black" cx="1610.81" cy="-924.27" rx="65.11" ry="26.74"/>
<text text-anchor="middle" x="1610.81" y="-928.07" font-family="Times,serif" font-size="14.00">opp_predZ</text>
<text text-anchor="middle" x="1610.81" y="-913.07" font-family="Times,serif" font-size="14.00">(1.0)</text>
</g>
<!-- 1 -->
<g id="node2" class="node">
<title>1</title>
<ellipse fill="#9aff9a" stroke="black" cx="1610.81" cy="-834.53" rx="130.63" ry="26.74"/>
<text text-anchor="middle" x="1610.81" y="-838.33" font-family="Times,serif" font-size="14.00">intros.</text>
<text text-anchor="middle" x="1610.81" y="-823.33" font-family="Times,serif" font-size="14.00">(0.9750681701119945)</text>
</g>
<!-- 0&#45;&gt;1 -->
<g id="edge1" class="edge">
<title>0&#45;&gt;1</title>
<path fill="none" stroke="black" d="M1610.81,-896.95C1610.81,-888.98 1610.81,-880.09 1610.81,-871.6"/>
<polygon fill="black" stroke="black" points="1614.31,-871.54 1610.81,-861.54 1607.31,-871.54 1614.31,-871.54"/>
</g>
<!-- 2 -->
<g id="node3" class="node">
<title>2</title>
<ellipse fill="#9aff9a" stroke="black" cx="1610.81" cy="-744.79" rx="137.36" ry="26.74"/>
<text text-anchor="middle" x="1610.81" y="-748.59" font-family="Times,serif" font-size="14.00">unfold oppZ.</text>
<text text-anchor="middle" x="1610.81" y="-733.59" font-family="Times,serif" font-size="14.00">(0.24039482164065754)</text>
</g>
<!-- 1&#45;&gt;2 -->
<g id="edge2" class="edge">
<title>1&#45;&gt;2</title>
<path fill="none" stroke="black" d="M1610.81,-807.21C1610.81,-799.24 1610.81,-790.35 1610.81,-781.86"/>
<polygon fill="black" stroke="black" points="1614.31,-781.79 1610.81,-771.79 1607.31,-781.8 1614.31,-781.79"/>
</g>
<!-- 3 -->
<g id="node4" class="node">
<title>3</title>
<ellipse fill="none" stroke="black" cx="1461.81" cy="-655.05" rx="137.36" ry="26.74"/>
<text text-anchor="middle" x="1461.81" y="-658.85" font-family="Times,serif" font-size="14.00">destruct predZ.</text>
<text text-anchor="middle" x="1461.81" y="-643.85" font-family="Times,serif" font-size="14.00">(0.04770306359184503)</text>
</g>
<!-- 2&#45;&gt;3 -->
<g id="edge3" class="edge">
<title>2&#45;&gt;3</title>
<path fill="none" stroke="black" d="M1568.91,-719.12C1551.38,-708.79 1530.85,-696.7 1512.48,-685.89"/>
<polygon fill="black" stroke="black" points="1514.05,-682.75 1503.66,-680.69 1510.5,-688.78 1514.05,-682.75"/>
</g>
<!-- 21 -->
<g id="node5" class="node">
<title>21</title>
<ellipse fill="#9aff9a" stroke="black" cx="1974.81" cy="-655.05" rx="143.59" ry="26.74"/>
<text text-anchor="middle" x="1974.81" y="-658.85" font-family="Times,serif" font-size="14.00">destruct x.</text>
<text text-anchor="middle" x="1974.81" y="-643.85" font-family="Times,serif" font-size="14.00">(0.041503282617325034)</text>
</g>
<!-- 2&#45;&gt;21 -->
<g id="edge4" class="edge">
<title>2&#45;&gt;21</title>
<path fill="none" stroke="black" d="M1695.24,-723.44C1750.33,-710.16 1822.36,-692.8 1879.51,-679.02"/>
<polygon fill="black" stroke="black" points="1880.37,-682.42 1889.27,-676.67 1878.73,-675.61 1880.37,-682.42"/>
</g>
<!-- 4 -->
<g id="node6" class="node">
<title>4</title>
<ellipse fill="none" stroke="black" cx="721.81" cy="-565.31" rx="137.36" ry="26.74"/>
<text text-anchor="middle" x="721.81" y="-569.11" font-family="Times,serif" font-size="14.00">destruct x.</text>
<text text-anchor="middle" x="721.81" y="-554.11" font-family="Times,serif" font-size="14.00">(0.41969488204760463)</text>
</g>
<!-- 3&#45;&gt;4 -->
<g id="edge5" class="edge">
<title>3&#45;&gt;4</title>
<path fill="none" stroke="black" d="M1337.21,-643.69C1216.8,-633.05 1029.4,-614.88 867.81,-592.18 855.12,-590.4 841.84,-588.33 828.68,-586.15"/>
<polygon fill="black" stroke="black" points="829.09,-582.67 818.65,-584.47 827.93,-589.58 829.09,-582.67"/>
</g>
<!-- 12 -->
<g id="node7" class="node">
<title>12</title>
<ellipse fill="orange" stroke="black" cx="1013.81" cy="-565.31" rx="137.36" ry="26.74"/>
<text text-anchor="middle" x="1013.81" y="-569.11" font-family="Times,serif" font-size="14.00">eauto.</text>
<text text-anchor="middle" x="1013.81" y="-554.11" font-family="Times,serif" font-size="14.00">(0.09878402911410765)</text>
</g>
<!-- 3&#45;&gt;12 -->
<g id="edge6" class="edge">
<title>3&#45;&gt;12</title>
<path fill="none" stroke="black" d="M1367.35,-635.55C1294.51,-621.28 1193.81,-601.56 1118.52,-586.82"/>
<polygon fill="black" stroke="black" points="1119.02,-583.35 1108.53,-584.86 1117.67,-590.22 1119.02,-583.35"/>
</g>
<!-- 13 -->
<g id="node8" class="node">
<title>13</title>
<ellipse fill="orange" stroke="black" cx="1312.81" cy="-565.31" rx="143.59" ry="26.74"/>
<text text-anchor="middle" x="1312.81" y="-569.11" font-family="Times,serif" font-size="14.00">simpl.</text>
<text text-anchor="middle" x="1312.81" y="-554.11" font-family="Times,serif" font-size="14.00">(0.053442464820165465)</text>
</g>
<!-- 3&#45;&gt;13 -->
<g id="edge7" class="edge">
<title>3&#45;&gt;13</title>
<path fill="none" stroke="black" d="M1419.91,-629.38C1402.46,-619.1 1382.02,-607.07 1363.71,-596.28"/>
<polygon fill="black" stroke="black" points="1365.31,-593.16 1354.92,-591.1 1361.76,-599.19 1365.31,-593.16"/>
</g>
<!-- 14 -->
<g id="node9" class="node">
<title>14</title>
<ellipse fill="none" stroke="black" cx="1611.81" cy="-565.31" rx="137.36" ry="26.74"/>
<text text-anchor="middle" x="1611.81" y="-569.11" font-family="Times,serif" font-size="14.00">unfold succZ.</text>
<text text-anchor="middle" x="1611.81" y="-554.11" font-family="Times,serif" font-size="14.00">(0.04886446219411007)</text>
</g>
<!-- 3&#45;&gt;14 -->
<g id="edge8" class="edge">
<title>3&#45;&gt;14</title>
<path fill="none" stroke="black" d="M1504,-629.38C1521.65,-619.05 1542.31,-606.96 1560.81,-596.15"/>
<polygon fill="black" stroke="black" points="1562.82,-599.02 1569.69,-590.95 1559.29,-592.98 1562.82,-599.02"/>
</g>
<!-- 20 -->
<g id="node10" class="node">
<title>20</title>
<ellipse fill="orange" stroke="black" cx="1903.81" cy="-565.31" rx="137.36" ry="26.74"/>
<text text-anchor="middle" x="1903.81" y="-569.11" font-family="Times,serif" font-size="14.00">destruct OZ.</text>
<text text-anchor="middle" x="1903.81" y="-554.11" font-family="Times,serif" font-size="14.00">(0.02437864075893258)</text>
</g>
<!-- 3&#45;&gt;20 -->
<g id="edge9" class="edge">
<title>3&#45;&gt;20</title>
<path fill="none" stroke="black" d="M1555.82,-635.39C1627.5,-621.16 1726.17,-601.57 1800.14,-586.89"/>
<polygon fill="black" stroke="black" points="1800.82,-590.32 1809.95,-584.94 1799.46,-583.46 1800.82,-590.32"/>
</g>
<!-- 22 -->
<g id="node23" class="node">
<title>22</title>
<ellipse fill="#9aff9a" stroke="black" cx="2189.81" cy="-565.31" rx="130.63" ry="26.74"/>
<text text-anchor="middle" x="2189.81" y="-569.11" font-family="Times,serif" font-size="14.00">reflexivity.</text>
<text text-anchor="middle" x="2189.81" y="-554.11" font-family="Times,serif" font-size="14.00">(0.8547890209665324)</text>
</g>
<!-- 21&#45;&gt;22 -->
<g id="edge22" class="edge">
<title>21&#45;&gt;22</title>
<path fill="none" stroke="black" d="M2032.71,-630.42C2060.65,-619.02 2094.31,-605.29 2123.29,-593.46"/>
<polygon fill="black" stroke="black" points="2124.99,-596.54 2132.93,-589.53 2122.35,-590.06 2124.99,-596.54"/>
</g>
<!-- 5 -->
<g id="node11" class="node">
<title>5</title>
<ellipse fill="orange" stroke="black" cx="130.81" cy="-475.57" rx="130.63" ry="26.74"/>
<text text-anchor="middle" x="130.81" y="-479.37" font-family="Times,serif" font-size="14.00">eauto.</text>
<text text-anchor="middle" x="130.81" y="-464.37" font-family="Times,serif" font-size="14.00">(0.7673411478984694)</text>
</g>
<!-- 4&#45;&gt;5 -->
<g id="edge10" class="edge">
<title>4&#45;&gt;5</title>
<path fill="none" stroke="black" d="M608.07,-550.19C516.75,-538.5 385.32,-520.86 270.81,-502.44 258.88,-500.52 246.39,-498.39 234,-496.2"/>
<polygon fill="black" stroke="black" points="234.55,-492.74 224.09,-494.43 233.32,-499.63 234.55,-492.74"/>
</g>
<!-- 6 -->
<g id="node12" class="node">
<title>6</title>
<ellipse fill="none" stroke="black" cx="429.81" cy="-475.57" rx="149.81" ry="26.74"/>
<text text-anchor="middle" x="429.81" y="-479.37" font-family="Times,serif" font-size="14.00">simpl.</text>
<text text-anchor="middle" x="429.81" y="-464.37" font-family="Times,serif" font-size="14.00">(0.0030053245634765547)</text>
</g>
<!-- 4&#45;&gt;6 -->
<g id="edge11" class="edge">
<title>4&#45;&gt;6</title>
<path fill="none" stroke="black" d="M648.88,-542.4C607.98,-530.11 556.77,-514.72 514.15,-501.91"/>
<polygon fill="black" stroke="black" points="514.94,-498.49 504.35,-498.97 512.92,-505.2 514.94,-498.49"/>
</g>
<!-- 10 -->
<g id="node13" class="node">
<title>10</title>
<ellipse fill="orange" stroke="black" cx="734.81" cy="-475.57" rx="137.36" ry="26.74"/>
<text text-anchor="middle" x="734.81" y="-479.37" font-family="Times,serif" font-size="14.00">intuition.</text>
<text text-anchor="middle" x="734.81" y="-464.37" font-family="Times,serif" font-size="14.00">(0.00036049983938136)</text>
</g>
<!-- 4&#45;&gt;10 -->
<g id="edge12" class="edge">
<title>4&#45;&gt;10</title>
<path fill="none" stroke="black" d="M725.72,-537.99C726.9,-530.02 728.21,-521.13 729.47,-512.64"/>
<polygon fill="black" stroke="black" points="732.96,-512.98 730.96,-502.57 726.03,-511.95 732.96,-512.98"/>
</g>
<!-- 11 -->
<g id="node14" class="node">
<title>11</title>
<ellipse fill="orange" stroke="black" cx="1035.81" cy="-475.57" rx="145.83" ry="26.74"/>
<text text-anchor="middle" x="1035.81" y="-479.37" font-family="Times,serif" font-size="14.00">destruct OZ.</text>
<text text-anchor="middle" x="1035.81" y="-464.37" font-family="Times,serif" font-size="14.00">(9.557238127275303e&#45;05)</text>
</g>
<!-- 4&#45;&gt;11 -->
<g id="edge13" class="edge">
<title>4&#45;&gt;11</title>
<path fill="none" stroke="black" d="M798.23,-542.96C843.48,-530.32 900.98,-514.25 948.08,-501.09"/>
<polygon fill="black" stroke="black" points="949.28,-504.39 957.97,-498.32 947.39,-497.64 949.28,-504.39"/>
</g>
<!-- 15 -->
<g id="node18" class="node">
<title>15</title>
<ellipse fill="none" stroke="black" cx="1611.81" cy="-475.57" rx="137.36" ry="26.74"/>
<text text-anchor="middle" x="1611.81" y="-479.37" font-family="Times,serif" font-size="14.00">destruct x.</text>
<text text-anchor="middle" x="1611.81" y="-464.37" font-family="Times,serif" font-size="14.00">(0.10016796053625025)</text>
</g>
<!-- 14&#45;&gt;15 -->
<g id="edge17" class="edge">
<title>14&#45;&gt;15</title>
<path fill="none" stroke="black" d="M1611.81,-537.99C1611.81,-530.02 1611.81,-521.13 1611.81,-512.64"/>
<polygon fill="black" stroke="black" points="1615.31,-512.57 1611.81,-502.57 1608.31,-512.57 1615.31,-512.57"/>
</g>
<!-- 7 -->
<g id="node15" class="node">
<title>7</title>
<ellipse fill="orange" stroke="black" cx="130.81" cy="-385.83" rx="130.63" ry="26.74"/>
<text text-anchor="middle" x="130.81" y="-389.63" font-family="Times,serif" font-size="14.00">eauto.</text>
<text text-anchor="middle" x="130.81" y="-374.63" font-family="Times,serif" font-size="14.00">(0.8697226421060918)</text>
</g>
<!-- 6&#45;&gt;7 -->
<g id="edge14" class="edge">
<title>6&#45;&gt;7</title>
<path fill="none" stroke="black" d="M353.98,-452.32C311.11,-439.74 257.48,-424 213.53,-411.1"/>
<polygon fill="black" stroke="black" points="214.31,-407.69 203.73,-408.23 212.34,-414.4 214.31,-407.69"/>
</g>
<!-- 8 -->
<g id="node16" class="node">
<title>8</title>
<ellipse fill="orange" stroke="black" cx="429.81" cy="-385.83" rx="149.81" ry="26.74"/>
<text text-anchor="middle" x="429.81" y="-389.63" font-family="Times,serif" font-size="14.00">intros.</text>
<text text-anchor="middle" x="429.81" y="-374.63" font-family="Times,serif" font-size="14.00">(0.0003157131295077849)</text>
</g>
<!-- 6&#45;&gt;8 -->
<g id="edge15" class="edge">
<title>6&#45;&gt;8</title>
<path fill="none" stroke="black" d="M429.81,-448.25C429.81,-440.28 429.81,-431.39 429.81,-422.9"/>
<polygon fill="black" stroke="black" points="433.31,-422.83 429.81,-412.83 426.31,-422.83 433.31,-422.83"/>
</g>
<!-- 9 -->
<g id="node17" class="node">
<title>9</title>
<ellipse fill="none" stroke="black" cx="753.81" cy="-385.83" rx="156.04" ry="26.74"/>
<text text-anchor="middle" x="753.81" y="-389.63" font-family="Times,serif" font-size="14.00">unfold IZ.</text>
<text text-anchor="middle" x="753.81" y="-374.63" font-family="Times,serif" font-size="14.00">(0.00031104529482835506)</text>
</g>
<!-- 6&#45;&gt;9 -->
<g id="edge16" class="edge">
<title>6&#45;&gt;9</title>
<path fill="none" stroke="black" d="M510.32,-452.77C556.61,-440.23 614.9,-424.45 662.84,-411.47"/>
<polygon fill="black" stroke="black" points="663.86,-414.82 672.6,-408.82 662.03,-408.06 663.86,-414.82"/>
</g>
<!-- 16 -->
<g id="node19" class="node">
<title>16</title>
<ellipse fill="orange" stroke="black" cx="1157.81" cy="-385.83" rx="130.63" ry="26.74"/>
<text text-anchor="middle" x="1157.81" y="-389.63" font-family="Times,serif" font-size="14.00">eauto.</text>
<text text-anchor="middle" x="1157.81" y="-374.63" font-family="Times,serif" font-size="14.00">(0.7883386249432697)</text>
</g>
<!-- 15&#45;&gt;16 -->
<g id="edge18" class="edge">
<title>15&#45;&gt;16</title>
<path fill="none" stroke="black" d="M1516.64,-456.18C1441.86,-441.73 1337.88,-421.63 1261.09,-406.79"/>
<polygon fill="black" stroke="black" points="1261.4,-403.29 1250.92,-404.82 1260.07,-410.16 1261.4,-403.29"/>
</g>
<!-- 17 -->
<g id="node20" class="node">
<title>17</title>
<ellipse fill="orange" stroke="black" cx="1456.81" cy="-385.83" rx="149.81" ry="26.74"/>
<text text-anchor="middle" x="1456.81" y="-389.63" font-family="Times,serif" font-size="14.00">simpl.</text>
<text text-anchor="middle" x="1456.81" y="-374.63" font-family="Times,serif" font-size="14.00">(0.0012439302553802639)</text>
</g>
<!-- 15&#45;&gt;17 -->
<g id="edge19" class="edge">
<title>15&#45;&gt;17</title>
<path fill="none" stroke="black" d="M1568.23,-449.9C1549.98,-439.57 1528.62,-427.48 1509.5,-416.66"/>
<polygon fill="black" stroke="black" points="1511.04,-413.5 1500.61,-411.62 1507.59,-419.6 1511.04,-413.5"/>
</g>
<!-- 18 -->
<g id="node21" class="node">
<title>18</title>
<ellipse fill="orange" stroke="black" cx="1774.81" cy="-385.83" rx="149.81" ry="26.74"/>
<text text-anchor="middle" x="1774.81" y="-389.63" font-family="Times,serif" font-size="14.00">intuition.</text>
<text text-anchor="middle" x="1774.81" y="-374.63" font-family="Times,serif" font-size="14.00">(0.0006164923092870887)</text>
</g>
<!-- 15&#45;&gt;18 -->
<g id="edge20" class="edge">
<title>15&#45;&gt;18</title>
<path fill="none" stroke="black" d="M1657.22,-450.13C1676.75,-439.62 1699.74,-427.24 1720.2,-416.23"/>
<polygon fill="black" stroke="black" points="1721.94,-419.27 1729.09,-411.44 1718.62,-413.1 1721.94,-419.27"/>
</g>
<!-- 19 -->
<g id="node22" class="node">
<title>19</title>
<ellipse fill="none" stroke="black" cx="2088.81" cy="-385.83" rx="145.83" ry="26.74"/>
<text text-anchor="middle" x="2088.81" y="-389.63" font-family="Times,serif" font-size="14.00">destruct IZ.</text>
<text text-anchor="middle" x="2088.81" y="-374.63" font-family="Times,serif" font-size="14.00">(8.283240757060423e&#45;05)</text>
</g>
<!-- 15&#45;&gt;19 -->
<g id="edge21" class="edge">
<title>15&#45;&gt;19</title>
<path fill="none" stroke="black" d="M1709.49,-456.6C1787.52,-442.25 1896.87,-422.14 1978.12,-407.19"/>
<polygon fill="black" stroke="black" points="1979.19,-410.55 1988.39,-405.3 1977.92,-403.67 1979.19,-410.55"/>
</g>
<!-- 23 -->
<g id="node24" class="node">
<title>23</title>
<ellipse fill="orange" stroke="black" cx="2164.81" cy="-475.57" rx="130.63" ry="26.74"/>
<text text-anchor="middle" x="2164.81" y="-479.37" font-family="Times,serif" font-size="14.00">eauto.</text>
<text text-anchor="middle" x="2164.81" y="-464.37" font-family="Times,serif" font-size="14.00">(0.4253280021043347)</text>
</g>
<!-- 22&#45;&gt;23 -->
<g id="edge23" class="edge">
<title>22&#45;&gt;23</title>
<path fill="none" stroke="black" d="M2182.45,-538.46C2180.11,-530.23 2177.47,-520.98 2174.96,-512.19"/>
<polygon fill="black" stroke="black" points="2178.32,-511.2 2172.21,-502.54 2171.59,-513.12 2178.32,-511.2"/>
</g>
<!-- 24 -->
<g id="node25" class="node">
<title>24</title>
<ellipse fill="#9aff9a" stroke="black" cx="2450.81" cy="-475.57" rx="137.36" ry="26.74"/>
<text text-anchor="middle" x="2450.81" y="-479.37" font-family="Times,serif" font-size="14.00">simpl.</text>
<text text-anchor="middle" x="2450.81" y="-464.37" font-family="Times,serif" font-size="14.00">(0.21197419137807855)</text>
</g>
<!-- 22&#45;&gt;24 -->
<g id="edge24" class="edge">
<title>22&#45;&gt;24</title>
<path fill="none" stroke="black" d="M2256.01,-542.06C2291.92,-529.99 2336.48,-515 2373.92,-502.42"/>
<polygon fill="black" stroke="black" points="2375.42,-505.61 2383.78,-499.11 2373.18,-498.97 2375.42,-505.61"/>
</g>
<!-- 25 -->
<g id="node26" class="node">
<title>25</title>
<ellipse fill="orange" stroke="black" cx="2438.81" cy="-385.83" rx="137.36" ry="26.74"/>
<text text-anchor="middle" x="2438.81" y="-389.63" font-family="Times,serif" font-size="14.00">intros.</text>
<text text-anchor="middle" x="2438.81" y="-374.63" font-family="Times,serif" font-size="14.00">(0.13513151285803496)</text>
</g>
<!-- 24&#45;&gt;25 -->
<g id="edge25" class="edge">
<title>24&#45;&gt;25</title>
<path fill="none" stroke="black" d="M2447.21,-448.25C2446.12,-440.28 2444.91,-431.39 2443.75,-422.9"/>
<polygon fill="black" stroke="black" points="2447.19,-422.27 2442.37,-412.83 2440.26,-423.22 2447.19,-422.27"/>
</g>
<!-- 26 -->
<g id="node27" class="node">
<title>26</title>
<ellipse fill="#9aff9a" stroke="black" cx="2730.81" cy="-385.83" rx="137.36" ry="26.74"/>
<text text-anchor="middle" x="2730.81" y="-389.63" font-family="Times,serif" font-size="14.00">destruct n.</text>
<text text-anchor="middle" x="2730.81" y="-374.63" font-family="Times,serif" font-size="14.00">(0.10114967708849718)</text>
</g>
<!-- 24&#45;&gt;26 -->
<g id="edge26" class="edge">
<title>24&#45;&gt;26</title>
<path fill="none" stroke="black" d="M2521.47,-452.43C2560.77,-440.12 2609.81,-424.75 2650.55,-411.98"/>
<polygon fill="black" stroke="black" points="2651.69,-415.29 2660.18,-408.96 2649.59,-408.61 2651.69,-415.29"/>
</g>
<!-- 27 -->
<g id="node28" class="node">
<title>27</title>
<ellipse fill="#9aff9a" stroke="black" cx="2730.81" cy="-296.09" rx="130.63" ry="26.74"/>
<text text-anchor="middle" x="2730.81" y="-299.89" font-family="Times,serif" font-size="14.00">eauto.</text>
<text text-anchor="middle" x="2730.81" y="-284.89" font-family="Times,serif" font-size="14.00">(0.7883735970170334)</text>
</g>
<!-- 26&#45;&gt;27 -->
<g id="edge27" class="edge">
<title>26&#45;&gt;27</title>
<path fill="none" stroke="black" d="M2730.81,-358.51C2730.81,-350.54 2730.81,-341.65 2730.81,-333.16"/>
<polygon fill="black" stroke="black" points="2734.31,-333.09 2730.81,-323.09 2727.31,-333.09 2734.31,-333.09"/>
</g>
<!-- 28 -->
<g id="node29" class="node">
<title>28</title>
<ellipse fill="#9aff9a" stroke="black" cx="2730.81" cy="-206.35" rx="124.4" ry="26.74"/>
<text text-anchor="middle" x="2730.81" y="-210.15" font-family="Times,serif" font-size="14.00">eauto.</text>
<text text-anchor="middle" x="2730.81" y="-195.15" font-family="Times,serif" font-size="14.00">(0.609627550569501)</text>
</g>
<!-- 27&#45;&gt;28 -->
<g id="edge28" class="edge">
<title>27&#45;&gt;28</title>
<path fill="none" stroke="black" d="M2730.81,-268.77C2730.81,-260.8 2730.81,-251.91 2730.81,-243.42"/>
<polygon fill="black" stroke="black" points="2734.31,-243.35 2730.81,-233.35 2727.31,-243.35 2734.31,-243.35"/>
</g>
<!-- 29 -->
<g id="node30" class="node">
<title>29</title>
<ellipse fill="#9aff9a" stroke="black" cx="2730.81" cy="-116.61" rx="137.36" ry="26.74"/>
<text text-anchor="middle" x="2730.81" y="-120.41" font-family="Times,serif" font-size="14.00">eauto.</text>
<text text-anchor="middle" x="2730.81" y="-105.41" font-family="Times,serif" font-size="14.00">(0.40565856934868433)</text>
</g>
<!-- 28&#45;&gt;29 -->
<g id="edge29" class="edge">
<title>28&#45;&gt;29</title>
<path fill="none" stroke="black" d="M2730.81,-179.03C2730.81,-171.06 2730.81,-162.17 2730.81,-153.68"/>
<polygon fill="black" stroke="black" points="2734.31,-153.61 2730.81,-143.61 2727.31,-153.61 2734.31,-153.61"/>
</g>
<!-- 30 -->
<g id="node31" class="node">
<title>30</title>
<ellipse fill="green" stroke="black" cx="2730.81" cy="-26.87" rx="35.21" ry="26.74"/>
<text text-anchor="middle" x="2730.81" y="-30.67" font-family="Times,serif" font-size="14.00">QED</text>
<text text-anchor="middle" x="2730.81" y="-15.67" font-family="Times,serif" font-size="14.00">(1.0)</text>
</g>
<!-- 29&#45;&gt;30 -->
<g id="edge30" class="edge">
<title>29&#45;&gt;30</title>
<path fill="none" stroke="black" d="M2730.81,-89.29C2730.81,-81.32 2730.81,-72.43 2730.81,-63.94"/>
<polygon fill="green" stroke="black" points="2734.31,-63.87 2730.81,-53.87 2727.31,-63.87 2734.31,-63.87"/>
</g>
</g>
</svg>
