<?xml version="1.0" encoding="UTF-8" standalone="no"?>
<!DOCTYPE svg PUBLIC "-//W3C//DTD SVG 1.1//EN"
 "http://www.w3.org/Graphics/SVG/1.1/DTD/svg11.dtd">
<!-- Generated by graphviz version 2.43.0 (0)
 -->
<!-- Pages: 1 -->
<svg width="812pt" height="1049pt"
 viewBox="0.00 0.00 812.36 1048.88" xmlns="http://www.w3.org/2000/svg" xmlns:xlink="http://www.w3.org/1999/xlink">
<g id="graph0" class="graph" transform="scale(1 1) rotate(0) translate(4 1044.88)">
<polygon fill="white" stroke="transparent" points="-4,4 -4,-1044.88 808.36,-1044.88 808.36,4 -4,4"/>
<!-- 0 -->
<g id="node1" class="node">
<title>0</title>
<ellipse fill="none" stroke="black" cx="384.18" cy="-1014.01" rx="91.85" ry="26.74"/>
<text text-anchor="middle" x="384.18" y="-1017.81" font-family="Times,serif" font-size="14.00">abs_eq_or_oppZ</text>
<text text-anchor="middle" x="384.18" y="-1002.81" font-family="Times,serif" font-size="14.00">(1.0)</text>
</g>
<!-- 1 -->
<g id="node2" class="node">
<title>1</title>
<ellipse fill="#9aff9a" stroke="black" cx="384.18" cy="-924.27" rx="130.63" ry="26.74"/>
<text text-anchor="middle" x="384.18" y="-928.07" font-family="Times,serif" font-size="14.00">intros.</text>
<text text-anchor="middle" x="384.18" y="-913.07" font-family="Times,serif" font-size="14.00">(0.9447724339322819)</text>
</g>
<!-- 0&#45;&gt;1 -->
<g id="edge1" class="edge">
<title>0&#45;&gt;1</title>
<path fill="none" stroke="black" d="M384.18,-986.69C384.18,-978.72 384.18,-969.83 384.18,-961.34"/>
<polygon fill="black" stroke="black" points="387.68,-961.28 384.18,-951.28 380.68,-961.28 387.68,-961.28"/>
</g>
<!-- 2 -->
<g id="node3" class="node">
<title>2</title>
<ellipse fill="#9aff9a" stroke="black" cx="384.18" cy="-834.53" rx="137.36" ry="26.74"/>
<text text-anchor="middle" x="384.18" y="-838.33" font-family="Times,serif" font-size="14.00">unfold absZ.</text>
<text text-anchor="middle" x="384.18" y="-823.33" font-family="Times,serif" font-size="14.00">(0.13207221362017457)</text>
</g>
<!-- 1&#45;&gt;2 -->
<g id="edge2" class="edge">
<title>1&#45;&gt;2</title>
<path fill="none" stroke="black" d="M384.18,-896.95C384.18,-888.98 384.18,-880.09 384.18,-871.6"/>
<polygon fill="black" stroke="black" points="387.68,-871.54 384.18,-861.54 380.68,-871.54 387.68,-871.54"/>
</g>
<!-- 3 -->
<g id="node4" class="node">
<title>3</title>
<ellipse fill="#9aff9a" stroke="black" cx="384.18" cy="-744.79" rx="130.63" ry="26.74"/>
<text text-anchor="middle" x="384.18" y="-748.59" font-family="Times,serif" font-size="14.00">destruct x.</text>
<text text-anchor="middle" x="384.18" y="-733.59" font-family="Times,serif" font-size="14.00">(0.2358117222223078)</text>
</g>
<!-- 2&#45;&gt;3 -->
<g id="edge3" class="edge">
<title>2&#45;&gt;3</title>
<path fill="none" stroke="black" d="M384.18,-807.21C384.18,-799.24 384.18,-790.35 384.18,-781.86"/>
<polygon fill="black" stroke="black" points="387.68,-781.79 384.18,-771.79 380.68,-781.8 387.68,-781.79"/>
</g>
<!-- 4 -->
<g id="node5" class="node">
<title>4</title>
<ellipse fill="#9aff9a" stroke="black" cx="384.18" cy="-655.05" rx="137.36" ry="26.74"/>
<text text-anchor="middle" x="384.18" y="-658.85" font-family="Times,serif" font-size="14.00">simpl.</text>
<text text-anchor="middle" x="384.18" y="-643.85" font-family="Times,serif" font-size="14.00">(0.46740687492156546)</text>
</g>
<!-- 3&#45;&gt;4 -->
<g id="edge4" class="edge">
<title>3&#45;&gt;4</title>
<path fill="none" stroke="black" d="M384.18,-717.47C384.18,-709.5 384.18,-700.61 384.18,-692.12"/>
<polygon fill="black" stroke="black" points="387.68,-692.05 384.18,-682.05 380.68,-692.05 387.68,-692.05"/>
</g>
<!-- 5 -->
<g id="node6" class="node">
<title>5</title>
<ellipse fill="#9aff9a" stroke="black" cx="384.18" cy="-565.31" rx="137.36" ry="26.74"/>
<text text-anchor="middle" x="384.18" y="-569.11" font-family="Times,serif" font-size="14.00">eauto.</text>
<text text-anchor="middle" x="384.18" y="-554.11" font-family="Times,serif" font-size="14.00">(0.18193731057329665)</text>
</g>
<!-- 4&#45;&gt;5 -->
<g id="edge5" class="edge">
<title>4&#45;&gt;5</title>
<path fill="none" stroke="black" d="M384.18,-627.73C384.18,-619.76 384.18,-610.87 384.18,-602.38"/>
<polygon fill="black" stroke="black" points="387.68,-602.31 384.18,-592.31 380.68,-602.31 387.68,-602.31"/>
</g>
<!-- 6 -->
<g id="node7" class="node">
<title>6</title>
<ellipse fill="#9aff9a" stroke="black" cx="384.18" cy="-475.57" rx="130.63" ry="26.74"/>
<text text-anchor="middle" x="384.18" y="-479.37" font-family="Times,serif" font-size="14.00">simpl.</text>
<text text-anchor="middle" x="384.18" y="-464.37" font-family="Times,serif" font-size="14.00">(0.9164442184725861)</text>
</g>
<!-- 5&#45;&gt;6 -->
<g id="edge6" class="edge">
<title>5&#45;&gt;6</title>
<path fill="none" stroke="black" d="M384.18,-537.99C384.18,-530.02 384.18,-521.13 384.18,-512.64"/>
<polygon fill="black" stroke="black" points="387.68,-512.57 384.18,-502.57 380.68,-512.57 387.68,-512.57"/>
</g>
<!-- 7 -->
<g id="node8" class="node">
<title>7</title>
<ellipse fill="orange" stroke="black" cx="244.18" cy="-385.83" rx="137.36" ry="26.74"/>
<text text-anchor="middle" x="244.18" y="-389.63" font-family="Times,serif" font-size="14.00">intros.</text>
<text text-anchor="middle" x="244.18" y="-374.63" font-family="Times,serif" font-size="14.00">(0.08279028232463931)</text>
</g>
<!-- 6&#45;&gt;7 -->
<g id="edge7" class="edge">
<title>6&#45;&gt;7</title>
<path fill="none" stroke="black" d="M344.81,-449.9C328.55,-439.71 309.56,-427.8 292.47,-417.1"/>
<polygon fill="black" stroke="black" points="294.07,-413.97 283.74,-411.62 290.35,-419.9 294.07,-413.97"/>
</g>
<!-- 8 -->
<g id="node9" class="node">
<title>8</title>
<ellipse fill="#9aff9a" stroke="black" cx="524.18" cy="-385.83" rx="124.4" ry="26.74"/>
<text text-anchor="middle" x="524.18" y="-389.63" font-family="Times,serif" font-size="14.00">try constructor.</text>
<text text-anchor="middle" x="524.18" y="-374.63" font-family="Times,serif" font-size="14.00">(0.068047122472101)</text>
</g>
<!-- 6&#45;&gt;8 -->
<g id="edge8" class="edge">
<title>6&#45;&gt;8</title>
<path fill="none" stroke="black" d="M423.55,-449.9C439.8,-439.71 458.8,-427.8 475.88,-417.1"/>
<polygon fill="black" stroke="black" points="478,-419.9 484.62,-411.62 474.29,-413.97 478,-419.9"/>
</g>
<!-- 9 -->
<g id="node10" class="node">
<title>9</title>
<ellipse fill="#9aff9a" stroke="black" cx="524.18" cy="-296.09" rx="137.36" ry="26.74"/>
<text text-anchor="middle" x="524.18" y="-299.89" font-family="Times,serif" font-size="14.00">eauto.</text>
<text text-anchor="middle" x="524.18" y="-284.89" font-family="Times,serif" font-size="14.00">(0.49968636840582753)</text>
</g>
<!-- 8&#45;&gt;9 -->
<g id="edge9" class="edge">
<title>8&#45;&gt;9</title>
<path fill="none" stroke="black" d="M524.18,-358.51C524.18,-350.54 524.18,-341.65 524.18,-333.16"/>
<polygon fill="black" stroke="black" points="527.68,-333.09 524.18,-323.09 520.68,-333.09 527.68,-333.09"/>
</g>
<!-- 10 -->
<g id="node11" class="node">
<title>10</title>
<ellipse fill="none" stroke="black" cx="381.18" cy="-206.35" rx="130.63" ry="26.74"/>
<text text-anchor="middle" x="381.18" y="-210.15" font-family="Times,serif" font-size="14.00">simpl.</text>
<text text-anchor="middle" x="381.18" y="-195.15" font-family="Times,serif" font-size="14.00">(0.8887910330038439)</text>
</g>
<!-- 9&#45;&gt;10 -->
<g id="edge10" class="edge">
<title>9&#45;&gt;10</title>
<path fill="none" stroke="black" d="M483.58,-270.18C466.99,-260 447.64,-248.13 430.26,-237.47"/>
<polygon fill="black" stroke="black" points="431.73,-234.26 421.38,-232.02 428.07,-240.23 431.73,-234.26"/>
</g>
<!-- 15 -->
<g id="node12" class="node">
<title>15</title>
<ellipse fill="#9aff9a" stroke="black" cx="667.18" cy="-206.35" rx="137.36" ry="26.74"/>
<text text-anchor="middle" x="667.18" y="-210.15" font-family="Times,serif" font-size="14.00">eauto.</text>
<text text-anchor="middle" x="667.18" y="-195.15" font-family="Times,serif" font-size="14.00">(0.05359494496725507)</text>
</g>
<!-- 9&#45;&gt;15 -->
<g id="edge11" class="edge">
<title>9&#45;&gt;15</title>
<path fill="none" stroke="black" d="M564.77,-270.18C581.23,-260.09 600.39,-248.33 617.65,-237.74"/>
<polygon fill="black" stroke="black" points="619.79,-240.53 626.48,-232.32 616.13,-234.57 619.79,-240.53"/>
</g>
<!-- 11 -->
<g id="node13" class="node">
<title>11</title>
<ellipse fill="orange" stroke="black" cx="137.18" cy="-116.61" rx="137.36" ry="26.74"/>
<text text-anchor="middle" x="137.18" y="-120.41" font-family="Times,serif" font-size="14.00">intros.</text>
<text text-anchor="middle" x="137.18" y="-105.41" font-family="Times,serif" font-size="14.00">(0.04862661005869699)</text>
</g>
<!-- 10&#45;&gt;11 -->
<g id="edge12" class="edge">
<title>10&#45;&gt;11</title>
<path fill="none" stroke="black" d="M318.34,-182.76C285.3,-170.87 244.62,-156.25 210.19,-143.86"/>
<polygon fill="black" stroke="black" points="211.24,-140.52 200.65,-140.43 208.88,-147.11 211.24,-140.52"/>
</g>
<!-- 12 -->
<g id="node14" class="node">
<title>12</title>
<ellipse fill="none" stroke="black" cx="429.18" cy="-116.61" rx="137.36" ry="26.74"/>
<text text-anchor="middle" x="429.18" y="-120.41" font-family="Times,serif" font-size="14.00">try constructor.</text>
<text text-anchor="middle" x="429.18" y="-105.41" font-family="Times,serif" font-size="14.00">(0.03996728088085961)</text>
</g>
<!-- 10&#45;&gt;12 -->
<g id="edge13" class="edge">
<title>10&#45;&gt;12</title>
<path fill="none" stroke="black" d="M395.32,-179.5C399.97,-171.01 405.21,-161.43 410.16,-152.38"/>
<polygon fill="black" stroke="black" points="413.24,-154.03 414.97,-143.58 407.1,-150.67 413.24,-154.03"/>
</g>
<!-- 16 -->
<g id="node17" class="node">
<title>16</title>
<ellipse fill="green" stroke="black" cx="667.18" cy="-116.61" rx="35.21" ry="26.74"/>
<text text-anchor="middle" x="667.18" y="-120.41" font-family="Times,serif" font-size="14.00">QED</text>
<text text-anchor="middle" x="667.18" y="-105.41" font-family="Times,serif" font-size="14.00">(1.0)</text>
</g>
<!-- 15&#45;&gt;16 -->
<g id="edge16" class="edge">
<title>15&#45;&gt;16</title>
<path fill="none" stroke="black" d="M667.18,-179.03C667.18,-171.06 667.18,-162.17 667.18,-153.68"/>
<polygon fill="green" stroke="black" points="670.68,-153.61 667.18,-143.61 663.68,-153.61 670.68,-153.61"/>
</g>
<!-- 13 -->
<g id="node15" class="node">
<title>13</title>
<ellipse fill="orange" stroke="black" cx="286.18" cy="-26.87" rx="130.63" ry="26.74"/>
<text text-anchor="middle" x="286.18" y="-30.67" font-family="Times,serif" font-size="14.00">eauto.</text>
<text text-anchor="middle" x="286.18" y="-15.67" font-family="Times,serif" font-size="14.00">(0.4222431631458592)</text>
</g>
<!-- 12&#45;&gt;13 -->
<g id="edge14" class="edge">
<title>12&#45;&gt;13</title>
<path fill="none" stroke="black" d="M388.58,-90.7C371.99,-80.52 352.64,-68.65 335.26,-57.99"/>
<polygon fill="black" stroke="black" points="336.73,-54.78 326.38,-52.54 333.07,-60.75 336.73,-54.78"/>
</g>
<!-- 14 -->
<g id="node16" class="node">
<title>14</title>
<ellipse fill="none" stroke="black" cx="572.18" cy="-26.87" rx="137.36" ry="26.74"/>
<text text-anchor="middle" x="572.18" y="-30.67" font-family="Times,serif" font-size="14.00">symmetry.</text>
<text text-anchor="middle" x="572.18" y="-15.67" font-family="Times,serif" font-size="14.00">(0.09132427178040885)</text>
</g>
<!-- 12&#45;&gt;14 -->
<g id="edge15" class="edge">
<title>12&#45;&gt;14</title>
<path fill="none" stroke="black" d="M469.77,-90.7C486.23,-80.61 505.39,-68.85 522.65,-58.26"/>
<polygon fill="black" stroke="black" points="524.79,-61.05 531.48,-52.84 521.13,-55.09 524.79,-61.05"/>
</g>
</g>
</svg>
