<?xml version="1.0" encoding="UTF-8" standalone="no"?>
<!DOCTYPE svg PUBLIC "-//W3C//DTD SVG 1.1//EN"
 "http://www.w3.org/Graphics/SVG/1.1/DTD/svg11.dtd">
<!-- Generated by graphviz version 2.43.0 (0)
 -->
<!-- Pages: 1 -->
<svg width="562pt" height="331pt"
 viewBox="0.00 0.00 561.99 330.96" xmlns="http://www.w3.org/2000/svg" xmlns:xlink="http://www.w3.org/1999/xlink">
<g id="graph0" class="graph" transform="scale(1 1) rotate(0) translate(4 326.96)">
<polygon fill="white" stroke="transparent" points="-4,4 -4,-326.96 557.99,-326.96 557.99,4 -4,4"/>
<!-- 0 -->
<g id="node1" class="node">
<title>0</title>
<ellipse fill="none" stroke="black" cx="273.81" cy="-296.09" rx="106.13" ry="26.74"/>
<text text-anchor="middle" x="273.81" y="-299.89" font-family="Times,serif" font-size="14.00">tech_pos_not_posZ</text>
<text text-anchor="middle" x="273.81" y="-284.89" font-family="Times,serif" font-size="14.00">(1.0)</text>
</g>
<!-- 1 -->
<g id="node2" class="node">
<title>1</title>
<ellipse fill="#9aff9a" stroke="black" cx="273.81" cy="-206.35" rx="124.4" ry="26.74"/>
<text text-anchor="middle" x="273.81" y="-210.15" font-family="Times,serif" font-size="14.00">intros.</text>
<text text-anchor="middle" x="273.81" y="-195.15" font-family="Times,serif" font-size="14.00">(0.927930222358886)</text>
</g>
<!-- 0&#45;&gt;1 -->
<g id="edge1" class="edge">
<title>0&#45;&gt;1</title>
<path fill="none" stroke="black" d="M273.81,-268.77C273.81,-260.8 273.81,-251.91 273.81,-243.42"/>
<polygon fill="black" stroke="black" points="277.31,-243.35 273.81,-233.35 270.31,-243.35 277.31,-243.35"/>
</g>
<!-- 2 -->
<g id="node3" class="node">
<title>2</title>
<ellipse fill="orange" stroke="black" cx="130.81" cy="-116.61" rx="130.63" ry="26.74"/>
<text text-anchor="middle" x="130.81" y="-120.41" font-family="Times,serif" font-size="14.00">eauto.</text>
<text text-anchor="middle" x="130.81" y="-105.41" font-family="Times,serif" font-size="14.00">(0.6398020714300285)</text>
</g>
<!-- 1&#45;&gt;2 -->
<g id="edge2" class="edge">
<title>1&#45;&gt;2</title>
<path fill="none" stroke="black" d="M233.6,-180.68C217,-170.49 197.59,-158.58 180.14,-147.88"/>
<polygon fill="black" stroke="black" points="181.58,-144.65 171.22,-142.4 177.92,-150.62 181.58,-144.65"/>
</g>
<!-- 3 -->
<g id="node4" class="node">
<title>3</title>
<ellipse fill="#9aff9a" stroke="black" cx="416.81" cy="-116.61" rx="137.36" ry="26.74"/>
<text text-anchor="middle" x="416.81" y="-120.41" font-family="Times,serif" font-size="14.00">congruence.</text>
<text text-anchor="middle" x="416.81" y="-105.41" font-family="Times,serif" font-size="14.00">(0.22702230109417743)</text>
</g>
<!-- 1&#45;&gt;3 -->
<g id="edge3" class="edge">
<title>1&#45;&gt;3</title>
<path fill="none" stroke="black" d="M314.03,-180.68C330.63,-170.49 350.04,-158.58 367.49,-147.88"/>
<polygon fill="black" stroke="black" points="369.71,-150.62 376.41,-142.4 366.05,-144.65 369.71,-150.62"/>
</g>
<!-- 4 -->
<g id="node5" class="node">
<title>4</title>
<ellipse fill="green" stroke="black" cx="416.81" cy="-26.87" rx="35.21" ry="26.74"/>
<text text-anchor="middle" x="416.81" y="-30.67" font-family="Times,serif" font-size="14.00">QED</text>
<text text-anchor="middle" x="416.81" y="-15.67" font-family="Times,serif" font-size="14.00">(1.0)</text>
</g>
<!-- 3&#45;&gt;4 -->
<g id="edge4" class="edge">
<title>3&#45;&gt;4</title>
<path fill="none" stroke="black" d="M416.81,-89.29C416.81,-81.32 416.81,-72.43 416.81,-63.94"/>
<polygon fill="green" stroke="black" points="420.31,-63.87 416.81,-53.87 413.31,-63.87 420.31,-63.87"/>
</g>
</g>
</svg>
