<?xml version="1.0" encoding="UTF-8" standalone="no"?>
<!DOCTYPE svg PUBLIC "-//W3C//DTD SVG 1.1//EN"
 "http://www.w3.org/Graphics/SVG/1.1/DTD/svg11.dtd">
<!-- Generated by graphviz version 2.43.0 (0)
 -->
<!-- Pages: 1 -->
<svg width="1477pt" height="959pt"
 viewBox="0.00 0.00 1476.99 959.14" xmlns="http://www.w3.org/2000/svg" xmlns:xlink="http://www.w3.org/1999/xlink">
<g id="graph0" class="graph" transform="scale(1 1) rotate(0) translate(4 955.14)">
<polygon fill="white" stroke="transparent" points="-4,4 -4,-955.14 1472.99,-955.14 1472.99,4 -4,4"/>
<!-- 0 -->
<g id="node1" class="node">
<title>0</title>
<ellipse fill="none" stroke="black" cx="653.81" cy="-924.27" rx="71.34" ry="26.74"/>
<text text-anchor="middle" x="653.81" y="-928.07" font-family="Times,serif" font-size="14.00">le_opp_OZ_l</text>
<text text-anchor="middle" x="653.81" y="-913.07" font-family="Times,serif" font-size="14.00">(1.0)</text>
</g>
<!-- 1 -->
<g id="node2" class="node">
<title>1</title>
<ellipse fill="#9aff9a" stroke="black" cx="653.81" cy="-834.53" rx="130.63" ry="26.74"/>
<text text-anchor="middle" x="653.81" y="-838.33" font-family="Times,serif" font-size="14.00">intros.</text>
<text text-anchor="middle" x="653.81" y="-823.33" font-family="Times,serif" font-size="14.00">(0.8970880001183172)</text>
</g>
<!-- 0&#45;&gt;1 -->
<g id="edge1" class="edge">
<title>0&#45;&gt;1</title>
<path fill="none" stroke="black" d="M653.81,-896.95C653.81,-888.98 653.81,-880.09 653.81,-871.6"/>
<polygon fill="black" stroke="black" points="657.31,-871.54 653.81,-861.54 650.31,-871.54 657.31,-871.54"/>
</g>
<!-- 2 -->
<g id="node3" class="node">
<title>2</title>
<ellipse fill="#9aff9a" stroke="black" cx="653.81" cy="-744.79" rx="137.36" ry="26.74"/>
<text text-anchor="middle" x="653.81" y="-748.59" font-family="Times,serif" font-size="14.00">red.</text>
<text text-anchor="middle" x="653.81" y="-733.59" font-family="Times,serif" font-size="14.00">(0.13692809159606076)</text>
</g>
<!-- 1&#45;&gt;2 -->
<g id="edge2" class="edge">
<title>1&#45;&gt;2</title>
<path fill="none" stroke="black" d="M653.81,-807.21C653.81,-799.24 653.81,-790.35 653.81,-781.86"/>
<polygon fill="black" stroke="black" points="657.31,-781.79 653.81,-771.79 650.31,-781.8 657.31,-781.79"/>
</g>
<!-- 3 -->
<g id="node4" class="node">
<title>3</title>
<ellipse fill="#9aff9a" stroke="black" cx="653.81" cy="-655.05" rx="130.63" ry="26.74"/>
<text text-anchor="middle" x="653.81" y="-658.85" font-family="Times,serif" font-size="14.00">destruct x.</text>
<text text-anchor="middle" x="653.81" y="-643.85" font-family="Times,serif" font-size="14.00">(0.6548727331471658)</text>
</g>
<!-- 2&#45;&gt;3 -->
<g id="edge3" class="edge">
<title>2&#45;&gt;3</title>
<path fill="none" stroke="black" d="M653.81,-717.47C653.81,-709.5 653.81,-700.61 653.81,-692.12"/>
<polygon fill="black" stroke="black" points="657.31,-692.05 653.81,-682.05 650.31,-692.05 657.31,-692.05"/>
</g>
<!-- 4 -->
<g id="node5" class="node">
<title>4</title>
<ellipse fill="orange" stroke="black" cx="221.81" cy="-565.31" rx="130.63" ry="26.74"/>
<text text-anchor="middle" x="221.81" y="-569.11" font-family="Times,serif" font-size="14.00">try contradiction.</text>
<text text-anchor="middle" x="221.81" y="-554.11" font-family="Times,serif" font-size="14.00">(0.5721063526559723)</text>
</g>
<!-- 3&#45;&gt;4 -->
<g id="edge4" class="edge">
<title>3&#45;&gt;4</title>
<path fill="none" stroke="black" d="M563.25,-635.66C492.95,-621.38 395.53,-601.59 322.73,-586.81"/>
<polygon fill="black" stroke="black" points="323.12,-583.32 312.63,-584.76 321.73,-590.18 323.12,-583.32"/>
</g>
<!-- 5 -->
<g id="node6" class="node">
<title>5</title>
<ellipse fill="orange" stroke="black" cx="507.81" cy="-565.31" rx="137.36" ry="26.74"/>
<text text-anchor="middle" x="507.81" y="-569.11" font-family="Times,serif" font-size="14.00">destruct OZ.</text>
<text text-anchor="middle" x="507.81" y="-554.11" font-family="Times,serif" font-size="14.00">(0.17643067075242685)</text>
</g>
<!-- 3&#45;&gt;5 -->
<g id="edge5" class="edge">
<title>3&#45;&gt;5</title>
<path fill="none" stroke="black" d="M612.76,-629.38C595.65,-619.1 575.63,-607.07 557.69,-596.28"/>
<polygon fill="black" stroke="black" points="559.44,-593.25 549.07,-591.1 555.84,-599.25 559.44,-593.25"/>
</g>
<!-- 6 -->
<g id="node7" class="node">
<title>6</title>
<ellipse fill="none" stroke="black" cx="799.81" cy="-565.31" rx="137.36" ry="26.74"/>
<text text-anchor="middle" x="799.81" y="-569.11" font-family="Times,serif" font-size="14.00">destruct oppZ.</text>
<text text-anchor="middle" x="799.81" y="-554.11" font-family="Times,serif" font-size="14.00">(0.12547263152312108)</text>
</g>
<!-- 3&#45;&gt;6 -->
<g id="edge6" class="edge">
<title>3&#45;&gt;6</title>
<path fill="none" stroke="black" d="M694.87,-629.38C711.98,-619.1 732,-607.07 749.94,-596.28"/>
<polygon fill="black" stroke="black" points="751.79,-599.25 758.56,-591.1 748.19,-593.25 751.79,-599.25"/>
</g>
<!-- 12 -->
<g id="node8" class="node">
<title>12</title>
<ellipse fill="#9aff9a" stroke="black" cx="1253.81" cy="-565.31" rx="143.59" ry="26.74"/>
<text text-anchor="middle" x="1253.81" y="-569.11" font-family="Times,serif" font-size="14.00">simpl.</text>
<text text-anchor="middle" x="1253.81" y="-554.11" font-family="Times,serif" font-size="14.00">(0.022297247557325983)</text>
</g>
<!-- 3&#45;&gt;12 -->
<g id="edge7" class="edge">
<title>3&#45;&gt;12</title>
<path fill="none" stroke="black" d="M758.33,-638.77C862.76,-623.5 1023.17,-600.04 1133,-583.98"/>
<polygon fill="black" stroke="black" points="1133.75,-587.41 1143.14,-582.5 1132.74,-580.48 1133.75,-587.41"/>
</g>
<!-- 7 -->
<g id="node9" class="node">
<title>7</title>
<ellipse fill="blue" stroke="black" cx="721.81" cy="-475.57" rx="130.63" ry="26.74"/>
<text text-anchor="middle" x="721.81" y="-479.37" font-family="Times,serif" font-size="14.00">eauto.</text>
<text text-anchor="middle" x="721.81" y="-464.37" font-family="Times,serif" font-size="14.00">(0.9989697829104207)</text>
</g>
<!-- 6&#45;&gt;7 -->
<g id="edge8" class="edge">
<title>6&#45;&gt;7</title>
<path fill="none" stroke="black" d="M776.83,-538.46C768.9,-529.54 759.89,-519.41 751.5,-509.96"/>
<polygon fill="black" stroke="black" points="753.89,-507.38 744.63,-502.24 748.66,-512.04 753.89,-507.38"/>
</g>
<!-- 13 -->
<g id="node14" class="node">
<title>13</title>
<ellipse fill="#9aff9a" stroke="black" cx="1292.81" cy="-475.57" rx="130.63" ry="26.74"/>
<text text-anchor="middle" x="1292.81" y="-479.37" font-family="Times,serif" font-size="14.00">eauto.</text>
<text text-anchor="middle" x="1292.81" y="-464.37" font-family="Times,serif" font-size="14.00">(0.9989697829104207)</text>
</g>
<!-- 12&#45;&gt;13 -->
<g id="edge13" class="edge">
<title>12&#45;&gt;13</title>
<path fill="none" stroke="black" d="M1265.31,-538.46C1269,-530.15 1273.16,-520.78 1277.11,-511.91"/>
<polygon fill="black" stroke="black" points="1280.41,-513.1 1281.27,-502.54 1274.01,-510.26 1280.41,-513.1"/>
</g>
<!-- 8 -->
<g id="node10" class="node">
<title>8</title>
<ellipse fill="orange" stroke="black" cx="130.81" cy="-385.83" rx="130.63" ry="26.74"/>
<text text-anchor="middle" x="130.81" y="-389.63" font-family="Times,serif" font-size="14.00">eauto.</text>
<text text-anchor="middle" x="130.81" y="-374.63" font-family="Times,serif" font-size="14.00">(0.8944615128515851)</text>
</g>
<!-- 7&#45;&gt;8 -->
<g id="edge9" class="edge">
<title>7&#45;&gt;8</title>
<path fill="none" stroke="black" d="M611.78,-460.93C520.34,-449.24 386.88,-431.38 270.81,-412.7 258.88,-410.78 246.39,-408.65 234,-406.46"/>
<polygon fill="black" stroke="black" points="234.55,-403 224.09,-404.69 233.32,-409.89 234.55,-403"/>
</g>
<!-- 9 -->
<g id="node11" class="node">
<title>9</title>
<ellipse fill="orange" stroke="black" cx="416.81" cy="-385.83" rx="137.36" ry="26.74"/>
<text text-anchor="middle" x="416.81" y="-389.63" font-family="Times,serif" font-size="14.00">try discriminate.</text>
<text text-anchor="middle" x="416.81" y="-374.63" font-family="Times,serif" font-size="14.00">(0.03283532935171936)</text>
</g>
<!-- 7&#45;&gt;9 -->
<g id="edge10" class="edge">
<title>7&#45;&gt;9</title>
<path fill="none" stroke="black" d="M647.98,-453.33C603.79,-440.62 547.46,-424.41 501.47,-411.18"/>
<polygon fill="black" stroke="black" points="502.4,-407.81 491.82,-408.41 500.46,-414.54 502.4,-407.81"/>
</g>
<!-- 10 -->
<g id="node12" class="node">
<title>10</title>
<ellipse fill="orange" stroke="black" cx="721.81" cy="-385.83" rx="149.81" ry="26.74"/>
<text text-anchor="middle" x="721.81" y="-389.63" font-family="Times,serif" font-size="14.00">subst.</text>
<text text-anchor="middle" x="721.81" y="-374.63" font-family="Times,serif" font-size="14.00">(0.0016940432210437526)</text>
</g>
<!-- 7&#45;&gt;10 -->
<g id="edge11" class="edge">
<title>7&#45;&gt;10</title>
<path fill="none" stroke="black" d="M721.81,-448.25C721.81,-440.28 721.81,-431.39 721.81,-422.9"/>
<polygon fill="black" stroke="black" points="725.31,-422.83 721.81,-412.83 718.31,-422.83 725.31,-422.83"/>
</g>
<!-- 11 -->
<g id="node13" class="node">
<title>11</title>
<ellipse fill="orange" stroke="black" cx="1039.81" cy="-385.83" rx="149.81" ry="26.74"/>
<text text-anchor="middle" x="1039.81" y="-389.63" font-family="Times,serif" font-size="14.00">simpl.</text>
<text text-anchor="middle" x="1039.81" y="-374.63" font-family="Times,serif" font-size="14.00">(0.0012758695282777443)</text>
</g>
<!-- 7&#45;&gt;11 -->
<g id="edge12" class="edge">
<title>7&#45;&gt;11</title>
<path fill="none" stroke="black" d="M797.98,-453.55C843.97,-440.87 902.78,-424.64 950.88,-411.37"/>
<polygon fill="black" stroke="black" points="951.96,-414.7 960.67,-408.67 950.1,-407.95 951.96,-414.7"/>
</g>
<!-- 14 -->
<g id="node15" class="node">
<title>14</title>
<ellipse fill="#9aff9a" stroke="black" cx="1331.81" cy="-385.83" rx="124.4" ry="26.74"/>
<text text-anchor="middle" x="1331.81" y="-389.63" font-family="Times,serif" font-size="14.00">simpl.</text>
<text text-anchor="middle" x="1331.81" y="-374.63" font-family="Times,serif" font-size="14.00">(0.948296383803637)</text>
</g>
<!-- 13&#45;&gt;14 -->
<g id="edge14" class="edge">
<title>13&#45;&gt;14</title>
<path fill="none" stroke="black" d="M1304.31,-448.72C1308,-440.4 1312.16,-431.04 1316.11,-422.17"/>
<polygon fill="black" stroke="black" points="1319.41,-423.36 1320.27,-412.8 1313.01,-420.52 1319.41,-423.36"/>
</g>
<!-- 15 -->
<g id="node16" class="node">
<title>15</title>
<ellipse fill="#9aff9a" stroke="black" cx="1331.81" cy="-296.09" rx="130.63" ry="26.74"/>
<text text-anchor="middle" x="1331.81" y="-299.89" font-family="Times,serif" font-size="14.00">eauto.</text>
<text text-anchor="middle" x="1331.81" y="-284.89" font-family="Times,serif" font-size="14.00">(0.9957856675822141)</text>
</g>
<!-- 14&#45;&gt;15 -->
<g id="edge15" class="edge">
<title>14&#45;&gt;15</title>
<path fill="none" stroke="black" d="M1331.81,-358.51C1331.81,-350.54 1331.81,-341.65 1331.81,-333.16"/>
<polygon fill="black" stroke="black" points="1335.31,-333.09 1331.81,-323.09 1328.31,-333.09 1335.31,-333.09"/>
</g>
<!-- 16 -->
<g id="node17" class="node">
<title>16</title>
<ellipse fill="#9aff9a" stroke="black" cx="1331.81" cy="-206.35" rx="130.63" ry="26.74"/>
<text text-anchor="middle" x="1331.81" y="-210.15" font-family="Times,serif" font-size="14.00">simpl.</text>
<text text-anchor="middle" x="1331.81" y="-195.15" font-family="Times,serif" font-size="14.00">(0.9526889309984832)</text>
</g>
<!-- 15&#45;&gt;16 -->
<g id="edge16" class="edge">
<title>15&#45;&gt;16</title>
<path fill="none" stroke="black" d="M1331.81,-268.77C1331.81,-260.8 1331.81,-251.91 1331.81,-243.42"/>
<polygon fill="black" stroke="black" points="1335.31,-243.35 1331.81,-233.35 1328.31,-243.35 1335.31,-243.35"/>
</g>
<!-- 17 -->
<g id="node18" class="node">
<title>17</title>
<ellipse fill="#9aff9a" stroke="black" cx="1331.81" cy="-116.61" rx="137.36" ry="26.74"/>
<text text-anchor="middle" x="1331.81" y="-120.41" font-family="Times,serif" font-size="14.00">eauto.</text>
<text text-anchor="middle" x="1331.81" y="-105.41" font-family="Times,serif" font-size="14.00">(0.39402447822151726)</text>
</g>
<!-- 16&#45;&gt;17 -->
<g id="edge17" class="edge">
<title>16&#45;&gt;17</title>
<path fill="none" stroke="black" d="M1331.81,-179.03C1331.81,-171.06 1331.81,-162.17 1331.81,-153.68"/>
<polygon fill="black" stroke="black" points="1335.31,-153.61 1331.81,-143.61 1328.31,-153.61 1335.31,-153.61"/>
</g>
<!-- 18 -->
<g id="node19" class="node">
<title>18</title>
<ellipse fill="green" stroke="black" cx="1331.81" cy="-26.87" rx="35.21" ry="26.74"/>
<text text-anchor="middle" x="1331.81" y="-30.67" font-family="Times,serif" font-size="14.00">QED</text>
<text text-anchor="middle" x="1331.81" y="-15.67" font-family="Times,serif" font-size="14.00">(1.0)</text>
</g>
<!-- 17&#45;&gt;18 -->
<g id="edge18" class="edge">
<title>17&#45;&gt;18</title>
<path fill="none" stroke="black" d="M1331.81,-89.29C1331.81,-81.32 1331.81,-72.43 1331.81,-63.94"/>
<polygon fill="green" stroke="black" points="1335.31,-63.87 1331.81,-53.87 1328.31,-63.87 1335.31,-63.87"/>
</g>
</g>
</svg>
