<?xml version="1.0" encoding="UTF-8" standalone="no"?>
<!DOCTYPE svg PUBLIC "-//W3C//DTD SVG 1.1//EN"
 "http://www.w3.org/Graphics/SVG/1.1/DTD/svg11.dtd">
<!-- Generated by graphviz version 2.43.0 (0)
 -->
<!-- Pages: 1 -->
<svg width="841pt" height="959pt"
 viewBox="0.00 0.00 841.36 959.14" xmlns="http://www.w3.org/2000/svg" xmlns:xlink="http://www.w3.org/1999/xlink">
<g id="graph0" class="graph" transform="scale(1 1) rotate(0) translate(4 955.14)">
<polygon fill="white" stroke="transparent" points="-4,4 -4,-955.14 837.36,-955.14 837.36,4 -4,4"/>
<!-- 0 -->
<g id="node1" class="node">
<title>0</title>
<ellipse fill="none" stroke="black" cx="403.81" cy="-924.27" rx="62.45" ry="26.74"/>
<text text-anchor="middle" x="403.81" y="-928.07" font-family="Times,serif" font-size="14.00">sign_absZ</text>
<text text-anchor="middle" x="403.81" y="-913.07" font-family="Times,serif" font-size="14.00">(1.0)</text>
</g>
<!-- 1 -->
<g id="node2" class="node">
<title>1</title>
<ellipse fill="#9aff9a" stroke="black" cx="403.81" cy="-834.53" rx="130.63" ry="26.74"/>
<text text-anchor="middle" x="403.81" y="-838.33" font-family="Times,serif" font-size="14.00">intros.</text>
<text text-anchor="middle" x="403.81" y="-823.33" font-family="Times,serif" font-size="14.00">(0.8592461524844859)</text>
</g>
<!-- 0&#45;&gt;1 -->
<g id="edge1" class="edge">
<title>0&#45;&gt;1</title>
<path fill="none" stroke="black" d="M403.81,-896.95C403.81,-888.98 403.81,-880.09 403.81,-871.6"/>
<polygon fill="black" stroke="black" points="407.31,-871.54 403.81,-861.54 400.31,-871.54 407.31,-871.54"/>
</g>
<!-- 2 -->
<g id="node3" class="node">
<title>2</title>
<ellipse fill="orange" stroke="black" cx="130.81" cy="-744.79" rx="130.63" ry="26.74"/>
<text text-anchor="middle" x="130.81" y="-748.59" font-family="Times,serif" font-size="14.00">destruct OZ.</text>
<text text-anchor="middle" x="130.81" y="-733.59" font-family="Times,serif" font-size="14.00">(0.2867786380682958)</text>
</g>
<!-- 1&#45;&gt;2 -->
<g id="edge2" class="edge">
<title>1&#45;&gt;2</title>
<path fill="none" stroke="black" d="M335.28,-811.5C296.9,-799.17 248.91,-783.74 209.06,-770.94"/>
<polygon fill="black" stroke="black" points="209.97,-767.56 199.38,-767.83 207.83,-774.22 209.97,-767.56"/>
</g>
<!-- 3 -->
<g id="node4" class="node">
<title>3</title>
<ellipse fill="orange" stroke="black" cx="403.81" cy="-744.79" rx="124.4" ry="26.74"/>
<text text-anchor="middle" x="403.81" y="-748.59" font-family="Times,serif" font-size="14.00">eauto.</text>
<text text-anchor="middle" x="403.81" y="-733.59" font-family="Times,serif" font-size="14.00">(0.135991912160077)</text>
</g>
<!-- 1&#45;&gt;3 -->
<g id="edge3" class="edge">
<title>1&#45;&gt;3</title>
<path fill="none" stroke="black" d="M403.81,-807.21C403.81,-799.24 403.81,-790.35 403.81,-781.86"/>
<polygon fill="black" stroke="black" points="407.31,-781.79 403.81,-771.79 400.31,-781.8 407.31,-781.79"/>
</g>
<!-- 4 -->
<g id="node5" class="node">
<title>4</title>
<ellipse fill="#9aff9a" stroke="black" cx="689.81" cy="-744.79" rx="143.59" ry="26.74"/>
<text text-anchor="middle" x="689.81" y="-748.59" font-family="Times,serif" font-size="14.00">unfold leZ.</text>
<text text-anchor="middle" x="689.81" y="-733.59" font-family="Times,serif" font-size="14.00">(0.054626803198309724)</text>
</g>
<!-- 1&#45;&gt;4 -->
<g id="edge4" class="edge">
<title>1&#45;&gt;4</title>
<path fill="none" stroke="black" d="M474.51,-811.84C514.8,-799.48 565.47,-783.94 607.53,-771.03"/>
<polygon fill="black" stroke="black" points="608.66,-774.35 617.2,-768.07 606.61,-767.66 608.66,-774.35"/>
</g>
<!-- 5 -->
<g id="node6" class="node">
<title>5</title>
<ellipse fill="#9aff9a" stroke="black" cx="689.81" cy="-655.05" rx="130.63" ry="26.74"/>
<text text-anchor="middle" x="689.81" y="-658.85" font-family="Times,serif" font-size="14.00">destruct x.</text>
<text text-anchor="middle" x="689.81" y="-643.85" font-family="Times,serif" font-size="14.00">(0.8114447556629887)</text>
</g>
<!-- 4&#45;&gt;5 -->
<g id="edge5" class="edge">
<title>4&#45;&gt;5</title>
<path fill="none" stroke="black" d="M689.81,-717.47C689.81,-709.5 689.81,-700.61 689.81,-692.12"/>
<polygon fill="black" stroke="black" points="693.31,-692.05 689.81,-682.05 686.31,-692.05 693.31,-692.05"/>
</g>
<!-- 6 -->
<g id="node7" class="node">
<title>6</title>
<ellipse fill="#9aff9a" stroke="black" cx="689.81" cy="-565.31" rx="124.4" ry="26.74"/>
<text text-anchor="middle" x="689.81" y="-569.11" font-family="Times,serif" font-size="14.00">simpl.</text>
<text text-anchor="middle" x="689.81" y="-554.11" font-family="Times,serif" font-size="14.00">(0.763677029415253)</text>
</g>
<!-- 5&#45;&gt;6 -->
<g id="edge6" class="edge">
<title>5&#45;&gt;6</title>
<path fill="none" stroke="black" d="M689.81,-627.73C689.81,-619.76 689.81,-610.87 689.81,-602.38"/>
<polygon fill="black" stroke="black" points="693.31,-602.31 689.81,-592.31 686.31,-602.31 693.31,-602.31"/>
</g>
<!-- 7 -->
<g id="node8" class="node">
<title>7</title>
<ellipse fill="#9aff9a" stroke="black" cx="689.81" cy="-475.57" rx="130.63" ry="26.74"/>
<text text-anchor="middle" x="689.81" y="-479.37" font-family="Times,serif" font-size="14.00">eauto.</text>
<text text-anchor="middle" x="689.81" y="-464.37" font-family="Times,serif" font-size="14.00">(0.9999952316511552)</text>
</g>
<!-- 6&#45;&gt;7 -->
<g id="edge7" class="edge">
<title>6&#45;&gt;7</title>
<path fill="none" stroke="black" d="M689.81,-537.99C689.81,-530.02 689.81,-521.13 689.81,-512.64"/>
<polygon fill="black" stroke="black" points="693.31,-512.57 689.81,-502.57 686.31,-512.57 693.31,-512.57"/>
</g>
<!-- 8 -->
<g id="node9" class="node">
<title>8</title>
<ellipse fill="#9aff9a" stroke="black" cx="689.81" cy="-385.83" rx="130.63" ry="26.74"/>
<text text-anchor="middle" x="689.81" y="-389.63" font-family="Times,serif" font-size="14.00">simpl.</text>
<text text-anchor="middle" x="689.81" y="-374.63" font-family="Times,serif" font-size="14.00">(0.9639093354606155)</text>
</g>
<!-- 7&#45;&gt;8 -->
<g id="edge8" class="edge">
<title>7&#45;&gt;8</title>
<path fill="none" stroke="black" d="M689.81,-448.25C689.81,-440.28 689.81,-431.39 689.81,-422.9"/>
<polygon fill="black" stroke="black" points="693.31,-422.83 689.81,-412.83 686.31,-422.83 693.31,-422.83"/>
</g>
<!-- 9 -->
<g id="node10" class="node">
<title>9</title>
<ellipse fill="#9aff9a" stroke="black" cx="689.81" cy="-296.09" rx="130.63" ry="26.74"/>
<text text-anchor="middle" x="689.81" y="-299.89" font-family="Times,serif" font-size="14.00">eauto.</text>
<text text-anchor="middle" x="689.81" y="-284.89" font-family="Times,serif" font-size="14.00">(0.9958720839282467)</text>
</g>
<!-- 8&#45;&gt;9 -->
<g id="edge9" class="edge">
<title>8&#45;&gt;9</title>
<path fill="none" stroke="black" d="M689.81,-358.51C689.81,-350.54 689.81,-341.65 689.81,-333.16"/>
<polygon fill="black" stroke="black" points="693.31,-333.09 689.81,-323.09 686.31,-333.09 693.31,-333.09"/>
</g>
<!-- 10 -->
<g id="node11" class="node">
<title>10</title>
<ellipse fill="#9aff9a" stroke="black" cx="689.81" cy="-206.35" rx="130.63" ry="26.74"/>
<text text-anchor="middle" x="689.81" y="-210.15" font-family="Times,serif" font-size="14.00">simpl.</text>
<text text-anchor="middle" x="689.81" y="-195.15" font-family="Times,serif" font-size="14.00">(0.9639093354606155)</text>
</g>
<!-- 9&#45;&gt;10 -->
<g id="edge10" class="edge">
<title>9&#45;&gt;10</title>
<path fill="none" stroke="black" d="M689.81,-268.77C689.81,-260.8 689.81,-251.91 689.81,-243.42"/>
<polygon fill="black" stroke="black" points="693.31,-243.35 689.81,-233.35 686.31,-243.35 693.31,-243.35"/>
</g>
<!-- 11 -->
<g id="node12" class="node">
<title>11</title>
<ellipse fill="#9aff9a" stroke="black" cx="689.81" cy="-116.61" rx="130.63" ry="26.74"/>
<text text-anchor="middle" x="689.81" y="-120.41" font-family="Times,serif" font-size="14.00">eauto.</text>
<text text-anchor="middle" x="689.81" y="-105.41" font-family="Times,serif" font-size="14.00">(0.9958720839282467)</text>
</g>
<!-- 10&#45;&gt;11 -->
<g id="edge11" class="edge">
<title>10&#45;&gt;11</title>
<path fill="none" stroke="black" d="M689.81,-179.03C689.81,-171.06 689.81,-162.17 689.81,-153.68"/>
<polygon fill="black" stroke="black" points="693.31,-153.61 689.81,-143.61 686.31,-153.61 693.31,-153.61"/>
</g>
<!-- 12 -->
<g id="node13" class="node">
<title>12</title>
<ellipse fill="green" stroke="black" cx="689.81" cy="-26.87" rx="35.21" ry="26.74"/>
<text text-anchor="middle" x="689.81" y="-30.67" font-family="Times,serif" font-size="14.00">QED</text>
<text text-anchor="middle" x="689.81" y="-15.67" font-family="Times,serif" font-size="14.00">(1.0)</text>
</g>
<!-- 11&#45;&gt;12 -->
<g id="edge12" class="edge">
<title>11&#45;&gt;12</title>
<path fill="none" stroke="black" d="M689.81,-89.29C689.81,-81.32 689.81,-72.43 689.81,-63.94"/>
<polygon fill="green" stroke="black" points="693.31,-63.87 689.81,-53.87 686.31,-63.87 693.31,-63.87"/>
</g>
</g>
</svg>
