<?xml version="1.0" encoding="UTF-8" standalone="no"?>
<!DOCTYPE svg PUBLIC "-//W3C//DTD SVG 1.1//EN"
 "http://www.w3.org/Graphics/SVG/1.1/DTD/svg11.dtd">
<!-- Generated by graphviz version 2.43.0 (0)
 -->
<!-- Pages: 1 -->
<svg width="1155pt" height="600pt"
 viewBox="0.00 0.00 1155.36 600.18" xmlns="http://www.w3.org/2000/svg" xmlns:xlink="http://www.w3.org/1999/xlink">
<g id="graph0" class="graph" transform="scale(1 1) rotate(0) translate(4 596.18)">
<polygon fill="white" stroke="transparent" points="-4,4 -4,-596.18 1151.36,-596.18 1151.36,4 -4,4"/>
<!-- 0 -->
<g id="node1" class="node">
<title>0</title>
<ellipse fill="none" stroke="black" cx="429.18" cy="-565.31" rx="92.76" ry="26.74"/>
<text text-anchor="middle" x="429.18" y="-569.11" font-family="Times,serif" font-size="14.00">tech_posOZ_pos</text>
<text text-anchor="middle" x="429.18" y="-554.11" font-family="Times,serif" font-size="14.00">(1.0)</text>
</g>
<!-- 1 -->
<g id="node2" class="node">
<title>1</title>
<ellipse fill="#9aff9a" stroke="black" cx="429.18" cy="-475.57" rx="130.63" ry="26.74"/>
<text text-anchor="middle" x="429.18" y="-479.37" font-family="Times,serif" font-size="14.00">intros.</text>
<text text-anchor="middle" x="429.18" y="-464.37" font-family="Times,serif" font-size="14.00">(0.8878476130008089)</text>
</g>
<!-- 0&#45;&gt;1 -->
<g id="edge1" class="edge">
<title>0&#45;&gt;1</title>
<path fill="none" stroke="black" d="M429.18,-537.99C429.18,-530.02 429.18,-521.13 429.18,-512.64"/>
<polygon fill="black" stroke="black" points="432.68,-512.57 429.18,-502.57 425.68,-512.57 432.68,-512.57"/>
</g>
<!-- 2 -->
<g id="node3" class="node">
<title>2</title>
<ellipse fill="orange" stroke="black" cx="137.18" cy="-385.83" rx="137.36" ry="26.74"/>
<text text-anchor="middle" x="137.18" y="-389.63" font-family="Times,serif" font-size="14.00">eauto.</text>
<text text-anchor="middle" x="137.18" y="-374.63" font-family="Times,serif" font-size="14.00">(0.26274141966404635)</text>
</g>
<!-- 1&#45;&gt;2 -->
<g id="edge2" class="edge">
<title>1&#45;&gt;2</title>
<path fill="none" stroke="black" d="M357.37,-452.99C315.69,-440.47 263.02,-424.64 219.65,-411.61"/>
<polygon fill="black" stroke="black" points="220.56,-408.23 209.97,-408.7 218.54,-414.93 220.56,-408.23"/>
</g>
<!-- 3 -->
<g id="node4" class="node">
<title>3</title>
<ellipse fill="orange" stroke="black" cx="429.18" cy="-385.83" rx="137.36" ry="26.74"/>
<text text-anchor="middle" x="429.18" y="-389.63" font-family="Times,serif" font-size="14.00">destruct OZ.</text>
<text text-anchor="middle" x="429.18" y="-374.63" font-family="Times,serif" font-size="14.00">(0.05219211352862842)</text>
</g>
<!-- 1&#45;&gt;3 -->
<g id="edge3" class="edge">
<title>1&#45;&gt;3</title>
<path fill="none" stroke="black" d="M429.18,-448.25C429.18,-440.28 429.18,-431.39 429.18,-422.9"/>
<polygon fill="black" stroke="black" points="432.68,-422.83 429.18,-412.83 425.68,-422.83 432.68,-422.83"/>
</g>
<!-- 4 -->
<g id="node5" class="node">
<title>4</title>
<ellipse fill="#9aff9a" stroke="black" cx="728.18" cy="-385.83" rx="143.59" ry="26.74"/>
<text text-anchor="middle" x="728.18" y="-389.63" font-family="Times,serif" font-size="14.00">destruct n.</text>
<text text-anchor="middle" x="728.18" y="-374.63" font-family="Times,serif" font-size="14.00">(0.018363250626415195)</text>
</g>
<!-- 1&#45;&gt;4 -->
<g id="edge4" class="edge">
<title>1&#45;&gt;4</title>
<path fill="none" stroke="black" d="M501.94,-453.22C544.7,-440.67 598.94,-424.75 643.6,-411.65"/>
<polygon fill="black" stroke="black" points="644.66,-414.99 653.27,-408.81 642.69,-408.27 644.66,-414.99"/>
</g>
<!-- 5 -->
<g id="node6" class="node">
<title>5</title>
<ellipse fill="orange" stroke="black" cx="591.18" cy="-296.09" rx="118.17" ry="26.74"/>
<text text-anchor="middle" x="591.18" y="-299.89" font-family="Times,serif" font-size="14.00">eauto.</text>
<text text-anchor="middle" x="591.18" y="-284.89" font-family="Times,serif" font-size="14.00">(0.69643017891964)</text>
</g>
<!-- 4&#45;&gt;5 -->
<g id="edge5" class="edge">
<title>4&#45;&gt;5</title>
<path fill="none" stroke="black" d="M689.29,-359.92C673.39,-349.74 654.86,-337.87 638.21,-327.21"/>
<polygon fill="black" stroke="black" points="640,-324.2 629.69,-321.76 636.23,-330.1 640,-324.2"/>
</g>
<!-- 6 -->
<g id="node7" class="node">
<title>6</title>
<ellipse fill="#9aff9a" stroke="black" cx="864.18" cy="-296.09" rx="137.36" ry="26.74"/>
<text text-anchor="middle" x="864.18" y="-299.89" font-family="Times,serif" font-size="14.00">simpl.</text>
<text text-anchor="middle" x="864.18" y="-284.89" font-family="Times,serif" font-size="14.00">(0.08431614086496765)</text>
</g>
<!-- 4&#45;&gt;6 -->
<g id="edge6" class="edge">
<title>4&#45;&gt;6</title>
<path fill="none" stroke="black" d="M766.79,-359.92C782.29,-349.92 800.32,-338.29 816.62,-327.77"/>
<polygon fill="black" stroke="black" points="818.97,-330.42 825.47,-322.06 815.17,-324.54 818.97,-330.42"/>
</g>
<!-- 7 -->
<g id="node8" class="node">
<title>7</title>
<ellipse fill="#9aff9a" stroke="black" cx="864.18" cy="-206.35" rx="130.63" ry="26.74"/>
<text text-anchor="middle" x="864.18" y="-210.15" font-family="Times,serif" font-size="14.00">eauto.</text>
<text text-anchor="middle" x="864.18" y="-195.15" font-family="Times,serif" font-size="14.00">(0.9999949932351057)</text>
</g>
<!-- 6&#45;&gt;7 -->
<g id="edge7" class="edge">
<title>6&#45;&gt;7</title>
<path fill="none" stroke="black" d="M864.18,-268.77C864.18,-260.8 864.18,-251.91 864.18,-243.42"/>
<polygon fill="black" stroke="black" points="867.68,-243.35 864.18,-233.35 860.68,-243.35 867.68,-243.35"/>
</g>
<!-- 8 -->
<g id="node9" class="node">
<title>8</title>
<ellipse fill="orange" stroke="black" cx="718.18" cy="-116.61" rx="137.36" ry="26.74"/>
<text text-anchor="middle" x="718.18" y="-120.41" font-family="Times,serif" font-size="14.00">eauto.</text>
<text text-anchor="middle" x="718.18" y="-105.41" font-family="Times,serif" font-size="14.00">(0.46807746296564556)</text>
</g>
<!-- 7&#45;&gt;8 -->
<g id="edge8" class="edge">
<title>7&#45;&gt;8</title>
<path fill="none" stroke="black" d="M823.12,-180.68C806.02,-170.4 786,-158.37 768.05,-147.58"/>
<polygon fill="black" stroke="black" points="769.81,-144.55 759.43,-142.4 766.2,-150.55 769.81,-144.55"/>
</g>
<!-- 9 -->
<g id="node10" class="node">
<title>9</title>
<ellipse fill="#9aff9a" stroke="black" cx="1010.18" cy="-116.61" rx="137.36" ry="26.74"/>
<text text-anchor="middle" x="1010.18" y="-120.41" font-family="Times,serif" font-size="14.00">econstructor.</text>
<text text-anchor="middle" x="1010.18" y="-105.41" font-family="Times,serif" font-size="14.00">(0.19708160418364298)</text>
</g>
<!-- 7&#45;&gt;9 -->
<g id="edge9" class="edge">
<title>7&#45;&gt;9</title>
<path fill="none" stroke="black" d="M905.24,-180.68C922.34,-170.4 942.36,-158.37 960.3,-147.58"/>
<polygon fill="black" stroke="black" points="962.15,-150.55 968.92,-142.4 958.55,-144.55 962.15,-150.55"/>
</g>
<!-- 10 -->
<g id="node11" class="node">
<title>10</title>
<ellipse fill="green" stroke="black" cx="1010.18" cy="-26.87" rx="35.21" ry="26.74"/>
<text text-anchor="middle" x="1010.18" y="-30.67" font-family="Times,serif" font-size="14.00">QED</text>
<text text-anchor="middle" x="1010.18" y="-15.67" font-family="Times,serif" font-size="14.00">(1.0)</text>
</g>
<!-- 9&#45;&gt;10 -->
<g id="edge10" class="edge">
<title>9&#45;&gt;10</title>
<path fill="none" stroke="black" d="M1010.18,-89.29C1010.18,-81.32 1010.18,-72.43 1010.18,-63.94"/>
<polygon fill="green" stroke="black" points="1013.68,-63.87 1010.18,-53.87 1006.68,-63.87 1013.68,-63.87"/>
</g>
</g>
</svg>
