<?xml version="1.0" encoding="UTF-8" standalone="no"?>
<!DOCTYPE svg PUBLIC "-//W3C//DTD SVG 1.1//EN"
 "http://www.w3.org/Graphics/SVG/1.1/DTD/svg11.dtd">
<!-- Generated by graphviz version 2.43.0 (0)
 -->
<!-- Pages: 1 -->
<svg width="2391pt" height="780pt"
 viewBox="0.00 0.00 2390.63 779.66" xmlns="http://www.w3.org/2000/svg" xmlns:xlink="http://www.w3.org/1999/xlink">
<g id="graph0" class="graph" transform="scale(1 1) rotate(0) translate(4 775.66)">
<polygon fill="white" stroke="transparent" points="-4,4 -4,-775.66 2386.63,-775.66 2386.63,4 -4,4"/>
<!-- 0 -->
<g id="node1" class="node">
<title>0</title>
<ellipse fill="none" stroke="black" cx="982.81" cy="-744.79" rx="50.41" ry="26.74"/>
<text text-anchor="middle" x="982.81" y="-748.59" font-family="Times,serif" font-size="14.00">opp_inv</text>
<text text-anchor="middle" x="982.81" y="-733.59" font-family="Times,serif" font-size="14.00">(1.0)</text>
</g>
<!-- 1 -->
<g id="node2" class="node">
<title>1</title>
<ellipse fill="#9aff9a" stroke="black" cx="982.81" cy="-655.05" rx="130.63" ry="26.74"/>
<text text-anchor="middle" x="982.81" y="-658.85" font-family="Times,serif" font-size="14.00">intros.</text>
<text text-anchor="middle" x="982.81" y="-643.85" font-family="Times,serif" font-size="14.00">(0.8820708065748172)</text>
</g>
<!-- 0&#45;&gt;1 -->
<g id="edge1" class="edge">
<title>0&#45;&gt;1</title>
<path fill="none" stroke="black" d="M982.81,-717.47C982.81,-709.5 982.81,-700.61 982.81,-692.12"/>
<polygon fill="black" stroke="black" points="986.31,-692.05 982.81,-682.05 979.31,-692.05 986.31,-692.05"/>
</g>
<!-- 2 -->
<g id="node3" class="node">
<title>2</title>
<ellipse fill="orange" stroke="black" cx="836.81" cy="-565.31" rx="137.36" ry="26.74"/>
<text text-anchor="middle" x="836.81" y="-569.11" font-family="Times,serif" font-size="14.00">eauto.</text>
<text text-anchor="middle" x="836.81" y="-554.11" font-family="Times,serif" font-size="14.00">(0.15686633553983534)</text>
</g>
<!-- 1&#45;&gt;2 -->
<g id="edge2" class="edge">
<title>1&#45;&gt;2</title>
<path fill="none" stroke="black" d="M941.76,-629.38C924.65,-619.1 904.63,-607.07 886.69,-596.28"/>
<polygon fill="black" stroke="black" points="888.44,-593.25 878.07,-591.1 884.84,-599.25 888.44,-593.25"/>
</g>
<!-- 3 -->
<g id="node4" class="node">
<title>3</title>
<ellipse fill="#9aff9a" stroke="black" cx="1128.81" cy="-565.31" rx="137.36" ry="26.74"/>
<text text-anchor="middle" x="1128.81" y="-569.11" font-family="Times,serif" font-size="14.00">rewrite H.</text>
<text text-anchor="middle" x="1128.81" y="-554.11" font-family="Times,serif" font-size="14.00">(0.08306203636061472)</text>
</g>
<!-- 1&#45;&gt;3 -->
<g id="edge3" class="edge">
<title>1&#45;&gt;3</title>
<path fill="none" stroke="black" d="M1023.87,-629.38C1040.98,-619.1 1061,-607.07 1078.94,-596.28"/>
<polygon fill="black" stroke="black" points="1080.79,-599.25 1087.56,-591.1 1077.19,-593.25 1080.79,-599.25"/>
</g>
<!-- 4 -->
<g id="node5" class="node">
<title>4</title>
<ellipse fill="orange" stroke="black" cx="982.81" cy="-475.57" rx="137.36" ry="26.74"/>
<text text-anchor="middle" x="982.81" y="-479.37" font-family="Times,serif" font-size="14.00">trivial.</text>
<text text-anchor="middle" x="982.81" y="-464.37" font-family="Times,serif" font-size="14.00">(0.19523373513883113)</text>
</g>
<!-- 3&#45;&gt;4 -->
<g id="edge4" class="edge">
<title>3&#45;&gt;4</title>
<path fill="none" stroke="black" d="M1087.76,-539.64C1070.65,-529.36 1050.63,-517.33 1032.69,-506.54"/>
<polygon fill="black" stroke="black" points="1034.44,-503.51 1024.07,-501.36 1030.84,-509.51 1034.44,-503.51"/>
</g>
<!-- 5 -->
<g id="node6" class="node">
<title>5</title>
<ellipse fill="#9aff9a" stroke="black" cx="1274.81" cy="-475.57" rx="137.36" ry="26.74"/>
<text text-anchor="middle" x="1274.81" y="-479.37" font-family="Times,serif" font-size="14.00">unfold oppZ.</text>
<text text-anchor="middle" x="1274.81" y="-464.37" font-family="Times,serif" font-size="14.00">(0.09749784860494093)</text>
</g>
<!-- 3&#45;&gt;5 -->
<g id="edge5" class="edge">
<title>3&#45;&gt;5</title>
<path fill="none" stroke="black" d="M1169.87,-539.64C1186.98,-529.36 1207,-517.33 1224.94,-506.54"/>
<polygon fill="black" stroke="black" points="1226.79,-509.51 1233.56,-501.36 1223.19,-503.51 1226.79,-509.51"/>
</g>
<!-- 6 -->
<g id="node7" class="node">
<title>6</title>
<ellipse fill="none" stroke="black" cx="897.81" cy="-385.83" rx="143.59" ry="26.74"/>
<text text-anchor="middle" x="897.81" y="-389.63" font-family="Times,serif" font-size="14.00">rewrite ! tech_lt_abs_OZ.</text>
<text text-anchor="middle" x="897.81" y="-374.63" font-family="Times,serif" font-size="14.00">(0.008874966810509298)</text>
</g>
<!-- 5&#45;&gt;6 -->
<g id="edge6" class="edge">
<title>5&#45;&gt;6</title>
<path fill="none" stroke="black" d="M1188.8,-454.55C1131.16,-441.14 1055.15,-423.45 995.27,-409.51"/>
<polygon fill="black" stroke="black" points="995.96,-406.08 985.42,-407.22 994.37,-412.9 995.96,-406.08"/>
</g>
<!-- 18 -->
<g id="node8" class="node">
<title>18</title>
<ellipse fill="#9aff9a" stroke="black" cx="1651.81" cy="-385.83" rx="137.36" ry="26.74"/>
<text text-anchor="middle" x="1651.81" y="-389.63" font-family="Times,serif" font-size="14.00">destruct y.</text>
<text text-anchor="middle" x="1651.81" y="-374.63" font-family="Times,serif" font-size="14.00">(0.00543153630187586)</text>
</g>
<!-- 5&#45;&gt;18 -->
<g id="edge7" class="edge">
<title>5&#45;&gt;18</title>
<path fill="none" stroke="black" d="M1360.83,-454.55C1418.99,-441.02 1495.84,-423.13 1555.96,-409.14"/>
<polygon fill="black" stroke="black" points="1556.89,-412.52 1565.84,-406.84 1555.31,-405.7 1556.89,-412.52"/>
</g>
<!-- 7 -->
<g id="node9" class="node">
<title>7</title>
<ellipse fill="orange" stroke="black" cx="331.81" cy="-296.09" rx="130.63" ry="26.74"/>
<text text-anchor="middle" x="331.81" y="-299.89" font-family="Times,serif" font-size="14.00">eauto.</text>
<text text-anchor="middle" x="331.81" y="-284.89" font-family="Times,serif" font-size="14.00">(0.8862324026993936)</text>
</g>
<!-- 6&#45;&gt;7 -->
<g id="edge8" class="edge">
<title>6&#45;&gt;7</title>
<path fill="none" stroke="black" d="M783.72,-369.47C697.83,-357.62 577.26,-340.35 471.81,-322.96 460.1,-321.03 447.85,-318.91 435.68,-316.74"/>
<polygon fill="black" stroke="black" points="435.95,-313.24 425.48,-314.91 434.71,-320.13 435.95,-313.24"/>
</g>
<!-- 8 -->
<g id="node10" class="node">
<title>8</title>
<ellipse fill="orange" stroke="black" cx="611.81" cy="-296.09" rx="130.63" ry="26.74"/>
<text text-anchor="middle" x="611.81" y="-299.89" font-family="Times,serif" font-size="14.00">idtac.</text>
<text text-anchor="middle" x="611.81" y="-284.89" font-family="Times,serif" font-size="14.00">(0.0339589873130561)</text>
</g>
<!-- 6&#45;&gt;8 -->
<g id="edge9" class="edge">
<title>6&#45;&gt;8</title>
<path fill="none" stroke="black" d="M825.28,-362.58C784.74,-350.14 734.14,-334.62 692.38,-321.81"/>
<polygon fill="black" stroke="black" points="693.38,-318.45 682.79,-318.87 691.33,-325.14 693.38,-318.45"/>
</g>
<!-- 9 -->
<g id="node11" class="node">
<title>9</title>
<ellipse fill="none" stroke="black" cx="897.81" cy="-296.09" rx="137.36" ry="26.74"/>
<text text-anchor="middle" x="897.81" y="-299.89" font-family="Times,serif" font-size="14.00">symmetry.</text>
<text text-anchor="middle" x="897.81" y="-284.89" font-family="Times,serif" font-size="14.00">(0.01862473164587088)</text>
</g>
<!-- 6&#45;&gt;9 -->
<g id="edge10" class="edge">
<title>6&#45;&gt;9</title>
<path fill="none" stroke="black" d="M897.81,-358.51C897.81,-350.54 897.81,-341.65 897.81,-333.16"/>
<polygon fill="black" stroke="black" points="901.31,-333.09 897.81,-323.09 894.31,-333.09 901.31,-333.09"/>
</g>
<!-- 14 -->
<g id="node12" class="node">
<title>14</title>
<ellipse fill="none" stroke="black" cx="1502.81" cy="-296.09" rx="149.81" ry="26.74"/>
<text text-anchor="middle" x="1502.81" y="-299.89" font-family="Times,serif" font-size="14.00">apply tech_lt_abs_OZ.</text>
<text text-anchor="middle" x="1502.81" y="-284.89" font-family="Times,serif" font-size="14.00">(0.0024457582588394483)</text>
</g>
<!-- 6&#45;&gt;14 -->
<g id="edge11" class="edge">
<title>6&#45;&gt;14</title>
<path fill="none" stroke="black" d="M1008.78,-368.74C1113.48,-353.55 1270.18,-330.83 1378.92,-315.06"/>
<polygon fill="black" stroke="black" points="1379.56,-318.5 1388.96,-313.6 1378.56,-311.57 1379.56,-318.5"/>
</g>
<!-- 19 -->
<g id="node20" class="node">
<title>19</title>
<ellipse fill="#9aff9a" stroke="black" cx="2099.81" cy="-296.09" rx="130.63" ry="26.74"/>
<text text-anchor="middle" x="2099.81" y="-299.89" font-family="Times,serif" font-size="14.00">eauto.</text>
<text text-anchor="middle" x="2099.81" y="-284.89" font-family="Times,serif" font-size="14.00">(0.9499619911586585)</text>
</g>
<!-- 18&#45;&gt;19 -->
<g id="edge19" class="edge">
<title>18&#45;&gt;19</title>
<path fill="none" stroke="black" d="M1746.28,-366.33C1819.86,-351.92 1921.86,-331.94 1997.39,-317.15"/>
<polygon fill="black" stroke="black" points="1998.26,-320.55 2007.4,-315.19 1996.91,-313.68 1998.26,-320.55"/>
</g>
<!-- 10 -->
<g id="node13" class="node">
<title>10</title>
<ellipse fill="orange" stroke="black" cx="130.81" cy="-206.35" rx="130.63" ry="26.74"/>
<text text-anchor="middle" x="130.81" y="-210.15" font-family="Times,serif" font-size="14.00">eauto.</text>
<text text-anchor="middle" x="130.81" y="-195.15" font-family="Times,serif" font-size="14.00">(0.9389599406987763)</text>
</g>
<!-- 9&#45;&gt;10 -->
<g id="edge12" class="edge">
<title>9&#45;&gt;10</title>
<path fill="none" stroke="black" d="M802.21,-276.73C785.46,-273.92 768.16,-271.27 751.81,-269.22 539.11,-242.48 483.42,-260.74 270.81,-233.22 258.22,-231.59 245.03,-229.57 232.01,-227.39"/>
<polygon fill="black" stroke="black" points="232.54,-223.93 222.09,-225.69 231.35,-230.83 232.54,-223.93"/>
</g>
<!-- 11 -->
<g id="node14" class="node">
<title>11</title>
<ellipse fill="none" stroke="black" cx="429.81" cy="-206.35" rx="149.81" ry="26.74"/>
<text text-anchor="middle" x="429.81" y="-210.15" font-family="Times,serif" font-size="14.00">destruct y.</text>
<text text-anchor="middle" x="429.81" y="-195.15" font-family="Times,serif" font-size="14.00">(0.0077559174665930075)</text>
</g>
<!-- 9&#45;&gt;11 -->
<g id="edge13" class="edge">
<title>9&#45;&gt;11</title>
<path fill="none" stroke="black" d="M801.13,-276.96C725.41,-262.77 620,-243.01 540.83,-228.16"/>
<polygon fill="black" stroke="black" points="541.3,-224.69 530.82,-226.29 540.01,-231.57 541.3,-224.69"/>
</g>
<!-- 12 -->
<g id="node15" class="node">
<title>12</title>
<ellipse fill="none" stroke="black" cx="743.81" cy="-206.35" rx="145.83" ry="26.74"/>
<text text-anchor="middle" x="743.81" y="-210.15" font-family="Times,serif" font-size="14.00">eapply leZ_antisymmetric.</text>
<text text-anchor="middle" x="743.81" y="-195.15" font-family="Times,serif" font-size="14.00">(0.005772284182399395)</text>
</g>
<!-- 9&#45;&gt;12 -->
<g id="edge14" class="edge">
<title>9&#45;&gt;12</title>
<path fill="none" stroke="black" d="M854.51,-270.42C836.38,-260.09 815.15,-248 796.16,-237.18"/>
<polygon fill="black" stroke="black" points="797.75,-234.05 787.33,-232.14 794.29,-240.13 797.75,-234.05"/>
</g>
<!-- 13 -->
<g id="node16" class="node">
<title>13</title>
<ellipse fill="orange" stroke="black" cx="1057.81" cy="-206.35" rx="149.81" ry="26.74"/>
<text text-anchor="middle" x="1057.81" y="-210.15" font-family="Times,serif" font-size="14.00">idtac.</text>
<text text-anchor="middle" x="1057.81" y="-195.15" font-family="Times,serif" font-size="14.00">(0.0015265157364767383)</text>
</g>
<!-- 9&#45;&gt;13 -->
<g id="edge15" class="edge">
<title>9&#45;&gt;13</title>
<path fill="none" stroke="black" d="M942.38,-270.65C961.39,-260.23 983.73,-247.97 1003.68,-237.04"/>
<polygon fill="black" stroke="black" points="1005.57,-239.99 1012.65,-232.12 1002.2,-233.86 1005.57,-239.99"/>
</g>
<!-- 15 -->
<g id="node17" class="node">
<title>15</title>
<ellipse fill="orange" stroke="black" cx="1356.81" cy="-206.35" rx="130.63" ry="26.74"/>
<text text-anchor="middle" x="1356.81" y="-210.15" font-family="Times,serif" font-size="14.00">eauto.</text>
<text text-anchor="middle" x="1356.81" y="-195.15" font-family="Times,serif" font-size="14.00">(0.4056344392897287)</text>
</g>
<!-- 14&#45;&gt;15 -->
<g id="edge16" class="edge">
<title>14&#45;&gt;15</title>
<path fill="none" stroke="black" d="M1461.37,-270.18C1444.27,-259.91 1424.31,-247.91 1406.44,-237.17"/>
<polygon fill="black" stroke="black" points="1408.23,-234.17 1397.86,-232.02 1404.63,-240.17 1408.23,-234.17"/>
</g>
<!-- 16 -->
<g id="node18" class="node">
<title>16</title>
<ellipse fill="none" stroke="black" cx="1648.81" cy="-206.35" rx="143.59" ry="26.74"/>
<text text-anchor="middle" x="1648.81" y="-210.15" font-family="Times,serif" font-size="14.00">rewrite tech_lt_abs_OZ.</text>
<text text-anchor="middle" x="1648.81" y="-195.15" font-family="Times,serif" font-size="14.00">(0.003921138424735077)</text>
</g>
<!-- 14&#45;&gt;16 -->
<g id="edge17" class="edge">
<title>14&#45;&gt;16</title>
<path fill="none" stroke="black" d="M1544.26,-270.18C1561.13,-260.04 1580.79,-248.23 1598.47,-237.6"/>
<polygon fill="black" stroke="black" points="1600.75,-240.32 1607.52,-232.17 1597.14,-234.32 1600.75,-240.32"/>
</g>
<!-- 17 -->
<g id="node19" class="node">
<title>17</title>
<ellipse fill="orange" stroke="black" cx="1959.81" cy="-206.35" rx="149.81" ry="26.74"/>
<text text-anchor="middle" x="1959.81" y="-210.15" font-family="Times,serif" font-size="14.00">idtac.</text>
<text text-anchor="middle" x="1959.81" y="-195.15" font-family="Times,serif" font-size="14.00">(0.0005795821174271892)</text>
</g>
<!-- 14&#45;&gt;17 -->
<g id="edge18" class="edge">
<title>14&#45;&gt;17</title>
<path fill="none" stroke="black" d="M1602.54,-275.94C1675.68,-261.9 1774.96,-242.84 1850.3,-228.38"/>
<polygon fill="black" stroke="black" points="1851.14,-231.78 1860.3,-226.46 1849.82,-224.9 1851.14,-231.78"/>
</g>
<!-- 20 -->
<g id="node21" class="node">
<title>20</title>
<ellipse fill="#9aff9a" stroke="black" cx="2251.81" cy="-206.35" rx="124.4" ry="26.74"/>
<text text-anchor="middle" x="2251.81" y="-210.15" font-family="Times,serif" font-size="14.00">eauto.</text>
<text text-anchor="middle" x="2251.81" y="-195.15" font-family="Times,serif" font-size="14.00">(0.525712287008022)</text>
</g>
<!-- 19&#45;&gt;20 -->
<g id="edge20" class="edge">
<title>19&#45;&gt;20</title>
<path fill="none" stroke="black" d="M2142.16,-270.65C2160.36,-260.14 2181.78,-247.78 2200.84,-236.77"/>
<polygon fill="black" stroke="black" points="2202.79,-239.69 2209.7,-231.66 2199.29,-233.63 2202.79,-239.69"/>
</g>
<!-- 21 -->
<g id="node22" class="node">
<title>21</title>
<ellipse fill="#9aff9a" stroke="black" cx="2251.81" cy="-116.61" rx="130.63" ry="26.74"/>
<text text-anchor="middle" x="2251.81" y="-120.41" font-family="Times,serif" font-size="14.00">eauto.</text>
<text text-anchor="middle" x="2251.81" y="-105.41" font-family="Times,serif" font-size="14.00">(0.5754138773282038)</text>
</g>
<!-- 20&#45;&gt;21 -->
<g id="edge21" class="edge">
<title>20&#45;&gt;21</title>
<path fill="none" stroke="black" d="M2251.81,-179.03C2251.81,-171.06 2251.81,-162.17 2251.81,-153.68"/>
<polygon fill="black" stroke="black" points="2255.31,-153.61 2251.81,-143.61 2248.31,-153.61 2255.31,-153.61"/>
</g>
<!-- 22 -->
<g id="node23" class="node">
<title>22</title>
<ellipse fill="green" stroke="black" cx="2251.81" cy="-26.87" rx="35.21" ry="26.74"/>
<text text-anchor="middle" x="2251.81" y="-30.67" font-family="Times,serif" font-size="14.00">QED</text>
<text text-anchor="middle" x="2251.81" y="-15.67" font-family="Times,serif" font-size="14.00">(1.0)</text>
</g>
<!-- 21&#45;&gt;22 -->
<g id="edge22" class="edge">
<title>21&#45;&gt;22</title>
<path fill="none" stroke="black" d="M2251.81,-89.29C2251.81,-81.32 2251.81,-72.43 2251.81,-63.94"/>
<polygon fill="green" stroke="black" points="2255.31,-63.87 2251.81,-53.87 2248.31,-63.87 2255.31,-63.87"/>
</g>
</g>
</svg>
