<?xml version="1.0" encoding="UTF-8" standalone="no"?>
<!DOCTYPE svg PUBLIC "-//W3C//DTD SVG 1.1//EN"
 "http://www.w3.org/Graphics/SVG/1.1/DTD/svg11.dtd">
<!-- Generated by graphviz version 2.43.0 (0)
 -->
<!-- Pages: 1 -->
<svg width="2182pt" height="690pt"
 viewBox="0.00 0.00 2182.36 689.92" xmlns="http://www.w3.org/2000/svg" xmlns:xlink="http://www.w3.org/1999/xlink">
<g id="graph0" class="graph" transform="scale(1 1) rotate(0) translate(4 685.92)">
<polygon fill="white" stroke="transparent" points="-4,4 -4,-685.92 2178.36,-685.92 2178.36,4 -4,4"/>
<!-- 0 -->
<g id="node1" class="node">
<title>0</title>
<ellipse fill="none" stroke="black" cx="1220.81" cy="-655.05" rx="91.85" ry="26.74"/>
<text text-anchor="middle" x="1220.81" y="-658.85" font-family="Times,serif" font-size="14.00">tech_le_pos_abs</text>
<text text-anchor="middle" x="1220.81" y="-643.85" font-family="Times,serif" font-size="14.00">(1.0)</text>
</g>
<!-- 1 -->
<g id="node2" class="node">
<title>1</title>
<ellipse fill="#9aff9a" stroke="black" cx="1220.81" cy="-565.31" rx="130.63" ry="26.74"/>
<text text-anchor="middle" x="1220.81" y="-569.11" font-family="Times,serif" font-size="14.00">intros.</text>
<text text-anchor="middle" x="1220.81" y="-554.11" font-family="Times,serif" font-size="14.00">(0.9262032469151878)</text>
</g>
<!-- 0&#45;&gt;1 -->
<g id="edge1" class="edge">
<title>0&#45;&gt;1</title>
<path fill="none" stroke="black" d="M1220.81,-627.73C1220.81,-619.76 1220.81,-610.87 1220.81,-602.38"/>
<polygon fill="black" stroke="black" points="1224.31,-602.31 1220.81,-592.31 1217.31,-602.31 1224.31,-602.31"/>
</g>
<!-- 2 -->
<g id="node3" class="node">
<title>2</title>
<ellipse fill="none" stroke="black" cx="934.81" cy="-475.57" rx="130.63" ry="26.74"/>
<text text-anchor="middle" x="934.81" y="-479.37" font-family="Times,serif" font-size="14.00">unfold absZ.</text>
<text text-anchor="middle" x="934.81" y="-464.37" font-family="Times,serif" font-size="14.00">(0.3941333729205736)</text>
</g>
<!-- 1&#45;&gt;2 -->
<g id="edge2" class="edge">
<title>1&#45;&gt;2</title>
<path fill="none" stroke="black" d="M1150.12,-542.62C1109.3,-530.1 1057.81,-514.3 1015.42,-501.3"/>
<polygon fill="black" stroke="black" points="1016.28,-497.9 1005.69,-498.31 1014.22,-504.59 1016.28,-497.9"/>
</g>
<!-- 12 -->
<g id="node4" class="node">
<title>12</title>
<ellipse fill="orange" stroke="black" cx="1220.81" cy="-475.57" rx="137.36" ry="26.74"/>
<text text-anchor="middle" x="1220.81" y="-479.37" font-family="Times,serif" font-size="14.00">eauto.</text>
<text text-anchor="middle" x="1220.81" y="-464.37" font-family="Times,serif" font-size="14.00">(0.10276033816861102)</text>
</g>
<!-- 1&#45;&gt;12 -->
<g id="edge3" class="edge">
<title>1&#45;&gt;12</title>
<path fill="none" stroke="black" d="M1220.81,-537.99C1220.81,-530.02 1220.81,-521.13 1220.81,-512.64"/>
<polygon fill="black" stroke="black" points="1224.31,-512.57 1220.81,-502.57 1217.31,-512.57 1224.31,-512.57"/>
</g>
<!-- 13 -->
<g id="node5" class="node">
<title>13</title>
<ellipse fill="#9aff9a" stroke="black" cx="1512.81" cy="-475.57" rx="137.36" ry="26.74"/>
<text text-anchor="middle" x="1512.81" y="-479.37" font-family="Times,serif" font-size="14.00">destruct x.</text>
<text text-anchor="middle" x="1512.81" y="-464.37" font-family="Times,serif" font-size="14.00">(0.02314461547708877)</text>
</g>
<!-- 1&#45;&gt;13 -->
<g id="edge4" class="edge">
<title>1&#45;&gt;13</title>
<path fill="none" stroke="black" d="M1292.62,-542.73C1334.3,-530.21 1386.97,-514.38 1430.35,-501.35"/>
<polygon fill="black" stroke="black" points="1431.45,-504.67 1440.02,-498.44 1429.43,-497.97 1431.45,-504.67"/>
</g>
<!-- 3 -->
<g id="node6" class="node">
<title>3</title>
<ellipse fill="none" stroke="black" cx="715.81" cy="-385.83" rx="124.4" ry="26.74"/>
<text text-anchor="middle" x="715.81" y="-389.63" font-family="Times,serif" font-size="14.00">destruct x.</text>
<text text-anchor="middle" x="715.81" y="-374.63" font-family="Times,serif" font-size="14.00">(0.373352801016482)</text>
</g>
<!-- 2&#45;&gt;3 -->
<g id="edge5" class="edge">
<title>2&#45;&gt;3</title>
<path fill="none" stroke="black" d="M876.99,-451.4C848.06,-439.81 812.88,-425.72 782.78,-413.66"/>
<polygon fill="black" stroke="black" points="783.79,-410.29 773.21,-409.82 781.19,-416.79 783.79,-410.29"/>
</g>
<!-- 11 -->
<g id="node7" class="node">
<title>11</title>
<ellipse fill="orange" stroke="black" cx="1001.81" cy="-385.83" rx="143.59" ry="26.74"/>
<text text-anchor="middle" x="1001.81" y="-389.63" font-family="Times,serif" font-size="14.00">eauto.</text>
<text text-anchor="middle" x="1001.81" y="-374.63" font-family="Times,serif" font-size="14.00">(0.026837798263588414)</text>
</g>
<!-- 2&#45;&gt;11 -->
<g id="edge6" class="edge">
<title>2&#45;&gt;11</title>
<path fill="none" stroke="black" d="M954.55,-448.72C961.3,-439.88 968.95,-429.87 976.1,-420.51"/>
<polygon fill="black" stroke="black" points="978.93,-422.57 982.22,-412.5 973.37,-418.32 978.93,-422.57"/>
</g>
<!-- 14 -->
<g id="node15" class="node">
<title>14</title>
<ellipse fill="#9aff9a" stroke="black" cx="1512.81" cy="-385.83" rx="130.63" ry="26.74"/>
<text text-anchor="middle" x="1512.81" y="-389.63" font-family="Times,serif" font-size="14.00">eauto.</text>
<text text-anchor="middle" x="1512.81" y="-374.63" font-family="Times,serif" font-size="14.00">(0.8176290238598343)</text>
</g>
<!-- 13&#45;&gt;14 -->
<g id="edge14" class="edge">
<title>13&#45;&gt;14</title>
<path fill="none" stroke="black" d="M1512.81,-448.25C1512.81,-440.28 1512.81,-431.39 1512.81,-422.9"/>
<polygon fill="black" stroke="black" points="1516.31,-422.83 1512.81,-412.83 1509.31,-422.83 1516.31,-422.83"/>
</g>
<!-- 4 -->
<g id="node8" class="node">
<title>4</title>
<ellipse fill="blue" stroke="black" cx="715.81" cy="-296.09" rx="130.63" ry="26.74"/>
<text text-anchor="middle" x="715.81" y="-299.89" font-family="Times,serif" font-size="14.00">eauto.</text>
<text text-anchor="middle" x="715.81" y="-284.89" font-family="Times,serif" font-size="14.00">(0.7767620144295541)</text>
</g>
<!-- 3&#45;&gt;4 -->
<g id="edge7" class="edge">
<title>3&#45;&gt;4</title>
<path fill="none" stroke="black" d="M715.81,-358.51C715.81,-350.54 715.81,-341.65 715.81,-333.16"/>
<polygon fill="black" stroke="black" points="719.31,-333.09 715.81,-323.09 712.31,-333.09 719.31,-333.09"/>
</g>
<!-- 5 -->
<g id="node9" class="node">
<title>5</title>
<ellipse fill="blue" stroke="black" cx="715.81" cy="-206.35" rx="130.63" ry="26.74"/>
<text text-anchor="middle" x="715.81" y="-210.15" font-family="Times,serif" font-size="14.00">eauto.</text>
<text text-anchor="middle" x="715.81" y="-195.15" font-family="Times,serif" font-size="14.00">(0.5896640944234857)</text>
</g>
<!-- 4&#45;&gt;5 -->
<g id="edge8" class="edge">
<title>4&#45;&gt;5</title>
<path fill="none" stroke="black" d="M715.81,-268.77C715.81,-260.8 715.81,-251.91 715.81,-243.42"/>
<polygon fill="black" stroke="black" points="719.31,-243.35 715.81,-233.35 712.31,-243.35 719.31,-243.35"/>
</g>
<!-- 6 -->
<g id="node10" class="node">
<title>6</title>
<ellipse fill="orange" stroke="black" cx="130.81" cy="-116.61" rx="130.63" ry="26.74"/>
<text text-anchor="middle" x="130.81" y="-120.41" font-family="Times,serif" font-size="14.00">eauto.</text>
<text text-anchor="middle" x="130.81" y="-105.41" font-family="Times,serif" font-size="14.00">(0.5837070400611538)</text>
</g>
<!-- 5&#45;&gt;6 -->
<g id="edge9" class="edge">
<title>5&#45;&gt;6</title>
<path fill="none" stroke="black" d="M606.34,-191.51C516.14,-179.78 384.96,-161.95 270.81,-143.48 259.09,-141.58 246.84,-139.49 234.66,-137.33"/>
<polygon fill="black" stroke="black" points="234.93,-133.83 224.47,-135.51 233.7,-140.72 234.93,-133.83"/>
</g>
<!-- 7 -->
<g id="node11" class="node">
<title>7</title>
<ellipse fill="orange" stroke="black" cx="416.81" cy="-116.61" rx="137.36" ry="26.74"/>
<text text-anchor="middle" x="416.81" y="-120.41" font-family="Times,serif" font-size="14.00">intuition.</text>
<text text-anchor="middle" x="416.81" y="-105.41" font-family="Times,serif" font-size="14.00">(0.29340754062050073)</text>
</g>
<!-- 5&#45;&gt;7 -->
<g id="edge10" class="edge">
<title>5&#45;&gt;7</title>
<path fill="none" stroke="black" d="M643.05,-184C599.97,-171.36 545.23,-155.29 500.39,-142.13"/>
<polygon fill="black" stroke="black" points="501.26,-138.74 490.68,-139.29 499.29,-145.46 501.26,-138.74"/>
</g>
<!-- 8 -->
<g id="node12" class="node">
<title>8</title>
<ellipse fill="orange" stroke="black" cx="715.81" cy="-116.61" rx="143.59" ry="26.74"/>
<text text-anchor="middle" x="715.81" y="-120.41" font-family="Times,serif" font-size="14.00">try discriminate.</text>
<text text-anchor="middle" x="715.81" y="-105.41" font-family="Times,serif" font-size="14.00">(0.012874905576532278)</text>
</g>
<!-- 5&#45;&gt;8 -->
<g id="edge11" class="edge">
<title>5&#45;&gt;8</title>
<path fill="none" stroke="black" d="M715.81,-179.03C715.81,-171.06 715.81,-162.17 715.81,-153.68"/>
<polygon fill="black" stroke="black" points="719.31,-153.61 715.81,-143.61 712.31,-153.61 719.31,-153.61"/>
</g>
<!-- 9 -->
<g id="node13" class="node">
<title>9</title>
<ellipse fill="orange" stroke="black" cx="1014.81" cy="-116.61" rx="137.36" ry="26.74"/>
<text text-anchor="middle" x="1014.81" y="-120.41" font-family="Times,serif" font-size="14.00">simpl.</text>
<text text-anchor="middle" x="1014.81" y="-105.41" font-family="Times,serif" font-size="14.00">(0.00756184750263982)</text>
</g>
<!-- 5&#45;&gt;9 -->
<g id="edge12" class="edge">
<title>5&#45;&gt;9</title>
<path fill="none" stroke="black" d="M788.58,-184C831.66,-171.36 886.4,-155.29 931.24,-142.13"/>
<polygon fill="black" stroke="black" points="932.34,-145.46 940.95,-139.29 930.37,-138.74 932.34,-145.46"/>
</g>
<!-- 10 -->
<g id="node14" class="node">
<title>10</title>
<ellipse fill="orange" stroke="black" cx="1313.81" cy="-116.61" rx="143.59" ry="26.74"/>
<text text-anchor="middle" x="1313.81" y="-120.41" font-family="Times,serif" font-size="14.00">subst.</text>
<text text-anchor="middle" x="1313.81" y="-105.41" font-family="Times,serif" font-size="14.00">(0.001507462048859953)</text>
</g>
<!-- 5&#45;&gt;10 -->
<g id="edge13" class="edge">
<title>5&#45;&gt;10</title>
<path fill="none" stroke="black" d="M824.3,-191.17C914.49,-179.17 1046.14,-161.14 1160.81,-143.48 1173.76,-141.49 1187.3,-139.32 1200.75,-137.11"/>
<polygon fill="black" stroke="black" points="1201.71,-140.5 1211.01,-135.42 1200.57,-133.59 1201.71,-140.5"/>
</g>
<!-- 15 -->
<g id="node16" class="node">
<title>15</title>
<ellipse fill="#9aff9a" stroke="black" cx="1512.81" cy="-296.09" rx="137.36" ry="26.74"/>
<text text-anchor="middle" x="1512.81" y="-299.89" font-family="Times,serif" font-size="14.00">eauto.</text>
<text text-anchor="middle" x="1512.81" y="-284.89" font-family="Times,serif" font-size="14.00">(0.43802527141251774)</text>
</g>
<!-- 14&#45;&gt;15 -->
<g id="edge15" class="edge">
<title>14&#45;&gt;15</title>
<path fill="none" stroke="black" d="M1512.81,-358.51C1512.81,-350.54 1512.81,-341.65 1512.81,-333.16"/>
<polygon fill="black" stroke="black" points="1516.31,-333.09 1512.81,-323.09 1509.31,-333.09 1516.31,-333.09"/>
</g>
<!-- 16 -->
<g id="node17" class="node">
<title>16</title>
<ellipse fill="orange" stroke="black" cx="1226.81" cy="-206.35" rx="137.36" ry="26.74"/>
<text text-anchor="middle" x="1226.81" y="-210.15" font-family="Times,serif" font-size="14.00">eauto.</text>
<text text-anchor="middle" x="1226.81" y="-195.15" font-family="Times,serif" font-size="14.00">(0.43802527141251774)</text>
</g>
<!-- 15&#45;&gt;16 -->
<g id="edge16" class="edge">
<title>15&#45;&gt;16</title>
<path fill="none" stroke="black" d="M1441.01,-273.06C1400.64,-260.68 1350.1,-245.17 1308.26,-232.34"/>
<polygon fill="black" stroke="black" points="1309.23,-228.97 1298.65,-229.39 1307.18,-235.67 1309.23,-228.97"/>
</g>
<!-- 17 -->
<g id="node18" class="node">
<title>17</title>
<ellipse fill="orange" stroke="black" cx="1512.81" cy="-206.35" rx="130.63" ry="26.74"/>
<text text-anchor="middle" x="1512.81" y="-210.15" font-family="Times,serif" font-size="14.00">intuition.</text>
<text text-anchor="middle" x="1512.81" y="-195.15" font-family="Times,serif" font-size="14.00">(0.3057076741099416)</text>
</g>
<!-- 15&#45;&gt;17 -->
<g id="edge17" class="edge">
<title>15&#45;&gt;17</title>
<path fill="none" stroke="black" d="M1512.81,-268.77C1512.81,-260.8 1512.81,-251.91 1512.81,-243.42"/>
<polygon fill="black" stroke="black" points="1516.31,-243.35 1512.81,-233.35 1509.31,-243.35 1516.31,-243.35"/>
</g>
<!-- 18 -->
<g id="node19" class="node">
<title>18</title>
<ellipse fill="#9aff9a" stroke="black" cx="1804.81" cy="-206.35" rx="143.59" ry="26.74"/>
<text text-anchor="middle" x="1804.81" y="-210.15" font-family="Times,serif" font-size="14.00">simpl.</text>
<text text-anchor="middle" x="1804.81" y="-195.15" font-family="Times,serif" font-size="14.00">(0.014951711609558258)</text>
</g>
<!-- 15&#45;&gt;18 -->
<g id="edge18" class="edge">
<title>15&#45;&gt;18</title>
<path fill="none" stroke="black" d="M1585.75,-273.18C1626.96,-260.79 1678.65,-245.26 1721.46,-232.4"/>
<polygon fill="black" stroke="black" points="1722.72,-235.67 1731.29,-229.44 1720.71,-228.97 1722.72,-235.67"/>
</g>
<!-- 19 -->
<g id="node20" class="node">
<title>19</title>
<ellipse fill="orange" stroke="black" cx="1738.81" cy="-116.61" rx="130.63" ry="26.74"/>
<text text-anchor="middle" x="1738.81" y="-120.41" font-family="Times,serif" font-size="14.00">eauto.</text>
<text text-anchor="middle" x="1738.81" y="-105.41" font-family="Times,serif" font-size="14.00">(0.8724820729425161)</text>
</g>
<!-- 18&#45;&gt;19 -->
<g id="edge19" class="edge">
<title>18&#45;&gt;19</title>
<path fill="none" stroke="black" d="M1785.37,-179.5C1778.72,-170.66 1771.19,-160.65 1764.15,-151.29"/>
<polygon fill="black" stroke="black" points="1766.93,-149.16 1758.12,-143.28 1761.34,-153.37 1766.93,-149.16"/>
</g>
<!-- 20 -->
<g id="node21" class="node">
<title>20</title>
<ellipse fill="#9aff9a" stroke="black" cx="2030.81" cy="-116.61" rx="143.59" ry="26.74"/>
<text text-anchor="middle" x="2030.81" y="-120.41" font-family="Times,serif" font-size="14.00">destruct H.</text>
<text text-anchor="middle" x="2030.81" y="-105.41" font-family="Times,serif" font-size="14.00">(0.016863802608173436)</text>
</g>
<!-- 18&#45;&gt;20 -->
<g id="edge20" class="edge">
<title>18&#45;&gt;20</title>
<path fill="none" stroke="black" d="M1865.08,-181.95C1894.59,-170.5 1930.28,-156.64 1960.97,-144.73"/>
<polygon fill="black" stroke="black" points="1962.27,-147.98 1970.32,-141.09 1959.73,-141.45 1962.27,-147.98"/>
</g>
<!-- 21 -->
<g id="node22" class="node">
<title>21</title>
<ellipse fill="green" stroke="black" cx="2030.81" cy="-26.87" rx="35.21" ry="26.74"/>
<text text-anchor="middle" x="2030.81" y="-30.67" font-family="Times,serif" font-size="14.00">QED</text>
<text text-anchor="middle" x="2030.81" y="-15.67" font-family="Times,serif" font-size="14.00">(1.0)</text>
</g>
<!-- 20&#45;&gt;21 -->
<g id="edge21" class="edge">
<title>20&#45;&gt;21</title>
<path fill="none" stroke="black" d="M2030.81,-89.29C2030.81,-81.32 2030.81,-72.43 2030.81,-63.94"/>
<polygon fill="green" stroke="black" points="2034.31,-63.87 2030.81,-53.87 2027.31,-63.87 2034.31,-63.87"/>
</g>
</g>
</svg>
