<?xml version="1.0" encoding="UTF-8" standalone="no"?>
<!DOCTYPE svg PUBLIC "-//W3C//DTD SVG 1.1//EN"
 "http://www.w3.org/Graphics/SVG/1.1/DTD/svg11.dtd">
<!-- Generated by graphviz version 2.43.0 (0)
 -->
<!-- Pages: 1 -->
<svg width="574pt" height="151pt"
 viewBox="0.00 0.00 574.36 151.48" xmlns="http://www.w3.org/2000/svg" xmlns:xlink="http://www.w3.org/1999/xlink">
<g id="graph0" class="graph" transform="scale(1 1) rotate(0) translate(4 147.48)">
<polygon fill="white" stroke="transparent" points="-4,4 -4,-147.48 570.36,-147.48 570.36,4 -4,4"/>
<!-- 0 -->
<g id="node1" class="node">
<title>0</title>
<ellipse fill="none" stroke="black" cx="276.81" cy="-116.61" rx="67.35" ry="26.74"/>
<text text-anchor="middle" x="276.81" y="-120.41" font-family="Times,serif" font-size="14.00">R_permute</text>
<text text-anchor="middle" x="276.81" y="-105.41" font-family="Times,serif" font-size="14.00">(1.0)</text>
</g>
<!-- 1 -->
<g id="node2" class="node">
<title>1</title>
<ellipse fill="none" stroke="black" cx="130.81" cy="-26.87" rx="130.63" ry="26.74"/>
<text text-anchor="middle" x="130.81" y="-30.67" font-family="Times,serif" font-size="14.00">intros.</text>
<text text-anchor="middle" x="130.81" y="-15.67" font-family="Times,serif" font-size="14.00">(0.9810545519365966)</text>
</g>
<!-- 0&#45;&gt;1 -->
<g id="edge1" class="edge">
<title>0&#45;&gt;1</title>
<path fill="none" stroke="black" d="M240.72,-93.92C222.48,-82.96 200.07,-69.49 180.25,-57.58"/>
<polygon fill="black" stroke="black" points="182.02,-54.56 171.64,-52.41 178.41,-60.56 182.02,-54.56"/>
</g>
<!-- 2 -->
<g id="node3" class="node">
<title>2</title>
<ellipse fill="orange" stroke="black" cx="422.81" cy="-26.87" rx="143.59" ry="26.74"/>
<text text-anchor="middle" x="422.81" y="-30.67" font-family="Times,serif" font-size="14.00">simpl.</text>
<text text-anchor="middle" x="422.81" y="-15.67" font-family="Times,serif" font-size="14.00">(0.002093940941187248)</text>
</g>
<!-- 0&#45;&gt;2 -->
<g id="edge2" class="edge">
<title>0&#45;&gt;2</title>
<path fill="none" stroke="black" d="M312.9,-93.92C330.92,-83.1 353,-69.82 372.64,-58.03"/>
<polygon fill="black" stroke="black" points="374.69,-60.87 381.46,-52.72 371.09,-54.87 374.69,-60.87"/>
</g>
</g>
</svg>
