<?xml version="1.0" encoding="UTF-8" standalone="no"?>
<!DOCTYPE svg PUBLIC "-//W3C//DTD SVG 1.1//EN"
 "http://www.w3.org/Graphics/SVG/1.1/DTD/svg11.dtd">
<!-- Generated by graphviz version 2.43.0 (0)
 -->
<!-- Pages: 1 -->
<svg width="880pt" height="331pt"
 viewBox="0.00 0.00 879.72 330.96" xmlns="http://www.w3.org/2000/svg" xmlns:xlink="http://www.w3.org/1999/xlink">
<g id="graph0" class="graph" transform="scale(1 1) rotate(0) translate(4 326.96)">
<polygon fill="white" stroke="transparent" points="-4,4 -4,-326.96 875.72,-326.96 875.72,4 -4,4"/>
<!-- 0 -->
<g id="node1" class="node">
<title>0</title>
<ellipse fill="none" stroke="black" cx="571.81" cy="-296.09" rx="79.81" ry="26.74"/>
<text text-anchor="middle" x="571.81" y="-299.89" font-family="Times,serif" font-size="14.00">regulier_cons</text>
<text text-anchor="middle" x="571.81" y="-284.89" font-family="Times,serif" font-size="14.00">(1.0)</text>
</g>
<!-- 1 -->
<g id="node2" class="node">
<title>1</title>
<ellipse fill="none" stroke="black" cx="422.81" cy="-206.35" rx="130.63" ry="26.74"/>
<text text-anchor="middle" x="422.81" y="-210.15" font-family="Times,serif" font-size="14.00">intros.</text>
<text text-anchor="middle" x="422.81" y="-195.15" font-family="Times,serif" font-size="14.00">(0.9657579117871644)</text>
</g>
<!-- 0&#45;&gt;1 -->
<g id="edge1" class="edge">
<title>0&#45;&gt;1</title>
<path fill="none" stroke="black" d="M533.44,-272.5C515.12,-261.71 492.96,-248.66 473.29,-237.08"/>
<polygon fill="black" stroke="black" points="474.85,-233.93 464.46,-231.87 471.3,-239.96 474.85,-233.93"/>
</g>
<!-- 6 -->
<g id="node3" class="node">
<title>6</title>
<ellipse fill="orange" stroke="black" cx="721.81" cy="-206.35" rx="149.81" ry="26.74"/>
<text text-anchor="middle" x="721.81" y="-210.15" font-family="Times,serif" font-size="14.00">simpl.</text>
<text text-anchor="middle" x="721.81" y="-195.15" font-family="Times,serif" font-size="14.00">(0.0021679606341022937)</text>
</g>
<!-- 0&#45;&gt;6 -->
<g id="edge2" class="edge">
<title>0&#45;&gt;6</title>
<path fill="none" stroke="black" d="M610.44,-272.5C628.74,-261.8 650.84,-248.87 670.51,-237.36"/>
<polygon fill="black" stroke="black" points="672.49,-240.25 679.36,-232.18 668.96,-234.21 672.49,-240.25"/>
</g>
<!-- 2 -->
<g id="node4" class="node">
<title>2</title>
<ellipse fill="none" stroke="black" cx="422.81" cy="-116.61" rx="143.59" ry="26.74"/>
<text text-anchor="middle" x="422.81" y="-120.41" font-family="Times,serif" font-size="14.00">eapply R_permute.</text>
<text text-anchor="middle" x="422.81" y="-105.41" font-family="Times,serif" font-size="14.00">(0.022162695896480733)</text>
</g>
<!-- 1&#45;&gt;2 -->
<g id="edge3" class="edge">
<title>1&#45;&gt;2</title>
<path fill="none" stroke="black" d="M422.81,-179.03C422.81,-171.06 422.81,-162.17 422.81,-153.68"/>
<polygon fill="black" stroke="black" points="426.31,-153.61 422.81,-143.61 419.31,-153.61 426.31,-153.61"/>
</g>
<!-- 3 -->
<g id="node5" class="node">
<title>3</title>
<ellipse fill="orange" stroke="black" cx="130.81" cy="-26.87" rx="130.63" ry="26.74"/>
<text text-anchor="middle" x="130.81" y="-30.67" font-family="Times,serif" font-size="14.00">eauto.</text>
<text text-anchor="middle" x="130.81" y="-15.67" font-family="Times,serif" font-size="14.00">(0.6375535775951771)</text>
</g>
<!-- 2&#45;&gt;3 -->
<g id="edge4" class="edge">
<title>2&#45;&gt;3</title>
<path fill="none" stroke="black" d="M349.13,-93.47C307.35,-80.92 255,-65.18 212.03,-52.27"/>
<polygon fill="black" stroke="black" points="213.04,-48.92 202.46,-49.4 211.03,-55.63 213.04,-48.92"/>
</g>
<!-- 4 -->
<g id="node6" class="node">
<title>4</title>
<ellipse fill="orange" stroke="black" cx="422.81" cy="-26.87" rx="143.59" ry="26.74"/>
<text text-anchor="middle" x="422.81" y="-30.67" font-family="Times,serif" font-size="14.00">eapply R_permute.</text>
<text text-anchor="middle" x="422.81" y="-15.67" font-family="Times,serif" font-size="14.00">(0.006505603476487933)</text>
</g>
<!-- 2&#45;&gt;4 -->
<g id="edge5" class="edge">
<title>2&#45;&gt;4</title>
<path fill="none" stroke="black" d="M422.81,-89.29C422.81,-81.32 422.81,-72.43 422.81,-63.94"/>
<polygon fill="black" stroke="black" points="426.31,-63.87 422.81,-53.87 419.31,-63.87 426.31,-63.87"/>
</g>
<!-- 5 -->
<g id="node7" class="node">
<title>5</title>
<ellipse fill="orange" stroke="black" cx="727.81" cy="-26.87" rx="143.59" ry="26.74"/>
<text text-anchor="middle" x="727.81" y="-30.67" font-family="Times,serif" font-size="14.00">apply R_permute.</text>
<text text-anchor="middle" x="727.81" y="-15.67" font-family="Times,serif" font-size="14.00">(0.004918605776541881)</text>
</g>
<!-- 2&#45;&gt;5 -->
<g id="edge6" class="edge">
<title>2&#45;&gt;5</title>
<path fill="none" stroke="black" d="M498.99,-93.7C542.47,-81.19 597.1,-65.47 642.08,-52.53"/>
<polygon fill="black" stroke="black" points="643.17,-55.86 651.82,-49.73 641.24,-49.13 643.17,-55.86"/>
</g>
</g>
</svg>
