<?xml version="1.0" encoding="UTF-8" standalone="no"?>
<!DOCTYPE svg PUBLIC "-//W3C//DTD SVG 1.1//EN"
 "http://www.w3.org/Graphics/SVG/1.1/DTD/svg11.dtd">
<!-- Generated by graphviz version 2.43.0 (0)
 -->
<!-- Pages: 1 -->
<svg width="2716pt" height="510pt"
 viewBox="0.00 0.00 2716.09 510.44" xmlns="http://www.w3.org/2000/svg" xmlns:xlink="http://www.w3.org/1999/xlink">
<g id="graph0" class="graph" transform="scale(1 1) rotate(0) translate(4 506.44)">
<polygon fill="white" stroke="transparent" points="-4,4 -4,-506.44 2712.09,-506.44 2712.09,4 -4,4"/>
<!-- 0 -->
<g id="node1" class="node">
<title>0</title>
<ellipse fill="none" stroke="black" cx="1513.18" cy="-475.57" rx="149.81" ry="26.74"/>
<text text-anchor="middle" x="1513.18" y="-479.37" font-family="Times,serif" font-size="14.00">bissectrice_hauteur_isocele</text>
<text text-anchor="middle" x="1513.18" y="-464.37" font-family="Times,serif" font-size="14.00">(1.0)</text>
</g>
<!-- 1 -->
<g id="node2" class="node">
<title>1</title>
<ellipse fill="none" stroke="black" cx="436.18" cy="-385.83" rx="130.63" ry="26.74"/>
<text text-anchor="middle" x="436.18" y="-389.63" font-family="Times,serif" font-size="14.00">intros.</text>
<text text-anchor="middle" x="436.18" y="-374.63" font-family="Times,serif" font-size="14.00">(0.9785479293486696)</text>
</g>
<!-- 0&#45;&gt;1 -->
<g id="edge1" class="edge">
<title>0&#45;&gt;1</title>
<path fill="none" stroke="black" d="M1378.68,-463.61C1170.36,-446.64 772.28,-414.21 566.51,-397.45"/>
<polygon fill="black" stroke="black" points="566.51,-393.94 556.26,-396.61 565.94,-400.91 566.51,-393.94"/>
</g>
<!-- 5 -->
<g id="node3" class="node">
<title>5</title>
<ellipse fill="none" stroke="black" cx="1062.18" cy="-385.83" rx="143.59" ry="26.74"/>
<text text-anchor="middle" x="1062.18" y="-389.63" font-family="Times,serif" font-size="14.00">unfold bissectrice.</text>
<text text-anchor="middle" x="1062.18" y="-374.63" font-family="Times,serif" font-size="14.00">(0.003286767614621075)</text>
</g>
<!-- 0&#45;&gt;5 -->
<g id="edge2" class="edge">
<title>0&#45;&gt;5</title>
<path fill="none" stroke="black" d="M1414.2,-455.32C1341.74,-441.22 1243.51,-422.11 1169.23,-407.66"/>
<polygon fill="black" stroke="black" points="1169.86,-404.21 1159.37,-405.74 1168.52,-411.08 1169.86,-404.21"/>
</g>
<!-- 11 -->
<g id="node4" class="node">
<title>11</title>
<ellipse fill="orange" stroke="black" cx="1513.18" cy="-385.83" rx="149.81" ry="26.74"/>
<text text-anchor="middle" x="1513.18" y="-389.63" font-family="Times,serif" font-size="14.00">simpl.</text>
<text text-anchor="middle" x="1513.18" y="-374.63" font-family="Times,serif" font-size="14.00">(0.0009963387912813129)</text>
</g>
<!-- 0&#45;&gt;11 -->
<g id="edge3" class="edge">
<title>0&#45;&gt;11</title>
<path fill="none" stroke="black" d="M1513.18,-448.25C1513.18,-440.28 1513.18,-431.39 1513.18,-422.9"/>
<polygon fill="black" stroke="black" points="1516.68,-422.83 1513.18,-412.83 1509.68,-422.83 1516.68,-422.83"/>
</g>
<!-- 12 -->
<g id="node5" class="node">
<title>12</title>
<ellipse fill="none" stroke="black" cx="1901.18" cy="-385.83" rx="149.81" ry="26.74"/>
<text text-anchor="middle" x="1901.18" y="-389.63" font-family="Times,serif" font-size="14.00">unfold orthogonal.</text>
<text text-anchor="middle" x="1901.18" y="-374.63" font-family="Times,serif" font-size="14.00">(0.0008397646551116809)</text>
</g>
<!-- 0&#45;&gt;12 -->
<g id="edge4" class="edge">
<title>0&#45;&gt;12</title>
<path fill="none" stroke="black" d="M1603.66,-454.11C1662.63,-440.78 1739.64,-423.36 1800.54,-409.59"/>
<polygon fill="black" stroke="black" points="1801.57,-412.94 1810.56,-407.32 1800.03,-406.12 1801.57,-412.94"/>
</g>
<!-- 24 -->
<g id="node6" class="node">
<title>24</title>
<ellipse fill="orange" stroke="black" cx="2219.18" cy="-385.83" rx="149.81" ry="26.74"/>
<text text-anchor="middle" x="2219.18" y="-389.63" font-family="Times,serif" font-size="14.00">eauto.</text>
<text text-anchor="middle" x="2219.18" y="-374.63" font-family="Times,serif" font-size="14.00">(0.0006120731524540653)</text>
</g>
<!-- 0&#45;&gt;24 -->
<g id="edge5" class="edge">
<title>0&#45;&gt;24</title>
<path fill="none" stroke="black" d="M1642.16,-461.77C1753.14,-450.33 1917.45,-432.37 2060.18,-412.7 2074.02,-410.79 2088.52,-408.64 2102.89,-406.42"/>
<polygon fill="black" stroke="black" points="2103.47,-409.87 2112.81,-404.87 2102.38,-402.96 2103.47,-409.87"/>
</g>
<!-- 2 -->
<g id="node7" class="node">
<title>2</title>
<ellipse fill="none" stroke="black" cx="137.18" cy="-296.09" rx="137.36" ry="26.74"/>
<text text-anchor="middle" x="137.18" y="-299.89" font-family="Times,serif" font-size="14.00">red.</text>
<text text-anchor="middle" x="137.18" y="-284.89" font-family="Times,serif" font-size="14.00">(0.09458392114560484)</text>
</g>
<!-- 1&#45;&gt;2 -->
<g id="edge6" class="edge">
<title>1&#45;&gt;2</title>
<path fill="none" stroke="black" d="M363.42,-363.48C320.34,-350.84 265.6,-334.77 220.75,-321.61"/>
<polygon fill="black" stroke="black" points="221.63,-318.22 211.05,-318.77 219.66,-324.94 221.63,-318.22"/>
</g>
<!-- 4 -->
<g id="node8" class="node">
<title>4</title>
<ellipse fill="orange" stroke="black" cx="436.18" cy="-296.09" rx="143.59" ry="26.74"/>
<text text-anchor="middle" x="436.18" y="-299.89" font-family="Times,serif" font-size="14.00">simpl.</text>
<text text-anchor="middle" x="436.18" y="-284.89" font-family="Times,serif" font-size="14.00">(0.007991409381087224)</text>
</g>
<!-- 1&#45;&gt;4 -->
<g id="edge7" class="edge">
<title>1&#45;&gt;4</title>
<path fill="none" stroke="black" d="M436.18,-358.51C436.18,-350.54 436.18,-341.65 436.18,-333.16"/>
<polygon fill="black" stroke="black" points="439.68,-333.09 436.18,-323.09 432.68,-333.09 439.68,-333.09"/>
</g>
<!-- 6 -->
<g id="node10" class="node">
<title>6</title>
<ellipse fill="none" stroke="black" cx="728.18" cy="-296.09" rx="130.63" ry="26.74"/>
<text text-anchor="middle" x="728.18" y="-299.89" font-family="Times,serif" font-size="14.00">intros.</text>
<text text-anchor="middle" x="728.18" y="-284.89" font-family="Times,serif" font-size="14.00">(0.9964672403235887)</text>
</g>
<!-- 5&#45;&gt;6 -->
<g id="edge9" class="edge">
<title>5&#45;&gt;6</title>
<path fill="none" stroke="black" d="M981.33,-363.59C931.45,-350.49 867.45,-333.68 816.29,-320.24"/>
<polygon fill="black" stroke="black" points="817.12,-316.84 806.56,-317.68 815.34,-323.61 817.12,-316.84"/>
</g>
<!-- 9 -->
<g id="node11" class="node">
<title>9</title>
<ellipse fill="orange" stroke="black" cx="1027.18" cy="-296.09" rx="149.81" ry="26.74"/>
<text text-anchor="middle" x="1027.18" y="-299.89" font-family="Times,serif" font-size="14.00">eauto.</text>
<text text-anchor="middle" x="1027.18" y="-284.89" font-family="Times,serif" font-size="14.00">(0.0013513653029607604)</text>
</g>
<!-- 5&#45;&gt;9 -->
<g id="edge10" class="edge">
<title>5&#45;&gt;9</title>
<path fill="none" stroke="black" d="M1051.87,-358.98C1048.55,-350.66 1044.82,-341.3 1041.28,-332.43"/>
<polygon fill="black" stroke="black" points="1044.49,-331.05 1037.54,-323.06 1037.99,-333.64 1044.49,-331.05"/>
</g>
<!-- 10 -->
<g id="node12" class="node">
<title>10</title>
<ellipse fill="orange" stroke="black" cx="1345.18" cy="-296.09" rx="149.81" ry="26.74"/>
<text text-anchor="middle" x="1345.18" y="-299.89" font-family="Times,serif" font-size="14.00">simpl.</text>
<text text-anchor="middle" x="1345.18" y="-284.89" font-family="Times,serif" font-size="14.00">(0.0005391526909032918)</text>
</g>
<!-- 5&#45;&gt;10 -->
<g id="edge11" class="edge">
<title>5&#45;&gt;10</title>
<path fill="none" stroke="black" d="M1134.32,-362.46C1173.44,-350.34 1221.95,-335.3 1262.57,-322.7"/>
<polygon fill="black" stroke="black" points="1263.67,-326.03 1272.18,-319.72 1261.59,-319.34 1263.67,-326.03"/>
</g>
<!-- 13 -->
<g id="node15" class="node">
<title>13</title>
<ellipse fill="none" stroke="black" cx="1644.18" cy="-296.09" rx="130.63" ry="26.74"/>
<text text-anchor="middle" x="1644.18" y="-299.89" font-family="Times,serif" font-size="14.00">intros.</text>
<text text-anchor="middle" x="1644.18" y="-284.89" font-family="Times,serif" font-size="14.00">(0.9886730416926728)</text>
</g>
<!-- 12&#45;&gt;13 -->
<g id="edge14" class="edge">
<title>12&#45;&gt;13</title>
<path fill="none" stroke="black" d="M1833.65,-361.78C1798.43,-349.75 1755.25,-335.01 1719.02,-322.64"/>
<polygon fill="black" stroke="black" points="1720.07,-319.3 1709.48,-319.38 1717.81,-325.93 1720.07,-319.3"/>
</g>
<!-- 16 -->
<g id="node16" class="node">
<title>16</title>
<ellipse fill="orange" stroke="black" cx="1936.18" cy="-296.09" rx="143.59" ry="26.74"/>
<text text-anchor="middle" x="1936.18" y="-299.89" font-family="Times,serif" font-size="14.00">simpl.</text>
<text text-anchor="middle" x="1936.18" y="-284.89" font-family="Times,serif" font-size="14.00">(0.005815839898875379)</text>
</g>
<!-- 12&#45;&gt;16 -->
<g id="edge15" class="edge">
<title>12&#45;&gt;16</title>
<path fill="none" stroke="black" d="M1911.49,-358.98C1914.81,-350.66 1918.54,-341.3 1922.08,-332.43"/>
<polygon fill="black" stroke="black" points="1925.37,-333.64 1925.82,-323.06 1918.86,-331.05 1925.37,-333.64"/>
</g>
<!-- 17 -->
<g id="node17" class="node">
<title>17</title>
<ellipse fill="none" stroke="black" cx="2247.18" cy="-296.09" rx="149.81" ry="26.74"/>
<text text-anchor="middle" x="2247.18" y="-299.89" font-family="Times,serif" font-size="14.00">unfold bissectrice.</text>
<text text-anchor="middle" x="2247.18" y="-284.89" font-family="Times,serif" font-size="14.00">(0.0019194633290535049)</text>
</g>
<!-- 12&#45;&gt;17 -->
<g id="edge16" class="edge">
<title>12&#45;&gt;17</title>
<path fill="none" stroke="black" d="M1985.38,-363.48C2036.12,-350.61 2100.84,-334.2 2153.23,-320.91"/>
<polygon fill="black" stroke="black" points="2154.37,-324.24 2163.2,-318.39 2152.65,-317.45 2154.37,-324.24"/>
</g>
<!-- 23 -->
<g id="node18" class="node">
<title>23</title>
<ellipse fill="orange" stroke="black" cx="2558.18" cy="-296.09" rx="143.59" ry="26.74"/>
<text text-anchor="middle" x="2558.18" y="-299.89" font-family="Times,serif" font-size="14.00">eauto.</text>
<text text-anchor="middle" x="2558.18" y="-284.89" font-family="Times,serif" font-size="14.00">(0.001832325556568388)</text>
</g>
<!-- 12&#45;&gt;23 -->
<g id="edge17" class="edge">
<title>12&#45;&gt;23</title>
<path fill="none" stroke="black" d="M2007.11,-366.72C2024.8,-363.95 2042.99,-361.25 2060.18,-358.96 2213.43,-338.54 2253,-343.94 2406.18,-322.96 2419.41,-321.15 2433.26,-319.06 2446.98,-316.87"/>
<polygon fill="black" stroke="black" points="2447.62,-320.31 2456.94,-315.26 2446.51,-313.4 2447.62,-320.31"/>
</g>
<!-- 3 -->
<g id="node9" class="node">
<title>3</title>
<ellipse fill="orange" stroke="black" cx="137.18" cy="-206.35" rx="130.63" ry="26.74"/>
<text text-anchor="middle" x="137.18" y="-210.15" font-family="Times,serif" font-size="14.00">simpl.</text>
<text text-anchor="middle" x="137.18" y="-195.15" font-family="Times,serif" font-size="14.00">(0.5715927956418279)</text>
</g>
<!-- 2&#45;&gt;3 -->
<g id="edge8" class="edge">
<title>2&#45;&gt;3</title>
<path fill="none" stroke="black" d="M137.18,-268.77C137.18,-260.8 137.18,-251.91 137.18,-243.42"/>
<polygon fill="black" stroke="black" points="140.68,-243.35 137.18,-233.35 133.68,-243.35 140.68,-243.35"/>
</g>
<!-- 7 -->
<g id="node13" class="node">
<title>7</title>
<ellipse fill="none" stroke="black" cx="728.18" cy="-206.35" rx="137.36" ry="26.74"/>
<text text-anchor="middle" x="728.18" y="-210.15" font-family="Times,serif" font-size="14.00">red.</text>
<text text-anchor="middle" x="728.18" y="-195.15" font-family="Times,serif" font-size="14.00">(0.07474993405997454)</text>
</g>
<!-- 6&#45;&gt;7 -->
<g id="edge12" class="edge">
<title>6&#45;&gt;7</title>
<path fill="none" stroke="black" d="M728.18,-268.77C728.18,-260.8 728.18,-251.91 728.18,-243.42"/>
<polygon fill="black" stroke="black" points="731.68,-243.35 728.18,-233.35 724.68,-243.35 731.68,-243.35"/>
</g>
<!-- 8 -->
<g id="node14" class="node">
<title>8</title>
<ellipse fill="orange" stroke="black" cx="728.18" cy="-116.61" rx="130.63" ry="26.74"/>
<text text-anchor="middle" x="728.18" y="-120.41" font-family="Times,serif" font-size="14.00">simpl.</text>
<text text-anchor="middle" x="728.18" y="-105.41" font-family="Times,serif" font-size="14.00">(0.5385585220409593)</text>
</g>
<!-- 7&#45;&gt;8 -->
<g id="edge13" class="edge">
<title>7&#45;&gt;8</title>
<path fill="none" stroke="black" d="M728.18,-179.03C728.18,-171.06 728.18,-162.17 728.18,-153.68"/>
<polygon fill="black" stroke="black" points="731.68,-153.61 728.18,-143.61 724.68,-153.61 731.68,-153.61"/>
</g>
<!-- 14 -->
<g id="node19" class="node">
<title>14</title>
<ellipse fill="none" stroke="black" cx="1644.18" cy="-206.35" rx="137.36" ry="26.74"/>
<text text-anchor="middle" x="1644.18" y="-210.15" font-family="Times,serif" font-size="14.00">red.</text>
<text text-anchor="middle" x="1644.18" y="-195.15" font-family="Times,serif" font-size="14.00">(0.05720075546268136)</text>
</g>
<!-- 13&#45;&gt;14 -->
<g id="edge18" class="edge">
<title>13&#45;&gt;14</title>
<path fill="none" stroke="black" d="M1644.18,-268.77C1644.18,-260.8 1644.18,-251.91 1644.18,-243.42"/>
<polygon fill="black" stroke="black" points="1647.68,-243.35 1644.18,-233.35 1640.68,-243.35 1647.68,-243.35"/>
</g>
<!-- 18 -->
<g id="node21" class="node">
<title>18</title>
<ellipse fill="none" stroke="black" cx="1955.18" cy="-206.35" rx="130.63" ry="26.74"/>
<text text-anchor="middle" x="1955.18" y="-210.15" font-family="Times,serif" font-size="14.00">intros.</text>
<text text-anchor="middle" x="1955.18" y="-195.15" font-family="Times,serif" font-size="14.00">(0.9964756446207682)</text>
</g>
<!-- 17&#45;&gt;18 -->
<g id="edge20" class="edge">
<title>17&#45;&gt;18</title>
<path fill="none" stroke="black" d="M2172.74,-272.72C2131.2,-260.24 2079.39,-244.67 2036.75,-231.86"/>
<polygon fill="black" stroke="black" points="2037.55,-228.45 2026.96,-228.92 2035.53,-235.15 2037.55,-228.45"/>
</g>
<!-- 21 -->
<g id="node22" class="node">
<title>21</title>
<ellipse fill="orange" stroke="black" cx="2247.18" cy="-206.35" rx="143.59" ry="26.74"/>
<text text-anchor="middle" x="2247.18" y="-210.15" font-family="Times,serif" font-size="14.00">eauto.</text>
<text text-anchor="middle" x="2247.18" y="-195.15" font-family="Times,serif" font-size="14.00">(0.001351376901871971)</text>
</g>
<!-- 17&#45;&gt;21 -->
<g id="edge21" class="edge">
<title>17&#45;&gt;21</title>
<path fill="none" stroke="black" d="M2247.18,-268.77C2247.18,-260.8 2247.18,-251.91 2247.18,-243.42"/>
<polygon fill="black" stroke="black" points="2250.68,-243.35 2247.18,-233.35 2243.68,-243.35 2250.68,-243.35"/>
</g>
<!-- 22 -->
<g id="node23" class="node">
<title>22</title>
<ellipse fill="orange" stroke="black" cx="2558.18" cy="-206.35" rx="149.81" ry="26.74"/>
<text text-anchor="middle" x="2558.18" y="-210.15" font-family="Times,serif" font-size="14.00">simpl.</text>
<text text-anchor="middle" x="2558.18" y="-195.15" font-family="Times,serif" font-size="14.00">(0.0005391573185078167)</text>
</g>
<!-- 17&#45;&gt;22 -->
<g id="edge22" class="edge">
<title>17&#45;&gt;22</title>
<path fill="none" stroke="black" d="M2325.26,-273.06C2369.34,-260.63 2424.58,-245.04 2470.19,-232.17"/>
<polygon fill="black" stroke="black" points="2471.4,-235.47 2480.07,-229.39 2469.49,-228.73 2471.4,-235.47"/>
</g>
<!-- 15 -->
<g id="node20" class="node">
<title>15</title>
<ellipse fill="orange" stroke="black" cx="1644.18" cy="-116.61" rx="130.63" ry="26.74"/>
<text text-anchor="middle" x="1644.18" y="-120.41" font-family="Times,serif" font-size="14.00">simpl.</text>
<text text-anchor="middle" x="1644.18" y="-105.41" font-family="Times,serif" font-size="14.00">(0.5389936285954523)</text>
</g>
<!-- 14&#45;&gt;15 -->
<g id="edge19" class="edge">
<title>14&#45;&gt;15</title>
<path fill="none" stroke="black" d="M1644.18,-179.03C1644.18,-171.06 1644.18,-162.17 1644.18,-153.68"/>
<polygon fill="black" stroke="black" points="1647.68,-153.61 1644.18,-143.61 1640.68,-153.61 1647.68,-153.61"/>
</g>
<!-- 19 -->
<g id="node24" class="node">
<title>19</title>
<ellipse fill="none" stroke="black" cx="1955.18" cy="-116.61" rx="137.36" ry="26.74"/>
<text text-anchor="middle" x="1955.18" y="-120.41" font-family="Times,serif" font-size="14.00">red.</text>
<text text-anchor="middle" x="1955.18" y="-105.41" font-family="Times,serif" font-size="14.00">(0.04929118564682632)</text>
</g>
<!-- 18&#45;&gt;19 -->
<g id="edge23" class="edge">
<title>18&#45;&gt;19</title>
<path fill="none" stroke="black" d="M1955.18,-179.03C1955.18,-171.06 1955.18,-162.17 1955.18,-153.68"/>
<polygon fill="black" stroke="black" points="1958.68,-153.61 1955.18,-143.61 1951.68,-153.61 1958.68,-153.61"/>
</g>
<!-- 20 -->
<g id="node25" class="node">
<title>20</title>
<ellipse fill="orange" stroke="black" cx="1955.18" cy="-26.87" rx="130.63" ry="26.74"/>
<text text-anchor="middle" x="1955.18" y="-30.67" font-family="Times,serif" font-size="14.00">simpl.</text>
<text text-anchor="middle" x="1955.18" y="-15.67" font-family="Times,serif" font-size="14.00">(0.5095227870062297)</text>
</g>
<!-- 19&#45;&gt;20 -->
<g id="edge24" class="edge">
<title>19&#45;&gt;20</title>
<path fill="none" stroke="black" d="M1955.18,-89.29C1955.18,-81.32 1955.18,-72.43 1955.18,-63.94"/>
<polygon fill="black" stroke="black" points="1958.68,-63.87 1955.18,-53.87 1951.68,-63.87 1958.68,-63.87"/>
</g>
</g>
</svg>
