<?xml version="1.0" encoding="UTF-8" standalone="no"?>
<!DOCTYPE svg PUBLIC "-//W3C//DTD SVG 1.1//EN"
 "http://www.w3.org/Graphics/SVG/1.1/DTD/svg11.dtd">
<!-- Generated by graphviz version 2.43.0 (0)
 -->
<!-- Pages: 1 -->
<svg width="1500pt" height="600pt"
 viewBox="0.00 0.00 1500.45 600.18" xmlns="http://www.w3.org/2000/svg" xmlns:xlink="http://www.w3.org/1999/xlink">
<g id="graph0" class="graph" transform="scale(1 1) rotate(0) translate(4 596.18)">
<polygon fill="white" stroke="transparent" points="-4,4 -4,-596.18 1496.45,-596.18 1496.45,4 -4,4"/>
<!-- 0 -->
<g id="node1" class="node">
<title>0</title>
<ellipse fill="none" stroke="black" cx="1192.54" cy="-565.31" rx="142.26" ry="26.74"/>
<text text-anchor="middle" x="1192.54" y="-569.11" font-family="Times,serif" font-size="14.00">construction_isocele_base</text>
<text text-anchor="middle" x="1192.54" y="-554.11" font-family="Times,serif" font-size="14.00">(1.0)</text>
</g>
<!-- 1 -->
<g id="node2" class="node">
<title>1</title>
<ellipse fill="none" stroke="black" cx="1043.54" cy="-475.57" rx="130.63" ry="26.74"/>
<text text-anchor="middle" x="1043.54" y="-479.37" font-family="Times,serif" font-size="14.00">intros.</text>
<text text-anchor="middle" x="1043.54" y="-464.37" font-family="Times,serif" font-size="14.00">(0.9620067012922335)</text>
</g>
<!-- 0&#45;&gt;1 -->
<g id="edge1" class="edge">
<title>0&#45;&gt;1</title>
<path fill="none" stroke="black" d="M1150.24,-539.4C1132.72,-529.08 1112.25,-517.03 1093.96,-506.26"/>
<polygon fill="black" stroke="black" points="1095.57,-503.14 1085.17,-501.09 1092.02,-509.18 1095.57,-503.14"/>
</g>
<!-- 15 -->
<g id="node3" class="node">
<title>15</title>
<ellipse fill="orange" stroke="black" cx="1342.54" cy="-475.57" rx="149.81" ry="26.74"/>
<text text-anchor="middle" x="1342.54" y="-479.37" font-family="Times,serif" font-size="14.00">simpl.</text>
<text text-anchor="middle" x="1342.54" y="-464.37" font-family="Times,serif" font-size="14.00">(0.0005020145826364237)</text>
</g>
<!-- 0&#45;&gt;15 -->
<g id="edge2" class="edge">
<title>0&#45;&gt;15</title>
<path fill="none" stroke="black" d="M1234.73,-539.64C1252.3,-529.36 1272.87,-517.33 1291.3,-506.54"/>
<polygon fill="black" stroke="black" points="1293.29,-509.43 1300.16,-501.36 1289.76,-503.39 1293.29,-509.43"/>
</g>
<!-- 2 -->
<g id="node4" class="node">
<title>2</title>
<ellipse fill="none" stroke="black" cx="751.54" cy="-385.83" rx="137.36" ry="26.74"/>
<text text-anchor="middle" x="751.54" y="-389.63" font-family="Times,serif" font-size="14.00">econstructor.</text>
<text text-anchor="middle" x="751.54" y="-374.63" font-family="Times,serif" font-size="14.00">(0.23411763042653583)</text>
</g>
<!-- 1&#45;&gt;2 -->
<g id="edge3" class="edge">
<title>1&#45;&gt;2</title>
<path fill="none" stroke="black" d="M971.74,-452.99C930.06,-440.47 877.39,-424.64 834.01,-411.61"/>
<polygon fill="black" stroke="black" points="834.92,-408.23 824.34,-408.7 832.91,-414.93 834.92,-408.23"/>
</g>
<!-- 13 -->
<g id="node5" class="node">
<title>13</title>
<ellipse fill="orange" stroke="black" cx="1043.54" cy="-385.83" rx="137.36" ry="26.74"/>
<text text-anchor="middle" x="1043.54" y="-389.63" font-family="Times,serif" font-size="14.00">subst.</text>
<text text-anchor="middle" x="1043.54" y="-374.63" font-family="Times,serif" font-size="14.00">(0.03399025400867356)</text>
</g>
<!-- 1&#45;&gt;13 -->
<g id="edge4" class="edge">
<title>1&#45;&gt;13</title>
<path fill="none" stroke="black" d="M1043.54,-448.25C1043.54,-440.28 1043.54,-431.39 1043.54,-422.9"/>
<polygon fill="black" stroke="black" points="1047.04,-422.83 1043.54,-412.83 1040.04,-422.83 1047.04,-422.83"/>
</g>
<!-- 14 -->
<g id="node6" class="node">
<title>14</title>
<ellipse fill="orange" stroke="black" cx="1335.54" cy="-385.83" rx="137.36" ry="26.74"/>
<text text-anchor="middle" x="1335.54" y="-389.63" font-family="Times,serif" font-size="14.00">simpl.</text>
<text text-anchor="middle" x="1335.54" y="-374.63" font-family="Times,serif" font-size="14.00">(0.02551982507421262)</text>
</g>
<!-- 1&#45;&gt;14 -->
<g id="edge5" class="edge">
<title>1&#45;&gt;14</title>
<path fill="none" stroke="black" d="M1115.35,-452.99C1157.03,-440.47 1209.7,-424.64 1253.07,-411.61"/>
<polygon fill="black" stroke="black" points="1254.18,-414.93 1262.75,-408.7 1252.16,-408.23 1254.18,-414.93"/>
</g>
<!-- 3 -->
<g id="node7" class="node">
<title>3</title>
<ellipse fill="none" stroke="black" cx="602.54" cy="-296.09" rx="130.63" ry="26.74"/>
<text text-anchor="middle" x="602.54" y="-299.89" font-family="Times,serif" font-size="14.00">econstructor.</text>
<text text-anchor="middle" x="602.54" y="-284.89" font-family="Times,serif" font-size="14.00">(0.9536028749854623)</text>
</g>
<!-- 2&#45;&gt;3 -->
<g id="edge6" class="edge">
<title>2&#45;&gt;3</title>
<path fill="none" stroke="black" d="M709.64,-360.16C692.04,-349.79 671.41,-337.64 652.98,-326.79"/>
<polygon fill="black" stroke="black" points="654.52,-323.64 644.13,-321.58 650.97,-329.67 654.52,-323.64"/>
</g>
<!-- 12 -->
<g id="node8" class="node">
<title>12</title>
<ellipse fill="orange" stroke="black" cx="901.54" cy="-296.09" rx="149.81" ry="26.74"/>
<text text-anchor="middle" x="901.54" y="-299.89" font-family="Times,serif" font-size="14.00">simpl.</text>
<text text-anchor="middle" x="901.54" y="-284.89" font-family="Times,serif" font-size="14.00">(0.0005427380835480272)</text>
</g>
<!-- 2&#45;&gt;12 -->
<g id="edge7" class="edge">
<title>2&#45;&gt;12</title>
<path fill="none" stroke="black" d="M793.73,-360.16C811.3,-349.88 831.87,-337.85 850.3,-327.06"/>
<polygon fill="black" stroke="black" points="852.29,-329.95 859.16,-321.88 848.76,-323.91 852.29,-329.95"/>
</g>
<!-- 4 -->
<g id="node9" class="node">
<title>4</title>
<ellipse fill="none" stroke="black" cx="143.54" cy="-206.35" rx="130.63" ry="26.74"/>
<text text-anchor="middle" x="143.54" y="-210.15" font-family="Times,serif" font-size="14.00">split.</text>
<text text-anchor="middle" x="143.54" y="-195.15" font-family="Times,serif" font-size="14.00">(0.9998819967293698)</text>
</g>
<!-- 3&#45;&gt;4 -->
<g id="edge8" class="edge">
<title>3&#45;&gt;4</title>
<path fill="none" stroke="black" d="M509.1,-277.23C432.94,-262.67 325.48,-242.13 246.79,-227.09"/>
<polygon fill="black" stroke="black" points="247.33,-223.63 236.85,-225.19 246.02,-230.5 247.33,-223.63"/>
</g>
<!-- 7 -->
<g id="node10" class="node">
<title>7</title>
<ellipse fill="none" stroke="black" cx="444.54" cy="-206.35" rx="152.06" ry="26.74"/>
<text text-anchor="middle" x="444.54" y="-210.15" font-family="Times,serif" font-size="14.00">intuition.</text>
<text text-anchor="middle" x="444.54" y="-195.15" font-family="Times,serif" font-size="14.00">(2.0649353674847128e&#45;05)</text>
</g>
<!-- 3&#45;&gt;7 -->
<g id="edge9" class="edge">
<title>3&#45;&gt;7</title>
<path fill="none" stroke="black" d="M558.53,-270.65C539.76,-260.23 517.7,-247.97 498,-237.04"/>
<polygon fill="black" stroke="black" points="499.58,-233.91 489.14,-232.12 496.18,-240.03 499.58,-233.91"/>
</g>
<!-- 9 -->
<g id="node11" class="node">
<title>9</title>
<ellipse fill="none" stroke="black" cx="760.54" cy="-206.35" rx="145.83" ry="26.74"/>
<text text-anchor="middle" x="760.54" y="-210.15" font-family="Times,serif" font-size="14.00">repeat split.</text>
<text text-anchor="middle" x="760.54" y="-195.15" font-family="Times,serif" font-size="14.00">(1.642250182763828e&#45;05)</text>
</g>
<!-- 3&#45;&gt;9 -->
<g id="edge10" class="edge">
<title>3&#45;&gt;9</title>
<path fill="none" stroke="black" d="M646.55,-270.65C665.4,-260.18 687.57,-247.87 707.33,-236.9"/>
<polygon fill="black" stroke="black" points="709.18,-239.88 716.22,-231.96 705.78,-233.76 709.18,-239.88"/>
</g>
<!-- 11 -->
<g id="node12" class="node">
<title>11</title>
<ellipse fill="orange" stroke="black" cx="1069.54" cy="-206.35" rx="145.83" ry="26.74"/>
<text text-anchor="middle" x="1069.54" y="-210.15" font-family="Times,serif" font-size="14.00">simpl.</text>
<text text-anchor="middle" x="1069.54" y="-195.15" font-family="Times,serif" font-size="14.00">(8.991745505795493e&#45;06)</text>
</g>
<!-- 3&#45;&gt;11 -->
<g id="edge11" class="edge">
<title>3&#45;&gt;11</title>
<path fill="none" stroke="black" d="M696.77,-277.39C772.91,-263.08 880.19,-242.93 960.12,-227.91"/>
<polygon fill="black" stroke="black" points="961.04,-231.3 970.22,-226.01 959.75,-224.42 961.04,-231.3"/>
</g>
<!-- 5 -->
<g id="node13" class="node">
<title>5</title>
<ellipse fill="blue" stroke="black" cx="143.54" cy="-116.61" rx="137.36" ry="26.74"/>
<text text-anchor="middle" x="143.54" y="-120.41" font-family="Times,serif" font-size="14.00">eauto.</text>
<text text-anchor="middle" x="143.54" y="-105.41" font-family="Times,serif" font-size="14.00">(0.42182641642255236)</text>
</g>
<!-- 4&#45;&gt;5 -->
<g id="edge12" class="edge">
<title>4&#45;&gt;5</title>
<path fill="none" stroke="black" d="M143.54,-179.03C143.54,-171.06 143.54,-162.17 143.54,-153.68"/>
<polygon fill="black" stroke="black" points="147.04,-153.61 143.54,-143.61 140.04,-153.61 147.04,-153.61"/>
</g>
<!-- 8 -->
<g id="node15" class="node">
<title>8</title>
<ellipse fill="orange" stroke="black" cx="444.54" cy="-116.61" rx="137.36" ry="26.74"/>
<text text-anchor="middle" x="444.54" y="-120.41" font-family="Times,serif" font-size="14.00">simpl.</text>
<text text-anchor="middle" x="444.54" y="-105.41" font-family="Times,serif" font-size="14.00">(0.04258834478535899)</text>
</g>
<!-- 7&#45;&gt;8 -->
<g id="edge14" class="edge">
<title>7&#45;&gt;8</title>
<path fill="none" stroke="black" d="M444.54,-179.03C444.54,-171.06 444.54,-162.17 444.54,-153.68"/>
<polygon fill="black" stroke="black" points="448.04,-153.61 444.54,-143.61 441.04,-153.61 448.04,-153.61"/>
</g>
<!-- 10 -->
<g id="node16" class="node">
<title>10</title>
<ellipse fill="blue" stroke="black" cx="760.54" cy="-116.61" rx="130.63" ry="26.74"/>
<text text-anchor="middle" x="760.54" y="-120.41" font-family="Times,serif" font-size="14.00">eauto.</text>
<text text-anchor="middle" x="760.54" y="-105.41" font-family="Times,serif" font-size="14.00">(0.2509065265807886)</text>
</g>
<!-- 9&#45;&gt;10 -->
<g id="edge15" class="edge">
<title>9&#45;&gt;10</title>
<path fill="none" stroke="black" d="M760.54,-179.03C760.54,-171.06 760.54,-162.17 760.54,-153.68"/>
<polygon fill="black" stroke="black" points="764.04,-153.61 760.54,-143.61 757.04,-153.61 764.04,-153.61"/>
</g>
<!-- 6 -->
<g id="node14" class="node">
<title>6</title>
<ellipse fill="orange" stroke="black" cx="143.54" cy="-26.87" rx="143.59" ry="26.74"/>
<text text-anchor="middle" x="143.54" y="-30.67" font-family="Times,serif" font-size="14.00">simpl.</text>
<text text-anchor="middle" x="143.54" y="-15.67" font-family="Times,serif" font-size="14.00">(0.020080789891216148)</text>
</g>
<!-- 5&#45;&gt;6 -->
<g id="edge13" class="edge">
<title>5&#45;&gt;6</title>
<path fill="none" stroke="black" d="M143.54,-89.29C143.54,-81.32 143.54,-72.43 143.54,-63.94"/>
<polygon fill="black" stroke="black" points="147.04,-63.87 143.54,-53.87 140.04,-63.87 147.04,-63.87"/>
</g>
</g>
</svg>
