<?xml version="1.0" encoding="UTF-8" standalone="no"?>
<!DOCTYPE svg PUBLIC "-//W3C//DTD SVG 1.1//EN"
 "http://www.w3.org/Graphics/SVG/1.1/DTD/svg11.dtd">
<!-- Generated by graphviz version 2.43.0 (0)
 -->
<!-- Pages: 1 -->
<svg width="2729pt" height="421pt"
 viewBox="0.00 0.00 2729.45 420.70" xmlns="http://www.w3.org/2000/svg" xmlns:xlink="http://www.w3.org/1999/xlink">
<g id="graph0" class="graph" transform="scale(1 1) rotate(0) translate(4 416.7)">
<polygon fill="white" stroke="transparent" points="-4,4 -4,-416.7 2725.45,-416.7 2725.45,4 -4,4"/>
<!-- 0 -->
<g id="node1" class="node">
<title>0</title>
<ellipse fill="none" stroke="black" cx="1732.54" cy="-385.83" rx="115.93" ry="26.74"/>
<text text-anchor="middle" x="1732.54" y="-389.63" font-family="Times,serif" font-size="14.00">tangente_reciproque</text>
<text text-anchor="middle" x="1732.54" y="-374.63" font-family="Times,serif" font-size="14.00">(1.0)</text>
</g>
<!-- 1 -->
<g id="node2" class="node">
<title>1</title>
<ellipse fill="none" stroke="black" cx="442.54" cy="-296.09" rx="130.63" ry="26.74"/>
<text text-anchor="middle" x="442.54" y="-299.89" font-family="Times,serif" font-size="14.00">intros.</text>
<text text-anchor="middle" x="442.54" y="-284.89" font-family="Times,serif" font-size="14.00">(0.9705609741240968)</text>
</g>
<!-- 0&#45;&gt;1 -->
<g id="edge1" class="edge">
<title>0&#45;&gt;1</title>
<path fill="none" stroke="black" d="M1622.28,-377.33C1385.8,-361.25 830.7,-323.49 575.34,-306.12"/>
<polygon fill="black" stroke="black" points="575.49,-302.62 565.27,-305.44 575.01,-309.61 575.49,-302.62"/>
</g>
<!-- 5 -->
<g id="node3" class="node">
<title>5</title>
<ellipse fill="none" stroke="black" cx="1268.54" cy="-296.09" rx="143.59" ry="26.74"/>
<text text-anchor="middle" x="1268.54" y="-299.89" font-family="Times,serif" font-size="14.00">unfold isocele.</text>
<text text-anchor="middle" x="1268.54" y="-284.89" font-family="Times,serif" font-size="14.00">(0.004363575447244346)</text>
</g>
<!-- 0&#45;&gt;5 -->
<g id="edge2" class="edge">
<title>0&#45;&gt;5</title>
<path fill="none" stroke="black" d="M1644.72,-368.22C1568.76,-353.86 1458.63,-333.03 1377.14,-317.63"/>
<polygon fill="black" stroke="black" points="1377.32,-314.1 1366.85,-315.68 1376.02,-320.98 1377.32,-314.1"/>
</g>
<!-- 11 -->
<g id="node4" class="node">
<title>11</title>
<ellipse fill="none" stroke="black" cx="1732.54" cy="-296.09" rx="149.81" ry="26.74"/>
<text text-anchor="middle" x="1732.54" y="-299.89" font-family="Times,serif" font-size="14.00">unfold orthogonal.</text>
<text text-anchor="middle" x="1732.54" y="-284.89" font-family="Times,serif" font-size="14.00">(0.0011247805469910325)</text>
</g>
<!-- 0&#45;&gt;11 -->
<g id="edge3" class="edge">
<title>0&#45;&gt;11</title>
<path fill="none" stroke="black" d="M1732.54,-358.51C1732.54,-350.54 1732.54,-341.65 1732.54,-333.16"/>
<polygon fill="black" stroke="black" points="1736.04,-333.09 1732.54,-323.09 1729.04,-333.09 1736.04,-333.09"/>
</g>
<!-- 24 -->
<g id="node5" class="node">
<title>24</title>
<ellipse fill="orange" stroke="black" cx="2050.54" cy="-296.09" rx="149.81" ry="26.74"/>
<text text-anchor="middle" x="2050.54" y="-299.89" font-family="Times,serif" font-size="14.00">eauto.</text>
<text text-anchor="middle" x="2050.54" y="-284.89" font-family="Times,serif" font-size="14.00">(0.0010052675207429197)</text>
</g>
<!-- 0&#45;&gt;24 -->
<g id="edge4" class="edge">
<title>0&#45;&gt;24</title>
<path fill="none" stroke="black" d="M1805.1,-364.81C1851.59,-351.99 1912.24,-335.25 1961.61,-321.63"/>
<polygon fill="black" stroke="black" points="1962.62,-324.98 1971.33,-318.95 1960.76,-318.23 1962.62,-324.98"/>
</g>
<!-- 25 -->
<g id="node6" class="node">
<title>25</title>
<ellipse fill="orange" stroke="black" cx="2361.54" cy="-296.09" rx="143.59" ry="26.74"/>
<text text-anchor="middle" x="2361.54" y="-299.89" font-family="Times,serif" font-size="14.00">simpl.</text>
<text text-anchor="middle" x="2361.54" y="-284.89" font-family="Times,serif" font-size="14.00">(0.000577751324765607)</text>
</g>
<!-- 0&#45;&gt;25 -->
<g id="edge5" class="edge">
<title>0&#45;&gt;25</title>
<path fill="none" stroke="black" d="M1834.13,-372.84C1930.81,-361.14 2080.3,-342.33 2209.54,-322.96 2222.41,-321.03 2235.87,-318.9 2249.24,-316.72"/>
<polygon fill="black" stroke="black" points="2250.13,-320.12 2259.43,-315.04 2248.99,-313.21 2250.13,-320.12"/>
</g>
<!-- 2 -->
<g id="node7" class="node">
<title>2</title>
<ellipse fill="none" stroke="black" cx="143.54" cy="-206.35" rx="137.36" ry="26.74"/>
<text text-anchor="middle" x="143.54" y="-210.15" font-family="Times,serif" font-size="14.00">red.</text>
<text text-anchor="middle" x="143.54" y="-195.15" font-family="Times,serif" font-size="14.00">(0.07407415811080968)</text>
</g>
<!-- 1&#45;&gt;2 -->
<g id="edge6" class="edge">
<title>1&#45;&gt;2</title>
<path fill="none" stroke="black" d="M369.78,-273.74C326.7,-261.1 271.96,-245.03 227.11,-231.87"/>
<polygon fill="black" stroke="black" points="227.99,-228.48 217.41,-229.03 226.02,-235.2 227.99,-228.48"/>
</g>
<!-- 4 -->
<g id="node8" class="node">
<title>4</title>
<ellipse fill="orange" stroke="black" cx="442.54" cy="-206.35" rx="143.59" ry="26.74"/>
<text text-anchor="middle" x="442.54" y="-210.15" font-family="Times,serif" font-size="14.00">simpl.</text>
<text text-anchor="middle" x="442.54" y="-195.15" font-family="Times,serif" font-size="14.00">(0.016324068113097844)</text>
</g>
<!-- 1&#45;&gt;4 -->
<g id="edge7" class="edge">
<title>1&#45;&gt;4</title>
<path fill="none" stroke="black" d="M442.54,-268.77C442.54,-260.8 442.54,-251.91 442.54,-243.42"/>
<polygon fill="black" stroke="black" points="446.04,-243.35 442.54,-233.35 439.04,-243.35 446.04,-243.35"/>
</g>
<!-- 6 -->
<g id="node10" class="node">
<title>6</title>
<ellipse fill="none" stroke="black" cx="734.54" cy="-206.35" rx="130.63" ry="26.74"/>
<text text-anchor="middle" x="734.54" y="-210.15" font-family="Times,serif" font-size="14.00">intros.</text>
<text text-anchor="middle" x="734.54" y="-195.15" font-family="Times,serif" font-size="14.00">(0.9894584547252168)</text>
</g>
<!-- 5&#45;&gt;6 -->
<g id="edge9" class="edge">
<title>5&#45;&gt;6</title>
<path fill="none" stroke="black" d="M1158.87,-278.68C1079.75,-266.64 970.44,-249.61 874.54,-233.22 862.93,-231.24 850.79,-229.09 838.72,-226.92"/>
<polygon fill="black" stroke="black" points="839.08,-223.43 828.61,-225.09 837.83,-230.32 839.08,-223.43"/>
</g>
<!-- 9 -->
<g id="node11" class="node">
<title>9</title>
<ellipse fill="orange" stroke="black" cx="1033.54" cy="-206.35" rx="149.81" ry="26.74"/>
<text text-anchor="middle" x="1033.54" y="-210.15" font-family="Times,serif" font-size="14.00">eauto.</text>
<text text-anchor="middle" x="1033.54" y="-195.15" font-family="Times,serif" font-size="14.00">(0.0030522352606384483)</text>
</g>
<!-- 5&#45;&gt;9 -->
<g id="edge10" class="edge">
<title>5&#45;&gt;9</title>
<path fill="none" stroke="black" d="M1206.18,-271.81C1175.5,-260.35 1138.33,-246.47 1106.35,-234.53"/>
<polygon fill="black" stroke="black" points="1107.19,-231.11 1096.6,-230.89 1104.75,-237.67 1107.19,-231.11"/>
</g>
<!-- 10 -->
<g id="node12" class="node">
<title>10</title>
<ellipse fill="orange" stroke="black" cx="1351.54" cy="-206.35" rx="149.81" ry="26.74"/>
<text text-anchor="middle" x="1351.54" y="-210.15" font-family="Times,serif" font-size="14.00">simpl.</text>
<text text-anchor="middle" x="1351.54" y="-195.15" font-family="Times,serif" font-size="14.00">(0.0023156305037255577)</text>
</g>
<!-- 5&#45;&gt;10 -->
<g id="edge11" class="edge">
<title>5&#45;&gt;10</title>
<path fill="none" stroke="black" d="M1293,-269.24C1301.52,-260.23 1311.21,-249.98 1320.22,-240.46"/>
<polygon fill="black" stroke="black" points="1322.93,-242.69 1327.26,-233.02 1317.85,-237.88 1322.93,-242.69"/>
</g>
<!-- 12 -->
<g id="node15" class="node">
<title>12</title>
<ellipse fill="none" stroke="black" cx="1650.54" cy="-206.35" rx="130.63" ry="26.74"/>
<text text-anchor="middle" x="1650.54" y="-210.15" font-family="Times,serif" font-size="14.00">intros.</text>
<text text-anchor="middle" x="1650.54" y="-195.15" font-family="Times,serif" font-size="14.00">(0.9899784343911809)</text>
</g>
<!-- 11&#45;&gt;12 -->
<g id="edge14" class="edge">
<title>11&#45;&gt;12</title>
<path fill="none" stroke="black" d="M1708.38,-269.24C1699.96,-260.23 1690.39,-249.98 1681.49,-240.46"/>
<polygon fill="black" stroke="black" points="1683.91,-237.93 1674.53,-233.02 1678.8,-242.71 1683.91,-237.93"/>
</g>
<!-- 16 -->
<g id="node16" class="node">
<title>16</title>
<ellipse fill="orange" stroke="black" cx="1942.54" cy="-206.35" rx="143.59" ry="26.74"/>
<text text-anchor="middle" x="1942.54" y="-210.15" font-family="Times,serif" font-size="14.00">simpl.</text>
<text text-anchor="middle" x="1942.54" y="-195.15" font-family="Times,serif" font-size="14.00">(0.003163879947884391)</text>
</g>
<!-- 11&#45;&gt;16 -->
<g id="edge15" class="edge">
<title>11&#45;&gt;16</title>
<path fill="none" stroke="black" d="M1789.65,-271.23C1816.49,-260.02 1848.65,-246.58 1876.53,-234.93"/>
<polygon fill="black" stroke="black" points="1877.93,-238.14 1885.81,-231.05 1875.24,-231.68 1877.93,-238.14"/>
</g>
<!-- 17 -->
<g id="node17" class="node">
<title>17</title>
<ellipse fill="none" stroke="black" cx="2253.54" cy="-206.35" rx="149.81" ry="26.74"/>
<text text-anchor="middle" x="2253.54" y="-210.15" font-family="Times,serif" font-size="14.00">unfold isocele.</text>
<text text-anchor="middle" x="2253.54" y="-195.15" font-family="Times,serif" font-size="14.00">(0.0024826332263439576)</text>
</g>
<!-- 11&#45;&gt;17 -->
<g id="edge16" class="edge">
<title>11&#45;&gt;17</title>
<path fill="none" stroke="black" d="M1839.23,-277.12C1925.89,-262.53 2047.93,-241.98 2137.11,-226.96"/>
<polygon fill="black" stroke="black" points="2137.72,-230.41 2147,-225.29 2136.55,-223.5 2137.72,-230.41"/>
</g>
<!-- 23 -->
<g id="node18" class="node">
<title>23</title>
<ellipse fill="orange" stroke="black" cx="2571.54" cy="-206.35" rx="149.81" ry="26.74"/>
<text text-anchor="middle" x="2571.54" y="-210.15" font-family="Times,serif" font-size="14.00">eauto.</text>
<text text-anchor="middle" x="2571.54" y="-195.15" font-family="Times,serif" font-size="14.00">(0.0022233306540213717)</text>
</g>
<!-- 11&#45;&gt;23 -->
<g id="edge17" class="edge">
<title>11&#45;&gt;23</title>
<path fill="none" stroke="black" d="M1836.69,-276.73C1854.93,-273.92 1873.76,-271.28 1891.54,-269.22 2122.11,-242.55 2181.97,-259.89 2412.54,-233.22 2426.99,-231.55 2442.13,-229.49 2457.08,-227.27"/>
<polygon fill="black" stroke="black" points="2458.03,-230.67 2467.39,-225.71 2456.98,-223.74 2458.03,-230.67"/>
</g>
<!-- 3 -->
<g id="node9" class="node">
<title>3</title>
<ellipse fill="orange" stroke="black" cx="143.54" cy="-116.61" rx="143.59" ry="26.74"/>
<text text-anchor="middle" x="143.54" y="-120.41" font-family="Times,serif" font-size="14.00">simpl.</text>
<text text-anchor="middle" x="143.54" y="-105.41" font-family="Times,serif" font-size="14.00">(0.022925530687704608)</text>
</g>
<!-- 2&#45;&gt;3 -->
<g id="edge8" class="edge">
<title>2&#45;&gt;3</title>
<path fill="none" stroke="black" d="M143.54,-179.03C143.54,-171.06 143.54,-162.17 143.54,-153.68"/>
<polygon fill="black" stroke="black" points="147.04,-153.61 143.54,-143.61 140.04,-153.61 147.04,-153.61"/>
</g>
<!-- 7 -->
<g id="node13" class="node">
<title>7</title>
<ellipse fill="none" stroke="black" cx="591.54" cy="-116.61" rx="143.59" ry="26.74"/>
<text text-anchor="middle" x="591.54" y="-120.41" font-family="Times,serif" font-size="14.00">red.</text>
<text text-anchor="middle" x="591.54" y="-105.41" font-family="Times,serif" font-size="14.00">(0.052894962868139675)</text>
</g>
<!-- 6&#45;&gt;7 -->
<g id="edge12" class="edge">
<title>6&#45;&gt;7</title>
<path fill="none" stroke="black" d="M694.33,-180.68C677.73,-170.49 658.32,-158.58 640.87,-147.88"/>
<polygon fill="black" stroke="black" points="642.3,-144.65 631.95,-142.4 638.64,-150.62 642.3,-144.65"/>
</g>
<!-- 8 -->
<g id="node14" class="node">
<title>8</title>
<ellipse fill="orange" stroke="black" cx="896.54" cy="-116.61" rx="143.59" ry="26.74"/>
<text text-anchor="middle" x="896.54" y="-120.41" font-family="Times,serif" font-size="14.00">simpl.</text>
<text text-anchor="middle" x="896.54" y="-105.41" font-family="Times,serif" font-size="14.00">(0.011656709960950445)</text>
</g>
<!-- 6&#45;&gt;8 -->
<g id="edge13" class="edge">
<title>6&#45;&gt;8</title>
<path fill="none" stroke="black" d="M779.67,-180.91C799.08,-170.4 821.93,-158.02 842.26,-147.01"/>
<polygon fill="black" stroke="black" points="843.97,-150.06 851.1,-142.22 840.64,-143.91 843.97,-150.06"/>
</g>
<!-- 13 -->
<g id="node19" class="node">
<title>13</title>
<ellipse fill="none" stroke="black" cx="1354.54" cy="-116.61" rx="143.59" ry="26.74"/>
<text text-anchor="middle" x="1354.54" y="-120.41" font-family="Times,serif" font-size="14.00">red.</text>
<text text-anchor="middle" x="1354.54" y="-105.41" font-family="Times,serif" font-size="14.00">(0.048276017693448185)</text>
</g>
<!-- 12&#45;&gt;13 -->
<g id="edge18" class="edge">
<title>12&#45;&gt;13</title>
<path fill="none" stroke="black" d="M1578.13,-183.89C1535.97,-171.39 1482.61,-155.57 1438.6,-142.52"/>
<polygon fill="black" stroke="black" points="1439.36,-139.1 1428.78,-139.61 1437.37,-145.81 1439.36,-139.1"/>
</g>
<!-- 15 -->
<g id="node20" class="node">
<title>15</title>
<ellipse fill="orange" stroke="black" cx="1659.54" cy="-116.61" rx="143.59" ry="26.74"/>
<text text-anchor="middle" x="1659.54" y="-120.41" font-family="Times,serif" font-size="14.00">simpl.</text>
<text text-anchor="middle" x="1659.54" y="-105.41" font-family="Times,serif" font-size="14.00">(0.010638813981071344)</text>
</g>
<!-- 12&#45;&gt;15 -->
<g id="edge19" class="edge">
<title>12&#45;&gt;15</title>
<path fill="none" stroke="black" d="M1653.24,-179.03C1654.06,-171.06 1654.97,-162.17 1655.84,-153.68"/>
<polygon fill="black" stroke="black" points="1659.34,-153.92 1656.88,-143.61 1652.37,-153.2 1659.34,-153.92"/>
</g>
<!-- 18 -->
<g id="node22" class="node">
<title>18</title>
<ellipse fill="none" stroke="black" cx="1961.54" cy="-116.61" rx="130.63" ry="26.74"/>
<text text-anchor="middle" x="1961.54" y="-120.41" font-family="Times,serif" font-size="14.00">intros.</text>
<text text-anchor="middle" x="1961.54" y="-105.41" font-family="Times,serif" font-size="14.00">(0.9894658074408952)</text>
</g>
<!-- 17&#45;&gt;18 -->
<g id="edge21" class="edge">
<title>17&#45;&gt;18</title>
<path fill="none" stroke="black" d="M2179.1,-182.98C2137.56,-170.5 2085.75,-154.93 2043.11,-142.12"/>
<polygon fill="black" stroke="black" points="2043.91,-138.71 2033.33,-139.18 2041.9,-145.41 2043.91,-138.71"/>
</g>
<!-- 21 -->
<g id="node23" class="node">
<title>21</title>
<ellipse fill="orange" stroke="black" cx="2253.54" cy="-116.61" rx="143.59" ry="26.74"/>
<text text-anchor="middle" x="2253.54" y="-120.41" font-family="Times,serif" font-size="14.00">eauto.</text>
<text text-anchor="middle" x="2253.54" y="-105.41" font-family="Times,serif" font-size="14.00">(0.003052258547434286)</text>
</g>
<!-- 17&#45;&gt;21 -->
<g id="edge22" class="edge">
<title>17&#45;&gt;21</title>
<path fill="none" stroke="black" d="M2253.54,-179.03C2253.54,-171.06 2253.54,-162.17 2253.54,-153.68"/>
<polygon fill="black" stroke="black" points="2257.04,-153.61 2253.54,-143.61 2250.04,-153.61 2257.04,-153.61"/>
</g>
<!-- 22 -->
<g id="node24" class="node">
<title>22</title>
<ellipse fill="orange" stroke="black" cx="2558.54" cy="-116.61" rx="143.59" ry="26.74"/>
<text text-anchor="middle" x="2558.54" y="-120.41" font-family="Times,serif" font-size="14.00">simpl.</text>
<text text-anchor="middle" x="2558.54" y="-105.41" font-family="Times,serif" font-size="14.00">(0.002315648170651653)</text>
</g>
<!-- 17&#45;&gt;22 -->
<g id="edge23" class="edge">
<title>17&#45;&gt;22</title>
<path fill="none" stroke="black" d="M2330.51,-183.21C2373.91,-170.72 2428.24,-155.1 2472.97,-142.23"/>
<polygon fill="black" stroke="black" points="2474.02,-145.57 2482.66,-139.44 2472.08,-138.84 2474.02,-145.57"/>
</g>
<!-- 14 -->
<g id="node21" class="node">
<title>14</title>
<ellipse fill="orange" stroke="black" cx="1354.54" cy="-26.87" rx="143.59" ry="26.74"/>
<text text-anchor="middle" x="1354.54" y="-30.67" font-family="Times,serif" font-size="14.00">simpl.</text>
<text text-anchor="middle" x="1354.54" y="-15.67" font-family="Times,serif" font-size="14.00">(0.019614342189212892)</text>
</g>
<!-- 13&#45;&gt;14 -->
<g id="edge20" class="edge">
<title>13&#45;&gt;14</title>
<path fill="none" stroke="black" d="M1354.54,-89.29C1354.54,-81.32 1354.54,-72.43 1354.54,-63.94"/>
<polygon fill="black" stroke="black" points="1358.04,-63.87 1354.54,-53.87 1351.04,-63.87 1358.04,-63.87"/>
</g>
<!-- 19 -->
<g id="node25" class="node">
<title>19</title>
<ellipse fill="none" stroke="black" cx="1815.54" cy="-26.87" rx="130.63" ry="26.74"/>
<text text-anchor="middle" x="1815.54" y="-30.67" font-family="Times,serif" font-size="14.00">red.</text>
<text text-anchor="middle" x="1815.54" y="-15.67" font-family="Times,serif" font-size="14.00">(0.0382853880804467)</text>
</g>
<!-- 18&#45;&gt;19 -->
<g id="edge24" class="edge">
<title>18&#45;&gt;19</title>
<path fill="none" stroke="black" d="M1920.49,-90.94C1903.31,-80.61 1883.19,-68.52 1865.19,-57.71"/>
<polygon fill="black" stroke="black" points="1866.92,-54.66 1856.54,-52.51 1863.31,-60.66 1866.92,-54.66"/>
</g>
<!-- 20 -->
<g id="node26" class="node">
<title>20</title>
<ellipse fill="orange" stroke="black" cx="2107.54" cy="-26.87" rx="143.59" ry="26.74"/>
<text text-anchor="middle" x="2107.54" y="-30.67" font-family="Times,serif" font-size="14.00">simpl.</text>
<text text-anchor="middle" x="2107.54" y="-15.67" font-family="Times,serif" font-size="14.00">(0.008437129745392187)</text>
</g>
<!-- 18&#45;&gt;20 -->
<g id="edge25" class="edge">
<title>18&#45;&gt;20</title>
<path fill="none" stroke="black" d="M2002.6,-90.94C2019.71,-80.66 2039.73,-68.62 2057.67,-57.84"/>
<polygon fill="black" stroke="black" points="2059.52,-60.81 2066.29,-52.66 2055.91,-54.81 2059.52,-60.81"/>
</g>
</g>
</svg>
