<?xml version="1.0" encoding="UTF-8" standalone="no"?>
<!DOCTYPE svg PUBLIC "-//W3C//DTD SVG 1.1//EN"
 "http://www.w3.org/Graphics/SVG/1.1/DTD/svg11.dtd">
<!-- Generated by graphviz version 2.43.0 (0)
 -->
<!-- Pages: 1 -->
<svg width="1504pt" height="600pt"
 viewBox="0.00 0.00 1504.09 600.18" xmlns="http://www.w3.org/2000/svg" xmlns:xlink="http://www.w3.org/1999/xlink">
<g id="graph0" class="graph" transform="scale(1 1) rotate(0) translate(4 596.18)">
<polygon fill="white" stroke="transparent" points="-4,4 -4,-596.18 1500.09,-596.18 1500.09,4 -4,4"/>
<!-- 0 -->
<g id="node1" class="node">
<title>0</title>
<ellipse fill="none" stroke="black" cx="1196.18" cy="-565.31" rx="142.26" ry="26.74"/>
<text text-anchor="middle" x="1196.18" y="-569.11" font-family="Times,serif" font-size="14.00">construction_isocele_base</text>
<text text-anchor="middle" x="1196.18" y="-554.11" font-family="Times,serif" font-size="14.00">(1.0)</text>
</g>
<!-- 1 -->
<g id="node2" class="node">
<title>1</title>
<ellipse fill="none" stroke="black" cx="1047.18" cy="-475.57" rx="130.63" ry="26.74"/>
<text text-anchor="middle" x="1047.18" y="-479.37" font-family="Times,serif" font-size="14.00">intros.</text>
<text text-anchor="middle" x="1047.18" y="-464.37" font-family="Times,serif" font-size="14.00">(0.9620063680031478)</text>
</g>
<!-- 0&#45;&gt;1 -->
<g id="edge1" class="edge">
<title>0&#45;&gt;1</title>
<path fill="none" stroke="black" d="M1153.88,-539.4C1136.36,-529.08 1115.89,-517.03 1097.59,-506.26"/>
<polygon fill="black" stroke="black" points="1099.2,-503.14 1088.81,-501.09 1095.65,-509.18 1099.2,-503.14"/>
</g>
<!-- 15 -->
<g id="node3" class="node">
<title>15</title>
<ellipse fill="orange" stroke="black" cx="1346.18" cy="-475.57" rx="149.81" ry="26.74"/>
<text text-anchor="middle" x="1346.18" y="-479.37" font-family="Times,serif" font-size="14.00">simpl.</text>
<text text-anchor="middle" x="1346.18" y="-464.37" font-family="Times,serif" font-size="14.00">(0.0005020143432572738)</text>
</g>
<!-- 0&#45;&gt;15 -->
<g id="edge2" class="edge">
<title>0&#45;&gt;15</title>
<path fill="none" stroke="black" d="M1238.36,-539.64C1255.94,-529.36 1276.5,-517.33 1294.94,-506.54"/>
<polygon fill="black" stroke="black" points="1296.93,-509.43 1303.79,-501.36 1293.39,-503.39 1296.93,-509.43"/>
</g>
<!-- 2 -->
<g id="node4" class="node">
<title>2</title>
<ellipse fill="none" stroke="black" cx="748.18" cy="-385.83" rx="137.36" ry="26.74"/>
<text text-anchor="middle" x="748.18" y="-389.63" font-family="Times,serif" font-size="14.00">econstructor.</text>
<text text-anchor="middle" x="748.18" y="-374.63" font-family="Times,serif" font-size="14.00">(0.25140646766806046)</text>
</g>
<!-- 1&#45;&gt;2 -->
<g id="edge3" class="edge">
<title>1&#45;&gt;2</title>
<path fill="none" stroke="black" d="M974.42,-453.22C931.34,-440.58 876.6,-424.51 831.75,-411.35"/>
<polygon fill="black" stroke="black" points="832.63,-407.96 822.05,-408.51 830.66,-414.68 832.63,-407.96"/>
</g>
<!-- 13 -->
<g id="node5" class="node">
<title>13</title>
<ellipse fill="orange" stroke="black" cx="1047.18" cy="-385.83" rx="143.59" ry="26.74"/>
<text text-anchor="middle" x="1047.18" y="-389.63" font-family="Times,serif" font-size="14.00">subst.</text>
<text text-anchor="middle" x="1047.18" y="-374.63" font-family="Times,serif" font-size="14.00">(0.036500334115235976)</text>
</g>
<!-- 1&#45;&gt;13 -->
<g id="edge4" class="edge">
<title>1&#45;&gt;13</title>
<path fill="none" stroke="black" d="M1047.18,-448.25C1047.18,-440.28 1047.18,-431.39 1047.18,-422.9"/>
<polygon fill="black" stroke="black" points="1050.68,-422.83 1047.18,-412.83 1043.68,-422.83 1050.68,-422.83"/>
</g>
<!-- 14 -->
<g id="node6" class="node">
<title>14</title>
<ellipse fill="orange" stroke="black" cx="1352.18" cy="-385.83" rx="143.59" ry="26.74"/>
<text text-anchor="middle" x="1352.18" y="-389.63" font-family="Times,serif" font-size="14.00">simpl.</text>
<text text-anchor="middle" x="1352.18" y="-374.63" font-family="Times,serif" font-size="14.00">(0.027404388962007867)</text>
</g>
<!-- 1&#45;&gt;14 -->
<g id="edge5" class="edge">
<title>1&#45;&gt;14</title>
<path fill="none" stroke="black" d="M1121.01,-453.33C1164.87,-440.71 1220.7,-424.65 1266.5,-411.48"/>
<polygon fill="black" stroke="black" points="1267.47,-414.84 1276.11,-408.71 1265.53,-408.11 1267.47,-414.84"/>
</g>
<!-- 3 -->
<g id="node7" class="node">
<title>3</title>
<ellipse fill="none" stroke="black" cx="599.18" cy="-296.09" rx="130.63" ry="26.74"/>
<text text-anchor="middle" x="599.18" y="-299.89" font-family="Times,serif" font-size="14.00">econstructor.</text>
<text text-anchor="middle" x="599.18" y="-284.89" font-family="Times,serif" font-size="14.00">(0.9437330384394825)</text>
</g>
<!-- 2&#45;&gt;3 -->
<g id="edge6" class="edge">
<title>2&#45;&gt;3</title>
<path fill="none" stroke="black" d="M706.28,-360.16C688.67,-349.79 668.04,-337.64 649.61,-326.79"/>
<polygon fill="black" stroke="black" points="651.16,-323.64 640.77,-321.58 647.61,-329.67 651.16,-323.64"/>
</g>
<!-- 12 -->
<g id="node8" class="node">
<title>12</title>
<ellipse fill="orange" stroke="black" cx="898.18" cy="-296.09" rx="149.81" ry="26.74"/>
<text text-anchor="middle" x="898.18" y="-299.89" font-family="Times,serif" font-size="14.00">simpl.</text>
<text text-anchor="middle" x="898.18" y="-284.89" font-family="Times,serif" font-size="14.00">(0.0005371206497214537)</text>
</g>
<!-- 2&#45;&gt;12 -->
<g id="edge7" class="edge">
<title>2&#45;&gt;12</title>
<path fill="none" stroke="black" d="M790.36,-360.16C807.94,-349.88 828.5,-337.85 846.94,-327.06"/>
<polygon fill="black" stroke="black" points="848.93,-329.95 855.79,-321.88 845.39,-323.91 848.93,-329.95"/>
</g>
<!-- 4 -->
<g id="node9" class="node">
<title>4</title>
<ellipse fill="none" stroke="black" cx="137.18" cy="-206.35" rx="130.63" ry="26.74"/>
<text text-anchor="middle" x="137.18" y="-210.15" font-family="Times,serif" font-size="14.00">split.</text>
<text text-anchor="middle" x="137.18" y="-195.15" font-family="Times,serif" font-size="14.00">(0.9998839036292196)</text>
</g>
<!-- 3&#45;&gt;4 -->
<g id="edge8" class="edge">
<title>3&#45;&gt;4</title>
<path fill="none" stroke="black" d="M505.41,-277.28C428.64,-262.7 320.16,-242.1 240.83,-227.03"/>
<polygon fill="black" stroke="black" points="241.29,-223.56 230.81,-225.13 239.99,-230.44 241.29,-223.56"/>
</g>
<!-- 7 -->
<g id="node10" class="node">
<title>7</title>
<ellipse fill="none" stroke="black" cx="438.18" cy="-206.35" rx="152.06" ry="26.74"/>
<text text-anchor="middle" x="438.18" y="-210.15" font-family="Times,serif" font-size="14.00">intuition.</text>
<text text-anchor="middle" x="438.18" y="-195.15" font-family="Times,serif" font-size="14.00">(2.0649393060401188e&#45;05)</text>
</g>
<!-- 3&#45;&gt;7 -->
<g id="edge9" class="edge">
<title>3&#45;&gt;7</title>
<path fill="none" stroke="black" d="M554.33,-270.65C535.21,-260.23 512.72,-247.97 492.65,-237.04"/>
<polygon fill="black" stroke="black" points="494.08,-233.83 483.62,-232.12 490.73,-239.98 494.08,-233.83"/>
</g>
<!-- 9 -->
<g id="node11" class="node">
<title>9</title>
<ellipse fill="none" stroke="black" cx="760.18" cy="-206.35" rx="152.06" ry="26.74"/>
<text text-anchor="middle" x="760.18" y="-210.15" font-family="Times,serif" font-size="14.00">repeat split.</text>
<text text-anchor="middle" x="760.18" y="-195.15" font-family="Times,serif" font-size="14.00">(1.6422533151104563e&#45;05)</text>
</g>
<!-- 3&#45;&gt;9 -->
<g id="edge10" class="edge">
<title>3&#45;&gt;9</title>
<path fill="none" stroke="black" d="M644.03,-270.65C663.15,-260.23 685.64,-247.97 705.7,-237.04"/>
<polygon fill="black" stroke="black" points="707.63,-239.98 714.73,-232.12 704.28,-233.83 707.63,-239.98"/>
</g>
<!-- 11 -->
<g id="node12" class="node">
<title>11</title>
<ellipse fill="orange" stroke="black" cx="1076.18" cy="-206.35" rx="145.83" ry="26.74"/>
<text text-anchor="middle" x="1076.18" y="-210.15" font-family="Times,serif" font-size="14.00">simpl.</text>
<text text-anchor="middle" x="1076.18" y="-195.15" font-family="Times,serif" font-size="14.00">(8.991762656205345e&#45;06)</text>
</g>
<!-- 3&#45;&gt;11 -->
<g id="edge11" class="edge">
<title>3&#45;&gt;11</title>
<path fill="none" stroke="black" d="M694.06,-277.54C709.16,-274.75 724.59,-271.91 739.18,-269.22 814.72,-255.31 899.79,-239.69 965.56,-227.63"/>
<polygon fill="black" stroke="black" points="966.33,-231.04 975.53,-225.8 965.06,-224.16 966.33,-231.04"/>
</g>
<!-- 5 -->
<g id="node13" class="node">
<title>5</title>
<ellipse fill="blue" stroke="black" cx="137.18" cy="-116.61" rx="130.63" ry="26.74"/>
<text text-anchor="middle" x="137.18" y="-120.41" font-family="Times,serif" font-size="14.00">eauto.</text>
<text text-anchor="middle" x="137.18" y="-105.41" font-family="Times,serif" font-size="14.00">(0.3861654213701677)</text>
</g>
<!-- 4&#45;&gt;5 -->
<g id="edge12" class="edge">
<title>4&#45;&gt;5</title>
<path fill="none" stroke="black" d="M137.18,-179.03C137.18,-171.06 137.18,-162.17 137.18,-153.68"/>
<polygon fill="black" stroke="black" points="140.68,-153.61 137.18,-143.61 133.68,-153.61 140.68,-153.61"/>
</g>
<!-- 8 -->
<g id="node15" class="node">
<title>8</title>
<ellipse fill="orange" stroke="black" cx="438.18" cy="-116.61" rx="143.59" ry="26.74"/>
<text text-anchor="middle" x="438.18" y="-120.41" font-family="Times,serif" font-size="14.00">simpl.</text>
<text text-anchor="middle" x="438.18" y="-105.41" font-family="Times,serif" font-size="14.00">(0.045311413726814215)</text>
</g>
<!-- 7&#45;&gt;8 -->
<g id="edge14" class="edge">
<title>7&#45;&gt;8</title>
<path fill="none" stroke="black" d="M438.18,-179.03C438.18,-171.06 438.18,-162.17 438.18,-153.68"/>
<polygon fill="black" stroke="black" points="441.68,-153.61 438.18,-143.61 434.68,-153.61 441.68,-153.61"/>
</g>
<!-- 10 -->
<g id="node16" class="node">
<title>10</title>
<ellipse fill="blue" stroke="black" cx="760.18" cy="-116.61" rx="137.36" ry="26.74"/>
<text text-anchor="middle" x="760.18" y="-120.41" font-family="Times,serif" font-size="14.00">eauto.</text>
<text text-anchor="middle" x="760.18" y="-105.41" font-family="Times,serif" font-size="14.00">(0.22040440996048666)</text>
</g>
<!-- 9&#45;&gt;10 -->
<g id="edge15" class="edge">
<title>9&#45;&gt;10</title>
<path fill="none" stroke="black" d="M760.18,-179.03C760.18,-171.06 760.18,-162.17 760.18,-153.68"/>
<polygon fill="black" stroke="black" points="763.68,-153.61 760.18,-143.61 756.68,-153.61 763.68,-153.61"/>
</g>
<!-- 6 -->
<g id="node14" class="node">
<title>6</title>
<ellipse fill="orange" stroke="black" cx="137.18" cy="-26.87" rx="137.36" ry="26.74"/>
<text text-anchor="middle" x="137.18" y="-30.67" font-family="Times,serif" font-size="14.00">simpl.</text>
<text text-anchor="middle" x="137.18" y="-15.67" font-family="Times,serif" font-size="14.00">(0.02070094116684233)</text>
</g>
<!-- 5&#45;&gt;6 -->
<g id="edge13" class="edge">
<title>5&#45;&gt;6</title>
<path fill="none" stroke="black" d="M137.18,-89.29C137.18,-81.32 137.18,-72.43 137.18,-63.94"/>
<polygon fill="black" stroke="black" points="140.68,-63.87 137.18,-53.87 133.68,-63.87 140.68,-63.87"/>
</g>
</g>
</svg>
