<?xml version="1.0" encoding="UTF-8" standalone="no"?>
<!DOCTYPE svg PUBLIC "-//W3C//DTD SVG 1.1//EN"
 "http://www.w3.org/Graphics/SVG/1.1/DTD/svg11.dtd">
<!-- Generated by graphviz version 2.43.0 (0)
 -->
<!-- Pages: 1 -->
<svg width="5050pt" height="421pt"
 viewBox="0.00 0.00 5049.72 420.70" xmlns="http://www.w3.org/2000/svg" xmlns:xlink="http://www.w3.org/1999/xlink">
<g id="graph0" class="graph" transform="scale(1 1) rotate(0) translate(4 416.7)">
<polygon fill="white" stroke="transparent" points="-4,4 -4,-416.7 5045.72,-416.7 5045.72,4 -4,4"/>
<!-- 0 -->
<g id="node1" class="node">
<title>0</title>
<ellipse fill="none" stroke="black" cx="2977.18" cy="-385.83" rx="86.03" ry="26.74"/>
<text text-anchor="middle" x="2977.18" y="-389.63" font-family="Times,serif" font-size="14.00">colineaire_sym</text>
<text text-anchor="middle" x="2977.18" y="-374.63" font-family="Times,serif" font-size="14.00">(1.0)</text>
</g>
<!-- 1 -->
<g id="node2" class="node">
<title>1</title>
<ellipse fill="none" stroke="black" cx="1038.18" cy="-296.09" rx="130.63" ry="26.74"/>
<text text-anchor="middle" x="1038.18" y="-299.89" font-family="Times,serif" font-size="14.00">intros.</text>
<text text-anchor="middle" x="1038.18" y="-284.89" font-family="Times,serif" font-size="14.00">(0.9439197254224853)</text>
</g>
<!-- 0&#45;&gt;1 -->
<g id="edge1" class="edge">
<title>0&#45;&gt;1</title>
<path fill="none" stroke="black" d="M2892.3,-380.99C2588.06,-367.22 1550.32,-320.26 1175.02,-303.28"/>
<polygon fill="black" stroke="black" points="1175.08,-299.78 1164.93,-302.83 1174.76,-306.77 1175.08,-299.78"/>
</g>
<!-- 12 -->
<g id="node3" class="node">
<title>12</title>
<ellipse fill="none" stroke="black" cx="2536.18" cy="-296.09" rx="143.59" ry="26.74"/>
<text text-anchor="middle" x="2536.18" y="-299.89" font-family="Times,serif" font-size="14.00">unfold colineaire.</text>
<text text-anchor="middle" x="2536.18" y="-284.89" font-family="Times,serif" font-size="14.00">(0.009627527153029983)</text>
</g>
<!-- 0&#45;&gt;12 -->
<g id="edge2" class="edge">
<title>0&#45;&gt;12</title>
<path fill="none" stroke="black" d="M2905.83,-370.64C2834.39,-356.42 2723.61,-334.38 2641.94,-318.13"/>
<polygon fill="black" stroke="black" points="2642.62,-314.7 2632.13,-316.18 2641.25,-321.56 2642.62,-314.7"/>
</g>
<!-- 26 -->
<g id="node4" class="node">
<title>26</title>
<ellipse fill="orange" stroke="black" cx="2977.18" cy="-296.09" rx="143.59" ry="26.74"/>
<text text-anchor="middle" x="2977.18" y="-299.89" font-family="Times,serif" font-size="14.00">eauto.</text>
<text text-anchor="middle" x="2977.18" y="-284.89" font-family="Times,serif" font-size="14.00">(0.004733498245307435)</text>
</g>
<!-- 0&#45;&gt;26 -->
<g id="edge3" class="edge">
<title>0&#45;&gt;26</title>
<path fill="none" stroke="black" d="M2977.18,-358.51C2977.18,-350.54 2977.18,-341.65 2977.18,-333.16"/>
<polygon fill="black" stroke="black" points="2980.68,-333.09 2977.18,-323.09 2973.68,-333.09 2980.68,-333.09"/>
</g>
<!-- 27 -->
<g id="node5" class="node">
<title>27</title>
<ellipse fill="none" stroke="black" cx="3574.18" cy="-296.09" rx="149.81" ry="26.74"/>
<text text-anchor="middle" x="3574.18" y="-299.89" font-family="Times,serif" font-size="14.00">unfold colineaire.</text>
<text text-anchor="middle" x="3574.18" y="-284.89" font-family="Times,serif" font-size="14.00">(0.0035009654989016734)</text>
</g>
<!-- 0&#45;&gt;27 -->
<g id="edge4" class="edge">
<title>0&#45;&gt;27</title>
<path fill="none" stroke="black" d="M3054,-373.54C3154.47,-358.77 3331.7,-332.73 3451.02,-315.19"/>
<polygon fill="black" stroke="black" points="3451.56,-318.65 3460.94,-313.73 3450.54,-311.72 3451.56,-318.65"/>
</g>
<!-- 41 -->
<g id="node6" class="node">
<title>41</title>
<ellipse fill="orange" stroke="black" cx="3892.18" cy="-296.09" rx="149.81" ry="26.74"/>
<text text-anchor="middle" x="3892.18" y="-299.89" font-family="Times,serif" font-size="14.00">simpl.</text>
<text text-anchor="middle" x="3892.18" y="-284.89" font-family="Times,serif" font-size="14.00">(0.0005445711305014217)</text>
</g>
<!-- 0&#45;&gt;41 -->
<g id="edge5" class="edge">
<title>0&#45;&gt;41</title>
<path fill="none" stroke="black" d="M3061.59,-380.12C3201.51,-371.83 3490.21,-352.62 3733.18,-322.96 3747.39,-321.23 3762.27,-319.15 3776.99,-316.94"/>
<polygon fill="black" stroke="black" points="3777.79,-320.36 3787.15,-315.39 3776.74,-313.44 3777.79,-320.36"/>
</g>
<!-- 2 -->
<g id="node7" class="node">
<title>2</title>
<ellipse fill="none" stroke="black" cx="510.18" cy="-206.35" rx="137.36" ry="26.74"/>
<text text-anchor="middle" x="510.18" y="-210.15" font-family="Times,serif" font-size="14.00">red.</text>
<text text-anchor="middle" x="510.18" y="-195.15" font-family="Times,serif" font-size="14.00">(0.10280444758565362)</text>
</g>
<!-- 1&#45;&gt;2 -->
<g id="edge6" class="edge">
<title>1&#45;&gt;2</title>
<path fill="none" stroke="black" d="M938.87,-278.59C848.94,-263.64 716.57,-241.65 622.75,-226.06"/>
<polygon fill="black" stroke="black" points="623.09,-222.56 612.65,-224.38 621.94,-229.47 623.09,-222.56"/>
</g>
<!-- 7 -->
<g id="node8" class="node">
<title>7</title>
<ellipse fill="orange" stroke="black" cx="882.18" cy="-206.35" rx="143.59" ry="26.74"/>
<text text-anchor="middle" x="882.18" y="-210.15" font-family="Times,serif" font-size="14.00">simpl.</text>
<text text-anchor="middle" x="882.18" y="-195.15" font-family="Times,serif" font-size="14.00">(0.008826479288957741)</text>
</g>
<!-- 1&#45;&gt;7 -->
<g id="edge7" class="edge">
<title>1&#45;&gt;7</title>
<path fill="none" stroke="black" d="M994.72,-270.65C976.12,-260.18 954.22,-247.87 934.72,-236.9"/>
<polygon fill="black" stroke="black" points="936.37,-233.82 925.94,-231.96 932.94,-239.92 936.37,-233.82"/>
</g>
<!-- 8 -->
<g id="node9" class="node">
<title>8</title>
<ellipse fill="none" stroke="black" cx="1193.18" cy="-206.35" rx="149.81" ry="26.74"/>
<text text-anchor="middle" x="1193.18" y="-210.15" font-family="Times,serif" font-size="14.00">unfold colineaire.</text>
<text text-anchor="middle" x="1193.18" y="-195.15" font-family="Times,serif" font-size="14.00">(0.0068253701330835545)</text>
</g>
<!-- 1&#45;&gt;8 -->
<g id="edge8" class="edge">
<title>1&#45;&gt;8</title>
<path fill="none" stroke="black" d="M1081.35,-270.65C1099.68,-260.28 1121.22,-248.08 1140.47,-237.19"/>
<polygon fill="black" stroke="black" points="1142.45,-240.09 1149.43,-232.12 1139,-234 1142.45,-240.09"/>
</g>
<!-- 13 -->
<g id="node17" class="node">
<title>13</title>
<ellipse fill="none" stroke="black" cx="1945.18" cy="-206.35" rx="130.63" ry="26.74"/>
<text text-anchor="middle" x="1945.18" y="-210.15" font-family="Times,serif" font-size="14.00">intros.</text>
<text text-anchor="middle" x="1945.18" y="-195.15" font-family="Times,serif" font-size="14.00">(0.9248087311119478)</text>
</g>
<!-- 12&#45;&gt;13 -->
<g id="edge16" class="edge">
<title>12&#45;&gt;13</title>
<path fill="none" stroke="black" d="M2418.41,-280.54C2327.06,-268.88 2197.36,-251.49 2084.18,-233.22 2072.54,-231.34 2060.37,-229.26 2048.28,-227.11"/>
<polygon fill="black" stroke="black" points="2048.62,-223.61 2038.16,-225.29 2047.38,-230.5 2048.62,-223.61"/>
</g>
<!-- 17 -->
<g id="node18" class="node">
<title>17</title>
<ellipse fill="orange" stroke="black" cx="2237.18" cy="-206.35" rx="143.59" ry="26.74"/>
<text text-anchor="middle" x="2237.18" y="-210.15" font-family="Times,serif" font-size="14.00">simpl.</text>
<text text-anchor="middle" x="2237.18" y="-195.15" font-family="Times,serif" font-size="14.00">(0.062370285598336045)</text>
</g>
<!-- 12&#45;&gt;17 -->
<g id="edge17" class="edge">
<title>12&#45;&gt;17</title>
<path fill="none" stroke="black" d="M2461.11,-273.06C2418.74,-260.63 2365.65,-245.05 2321.8,-232.18"/>
<polygon fill="black" stroke="black" points="2322.6,-228.77 2312.01,-229.31 2320.62,-235.48 2322.6,-228.77"/>
</g>
<!-- 18 -->
<g id="node19" class="node">
<title>18</title>
<ellipse fill="none" stroke="black" cx="2536.18" cy="-206.35" rx="137.36" ry="26.74"/>
<text text-anchor="middle" x="2536.18" y="-210.15" font-family="Times,serif" font-size="14.00">unfold double.</text>
<text text-anchor="middle" x="2536.18" y="-195.15" font-family="Times,serif" font-size="14.00">(0.00355186270398171)</text>
</g>
<!-- 12&#45;&gt;18 -->
<g id="edge18" class="edge">
<title>12&#45;&gt;18</title>
<path fill="none" stroke="black" d="M2536.18,-268.77C2536.18,-260.8 2536.18,-251.91 2536.18,-243.42"/>
<polygon fill="black" stroke="black" points="2539.68,-243.35 2536.18,-233.35 2532.68,-243.35 2539.68,-243.35"/>
</g>
<!-- 22 -->
<g id="node20" class="node">
<title>22</title>
<ellipse fill="none" stroke="black" cx="2847.18" cy="-206.35" rx="156.04" ry="26.74"/>
<text text-anchor="middle" x="2847.18" y="-210.15" font-family="Times,serif" font-size="14.00">unfold double.</text>
<text text-anchor="middle" x="2847.18" y="-195.15" font-family="Times,serif" font-size="14.00">(0.00020564839054285547)</text>
</g>
<!-- 12&#45;&gt;22 -->
<g id="edge19" class="edge">
<title>12&#45;&gt;22</title>
<path fill="none" stroke="black" d="M2613.45,-273.29C2657.45,-260.88 2712.74,-245.28 2758.5,-232.37"/>
<polygon fill="black" stroke="black" points="2759.73,-235.66 2768.41,-229.57 2757.83,-228.92 2759.73,-235.66"/>
</g>
<!-- 28 -->
<g id="node30" class="node">
<title>28</title>
<ellipse fill="none" stroke="black" cx="3428.18" cy="-206.35" rx="130.63" ry="26.74"/>
<text text-anchor="middle" x="3428.18" y="-210.15" font-family="Times,serif" font-size="14.00">intros.</text>
<text text-anchor="middle" x="3428.18" y="-195.15" font-family="Times,serif" font-size="14.00">(0.9248087311119478)</text>
</g>
<!-- 27&#45;&gt;28 -->
<g id="edge29" class="edge">
<title>27&#45;&gt;28</title>
<path fill="none" stroke="black" d="M3532.73,-270.18C3515.63,-259.91 3495.68,-247.91 3477.81,-237.17"/>
<polygon fill="black" stroke="black" points="3479.6,-234.17 3469.22,-232.02 3475.99,-240.17 3479.6,-234.17"/>
</g>
<!-- 32 -->
<g id="node31" class="node">
<title>32</title>
<ellipse fill="orange" stroke="black" cx="3720.18" cy="-206.35" rx="143.59" ry="26.74"/>
<text text-anchor="middle" x="3720.18" y="-210.15" font-family="Times,serif" font-size="14.00">simpl.</text>
<text text-anchor="middle" x="3720.18" y="-195.15" font-family="Times,serif" font-size="14.00">(0.062370285598336045)</text>
</g>
<!-- 27&#45;&gt;32 -->
<g id="edge30" class="edge">
<title>27&#45;&gt;32</title>
<path fill="none" stroke="black" d="M3615.63,-270.18C3632.5,-260.04 3652.15,-248.23 3669.84,-237.6"/>
<polygon fill="black" stroke="black" points="3672.11,-240.32 3678.88,-232.17 3668.51,-234.32 3672.11,-240.32"/>
</g>
<!-- 33 -->
<g id="node32" class="node">
<title>33</title>
<ellipse fill="none" stroke="black" cx="4022.18" cy="-206.35" rx="137.36" ry="26.74"/>
<text text-anchor="middle" x="4022.18" y="-210.15" font-family="Times,serif" font-size="14.00">unfold double.</text>
<text text-anchor="middle" x="4022.18" y="-195.15" font-family="Times,serif" font-size="14.00">(0.00355186270398171)</text>
</g>
<!-- 27&#45;&gt;33 -->
<g id="edge31" class="edge">
<title>27&#45;&gt;33</title>
<path fill="none" stroke="black" d="M3672.77,-275.78C3745.23,-261.59 3843.53,-242.34 3917.41,-227.87"/>
<polygon fill="black" stroke="black" points="3918.52,-231.22 3927.66,-225.86 3917.18,-224.35 3918.52,-231.22"/>
</g>
<!-- 37 -->
<g id="node33" class="node">
<title>37</title>
<ellipse fill="none" stroke="black" cx="4606.18" cy="-206.35" rx="156.04" ry="26.74"/>
<text text-anchor="middle" x="4606.18" y="-210.15" font-family="Times,serif" font-size="14.00">unfold double.</text>
<text text-anchor="middle" x="4606.18" y="-195.15" font-family="Times,serif" font-size="14.00">(0.00020564839054285547)</text>
</g>
<!-- 27&#45;&gt;37 -->
<g id="edge32" class="edge">
<title>27&#45;&gt;37</title>
<path fill="none" stroke="black" d="M3678.33,-276.76C3696.57,-273.95 3715.4,-271.29 3733.18,-269.22 3867.63,-253.55 4237.8,-229.72 4450.46,-216.68"/>
<polygon fill="black" stroke="black" points="4450.69,-220.18 4460.46,-216.07 4450.27,-213.19 4450.69,-220.18"/>
</g>
<!-- 3 -->
<g id="node10" class="node">
<title>3</title>
<ellipse fill="orange" stroke="black" cx="137.18" cy="-116.61" rx="137.36" ry="26.74"/>
<text text-anchor="middle" x="137.18" y="-120.41" font-family="Times,serif" font-size="14.00">simpl.</text>
<text text-anchor="middle" x="137.18" y="-105.41" font-family="Times,serif" font-size="14.00">(0.08624029162961518)</text>
</g>
<!-- 2&#45;&gt;3 -->
<g id="edge9" class="edge">
<title>2&#45;&gt;3</title>
<path fill="none" stroke="black" d="M424.6,-185.22C367.25,-171.73 291.68,-153.95 232.42,-140.01"/>
<polygon fill="black" stroke="black" points="233.21,-136.6 222.68,-137.72 231.61,-143.42 233.21,-136.6"/>
</g>
<!-- 4 -->
<g id="node11" class="node">
<title>4</title>
<ellipse fill="orange" stroke="black" cx="436.18" cy="-116.61" rx="143.59" ry="26.74"/>
<text text-anchor="middle" x="436.18" y="-120.41" font-family="Times,serif" font-size="14.00">subst.</text>
<text text-anchor="middle" x="436.18" y="-105.41" font-family="Times,serif" font-size="14.00">(0.019474187855112398)</text>
</g>
<!-- 2&#45;&gt;4 -->
<g id="edge10" class="edge">
<title>2&#45;&gt;4</title>
<path fill="none" stroke="black" d="M488.38,-179.5C480.85,-170.57 472.31,-160.45 464.34,-151"/>
<polygon fill="black" stroke="black" points="466.95,-148.66 457.83,-143.28 461.6,-153.18 466.95,-148.66"/>
</g>
<!-- 5 -->
<g id="node12" class="node">
<title>5</title>
<ellipse fill="none" stroke="black" cx="741.18" cy="-116.61" rx="143.59" ry="26.74"/>
<text text-anchor="middle" x="741.18" y="-120.41" font-family="Times,serif" font-size="14.00">unfold double.</text>
<text text-anchor="middle" x="741.18" y="-105.41" font-family="Times,serif" font-size="14.00">(0.008035117941916196)</text>
</g>
<!-- 2&#45;&gt;5 -->
<g id="edge11" class="edge">
<title>2&#45;&gt;5</title>
<path fill="none" stroke="black" d="M571.17,-182.18C601.58,-170.63 638.52,-156.6 670.2,-144.57"/>
<polygon fill="black" stroke="black" points="671.74,-147.73 679.84,-140.91 669.25,-141.19 671.74,-147.73"/>
</g>
<!-- 9 -->
<g id="node14" class="node">
<title>9</title>
<ellipse fill="orange" stroke="black" cx="1040.18" cy="-116.61" rx="137.36" ry="26.74"/>
<text text-anchor="middle" x="1040.18" y="-120.41" font-family="Times,serif" font-size="14.00">simpl.</text>
<text text-anchor="middle" x="1040.18" y="-105.41" font-family="Times,serif" font-size="14.00">(0.09958650640253984)</text>
</g>
<!-- 8&#45;&gt;9 -->
<g id="edge13" class="edge">
<title>8&#45;&gt;9</title>
<path fill="none" stroke="black" d="M1149.74,-180.44C1131.75,-170.12 1110.72,-158.06 1091.93,-147.29"/>
<polygon fill="black" stroke="black" points="1093.61,-144.22 1083.19,-142.28 1090.13,-150.29 1093.61,-144.22"/>
</g>
<!-- 10 -->
<g id="node15" class="node">
<title>10</title>
<ellipse fill="none" stroke="black" cx="1339.18" cy="-116.61" rx="143.59" ry="26.74"/>
<text text-anchor="middle" x="1339.18" y="-120.41" font-family="Times,serif" font-size="14.00">unfold double.</text>
<text text-anchor="middle" x="1339.18" y="-105.41" font-family="Times,serif" font-size="14.00">(0.027478070541548005)</text>
</g>
<!-- 8&#45;&gt;10 -->
<g id="edge14" class="edge">
<title>8&#45;&gt;10</title>
<path fill="none" stroke="black" d="M1234.63,-180.44C1251.5,-170.3 1271.15,-158.49 1288.84,-147.86"/>
<polygon fill="black" stroke="black" points="1291.11,-150.58 1297.88,-142.43 1287.51,-144.58 1291.11,-150.58"/>
</g>
<!-- 6 -->
<g id="node13" class="node">
<title>6</title>
<ellipse fill="orange" stroke="black" cx="741.18" cy="-26.87" rx="143.59" ry="26.74"/>
<text text-anchor="middle" x="741.18" y="-30.67" font-family="Times,serif" font-size="14.00">simpl.</text>
<text text-anchor="middle" x="741.18" y="-15.67" font-family="Times,serif" font-size="14.00">(0.056298313914358696)</text>
</g>
<!-- 5&#45;&gt;6 -->
<g id="edge12" class="edge">
<title>5&#45;&gt;6</title>
<path fill="none" stroke="black" d="M741.18,-89.29C741.18,-81.32 741.18,-72.43 741.18,-63.94"/>
<polygon fill="black" stroke="black" points="744.68,-63.87 741.18,-53.87 737.68,-63.87 744.68,-63.87"/>
</g>
<!-- 11 -->
<g id="node16" class="node">
<title>11</title>
<ellipse fill="orange" stroke="black" cx="1339.18" cy="-26.87" rx="143.59" ry="26.74"/>
<text text-anchor="middle" x="1339.18" y="-30.67" font-family="Times,serif" font-size="14.00">simpl.</text>
<text text-anchor="middle" x="1339.18" y="-15.67" font-family="Times,serif" font-size="14.00">(0.056298313914358696)</text>
</g>
<!-- 10&#45;&gt;11 -->
<g id="edge15" class="edge">
<title>10&#45;&gt;11</title>
<path fill="none" stroke="black" d="M1339.18,-89.29C1339.18,-81.32 1339.18,-72.43 1339.18,-63.94"/>
<polygon fill="black" stroke="black" points="1342.68,-63.87 1339.18,-53.87 1335.68,-63.87 1342.68,-63.87"/>
</g>
<!-- 14 -->
<g id="node21" class="node">
<title>14</title>
<ellipse fill="orange" stroke="black" cx="1644.18" cy="-116.61" rx="143.59" ry="26.74"/>
<text text-anchor="middle" x="1644.18" y="-120.41" font-family="Times,serif" font-size="14.00">simpl.</text>
<text text-anchor="middle" x="1644.18" y="-105.41" font-family="Times,serif" font-size="14.00">(0.029810975247265392)</text>
</g>
<!-- 13&#45;&gt;14 -->
<g id="edge20" class="edge">
<title>13&#45;&gt;14</title>
<path fill="none" stroke="black" d="M1871.93,-184C1828.81,-171.43 1774.07,-155.47 1729.07,-142.36"/>
<polygon fill="black" stroke="black" points="1729.91,-138.95 1719.33,-139.52 1727.95,-145.67 1729.91,-138.95"/>
</g>
<!-- 15 -->
<g id="node22" class="node">
<title>15</title>
<ellipse fill="none" stroke="black" cx="1949.18" cy="-116.61" rx="143.59" ry="26.74"/>
<text text-anchor="middle" x="1949.18" y="-120.41" font-family="Times,serif" font-size="14.00">unfold double.</text>
<text text-anchor="middle" x="1949.18" y="-105.41" font-family="Times,serif" font-size="14.00">(0.005295814286665912)</text>
</g>
<!-- 13&#45;&gt;15 -->
<g id="edge21" class="edge">
<title>13&#45;&gt;15</title>
<path fill="none" stroke="black" d="M1946.38,-179.03C1946.74,-171.06 1947.15,-162.17 1947.53,-153.68"/>
<polygon fill="black" stroke="black" points="1951.03,-153.76 1947.99,-143.61 1944.04,-153.44 1951.03,-153.76"/>
</g>
<!-- 19 -->
<g id="node24" class="node">
<title>19</title>
<ellipse fill="none" stroke="black" cx="2244.18" cy="-116.61" rx="130.63" ry="26.74"/>
<text text-anchor="middle" x="2244.18" y="-120.41" font-family="Times,serif" font-size="14.00">intros.</text>
<text text-anchor="middle" x="2244.18" y="-105.41" font-family="Times,serif" font-size="14.00">(0.9783164899843582)</text>
</g>
<!-- 18&#45;&gt;19 -->
<g id="edge23" class="edge">
<title>18&#45;&gt;19</title>
<path fill="none" stroke="black" d="M2463.25,-183.44C2421.4,-170.86 2368.75,-155.04 2325.56,-142.06"/>
<polygon fill="black" stroke="black" points="2326.51,-138.7 2315.93,-139.17 2324.5,-145.4 2326.51,-138.7"/>
</g>
<!-- 21 -->
<g id="node25" class="node">
<title>21</title>
<ellipse fill="orange" stroke="black" cx="2536.18" cy="-116.61" rx="143.59" ry="26.74"/>
<text text-anchor="middle" x="2536.18" y="-120.41" font-family="Times,serif" font-size="14.00">simpl.</text>
<text text-anchor="middle" x="2536.18" y="-105.41" font-family="Times,serif" font-size="14.00">(0.008926695547897412)</text>
</g>
<!-- 18&#45;&gt;21 -->
<g id="edge24" class="edge">
<title>18&#45;&gt;21</title>
<path fill="none" stroke="black" d="M2536.18,-179.03C2536.18,-171.06 2536.18,-162.17 2536.18,-153.68"/>
<polygon fill="black" stroke="black" points="2539.68,-153.61 2536.18,-143.61 2532.68,-153.61 2539.68,-153.61"/>
</g>
<!-- 23 -->
<g id="node27" class="node">
<title>23</title>
<ellipse fill="none" stroke="black" cx="2828.18" cy="-116.61" rx="130.63" ry="26.74"/>
<text text-anchor="middle" x="2828.18" y="-120.41" font-family="Times,serif" font-size="14.00">intros.</text>
<text text-anchor="middle" x="2828.18" y="-105.41" font-family="Times,serif" font-size="14.00">(0.9783164899843582)</text>
</g>
<!-- 22&#45;&gt;23 -->
<g id="edge26" class="edge">
<title>22&#45;&gt;23</title>
<path fill="none" stroke="black" d="M2841.48,-179.03C2839.73,-170.97 2837.79,-161.97 2835.93,-153.4"/>
<polygon fill="black" stroke="black" points="2839.35,-152.65 2833.81,-143.61 2832.51,-154.13 2839.35,-152.65"/>
</g>
<!-- 25 -->
<g id="node28" class="node">
<title>25</title>
<ellipse fill="orange" stroke="black" cx="3120.18" cy="-116.61" rx="143.59" ry="26.74"/>
<text text-anchor="middle" x="3120.18" y="-120.41" font-family="Times,serif" font-size="14.00">simpl.</text>
<text text-anchor="middle" x="3120.18" y="-105.41" font-family="Times,serif" font-size="14.00">(0.008926695547897412)</text>
</g>
<!-- 22&#45;&gt;25 -->
<g id="edge27" class="edge">
<title>22&#45;&gt;25</title>
<path fill="none" stroke="black" d="M2918.55,-182.41C2955.98,-170.38 3001.94,-155.61 3040.53,-143.21"/>
<polygon fill="black" stroke="black" points="3041.72,-146.5 3050.17,-140.11 3039.58,-139.84 3041.72,-146.5"/>
</g>
<!-- 16 -->
<g id="node23" class="node">
<title>16</title>
<ellipse fill="orange" stroke="black" cx="1944.18" cy="-26.87" rx="143.59" ry="26.74"/>
<text text-anchor="middle" x="1944.18" y="-30.67" font-family="Times,serif" font-size="14.00">simpl.</text>
<text text-anchor="middle" x="1944.18" y="-15.67" font-family="Times,serif" font-size="14.00">(0.045459907222538724)</text>
</g>
<!-- 15&#45;&gt;16 -->
<g id="edge22" class="edge">
<title>15&#45;&gt;16</title>
<path fill="none" stroke="black" d="M1947.68,-89.29C1947.22,-81.32 1946.72,-72.43 1946.23,-63.94"/>
<polygon fill="black" stroke="black" points="1949.72,-63.66 1945.66,-53.87 1942.74,-64.06 1949.72,-63.66"/>
</g>
<!-- 20 -->
<g id="node26" class="node">
<title>20</title>
<ellipse fill="orange" stroke="black" cx="2249.18" cy="-26.87" rx="143.59" ry="26.74"/>
<text text-anchor="middle" x="2249.18" y="-30.67" font-family="Times,serif" font-size="14.00">simpl.</text>
<text text-anchor="middle" x="2249.18" y="-15.67" font-family="Times,serif" font-size="14.00">(0.020697368181205905)</text>
</g>
<!-- 19&#45;&gt;20 -->
<g id="edge25" class="edge">
<title>19&#45;&gt;20</title>
<path fill="none" stroke="black" d="M2245.68,-89.29C2246.13,-81.32 2246.64,-72.43 2247.12,-63.94"/>
<polygon fill="black" stroke="black" points="2250.62,-64.06 2247.7,-53.87 2243.63,-63.66 2250.62,-64.06"/>
</g>
<!-- 24 -->
<g id="node29" class="node">
<title>24</title>
<ellipse fill="orange" stroke="black" cx="2828.18" cy="-26.87" rx="143.59" ry="26.74"/>
<text text-anchor="middle" x="2828.18" y="-30.67" font-family="Times,serif" font-size="14.00">simpl.</text>
<text text-anchor="middle" x="2828.18" y="-15.67" font-family="Times,serif" font-size="14.00">(0.020697368181205905)</text>
</g>
<!-- 23&#45;&gt;24 -->
<g id="edge28" class="edge">
<title>23&#45;&gt;24</title>
<path fill="none" stroke="black" d="M2828.18,-89.29C2828.18,-81.32 2828.18,-72.43 2828.18,-63.94"/>
<polygon fill="black" stroke="black" points="2831.68,-63.87 2828.18,-53.87 2824.68,-63.87 2831.68,-63.87"/>
</g>
<!-- 29 -->
<g id="node34" class="node">
<title>29</title>
<ellipse fill="orange" stroke="black" cx="3425.18" cy="-116.61" rx="143.59" ry="26.74"/>
<text text-anchor="middle" x="3425.18" y="-120.41" font-family="Times,serif" font-size="14.00">simpl.</text>
<text text-anchor="middle" x="3425.18" y="-105.41" font-family="Times,serif" font-size="14.00">(0.029810975247265392)</text>
</g>
<!-- 28&#45;&gt;29 -->
<g id="edge33" class="edge">
<title>28&#45;&gt;29</title>
<path fill="none" stroke="black" d="M3427.28,-179.03C3427.01,-171.06 3426.7,-162.17 3426.41,-153.68"/>
<polygon fill="black" stroke="black" points="3429.91,-153.49 3426.07,-143.61 3422.91,-153.73 3429.91,-153.49"/>
</g>
<!-- 30 -->
<g id="node35" class="node">
<title>30</title>
<ellipse fill="none" stroke="black" cx="3730.18" cy="-116.61" rx="143.59" ry="26.74"/>
<text text-anchor="middle" x="3730.18" y="-120.41" font-family="Times,serif" font-size="14.00">unfold double.</text>
<text text-anchor="middle" x="3730.18" y="-105.41" font-family="Times,serif" font-size="14.00">(0.005295814286665912)</text>
</g>
<!-- 28&#45;&gt;30 -->
<g id="edge34" class="edge">
<title>28&#45;&gt;30</title>
<path fill="none" stroke="black" d="M3501.67,-184C3544.94,-171.43 3599.85,-155.47 3645.01,-142.36"/>
<polygon fill="black" stroke="black" points="3646.15,-145.67 3654.78,-139.52 3644.2,-138.94 3646.15,-145.67"/>
</g>
<!-- 34 -->
<g id="node37" class="node">
<title>34</title>
<ellipse fill="none" stroke="black" cx="4022.18" cy="-116.61" rx="130.63" ry="26.74"/>
<text text-anchor="middle" x="4022.18" y="-120.41" font-family="Times,serif" font-size="14.00">intros.</text>
<text text-anchor="middle" x="4022.18" y="-105.41" font-family="Times,serif" font-size="14.00">(0.9783164899843582)</text>
</g>
<!-- 33&#45;&gt;34 -->
<g id="edge36" class="edge">
<title>33&#45;&gt;34</title>
<path fill="none" stroke="black" d="M4022.18,-179.03C4022.18,-171.06 4022.18,-162.17 4022.18,-153.68"/>
<polygon fill="black" stroke="black" points="4025.68,-153.61 4022.18,-143.61 4018.68,-153.61 4025.68,-153.61"/>
</g>
<!-- 36 -->
<g id="node38" class="node">
<title>36</title>
<ellipse fill="orange" stroke="black" cx="4314.18" cy="-116.61" rx="143.59" ry="26.74"/>
<text text-anchor="middle" x="4314.18" y="-120.41" font-family="Times,serif" font-size="14.00">simpl.</text>
<text text-anchor="middle" x="4314.18" y="-105.41" font-family="Times,serif" font-size="14.00">(0.008926695547897412)</text>
</g>
<!-- 33&#45;&gt;36 -->
<g id="edge37" class="edge">
<title>33&#45;&gt;36</title>
<path fill="none" stroke="black" d="M4095.11,-183.44C4136.33,-171.05 4188.01,-155.52 4230.82,-142.66"/>
<polygon fill="black" stroke="black" points="4232.09,-145.93 4240.66,-139.7 4230.07,-139.23 4232.09,-145.93"/>
</g>
<!-- 38 -->
<g id="node40" class="node">
<title>38</title>
<ellipse fill="none" stroke="black" cx="4606.18" cy="-116.61" rx="130.63" ry="26.74"/>
<text text-anchor="middle" x="4606.18" y="-120.41" font-family="Times,serif" font-size="14.00">intros.</text>
<text text-anchor="middle" x="4606.18" y="-105.41" font-family="Times,serif" font-size="14.00">(0.9783164899843582)</text>
</g>
<!-- 37&#45;&gt;38 -->
<g id="edge39" class="edge">
<title>37&#45;&gt;38</title>
<path fill="none" stroke="black" d="M4606.18,-179.03C4606.18,-171.06 4606.18,-162.17 4606.18,-153.68"/>
<polygon fill="black" stroke="black" points="4609.68,-153.61 4606.18,-143.61 4602.68,-153.61 4609.68,-153.61"/>
</g>
<!-- 40 -->
<g id="node41" class="node">
<title>40</title>
<ellipse fill="orange" stroke="black" cx="4898.18" cy="-116.61" rx="143.59" ry="26.74"/>
<text text-anchor="middle" x="4898.18" y="-120.41" font-family="Times,serif" font-size="14.00">simpl.</text>
<text text-anchor="middle" x="4898.18" y="-105.41" font-family="Times,serif" font-size="14.00">(0.008926695547897412)</text>
</g>
<!-- 37&#45;&gt;40 -->
<g id="edge40" class="edge">
<title>37&#45;&gt;40</title>
<path fill="none" stroke="black" d="M4681.38,-182.76C4722.21,-170.48 4772.8,-155.28 4814.84,-142.65"/>
<polygon fill="black" stroke="black" points="4815.93,-145.98 4824.5,-139.75 4813.91,-139.28 4815.93,-145.98"/>
</g>
<!-- 31 -->
<g id="node36" class="node">
<title>31</title>
<ellipse fill="orange" stroke="black" cx="3723.18" cy="-26.87" rx="143.59" ry="26.74"/>
<text text-anchor="middle" x="3723.18" y="-30.67" font-family="Times,serif" font-size="14.00">simpl.</text>
<text text-anchor="middle" x="3723.18" y="-15.67" font-family="Times,serif" font-size="14.00">(0.045459907222538724)</text>
</g>
<!-- 30&#45;&gt;31 -->
<g id="edge35" class="edge">
<title>30&#45;&gt;31</title>
<path fill="none" stroke="black" d="M3728.08,-89.29C3727.44,-81.32 3726.73,-72.43 3726.06,-63.94"/>
<polygon fill="black" stroke="black" points="3729.54,-63.56 3725.25,-53.87 3722.56,-64.12 3729.54,-63.56"/>
</g>
<!-- 35 -->
<g id="node39" class="node">
<title>35</title>
<ellipse fill="orange" stroke="black" cx="4028.18" cy="-26.87" rx="143.59" ry="26.74"/>
<text text-anchor="middle" x="4028.18" y="-30.67" font-family="Times,serif" font-size="14.00">simpl.</text>
<text text-anchor="middle" x="4028.18" y="-15.67" font-family="Times,serif" font-size="14.00">(0.020697368181205905)</text>
</g>
<!-- 34&#45;&gt;35 -->
<g id="edge38" class="edge">
<title>34&#45;&gt;35</title>
<path fill="none" stroke="black" d="M4023.98,-89.29C4024.52,-81.32 4025.13,-72.43 4025.71,-63.94"/>
<polygon fill="black" stroke="black" points="4029.21,-64.09 4026.4,-53.87 4022.23,-63.61 4029.21,-64.09"/>
</g>
<!-- 39 -->
<g id="node42" class="node">
<title>39</title>
<ellipse fill="orange" stroke="black" cx="4606.18" cy="-26.87" rx="143.59" ry="26.74"/>
<text text-anchor="middle" x="4606.18" y="-30.67" font-family="Times,serif" font-size="14.00">simpl.</text>
<text text-anchor="middle" x="4606.18" y="-15.67" font-family="Times,serif" font-size="14.00">(0.020697368181205905)</text>
</g>
<!-- 38&#45;&gt;39 -->
<g id="edge41" class="edge">
<title>38&#45;&gt;39</title>
<path fill="none" stroke="black" d="M4606.18,-89.29C4606.18,-81.32 4606.18,-72.43 4606.18,-63.94"/>
<polygon fill="black" stroke="black" points="4609.68,-63.87 4606.18,-53.87 4602.68,-63.87 4609.68,-63.87"/>
</g>
</g>
</svg>
