<?xml version="1.0" encoding="UTF-8" standalone="no"?>
<!DOCTYPE svg PUBLIC "-//W3C//DTD SVG 1.1//EN"
 "http://www.w3.org/Graphics/SVG/1.1/DTD/svg11.dtd">
<!-- Generated by graphviz version 2.43.0 (0)
 -->
<!-- Pages: 1 -->
<svg width="588pt" height="151pt"
 viewBox="0.00 0.00 587.72 151.48" xmlns="http://www.w3.org/2000/svg" xmlns:xlink="http://www.w3.org/1999/xlink">
<g id="graph0" class="graph" transform="scale(1 1) rotate(0) translate(4 147.48)">
<polygon fill="white" stroke="transparent" points="-4,4 -4,-147.48 583.72,-147.48 583.72,4 -4,4"/>
<!-- 0 -->
<g id="node1" class="node">
<title>0</title>
<ellipse fill="none" stroke="black" cx="279.81" cy="-116.61" rx="52.15" ry="26.74"/>
<text text-anchor="middle" x="279.81" y="-120.41" font-family="Times,serif" font-size="14.00">regulier</text>
<text text-anchor="middle" x="279.81" y="-105.41" font-family="Times,serif" font-size="14.00">(1.0)</text>
</g>
<!-- 1 -->
<g id="node2" class="node">
<title>1</title>
<ellipse fill="none" stroke="black" cx="130.81" cy="-26.87" rx="130.63" ry="26.74"/>
<text text-anchor="middle" x="130.81" y="-30.67" font-family="Times,serif" font-size="14.00">intros.</text>
<text text-anchor="middle" x="130.81" y="-15.67" font-family="Times,serif" font-size="14.00">(0.9578261624534263)</text>
</g>
<!-- 0&#45;&gt;1 -->
<g id="edge1" class="edge">
<title>0&#45;&gt;1</title>
<path fill="none" stroke="black" d="M246.38,-95.92C227.15,-84.6 202.61,-70.15 181.09,-57.48"/>
<polygon fill="black" stroke="black" points="182.79,-54.41 172.4,-52.36 179.24,-60.45 182.79,-54.41"/>
</g>
<!-- 2 -->
<g id="node3" class="node">
<title>2</title>
<ellipse fill="orange" stroke="black" cx="429.81" cy="-26.87" rx="149.81" ry="26.74"/>
<text text-anchor="middle" x="429.81" y="-30.67" font-family="Times,serif" font-size="14.00">eauto.</text>
<text text-anchor="middle" x="429.81" y="-15.67" font-family="Times,serif" font-size="14.00">(0.0015104905747676935)</text>
</g>
<!-- 0&#45;&gt;2 -->
<g id="edge2" class="edge">
<title>0&#45;&gt;2</title>
<path fill="none" stroke="black" d="M313.48,-95.92C332.68,-84.68 357.15,-70.37 378.69,-57.78"/>
<polygon fill="black" stroke="black" points="380.54,-60.75 387.4,-52.68 377,-54.71 380.54,-60.75"/>
</g>
</g>
</svg>
