<?xml version="1.0" encoding="UTF-8" standalone="no"?>
<!DOCTYPE svg PUBLIC "-//W3C//DTD SVG 1.1//EN"
 "http://www.w3.org/Graphics/SVG/1.1/DTD/svg11.dtd">
<!-- Generated by graphviz version 2.43.0 (0)
 -->
<!-- Pages: 1 -->
<svg width="2425pt" height="331pt"
 viewBox="0.00 0.00 2425.45 330.96" xmlns="http://www.w3.org/2000/svg" xmlns:xlink="http://www.w3.org/1999/xlink">
<g id="graph0" class="graph" transform="scale(1 1) rotate(0) translate(4 326.96)">
<polygon fill="white" stroke="transparent" points="-4,4 -4,-326.96 2421.45,-326.96 2421.45,4 -4,4"/>
<!-- 0 -->
<g id="node1" class="node">
<title>0</title>
<ellipse fill="none" stroke="black" cx="1494.54" cy="-296.09" rx="101.65" ry="26.74"/>
<text text-anchor="middle" x="1494.54" y="-299.89" font-family="Times,serif" font-size="14.00">triangle_diametre</text>
<text text-anchor="middle" x="1494.54" y="-284.89" font-family="Times,serif" font-size="14.00">(1.0)</text>
</g>
<!-- 1 -->
<g id="node2" class="node">
<title>1</title>
<ellipse fill="none" stroke="black" cx="442.54" cy="-206.35" rx="130.63" ry="26.74"/>
<text text-anchor="middle" x="442.54" y="-210.15" font-family="Times,serif" font-size="14.00">intros.</text>
<text text-anchor="middle" x="442.54" y="-195.15" font-family="Times,serif" font-size="14.00">(0.9380042908227483)</text>
</g>
<!-- 0&#45;&gt;1 -->
<g id="edge1" class="edge">
<title>0&#45;&gt;1</title>
<path fill="none" stroke="black" d="M1398.4,-287.07C1208.79,-271.26 786.52,-236.04 572.4,-218.18"/>
<polygon fill="black" stroke="black" points="572.62,-214.69 562.36,-217.34 572.04,-221.66 572.62,-214.69"/>
</g>
<!-- 5 -->
<g id="node3" class="node">
<title>5</title>
<ellipse fill="none" stroke="black" cx="1186.54" cy="-206.35" rx="143.59" ry="26.74"/>
<text text-anchor="middle" x="1186.54" y="-210.15" font-family="Times,serif" font-size="14.00">unfold isocele.</text>
<text text-anchor="middle" x="1186.54" y="-195.15" font-family="Times,serif" font-size="14.00">(0.009677881321388249)</text>
</g>
<!-- 0&#45;&gt;5 -->
<g id="edge2" class="edge">
<title>0&#45;&gt;5</title>
<path fill="none" stroke="black" d="M1426.95,-275.84C1381.64,-262.93 1321.58,-245.82 1272.82,-231.93"/>
<polygon fill="black" stroke="black" points="1273.49,-228.48 1262.91,-229.11 1271.57,-235.21 1273.49,-228.48"/>
</g>
<!-- 11 -->
<g id="node4" class="node">
<title>11</title>
<ellipse fill="none" stroke="black" cx="1650.54" cy="-206.35" rx="149.81" ry="26.74"/>
<text text-anchor="middle" x="1650.54" y="-210.15" font-family="Times,serif" font-size="14.00">unfold isocele.</text>
<text text-anchor="middle" x="1650.54" y="-195.15" font-family="Times,serif" font-size="14.00">(0.0037797862948543647)</text>
</g>
<!-- 0&#45;&gt;11 -->
<g id="edge3" class="edge">
<title>0&#45;&gt;11</title>
<path fill="none" stroke="black" d="M1536.35,-271.58C1555.13,-261.01 1577.51,-248.42 1597.46,-237.2"/>
<polygon fill="black" stroke="black" points="1599.44,-240.11 1606.44,-232.16 1596.01,-234.01 1599.44,-240.11"/>
</g>
<!-- 17 -->
<g id="node5" class="node">
<title>17</title>
<ellipse fill="orange" stroke="black" cx="1961.54" cy="-206.35" rx="143.59" ry="26.74"/>
<text text-anchor="middle" x="1961.54" y="-210.15" font-family="Times,serif" font-size="14.00">simpl.</text>
<text text-anchor="middle" x="1961.54" y="-195.15" font-family="Times,serif" font-size="14.00">(0.003538823496281227)</text>
</g>
<!-- 0&#45;&gt;17 -->
<g id="edge4" class="edge">
<title>0&#45;&gt;17</title>
<path fill="none" stroke="black" d="M1575.89,-279.81C1652.68,-265.38 1768.37,-243.64 1853,-227.74"/>
<polygon fill="black" stroke="black" points="1853.72,-231.17 1862.91,-225.88 1852.43,-224.29 1853.72,-231.17"/>
</g>
<!-- 2 -->
<g id="node6" class="node">
<title>2</title>
<ellipse fill="none" stroke="black" cx="143.54" cy="-116.61" rx="137.36" ry="26.74"/>
<text text-anchor="middle" x="143.54" y="-120.41" font-family="Times,serif" font-size="14.00">red.</text>
<text text-anchor="middle" x="143.54" y="-105.41" font-family="Times,serif" font-size="14.00">(0.05498808141705922)</text>
</g>
<!-- 1&#45;&gt;2 -->
<g id="edge5" class="edge">
<title>1&#45;&gt;2</title>
<path fill="none" stroke="black" d="M369.78,-184C326.7,-171.36 271.96,-155.29 227.11,-142.13"/>
<polygon fill="black" stroke="black" points="227.99,-138.74 217.41,-139.29 226.02,-145.46 227.99,-138.74"/>
</g>
<!-- 4 -->
<g id="node7" class="node">
<title>4</title>
<ellipse fill="orange" stroke="black" cx="442.54" cy="-116.61" rx="143.59" ry="26.74"/>
<text text-anchor="middle" x="442.54" y="-120.41" font-family="Times,serif" font-size="14.00">simpl.</text>
<text text-anchor="middle" x="442.54" y="-105.41" font-family="Times,serif" font-size="14.00">(0.012117980269419399)</text>
</g>
<!-- 1&#45;&gt;4 -->
<g id="edge6" class="edge">
<title>1&#45;&gt;4</title>
<path fill="none" stroke="black" d="M442.54,-179.03C442.54,-171.06 442.54,-162.17 442.54,-153.68"/>
<polygon fill="black" stroke="black" points="446.04,-153.61 442.54,-143.61 439.04,-153.61 446.04,-153.61"/>
</g>
<!-- 6 -->
<g id="node9" class="node">
<title>6</title>
<ellipse fill="none" stroke="black" cx="734.54" cy="-116.61" rx="130.63" ry="26.74"/>
<text text-anchor="middle" x="734.54" y="-120.41" font-family="Times,serif" font-size="14.00">intros.</text>
<text text-anchor="middle" x="734.54" y="-105.41" font-family="Times,serif" font-size="14.00">(0.9964935188365384)</text>
</g>
<!-- 5&#45;&gt;6 -->
<g id="edge8" class="edge">
<title>5&#45;&gt;6</title>
<path fill="none" stroke="black" d="M1089.58,-186.53C1015.35,-172.12 913.19,-152.29 837.51,-137.6"/>
<polygon fill="black" stroke="black" points="837.97,-134.12 827.48,-135.65 836.63,-140.99 837.97,-134.12"/>
</g>
<!-- 9 -->
<g id="node10" class="node">
<title>9</title>
<ellipse fill="orange" stroke="black" cx="1033.54" cy="-116.61" rx="149.81" ry="26.74"/>
<text text-anchor="middle" x="1033.54" y="-120.41" font-family="Times,serif" font-size="14.00">eauto.</text>
<text text-anchor="middle" x="1033.54" y="-105.41" font-family="Times,serif" font-size="14.00">(0.0013514007443909942)</text>
</g>
<!-- 5&#45;&gt;9 -->
<g id="edge9" class="edge">
<title>5&#45;&gt;9</title>
<path fill="none" stroke="black" d="M1143.52,-180.68C1125.51,-170.35 1104.42,-158.26 1085.55,-147.44"/>
<polygon fill="black" stroke="black" points="1087.19,-144.34 1076.78,-142.4 1083.71,-150.41 1087.19,-144.34"/>
</g>
<!-- 10 -->
<g id="node11" class="node">
<title>10</title>
<ellipse fill="orange" stroke="black" cx="1351.54" cy="-116.61" rx="149.81" ry="26.74"/>
<text text-anchor="middle" x="1351.54" y="-120.41" font-family="Times,serif" font-size="14.00">simpl.</text>
<text text-anchor="middle" x="1351.54" y="-105.41" font-family="Times,serif" font-size="14.00">(0.0005391668309307427)</text>
</g>
<!-- 5&#45;&gt;10 -->
<g id="edge10" class="edge">
<title>5&#45;&gt;10</title>
<path fill="none" stroke="black" d="M1232.94,-180.68C1252.62,-170.21 1275.71,-157.93 1296.27,-147"/>
<polygon fill="black" stroke="black" points="1298.02,-150.04 1305.2,-142.25 1294.73,-143.86 1298.02,-150.04"/>
</g>
<!-- 12 -->
<g id="node14" class="node">
<title>12</title>
<ellipse fill="none" stroke="black" cx="1650.54" cy="-116.61" rx="130.63" ry="26.74"/>
<text text-anchor="middle" x="1650.54" y="-120.41" font-family="Times,serif" font-size="14.00">intros.</text>
<text text-anchor="middle" x="1650.54" y="-105.41" font-family="Times,serif" font-size="14.00">(0.9964935188365384)</text>
</g>
<!-- 11&#45;&gt;12 -->
<g id="edge13" class="edge">
<title>11&#45;&gt;12</title>
<path fill="none" stroke="black" d="M1650.54,-179.03C1650.54,-171.06 1650.54,-162.17 1650.54,-153.68"/>
<polygon fill="black" stroke="black" points="1654.04,-153.61 1650.54,-143.61 1647.04,-153.61 1654.04,-153.61"/>
</g>
<!-- 15 -->
<g id="node15" class="node">
<title>15</title>
<ellipse fill="orange" stroke="black" cx="1949.54" cy="-116.61" rx="149.81" ry="26.74"/>
<text text-anchor="middle" x="1949.54" y="-120.41" font-family="Times,serif" font-size="14.00">eauto.</text>
<text text-anchor="middle" x="1949.54" y="-105.41" font-family="Times,serif" font-size="14.00">(0.0013514007443909942)</text>
</g>
<!-- 11&#45;&gt;15 -->
<g id="edge14" class="edge">
<title>11&#45;&gt;15</title>
<path fill="none" stroke="black" d="M1726.38,-183.1C1768.36,-170.78 1820.67,-155.43 1864.1,-142.68"/>
<polygon fill="black" stroke="black" points="1865.18,-146.01 1873.79,-139.84 1863.21,-139.3 1865.18,-146.01"/>
</g>
<!-- 16 -->
<g id="node16" class="node">
<title>16</title>
<ellipse fill="orange" stroke="black" cx="2267.54" cy="-116.61" rx="149.81" ry="26.74"/>
<text text-anchor="middle" x="2267.54" y="-120.41" font-family="Times,serif" font-size="14.00">simpl.</text>
<text text-anchor="middle" x="2267.54" y="-105.41" font-family="Times,serif" font-size="14.00">(0.0005391668309307427)</text>
</g>
<!-- 11&#45;&gt;16 -->
<g id="edge15" class="edge">
<title>11&#45;&gt;16</title>
<path fill="none" stroke="black" d="M1756.68,-187.33C1774,-184.58 1791.76,-181.86 1808.54,-179.48 1941.5,-160.63 1975.57,-162.27 2108.54,-143.48 2122.38,-141.53 2136.87,-139.35 2151.24,-137.11"/>
<polygon fill="black" stroke="black" points="2151.82,-140.56 2161.16,-135.55 2150.73,-133.65 2151.82,-140.56"/>
</g>
<!-- 3 -->
<g id="node8" class="node">
<title>3</title>
<ellipse fill="orange" stroke="black" cx="143.54" cy="-26.87" rx="143.59" ry="26.74"/>
<text text-anchor="middle" x="143.54" y="-30.67" font-family="Times,serif" font-size="14.00">simpl.</text>
<text text-anchor="middle" x="143.54" y="-15.67" font-family="Times,serif" font-size="14.00">(0.015506118429617976)</text>
</g>
<!-- 2&#45;&gt;3 -->
<g id="edge7" class="edge">
<title>2&#45;&gt;3</title>
<path fill="none" stroke="black" d="M143.54,-89.29C143.54,-81.32 143.54,-72.43 143.54,-63.94"/>
<polygon fill="black" stroke="black" points="147.04,-63.87 143.54,-53.87 140.04,-63.87 147.04,-63.87"/>
</g>
<!-- 7 -->
<g id="node12" class="node">
<title>7</title>
<ellipse fill="none" stroke="black" cx="588.54" cy="-26.87" rx="137.36" ry="26.74"/>
<text text-anchor="middle" x="588.54" y="-30.67" font-family="Times,serif" font-size="14.00">red.</text>
<text text-anchor="middle" x="588.54" y="-15.67" font-family="Times,serif" font-size="14.00">(0.03723497244861726)</text>
</g>
<!-- 6&#45;&gt;7 -->
<g id="edge11" class="edge">
<title>6&#45;&gt;7</title>
<path fill="none" stroke="black" d="M693.49,-90.94C676.38,-80.66 656.36,-68.62 638.42,-57.84"/>
<polygon fill="black" stroke="black" points="640.17,-54.81 629.8,-52.66 636.57,-60.81 640.17,-54.81"/>
</g>
<!-- 8 -->
<g id="node13" class="node">
<title>8</title>
<ellipse fill="orange" stroke="black" cx="887.54" cy="-26.87" rx="143.59" ry="26.74"/>
<text text-anchor="middle" x="887.54" y="-30.67" font-family="Times,serif" font-size="14.00">simpl.</text>
<text text-anchor="middle" x="887.54" y="-15.67" font-family="Times,serif" font-size="14.00">(0.008205646704055242)</text>
</g>
<!-- 6&#45;&gt;8 -->
<g id="edge12" class="edge">
<title>6&#45;&gt;8</title>
<path fill="none" stroke="black" d="M777.16,-91.17C795.25,-80.8 816.51,-68.6 835.52,-57.71"/>
<polygon fill="black" stroke="black" points="837.42,-60.65 844.36,-52.64 833.94,-54.57 837.42,-60.65"/>
</g>
<!-- 13 -->
<g id="node17" class="node">
<title>13</title>
<ellipse fill="none" stroke="black" cx="1500.54" cy="-26.87" rx="137.36" ry="26.74"/>
<text text-anchor="middle" x="1500.54" y="-30.67" font-family="Times,serif" font-size="14.00">red.</text>
<text text-anchor="middle" x="1500.54" y="-15.67" font-family="Times,serif" font-size="14.00">(0.03723497244861726)</text>
</g>
<!-- 12&#45;&gt;13 -->
<g id="edge16" class="edge">
<title>12&#45;&gt;13</title>
<path fill="none" stroke="black" d="M1608.36,-90.94C1590.71,-80.61 1570.04,-68.52 1551.55,-57.71"/>
<polygon fill="black" stroke="black" points="1553.07,-54.54 1542.67,-52.51 1549.53,-60.58 1553.07,-54.54"/>
</g>
<!-- 14 -->
<g id="node18" class="node">
<title>14</title>
<ellipse fill="orange" stroke="black" cx="1799.54" cy="-26.87" rx="143.59" ry="26.74"/>
<text text-anchor="middle" x="1799.54" y="-30.67" font-family="Times,serif" font-size="14.00">simpl.</text>
<text text-anchor="middle" x="1799.54" y="-15.67" font-family="Times,serif" font-size="14.00">(0.008205646704055242)</text>
</g>
<!-- 12&#45;&gt;14 -->
<g id="edge17" class="edge">
<title>12&#45;&gt;14</title>
<path fill="none" stroke="black" d="M1692.44,-90.94C1709.9,-80.66 1730.33,-68.62 1748.64,-57.84"/>
<polygon fill="black" stroke="black" points="1750.6,-60.75 1757.44,-52.66 1747.05,-54.72 1750.6,-60.75"/>
</g>
</g>
</svg>
