<?xml version="1.0" encoding="UTF-8" standalone="no"?>
<!DOCTYPE svg PUBLIC "-//W3C//DTD SVG 1.1//EN"
 "http://www.w3.org/Graphics/SVG/1.1/DTD/svg11.dtd">
<!-- Generated by graphviz version 2.43.0 (0)
 -->
<!-- Pages: 1 -->
<svg width="1478pt" height="331pt"
 viewBox="0.00 0.00 1478.09 330.96" xmlns="http://www.w3.org/2000/svg" xmlns:xlink="http://www.w3.org/1999/xlink">
<g id="graph0" class="graph" transform="scale(1 1) rotate(0) translate(4 326.96)">
<polygon fill="white" stroke="transparent" points="-4,4 -4,-326.96 1474.09,-326.96 1474.09,4 -4,4"/>
<!-- 0 -->
<g id="node1" class="node">
<title>0</title>
<ellipse fill="none" stroke="black" cx="640.18" cy="-296.09" rx="64.19" ry="26.74"/>
<text text-anchor="middle" x="640.18" y="-299.89" font-family="Times,serif" font-size="14.00">cocyclique</text>
<text text-anchor="middle" x="640.18" y="-284.89" font-family="Times,serif" font-size="14.00">(1.0)</text>
</g>
<!-- 1 -->
<g id="node2" class="node">
<title>1</title>
<ellipse fill="none" stroke="black" cx="208.18" cy="-206.35" rx="130.63" ry="26.74"/>
<text text-anchor="middle" x="208.18" y="-210.15" font-family="Times,serif" font-size="14.00">intros.</text>
<text text-anchor="middle" x="208.18" y="-195.15" font-family="Times,serif" font-size="14.00">(0.9104813541814654)</text>
</g>
<!-- 0&#45;&gt;1 -->
<g id="edge1" class="edge">
<title>0&#45;&gt;1</title>
<path fill="none" stroke="black" d="M583.26,-283.53C513.51,-269.36 394.09,-245.11 308.73,-227.77"/>
<polygon fill="black" stroke="black" points="309.25,-224.31 298.76,-225.75 307.86,-231.17 309.25,-224.31"/>
</g>
<!-- 3 -->
<g id="node3" class="node">
<title>3</title>
<ellipse fill="none" stroke="black" cx="640.18" cy="-206.35" rx="143.59" ry="26.74"/>
<text text-anchor="middle" x="640.18" y="-210.15" font-family="Times,serif" font-size="14.00">unfold isocele.</text>
<text text-anchor="middle" x="640.18" y="-195.15" font-family="Times,serif" font-size="14.00">(0.013948474655404178)</text>
</g>
<!-- 0&#45;&gt;3 -->
<g id="edge2" class="edge">
<title>0&#45;&gt;3</title>
<path fill="none" stroke="black" d="M640.18,-268.77C640.18,-260.8 640.18,-251.91 640.18,-243.42"/>
<polygon fill="black" stroke="black" points="643.68,-243.35 640.18,-233.35 636.68,-243.35 643.68,-243.35"/>
</g>
<!-- 7 -->
<g id="node4" class="node">
<title>7</title>
<ellipse fill="none" stroke="black" cx="1021.18" cy="-206.35" rx="149.81" ry="26.74"/>
<text text-anchor="middle" x="1021.18" y="-210.15" font-family="Times,serif" font-size="14.00">unfold isocele.</text>
<text text-anchor="middle" x="1021.18" y="-195.15" font-family="Times,serif" font-size="14.00">(0.0035954415417730244)</text>
</g>
<!-- 0&#45;&gt;7 -->
<g id="edge3" class="edge">
<title>0&#45;&gt;7</title>
<path fill="none" stroke="black" d="M695.58,-282.33C754.71,-268.71 849.63,-246.86 921.76,-230.24"/>
<polygon fill="black" stroke="black" points="922.82,-233.59 931.78,-227.94 921.25,-226.77 922.82,-233.59"/>
</g>
<!-- 2 -->
<g id="node5" class="node">
<title>2</title>
<ellipse fill="orange" stroke="black" cx="137.18" cy="-116.61" rx="137.36" ry="26.74"/>
<text text-anchor="middle" x="137.18" y="-120.41" font-family="Times,serif" font-size="14.00">simpl.</text>
<text text-anchor="middle" x="137.18" y="-105.41" font-family="Times,serif" font-size="14.00">(0.05221786562510122)</text>
</g>
<!-- 1&#45;&gt;2 -->
<g id="edge4" class="edge">
<title>1&#45;&gt;2</title>
<path fill="none" stroke="black" d="M187.26,-179.5C180.11,-170.66 172.01,-160.65 164.43,-151.29"/>
<polygon fill="black" stroke="black" points="166.96,-148.85 157.95,-143.28 161.52,-153.25 166.96,-148.85"/>
</g>
<!-- 4 -->
<g id="node6" class="node">
<title>4</title>
<ellipse fill="none" stroke="black" cx="423.18" cy="-116.61" rx="130.63" ry="26.74"/>
<text text-anchor="middle" x="423.18" y="-120.41" font-family="Times,serif" font-size="14.00">intros.</text>
<text text-anchor="middle" x="423.18" y="-105.41" font-family="Times,serif" font-size="14.00">(0.9894711761834591)</text>
</g>
<!-- 3&#45;&gt;4 -->
<g id="edge5" class="edge">
<title>3&#45;&gt;4</title>
<path fill="none" stroke="black" d="M581.74,-181.72C553.42,-170.27 519.28,-156.47 489.94,-144.6"/>
<polygon fill="black" stroke="black" points="491.18,-141.33 480.59,-140.82 488.55,-147.82 491.18,-141.33"/>
</g>
<!-- 6 -->
<g id="node7" class="node">
<title>6</title>
<ellipse fill="orange" stroke="black" cx="722.18" cy="-116.61" rx="149.81" ry="26.74"/>
<text text-anchor="middle" x="722.18" y="-120.41" font-family="Times,serif" font-size="14.00">simpl.</text>
<text text-anchor="middle" x="722.18" y="-105.41" font-family="Times,serif" font-size="14.00">(0.0023156603167415316)</text>
</g>
<!-- 3&#45;&gt;6 -->
<g id="edge6" class="edge">
<title>3&#45;&gt;6</title>
<path fill="none" stroke="black" d="M664.34,-179.5C672.76,-170.49 682.34,-160.24 691.23,-150.72"/>
<polygon fill="black" stroke="black" points="693.92,-152.97 698.19,-143.28 688.81,-148.19 693.92,-152.97"/>
</g>
<!-- 8 -->
<g id="node9" class="node">
<title>8</title>
<ellipse fill="none" stroke="black" cx="1021.18" cy="-116.61" rx="130.63" ry="26.74"/>
<text text-anchor="middle" x="1021.18" y="-120.41" font-family="Times,serif" font-size="14.00">intros.</text>
<text text-anchor="middle" x="1021.18" y="-105.41" font-family="Times,serif" font-size="14.00">(0.9894711761834591)</text>
</g>
<!-- 7&#45;&gt;8 -->
<g id="edge8" class="edge">
<title>7&#45;&gt;8</title>
<path fill="none" stroke="black" d="M1021.18,-179.03C1021.18,-171.06 1021.18,-162.17 1021.18,-153.68"/>
<polygon fill="black" stroke="black" points="1024.68,-153.61 1021.18,-143.61 1017.68,-153.61 1024.68,-153.61"/>
</g>
<!-- 10 -->
<g id="node10" class="node">
<title>10</title>
<ellipse fill="orange" stroke="black" cx="1320.18" cy="-116.61" rx="149.81" ry="26.74"/>
<text text-anchor="middle" x="1320.18" y="-120.41" font-family="Times,serif" font-size="14.00">simpl.</text>
<text text-anchor="middle" x="1320.18" y="-105.41" font-family="Times,serif" font-size="14.00">(0.0023156603167415316)</text>
</g>
<!-- 7&#45;&gt;10 -->
<g id="edge9" class="edge">
<title>7&#45;&gt;10</title>
<path fill="none" stroke="black" d="M1097.02,-183.1C1139,-170.78 1191.31,-155.43 1234.73,-142.68"/>
<polygon fill="black" stroke="black" points="1235.81,-146.01 1244.42,-139.84 1233.84,-139.3 1235.81,-146.01"/>
</g>
<!-- 5 -->
<g id="node8" class="node">
<title>5</title>
<ellipse fill="orange" stroke="black" cx="423.18" cy="-26.87" rx="143.59" ry="26.74"/>
<text text-anchor="middle" x="423.18" y="-30.67" font-family="Times,serif" font-size="14.00">simpl.</text>
<text text-anchor="middle" x="423.18" y="-15.67" font-family="Times,serif" font-size="14.00">(0.035595849750899335)</text>
</g>
<!-- 4&#45;&gt;5 -->
<g id="edge7" class="edge">
<title>4&#45;&gt;5</title>
<path fill="none" stroke="black" d="M423.18,-89.29C423.18,-81.32 423.18,-72.43 423.18,-63.94"/>
<polygon fill="black" stroke="black" points="426.68,-63.87 423.18,-53.87 419.68,-63.87 426.68,-63.87"/>
</g>
<!-- 9 -->
<g id="node11" class="node">
<title>9</title>
<ellipse fill="orange" stroke="black" cx="1021.18" cy="-26.87" rx="143.59" ry="26.74"/>
<text text-anchor="middle" x="1021.18" y="-30.67" font-family="Times,serif" font-size="14.00">simpl.</text>
<text text-anchor="middle" x="1021.18" y="-15.67" font-family="Times,serif" font-size="14.00">(0.035595849750899335)</text>
</g>
<!-- 8&#45;&gt;9 -->
<g id="edge10" class="edge">
<title>8&#45;&gt;9</title>
<path fill="none" stroke="black" d="M1021.18,-89.29C1021.18,-81.32 1021.18,-72.43 1021.18,-63.94"/>
<polygon fill="black" stroke="black" points="1024.68,-63.87 1021.18,-53.87 1017.68,-63.87 1024.68,-63.87"/>
</g>
</g>
</svg>
