<?xml version="1.0" encoding="UTF-8" standalone="no"?>
<!DOCTYPE svg PUBLIC "-//W3C//DTD SVG 1.1//EN"
 "http://www.w3.org/Graphics/SVG/1.1/DTD/svg11.dtd">
<!-- Generated by graphviz version 2.43.0 (0)
 -->
<!-- Pages: 1 -->
<svg width="3920pt" height="421pt"
 viewBox="0.00 0.00 3919.99 420.70" xmlns="http://www.w3.org/2000/svg" xmlns:xlink="http://www.w3.org/1999/xlink">
<g id="graph0" class="graph" transform="scale(1 1) rotate(0) translate(4 416.7)">
<polygon fill="white" stroke="transparent" points="-4,4 -4,-416.7 3915.99,-416.7 3915.99,4 -4,4"/>
<!-- 0 -->
<g id="node1" class="node">
<title>0</title>
<ellipse fill="none" stroke="black" cx="1877.45" cy="-385.83" rx="117.26" ry="26.74"/>
<text text-anchor="middle" x="1877.45" y="-389.63" font-family="Times,serif" font-size="14.00">colineaire_modulo_pi</text>
<text text-anchor="middle" x="1877.45" y="-374.63" font-family="Times,serif" font-size="14.00">(1.0)</text>
</g>
<!-- 1 -->
<g id="node2" class="node">
<title>1</title>
<ellipse fill="none" stroke="black" cx="410.45" cy="-296.09" rx="130.63" ry="26.74"/>
<text text-anchor="middle" x="410.45" y="-299.89" font-family="Times,serif" font-size="14.00">intros.</text>
<text text-anchor="middle" x="410.45" y="-284.89" font-family="Times,serif" font-size="14.00">(0.9743025985378462)</text>
</g>
<!-- 0&#45;&gt;1 -->
<g id="edge1" class="edge">
<title>0&#45;&gt;1</title>
<path fill="none" stroke="black" d="M1764.77,-378.09C1498.55,-362.17 831.55,-322.28 544.86,-305.13"/>
<polygon fill="black" stroke="black" points="545.02,-301.63 534.83,-304.53 544.6,-308.62 545.02,-301.63"/>
</g>
<!-- 5 -->
<g id="node3" class="node">
<title>5</title>
<ellipse fill="none" stroke="black" cx="1442.45" cy="-296.09" rx="143.59" ry="26.74"/>
<text text-anchor="middle" x="1442.45" y="-299.89" font-family="Times,serif" font-size="14.00">unfold colineaire.</text>
<text text-anchor="middle" x="1442.45" y="-284.89" font-family="Times,serif" font-size="14.00">(0.003894276618910708)</text>
</g>
<!-- 0&#45;&gt;5 -->
<g id="edge2" class="edge">
<title>0&#45;&gt;5</title>
<path fill="none" stroke="black" d="M1791.51,-367.5C1721.49,-353.37 1622.32,-333.37 1547.57,-318.29"/>
<polygon fill="black" stroke="black" points="1548.15,-314.84 1537.66,-316.29 1546.77,-321.7 1548.15,-314.84"/>
</g>
<!-- 19 -->
<g id="node4" class="node">
<title>19</title>
<ellipse fill="none" stroke="black" cx="2459.45" cy="-296.09" rx="149.81" ry="26.74"/>
<text text-anchor="middle" x="2459.45" y="-299.89" font-family="Times,serif" font-size="14.00">unfold colineaire.</text>
<text text-anchor="middle" x="2459.45" y="-284.89" font-family="Times,serif" font-size="14.00">(0.0020601429289153934)</text>
</g>
<!-- 0&#45;&gt;19 -->
<g id="edge3" class="edge">
<title>0&#45;&gt;19</title>
<path fill="none" stroke="black" d="M1973.56,-370.34C2073.2,-355.32 2229.25,-331.79 2337.52,-315.47"/>
<polygon fill="black" stroke="black" points="2338.15,-318.92 2347.51,-313.97 2337.1,-312 2338.15,-318.92"/>
</g>
<!-- 33 -->
<g id="node5" class="node">
<title>33</title>
<ellipse fill="orange" stroke="black" cx="2770.45" cy="-296.09" rx="143.59" ry="26.74"/>
<text text-anchor="middle" x="2770.45" y="-299.89" font-family="Times,serif" font-size="14.00">simpl.</text>
<text text-anchor="middle" x="2770.45" y="-284.89" font-family="Times,serif" font-size="14.00">(0.001216164410042947)</text>
</g>
<!-- 0&#45;&gt;33 -->
<g id="edge4" class="edge">
<title>0&#45;&gt;33</title>
<path fill="none" stroke="black" d="M1990.43,-378.4C2136,-369.43 2396.73,-351.03 2618.45,-322.96 2631.91,-321.26 2646.01,-319.21 2659.95,-317.03"/>
<polygon fill="black" stroke="black" points="2660.74,-320.45 2670.06,-315.42 2659.64,-313.54 2660.74,-320.45"/>
</g>
<!-- 2 -->
<g id="node6" class="node">
<title>2</title>
<ellipse fill="orange" stroke="black" cx="124.45" cy="-206.35" rx="124.4" ry="26.74"/>
<text text-anchor="middle" x="124.45" y="-210.15" font-family="Times,serif" font-size="14.00">simpl.</text>
<text text-anchor="middle" x="124.45" y="-195.15" font-family="Times,serif" font-size="14.00">(0.538429300573195)</text>
</g>
<!-- 1&#45;&gt;2 -->
<g id="edge5" class="edge">
<title>1&#45;&gt;2</title>
<path fill="none" stroke="black" d="M339.75,-273.4C298.63,-260.78 246.67,-244.85 204.1,-231.79"/>
<polygon fill="black" stroke="black" points="204.92,-228.38 194.33,-228.79 202.87,-235.07 204.92,-228.38"/>
</g>
<!-- 3 -->
<g id="node7" class="node">
<title>3</title>
<ellipse fill="none" stroke="black" cx="410.45" cy="-206.35" rx="143.59" ry="26.74"/>
<text text-anchor="middle" x="410.45" y="-210.15" font-family="Times,serif" font-size="14.00">unfold double.</text>
<text text-anchor="middle" x="410.45" y="-195.15" font-family="Times,serif" font-size="14.00">(0.011715274873387008)</text>
</g>
<!-- 1&#45;&gt;3 -->
<g id="edge6" class="edge">
<title>1&#45;&gt;3</title>
<path fill="none" stroke="black" d="M410.45,-268.77C410.45,-260.8 410.45,-251.91 410.45,-243.42"/>
<polygon fill="black" stroke="black" points="413.95,-243.35 410.45,-233.35 406.95,-243.35 413.95,-243.35"/>
</g>
<!-- 6 -->
<g id="node9" class="node">
<title>6</title>
<ellipse fill="none" stroke="black" cx="839.45" cy="-206.35" rx="130.63" ry="26.74"/>
<text text-anchor="middle" x="839.45" y="-210.15" font-family="Times,serif" font-size="14.00">intros.</text>
<text text-anchor="middle" x="839.45" y="-195.15" font-family="Times,serif" font-size="14.00">(0.9703157864262507)</text>
</g>
<!-- 5&#45;&gt;6 -->
<g id="edge8" class="edge">
<title>5&#45;&gt;6</title>
<path fill="none" stroke="black" d="M1323.48,-280.94C1229.6,-269.36 1095.42,-251.89 978.45,-233.22 966.8,-231.36 954.63,-229.29 942.55,-227.15"/>
<polygon fill="black" stroke="black" points="942.88,-223.65 932.42,-225.34 941.65,-230.54 942.88,-223.65"/>
</g>
<!-- 10 -->
<g id="node10" class="node">
<title>10</title>
<ellipse fill="orange" stroke="black" cx="1131.45" cy="-206.35" rx="143.59" ry="26.74"/>
<text text-anchor="middle" x="1131.45" y="-210.15" font-family="Times,serif" font-size="14.00">simpl.</text>
<text text-anchor="middle" x="1131.45" y="-195.15" font-family="Times,serif" font-size="14.00">(0.013471114071356453)</text>
</g>
<!-- 5&#45;&gt;10 -->
<g id="edge9" class="edge">
<title>5&#45;&gt;10</title>
<path fill="none" stroke="black" d="M1365.17,-273.29C1320.58,-260.71 1264.39,-244.86 1218.28,-231.85"/>
<polygon fill="black" stroke="black" points="1219.17,-228.46 1208.6,-229.12 1217.27,-235.2 1219.17,-228.46"/>
</g>
<!-- 11 -->
<g id="node11" class="node">
<title>11</title>
<ellipse fill="none" stroke="black" cx="1442.45" cy="-206.35" rx="149.81" ry="26.74"/>
<text text-anchor="middle" x="1442.45" y="-210.15" font-family="Times,serif" font-size="14.00">unfold double.</text>
<text text-anchor="middle" x="1442.45" y="-195.15" font-family="Times,serif" font-size="14.00">(0.0006107067357731207)</text>
</g>
<!-- 5&#45;&gt;11 -->
<g id="edge10" class="edge">
<title>5&#45;&gt;11</title>
<path fill="none" stroke="black" d="M1442.45,-268.77C1442.45,-260.8 1442.45,-251.91 1442.45,-243.42"/>
<polygon fill="black" stroke="black" points="1445.95,-243.35 1442.45,-233.35 1438.95,-243.35 1445.95,-243.35"/>
</g>
<!-- 15 -->
<g id="node12" class="node">
<title>15</title>
<ellipse fill="none" stroke="black" cx="1760.45" cy="-206.35" rx="149.81" ry="26.74"/>
<text text-anchor="middle" x="1760.45" y="-210.15" font-family="Times,serif" font-size="14.00">unfold double.</text>
<text text-anchor="middle" x="1760.45" y="-195.15" font-family="Times,serif" font-size="14.00">(0.0004411131393241449)</text>
</g>
<!-- 5&#45;&gt;15 -->
<g id="edge11" class="edge">
<title>5&#45;&gt;15</title>
<path fill="none" stroke="black" d="M1520.65,-273.51C1566.33,-260.91 1624.12,-244.96 1671.53,-231.88"/>
<polygon fill="black" stroke="black" points="1672.46,-235.26 1681.17,-229.22 1670.6,-228.51 1672.46,-235.26"/>
</g>
<!-- 20 -->
<g id="node22" class="node">
<title>20</title>
<ellipse fill="none" stroke="black" cx="2313.45" cy="-206.35" rx="130.63" ry="26.74"/>
<text text-anchor="middle" x="2313.45" y="-210.15" font-family="Times,serif" font-size="14.00">intros.</text>
<text text-anchor="middle" x="2313.45" y="-195.15" font-family="Times,serif" font-size="14.00">(0.9703157864262507)</text>
</g>
<!-- 19&#45;&gt;20 -->
<g id="edge21" class="edge">
<title>19&#45;&gt;20</title>
<path fill="none" stroke="black" d="M2418,-270.18C2400.91,-259.91 2380.95,-247.91 2363.08,-237.17"/>
<polygon fill="black" stroke="black" points="2364.87,-234.17 2354.5,-232.02 2361.26,-240.17 2364.87,-234.17"/>
</g>
<!-- 24 -->
<g id="node23" class="node">
<title>24</title>
<ellipse fill="orange" stroke="black" cx="2605.45" cy="-206.35" rx="143.59" ry="26.74"/>
<text text-anchor="middle" x="2605.45" y="-210.15" font-family="Times,serif" font-size="14.00">simpl.</text>
<text text-anchor="middle" x="2605.45" y="-195.15" font-family="Times,serif" font-size="14.00">(0.013471114071356453)</text>
</g>
<!-- 19&#45;&gt;24 -->
<g id="edge22" class="edge">
<title>19&#45;&gt;24</title>
<path fill="none" stroke="black" d="M2500.9,-270.18C2517.77,-260.04 2537.42,-248.23 2555.11,-237.6"/>
<polygon fill="black" stroke="black" points="2557.38,-240.32 2564.15,-232.17 2553.78,-234.32 2557.38,-240.32"/>
</g>
<!-- 25 -->
<g id="node24" class="node">
<title>25</title>
<ellipse fill="none" stroke="black" cx="2916.45" cy="-206.35" rx="149.81" ry="26.74"/>
<text text-anchor="middle" x="2916.45" y="-210.15" font-family="Times,serif" font-size="14.00">unfold double.</text>
<text text-anchor="middle" x="2916.45" y="-195.15" font-family="Times,serif" font-size="14.00">(0.0006107067357731207)</text>
</g>
<!-- 19&#45;&gt;25 -->
<g id="edge23" class="edge">
<title>19&#45;&gt;25</title>
<path fill="none" stroke="black" d="M2559.18,-275.94C2632.32,-261.9 2731.6,-242.84 2806.94,-228.38"/>
<polygon fill="black" stroke="black" points="2807.78,-231.78 2816.94,-226.46 2806.46,-224.9 2807.78,-231.78"/>
</g>
<!-- 29 -->
<g id="node25" class="node">
<title>29</title>
<ellipse fill="none" stroke="black" cx="3482.45" cy="-206.35" rx="149.81" ry="26.74"/>
<text text-anchor="middle" x="3482.45" y="-210.15" font-family="Times,serif" font-size="14.00">unfold double.</text>
<text text-anchor="middle" x="3482.45" y="-195.15" font-family="Times,serif" font-size="14.00">(0.0004411131393241449)</text>
</g>
<!-- 19&#45;&gt;29 -->
<g id="edge24" class="edge">
<title>19&#45;&gt;29</title>
<path fill="none" stroke="black" d="M2563.37,-276.7C2581.37,-273.91 2599.92,-271.28 2617.45,-269.22 2686.38,-261.13 3104.74,-232.6 3333.42,-217.27"/>
<polygon fill="black" stroke="black" points="3333.75,-220.75 3343.5,-216.59 3333.28,-213.77 3333.75,-220.75"/>
</g>
<!-- 4 -->
<g id="node8" class="node">
<title>4</title>
<ellipse fill="orange" stroke="black" cx="273.45" cy="-116.61" rx="130.63" ry="26.74"/>
<text text-anchor="middle" x="273.45" y="-120.41" font-family="Times,serif" font-size="14.00">simpl.</text>
<text text-anchor="middle" x="273.45" y="-105.41" font-family="Times,serif" font-size="14.00">(0.7682229394115557)</text>
</g>
<!-- 3&#45;&gt;4 -->
<g id="edge7" class="edge">
<title>3&#45;&gt;4</title>
<path fill="none" stroke="black" d="M371.56,-180.44C355.8,-170.35 337.44,-158.59 320.9,-148"/>
<polygon fill="black" stroke="black" points="322.75,-145.03 312.44,-142.58 318.97,-150.92 322.75,-145.03"/>
</g>
<!-- 7 -->
<g id="node13" class="node">
<title>7</title>
<ellipse fill="orange" stroke="black" cx="559.45" cy="-116.61" rx="137.36" ry="26.74"/>
<text text-anchor="middle" x="559.45" y="-120.41" font-family="Times,serif" font-size="14.00">simpl.</text>
<text text-anchor="middle" x="559.45" y="-105.41" font-family="Times,serif" font-size="14.00">(0.17566539700895267)</text>
</g>
<!-- 6&#45;&gt;7 -->
<g id="edge12" class="edge">
<title>6&#45;&gt;7</title>
<path fill="none" stroke="black" d="M769.88,-183.55C730.44,-171.19 680.93,-155.68 639.84,-142.8"/>
<polygon fill="black" stroke="black" points="640.71,-139.41 630.13,-139.76 638.62,-146.09 640.71,-139.41"/>
</g>
<!-- 8 -->
<g id="node14" class="node">
<title>8</title>
<ellipse fill="none" stroke="black" cx="864.45" cy="-116.61" rx="149.81" ry="26.74"/>
<text text-anchor="middle" x="864.45" y="-120.41" font-family="Times,serif" font-size="14.00">unfold double.</text>
<text text-anchor="middle" x="864.45" y="-105.41" font-family="Times,serif" font-size="14.00">(0.0038221699429195535)</text>
</g>
<!-- 6&#45;&gt;8 -->
<g id="edge13" class="edge">
<title>6&#45;&gt;8</title>
<path fill="none" stroke="black" d="M846.82,-179.5C849.16,-171.27 851.8,-162.02 854.3,-153.23"/>
<polygon fill="black" stroke="black" points="857.68,-154.16 857.05,-143.58 850.95,-152.24 857.68,-154.16"/>
</g>
<!-- 12 -->
<g id="node16" class="node">
<title>12</title>
<ellipse fill="none" stroke="black" cx="1156.45" cy="-116.61" rx="124.4" ry="26.74"/>
<text text-anchor="middle" x="1156.45" y="-120.41" font-family="Times,serif" font-size="14.00">intros.</text>
<text text-anchor="middle" x="1156.45" y="-105.41" font-family="Times,serif" font-size="14.00">(0.986890878603013)</text>
</g>
<!-- 11&#45;&gt;12 -->
<g id="edge15" class="edge">
<title>11&#45;&gt;12</title>
<path fill="none" stroke="black" d="M1369.17,-182.87C1328.33,-170.34 1277.44,-154.73 1235.68,-141.92"/>
<polygon fill="black" stroke="black" points="1236.68,-138.56 1226.09,-138.98 1234.63,-145.25 1236.68,-138.56"/>
</g>
<!-- 14 -->
<g id="node17" class="node">
<title>14</title>
<ellipse fill="orange" stroke="black" cx="1442.45" cy="-116.61" rx="143.59" ry="26.74"/>
<text text-anchor="middle" x="1442.45" y="-120.41" font-family="Times,serif" font-size="14.00">simpl.</text>
<text text-anchor="middle" x="1442.45" y="-105.41" font-family="Times,serif" font-size="14.00">(0.004094851031467899)</text>
</g>
<!-- 11&#45;&gt;14 -->
<g id="edge16" class="edge">
<title>11&#45;&gt;14</title>
<path fill="none" stroke="black" d="M1442.45,-179.03C1442.45,-171.06 1442.45,-162.17 1442.45,-153.68"/>
<polygon fill="black" stroke="black" points="1445.95,-153.61 1442.45,-143.61 1438.95,-153.61 1445.95,-153.61"/>
</g>
<!-- 16 -->
<g id="node19" class="node">
<title>16</title>
<ellipse fill="none" stroke="black" cx="1728.45" cy="-116.61" rx="124.4" ry="26.74"/>
<text text-anchor="middle" x="1728.45" y="-120.41" font-family="Times,serif" font-size="14.00">intros.</text>
<text text-anchor="middle" x="1728.45" y="-105.41" font-family="Times,serif" font-size="14.00">(0.986890878603013)</text>
</g>
<!-- 15&#45;&gt;16 -->
<g id="edge18" class="edge">
<title>15&#45;&gt;16</title>
<path fill="none" stroke="black" d="M1751.02,-179.5C1748.02,-171.27 1744.65,-162.02 1741.44,-153.23"/>
<polygon fill="black" stroke="black" points="1744.64,-151.77 1737.92,-143.58 1738.06,-154.17 1744.64,-151.77"/>
</g>
<!-- 18 -->
<g id="node20" class="node">
<title>18</title>
<ellipse fill="orange" stroke="black" cx="2014.45" cy="-116.61" rx="143.59" ry="26.74"/>
<text text-anchor="middle" x="2014.45" y="-120.41" font-family="Times,serif" font-size="14.00">simpl.</text>
<text text-anchor="middle" x="2014.45" y="-105.41" font-family="Times,serif" font-size="14.00">(0.004094851031467899)</text>
</g>
<!-- 15&#45;&gt;18 -->
<g id="edge19" class="edge">
<title>15&#45;&gt;18</title>
<path fill="none" stroke="black" d="M1827.52,-182.18C1861.51,-170.44 1902.93,-156.13 1938.13,-143.97"/>
<polygon fill="black" stroke="black" points="1939.58,-147.18 1947.89,-140.6 1937.29,-140.56 1939.58,-147.18"/>
</g>
<!-- 9 -->
<g id="node15" class="node">
<title>9</title>
<ellipse fill="orange" stroke="black" cx="864.45" cy="-26.87" rx="130.63" ry="26.74"/>
<text text-anchor="middle" x="864.45" y="-30.67" font-family="Times,serif" font-size="14.00">simpl.</text>
<text text-anchor="middle" x="864.45" y="-15.67" font-family="Times,serif" font-size="14.00">(0.7027518938792308)</text>
</g>
<!-- 8&#45;&gt;9 -->
<g id="edge14" class="edge">
<title>8&#45;&gt;9</title>
<path fill="none" stroke="black" d="M864.45,-89.29C864.45,-81.32 864.45,-72.43 864.45,-63.94"/>
<polygon fill="black" stroke="black" points="867.95,-63.87 864.45,-53.87 860.95,-63.87 867.95,-63.87"/>
</g>
<!-- 13 -->
<g id="node18" class="node">
<title>13</title>
<ellipse fill="orange" stroke="black" cx="1156.45" cy="-26.87" rx="137.36" ry="26.74"/>
<text text-anchor="middle" x="1156.45" y="-30.67" font-family="Times,serif" font-size="14.00">simpl.</text>
<text text-anchor="middle" x="1156.45" y="-15.67" font-family="Times,serif" font-size="14.00">(0.32116156289861986)</text>
</g>
<!-- 12&#45;&gt;13 -->
<g id="edge17" class="edge">
<title>12&#45;&gt;13</title>
<path fill="none" stroke="black" d="M1156.45,-89.29C1156.45,-81.32 1156.45,-72.43 1156.45,-63.94"/>
<polygon fill="black" stroke="black" points="1159.95,-63.87 1156.45,-53.87 1152.95,-63.87 1159.95,-63.87"/>
</g>
<!-- 17 -->
<g id="node21" class="node">
<title>17</title>
<ellipse fill="orange" stroke="black" cx="1728.45" cy="-26.87" rx="137.36" ry="26.74"/>
<text text-anchor="middle" x="1728.45" y="-30.67" font-family="Times,serif" font-size="14.00">simpl.</text>
<text text-anchor="middle" x="1728.45" y="-15.67" font-family="Times,serif" font-size="14.00">(0.32116156289861986)</text>
</g>
<!-- 16&#45;&gt;17 -->
<g id="edge20" class="edge">
<title>16&#45;&gt;17</title>
<path fill="none" stroke="black" d="M1728.45,-89.29C1728.45,-81.32 1728.45,-72.43 1728.45,-63.94"/>
<polygon fill="black" stroke="black" points="1731.95,-63.87 1728.45,-53.87 1724.95,-63.87 1731.95,-63.87"/>
</g>
<!-- 21 -->
<g id="node26" class="node">
<title>21</title>
<ellipse fill="orange" stroke="black" cx="2313.45" cy="-116.61" rx="137.36" ry="26.74"/>
<text text-anchor="middle" x="2313.45" y="-120.41" font-family="Times,serif" font-size="14.00">simpl.</text>
<text text-anchor="middle" x="2313.45" y="-105.41" font-family="Times,serif" font-size="14.00">(0.17566539700895267)</text>
</g>
<!-- 20&#45;&gt;21 -->
<g id="edge25" class="edge">
<title>20&#45;&gt;21</title>
<path fill="none" stroke="black" d="M2313.45,-179.03C2313.45,-171.06 2313.45,-162.17 2313.45,-153.68"/>
<polygon fill="black" stroke="black" points="2316.95,-153.61 2313.45,-143.61 2309.95,-153.61 2316.95,-153.61"/>
</g>
<!-- 22 -->
<g id="node27" class="node">
<title>22</title>
<ellipse fill="none" stroke="black" cx="2618.45" cy="-116.61" rx="149.81" ry="26.74"/>
<text text-anchor="middle" x="2618.45" y="-120.41" font-family="Times,serif" font-size="14.00">unfold double.</text>
<text text-anchor="middle" x="2618.45" y="-105.41" font-family="Times,serif" font-size="14.00">(0.0038221699429195535)</text>
</g>
<!-- 20&#45;&gt;22 -->
<g id="edge26" class="edge">
<title>20&#45;&gt;22</title>
<path fill="none" stroke="black" d="M2387.28,-184.11C2430.81,-171.59 2486.11,-155.68 2531.71,-142.56"/>
<polygon fill="black" stroke="black" points="2532.94,-145.85 2541.58,-139.72 2531,-139.13 2532.94,-145.85"/>
</g>
<!-- 26 -->
<g id="node29" class="node">
<title>26</title>
<ellipse fill="none" stroke="black" cx="2910.45" cy="-116.61" rx="124.4" ry="26.74"/>
<text text-anchor="middle" x="2910.45" y="-120.41" font-family="Times,serif" font-size="14.00">intros.</text>
<text text-anchor="middle" x="2910.45" y="-105.41" font-family="Times,serif" font-size="14.00">(0.986890878603013)</text>
</g>
<!-- 25&#45;&gt;26 -->
<g id="edge28" class="edge">
<title>25&#45;&gt;26</title>
<path fill="none" stroke="black" d="M2914.65,-179.03C2914.11,-171.06 2913.5,-162.17 2912.92,-153.68"/>
<polygon fill="black" stroke="black" points="2916.4,-153.35 2912.23,-143.61 2909.42,-153.83 2916.4,-153.35"/>
</g>
<!-- 28 -->
<g id="node30" class="node">
<title>28</title>
<ellipse fill="orange" stroke="black" cx="3196.45" cy="-116.61" rx="143.59" ry="26.74"/>
<text text-anchor="middle" x="3196.45" y="-120.41" font-family="Times,serif" font-size="14.00">simpl.</text>
<text text-anchor="middle" x="3196.45" y="-105.41" font-family="Times,serif" font-size="14.00">(0.004094851031467899)</text>
</g>
<!-- 25&#45;&gt;28 -->
<g id="edge29" class="edge">
<title>25&#45;&gt;28</title>
<path fill="none" stroke="black" d="M2988.56,-182.76C3027.33,-170.61 3075.26,-155.58 3115.33,-143.03"/>
<polygon fill="black" stroke="black" points="3116.58,-146.31 3125.07,-139.98 3114.48,-139.63 3116.58,-146.31"/>
</g>
<!-- 30 -->
<g id="node32" class="node">
<title>30</title>
<ellipse fill="none" stroke="black" cx="3482.45" cy="-116.61" rx="124.4" ry="26.74"/>
<text text-anchor="middle" x="3482.45" y="-120.41" font-family="Times,serif" font-size="14.00">intros.</text>
<text text-anchor="middle" x="3482.45" y="-105.41" font-family="Times,serif" font-size="14.00">(0.986890878603013)</text>
</g>
<!-- 29&#45;&gt;30 -->
<g id="edge31" class="edge">
<title>29&#45;&gt;30</title>
<path fill="none" stroke="black" d="M3482.45,-179.03C3482.45,-171.06 3482.45,-162.17 3482.45,-153.68"/>
<polygon fill="black" stroke="black" points="3485.95,-153.61 3482.45,-143.61 3478.95,-153.61 3485.95,-153.61"/>
</g>
<!-- 32 -->
<g id="node33" class="node">
<title>32</title>
<ellipse fill="orange" stroke="black" cx="3768.45" cy="-116.61" rx="143.59" ry="26.74"/>
<text text-anchor="middle" x="3768.45" y="-120.41" font-family="Times,serif" font-size="14.00">simpl.</text>
<text text-anchor="middle" x="3768.45" y="-105.41" font-family="Times,serif" font-size="14.00">(0.004094851031467899)</text>
</g>
<!-- 29&#45;&gt;32 -->
<g id="edge32" class="edge">
<title>29&#45;&gt;32</title>
<path fill="none" stroke="black" d="M3555.73,-182.87C3595.57,-170.65 3644.96,-155.49 3686.12,-142.87"/>
<polygon fill="black" stroke="black" points="3687.32,-146.16 3695.86,-139.88 3685.27,-139.47 3687.32,-146.16"/>
</g>
<!-- 23 -->
<g id="node28" class="node">
<title>23</title>
<ellipse fill="orange" stroke="black" cx="2618.45" cy="-26.87" rx="130.63" ry="26.74"/>
<text text-anchor="middle" x="2618.45" y="-30.67" font-family="Times,serif" font-size="14.00">simpl.</text>
<text text-anchor="middle" x="2618.45" y="-15.67" font-family="Times,serif" font-size="14.00">(0.7027518938792308)</text>
</g>
<!-- 22&#45;&gt;23 -->
<g id="edge27" class="edge">
<title>22&#45;&gt;23</title>
<path fill="none" stroke="black" d="M2618.45,-89.29C2618.45,-81.32 2618.45,-72.43 2618.45,-63.94"/>
<polygon fill="black" stroke="black" points="2621.95,-63.87 2618.45,-53.87 2614.95,-63.87 2621.95,-63.87"/>
</g>
<!-- 27 -->
<g id="node31" class="node">
<title>27</title>
<ellipse fill="orange" stroke="black" cx="2910.45" cy="-26.87" rx="137.36" ry="26.74"/>
<text text-anchor="middle" x="2910.45" y="-30.67" font-family="Times,serif" font-size="14.00">simpl.</text>
<text text-anchor="middle" x="2910.45" y="-15.67" font-family="Times,serif" font-size="14.00">(0.32116156289861986)</text>
</g>
<!-- 26&#45;&gt;27 -->
<g id="edge30" class="edge">
<title>26&#45;&gt;27</title>
<path fill="none" stroke="black" d="M2910.45,-89.29C2910.45,-81.32 2910.45,-72.43 2910.45,-63.94"/>
<polygon fill="black" stroke="black" points="2913.95,-63.87 2910.45,-53.87 2906.95,-63.87 2913.95,-63.87"/>
</g>
<!-- 31 -->
<g id="node34" class="node">
<title>31</title>
<ellipse fill="orange" stroke="black" cx="3482.45" cy="-26.87" rx="137.36" ry="26.74"/>
<text text-anchor="middle" x="3482.45" y="-30.67" font-family="Times,serif" font-size="14.00">simpl.</text>
<text text-anchor="middle" x="3482.45" y="-15.67" font-family="Times,serif" font-size="14.00">(0.32116156289861986)</text>
</g>
<!-- 30&#45;&gt;31 -->
<g id="edge33" class="edge">
<title>30&#45;&gt;31</title>
<path fill="none" stroke="black" d="M3482.45,-89.29C3482.45,-81.32 3482.45,-72.43 3482.45,-63.94"/>
<polygon fill="black" stroke="black" points="3485.95,-63.87 3482.45,-53.87 3478.95,-63.87 3485.95,-63.87"/>
</g>
</g>
</svg>
