<?xml version="1.0" encoding="UTF-8" standalone="no"?>
<!DOCTYPE svg PUBLIC "-//W3C//DTD SVG 1.1//EN"
 "http://www.w3.org/Graphics/SVG/1.1/DTD/svg11.dtd">
<!-- Generated by graphviz version 2.43.0 (0)
 -->
<!-- Pages: 1 -->
<svg width="1013pt" height="331pt"
 viewBox="0.00 0.00 1012.99 330.96" xmlns="http://www.w3.org/2000/svg" xmlns:xlink="http://www.w3.org/1999/xlink">
<g id="graph0" class="graph" transform="scale(1 1) rotate(0) translate(4 326.96)">
<polygon fill="white" stroke="transparent" points="-4,4 -4,-326.96 1008.99,-326.96 1008.99,4 -4,4"/>
<!-- 0 -->
<g id="node1" class="node">
<title>0</title>
<ellipse fill="none" stroke="black" cx="429.18" cy="-296.09" rx="164.51" ry="26.74"/>
<text text-anchor="middle" x="429.18" y="-299.89" font-family="Times,serif" font-size="14.00">critere_orthogonal_reciproque</text>
<text text-anchor="middle" x="429.18" y="-284.89" font-family="Times,serif" font-size="14.00">(1.0)</text>
</g>
<!-- 1 -->
<g id="node2" class="node">
<title>1</title>
<ellipse fill="none" stroke="black" cx="137.18" cy="-206.35" rx="130.63" ry="26.74"/>
<text text-anchor="middle" x="137.18" y="-210.15" font-family="Times,serif" font-size="14.00">intros.</text>
<text text-anchor="middle" x="137.18" y="-195.15" font-family="Times,serif" font-size="14.00">(0.9802069335284067)</text>
</g>
<!-- 0&#45;&gt;1 -->
<g id="edge1" class="edge">
<title>0&#45;&gt;1</title>
<path fill="none" stroke="black" d="M352.84,-272.15C311.61,-259.76 260.7,-244.47 218.7,-231.85"/>
<polygon fill="black" stroke="black" points="219.64,-228.47 209.05,-228.95 217.62,-235.18 219.64,-228.47"/>
</g>
<!-- 3 -->
<g id="node3" class="node">
<title>3</title>
<ellipse fill="orange" stroke="black" cx="429.18" cy="-206.35" rx="143.59" ry="26.74"/>
<text text-anchor="middle" x="429.18" y="-210.15" font-family="Times,serif" font-size="14.00">simpl.</text>
<text text-anchor="middle" x="429.18" y="-195.15" font-family="Times,serif" font-size="14.00">(0.010744124370170942)</text>
</g>
<!-- 0&#45;&gt;3 -->
<g id="edge2" class="edge">
<title>0&#45;&gt;3</title>
<path fill="none" stroke="black" d="M429.18,-268.77C429.18,-260.8 429.18,-251.91 429.18,-243.42"/>
<polygon fill="black" stroke="black" points="432.68,-243.35 429.18,-233.35 425.68,-243.35 432.68,-243.35"/>
</g>
<!-- 4 -->
<g id="node4" class="node">
<title>4</title>
<ellipse fill="none" stroke="black" cx="734.18" cy="-206.35" rx="143.59" ry="26.74"/>
<text text-anchor="middle" x="734.18" y="-210.15" font-family="Times,serif" font-size="14.00">unfold orthogonal.</text>
<text text-anchor="middle" x="734.18" y="-195.15" font-family="Times,serif" font-size="14.00">(0.001626214746768637)</text>
</g>
<!-- 0&#45;&gt;4 -->
<g id="edge3" class="edge">
<title>0&#45;&gt;4</title>
<path fill="none" stroke="black" d="M508.12,-272.38C551.11,-260.01 604.36,-244.69 648.38,-232.03"/>
<polygon fill="black" stroke="black" points="649.56,-235.34 658.2,-229.21 647.62,-228.61 649.56,-235.34"/>
</g>
<!-- 2 -->
<g id="node5" class="node">
<title>2</title>
<ellipse fill="orange" stroke="black" cx="137.18" cy="-116.61" rx="137.36" ry="26.74"/>
<text text-anchor="middle" x="137.18" y="-120.41" font-family="Times,serif" font-size="14.00">simpl.</text>
<text text-anchor="middle" x="137.18" y="-105.41" font-family="Times,serif" font-size="14.00">(0.07987365707118971)</text>
</g>
<!-- 1&#45;&gt;2 -->
<g id="edge4" class="edge">
<title>1&#45;&gt;2</title>
<path fill="none" stroke="black" d="M137.18,-179.03C137.18,-171.06 137.18,-162.17 137.18,-153.68"/>
<polygon fill="black" stroke="black" points="140.68,-153.61 137.18,-143.61 133.68,-153.61 140.68,-153.61"/>
</g>
<!-- 5 -->
<g id="node6" class="node">
<title>5</title>
<ellipse fill="none" stroke="black" cx="594.18" cy="-116.61" rx="130.63" ry="26.74"/>
<text text-anchor="middle" x="594.18" y="-120.41" font-family="Times,serif" font-size="14.00">intros.</text>
<text text-anchor="middle" x="594.18" y="-105.41" font-family="Times,serif" font-size="14.00">(0.9911557461572227)</text>
</g>
<!-- 4&#45;&gt;5 -->
<g id="edge5" class="edge">
<title>4&#45;&gt;5</title>
<path fill="none" stroke="black" d="M694.43,-180.44C678.19,-170.26 659.25,-158.39 642.24,-147.73"/>
<polygon fill="black" stroke="black" points="643.87,-144.62 633.54,-142.28 640.15,-150.55 643.87,-144.62"/>
</g>
<!-- 7 -->
<g id="node7" class="node">
<title>7</title>
<ellipse fill="orange" stroke="black" cx="874.18" cy="-116.61" rx="130.63" ry="26.74"/>
<text text-anchor="middle" x="874.18" y="-120.41" font-family="Times,serif" font-size="14.00">simpl.</text>
<text text-anchor="middle" x="874.18" y="-105.41" font-family="Times,serif" font-size="14.00">(0.0050361139842266)</text>
</g>
<!-- 4&#45;&gt;7 -->
<g id="edge6" class="edge">
<title>4&#45;&gt;7</title>
<path fill="none" stroke="black" d="M773.92,-180.44C790.17,-170.26 809.11,-158.39 826.12,-147.73"/>
<polygon fill="black" stroke="black" points="828.21,-150.55 834.82,-142.28 824.49,-144.62 828.21,-150.55"/>
</g>
<!-- 6 -->
<g id="node8" class="node">
<title>6</title>
<ellipse fill="orange" stroke="black" cx="594.18" cy="-26.87" rx="137.36" ry="26.74"/>
<text text-anchor="middle" x="594.18" y="-30.67" font-family="Times,serif" font-size="14.00">simpl.</text>
<text text-anchor="middle" x="594.18" y="-15.67" font-family="Times,serif" font-size="14.00">(0.05052773780387995)</text>
</g>
<!-- 5&#45;&gt;6 -->
<g id="edge7" class="edge">
<title>5&#45;&gt;6</title>
<path fill="none" stroke="black" d="M594.18,-89.29C594.18,-81.32 594.18,-72.43 594.18,-63.94"/>
<polygon fill="black" stroke="black" points="597.68,-63.87 594.18,-53.87 590.68,-63.87 597.68,-63.87"/>
</g>
</g>
</svg>
