<?xml version="1.0" encoding="UTF-8" standalone="no"?>
<!DOCTYPE svg PUBLIC "-//W3C//DTD SVG 1.1//EN"
 "http://www.w3.org/Graphics/SVG/1.1/DTD/svg11.dtd">
<!-- Generated by graphviz version 2.43.0 (0)
 -->
<!-- Pages: 1 -->
<svg width="2405pt" height="510pt"
 viewBox="0.00 0.00 2405.09 510.44" xmlns="http://www.w3.org/2000/svg" xmlns:xlink="http://www.w3.org/1999/xlink">
<g id="graph0" class="graph" transform="scale(1 1) rotate(0) translate(4 506.44)">
<polygon fill="white" stroke="transparent" points="-4,4 -4,-506.44 2401.09,-506.44 2401.09,4 -4,4"/>
<!-- 0 -->
<g id="node1" class="node">
<title>0</title>
<ellipse fill="none" stroke="black" cx="1170.18" cy="-475.57" rx="149.81" ry="26.74"/>
<text text-anchor="middle" x="1170.18" y="-479.37" font-family="Times,serif" font-size="14.00">isocele_hauteur_bissectrice</text>
<text text-anchor="middle" x="1170.18" y="-464.37" font-family="Times,serif" font-size="14.00">(1.0)</text>
</g>
<!-- 1 -->
<g id="node2" class="node">
<title>1</title>
<ellipse fill="none" stroke="black" cx="430.18" cy="-385.83" rx="130.63" ry="26.74"/>
<text text-anchor="middle" x="430.18" y="-389.63" font-family="Times,serif" font-size="14.00">intros.</text>
<text text-anchor="middle" x="430.18" y="-374.63" font-family="Times,serif" font-size="14.00">(0.9744960297307846)</text>
</g>
<!-- 0&#45;&gt;1 -->
<g id="edge1" class="edge">
<title>0&#45;&gt;1</title>
<path fill="none" stroke="black" d="M1047.57,-460.03C910.12,-443.74 688.62,-417.47 551.64,-401.23"/>
<polygon fill="black" stroke="black" points="551.86,-397.73 541.52,-400.03 551.04,-404.69 551.86,-397.73"/>
</g>
<!-- 4 -->
<g id="node3" class="node">
<title>4</title>
<ellipse fill="none" stroke="black" cx="865.18" cy="-385.83" rx="143.59" ry="26.74"/>
<text text-anchor="middle" x="865.18" y="-389.63" font-family="Times,serif" font-size="14.00">unfold isocele.</text>
<text text-anchor="middle" x="865.18" y="-374.63" font-family="Times,serif" font-size="14.00">(0.003968914915302249)</text>
</g>
<!-- 0&#45;&gt;4 -->
<g id="edge2" class="edge">
<title>0&#45;&gt;4</title>
<path fill="none" stroke="black" d="M1093.21,-452.43C1049.81,-439.94 995.49,-424.32 950.75,-411.45"/>
<polygon fill="black" stroke="black" points="951.64,-408.06 941.06,-408.66 949.7,-414.79 951.64,-408.06"/>
</g>
<!-- 10 -->
<g id="node4" class="node">
<title>10</title>
<ellipse fill="none" stroke="black" cx="1472.18" cy="-385.83" rx="149.81" ry="26.74"/>
<text text-anchor="middle" x="1472.18" y="-389.63" font-family="Times,serif" font-size="14.00">unfold orthogonal.</text>
<text text-anchor="middle" x="1472.18" y="-374.63" font-family="Times,serif" font-size="14.00">(0.0015500957855110432)</text>
</g>
<!-- 0&#45;&gt;10 -->
<g id="edge3" class="edge">
<title>0&#45;&gt;10</title>
<path fill="none" stroke="black" d="M1246.39,-452.43C1288.87,-440.09 1341.91,-424.68 1385.91,-411.89"/>
<polygon fill="black" stroke="black" points="1387.11,-415.19 1395.73,-409.04 1385.15,-408.47 1387.11,-415.19"/>
</g>
<!-- 22 -->
<g id="node5" class="node">
<title>22</title>
<ellipse fill="orange" stroke="black" cx="1790.18" cy="-385.83" rx="149.81" ry="26.74"/>
<text text-anchor="middle" x="1790.18" y="-389.63" font-family="Times,serif" font-size="14.00">eauto.</text>
<text text-anchor="middle" x="1790.18" y="-374.63" font-family="Times,serif" font-size="14.00">(0.0007765523974850493)</text>
</g>
<!-- 0&#45;&gt;22 -->
<g id="edge4" class="edge">
<title>0&#45;&gt;22</title>
<path fill="none" stroke="black" d="M1290.19,-459.4C1383.3,-447.4 1515.56,-429.86 1631.18,-412.7 1644.65,-410.7 1658.74,-408.53 1672.74,-406.32"/>
<polygon fill="black" stroke="black" points="1673.58,-409.73 1682.9,-404.7 1672.48,-402.81 1673.58,-409.73"/>
</g>
<!-- 2 -->
<g id="node6" class="node">
<title>2</title>
<ellipse fill="none" stroke="black" cx="137.18" cy="-296.09" rx="137.36" ry="26.74"/>
<text text-anchor="middle" x="137.18" y="-299.89" font-family="Times,serif" font-size="14.00">red.</text>
<text text-anchor="middle" x="137.18" y="-284.89" font-family="Times,serif" font-size="14.00">(0.06309223307691786)</text>
</g>
<!-- 1&#45;&gt;2 -->
<g id="edge5" class="edge">
<title>1&#45;&gt;2</title>
<path fill="none" stroke="black" d="M358.13,-363.25C316.22,-350.71 263.26,-334.84 219.68,-321.8"/>
<polygon fill="black" stroke="black" points="220.55,-318.4 209.97,-318.89 218.54,-325.11 220.55,-318.4"/>
</g>
<!-- 5 -->
<g id="node8" class="node">
<title>5</title>
<ellipse fill="none" stroke="black" cx="424.18" cy="-296.09" rx="130.63" ry="26.74"/>
<text text-anchor="middle" x="424.18" y="-299.89" font-family="Times,serif" font-size="14.00">intros.</text>
<text text-anchor="middle" x="424.18" y="-284.89" font-family="Times,serif" font-size="14.00">(0.9964823917283316)</text>
</g>
<!-- 4&#45;&gt;5 -->
<g id="edge7" class="edge">
<title>4&#45;&gt;5</title>
<path fill="none" stroke="black" d="M769.49,-365.79C697.63,-351.5 599.41,-331.95 526.09,-317.37"/>
<polygon fill="black" stroke="black" points="526.4,-313.86 515.91,-315.34 525.03,-320.73 526.4,-313.86"/>
</g>
<!-- 8 -->
<g id="node9" class="node">
<title>8</title>
<ellipse fill="orange" stroke="black" cx="716.18" cy="-296.09" rx="143.59" ry="26.74"/>
<text text-anchor="middle" x="716.18" y="-299.89" font-family="Times,serif" font-size="14.00">eauto.</text>
<text text-anchor="middle" x="716.18" y="-284.89" font-family="Times,serif" font-size="14.00">(0.001351385923316185)</text>
</g>
<!-- 4&#45;&gt;8 -->
<g id="edge8" class="edge">
<title>4&#45;&gt;8</title>
<path fill="none" stroke="black" d="M822.88,-359.92C805.5,-349.69 785.24,-337.76 767.06,-327.05"/>
<polygon fill="black" stroke="black" points="768.72,-323.97 758.33,-321.91 765.17,-330 768.72,-323.97"/>
</g>
<!-- 9 -->
<g id="node10" class="node">
<title>9</title>
<ellipse fill="orange" stroke="black" cx="1027.18" cy="-296.09" rx="149.81" ry="26.74"/>
<text text-anchor="middle" x="1027.18" y="-299.89" font-family="Times,serif" font-size="14.00">simpl.</text>
<text text-anchor="middle" x="1027.18" y="-284.89" font-family="Times,serif" font-size="14.00">(0.0005391609177832407)</text>
</g>
<!-- 4&#45;&gt;9 -->
<g id="edge9" class="edge">
<title>4&#45;&gt;9</title>
<path fill="none" stroke="black" d="M910.74,-360.16C929.97,-349.74 952.52,-337.52 972.64,-326.63"/>
<polygon fill="black" stroke="black" points="974.56,-329.57 981.68,-321.73 971.22,-323.42 974.56,-329.57"/>
</g>
<!-- 11 -->
<g id="node13" class="node">
<title>11</title>
<ellipse fill="none" stroke="black" cx="1326.18" cy="-296.09" rx="130.63" ry="26.74"/>
<text text-anchor="middle" x="1326.18" y="-299.89" font-family="Times,serif" font-size="14.00">intros.</text>
<text text-anchor="middle" x="1326.18" y="-284.89" font-family="Times,serif" font-size="14.00">(0.9814180530602905)</text>
</g>
<!-- 10&#45;&gt;11 -->
<g id="edge12" class="edge">
<title>10&#45;&gt;11</title>
<path fill="none" stroke="black" d="M1430.73,-359.92C1413.63,-349.65 1393.68,-337.65 1375.81,-326.91"/>
<polygon fill="black" stroke="black" points="1377.6,-323.91 1367.22,-321.76 1373.99,-329.91 1377.6,-323.91"/>
</g>
<!-- 14 -->
<g id="node14" class="node">
<title>14</title>
<ellipse fill="orange" stroke="black" cx="1618.18" cy="-296.09" rx="143.59" ry="26.74"/>
<text text-anchor="middle" x="1618.18" y="-299.89" font-family="Times,serif" font-size="14.00">simpl.</text>
<text text-anchor="middle" x="1618.18" y="-284.89" font-family="Times,serif" font-size="14.00">(0.010822754639346052)</text>
</g>
<!-- 10&#45;&gt;14 -->
<g id="edge13" class="edge">
<title>10&#45;&gt;14</title>
<path fill="none" stroke="black" d="M1513.63,-359.92C1530.5,-349.78 1550.15,-337.97 1567.84,-327.34"/>
<polygon fill="black" stroke="black" points="1570.11,-330.06 1576.88,-321.91 1566.51,-324.06 1570.11,-330.06"/>
</g>
<!-- 15 -->
<g id="node15" class="node">
<title>15</title>
<ellipse fill="none" stroke="black" cx="1929.18" cy="-296.09" rx="149.81" ry="26.74"/>
<text text-anchor="middle" x="1929.18" y="-299.89" font-family="Times,serif" font-size="14.00">unfold isocele.</text>
<text text-anchor="middle" x="1929.18" y="-284.89" font-family="Times,serif" font-size="14.00">(0.0029112455345413906)</text>
</g>
<!-- 10&#45;&gt;15 -->
<g id="edge14" class="edge">
<title>10&#45;&gt;15</title>
<path fill="none" stroke="black" d="M1571.9,-365.68C1645.05,-351.64 1744.33,-332.58 1819.67,-318.12"/>
<polygon fill="black" stroke="black" points="1820.5,-321.52 1829.67,-316.2 1819.18,-314.64 1820.5,-321.52"/>
</g>
<!-- 21 -->
<g id="node16" class="node">
<title>21</title>
<ellipse fill="orange" stroke="black" cx="2247.18" cy="-296.09" rx="149.81" ry="26.74"/>
<text text-anchor="middle" x="2247.18" y="-299.89" font-family="Times,serif" font-size="14.00">eauto.</text>
<text text-anchor="middle" x="2247.18" y="-284.89" font-family="Times,serif" font-size="14.00">(0.0017495206070432712)</text>
</g>
<!-- 10&#45;&gt;21 -->
<g id="edge15" class="edge">
<title>10&#45;&gt;21</title>
<path fill="none" stroke="black" d="M1576.78,-366.55C1594.88,-363.75 1613.55,-361.09 1631.18,-358.96 1833.46,-334.58 1885.9,-347.34 2088.18,-322.96 2102.5,-321.23 2117.51,-319.15 2132.35,-316.93"/>
<polygon fill="black" stroke="black" points="2133.22,-320.34 2142.58,-315.37 2132.17,-313.42 2133.22,-320.34"/>
</g>
<!-- 3 -->
<g id="node7" class="node">
<title>3</title>
<ellipse fill="orange" stroke="black" cx="134.18" cy="-206.35" rx="130.63" ry="26.74"/>
<text text-anchor="middle" x="134.18" y="-210.15" font-family="Times,serif" font-size="14.00">simpl.</text>
<text text-anchor="middle" x="134.18" y="-195.15" font-family="Times,serif" font-size="14.00">(0.3180233096607908)</text>
</g>
<!-- 2&#45;&gt;3 -->
<g id="edge6" class="edge">
<title>2&#45;&gt;3</title>
<path fill="none" stroke="black" d="M136.28,-268.77C136.01,-260.8 135.7,-251.91 135.41,-243.42"/>
<polygon fill="black" stroke="black" points="138.91,-243.23 135.07,-233.35 131.91,-243.47 138.91,-243.23"/>
</g>
<!-- 6 -->
<g id="node11" class="node">
<title>6</title>
<ellipse fill="none" stroke="black" cx="426.18" cy="-206.35" rx="143.59" ry="26.74"/>
<text text-anchor="middle" x="426.18" y="-210.15" font-family="Times,serif" font-size="14.00">red.</text>
<text text-anchor="middle" x="426.18" y="-195.15" font-family="Times,serif" font-size="14.00">(0.054006538830274405)</text>
</g>
<!-- 5&#45;&gt;6 -->
<g id="edge10" class="edge">
<title>5&#45;&gt;6</title>
<path fill="none" stroke="black" d="M424.78,-268.77C424.96,-260.8 425.16,-251.91 425.36,-243.42"/>
<polygon fill="black" stroke="black" points="428.86,-243.43 425.59,-233.35 421.86,-243.27 428.86,-243.43"/>
</g>
<!-- 7 -->
<g id="node12" class="node">
<title>7</title>
<ellipse fill="orange" stroke="black" cx="426.18" cy="-116.61" rx="130.63" ry="26.74"/>
<text text-anchor="middle" x="426.18" y="-120.41" font-family="Times,serif" font-size="14.00">simpl.</text>
<text text-anchor="middle" x="426.18" y="-105.41" font-family="Times,serif" font-size="14.00">(0.3077627310838474)</text>
</g>
<!-- 6&#45;&gt;7 -->
<g id="edge11" class="edge">
<title>6&#45;&gt;7</title>
<path fill="none" stroke="black" d="M426.18,-179.03C426.18,-171.06 426.18,-162.17 426.18,-153.68"/>
<polygon fill="black" stroke="black" points="429.68,-153.61 426.18,-143.61 422.68,-153.61 429.68,-153.61"/>
</g>
<!-- 12 -->
<g id="node17" class="node">
<title>12</title>
<ellipse fill="none" stroke="black" cx="1326.18" cy="-206.35" rx="137.36" ry="26.74"/>
<text text-anchor="middle" x="1326.18" y="-210.15" font-family="Times,serif" font-size="14.00">red.</text>
<text text-anchor="middle" x="1326.18" y="-195.15" font-family="Times,serif" font-size="14.00">(0.04026855332422555)</text>
</g>
<!-- 11&#45;&gt;12 -->
<g id="edge16" class="edge">
<title>11&#45;&gt;12</title>
<path fill="none" stroke="black" d="M1326.18,-268.77C1326.18,-260.8 1326.18,-251.91 1326.18,-243.42"/>
<polygon fill="black" stroke="black" points="1329.68,-243.35 1326.18,-233.35 1322.68,-243.35 1329.68,-243.35"/>
</g>
<!-- 16 -->
<g id="node19" class="node">
<title>16</title>
<ellipse fill="none" stroke="black" cx="1637.18" cy="-206.35" rx="130.63" ry="26.74"/>
<text text-anchor="middle" x="1637.18" y="-210.15" font-family="Times,serif" font-size="14.00">intros.</text>
<text text-anchor="middle" x="1637.18" y="-195.15" font-family="Times,serif" font-size="14.00">(0.9964795507498907)</text>
</g>
<!-- 15&#45;&gt;16 -->
<g id="edge18" class="edge">
<title>15&#45;&gt;16</title>
<path fill="none" stroke="black" d="M1854.74,-272.72C1813.2,-260.24 1761.39,-244.67 1718.75,-231.86"/>
<polygon fill="black" stroke="black" points="1719.55,-228.45 1708.96,-228.92 1717.53,-235.15 1719.55,-228.45"/>
</g>
<!-- 19 -->
<g id="node20" class="node">
<title>19</title>
<ellipse fill="orange" stroke="black" cx="1929.18" cy="-206.35" rx="143.59" ry="26.74"/>
<text text-anchor="middle" x="1929.18" y="-210.15" font-family="Times,serif" font-size="14.00">eauto.</text>
<text text-anchor="middle" x="1929.18" y="-195.15" font-family="Times,serif" font-size="14.00">(0.001351382056975576)</text>
</g>
<!-- 15&#45;&gt;19 -->
<g id="edge19" class="edge">
<title>15&#45;&gt;19</title>
<path fill="none" stroke="black" d="M1929.18,-268.77C1929.18,-260.8 1929.18,-251.91 1929.18,-243.42"/>
<polygon fill="black" stroke="black" points="1932.68,-243.35 1929.18,-233.35 1925.68,-243.35 1932.68,-243.35"/>
</g>
<!-- 20 -->
<g id="node21" class="node">
<title>20</title>
<ellipse fill="orange" stroke="black" cx="2240.18" cy="-206.35" rx="149.81" ry="26.74"/>
<text text-anchor="middle" x="2240.18" y="-210.15" font-family="Times,serif" font-size="14.00">simpl.</text>
<text text-anchor="middle" x="2240.18" y="-195.15" font-family="Times,serif" font-size="14.00">(0.0005391593752336882)</text>
</g>
<!-- 15&#45;&gt;20 -->
<g id="edge20" class="edge">
<title>15&#45;&gt;20</title>
<path fill="none" stroke="black" d="M2007.26,-273.06C2051.34,-260.63 2106.58,-245.04 2152.19,-232.17"/>
<polygon fill="black" stroke="black" points="2153.4,-235.47 2162.07,-229.39 2151.49,-228.73 2153.4,-235.47"/>
</g>
<!-- 13 -->
<g id="node18" class="node">
<title>13</title>
<ellipse fill="orange" stroke="black" cx="1326.18" cy="-116.61" rx="130.63" ry="26.74"/>
<text text-anchor="middle" x="1326.18" y="-120.41" font-family="Times,serif" font-size="14.00">simpl.</text>
<text text-anchor="middle" x="1326.18" y="-105.41" font-family="Times,serif" font-size="14.00">(0.3061704882263763)</text>
</g>
<!-- 12&#45;&gt;13 -->
<g id="edge17" class="edge">
<title>12&#45;&gt;13</title>
<path fill="none" stroke="black" d="M1326.18,-179.03C1326.18,-171.06 1326.18,-162.17 1326.18,-153.68"/>
<polygon fill="black" stroke="black" points="1329.68,-153.61 1326.18,-143.61 1322.68,-153.61 1329.68,-153.61"/>
</g>
<!-- 17 -->
<g id="node22" class="node">
<title>17</title>
<ellipse fill="none" stroke="black" cx="1637.18" cy="-116.61" rx="137.36" ry="26.74"/>
<text text-anchor="middle" x="1637.18" y="-120.41" font-family="Times,serif" font-size="14.00">red.</text>
<text text-anchor="middle" x="1637.18" y="-105.41" font-family="Times,serif" font-size="14.00">(0.03636397982795962)</text>
</g>
<!-- 16&#45;&gt;17 -->
<g id="edge21" class="edge">
<title>16&#45;&gt;17</title>
<path fill="none" stroke="black" d="M1637.18,-179.03C1637.18,-171.06 1637.18,-162.17 1637.18,-153.68"/>
<polygon fill="black" stroke="black" points="1640.68,-153.61 1637.18,-143.61 1633.68,-153.61 1640.68,-153.61"/>
</g>
<!-- 18 -->
<g id="node23" class="node">
<title>18</title>
<ellipse fill="orange" stroke="black" cx="1637.18" cy="-26.87" rx="130.63" ry="26.74"/>
<text text-anchor="middle" x="1637.18" y="-30.67" font-family="Times,serif" font-size="14.00">simpl.</text>
<text text-anchor="middle" x="1637.18" y="-15.67" font-family="Times,serif" font-size="14.00">(0.2966490317608092)</text>
</g>
<!-- 17&#45;&gt;18 -->
<g id="edge22" class="edge">
<title>17&#45;&gt;18</title>
<path fill="none" stroke="black" d="M1637.18,-89.29C1637.18,-81.32 1637.18,-72.43 1637.18,-63.94"/>
<polygon fill="black" stroke="black" points="1640.68,-63.87 1637.18,-53.87 1633.68,-63.87 1640.68,-63.87"/>
</g>
</g>
</svg>
