<?xml version="1.0" encoding="UTF-8" standalone="no"?>
<!DOCTYPE svg PUBLIC "-//W3C//DTD SVG 1.1//EN"
 "http://www.w3.org/Graphics/SVG/1.1/DTD/svg11.dtd">
<!-- Generated by graphviz version 2.43.0 (0)
 -->
<!-- Pages: 1 -->
<svg width="3517pt" height="331pt"
 viewBox="0.00 0.00 3517.09 330.96" xmlns="http://www.w3.org/2000/svg" xmlns:xlink="http://www.w3.org/1999/xlink">
<g id="graph0" class="graph" transform="scale(1 1) rotate(0) translate(4 326.96)">
<polygon fill="white" stroke="transparent" points="-4,4 -4,-326.96 3513.09,-326.96 3513.09,4 -4,4"/>
<!-- 0 -->
<g id="node1" class="node">
<title>0</title>
<ellipse fill="none" stroke="black" cx="1737.54" cy="-296.09" rx="91.85" ry="26.74"/>
<text text-anchor="middle" x="1737.54" y="-299.89" font-family="Times,serif" font-size="14.00">orthogonal_sym</text>
<text text-anchor="middle" x="1737.54" y="-284.89" font-family="Times,serif" font-size="14.00">(1.0)</text>
</g>
<!-- 1 -->
<g id="node2" class="node">
<title>1</title>
<ellipse fill="none" stroke="black" cx="435.54" cy="-206.35" rx="130.63" ry="26.74"/>
<text text-anchor="middle" x="435.54" y="-210.15" font-family="Times,serif" font-size="14.00">intros.</text>
<text text-anchor="middle" x="435.54" y="-195.15" font-family="Times,serif" font-size="14.00">(0.9437515135162626)</text>
</g>
<!-- 0&#45;&gt;1 -->
<g id="edge1" class="edge">
<title>0&#45;&gt;1</title>
<path fill="none" stroke="black" d="M1648.56,-289.09C1424.22,-273.98 834.5,-234.24 568.75,-216.33"/>
<polygon fill="black" stroke="black" points="568.87,-212.83 558.66,-215.65 568.4,-219.81 568.87,-212.83"/>
</g>
<!-- 6 -->
<g id="node3" class="node">
<title>6</title>
<ellipse fill="none" stroke="black" cx="1312.54" cy="-206.35" rx="143.59" ry="26.74"/>
<text text-anchor="middle" x="1312.54" y="-210.15" font-family="Times,serif" font-size="14.00">unfold orthogonal.</text>
<text text-anchor="middle" x="1312.54" y="-195.15" font-family="Times,serif" font-size="14.00">(0.009625810360873021)</text>
</g>
<!-- 0&#45;&gt;6 -->
<g id="edge2" class="edge">
<title>0&#45;&gt;6</title>
<path fill="none" stroke="black" d="M1664,-279.91C1595.67,-265.8 1493.22,-244.65 1416.53,-228.82"/>
<polygon fill="black" stroke="black" points="1416.87,-225.31 1406.37,-226.72 1415.45,-232.17 1416.87,-225.31"/>
</g>
<!-- 16 -->
<g id="node4" class="node">
<title>16</title>
<ellipse fill="orange" stroke="black" cx="1737.54" cy="-206.35" rx="143.59" ry="26.74"/>
<text text-anchor="middle" x="1737.54" y="-210.15" font-family="Times,serif" font-size="14.00">eauto.</text>
<text text-anchor="middle" x="1737.54" y="-195.15" font-family="Times,serif" font-size="14.00">(0.004732654162238816)</text>
</g>
<!-- 0&#45;&gt;16 -->
<g id="edge3" class="edge">
<title>0&#45;&gt;16</title>
<path fill="none" stroke="black" d="M1737.54,-268.77C1737.54,-260.8 1737.54,-251.91 1737.54,-243.42"/>
<polygon fill="black" stroke="black" points="1741.04,-243.35 1737.54,-233.35 1734.04,-243.35 1741.04,-243.35"/>
</g>
<!-- 17 -->
<g id="node5" class="node">
<title>17</title>
<ellipse fill="none" stroke="black" cx="2257.54" cy="-206.35" rx="149.81" ry="26.74"/>
<text text-anchor="middle" x="2257.54" y="-210.15" font-family="Times,serif" font-size="14.00">unfold orthogonal.</text>
<text text-anchor="middle" x="2257.54" y="-195.15" font-family="Times,serif" font-size="14.00">(0.0035003412025465686)</text>
</g>
<!-- 0&#45;&gt;17 -->
<g id="edge4" class="edge">
<title>0&#45;&gt;17</title>
<path fill="none" stroke="black" d="M1815.67,-281.91C1901.88,-267.36 2041.53,-243.8 2140.75,-227.06"/>
<polygon fill="black" stroke="black" points="2141.55,-230.47 2150.82,-225.36 2140.38,-223.57 2141.55,-230.47"/>
</g>
<!-- 27 -->
<g id="node6" class="node">
<title>27</title>
<ellipse fill="orange" stroke="black" cx="2575.54" cy="-206.35" rx="149.81" ry="26.74"/>
<text text-anchor="middle" x="2575.54" y="-210.15" font-family="Times,serif" font-size="14.00">simpl.</text>
<text text-anchor="middle" x="2575.54" y="-195.15" font-family="Times,serif" font-size="14.00">(0.0005444740219260947)</text>
</g>
<!-- 0&#45;&gt;27 -->
<g id="edge5" class="edge">
<title>0&#45;&gt;27</title>
<path fill="none" stroke="black" d="M1826.46,-288.99C1956.39,-279.63 2205.61,-259.96 2416.54,-233.22 2430.63,-231.43 2445.39,-229.34 2459.99,-227.13"/>
<polygon fill="black" stroke="black" points="2460.72,-230.56 2470.07,-225.58 2459.65,-223.64 2460.72,-230.56"/>
</g>
<!-- 2 -->
<g id="node7" class="node">
<title>2</title>
<ellipse fill="none" stroke="black" cx="143.54" cy="-116.61" rx="137.36" ry="26.74"/>
<text text-anchor="middle" x="143.54" y="-120.41" font-family="Times,serif" font-size="14.00">red.</text>
<text text-anchor="middle" x="143.54" y="-105.41" font-family="Times,serif" font-size="14.00">(0.08279099292238197)</text>
</g>
<!-- 1&#45;&gt;2 -->
<g id="edge6" class="edge">
<title>1&#45;&gt;2</title>
<path fill="none" stroke="black" d="M363.74,-183.77C322.06,-171.25 269.39,-155.42 226.01,-142.39"/>
<polygon fill="black" stroke="black" points="226.92,-139.01 216.34,-139.48 224.91,-145.71 226.92,-139.01"/>
</g>
<!-- 4 -->
<g id="node8" class="node">
<title>4</title>
<ellipse fill="none" stroke="black" cx="435.54" cy="-116.61" rx="137.36" ry="26.74"/>
<text text-anchor="middle" x="435.54" y="-120.41" font-family="Times,serif" font-size="14.00">eapply regulier.</text>
<text text-anchor="middle" x="435.54" y="-105.41" font-family="Times,serif" font-size="14.00">(0.06596820524515265)</text>
</g>
<!-- 1&#45;&gt;4 -->
<g id="edge7" class="edge">
<title>1&#45;&gt;4</title>
<path fill="none" stroke="black" d="M435.54,-179.03C435.54,-171.06 435.54,-162.17 435.54,-153.68"/>
<polygon fill="black" stroke="black" points="439.04,-153.61 435.54,-143.61 432.04,-153.61 439.04,-153.61"/>
</g>
<!-- 7 -->
<g id="node11" class="node">
<title>7</title>
<ellipse fill="none" stroke="black" cx="721.54" cy="-116.61" rx="130.63" ry="26.74"/>
<text text-anchor="middle" x="721.54" y="-120.41" font-family="Times,serif" font-size="14.00">intros.</text>
<text text-anchor="middle" x="721.54" y="-105.41" font-family="Times,serif" font-size="14.00">(0.9243696092729456)</text>
</g>
<!-- 6&#45;&gt;7 -->
<g id="edge10" class="edge">
<title>6&#45;&gt;7</title>
<path fill="none" stroke="black" d="M1194.78,-190.8C1103.42,-179.14 973.73,-161.75 860.54,-143.48 848.9,-141.6 836.73,-139.52 824.64,-137.37"/>
<polygon fill="black" stroke="black" points="824.98,-133.87 814.52,-135.55 823.75,-140.76 824.98,-133.87"/>
</g>
<!-- 9 -->
<g id="node12" class="node">
<title>9</title>
<ellipse fill="orange" stroke="black" cx="1013.54" cy="-116.61" rx="143.59" ry="26.74"/>
<text text-anchor="middle" x="1013.54" y="-120.41" font-family="Times,serif" font-size="14.00">simpl.</text>
<text text-anchor="middle" x="1013.54" y="-105.41" font-family="Times,serif" font-size="14.00">(0.062340671123429094)</text>
</g>
<!-- 6&#45;&gt;9 -->
<g id="edge11" class="edge">
<title>6&#45;&gt;9</title>
<path fill="none" stroke="black" d="M1237.48,-183.32C1195.1,-170.89 1142.01,-155.31 1098.16,-142.44"/>
<polygon fill="black" stroke="black" points="1098.96,-139.03 1088.38,-139.57 1096.99,-145.74 1098.96,-139.03"/>
</g>
<!-- 10 -->
<g id="node13" class="node">
<title>10</title>
<ellipse fill="none" stroke="black" cx="1312.54" cy="-116.61" rx="137.36" ry="26.74"/>
<text text-anchor="middle" x="1312.54" y="-120.41" font-family="Times,serif" font-size="14.00">unfold double.</text>
<text text-anchor="middle" x="1312.54" y="-105.41" font-family="Times,serif" font-size="14.00">(0.00355017621901678)</text>
</g>
<!-- 6&#45;&gt;10 -->
<g id="edge12" class="edge">
<title>6&#45;&gt;10</title>
<path fill="none" stroke="black" d="M1312.54,-179.03C1312.54,-171.06 1312.54,-162.17 1312.54,-153.68"/>
<polygon fill="black" stroke="black" points="1316.04,-153.61 1312.54,-143.61 1309.04,-153.61 1316.04,-153.61"/>
</g>
<!-- 13 -->
<g id="node14" class="node">
<title>13</title>
<ellipse fill="none" stroke="black" cx="1623.54" cy="-116.61" rx="156.04" ry="26.74"/>
<text text-anchor="middle" x="1623.54" y="-120.41" font-family="Times,serif" font-size="14.00">unfold double.</text>
<text text-anchor="middle" x="1623.54" y="-105.41" font-family="Times,serif" font-size="14.00">(0.00020555074518107845)</text>
</g>
<!-- 6&#45;&gt;13 -->
<g id="edge13" class="edge">
<title>6&#45;&gt;13</title>
<path fill="none" stroke="black" d="M1389.82,-183.55C1433.81,-171.14 1489.1,-155.54 1534.86,-142.63"/>
<polygon fill="black" stroke="black" points="1536.1,-145.92 1544.77,-139.83 1534.2,-139.18 1536.1,-145.92"/>
</g>
<!-- 18 -->
<g id="node20" class="node">
<title>18</title>
<ellipse fill="none" stroke="black" cx="2111.54" cy="-116.61" rx="130.63" ry="26.74"/>
<text text-anchor="middle" x="2111.54" y="-120.41" font-family="Times,serif" font-size="14.00">intros.</text>
<text text-anchor="middle" x="2111.54" y="-105.41" font-family="Times,serif" font-size="14.00">(0.9243696092729456)</text>
</g>
<!-- 17&#45;&gt;18 -->
<g id="edge19" class="edge">
<title>17&#45;&gt;18</title>
<path fill="none" stroke="black" d="M2216.1,-180.44C2199,-170.17 2179.04,-158.17 2161.17,-147.43"/>
<polygon fill="black" stroke="black" points="2162.96,-144.43 2152.59,-142.28 2159.36,-150.43 2162.96,-144.43"/>
</g>
<!-- 20 -->
<g id="node21" class="node">
<title>20</title>
<ellipse fill="orange" stroke="black" cx="2403.54" cy="-116.61" rx="143.59" ry="26.74"/>
<text text-anchor="middle" x="2403.54" y="-120.41" font-family="Times,serif" font-size="14.00">simpl.</text>
<text text-anchor="middle" x="2403.54" y="-105.41" font-family="Times,serif" font-size="14.00">(0.062340671123429094)</text>
</g>
<!-- 17&#45;&gt;20 -->
<g id="edge20" class="edge">
<title>17&#45;&gt;20</title>
<path fill="none" stroke="black" d="M2298.99,-180.44C2315.86,-170.3 2335.52,-158.49 2353.2,-147.86"/>
<polygon fill="black" stroke="black" points="2355.48,-150.58 2362.24,-142.43 2351.87,-144.58 2355.48,-150.58"/>
</g>
<!-- 21 -->
<g id="node22" class="node">
<title>21</title>
<ellipse fill="none" stroke="black" cx="2702.54" cy="-116.61" rx="137.36" ry="26.74"/>
<text text-anchor="middle" x="2702.54" y="-120.41" font-family="Times,serif" font-size="14.00">unfold double.</text>
<text text-anchor="middle" x="2702.54" y="-105.41" font-family="Times,serif" font-size="14.00">(0.00355017621901678)</text>
</g>
<!-- 17&#45;&gt;21 -->
<g id="edge21" class="edge">
<title>17&#45;&gt;21</title>
<path fill="none" stroke="black" d="M2355.75,-185.99C2427.62,-171.82 2524.96,-152.62 2598.22,-138.18"/>
<polygon fill="black" stroke="black" points="2599.26,-141.54 2608.4,-136.17 2597.91,-134.67 2599.26,-141.54"/>
</g>
<!-- 24 -->
<g id="node23" class="node">
<title>24</title>
<ellipse fill="none" stroke="black" cx="3073.54" cy="-116.61" rx="156.04" ry="26.74"/>
<text text-anchor="middle" x="3073.54" y="-120.41" font-family="Times,serif" font-size="14.00">unfold double.</text>
<text text-anchor="middle" x="3073.54" y="-105.41" font-family="Times,serif" font-size="14.00">(0.00020555074518107845)</text>
</g>
<!-- 17&#45;&gt;24 -->
<g id="edge22" class="edge">
<title>17&#45;&gt;24</title>
<path fill="none" stroke="black" d="M2362.57,-187.07C2380.54,-184.29 2399.05,-181.63 2416.54,-179.48 2607.77,-155.99 2656.82,-162.49 2848.54,-143.48 2877.63,-140.6 2908.8,-137.21 2938.39,-133.85"/>
<polygon fill="black" stroke="black" points="2938.82,-137.32 2948.36,-132.71 2938.03,-130.36 2938.82,-137.32"/>
</g>
<!-- 3 -->
<g id="node9" class="node">
<title>3</title>
<ellipse fill="orange" stroke="black" cx="143.54" cy="-26.87" rx="143.59" ry="26.74"/>
<text text-anchor="middle" x="143.54" y="-30.67" font-family="Times,serif" font-size="14.00">simpl.</text>
<text text-anchor="middle" x="143.54" y="-15.67" font-family="Times,serif" font-size="14.00">(0.030883510953218854)</text>
</g>
<!-- 2&#45;&gt;3 -->
<g id="edge8" class="edge">
<title>2&#45;&gt;3</title>
<path fill="none" stroke="black" d="M143.54,-89.29C143.54,-81.32 143.54,-72.43 143.54,-63.94"/>
<polygon fill="black" stroke="black" points="147.04,-63.87 143.54,-53.87 140.04,-63.87 147.04,-63.87"/>
</g>
<!-- 5 -->
<g id="node10" class="node">
<title>5</title>
<ellipse fill="blue" stroke="black" cx="435.54" cy="-26.87" rx="124.4" ry="26.74"/>
<text text-anchor="middle" x="435.54" y="-30.67" font-family="Times,serif" font-size="14.00">eauto.</text>
<text text-anchor="middle" x="435.54" y="-15.67" font-family="Times,serif" font-size="14.00">(0.996175429155136)</text>
</g>
<!-- 4&#45;&gt;5 -->
<g id="edge9" class="edge">
<title>4&#45;&gt;5</title>
<path fill="none" stroke="black" d="M435.54,-89.29C435.54,-81.32 435.54,-72.43 435.54,-63.94"/>
<polygon fill="black" stroke="black" points="439.04,-63.87 435.54,-53.87 432.04,-63.87 439.04,-63.87"/>
</g>
<!-- 8 -->
<g id="node15" class="node">
<title>8</title>
<ellipse fill="orange" stroke="black" cx="721.54" cy="-26.87" rx="143.59" ry="26.74"/>
<text text-anchor="middle" x="721.54" y="-30.67" font-family="Times,serif" font-size="14.00">simpl.</text>
<text text-anchor="middle" x="721.54" y="-15.67" font-family="Times,serif" font-size="14.00">(0.016952966097151544)</text>
</g>
<!-- 7&#45;&gt;8 -->
<g id="edge14" class="edge">
<title>7&#45;&gt;8</title>
<path fill="none" stroke="black" d="M721.54,-89.29C721.54,-81.32 721.54,-72.43 721.54,-63.94"/>
<polygon fill="black" stroke="black" points="725.04,-63.87 721.54,-53.87 718.04,-63.87 725.04,-63.87"/>
</g>
<!-- 11 -->
<g id="node16" class="node">
<title>11</title>
<ellipse fill="none" stroke="black" cx="1016.54" cy="-26.87" rx="130.63" ry="26.74"/>
<text text-anchor="middle" x="1016.54" y="-30.67" font-family="Times,serif" font-size="14.00">intros.</text>
<text text-anchor="middle" x="1016.54" y="-15.67" font-family="Times,serif" font-size="14.00">(0.9773848733469095)</text>
</g>
<!-- 10&#45;&gt;11 -->
<g id="edge15" class="edge">
<title>10&#45;&gt;11</title>
<path fill="none" stroke="black" d="M1238.99,-93.81C1196.41,-81.19 1142.71,-65.27 1098.75,-52.24"/>
<polygon fill="black" stroke="black" points="1099.53,-48.82 1088.94,-49.33 1097.54,-55.53 1099.53,-48.82"/>
</g>
<!-- 12 -->
<g id="node17" class="node">
<title>12</title>
<ellipse fill="orange" stroke="black" cx="1308.54" cy="-26.87" rx="143.59" ry="26.74"/>
<text text-anchor="middle" x="1308.54" y="-30.67" font-family="Times,serif" font-size="14.00">simpl.</text>
<text text-anchor="middle" x="1308.54" y="-15.67" font-family="Times,serif" font-size="14.00">(0.008918194950773436)</text>
</g>
<!-- 10&#45;&gt;12 -->
<g id="edge16" class="edge">
<title>10&#45;&gt;12</title>
<path fill="none" stroke="black" d="M1311.34,-89.29C1310.98,-81.32 1310.57,-72.43 1310.19,-63.94"/>
<polygon fill="black" stroke="black" points="1313.68,-63.7 1309.73,-53.87 1306.69,-64.02 1313.68,-63.7"/>
</g>
<!-- 14 -->
<g id="node18" class="node">
<title>14</title>
<ellipse fill="none" stroke="black" cx="1600.54" cy="-26.87" rx="130.63" ry="26.74"/>
<text text-anchor="middle" x="1600.54" y="-30.67" font-family="Times,serif" font-size="14.00">intros.</text>
<text text-anchor="middle" x="1600.54" y="-15.67" font-family="Times,serif" font-size="14.00">(0.9773848733469095)</text>
</g>
<!-- 13&#45;&gt;14 -->
<g id="edge17" class="edge">
<title>13&#45;&gt;14</title>
<path fill="none" stroke="black" d="M1616.77,-89.76C1614.63,-81.62 1612.24,-72.48 1609.95,-63.77"/>
<polygon fill="black" stroke="black" points="1613.27,-62.62 1607.35,-53.84 1606.5,-64.4 1613.27,-62.62"/>
</g>
<!-- 15 -->
<g id="node19" class="node">
<title>15</title>
<ellipse fill="orange" stroke="black" cx="1892.54" cy="-26.87" rx="143.59" ry="26.74"/>
<text text-anchor="middle" x="1892.54" y="-30.67" font-family="Times,serif" font-size="14.00">simpl.</text>
<text text-anchor="middle" x="1892.54" y="-15.67" font-family="Times,serif" font-size="14.00">(0.008918194950773436)</text>
</g>
<!-- 13&#45;&gt;15 -->
<g id="edge18" class="edge">
<title>13&#45;&gt;15</title>
<path fill="none" stroke="black" d="M1694.22,-92.56C1730.8,-80.63 1775.58,-66.02 1813.33,-53.71"/>
<polygon fill="black" stroke="black" points="1814.85,-56.89 1823.27,-50.47 1812.68,-50.24 1814.85,-56.89"/>
</g>
<!-- 19 -->
<g id="node24" class="node">
<title>19</title>
<ellipse fill="orange" stroke="black" cx="2197.54" cy="-26.87" rx="143.59" ry="26.74"/>
<text text-anchor="middle" x="2197.54" y="-30.67" font-family="Times,serif" font-size="14.00">simpl.</text>
<text text-anchor="middle" x="2197.54" y="-15.67" font-family="Times,serif" font-size="14.00">(0.016952966097151544)</text>
</g>
<!-- 18&#45;&gt;19 -->
<g id="edge23" class="edge">
<title>18&#45;&gt;19</title>
<path fill="none" stroke="black" d="M2136.88,-89.76C2145.8,-80.66 2155.95,-70.3 2165.37,-60.7"/>
<polygon fill="black" stroke="black" points="2167.89,-63.13 2172.39,-53.54 2162.89,-58.23 2167.89,-63.13"/>
</g>
<!-- 22 -->
<g id="node25" class="node">
<title>22</title>
<ellipse fill="none" stroke="black" cx="2489.54" cy="-26.87" rx="130.63" ry="26.74"/>
<text text-anchor="middle" x="2489.54" y="-30.67" font-family="Times,serif" font-size="14.00">intros.</text>
<text text-anchor="middle" x="2489.54" y="-15.67" font-family="Times,serif" font-size="14.00">(0.9773848733469095)</text>
</g>
<!-- 21&#45;&gt;22 -->
<g id="edge24" class="edge">
<title>21&#45;&gt;22</title>
<path fill="none" stroke="black" d="M2645.46,-92.1C2617.78,-80.7 2584.38,-66.94 2555.61,-55.08"/>
<polygon fill="black" stroke="black" points="2556.62,-51.72 2546.04,-51.14 2553.95,-58.19 2556.62,-51.72"/>
</g>
<!-- 23 -->
<g id="node26" class="node">
<title>23</title>
<ellipse fill="orange" stroke="black" cx="2781.54" cy="-26.87" rx="143.59" ry="26.74"/>
<text text-anchor="middle" x="2781.54" y="-30.67" font-family="Times,serif" font-size="14.00">simpl.</text>
<text text-anchor="middle" x="2781.54" y="-15.67" font-family="Times,serif" font-size="14.00">(0.008918194950773436)</text>
</g>
<!-- 21&#45;&gt;23 -->
<g id="edge25" class="edge">
<title>21&#45;&gt;23</title>
<path fill="none" stroke="black" d="M2725.82,-89.76C2733.93,-80.75 2743.16,-70.5 2751.73,-60.98"/>
<polygon fill="black" stroke="black" points="2754.34,-63.31 2758.43,-53.54 2749.14,-58.63 2754.34,-63.31"/>
</g>
<!-- 25 -->
<g id="node27" class="node">
<title>25</title>
<ellipse fill="none" stroke="black" cx="3073.54" cy="-26.87" rx="130.63" ry="26.74"/>
<text text-anchor="middle" x="3073.54" y="-30.67" font-family="Times,serif" font-size="14.00">intros.</text>
<text text-anchor="middle" x="3073.54" y="-15.67" font-family="Times,serif" font-size="14.00">(0.9773848733469095)</text>
</g>
<!-- 24&#45;&gt;25 -->
<g id="edge26" class="edge">
<title>24&#45;&gt;25</title>
<path fill="none" stroke="black" d="M3073.54,-89.29C3073.54,-81.32 3073.54,-72.43 3073.54,-63.94"/>
<polygon fill="black" stroke="black" points="3077.04,-63.87 3073.54,-53.87 3070.04,-63.87 3077.04,-63.87"/>
</g>
<!-- 26 -->
<g id="node28" class="node">
<title>26</title>
<ellipse fill="orange" stroke="black" cx="3365.54" cy="-26.87" rx="143.59" ry="26.74"/>
<text text-anchor="middle" x="3365.54" y="-30.67" font-family="Times,serif" font-size="14.00">simpl.</text>
<text text-anchor="middle" x="3365.54" y="-15.67" font-family="Times,serif" font-size="14.00">(0.008918194950773436)</text>
</g>
<!-- 24&#45;&gt;26 -->
<g id="edge27" class="edge">
<title>24&#45;&gt;26</title>
<path fill="none" stroke="black" d="M3148.74,-93.01C3189.58,-80.74 3240.17,-65.54 3282.2,-52.91"/>
<polygon fill="black" stroke="black" points="3283.29,-56.24 3291.86,-50.01 3281.28,-49.54 3283.29,-56.24"/>
</g>
</g>
</svg>
