<?xml version="1.0" encoding="UTF-8" standalone="no"?>
<!DOCTYPE svg PUBLIC "-//W3C//DTD SVG 1.1//EN"
 "http://www.w3.org/Graphics/SVG/1.1/DTD/svg11.dtd">
<!-- Generated by graphviz version 2.43.0 (0)
 -->
<!-- Pages: 1 -->
<svg width="581pt" height="241pt"
 viewBox="0.00 0.00 580.72 241.22" xmlns="http://www.w3.org/2000/svg" xmlns:xlink="http://www.w3.org/1999/xlink">
<g id="graph0" class="graph" transform="scale(1 1) rotate(0) translate(4 237.22)">
<polygon fill="white" stroke="transparent" points="-4,4 -4,-237.22 576.72,-237.22 576.72,4 -4,4"/>
<!-- 0 -->
<g id="node1" class="node">
<title>0</title>
<ellipse fill="none" stroke="black" cx="283.18" cy="-206.35" rx="47.25" ry="26.74"/>
<text text-anchor="middle" x="283.18" y="-210.15" font-family="Times,serif" font-size="14.00">u_oppv</text>
<text text-anchor="middle" x="283.18" y="-195.15" font-family="Times,serif" font-size="14.00">(1.0)</text>
</g>
<!-- 1 -->
<g id="node2" class="node">
<title>1</title>
<ellipse fill="none" stroke="black" cx="137.18" cy="-116.61" rx="130.63" ry="26.74"/>
<text text-anchor="middle" x="137.18" y="-120.41" font-family="Times,serif" font-size="14.00">intros.</text>
<text text-anchor="middle" x="137.18" y="-105.41" font-family="Times,serif" font-size="14.00">(0.9842655652438397)</text>
</g>
<!-- 0&#45;&gt;1 -->
<g id="edge1" class="edge">
<title>0&#45;&gt;1</title>
<path fill="none" stroke="black" d="M251.5,-186.31C232.63,-174.97 208.27,-160.33 186.88,-147.48"/>
<polygon fill="black" stroke="black" points="188.61,-144.44 178.24,-142.28 185,-150.44 188.61,-144.44"/>
</g>
<!-- 3 -->
<g id="node3" class="node">
<title>3</title>
<ellipse fill="orange" stroke="black" cx="429.18" cy="-116.61" rx="143.59" ry="26.74"/>
<text text-anchor="middle" x="429.18" y="-120.41" font-family="Times,serif" font-size="14.00">simpl.</text>
<text text-anchor="middle" x="429.18" y="-105.41" font-family="Times,serif" font-size="14.00">(0.002508304599492215)</text>
</g>
<!-- 0&#45;&gt;3 -->
<g id="edge2" class="edge">
<title>0&#45;&gt;3</title>
<path fill="none" stroke="black" d="M314.86,-186.31C333.65,-175.02 357.9,-160.45 379.22,-147.63"/>
<polygon fill="black" stroke="black" points="381.08,-150.6 387.85,-142.45 377.47,-144.6 381.08,-150.6"/>
</g>
<!-- 2 -->
<g id="node4" class="node">
<title>2</title>
<ellipse fill="orange" stroke="black" cx="137.18" cy="-26.87" rx="137.36" ry="26.74"/>
<text text-anchor="middle" x="137.18" y="-30.67" font-family="Times,serif" font-size="14.00">simpl.</text>
<text text-anchor="middle" x="137.18" y="-15.67" font-family="Times,serif" font-size="14.00">(0.31057832567054783)</text>
</g>
<!-- 1&#45;&gt;2 -->
<g id="edge3" class="edge">
<title>1&#45;&gt;2</title>
<path fill="none" stroke="black" d="M137.18,-89.29C137.18,-81.32 137.18,-72.43 137.18,-63.94"/>
<polygon fill="black" stroke="black" points="140.68,-63.87 137.18,-53.87 133.68,-63.87 140.68,-63.87"/>
</g>
</g>
</svg>
