<?xml version="1.0" encoding="UTF-8" standalone="no"?>
<!DOCTYPE svg PUBLIC "-//W3C//DTD SVG 1.1//EN"
 "http://www.w3.org/Graphics/SVG/1.1/DTD/svg11.dtd">
<!-- Generated by graphviz version 2.43.0 (0)
 -->
<!-- Pages: 1 -->
<svg width="2302pt" height="331pt"
 viewBox="0.00 0.00 2302.36 330.96" xmlns="http://www.w3.org/2000/svg" xmlns:xlink="http://www.w3.org/1999/xlink">
<g id="graph0" class="graph" transform="scale(1 1) rotate(0) translate(4 326.96)">
<polygon fill="white" stroke="transparent" points="-4,4 -4,-326.96 2298.36,-326.96 2298.36,4 -4,4"/>
<!-- 0 -->
<g id="node1" class="node">
<title>0</title>
<ellipse fill="none" stroke="black" cx="1155.18" cy="-296.09" rx="73.58" ry="26.74"/>
<text text-anchor="middle" x="1155.18" y="-299.89" font-family="Times,serif" font-size="14.00">pi_plus_zero</text>
<text text-anchor="middle" x="1155.18" y="-284.89" font-family="Times,serif" font-size="14.00">(1.0)</text>
</g>
<!-- 1 -->
<g id="node2" class="node">
<title>1</title>
<ellipse fill="none" stroke="black" cx="1155.18" cy="-206.35" rx="143.59" ry="26.74"/>
<text text-anchor="middle" x="1155.18" y="-210.15" font-family="Times,serif" font-size="14.00">generalize pi_plus_pi.</text>
<text text-anchor="middle" x="1155.18" y="-195.15" font-family="Times,serif" font-size="14.00">(0.015437051077363192)</text>
</g>
<!-- 0&#45;&gt;1 -->
<g id="edge1" class="edge">
<title>0&#45;&gt;1</title>
<path fill="none" stroke="black" d="M1155.18,-268.77C1155.18,-260.8 1155.18,-251.91 1155.18,-243.42"/>
<polygon fill="black" stroke="black" points="1158.68,-243.35 1155.18,-233.35 1151.68,-243.35 1158.68,-243.35"/>
</g>
<!-- 2 -->
<g id="node3" class="node">
<title>2</title>
<ellipse fill="none" stroke="black" cx="429.18" cy="-116.61" rx="130.63" ry="26.74"/>
<text text-anchor="middle" x="429.18" y="-120.41" font-family="Times,serif" font-size="14.00">intros.</text>
<text text-anchor="middle" x="429.18" y="-105.41" font-family="Times,serif" font-size="14.00">(0.1697635708112351)</text>
</g>
<!-- 1&#45;&gt;2 -->
<g id="edge2" class="edge">
<title>1&#45;&gt;2</title>
<path fill="none" stroke="black" d="M1036.92,-191.06C902.76,-174.84 685.12,-148.54 549.94,-132.2"/>
<polygon fill="black" stroke="black" points="550.29,-128.72 539.94,-131 549.45,-135.67 550.29,-128.72"/>
</g>
<!-- 5 -->
<g id="node4" class="node">
<title>5</title>
<ellipse fill="none" stroke="black" cx="1006.18" cy="-116.61" rx="137.36" ry="26.74"/>
<text text-anchor="middle" x="1006.18" y="-120.41" font-family="Times,serif" font-size="14.00">generalize pi.</text>
<text text-anchor="middle" x="1006.18" y="-105.41" font-family="Times,serif" font-size="14.00">(0.04029201484042254)</text>
</g>
<!-- 1&#45;&gt;5 -->
<g id="edge3" class="edge">
<title>1&#45;&gt;5</title>
<path fill="none" stroke="black" d="M1112.88,-180.44C1095.43,-170.17 1075.06,-158.17 1056.83,-147.43"/>
<polygon fill="black" stroke="black" points="1058.46,-144.34 1048.07,-142.28 1054.91,-150.37 1058.46,-144.34"/>
</g>
<!-- 8 -->
<g id="node5" class="node">
<title>8</title>
<ellipse fill="none" stroke="black" cx="1305.18" cy="-116.61" rx="143.59" ry="26.74"/>
<text text-anchor="middle" x="1305.18" y="-120.41" font-family="Times,serif" font-size="14.00">generalize zero.</text>
<text text-anchor="middle" x="1305.18" y="-105.41" font-family="Times,serif" font-size="14.00">(0.039686340120238486)</text>
</g>
<!-- 1&#45;&gt;8 -->
<g id="edge4" class="edge">
<title>1&#45;&gt;8</title>
<path fill="none" stroke="black" d="M1197.76,-180.44C1215.25,-170.21 1235.66,-158.27 1253.96,-147.57"/>
<polygon fill="black" stroke="black" points="1255.88,-150.5 1262.75,-142.43 1252.35,-144.46 1255.88,-150.5"/>
</g>
<!-- 11 -->
<g id="node6" class="node">
<title>11</title>
<ellipse fill="none" stroke="black" cx="1865.18" cy="-116.61" rx="137.36" ry="26.74"/>
<text text-anchor="middle" x="1865.18" y="-120.41" font-family="Times,serif" font-size="14.00">generalize pi.</text>
<text text-anchor="middle" x="1865.18" y="-105.41" font-family="Times,serif" font-size="14.00">(0.02417859801986304)</text>
</g>
<!-- 1&#45;&gt;11 -->
<g id="edge5" class="edge">
<title>1&#45;&gt;11</title>
<path fill="none" stroke="black" d="M1272.82,-190.81C1402.26,-174.82 1609.39,-149.22 1741.27,-132.92"/>
<polygon fill="black" stroke="black" points="1741.93,-136.37 1751.42,-131.67 1741.07,-129.42 1741.93,-136.37"/>
</g>
<!-- 3 -->
<g id="node7" class="node">
<title>3</title>
<ellipse fill="orange" stroke="black" cx="137.18" cy="-26.87" rx="137.36" ry="26.74"/>
<text text-anchor="middle" x="137.18" y="-30.67" font-family="Times,serif" font-size="14.00">try discriminate.</text>
<text text-anchor="middle" x="137.18" y="-15.67" font-family="Times,serif" font-size="14.00">(0.07132873900122862)</text>
</g>
<!-- 2&#45;&gt;3 -->
<g id="edge6" class="edge">
<title>2&#45;&gt;3</title>
<path fill="none" stroke="black" d="M357.37,-94.03C315.69,-81.51 263.02,-65.68 219.65,-52.65"/>
<polygon fill="black" stroke="black" points="220.56,-49.27 209.97,-49.74 218.54,-55.97 220.56,-49.27"/>
</g>
<!-- 4 -->
<g id="node8" class="node">
<title>4</title>
<ellipse fill="orange" stroke="black" cx="429.18" cy="-26.87" rx="137.36" ry="26.74"/>
<text text-anchor="middle" x="429.18" y="-30.67" font-family="Times,serif" font-size="14.00">eauto.</text>
<text text-anchor="middle" x="429.18" y="-15.67" font-family="Times,serif" font-size="14.00">(0.05045783072242384)</text>
</g>
<!-- 2&#45;&gt;4 -->
<g id="edge7" class="edge">
<title>2&#45;&gt;4</title>
<path fill="none" stroke="black" d="M429.18,-89.29C429.18,-81.32 429.18,-72.43 429.18,-63.94"/>
<polygon fill="black" stroke="black" points="432.68,-63.87 429.18,-53.87 425.68,-63.87 432.68,-63.87"/>
</g>
<!-- 6 -->
<g id="node9" class="node">
<title>6</title>
<ellipse fill="orange" stroke="black" cx="721.18" cy="-26.87" rx="137.36" ry="26.74"/>
<text text-anchor="middle" x="721.18" y="-30.67" font-family="Times,serif" font-size="14.00">compute.</text>
<text text-anchor="middle" x="721.18" y="-15.67" font-family="Times,serif" font-size="14.00">(0.34327794631193415)</text>
</g>
<!-- 5&#45;&gt;6 -->
<g id="edge8" class="edge">
<title>5&#45;&gt;6</title>
<path fill="none" stroke="black" d="M934.63,-93.58C894.4,-81.2 844.04,-65.69 802.34,-52.86"/>
<polygon fill="black" stroke="black" points="803.34,-49.5 792.76,-49.91 801.29,-56.19 803.34,-49.5"/>
</g>
<!-- 7 -->
<g id="node10" class="node">
<title>7</title>
<ellipse fill="none" stroke="black" cx="1013.18" cy="-26.87" rx="137.36" ry="26.74"/>
<text text-anchor="middle" x="1013.18" y="-30.67" font-family="Times,serif" font-size="14.00">intros.</text>
<text text-anchor="middle" x="1013.18" y="-15.67" font-family="Times,serif" font-size="14.00">(0.21684301525213664)</text>
</g>
<!-- 5&#45;&gt;7 -->
<g id="edge9" class="edge">
<title>5&#45;&gt;7</title>
<path fill="none" stroke="black" d="M1008.28,-89.29C1008.91,-81.32 1009.62,-72.43 1010.3,-63.94"/>
<polygon fill="black" stroke="black" points="1013.8,-64.12 1011.1,-53.87 1006.82,-63.56 1013.8,-64.12"/>
</g>
<!-- 9 -->
<g id="node11" class="node">
<title>9</title>
<ellipse fill="orange" stroke="black" cx="1299.18" cy="-26.87" rx="130.63" ry="26.74"/>
<text text-anchor="middle" x="1299.18" y="-30.67" font-family="Times,serif" font-size="14.00">compute.</text>
<text text-anchor="middle" x="1299.18" y="-15.67" font-family="Times,serif" font-size="14.00">(0.3473563222942622)</text>
</g>
<!-- 8&#45;&gt;9 -->
<g id="edge10" class="edge">
<title>8&#45;&gt;9</title>
<path fill="none" stroke="black" d="M1303.38,-89.29C1302.83,-81.32 1302.23,-72.43 1301.65,-63.94"/>
<polygon fill="black" stroke="black" points="1305.13,-63.61 1300.96,-53.87 1298.15,-64.09 1305.13,-63.61"/>
</g>
<!-- 10 -->
<g id="node12" class="node">
<title>10</title>
<ellipse fill="none" stroke="black" cx="1579.18" cy="-26.87" rx="130.63" ry="26.74"/>
<text text-anchor="middle" x="1579.18" y="-30.67" font-family="Times,serif" font-size="14.00">intros.</text>
<text text-anchor="middle" x="1579.18" y="-15.67" font-family="Times,serif" font-size="14.00">(0.2194192580747277)</text>
</g>
<!-- 8&#45;&gt;10 -->
<g id="edge11" class="edge">
<title>8&#45;&gt;10</title>
<path fill="none" stroke="black" d="M1375.38,-93.13C1413.76,-80.84 1461.4,-65.59 1500.96,-52.92"/>
<polygon fill="black" stroke="black" points="1502.12,-56.22 1510.58,-49.84 1499.99,-49.55 1502.12,-56.22"/>
</g>
<!-- 12 -->
<g id="node13" class="node">
<title>12</title>
<ellipse fill="orange" stroke="black" cx="1865.18" cy="-26.87" rx="137.36" ry="26.74"/>
<text text-anchor="middle" x="1865.18" y="-30.67" font-family="Times,serif" font-size="14.00">compute.</text>
<text text-anchor="middle" x="1865.18" y="-15.67" font-family="Times,serif" font-size="14.00">(0.34327794631193415)</text>
</g>
<!-- 11&#45;&gt;12 -->
<g id="edge12" class="edge">
<title>11&#45;&gt;12</title>
<path fill="none" stroke="black" d="M1865.18,-89.29C1865.18,-81.32 1865.18,-72.43 1865.18,-63.94"/>
<polygon fill="black" stroke="black" points="1868.68,-63.87 1865.18,-53.87 1861.68,-63.87 1868.68,-63.87"/>
</g>
<!-- 13 -->
<g id="node14" class="node">
<title>13</title>
<ellipse fill="none" stroke="black" cx="2157.18" cy="-26.87" rx="137.36" ry="26.74"/>
<text text-anchor="middle" x="2157.18" y="-30.67" font-family="Times,serif" font-size="14.00">intros.</text>
<text text-anchor="middle" x="2157.18" y="-15.67" font-family="Times,serif" font-size="14.00">(0.21684301525213664)</text>
</g>
<!-- 11&#45;&gt;13 -->
<g id="edge13" class="edge">
<title>11&#45;&gt;13</title>
<path fill="none" stroke="black" d="M1938.11,-93.7C1979.65,-81.21 2031.82,-65.54 2074.83,-52.62"/>
<polygon fill="black" stroke="black" points="2075.85,-55.96 2084.42,-49.73 2073.83,-49.26 2075.85,-55.96"/>
</g>
</g>
</svg>
