<?xml version="1.0" encoding="UTF-8" standalone="no"?>
<!DOCTYPE svg PUBLIC "-//W3C//DTD SVG 1.1//EN"
 "http://www.w3.org/Graphics/SVG/1.1/DTD/svg11.dtd">
<!-- Generated by graphviz version 2.43.0 (0)
 -->
<!-- Pages: 1 -->
<svg width="2989pt" height="421pt"
 viewBox="0.00 0.00 2988.72 420.70" xmlns="http://www.w3.org/2000/svg" xmlns:xlink="http://www.w3.org/1999/xlink">
<g id="graph0" class="graph" transform="scale(1 1) rotate(0) translate(4 416.7)">
<polygon fill="white" stroke="transparent" points="-4,4 -4,-416.7 2984.72,-416.7 2984.72,4 -4,4"/>
<!-- 0 -->
<g id="node1" class="node">
<title>0</title>
<ellipse fill="none" stroke="black" cx="731.18" cy="-385.83" rx="130.63" ry="26.74"/>
<text text-anchor="middle" x="731.18" y="-389.63" font-family="Times,serif" font-size="14.00">unicite_perpendiculaire</text>
<text text-anchor="middle" x="731.18" y="-374.63" font-family="Times,serif" font-size="14.00">(1.0)</text>
</g>
<!-- 1 -->
<g id="node2" class="node">
<title>1</title>
<ellipse fill="none" stroke="black" cx="293.18" cy="-296.09" rx="130.63" ry="26.74"/>
<text text-anchor="middle" x="293.18" y="-299.89" font-family="Times,serif" font-size="14.00">intros.</text>
<text text-anchor="middle" x="293.18" y="-284.89" font-family="Times,serif" font-size="14.00">(0.9545769025776383)</text>
</g>
<!-- 0&#45;&gt;1 -->
<g id="edge1" class="edge">
<title>0&#45;&gt;1</title>
<path fill="none" stroke="black" d="M639.89,-366.54C568.27,-352.2 468.63,-332.24 394.54,-317.4"/>
<polygon fill="black" stroke="black" points="395.22,-313.96 384.72,-315.43 393.84,-320.82 395.22,-313.96"/>
</g>
<!-- 4 -->
<g id="node3" class="node">
<title>4</title>
<ellipse fill="none" stroke="black" cx="731.18" cy="-296.09" rx="143.59" ry="26.74"/>
<text text-anchor="middle" x="731.18" y="-299.89" font-family="Times,serif" font-size="14.00">unfold colineaire.</text>
<text text-anchor="middle" x="731.18" y="-284.89" font-family="Times,serif" font-size="14.00">(0.007257836590793006)</text>
</g>
<!-- 0&#45;&gt;4 -->
<g id="edge2" class="edge">
<title>0&#45;&gt;4</title>
<path fill="none" stroke="black" d="M731.18,-358.51C731.18,-350.54 731.18,-341.65 731.18,-333.16"/>
<polygon fill="black" stroke="black" points="734.68,-333.09 731.18,-323.09 727.68,-333.09 734.68,-333.09"/>
</g>
<!-- 11 -->
<g id="node4" class="node">
<title>11</title>
<ellipse fill="none" stroke="black" cx="1645.18" cy="-296.09" rx="149.81" ry="26.74"/>
<text text-anchor="middle" x="1645.18" y="-299.89" font-family="Times,serif" font-size="14.00">unfold orthogonal.</text>
<text text-anchor="middle" x="1645.18" y="-284.89" font-family="Times,serif" font-size="14.00">(0.0038395271304399493)</text>
</g>
<!-- 0&#45;&gt;11 -->
<g id="edge3" class="edge">
<title>0&#45;&gt;11</title>
<path fill="none" stroke="black" d="M847.87,-373.63C1015.78,-357.51 1325.1,-327.82 1505.12,-310.54"/>
<polygon fill="black" stroke="black" points="1505.57,-314.01 1515.19,-309.57 1504.9,-307.04 1505.57,-314.01"/>
</g>
<!-- 2 -->
<g id="node5" class="node">
<title>2</title>
<ellipse fill="none" stroke="black" cx="143.18" cy="-206.35" rx="137.36" ry="26.74"/>
<text text-anchor="middle" x="143.18" y="-210.15" font-family="Times,serif" font-size="14.00">red.</text>
<text text-anchor="middle" x="143.18" y="-195.15" font-family="Times,serif" font-size="14.00">(0.07396449605141896)</text>
</g>
<!-- 1&#45;&gt;2 -->
<g id="edge4" class="edge">
<title>1&#45;&gt;2</title>
<path fill="none" stroke="black" d="M251,-270.42C233.35,-260.09 212.68,-248 194.19,-237.19"/>
<polygon fill="black" stroke="black" points="195.7,-234.02 185.3,-231.99 192.17,-240.06 195.7,-234.02"/>
</g>
<!-- 5 -->
<g id="node7" class="node">
<title>5</title>
<ellipse fill="none" stroke="black" cx="432.18" cy="-206.35" rx="130.63" ry="26.74"/>
<text text-anchor="middle" x="432.18" y="-210.15" font-family="Times,serif" font-size="14.00">intros.</text>
<text text-anchor="middle" x="432.18" y="-195.15" font-family="Times,serif" font-size="14.00">(0.9869183963333267)</text>
</g>
<!-- 4&#45;&gt;5 -->
<g id="edge6" class="edge">
<title>4&#45;&gt;5</title>
<path fill="none" stroke="black" d="M656.11,-273.06C613.09,-260.44 559.03,-244.57 514.81,-231.6"/>
<polygon fill="black" stroke="black" points="515.53,-228.16 504.95,-228.7 513.56,-234.88 515.53,-228.16"/>
</g>
<!-- 7 -->
<g id="node8" class="node">
<title>7</title>
<ellipse fill="orange" stroke="black" cx="731.18" cy="-206.35" rx="149.81" ry="26.74"/>
<text text-anchor="middle" x="731.18" y="-210.15" font-family="Times,serif" font-size="14.00">simpl.</text>
<text text-anchor="middle" x="731.18" y="-195.15" font-family="Times,serif" font-size="14.00">(0.0035790273563859245)</text>
</g>
<!-- 4&#45;&gt;7 -->
<g id="edge7" class="edge">
<title>4&#45;&gt;7</title>
<path fill="none" stroke="black" d="M731.18,-268.77C731.18,-260.8 731.18,-251.91 731.18,-243.42"/>
<polygon fill="black" stroke="black" points="734.68,-243.35 731.18,-233.35 727.68,-243.35 734.68,-243.35"/>
</g>
<!-- 8 -->
<g id="node9" class="node">
<title>8</title>
<ellipse fill="none" stroke="black" cx="1049.18" cy="-206.35" rx="149.81" ry="26.74"/>
<text text-anchor="middle" x="1049.18" y="-210.15" font-family="Times,serif" font-size="14.00">unfold double.</text>
<text text-anchor="middle" x="1049.18" y="-195.15" font-family="Times,serif" font-size="14.00">(0.0002791493808961175)</text>
</g>
<!-- 4&#45;&gt;8 -->
<g id="edge8" class="edge">
<title>4&#45;&gt;8</title>
<path fill="none" stroke="black" d="M809.38,-273.51C855.06,-260.91 912.85,-244.96 960.26,-231.88"/>
<polygon fill="black" stroke="black" points="961.19,-235.26 969.9,-229.22 959.33,-228.51 961.19,-235.26"/>
</g>
<!-- 12 -->
<g id="node13" class="node">
<title>12</title>
<ellipse fill="none" stroke="black" cx="1353.18" cy="-206.35" rx="130.63" ry="26.74"/>
<text text-anchor="middle" x="1353.18" y="-210.15" font-family="Times,serif" font-size="14.00">intros.</text>
<text text-anchor="middle" x="1353.18" y="-195.15" font-family="Times,serif" font-size="14.00">(0.9836811992947894)</text>
</g>
<!-- 11&#45;&gt;12 -->
<g id="edge12" class="edge">
<title>11&#45;&gt;12</title>
<path fill="none" stroke="black" d="M1570.74,-272.72C1529.2,-260.24 1477.39,-244.67 1434.75,-231.86"/>
<polygon fill="black" stroke="black" points="1435.55,-228.45 1424.96,-228.92 1433.53,-235.15 1435.55,-228.45"/>
</g>
<!-- 15 -->
<g id="node14" class="node">
<title>15</title>
<ellipse fill="orange" stroke="black" cx="1645.18" cy="-206.35" rx="143.59" ry="26.74"/>
<text text-anchor="middle" x="1645.18" y="-210.15" font-family="Times,serif" font-size="14.00">simpl.</text>
<text text-anchor="middle" x="1645.18" y="-195.15" font-family="Times,serif" font-size="14.00">(0.005163825911763195)</text>
</g>
<!-- 11&#45;&gt;15 -->
<g id="edge13" class="edge">
<title>11&#45;&gt;15</title>
<path fill="none" stroke="black" d="M1645.18,-268.77C1645.18,-260.8 1645.18,-251.91 1645.18,-243.42"/>
<polygon fill="black" stroke="black" points="1648.68,-243.35 1645.18,-233.35 1641.68,-243.35 1648.68,-243.35"/>
</g>
<!-- 16 -->
<g id="node15" class="node">
<title>16</title>
<ellipse fill="none" stroke="black" cx="1950.18" cy="-206.35" rx="143.59" ry="26.74"/>
<text text-anchor="middle" x="1950.18" y="-210.15" font-family="Times,serif" font-size="14.00">unfold colineaire.</text>
<text text-anchor="middle" x="1950.18" y="-195.15" font-family="Times,serif" font-size="14.00">(0.004577300825868287)</text>
</g>
<!-- 11&#45;&gt;16 -->
<g id="edge14" class="edge">
<title>11&#45;&gt;16</title>
<path fill="none" stroke="black" d="M1722.14,-272.95C1765.55,-260.46 1819.87,-244.84 1864.61,-231.97"/>
<polygon fill="black" stroke="black" points="1865.65,-235.31 1874.3,-229.18 1863.72,-228.58 1865.65,-235.31"/>
</g>
<!-- 26 -->
<g id="node16" class="node">
<title>26</title>
<ellipse fill="orange" stroke="black" cx="2261.18" cy="-206.35" rx="149.81" ry="26.74"/>
<text text-anchor="middle" x="2261.18" y="-210.15" font-family="Times,serif" font-size="14.00">eauto.</text>
<text text-anchor="middle" x="2261.18" y="-195.15" font-family="Times,serif" font-size="14.00">(0.0014304542859656815)</text>
</g>
<!-- 11&#45;&gt;26 -->
<g id="edge15" class="edge">
<title>11&#45;&gt;26</title>
<path fill="none" stroke="black" d="M1764.89,-279.85C1857.37,-267.85 1988.51,-250.35 2103.18,-233.22 2116.45,-231.24 2130.34,-229.08 2144.13,-226.89"/>
<polygon fill="black" stroke="black" points="2144.83,-230.32 2154.15,-225.29 2143.73,-223.41 2144.83,-230.32"/>
</g>
<!-- 3 -->
<g id="node6" class="node">
<title>3</title>
<ellipse fill="orange" stroke="black" cx="137.18" cy="-116.61" rx="137.36" ry="26.74"/>
<text text-anchor="middle" x="137.18" y="-120.41" font-family="Times,serif" font-size="14.00">simpl.</text>
<text text-anchor="middle" x="137.18" y="-105.41" font-family="Times,serif" font-size="14.00">(0.05539009920599217)</text>
</g>
<!-- 2&#45;&gt;3 -->
<g id="edge5" class="edge">
<title>2&#45;&gt;3</title>
<path fill="none" stroke="black" d="M141.38,-179.03C140.83,-171.06 140.23,-162.17 139.65,-153.68"/>
<polygon fill="black" stroke="black" points="143.13,-153.35 138.96,-143.61 136.15,-153.83 143.13,-153.35"/>
</g>
<!-- 6 -->
<g id="node10" class="node">
<title>6</title>
<ellipse fill="orange" stroke="black" cx="436.18" cy="-116.61" rx="143.59" ry="26.74"/>
<text text-anchor="middle" x="436.18" y="-120.41" font-family="Times,serif" font-size="14.00">simpl.</text>
<text text-anchor="middle" x="436.18" y="-105.41" font-family="Times,serif" font-size="14.00">(0.022011762226476987)</text>
</g>
<!-- 5&#45;&gt;6 -->
<g id="edge9" class="edge">
<title>5&#45;&gt;6</title>
<path fill="none" stroke="black" d="M433.38,-179.03C433.74,-171.06 434.15,-162.17 434.53,-153.68"/>
<polygon fill="black" stroke="black" points="438.03,-153.76 434.99,-143.61 431.04,-153.44 438.03,-153.76"/>
</g>
<!-- 9 -->
<g id="node11" class="node">
<title>9</title>
<ellipse fill="none" stroke="black" cx="750.18" cy="-116.61" rx="130.63" ry="26.74"/>
<text text-anchor="middle" x="750.18" y="-120.41" font-family="Times,serif" font-size="14.00">intros.</text>
<text text-anchor="middle" x="750.18" y="-105.41" font-family="Times,serif" font-size="14.00">(0.9868368931759586)</text>
</g>
<!-- 8&#45;&gt;9 -->
<g id="edge10" class="edge">
<title>8&#45;&gt;9</title>
<path fill="none" stroke="black" d="M973.34,-183.1C930.48,-170.52 876.84,-154.78 832.89,-141.88"/>
<polygon fill="black" stroke="black" points="833.68,-138.47 823.1,-139.01 831.71,-145.18 833.68,-138.47"/>
</g>
<!-- 10 -->
<g id="node12" class="node">
<title>10</title>
<ellipse fill="orange" stroke="black" cx="1049.18" cy="-116.61" rx="149.81" ry="26.74"/>
<text text-anchor="middle" x="1049.18" y="-120.41" font-family="Times,serif" font-size="14.00">simpl.</text>
<text text-anchor="middle" x="1049.18" y="-105.41" font-family="Times,serif" font-size="14.00">(0.0040946284437251065)</text>
</g>
<!-- 8&#45;&gt;10 -->
<g id="edge11" class="edge">
<title>8&#45;&gt;10</title>
<path fill="none" stroke="black" d="M1049.18,-179.03C1049.18,-171.06 1049.18,-162.17 1049.18,-153.68"/>
<polygon fill="black" stroke="black" points="1052.68,-153.61 1049.18,-143.61 1045.68,-153.61 1052.68,-153.61"/>
</g>
<!-- 13 -->
<g id="node17" class="node">
<title>13</title>
<ellipse fill="none" stroke="black" cx="1354.18" cy="-116.61" rx="137.36" ry="26.74"/>
<text text-anchor="middle" x="1354.18" y="-120.41" font-family="Times,serif" font-size="14.00">red.</text>
<text text-anchor="middle" x="1354.18" y="-105.41" font-family="Times,serif" font-size="14.00">(0.04315553594330665)</text>
</g>
<!-- 12&#45;&gt;13 -->
<g id="edge16" class="edge">
<title>12&#45;&gt;13</title>
<path fill="none" stroke="black" d="M1353.48,-179.03C1353.57,-171.06 1353.67,-162.17 1353.77,-153.68"/>
<polygon fill="black" stroke="black" points="1357.27,-153.65 1353.88,-143.61 1350.27,-153.57 1357.27,-153.65"/>
</g>
<!-- 17 -->
<g id="node19" class="node">
<title>17</title>
<ellipse fill="none" stroke="black" cx="1662.18" cy="-116.61" rx="130.63" ry="26.74"/>
<text text-anchor="middle" x="1662.18" y="-120.41" font-family="Times,serif" font-size="14.00">intros.</text>
<text text-anchor="middle" x="1662.18" y="-105.41" font-family="Times,serif" font-size="14.00">(0.9702601197127703)</text>
</g>
<!-- 16&#45;&gt;17 -->
<g id="edge18" class="edge">
<title>16&#45;&gt;17</title>
<path fill="none" stroke="black" d="M1877.13,-183.1C1836.16,-170.61 1784.98,-155.02 1742.83,-142.18"/>
<polygon fill="black" stroke="black" points="1743.74,-138.8 1733.16,-139.23 1741.7,-145.5 1743.74,-138.8"/>
</g>
<!-- 19 -->
<g id="node20" class="node">
<title>19</title>
<ellipse fill="orange" stroke="black" cx="1948.18" cy="-116.61" rx="137.36" ry="26.74"/>
<text text-anchor="middle" x="1948.18" y="-120.41" font-family="Times,serif" font-size="14.00">simpl.</text>
<text text-anchor="middle" x="1948.18" y="-105.41" font-family="Times,serif" font-size="14.00">(0.01347034327007927)</text>
</g>
<!-- 16&#45;&gt;19 -->
<g id="edge19" class="edge">
<title>16&#45;&gt;19</title>
<path fill="none" stroke="black" d="M1949.58,-179.03C1949.4,-171.06 1949.19,-162.17 1949,-153.68"/>
<polygon fill="black" stroke="black" points="1952.5,-153.53 1948.77,-143.61 1945.5,-153.69 1952.5,-153.53"/>
</g>
<!-- 20 -->
<g id="node21" class="node">
<title>20</title>
<ellipse fill="none" stroke="black" cx="2247.18" cy="-116.61" rx="143.59" ry="26.74"/>
<text text-anchor="middle" x="2247.18" y="-120.41" font-family="Times,serif" font-size="14.00">unfold double.</text>
<text text-anchor="middle" x="2247.18" y="-105.41" font-family="Times,serif" font-size="14.00">(0.000610671791853158)</text>
</g>
<!-- 16&#45;&gt;20 -->
<g id="edge20" class="edge">
<title>16&#45;&gt;20</title>
<path fill="none" stroke="black" d="M2024.74,-183.32C2066.75,-170.91 2119.37,-155.37 2162.88,-142.51"/>
<polygon fill="black" stroke="black" points="2163.99,-145.84 2172.59,-139.65 2162,-139.12 2163.99,-145.84"/>
</g>
<!-- 23 -->
<g id="node22" class="node">
<title>23</title>
<ellipse fill="none" stroke="black" cx="2558.18" cy="-116.61" rx="149.81" ry="26.74"/>
<text text-anchor="middle" x="2558.18" y="-120.41" font-family="Times,serif" font-size="14.00">unfold double.</text>
<text text-anchor="middle" x="2558.18" y="-105.41" font-family="Times,serif" font-size="14.00">(0.0004410878993499771)</text>
</g>
<!-- 16&#45;&gt;23 -->
<g id="edge21" class="edge">
<title>16&#45;&gt;23</title>
<path fill="none" stroke="black" d="M2051.86,-187.34C2068.65,-184.57 2085.89,-181.85 2102.18,-179.48 2234.2,-160.28 2268.1,-162.26 2400.18,-143.48 2413.69,-141.56 2427.82,-139.42 2441.85,-137.23"/>
<polygon fill="black" stroke="black" points="2442.7,-140.64 2452.04,-135.62 2441.61,-133.72 2442.7,-140.64"/>
</g>
<!-- 14 -->
<g id="node18" class="node">
<title>14</title>
<ellipse fill="orange" stroke="black" cx="1354.18" cy="-26.87" rx="143.59" ry="26.74"/>
<text text-anchor="middle" x="1354.18" y="-30.67" font-family="Times,serif" font-size="14.00">simpl.</text>
<text text-anchor="middle" x="1354.18" y="-15.67" font-family="Times,serif" font-size="14.00">(0.038107588167144664)</text>
</g>
<!-- 13&#45;&gt;14 -->
<g id="edge17" class="edge">
<title>13&#45;&gt;14</title>
<path fill="none" stroke="black" d="M1354.18,-89.29C1354.18,-81.32 1354.18,-72.43 1354.18,-63.94"/>
<polygon fill="black" stroke="black" points="1357.68,-63.87 1354.18,-53.87 1350.68,-63.87 1357.68,-63.87"/>
</g>
<!-- 18 -->
<g id="node23" class="node">
<title>18</title>
<ellipse fill="orange" stroke="black" cx="1662.18" cy="-26.87" rx="143.59" ry="26.74"/>
<text text-anchor="middle" x="1662.18" y="-30.67" font-family="Times,serif" font-size="14.00">simpl.</text>
<text text-anchor="middle" x="1662.18" y="-15.67" font-family="Times,serif" font-size="14.00">(0.010567192290653872)</text>
</g>
<!-- 17&#45;&gt;18 -->
<g id="edge22" class="edge">
<title>17&#45;&gt;18</title>
<path fill="none" stroke="black" d="M1662.18,-89.29C1662.18,-81.32 1662.18,-72.43 1662.18,-63.94"/>
<polygon fill="black" stroke="black" points="1665.68,-63.87 1662.18,-53.87 1658.68,-63.87 1665.68,-63.87"/>
</g>
<!-- 21 -->
<g id="node24" class="node">
<title>21</title>
<ellipse fill="none" stroke="black" cx="1967.18" cy="-26.87" rx="124.4" ry="26.74"/>
<text text-anchor="middle" x="1967.18" y="-30.67" font-family="Times,serif" font-size="14.00">intros.</text>
<text text-anchor="middle" x="1967.18" y="-15.67" font-family="Times,serif" font-size="14.00">(0.986857441811093)</text>
</g>
<!-- 20&#45;&gt;21 -->
<g id="edge23" class="edge">
<title>20&#45;&gt;21</title>
<path fill="none" stroke="black" d="M2175.8,-93.24C2136.05,-80.79 2086.49,-65.26 2045.66,-52.46"/>
<polygon fill="black" stroke="black" points="2046.6,-49.09 2036.01,-49.44 2044.51,-55.77 2046.6,-49.09"/>
</g>
<!-- 22 -->
<g id="node25" class="node">
<title>22</title>
<ellipse fill="orange" stroke="black" cx="2253.18" cy="-26.87" rx="143.59" ry="26.74"/>
<text text-anchor="middle" x="2253.18" y="-30.67" font-family="Times,serif" font-size="14.00">simpl.</text>
<text text-anchor="middle" x="2253.18" y="-15.67" font-family="Times,serif" font-size="14.00">(0.004094712400838445)</text>
</g>
<!-- 20&#45;&gt;22 -->
<g id="edge24" class="edge">
<title>20&#45;&gt;22</title>
<path fill="none" stroke="black" d="M2248.98,-89.29C2249.52,-81.32 2250.13,-72.43 2250.71,-63.94"/>
<polygon fill="black" stroke="black" points="2254.21,-64.09 2251.4,-53.87 2247.23,-63.61 2254.21,-64.09"/>
</g>
<!-- 24 -->
<g id="node26" class="node">
<title>24</title>
<ellipse fill="none" stroke="black" cx="2551.18" cy="-26.87" rx="124.4" ry="26.74"/>
<text text-anchor="middle" x="2551.18" y="-30.67" font-family="Times,serif" font-size="14.00">intros.</text>
<text text-anchor="middle" x="2551.18" y="-15.67" font-family="Times,serif" font-size="14.00">(0.986857441811093)</text>
</g>
<!-- 23&#45;&gt;24 -->
<g id="edge25" class="edge">
<title>23&#45;&gt;24</title>
<path fill="none" stroke="black" d="M2556.08,-89.29C2555.44,-81.32 2554.73,-72.43 2554.06,-63.94"/>
<polygon fill="black" stroke="black" points="2557.54,-63.56 2553.25,-53.87 2550.56,-64.12 2557.54,-63.56"/>
</g>
<!-- 25 -->
<g id="node27" class="node">
<title>25</title>
<ellipse fill="orange" stroke="black" cx="2837.18" cy="-26.87" rx="143.59" ry="26.74"/>
<text text-anchor="middle" x="2837.18" y="-30.67" font-family="Times,serif" font-size="14.00">simpl.</text>
<text text-anchor="middle" x="2837.18" y="-15.67" font-family="Times,serif" font-size="14.00">(0.004094712400838445)</text>
</g>
<!-- 23&#45;&gt;25 -->
<g id="edge26" class="edge">
<title>23&#45;&gt;25</title>
<path fill="none" stroke="black" d="M2630.03,-93.01C2668.66,-80.87 2716.43,-65.84 2756.35,-53.29"/>
<polygon fill="black" stroke="black" points="2757.57,-56.58 2766.06,-50.24 2755.47,-49.9 2757.57,-56.58"/>
</g>
</g>
</svg>
