<?xml version="1.0" encoding="UTF-8" standalone="no"?>
<!DOCTYPE svg PUBLIC "-//W3C//DTD SVG 1.1//EN"
 "http://www.w3.org/Graphics/SVG/1.1/DTD/svg11.dtd">
<!-- Generated by graphviz version 2.43.0 (0)
 -->
<!-- Pages: 1 -->
<svg width="1204pt" height="331pt"
 viewBox="0.00 0.00 1203.72 330.96" xmlns="http://www.w3.org/2000/svg" xmlns:xlink="http://www.w3.org/1999/xlink">
<g id="graph0" class="graph" transform="scale(1 1) rotate(0) translate(4 326.96)">
<polygon fill="white" stroke="transparent" points="-4,4 -4,-326.96 1199.72,-326.96 1199.72,4 -4,4"/>
<!-- 0 -->
<g id="node1" class="node">
<title>0</title>
<ellipse fill="none" stroke="black" cx="738.18" cy="-296.09" rx="96.75" ry="26.74"/>
<text text-anchor="middle" x="738.18" y="-299.89" font-family="Times,serif" font-size="14.00">exists_opp_angle</text>
<text text-anchor="middle" x="738.18" y="-284.89" font-family="Times,serif" font-size="14.00">(1.0)</text>
</g>
<!-- 1 -->
<g id="node2" class="node">
<title>1</title>
<ellipse fill="none" stroke="black" cx="594.18" cy="-206.35" rx="130.63" ry="26.74"/>
<text text-anchor="middle" x="594.18" y="-210.15" font-family="Times,serif" font-size="14.00">intros.</text>
<text text-anchor="middle" x="594.18" y="-195.15" font-family="Times,serif" font-size="14.00">(0.9923416135338041)</text>
</g>
<!-- 0&#45;&gt;1 -->
<g id="edge1" class="edge">
<title>0&#45;&gt;1</title>
<path fill="none" stroke="black" d="M699.21,-271.35C682.03,-260.88 661.65,-248.46 643.43,-237.36"/>
<polygon fill="black" stroke="black" points="645.05,-234.25 634.69,-232.03 641.4,-240.22 645.05,-234.25"/>
</g>
<!-- 9 -->
<g id="node3" class="node">
<title>9</title>
<ellipse fill="orange" stroke="black" cx="882.18" cy="-206.35" rx="139.1" ry="26.74"/>
<text text-anchor="middle" x="882.18" y="-210.15" font-family="Times,serif" font-size="14.00">simpl.</text>
<text text-anchor="middle" x="882.18" y="-195.15" font-family="Times,serif" font-size="14.00">(8.56324643151169e&#45;05)</text>
</g>
<!-- 0&#45;&gt;9 -->
<g id="edge2" class="edge">
<title>0&#45;&gt;9</title>
<path fill="none" stroke="black" d="M777.15,-271.35C794.25,-260.92 814.54,-248.56 832.7,-237.5"/>
<polygon fill="black" stroke="black" points="834.7,-240.38 841.42,-232.19 831.06,-234.4 834.7,-240.38"/>
</g>
<!-- 2 -->
<g id="node4" class="node">
<title>2</title>
<ellipse fill="none" stroke="black" cx="140.18" cy="-116.61" rx="137.36" ry="26.74"/>
<text text-anchor="middle" x="140.18" y="-120.41" font-family="Times,serif" font-size="14.00">exists a.</text>
<text text-anchor="middle" x="140.18" y="-105.41" font-family="Times,serif" font-size="14.00">(0.06748850983723602)</text>
</g>
<!-- 1&#45;&gt;2 -->
<g id="edge3" class="edge">
<title>1&#45;&gt;2</title>
<path fill="none" stroke="black" d="M501.21,-187.38C426.98,-173.04 322.95,-152.93 245.62,-137.99"/>
<polygon fill="black" stroke="black" points="245.85,-134.47 235.37,-136.01 244.52,-141.34 245.85,-134.47"/>
</g>
<!-- 4 -->
<g id="node5" class="node">
<title>4</title>
<ellipse fill="none" stroke="black" cx="442.18" cy="-116.61" rx="143.59" ry="26.74"/>
<text text-anchor="middle" x="442.18" y="-120.41" font-family="Times,serif" font-size="14.00">econstructor.</text>
<text text-anchor="middle" x="442.18" y="-105.41" font-family="Times,serif" font-size="14.00">(0.060526490603750774)</text>
</g>
<!-- 1&#45;&gt;4 -->
<g id="edge4" class="edge">
<title>1&#45;&gt;4</title>
<path fill="none" stroke="black" d="M551.84,-180.91C533.87,-170.54 512.75,-158.34 493.86,-147.45"/>
<polygon fill="black" stroke="black" points="495.49,-144.34 485.08,-142.38 491.99,-150.41 495.49,-144.34"/>
</g>
<!-- 6 -->
<g id="node6" class="node">
<title>6</title>
<ellipse fill="none" stroke="black" cx="747.18" cy="-116.61" rx="143.59" ry="26.74"/>
<text text-anchor="middle" x="747.18" y="-120.41" font-family="Times,serif" font-size="14.00">exists a.</text>
<text text-anchor="middle" x="747.18" y="-105.41" font-family="Times,serif" font-size="14.00">(0.012980154709860685)</text>
</g>
<!-- 1&#45;&gt;6 -->
<g id="edge5" class="edge">
<title>1&#45;&gt;6</title>
<path fill="none" stroke="black" d="M636.8,-180.91C654.89,-170.54 676.15,-158.34 695.15,-147.45"/>
<polygon fill="black" stroke="black" points="697.06,-150.39 703.99,-142.38 693.58,-144.32 697.06,-150.39"/>
</g>
<!-- 8 -->
<g id="node7" class="node">
<title>8</title>
<ellipse fill="orange" stroke="black" cx="1052.18" cy="-116.61" rx="143.59" ry="26.74"/>
<text text-anchor="middle" x="1052.18" y="-120.41" font-family="Times,serif" font-size="14.00">subst.</text>
<text text-anchor="middle" x="1052.18" y="-105.41" font-family="Times,serif" font-size="14.00">(0.006849121050541603)</text>
</g>
<!-- 1&#45;&gt;8 -->
<g id="edge6" class="edge">
<title>1&#45;&gt;8</title>
<path fill="none" stroke="black" d="M687.41,-187.49C761.91,-173.22 866.4,-153.2 944.46,-138.25"/>
<polygon fill="black" stroke="black" points="945.17,-141.67 954.33,-136.36 943.85,-134.8 945.17,-141.67"/>
</g>
<!-- 3 -->
<g id="node8" class="node">
<title>3</title>
<ellipse fill="orange" stroke="black" cx="137.18" cy="-26.87" rx="137.36" ry="26.74"/>
<text text-anchor="middle" x="137.18" y="-30.67" font-family="Times,serif" font-size="14.00">simpl.</text>
<text text-anchor="middle" x="137.18" y="-15.67" font-family="Times,serif" font-size="14.00">(0.01649950409359836)</text>
</g>
<!-- 2&#45;&gt;3 -->
<g id="edge7" class="edge">
<title>2&#45;&gt;3</title>
<path fill="none" stroke="black" d="M139.28,-89.29C139.01,-81.32 138.7,-72.43 138.41,-63.94"/>
<polygon fill="black" stroke="black" points="141.91,-63.75 138.07,-53.87 134.91,-63.99 141.91,-63.75"/>
</g>
<!-- 5 -->
<g id="node9" class="node">
<title>5</title>
<ellipse fill="orange" stroke="black" cx="442.18" cy="-26.87" rx="149.81" ry="26.74"/>
<text text-anchor="middle" x="442.18" y="-30.67" font-family="Times,serif" font-size="14.00">simpl.</text>
<text text-anchor="middle" x="442.18" y="-15.67" font-family="Times,serif" font-size="14.00">(0.0010714225737211713)</text>
</g>
<!-- 4&#45;&gt;5 -->
<g id="edge8" class="edge">
<title>4&#45;&gt;5</title>
<path fill="none" stroke="black" d="M442.18,-89.29C442.18,-81.32 442.18,-72.43 442.18,-63.94"/>
<polygon fill="black" stroke="black" points="445.68,-63.87 442.18,-53.87 438.68,-63.87 445.68,-63.87"/>
</g>
<!-- 7 -->
<g id="node10" class="node">
<title>7</title>
<ellipse fill="orange" stroke="black" cx="747.18" cy="-26.87" rx="137.36" ry="26.74"/>
<text text-anchor="middle" x="747.18" y="-30.67" font-family="Times,serif" font-size="14.00">simpl.</text>
<text text-anchor="middle" x="747.18" y="-15.67" font-family="Times,serif" font-size="14.00">(0.01649950409359836)</text>
</g>
<!-- 6&#45;&gt;7 -->
<g id="edge9" class="edge">
<title>6&#45;&gt;7</title>
<path fill="none" stroke="black" d="M747.18,-89.29C747.18,-81.32 747.18,-72.43 747.18,-63.94"/>
<polygon fill="black" stroke="black" points="750.68,-63.87 747.18,-53.87 743.68,-63.87 750.68,-63.87"/>
</g>
</g>
</svg>
