<?xml version="1.0" encoding="UTF-8" standalone="no"?>
<!DOCTYPE svg PUBLIC "-//W3C//DTD SVG 1.1//EN"
 "http://www.w3.org/Graphics/SVG/1.1/DTD/svg11.dtd">
<!-- Generated by graphviz version 2.43.0 (0)
 -->
<!-- Pages: 1 -->
<svg width="1919pt" height="421pt"
 viewBox="0.00 0.00 1919.09 420.70" xmlns="http://www.w3.org/2000/svg" xmlns:xlink="http://www.w3.org/1999/xlink">
<g id="graph0" class="graph" transform="scale(1 1) rotate(0) translate(4 416.7)">
<polygon fill="white" stroke="transparent" points="-4,4 -4,-416.7 1915.09,-416.7 1915.09,4 -4,4"/>
<!-- 0 -->
<g id="node1" class="node">
<title>0</title>
<ellipse fill="none" stroke="black" cx="786.18" cy="-385.83" rx="140.01" ry="26.74"/>
<text text-anchor="middle" x="786.18" y="-389.63" font-family="Times,serif" font-size="14.00">bissectrice_deux_isoceles</text>
<text text-anchor="middle" x="786.18" y="-374.63" font-family="Times,serif" font-size="14.00">(1.0)</text>
</g>
<!-- 1 -->
<g id="node2" class="node">
<title>1</title>
<ellipse fill="none" stroke="black" cx="274.18" cy="-296.09" rx="130.63" ry="26.74"/>
<text text-anchor="middle" x="274.18" y="-299.89" font-family="Times,serif" font-size="14.00">intros.</text>
<text text-anchor="middle" x="274.18" y="-284.89" font-family="Times,serif" font-size="14.00">(0.9204489314293612)</text>
</g>
<!-- 0&#45;&gt;1 -->
<g id="edge1" class="edge">
<title>0&#45;&gt;1</title>
<path fill="none" stroke="black" d="M684.11,-367.34C596.8,-352.38 471.49,-330.9 382.45,-315.64"/>
<polygon fill="black" stroke="black" points="383.04,-312.19 372.59,-313.95 381.85,-319.09 383.04,-312.19"/>
</g>
<!-- 3 -->
<g id="node3" class="node">
<title>3</title>
<ellipse fill="none" stroke="black" cx="634.18" cy="-296.09" rx="143.59" ry="26.74"/>
<text text-anchor="middle" x="634.18" y="-299.89" font-family="Times,serif" font-size="14.00">unfold bissectrice.</text>
<text text-anchor="middle" x="634.18" y="-284.89" font-family="Times,serif" font-size="14.00">(0.012094410408981862)</text>
</g>
<!-- 0&#45;&gt;3 -->
<g id="edge2" class="edge">
<title>0&#45;&gt;3</title>
<path fill="none" stroke="black" d="M743.43,-360.16C725.54,-349.83 704.59,-337.74 685.85,-326.92"/>
<polygon fill="black" stroke="black" points="687.54,-323.85 677.13,-321.88 684.04,-329.91 687.54,-323.85"/>
</g>
<!-- 7 -->
<g id="node4" class="node">
<title>7</title>
<ellipse fill="orange" stroke="black" cx="939.18" cy="-296.09" rx="143.59" ry="26.74"/>
<text text-anchor="middle" x="939.18" y="-299.89" font-family="Times,serif" font-size="14.00">simpl.</text>
<text text-anchor="middle" x="939.18" y="-284.89" font-family="Times,serif" font-size="14.00">(0.003499528448748832)</text>
</g>
<!-- 0&#45;&gt;7 -->
<g id="edge3" class="edge">
<title>0&#45;&gt;7</title>
<path fill="none" stroke="black" d="M829.2,-360.16C847.29,-349.79 868.48,-337.63 887.41,-326.78"/>
<polygon fill="black" stroke="black" points="889.28,-329.74 896.21,-321.73 885.79,-323.67 889.28,-329.74"/>
</g>
<!-- 8 -->
<g id="node5" class="node">
<title>8</title>
<ellipse fill="none" stroke="black" cx="1278.18" cy="-296.09" rx="143.59" ry="26.74"/>
<text text-anchor="middle" x="1278.18" y="-299.89" font-family="Times,serif" font-size="14.00">unfold isocele.</text>
<text text-anchor="middle" x="1278.18" y="-284.89" font-family="Times,serif" font-size="14.00">(0.001844779770313391)</text>
</g>
<!-- 0&#45;&gt;8 -->
<g id="edge4" class="edge">
<title>0&#45;&gt;8</title>
<path fill="none" stroke="black" d="M886.34,-366.97C967.82,-352.44 1082.72,-331.95 1167.03,-316.91"/>
<polygon fill="black" stroke="black" points="1167.67,-320.35 1176.9,-315.15 1166.44,-313.46 1167.67,-320.35"/>
</g>
<!-- 2 -->
<g id="node6" class="node">
<title>2</title>
<ellipse fill="orange" stroke="black" cx="137.18" cy="-206.35" rx="137.36" ry="26.74"/>
<text text-anchor="middle" x="137.18" y="-210.15" font-family="Times,serif" font-size="14.00">simpl.</text>
<text text-anchor="middle" x="137.18" y="-195.15" font-family="Times,serif" font-size="14.00">(0.46996882072495266)</text>
</g>
<!-- 1&#45;&gt;2 -->
<g id="edge5" class="edge">
<title>1&#45;&gt;2</title>
<path fill="none" stroke="black" d="M235.29,-270.18C219.52,-260.09 201.17,-248.33 184.63,-237.74"/>
<polygon fill="black" stroke="black" points="186.48,-234.77 176.17,-232.32 182.7,-240.66 186.48,-234.77"/>
</g>
<!-- 4 -->
<g id="node7" class="node">
<title>4</title>
<ellipse fill="none" stroke="black" cx="423.18" cy="-206.35" rx="130.63" ry="26.74"/>
<text text-anchor="middle" x="423.18" y="-210.15" font-family="Times,serif" font-size="14.00">intros.</text>
<text text-anchor="middle" x="423.18" y="-195.15" font-family="Times,serif" font-size="14.00">(0.9894212257022931)</text>
</g>
<!-- 3&#45;&gt;4 -->
<g id="edge6" class="edge">
<title>3&#45;&gt;4</title>
<path fill="none" stroke="black" d="M577.08,-271.35C549.78,-259.99 516.95,-246.34 488.64,-234.57"/>
<polygon fill="black" stroke="black" points="489.81,-231.27 479.23,-230.66 487.12,-237.73 489.81,-231.27"/>
</g>
<!-- 6 -->
<g id="node8" class="node">
<title>6</title>
<ellipse fill="orange" stroke="black" cx="722.18" cy="-206.35" rx="149.81" ry="26.74"/>
<text text-anchor="middle" x="722.18" y="-210.15" font-family="Times,serif" font-size="14.00">simpl.</text>
<text text-anchor="middle" x="722.18" y="-195.15" font-family="Times,serif" font-size="14.00">(0.0023155443793910217)</text>
</g>
<!-- 3&#45;&gt;6 -->
<g id="edge7" class="edge">
<title>3&#45;&gt;6</title>
<path fill="none" stroke="black" d="M660.11,-269.24C669.24,-260.14 679.62,-249.78 689.25,-240.18"/>
<polygon fill="black" stroke="black" points="691.83,-242.56 696.44,-233.02 686.88,-237.6 691.83,-242.56"/>
</g>
<!-- 9 -->
<g id="node10" class="node">
<title>9</title>
<ellipse fill="none" stroke="black" cx="1021.18" cy="-206.35" rx="130.63" ry="26.74"/>
<text text-anchor="middle" x="1021.18" y="-210.15" font-family="Times,serif" font-size="14.00">intros.</text>
<text text-anchor="middle" x="1021.18" y="-195.15" font-family="Times,serif" font-size="14.00">(0.9710100206393861)</text>
</g>
<!-- 8&#45;&gt;9 -->
<g id="edge9" class="edge">
<title>8&#45;&gt;9</title>
<path fill="none" stroke="black" d="M1211.33,-272.27C1176.1,-260.24 1132.78,-245.45 1096.39,-233.03"/>
<polygon fill="black" stroke="black" points="1097.4,-229.67 1086.81,-229.76 1095.14,-236.3 1097.4,-229.67"/>
</g>
<!-- 11 -->
<g id="node11" class="node">
<title>11</title>
<ellipse fill="orange" stroke="black" cx="1313.18" cy="-206.35" rx="143.59" ry="26.74"/>
<text text-anchor="middle" x="1313.18" y="-210.15" font-family="Times,serif" font-size="14.00">simpl.</text>
<text text-anchor="middle" x="1313.18" y="-195.15" font-family="Times,serif" font-size="14.00">(0.013470022115897496)</text>
</g>
<!-- 8&#45;&gt;11 -->
<g id="edge10" class="edge">
<title>8&#45;&gt;11</title>
<path fill="none" stroke="black" d="M1288.49,-269.24C1291.81,-260.92 1295.54,-251.56 1299.08,-242.69"/>
<polygon fill="black" stroke="black" points="1302.37,-243.9 1302.82,-233.32 1295.86,-241.31 1302.37,-243.9"/>
</g>
<!-- 12 -->
<g id="node12" class="node">
<title>12</title>
<ellipse fill="none" stroke="black" cx="1612.18" cy="-206.35" rx="137.36" ry="26.74"/>
<text text-anchor="middle" x="1612.18" y="-210.15" font-family="Times,serif" font-size="14.00">unfold bissectrice.</text>
<text text-anchor="middle" x="1612.18" y="-195.15" font-family="Times,serif" font-size="14.00">(0.00808540139071374)</text>
</g>
<!-- 8&#45;&gt;12 -->
<g id="edge11" class="edge">
<title>8&#45;&gt;12</title>
<path fill="none" stroke="black" d="M1359.03,-273.85C1408.46,-260.87 1471.74,-244.24 1522.67,-230.86"/>
<polygon fill="black" stroke="black" points="1523.58,-234.24 1532.36,-228.32 1521.8,-227.47 1523.58,-234.24"/>
</g>
<!-- 5 -->
<g id="node9" class="node">
<title>5</title>
<ellipse fill="orange" stroke="black" cx="423.18" cy="-116.61" rx="130.63" ry="26.74"/>
<text text-anchor="middle" x="423.18" y="-120.41" font-family="Times,serif" font-size="14.00">simpl.</text>
<text text-anchor="middle" x="423.18" y="-105.41" font-family="Times,serif" font-size="14.00">(0.3847386691526084)</text>
</g>
<!-- 4&#45;&gt;5 -->
<g id="edge8" class="edge">
<title>4&#45;&gt;5</title>
<path fill="none" stroke="black" d="M423.18,-179.03C423.18,-171.06 423.18,-162.17 423.18,-153.68"/>
<polygon fill="black" stroke="black" points="426.68,-153.61 423.18,-143.61 419.68,-153.61 426.68,-153.61"/>
</g>
<!-- 10 -->
<g id="node13" class="node">
<title>10</title>
<ellipse fill="orange" stroke="black" cx="1021.18" cy="-116.61" rx="137.36" ry="26.74"/>
<text text-anchor="middle" x="1021.18" y="-120.41" font-family="Times,serif" font-size="14.00">simpl.</text>
<text text-anchor="middle" x="1021.18" y="-105.41" font-family="Times,serif" font-size="14.00">(0.30716533105444843)</text>
</g>
<!-- 9&#45;&gt;10 -->
<g id="edge12" class="edge">
<title>9&#45;&gt;10</title>
<path fill="none" stroke="black" d="M1021.18,-179.03C1021.18,-171.06 1021.18,-162.17 1021.18,-153.68"/>
<polygon fill="black" stroke="black" points="1024.68,-153.61 1021.18,-143.61 1017.68,-153.61 1024.68,-153.61"/>
</g>
<!-- 13 -->
<g id="node14" class="node">
<title>13</title>
<ellipse fill="none" stroke="black" cx="1462.18" cy="-116.61" rx="130.63" ry="26.74"/>
<text text-anchor="middle" x="1462.18" y="-120.41" font-family="Times,serif" font-size="14.00">intros.</text>
<text text-anchor="middle" x="1462.18" y="-105.41" font-family="Times,serif" font-size="14.00">(0.9894548369032183)</text>
</g>
<!-- 12&#45;&gt;13 -->
<g id="edge13" class="edge">
<title>12&#45;&gt;13</title>
<path fill="none" stroke="black" d="M1570,-180.68C1552.19,-170.26 1531.32,-158.05 1512.7,-147.16"/>
<polygon fill="black" stroke="black" points="1514.44,-144.13 1504.04,-142.1 1510.91,-150.17 1514.44,-144.13"/>
</g>
<!-- 15 -->
<g id="node15" class="node">
<title>15</title>
<ellipse fill="orange" stroke="black" cx="1761.18" cy="-116.61" rx="149.81" ry="26.74"/>
<text text-anchor="middle" x="1761.18" y="-120.41" font-family="Times,serif" font-size="14.00">simpl.</text>
<text text-anchor="middle" x="1761.18" y="-105.41" font-family="Times,serif" font-size="14.00">(0.0023156227744877754)</text>
</g>
<!-- 12&#45;&gt;15 -->
<g id="edge14" class="edge">
<title>12&#45;&gt;15</title>
<path fill="none" stroke="black" d="M1654.08,-180.68C1671.54,-170.4 1691.97,-158.37 1710.28,-147.58"/>
<polygon fill="black" stroke="black" points="1712.23,-150.49 1719.08,-142.4 1708.68,-144.46 1712.23,-150.49"/>
</g>
<!-- 14 -->
<g id="node16" class="node">
<title>14</title>
<ellipse fill="orange" stroke="black" cx="1462.18" cy="-26.87" rx="137.36" ry="26.74"/>
<text text-anchor="middle" x="1462.18" y="-30.67" font-family="Times,serif" font-size="14.00">simpl.</text>
<text text-anchor="middle" x="1462.18" y="-15.67" font-family="Times,serif" font-size="14.00">(0.26831647544177456)</text>
</g>
<!-- 13&#45;&gt;14 -->
<g id="edge15" class="edge">
<title>13&#45;&gt;14</title>
<path fill="none" stroke="black" d="M1462.18,-89.29C1462.18,-81.32 1462.18,-72.43 1462.18,-63.94"/>
<polygon fill="black" stroke="black" points="1465.68,-63.87 1462.18,-53.87 1458.68,-63.87 1465.68,-63.87"/>
</g>
</g>
</svg>
