<?xml version="1.0" encoding="UTF-8" standalone="no"?>
<!DOCTYPE svg PUBLIC "-//W3C//DTD SVG 1.1//EN"
 "http://www.w3.org/Graphics/SVG/1.1/DTD/svg11.dtd">
<!-- Generated by graphviz version 2.43.0 (0)
 -->
<!-- Pages: 1 -->
<svg width="1490pt" height="241pt"
 viewBox="0.00 0.00 1490.45 241.22" xmlns="http://www.w3.org/2000/svg" xmlns:xlink="http://www.w3.org/1999/xlink">
<g id="graph0" class="graph" transform="scale(1 1) rotate(0) translate(4 237.22)">
<polygon fill="white" stroke="transparent" points="-4,4 -4,-237.22 1486.45,-237.22 1486.45,4 -4,4"/>
<!-- 0 -->
<g id="node1" class="node">
<title>0</title>
<ellipse fill="none" stroke="black" cx="880.54" cy="-206.35" rx="103.89" ry="26.74"/>
<text text-anchor="middle" x="880.54" y="-210.15" font-family="Times,serif" font-size="14.00">triangle_rectangle</text>
<text text-anchor="middle" x="880.54" y="-195.15" font-family="Times,serif" font-size="14.00">(1.0)</text>
</g>
<!-- 1 -->
<g id="node2" class="node">
<title>1</title>
<ellipse fill="none" stroke="black" cx="290.54" cy="-116.61" rx="130.63" ry="26.74"/>
<text text-anchor="middle" x="290.54" y="-120.41" font-family="Times,serif" font-size="14.00">intros.</text>
<text text-anchor="middle" x="290.54" y="-105.41" font-family="Times,serif" font-size="14.00">(0.9380295692065074)</text>
</g>
<!-- 0&#45;&gt;1 -->
<g id="edge1" class="edge">
<title>0&#45;&gt;1</title>
<path fill="none" stroke="black" d="M791.89,-192.17C688.53,-176.8 517.46,-151.36 404.37,-134.54"/>
<polygon fill="black" stroke="black" points="404.69,-131.05 394.29,-133.04 403.66,-137.97 404.69,-131.05"/>
</g>
<!-- 3 -->
<g id="node3" class="node">
<title>3</title>
<ellipse fill="none" stroke="black" cx="728.54" cy="-116.61" rx="143.59" ry="26.74"/>
<text text-anchor="middle" x="728.54" y="-120.41" font-family="Times,serif" font-size="14.00">unfold isocele.</text>
<text text-anchor="middle" x="728.54" y="-105.41" font-family="Times,serif" font-size="14.00">(0.009678139752150552)</text>
</g>
<!-- 0&#45;&gt;3 -->
<g id="edge2" class="edge">
<title>0&#45;&gt;3</title>
<path fill="none" stroke="black" d="M839.41,-181.61C821.11,-171.04 799.37,-158.49 780.01,-147.32"/>
<polygon fill="black" stroke="black" points="781.71,-144.26 771.3,-142.29 778.21,-150.32 781.71,-144.26"/>
</g>
<!-- 6 -->
<g id="node4" class="node">
<title>6</title>
<ellipse fill="none" stroke="black" cx="1033.54" cy="-116.61" rx="143.59" ry="26.74"/>
<text text-anchor="middle" x="1033.54" y="-120.41" font-family="Times,serif" font-size="14.00">unfold isocele.</text>
<text text-anchor="middle" x="1033.54" y="-105.41" font-family="Times,serif" font-size="14.00">(0.003779887227385059)</text>
</g>
<!-- 0&#45;&gt;6 -->
<g id="edge3" class="edge">
<title>0&#45;&gt;6</title>
<path fill="none" stroke="black" d="M921.95,-181.61C940.37,-171.04 962.25,-158.49 981.74,-147.32"/>
<polygon fill="black" stroke="black" points="983.57,-150.3 990.5,-142.29 980.09,-144.23 983.57,-150.3"/>
</g>
<!-- 9 -->
<g id="node5" class="node">
<title>9</title>
<ellipse fill="orange" stroke="black" cx="1332.54" cy="-116.61" rx="137.36" ry="26.74"/>
<text text-anchor="middle" x="1332.54" y="-120.41" font-family="Times,serif" font-size="14.00">simpl.</text>
<text text-anchor="middle" x="1332.54" y="-105.41" font-family="Times,serif" font-size="14.00">(0.00353891799432511)</text>
</g>
<!-- 0&#45;&gt;9 -->
<g id="edge4" class="edge">
<title>0&#45;&gt;9</title>
<path fill="none" stroke="black" d="M961.87,-189.56C1036.09,-175.16 1146.22,-153.78 1227.16,-138.07"/>
<polygon fill="black" stroke="black" points="1228.23,-141.42 1237.38,-136.08 1226.9,-134.55 1228.23,-141.42"/>
</g>
<!-- 2 -->
<g id="node6" class="node">
<title>2</title>
<ellipse fill="orange" stroke="black" cx="143.54" cy="-26.87" rx="143.59" ry="26.74"/>
<text text-anchor="middle" x="143.54" y="-30.67" font-family="Times,serif" font-size="14.00">simpl.</text>
<text text-anchor="middle" x="143.54" y="-15.67" font-family="Times,serif" font-size="14.00">(0.025243506007860513)</text>
</g>
<!-- 1&#45;&gt;2 -->
<g id="edge5" class="edge">
<title>1&#45;&gt;2</title>
<path fill="none" stroke="black" d="M249.2,-90.94C231.98,-80.66 211.82,-68.62 193.76,-57.84"/>
<polygon fill="black" stroke="black" points="195.46,-54.78 185.08,-52.66 191.87,-60.79 195.46,-54.78"/>
</g>
<!-- 4 -->
<g id="node7" class="node">
<title>4</title>
<ellipse fill="none" stroke="black" cx="435.54" cy="-26.87" rx="130.63" ry="26.74"/>
<text text-anchor="middle" x="435.54" y="-30.67" font-family="Times,serif" font-size="14.00">intros.</text>
<text text-anchor="middle" x="435.54" y="-15.67" font-family="Times,serif" font-size="14.00">(0.9964945842464401)</text>
</g>
<!-- 3&#45;&gt;4 -->
<g id="edge6" class="edge">
<title>3&#45;&gt;4</title>
<path fill="none" stroke="black" d="M654.61,-93.47C612.68,-80.92 560.15,-65.18 517.04,-52.27"/>
<polygon fill="black" stroke="black" points="518.01,-48.91 507.43,-49.4 516.01,-55.62 518.01,-48.91"/>
</g>
<!-- 5 -->
<g id="node8" class="node">
<title>5</title>
<ellipse fill="orange" stroke="black" cx="734.54" cy="-26.87" rx="149.81" ry="26.74"/>
<text text-anchor="middle" x="734.54" y="-30.67" font-family="Times,serif" font-size="14.00">simpl.</text>
<text text-anchor="middle" x="734.54" y="-15.67" font-family="Times,serif" font-size="14.00">(0.0005391676022156327)</text>
</g>
<!-- 3&#45;&gt;5 -->
<g id="edge7" class="edge">
<title>3&#45;&gt;5</title>
<path fill="none" stroke="black" d="M730.34,-89.29C730.89,-81.32 731.5,-72.43 732.08,-63.94"/>
<polygon fill="black" stroke="black" points="735.57,-64.09 732.76,-53.87 728.59,-63.61 735.57,-64.09"/>
</g>
<!-- 7 -->
<g id="node9" class="node">
<title>7</title>
<ellipse fill="none" stroke="black" cx="1033.54" cy="-26.87" rx="130.63" ry="26.74"/>
<text text-anchor="middle" x="1033.54" y="-30.67" font-family="Times,serif" font-size="14.00">intros.</text>
<text text-anchor="middle" x="1033.54" y="-15.67" font-family="Times,serif" font-size="14.00">(0.9964945842464401)</text>
</g>
<!-- 6&#45;&gt;7 -->
<g id="edge8" class="edge">
<title>6&#45;&gt;7</title>
<path fill="none" stroke="black" d="M1033.54,-89.29C1033.54,-81.32 1033.54,-72.43 1033.54,-63.94"/>
<polygon fill="black" stroke="black" points="1037.04,-63.87 1033.54,-53.87 1030.04,-63.87 1037.04,-63.87"/>
</g>
<!-- 8 -->
<g id="node10" class="node">
<title>8</title>
<ellipse fill="orange" stroke="black" cx="1332.54" cy="-26.87" rx="149.81" ry="26.74"/>
<text text-anchor="middle" x="1332.54" y="-30.67" font-family="Times,serif" font-size="14.00">simpl.</text>
<text text-anchor="middle" x="1332.54" y="-15.67" font-family="Times,serif" font-size="14.00">(0.0005391676022156327)</text>
</g>
<!-- 6&#45;&gt;8 -->
<g id="edge9" class="edge">
<title>6&#45;&gt;8</title>
<path fill="none" stroke="black" d="M1108.61,-93.58C1150.66,-81.24 1203.27,-65.8 1246.92,-52.99"/>
<polygon fill="black" stroke="black" points="1248.06,-56.31 1256.67,-50.14 1246.09,-49.59 1248.06,-56.31"/>
</g>
</g>
</svg>
