<?xml version="1.0" encoding="UTF-8" standalone="no"?>
<!DOCTYPE svg PUBLIC "-//W3C//DTD SVG 1.1//EN"
 "http://www.w3.org/Graphics/SVG/1.1/DTD/svg11.dtd">
<!-- Generated by graphviz version 2.43.0 (0)
 -->
<!-- Pages: 1 -->
<svg width="1353pt" height="421pt"
 viewBox="0.00 0.00 1353.09 420.70" xmlns="http://www.w3.org/2000/svg" xmlns:xlink="http://www.w3.org/1999/xlink">
<g id="graph0" class="graph" transform="scale(1 1) rotate(0) translate(4 416.7)">
<polygon fill="white" stroke="transparent" points="-4,4 -4,-416.7 1349.09,-416.7 1349.09,4 -4,4"/>
<!-- 0 -->
<g id="node1" class="node">
<title>0</title>
<ellipse fill="none" stroke="black" cx="648.18" cy="-385.83" rx="105.22" ry="26.74"/>
<text text-anchor="middle" x="648.18" y="-389.63" font-family="Times,serif" font-size="14.00">projete_ortho_cote</text>
<text text-anchor="middle" x="648.18" y="-374.63" font-family="Times,serif" font-size="14.00">(1.0)</text>
</g>
<!-- 1 -->
<g id="node2" class="node">
<title>1</title>
<ellipse fill="none" stroke="black" cx="283.18" cy="-296.09" rx="130.63" ry="26.74"/>
<text text-anchor="middle" x="283.18" y="-299.89" font-family="Times,serif" font-size="14.00">intros.</text>
<text text-anchor="middle" x="283.18" y="-284.89" font-family="Times,serif" font-size="14.00">(0.9576427898031878)</text>
</g>
<!-- 0&#45;&gt;1 -->
<g id="edge1" class="edge">
<title>0&#45;&gt;1</title>
<path fill="none" stroke="black" d="M573.43,-366.86C516.24,-353.11 437.04,-334.08 375.82,-319.36"/>
<polygon fill="black" stroke="black" points="376.32,-315.88 365.77,-316.94 374.68,-322.69 376.32,-315.88"/>
</g>
<!-- 3 -->
<g id="node3" class="node">
<title>3</title>
<ellipse fill="none" stroke="black" cx="648.18" cy="-296.09" rx="143.59" ry="26.74"/>
<text text-anchor="middle" x="648.18" y="-299.89" font-family="Times,serif" font-size="14.00">unfold colineaire.</text>
<text text-anchor="middle" x="648.18" y="-284.89" font-family="Times,serif" font-size="14.00">(0.005485542070498819)</text>
</g>
<!-- 0&#45;&gt;3 -->
<g id="edge2" class="edge">
<title>0&#45;&gt;3</title>
<path fill="none" stroke="black" d="M648.18,-358.51C648.18,-350.54 648.18,-341.65 648.18,-333.16"/>
<polygon fill="black" stroke="black" points="651.68,-333.09 648.18,-323.09 644.68,-333.09 651.68,-333.09"/>
</g>
<!-- 11 -->
<g id="node4" class="node">
<title>11</title>
<ellipse fill="orange" stroke="black" cx="959.18" cy="-296.09" rx="149.81" ry="26.74"/>
<text text-anchor="middle" x="959.18" y="-299.89" font-family="Times,serif" font-size="14.00">simpl.</text>
<text text-anchor="middle" x="959.18" y="-284.89" font-family="Times,serif" font-size="14.00">(0.0013474390038032678)</text>
</g>
<!-- 0&#45;&gt;11 -->
<g id="edge3" class="edge">
<title>0&#45;&gt;11</title>
<path fill="none" stroke="black" d="M717.2,-365.36C762.65,-352.53 822.56,-335.63 871.4,-321.86"/>
<polygon fill="black" stroke="black" points="872.65,-325.14 881.32,-319.05 870.75,-318.4 872.65,-325.14"/>
</g>
<!-- 2 -->
<g id="node5" class="node">
<title>2</title>
<ellipse fill="orange" stroke="black" cx="137.18" cy="-206.35" rx="137.36" ry="26.74"/>
<text text-anchor="middle" x="137.18" y="-210.15" font-family="Times,serif" font-size="14.00">simpl.</text>
<text text-anchor="middle" x="137.18" y="-195.15" font-family="Times,serif" font-size="14.00">(0.14847108051748467)</text>
</g>
<!-- 1&#45;&gt;2 -->
<g id="edge4" class="edge">
<title>1&#45;&gt;2</title>
<path fill="none" stroke="black" d="M242.12,-270.42C225.02,-260.14 205,-248.11 187.05,-237.32"/>
<polygon fill="black" stroke="black" points="188.81,-234.29 178.43,-232.14 185.2,-240.29 188.81,-234.29"/>
</g>
<!-- 4 -->
<g id="node6" class="node">
<title>4</title>
<ellipse fill="none" stroke="black" cx="423.18" cy="-206.35" rx="130.63" ry="26.74"/>
<text text-anchor="middle" x="423.18" y="-210.15" font-family="Times,serif" font-size="14.00">intros.</text>
<text text-anchor="middle" x="423.18" y="-195.15" font-family="Times,serif" font-size="14.00">(0.9875152185857542)</text>
</g>
<!-- 3&#45;&gt;4 -->
<g id="edge5" class="edge">
<title>3&#45;&gt;4</title>
<path fill="none" stroke="black" d="M587.88,-271.58C558.27,-260.03 522.46,-246.07 491.81,-234.11"/>
<polygon fill="black" stroke="black" points="493.06,-230.84 482.47,-230.47 490.52,-237.37 493.06,-230.84"/>
</g>
<!-- 6 -->
<g id="node7" class="node">
<title>6</title>
<ellipse fill="orange" stroke="black" cx="722.18" cy="-206.35" rx="149.81" ry="26.74"/>
<text text-anchor="middle" x="722.18" y="-210.15" font-family="Times,serif" font-size="14.00">simpl.</text>
<text text-anchor="middle" x="722.18" y="-195.15" font-family="Times,serif" font-size="14.00">(0.0028764491681280858)</text>
</g>
<!-- 3&#45;&gt;6 -->
<g id="edge6" class="edge">
<title>3&#45;&gt;6</title>
<path fill="none" stroke="black" d="M669.98,-269.24C677.51,-260.31 686.05,-250.19 694.01,-240.74"/>
<polygon fill="black" stroke="black" points="696.76,-242.92 700.53,-233.02 691.41,-238.4 696.76,-242.92"/>
</g>
<!-- 7 -->
<g id="node8" class="node">
<title>7</title>
<ellipse fill="none" stroke="black" cx="1046.18" cy="-206.35" rx="156.04" ry="26.74"/>
<text text-anchor="middle" x="1046.18" y="-210.15" font-family="Times,serif" font-size="14.00">unfold double.</text>
<text text-anchor="middle" x="1046.18" y="-195.15" font-family="Times,serif" font-size="14.00">(0.00011559297082973582)</text>
</g>
<!-- 3&#45;&gt;7 -->
<g id="edge7" class="edge">
<title>3&#45;&gt;7</title>
<path fill="none" stroke="black" d="M738.49,-275.18C799.23,-261.79 879.46,-244.1 942.76,-230.15"/>
<polygon fill="black" stroke="black" points="943.76,-233.51 952.77,-227.94 942.25,-226.68 943.76,-233.51"/>
</g>
<!-- 5 -->
<g id="node9" class="node">
<title>5</title>
<ellipse fill="orange" stroke="black" cx="423.18" cy="-116.61" rx="143.59" ry="26.74"/>
<text text-anchor="middle" x="423.18" y="-120.41" font-family="Times,serif" font-size="14.00">simpl.</text>
<text text-anchor="middle" x="423.18" y="-105.41" font-family="Times,serif" font-size="14.00">(0.018381319338040103)</text>
</g>
<!-- 4&#45;&gt;5 -->
<g id="edge8" class="edge">
<title>4&#45;&gt;5</title>
<path fill="none" stroke="black" d="M423.18,-179.03C423.18,-171.06 423.18,-162.17 423.18,-153.68"/>
<polygon fill="black" stroke="black" points="426.68,-153.61 423.18,-143.61 419.68,-153.61 426.68,-153.61"/>
</g>
<!-- 8 -->
<g id="node10" class="node">
<title>8</title>
<ellipse fill="none" stroke="black" cx="896.18" cy="-116.61" rx="130.63" ry="26.74"/>
<text text-anchor="middle" x="896.18" y="-120.41" font-family="Times,serif" font-size="14.00">intros.</text>
<text text-anchor="middle" x="896.18" y="-105.41" font-family="Times,serif" font-size="14.00">(0.9875153344673582)</text>
</g>
<!-- 7&#45;&gt;8 -->
<g id="edge9" class="edge">
<title>7&#45;&gt;8</title>
<path fill="none" stroke="black" d="M1003.6,-180.44C985.96,-170.12 965.35,-158.07 946.93,-147.3"/>
<polygon fill="black" stroke="black" points="948.49,-144.15 938.09,-142.13 944.95,-150.2 948.49,-144.15"/>
</g>
<!-- 10 -->
<g id="node11" class="node">
<title>10</title>
<ellipse fill="orange" stroke="black" cx="1195.18" cy="-116.61" rx="149.81" ry="26.74"/>
<text text-anchor="middle" x="1195.18" y="-120.41" font-family="Times,serif" font-size="14.00">simpl.</text>
<text text-anchor="middle" x="1195.18" y="-105.41" font-family="Times,serif" font-size="14.00">(0.0028764491681280858)</text>
</g>
<!-- 7&#45;&gt;10 -->
<g id="edge10" class="edge">
<title>7&#45;&gt;10</title>
<path fill="none" stroke="black" d="M1088.48,-180.44C1105.85,-170.21 1126.12,-158.27 1144.3,-147.57"/>
<polygon fill="black" stroke="black" points="1146.19,-150.52 1153.03,-142.43 1142.64,-144.49 1146.19,-150.52"/>
</g>
<!-- 9 -->
<g id="node12" class="node">
<title>9</title>
<ellipse fill="orange" stroke="black" cx="896.18" cy="-26.87" rx="137.36" ry="26.74"/>
<text text-anchor="middle" x="896.18" y="-30.67" font-family="Times,serif" font-size="14.00">simpl.</text>
<text text-anchor="middle" x="896.18" y="-15.67" font-family="Times,serif" font-size="14.00">(0.05456860371895656)</text>
</g>
<!-- 8&#45;&gt;9 -->
<g id="edge11" class="edge">
<title>8&#45;&gt;9</title>
<path fill="none" stroke="black" d="M896.18,-89.29C896.18,-81.32 896.18,-72.43 896.18,-63.94"/>
<polygon fill="black" stroke="black" points="899.68,-63.87 896.18,-53.87 892.68,-63.87 899.68,-63.87"/>
</g>
</g>
</svg>
