<?xml version="1.0" encoding="UTF-8" standalone="no"?>
<!DOCTYPE svg PUBLIC "-//W3C//DTD SVG 1.1//EN"
 "http://www.w3.org/Graphics/SVG/1.1/DTD/svg11.dtd">
<!-- Generated by graphviz version 2.43.0 (0)
 -->
<!-- Pages: 1 -->
<svg width="578pt" height="241pt"
 viewBox="0.00 0.00 578.48 241.22" xmlns="http://www.w3.org/2000/svg" xmlns:xlink="http://www.w3.org/1999/xlink">
<g id="graph0" class="graph" transform="scale(1 1) rotate(0) translate(4 237.22)">
<polygon fill="white" stroke="transparent" points="-4,4 -4,-237.22 574.48,-237.22 574.48,4 -4,4"/>
<!-- 0 -->
<g id="node1" class="node">
<title>0</title>
<ellipse fill="none" stroke="black" cx="277.81" cy="-206.35" rx="62.45" ry="26.74"/>
<text text-anchor="middle" x="277.81" y="-210.15" font-family="Times,serif" font-size="14.00">Chasles_2</text>
<text text-anchor="middle" x="277.81" y="-195.15" font-family="Times,serif" font-size="14.00">(1.0)</text>
</g>
<!-- 1 -->
<g id="node2" class="node">
<title>1</title>
<ellipse fill="none" stroke="black" cx="130.81" cy="-116.61" rx="130.63" ry="26.74"/>
<text text-anchor="middle" x="130.81" y="-120.41" font-family="Times,serif" font-size="14.00">intros.</text>
<text text-anchor="middle" x="130.81" y="-105.41" font-family="Times,serif" font-size="14.00">(0.9993472786325466)</text>
</g>
<!-- 0&#45;&gt;1 -->
<g id="edge1" class="edge">
<title>0&#45;&gt;1</title>
<path fill="none" stroke="black" d="M242.23,-184.11C223.8,-173.11 200.99,-159.5 180.82,-147.46"/>
<polygon fill="black" stroke="black" points="182.44,-144.35 172.06,-142.23 178.85,-150.36 182.44,-144.35"/>
</g>
<!-- 3 -->
<g id="node3" class="node">
<title>3</title>
<ellipse fill="orange" stroke="black" cx="424.81" cy="-116.61" rx="145.83" ry="26.74"/>
<text text-anchor="middle" x="424.81" y="-120.41" font-family="Times,serif" font-size="14.00">simpl.</text>
<text text-anchor="middle" x="424.81" y="-105.41" font-family="Times,serif" font-size="14.00">(5.634008159655113e&#45;05)</text>
</g>
<!-- 0&#45;&gt;3 -->
<g id="edge2" class="edge">
<title>0&#45;&gt;3</title>
<path fill="none" stroke="black" d="M313.4,-184.11C331.76,-173.15 354.46,-159.6 374.57,-147.6"/>
<polygon fill="black" stroke="black" points="376.51,-150.52 383.3,-142.39 372.92,-144.51 376.51,-150.52"/>
</g>
<!-- 2 -->
<g id="node4" class="node">
<title>2</title>
<ellipse fill="orange" stroke="black" cx="130.81" cy="-26.87" rx="130.63" ry="26.74"/>
<text text-anchor="middle" x="130.81" y="-30.67" font-family="Times,serif" font-size="14.00">simpl.</text>
<text text-anchor="middle" x="130.81" y="-15.67" font-family="Times,serif" font-size="14.00">(0.0844705287866645)</text>
</g>
<!-- 1&#45;&gt;2 -->
<g id="edge3" class="edge">
<title>1&#45;&gt;2</title>
<path fill="none" stroke="black" d="M130.81,-89.29C130.81,-81.32 130.81,-72.43 130.81,-63.94"/>
<polygon fill="black" stroke="black" points="134.31,-63.87 130.81,-53.87 127.31,-63.87 134.31,-63.87"/>
</g>
</g>
</svg>
