<?xml version="1.0" encoding="UTF-8" standalone="no"?>
<!DOCTYPE svg PUBLIC "-//W3C//DTD SVG 1.1//EN"
 "http://www.w3.org/Graphics/SVG/1.1/DTD/svg11.dtd">
<!-- Generated by graphviz version 2.43.0 (0)
 -->
<!-- Pages: 1 -->
<svg width="574pt" height="421pt"
 viewBox="0.00 0.00 574.36 420.70" xmlns="http://www.w3.org/2000/svg" xmlns:xlink="http://www.w3.org/1999/xlink">
<g id="graph0" class="graph" transform="scale(1 1) rotate(0) translate(4 416.7)">
<polygon fill="white" stroke="transparent" points="-4,4 -4,-416.7 570.36,-416.7 570.36,4 -4,4"/>
<!-- 0 -->
<g id="node1" class="node">
<title>0</title>
<ellipse fill="none" stroke="black" cx="276.81" cy="-385.83" rx="71.34" ry="26.74"/>
<text text-anchor="middle" x="276.81" y="-389.63" font-family="Times,serif" font-size="14.00">isocele_sym</text>
<text text-anchor="middle" x="276.81" y="-374.63" font-family="Times,serif" font-size="14.00">(1.0)</text>
</g>
<!-- 1 -->
<g id="node2" class="node">
<title>1</title>
<ellipse fill="#9aff9a" stroke="black" cx="276.81" cy="-296.09" rx="124.4" ry="26.74"/>
<text text-anchor="middle" x="276.81" y="-299.89" font-family="Times,serif" font-size="14.00">intros.</text>
<text text-anchor="middle" x="276.81" y="-284.89" font-family="Times,serif" font-size="14.00">(0.958677019539755)</text>
</g>
<!-- 0&#45;&gt;1 -->
<g id="edge1" class="edge">
<title>0&#45;&gt;1</title>
<path fill="none" stroke="black" d="M276.81,-358.51C276.81,-350.54 276.81,-341.65 276.81,-333.16"/>
<polygon fill="black" stroke="black" points="280.31,-333.09 276.81,-323.09 273.31,-333.09 280.31,-333.09"/>
</g>
<!-- 2 -->
<g id="node3" class="node">
<title>2</title>
<ellipse fill="#9aff9a" stroke="black" cx="276.81" cy="-206.35" rx="137.36" ry="26.74"/>
<text text-anchor="middle" x="276.81" y="-210.15" font-family="Times,serif" font-size="14.00">red.</text>
<text text-anchor="middle" x="276.81" y="-195.15" font-family="Times,serif" font-size="14.00">(0.07704712423256978)</text>
</g>
<!-- 1&#45;&gt;2 -->
<g id="edge2" class="edge">
<title>1&#45;&gt;2</title>
<path fill="none" stroke="black" d="M276.81,-268.77C276.81,-260.8 276.81,-251.91 276.81,-243.42"/>
<polygon fill="black" stroke="black" points="280.31,-243.35 276.81,-233.35 273.31,-243.35 280.31,-243.35"/>
</g>
<!-- 3 -->
<g id="node4" class="node">
<title>3</title>
<ellipse fill="orange" stroke="black" cx="130.81" cy="-116.61" rx="130.63" ry="26.74"/>
<text text-anchor="middle" x="130.81" y="-120.41" font-family="Times,serif" font-size="14.00">simpl.</text>
<text text-anchor="middle" x="130.81" y="-105.41" font-family="Times,serif" font-size="14.00">(0.2558138898002428)</text>
</g>
<!-- 2&#45;&gt;3 -->
<g id="edge3" class="edge">
<title>2&#45;&gt;3</title>
<path fill="none" stroke="black" d="M235.76,-180.68C218.58,-170.35 198.46,-158.26 180.46,-147.45"/>
<polygon fill="black" stroke="black" points="182.19,-144.4 171.82,-142.25 178.59,-150.4 182.19,-144.4"/>
</g>
<!-- 4 -->
<g id="node5" class="node">
<title>4</title>
<ellipse fill="#9aff9a" stroke="black" cx="422.81" cy="-116.61" rx="143.59" ry="26.74"/>
<text text-anchor="middle" x="422.81" y="-120.41" font-family="Times,serif" font-size="14.00">eauto.</text>
<text text-anchor="middle" x="422.81" y="-105.41" font-family="Times,serif" font-size="14.00">(0.024084547060045005)</text>
</g>
<!-- 2&#45;&gt;4 -->
<g id="edge4" class="edge">
<title>2&#45;&gt;4</title>
<path fill="none" stroke="black" d="M317.87,-180.68C334.98,-170.4 355,-158.37 372.94,-147.58"/>
<polygon fill="black" stroke="black" points="374.79,-150.55 381.56,-142.4 371.19,-144.55 374.79,-150.55"/>
</g>
<!-- 5 -->
<g id="node6" class="node">
<title>5</title>
<ellipse fill="green" stroke="black" cx="422.81" cy="-26.87" rx="35.21" ry="26.74"/>
<text text-anchor="middle" x="422.81" y="-30.67" font-family="Times,serif" font-size="14.00">QED</text>
<text text-anchor="middle" x="422.81" y="-15.67" font-family="Times,serif" font-size="14.00">(1.0)</text>
</g>
<!-- 4&#45;&gt;5 -->
<g id="edge5" class="edge">
<title>4&#45;&gt;5</title>
<path fill="none" stroke="black" d="M422.81,-89.29C422.81,-81.32 422.81,-72.43 422.81,-63.94"/>
<polygon fill="green" stroke="black" points="426.31,-63.87 422.81,-53.87 419.31,-63.87 426.31,-63.87"/>
</g>
</g>
</svg>
