<?xml version="1.0" encoding="UTF-8" standalone="no"?>
<!DOCTYPE svg PUBLIC "-//W3C//DTD SVG 1.1//EN"
 "http://www.w3.org/Graphics/SVG/1.1/DTD/svg11.dtd">
<!-- Generated by graphviz version 2.43.0 (0)
 -->
<!-- Pages: 1 -->
<svg width="2972pt" height="421pt"
 viewBox="0.00 0.00 2971.72 420.70" xmlns="http://www.w3.org/2000/svg" xmlns:xlink="http://www.w3.org/1999/xlink">
<g id="graph0" class="graph" transform="scale(1 1) rotate(0) translate(4 416.7)">
<polygon fill="white" stroke="transparent" points="-4,4 -4,-416.7 2967.72,-416.7 2967.72,4 -4,4"/>
<!-- 0 -->
<g id="node1" class="node">
<title>0</title>
<ellipse fill="none" stroke="black" cx="1929.18" cy="-385.83" rx="89.61" ry="26.74"/>
<text text-anchor="middle" x="1929.18" y="-389.63" font-family="Times,serif" font-size="14.00">orthogonal_opp</text>
<text text-anchor="middle" x="1929.18" y="-374.63" font-family="Times,serif" font-size="14.00">(1.0)</text>
</g>
<!-- 1 -->
<g id="node2" class="node">
<title>1</title>
<ellipse fill="none" stroke="black" cx="732.18" cy="-296.09" rx="130.63" ry="26.74"/>
<text text-anchor="middle" x="732.18" y="-299.89" font-family="Times,serif" font-size="14.00">intros.</text>
<text text-anchor="middle" x="732.18" y="-284.89" font-family="Times,serif" font-size="14.00">(0.9577100287869924)</text>
</g>
<!-- 0&#45;&gt;1 -->
<g id="edge1" class="edge">
<title>0&#45;&gt;1</title>
<path fill="none" stroke="black" d="M1842.61,-378.49C1635.64,-363.31 1111.06,-324.86 864.3,-306.78"/>
<polygon fill="black" stroke="black" points="864.43,-303.28 854.2,-306.03 863.92,-310.26 864.43,-303.28"/>
</g>
<!-- 6 -->
<g id="node3" class="node">
<title>6</title>
<ellipse fill="none" stroke="black" cx="1473.18" cy="-296.09" rx="143.59" ry="26.74"/>
<text text-anchor="middle" x="1473.18" y="-299.89" font-family="Times,serif" font-size="14.00">unfold orthogonal.</text>
<text text-anchor="middle" x="1473.18" y="-284.89" font-family="Times,serif" font-size="14.00">(0.007405877490885287)</text>
</g>
<!-- 0&#45;&gt;6 -->
<g id="edge2" class="edge">
<title>0&#45;&gt;6</title>
<path fill="none" stroke="black" d="M1855.15,-370.59C1780.67,-356.26 1665.04,-334.01 1580.5,-317.74"/>
<polygon fill="black" stroke="black" points="1581.09,-314.29 1570.61,-315.84 1579.77,-321.16 1581.09,-314.29"/>
</g>
<!-- 16 -->
<g id="node4" class="node">
<title>16</title>
<ellipse fill="none" stroke="black" cx="1929.18" cy="-296.09" rx="143.59" ry="26.74"/>
<text text-anchor="middle" x="1929.18" y="-299.89" font-family="Times,serif" font-size="14.00">unfold orthogonal.</text>
<text text-anchor="middle" x="1929.18" y="-284.89" font-family="Times,serif" font-size="14.00">(0.002693083440416568)</text>
</g>
<!-- 0&#45;&gt;16 -->
<g id="edge3" class="edge">
<title>0&#45;&gt;16</title>
<path fill="none" stroke="black" d="M1929.18,-358.51C1929.18,-350.54 1929.18,-341.65 1929.18,-333.16"/>
<polygon fill="black" stroke="black" points="1932.68,-333.09 1929.18,-323.09 1925.68,-333.09 1932.68,-333.09"/>
</g>
<!-- 26 -->
<g id="node5" class="node">
<title>26</title>
<ellipse fill="orange" stroke="black" cx="2240.18" cy="-296.09" rx="149.81" ry="26.74"/>
<text text-anchor="middle" x="2240.18" y="-299.89" font-family="Times,serif" font-size="14.00">eauto.</text>
<text text-anchor="middle" x="2240.18" y="-284.89" font-family="Times,serif" font-size="14.00">(0.0012033490755014773)</text>
</g>
<!-- 0&#45;&gt;26 -->
<g id="edge4" class="edge">
<title>0&#45;&gt;26</title>
<path fill="none" stroke="black" d="M1992.86,-366.86C2038.94,-353.86 2101.78,-336.14 2152.58,-321.8"/>
<polygon fill="black" stroke="black" points="2153.57,-325.16 2162.25,-319.08 2151.67,-318.42 2153.57,-325.16"/>
</g>
<!-- 27 -->
<g id="node6" class="node">
<title>27</title>
<ellipse fill="orange" stroke="black" cx="2551.18" cy="-296.09" rx="143.59" ry="26.74"/>
<text text-anchor="middle" x="2551.18" y="-299.89" font-family="Times,serif" font-size="14.00">simpl.</text>
<text text-anchor="middle" x="2551.18" y="-284.89" font-family="Times,serif" font-size="14.00">(0.001009317527189752)</text>
</g>
<!-- 0&#45;&gt;27 -->
<g id="edge5" class="edge">
<title>0&#45;&gt;27</title>
<path fill="none" stroke="black" d="M2011.67,-374.93C2105.62,-363.43 2263.68,-343.4 2399.18,-322.96 2412.05,-321.02 2425.51,-318.88 2438.87,-316.69"/>
<polygon fill="black" stroke="black" points="2439.76,-320.09 2449.06,-315.01 2438.62,-313.19 2439.76,-320.09"/>
</g>
<!-- 2 -->
<g id="node7" class="node">
<title>2</title>
<ellipse fill="none" stroke="black" cx="433.18" cy="-206.35" rx="137.36" ry="26.74"/>
<text text-anchor="middle" x="433.18" y="-210.15" font-family="Times,serif" font-size="14.00">red.</text>
<text text-anchor="middle" x="433.18" y="-195.15" font-family="Times,serif" font-size="14.00">(0.04492584862337137)</text>
</g>
<!-- 1&#45;&gt;2 -->
<g id="edge6" class="edge">
<title>1&#45;&gt;2</title>
<path fill="none" stroke="black" d="M659.42,-273.74C616.34,-261.1 561.6,-245.03 516.75,-231.87"/>
<polygon fill="black" stroke="black" points="517.63,-228.48 507.05,-229.03 515.66,-235.2 517.63,-228.48"/>
</g>
<!-- 5 -->
<g id="node8" class="node">
<title>5</title>
<ellipse fill="orange" stroke="black" cx="732.18" cy="-206.35" rx="143.59" ry="26.74"/>
<text text-anchor="middle" x="732.18" y="-210.15" font-family="Times,serif" font-size="14.00">simpl.</text>
<text text-anchor="middle" x="732.18" y="-195.15" font-family="Times,serif" font-size="14.00">(0.028518668281939722)</text>
</g>
<!-- 1&#45;&gt;5 -->
<g id="edge7" class="edge">
<title>1&#45;&gt;5</title>
<path fill="none" stroke="black" d="M732.18,-268.77C732.18,-260.8 732.18,-251.91 732.18,-243.42"/>
<polygon fill="black" stroke="black" points="735.68,-243.35 732.18,-233.35 728.68,-243.35 735.68,-243.35"/>
</g>
<!-- 7 -->
<g id="node11" class="node">
<title>7</title>
<ellipse fill="none" stroke="black" cx="1024.18" cy="-206.35" rx="130.63" ry="26.74"/>
<text text-anchor="middle" x="1024.18" y="-210.15" font-family="Times,serif" font-size="14.00">intros.</text>
<text text-anchor="middle" x="1024.18" y="-195.15" font-family="Times,serif" font-size="14.00">(0.9926296556222733)</text>
</g>
<!-- 6&#45;&gt;7 -->
<g id="edge10" class="edge">
<title>6&#45;&gt;7</title>
<path fill="none" stroke="black" d="M1376.58,-276.21C1302.95,-261.83 1201.78,-242.06 1126.72,-227.39"/>
<polygon fill="black" stroke="black" points="1127.26,-223.93 1116.77,-225.44 1125.91,-230.8 1127.26,-223.93"/>
</g>
<!-- 11 -->
<g id="node12" class="node">
<title>11</title>
<ellipse fill="orange" stroke="black" cx="1323.18" cy="-206.35" rx="149.81" ry="26.74"/>
<text text-anchor="middle" x="1323.18" y="-210.15" font-family="Times,serif" font-size="14.00">simpl.</text>
<text text-anchor="middle" x="1323.18" y="-195.15" font-family="Times,serif" font-size="14.00">(0.0037593455263767585)</text>
</g>
<!-- 6&#45;&gt;11 -->
<g id="edge11" class="edge">
<title>6&#45;&gt;11</title>
<path fill="none" stroke="black" d="M1430.6,-270.18C1413.1,-259.95 1392.7,-248.01 1374.4,-237.31"/>
<polygon fill="black" stroke="black" points="1376.01,-234.2 1365.61,-232.17 1372.47,-240.24 1376.01,-234.2"/>
</g>
<!-- 12 -->
<g id="node13" class="node">
<title>12</title>
<ellipse fill="none" stroke="black" cx="1634.18" cy="-206.35" rx="143.59" ry="26.74"/>
<text text-anchor="middle" x="1634.18" y="-210.15" font-family="Times,serif" font-size="14.00">unfold double.</text>
<text text-anchor="middle" x="1634.18" y="-195.15" font-family="Times,serif" font-size="14.00">(0.000883511967693314)</text>
</g>
<!-- 6&#45;&gt;12 -->
<g id="edge12" class="edge">
<title>6&#45;&gt;12</title>
<path fill="none" stroke="black" d="M1518.45,-270.42C1537.57,-260 1559.99,-247.78 1579.97,-236.89"/>
<polygon fill="black" stroke="black" points="1581.86,-239.85 1588.96,-231.99 1578.51,-233.7 1581.86,-239.85"/>
</g>
<!-- 17 -->
<g id="node20" class="node">
<title>17</title>
<ellipse fill="none" stroke="black" cx="1929.18" cy="-206.35" rx="130.63" ry="26.74"/>
<text text-anchor="middle" x="1929.18" y="-210.15" font-family="Times,serif" font-size="14.00">intros.</text>
<text text-anchor="middle" x="1929.18" y="-195.15" font-family="Times,serif" font-size="14.00">(0.9926296556222733)</text>
</g>
<!-- 16&#45;&gt;17 -->
<g id="edge19" class="edge">
<title>16&#45;&gt;17</title>
<path fill="none" stroke="black" d="M1929.18,-268.77C1929.18,-260.8 1929.18,-251.91 1929.18,-243.42"/>
<polygon fill="black" stroke="black" points="1932.68,-243.35 1929.18,-233.35 1925.68,-243.35 1932.68,-243.35"/>
</g>
<!-- 21 -->
<g id="node21" class="node">
<title>21</title>
<ellipse fill="orange" stroke="black" cx="2228.18" cy="-206.35" rx="149.81" ry="26.74"/>
<text text-anchor="middle" x="2228.18" y="-210.15" font-family="Times,serif" font-size="14.00">simpl.</text>
<text text-anchor="middle" x="2228.18" y="-195.15" font-family="Times,serif" font-size="14.00">(0.0037593455263767585)</text>
</g>
<!-- 16&#45;&gt;21 -->
<g id="edge20" class="edge">
<title>16&#45;&gt;21</title>
<path fill="none" stroke="black" d="M2004.24,-273.06C2046.3,-260.72 2098.91,-245.29 2142.56,-232.47"/>
<polygon fill="black" stroke="black" points="2143.69,-235.79 2152.3,-229.62 2141.72,-229.07 2143.69,-235.79"/>
</g>
<!-- 22 -->
<g id="node22" class="node">
<title>22</title>
<ellipse fill="none" stroke="black" cx="2539.18" cy="-206.35" rx="143.59" ry="26.74"/>
<text text-anchor="middle" x="2539.18" y="-210.15" font-family="Times,serif" font-size="14.00">unfold double.</text>
<text text-anchor="middle" x="2539.18" y="-195.15" font-family="Times,serif" font-size="14.00">(0.000883511967693314)</text>
</g>
<!-- 16&#45;&gt;22 -->
<g id="edge21" class="edge">
<title>16&#45;&gt;22</title>
<path fill="none" stroke="black" d="M2030.86,-277.04C2047.65,-274.27 2064.88,-271.56 2081.18,-269.22 2216.72,-249.73 2251.64,-252.71 2387.18,-233.22 2400.29,-231.33 2414.01,-229.21 2427.62,-227.01"/>
<polygon fill="black" stroke="black" points="2428.19,-230.47 2437.5,-225.4 2427.07,-223.56 2428.19,-230.47"/>
</g>
<!-- 3 -->
<g id="node9" class="node">
<title>3</title>
<ellipse fill="orange" stroke="black" cx="137.18" cy="-116.61" rx="137.36" ry="26.74"/>
<text text-anchor="middle" x="137.18" y="-120.41" font-family="Times,serif" font-size="14.00">simpl.</text>
<text text-anchor="middle" x="137.18" y="-105.41" font-family="Times,serif" font-size="14.00">(0.11498672468338264)</text>
</g>
<!-- 2&#45;&gt;3 -->
<g id="edge8" class="edge">
<title>2&#45;&gt;3</title>
<path fill="none" stroke="black" d="M359.63,-183.55C317.37,-171.02 264.15,-155.25 220.37,-142.27"/>
<polygon fill="black" stroke="black" points="221.19,-138.86 210.61,-139.38 219.2,-145.57 221.19,-138.86"/>
</g>
<!-- 4 -->
<g id="node10" class="node">
<title>4</title>
<ellipse fill="orange" stroke="black" cx="436.18" cy="-116.61" rx="143.59" ry="26.74"/>
<text text-anchor="middle" x="436.18" y="-120.41" font-family="Times,serif" font-size="14.00">subst.</text>
<text text-anchor="middle" x="436.18" y="-105.41" font-family="Times,serif" font-size="14.00">(0.013422332410219064)</text>
</g>
<!-- 2&#45;&gt;4 -->
<g id="edge9" class="edge">
<title>2&#45;&gt;4</title>
<path fill="none" stroke="black" d="M434.08,-179.03C434.35,-171.06 434.66,-162.17 434.95,-153.68"/>
<polygon fill="black" stroke="black" points="438.45,-153.73 435.29,-143.61 431.45,-153.49 438.45,-153.73"/>
</g>
<!-- 8 -->
<g id="node14" class="node">
<title>8</title>
<ellipse fill="orange" stroke="black" cx="744.18" cy="-116.61" rx="137.36" ry="26.74"/>
<text text-anchor="middle" x="744.18" y="-120.41" font-family="Times,serif" font-size="14.00">simpl.</text>
<text text-anchor="middle" x="744.18" y="-105.41" font-family="Times,serif" font-size="14.00">(0.03666975197842715)</text>
</g>
<!-- 7&#45;&gt;8 -->
<g id="edge13" class="edge">
<title>7&#45;&gt;8</title>
<path fill="none" stroke="black" d="M954.61,-183.55C915.17,-171.19 865.65,-155.68 824.56,-142.8"/>
<polygon fill="black" stroke="black" points="825.44,-139.41 814.85,-139.76 823.35,-146.09 825.44,-139.41"/>
</g>
<!-- 9 -->
<g id="node15" class="node">
<title>9</title>
<ellipse fill="none" stroke="black" cx="1043.18" cy="-116.61" rx="143.59" ry="26.74"/>
<text text-anchor="middle" x="1043.18" y="-120.41" font-family="Times,serif" font-size="14.00">unfold double.</text>
<text text-anchor="middle" x="1043.18" y="-105.41" font-family="Times,serif" font-size="14.00">(0.005556175069798984)</text>
</g>
<!-- 7&#45;&gt;9 -->
<g id="edge14" class="edge">
<title>7&#45;&gt;9</title>
<path fill="none" stroke="black" d="M1029.78,-179.5C1031.54,-171.36 1033.52,-162.22 1035.4,-153.51"/>
<polygon fill="black" stroke="black" points="1038.86,-154.09 1037.56,-143.58 1032.02,-152.61 1038.86,-154.09"/>
</g>
<!-- 13 -->
<g id="node17" class="node">
<title>13</title>
<ellipse fill="none" stroke="black" cx="1340.18" cy="-116.61" rx="130.63" ry="26.74"/>
<text text-anchor="middle" x="1340.18" y="-120.41" font-family="Times,serif" font-size="14.00">intros.</text>
<text text-anchor="middle" x="1340.18" y="-105.41" font-family="Times,serif" font-size="14.00">(0.9783118122631969)</text>
</g>
<!-- 12&#45;&gt;13 -->
<g id="edge16" class="edge">
<title>12&#45;&gt;13</title>
<path fill="none" stroke="black" d="M1559.99,-183.21C1517.84,-170.63 1465.01,-154.87 1421.71,-141.94"/>
<polygon fill="black" stroke="black" points="1422.64,-138.57 1412.06,-139.06 1420.64,-145.28 1422.64,-138.57"/>
</g>
<!-- 15 -->
<g id="node18" class="node">
<title>15</title>
<ellipse fill="orange" stroke="black" cx="1632.18" cy="-116.61" rx="143.59" ry="26.74"/>
<text text-anchor="middle" x="1632.18" y="-120.41" font-family="Times,serif" font-size="14.00">simpl.</text>
<text text-anchor="middle" x="1632.18" y="-105.41" font-family="Times,serif" font-size="14.00">(0.008926652982197525)</text>
</g>
<!-- 12&#45;&gt;15 -->
<g id="edge17" class="edge">
<title>12&#45;&gt;15</title>
<path fill="none" stroke="black" d="M1633.58,-179.03C1633.4,-171.06 1633.19,-162.17 1633,-153.68"/>
<polygon fill="black" stroke="black" points="1636.5,-153.53 1632.77,-143.61 1629.5,-153.69 1636.5,-153.53"/>
</g>
<!-- 10 -->
<g id="node16" class="node">
<title>10</title>
<ellipse fill="orange" stroke="black" cx="1043.18" cy="-26.87" rx="137.36" ry="26.74"/>
<text text-anchor="middle" x="1043.18" y="-30.67" font-family="Times,serif" font-size="14.00">simpl.</text>
<text text-anchor="middle" x="1043.18" y="-15.67" font-family="Times,serif" font-size="14.00">(0.21147596198351948)</text>
</g>
<!-- 9&#45;&gt;10 -->
<g id="edge15" class="edge">
<title>9&#45;&gt;10</title>
<path fill="none" stroke="black" d="M1043.18,-89.29C1043.18,-81.32 1043.18,-72.43 1043.18,-63.94"/>
<polygon fill="black" stroke="black" points="1046.68,-63.87 1043.18,-53.87 1039.68,-63.87 1046.68,-63.87"/>
</g>
<!-- 14 -->
<g id="node19" class="node">
<title>14</title>
<ellipse fill="orange" stroke="black" cx="1340.18" cy="-26.87" rx="130.63" ry="26.74"/>
<text text-anchor="middle" x="1340.18" y="-30.67" font-family="Times,serif" font-size="14.00">simpl.</text>
<text text-anchor="middle" x="1340.18" y="-15.67" font-family="Times,serif" font-size="14.00">(0.0882885996479997)</text>
</g>
<!-- 13&#45;&gt;14 -->
<g id="edge18" class="edge">
<title>13&#45;&gt;14</title>
<path fill="none" stroke="black" d="M1340.18,-89.29C1340.18,-81.32 1340.18,-72.43 1340.18,-63.94"/>
<polygon fill="black" stroke="black" points="1343.68,-63.87 1340.18,-53.87 1336.68,-63.87 1343.68,-63.87"/>
</g>
<!-- 18 -->
<g id="node23" class="node">
<title>18</title>
<ellipse fill="orange" stroke="black" cx="1931.18" cy="-116.61" rx="137.36" ry="26.74"/>
<text text-anchor="middle" x="1931.18" y="-120.41" font-family="Times,serif" font-size="14.00">simpl.</text>
<text text-anchor="middle" x="1931.18" y="-105.41" font-family="Times,serif" font-size="14.00">(0.03666975197842715)</text>
</g>
<!-- 17&#45;&gt;18 -->
<g id="edge22" class="edge">
<title>17&#45;&gt;18</title>
<path fill="none" stroke="black" d="M1929.78,-179.03C1929.96,-171.06 1930.16,-162.17 1930.36,-153.68"/>
<polygon fill="black" stroke="black" points="1933.86,-153.69 1930.59,-143.61 1926.86,-153.53 1933.86,-153.69"/>
</g>
<!-- 19 -->
<g id="node24" class="node">
<title>19</title>
<ellipse fill="none" stroke="black" cx="2230.18" cy="-116.61" rx="143.59" ry="26.74"/>
<text text-anchor="middle" x="2230.18" y="-120.41" font-family="Times,serif" font-size="14.00">unfold double.</text>
<text text-anchor="middle" x="2230.18" y="-105.41" font-family="Times,serif" font-size="14.00">(0.005556175069798984)</text>
</g>
<!-- 17&#45;&gt;19 -->
<g id="edge23" class="edge">
<title>17&#45;&gt;19</title>
<path fill="none" stroke="black" d="M2002.43,-184C2045.55,-171.43 2100.29,-155.47 2145.29,-142.36"/>
<polygon fill="black" stroke="black" points="2146.41,-145.67 2155.03,-139.52 2144.45,-138.95 2146.41,-145.67"/>
</g>
<!-- 23 -->
<g id="node26" class="node">
<title>23</title>
<ellipse fill="none" stroke="black" cx="2528.18" cy="-116.61" rx="130.63" ry="26.74"/>
<text text-anchor="middle" x="2528.18" y="-120.41" font-family="Times,serif" font-size="14.00">intros.</text>
<text text-anchor="middle" x="2528.18" y="-105.41" font-family="Times,serif" font-size="14.00">(0.9783118122631969)</text>
</g>
<!-- 22&#45;&gt;23 -->
<g id="edge25" class="edge">
<title>22&#45;&gt;23</title>
<path fill="none" stroke="black" d="M2535.88,-179.03C2534.88,-171.06 2533.76,-162.17 2532.7,-153.68"/>
<polygon fill="black" stroke="black" points="2536.16,-153.1 2531.44,-143.61 2529.21,-153.97 2536.16,-153.1"/>
</g>
<!-- 25 -->
<g id="node27" class="node">
<title>25</title>
<ellipse fill="orange" stroke="black" cx="2820.18" cy="-116.61" rx="143.59" ry="26.74"/>
<text text-anchor="middle" x="2820.18" y="-120.41" font-family="Times,serif" font-size="14.00">simpl.</text>
<text text-anchor="middle" x="2820.18" y="-105.41" font-family="Times,serif" font-size="14.00">(0.008926652982197525)</text>
</g>
<!-- 22&#45;&gt;25 -->
<g id="edge26" class="edge">
<title>22&#45;&gt;25</title>
<path fill="none" stroke="black" d="M2610.81,-182.98C2649.95,-170.76 2698.56,-155.58 2739.09,-142.93"/>
<polygon fill="black" stroke="black" points="2740.17,-146.26 2748.67,-139.94 2738.09,-139.58 2740.17,-146.26"/>
</g>
<!-- 20 -->
<g id="node25" class="node">
<title>20</title>
<ellipse fill="orange" stroke="black" cx="2230.18" cy="-26.87" rx="137.36" ry="26.74"/>
<text text-anchor="middle" x="2230.18" y="-30.67" font-family="Times,serif" font-size="14.00">simpl.</text>
<text text-anchor="middle" x="2230.18" y="-15.67" font-family="Times,serif" font-size="14.00">(0.21147596198351948)</text>
</g>
<!-- 19&#45;&gt;20 -->
<g id="edge24" class="edge">
<title>19&#45;&gt;20</title>
<path fill="none" stroke="black" d="M2230.18,-89.29C2230.18,-81.32 2230.18,-72.43 2230.18,-63.94"/>
<polygon fill="black" stroke="black" points="2233.68,-63.87 2230.18,-53.87 2226.68,-63.87 2233.68,-63.87"/>
</g>
<!-- 24 -->
<g id="node28" class="node">
<title>24</title>
<ellipse fill="orange" stroke="black" cx="2528.18" cy="-26.87" rx="130.63" ry="26.74"/>
<text text-anchor="middle" x="2528.18" y="-30.67" font-family="Times,serif" font-size="14.00">simpl.</text>
<text text-anchor="middle" x="2528.18" y="-15.67" font-family="Times,serif" font-size="14.00">(0.0882885996479997)</text>
</g>
<!-- 23&#45;&gt;24 -->
<g id="edge27" class="edge">
<title>23&#45;&gt;24</title>
<path fill="none" stroke="black" d="M2528.18,-89.29C2528.18,-81.32 2528.18,-72.43 2528.18,-63.94"/>
<polygon fill="black" stroke="black" points="2531.68,-63.87 2528.18,-53.87 2524.68,-63.87 2531.68,-63.87"/>
</g>
</g>
</svg>
