<?xml version="1.0" encoding="UTF-8" standalone="no"?>
<!DOCTYPE svg PUBLIC "-//W3C//DTD SVG 1.1//EN"
 "http://www.w3.org/Graphics/SVG/1.1/DTD/svg11.dtd">
<!-- Generated by graphviz version 2.43.0 (0)
 -->
<!-- Pages: 1 -->
<svg width="4454pt" height="510pt"
 viewBox="0.00 0.00 4453.99 510.44" xmlns="http://www.w3.org/2000/svg" xmlns:xlink="http://www.w3.org/1999/xlink">
<g id="graph0" class="graph" transform="scale(1 1) rotate(0) translate(4 506.44)">
<polygon fill="white" stroke="transparent" points="-4,4 -4,-506.44 4449.99,-506.44 4449.99,4 -4,4"/>
<!-- 0 -->
<g id="node1" class="node">
<title>0</title>
<ellipse fill="none" stroke="black" cx="2942.81" cy="-475.57" rx="104.8" ry="26.74"/>
<text text-anchor="middle" x="2942.81" y="-479.37" font-family="Times,serif" font-size="14.00">unicite_circonscrit</text>
<text text-anchor="middle" x="2942.81" y="-464.37" font-family="Times,serif" font-size="14.00">(1.0)</text>
</g>
<!-- 1 -->
<g id="node2" class="node">
<title>1</title>
<ellipse fill="none" stroke="black" cx="1925.81" cy="-385.83" rx="130.63" ry="26.74"/>
<text text-anchor="middle" x="1925.81" y="-389.63" font-family="Times,serif" font-size="14.00">intros.</text>
<text text-anchor="middle" x="1925.81" y="-374.63" font-family="Times,serif" font-size="14.00">(0.9104692997779218)</text>
</g>
<!-- 0&#45;&gt;1 -->
<g id="edge1" class="edge">
<title>0&#45;&gt;1</title>
<path fill="none" stroke="black" d="M2844.84,-466.12C2660.18,-450.19 2260.73,-415.72 2054.63,-397.94"/>
<polygon fill="black" stroke="black" points="2054.92,-394.46 2044.66,-397.08 2054.32,-401.43 2054.92,-394.46"/>
</g>
<!-- 17 -->
<g id="node3" class="node">
<title>17</title>
<ellipse fill="none" stroke="black" cx="2942.81" cy="-385.83" rx="137.36" ry="26.74"/>
<text text-anchor="middle" x="2942.81" y="-389.63" font-family="Times,serif" font-size="14.00">unfold isocele.</text>
<text text-anchor="middle" x="2942.81" y="-374.63" font-family="Times,serif" font-size="14.00">(0.01394828842441896)</text>
</g>
<!-- 0&#45;&gt;17 -->
<g id="edge2" class="edge">
<title>0&#45;&gt;17</title>
<path fill="none" stroke="black" d="M2942.81,-448.25C2942.81,-440.28 2942.81,-431.39 2942.81,-422.9"/>
<polygon fill="black" stroke="black" points="2946.31,-422.83 2942.81,-412.83 2939.31,-422.83 2946.31,-422.83"/>
</g>
<!-- 31 -->
<g id="node4" class="node">
<title>31</title>
<ellipse fill="none" stroke="black" cx="3853.81" cy="-385.83" rx="143.59" ry="26.74"/>
<text text-anchor="middle" x="3853.81" y="-389.63" font-family="Times,serif" font-size="14.00">unfold isocele.</text>
<text text-anchor="middle" x="3853.81" y="-374.63" font-family="Times,serif" font-size="14.00">(0.003595393537769923)</text>
</g>
<!-- 0&#45;&gt;31 -->
<g id="edge3" class="edge">
<title>0&#45;&gt;31</title>
<path fill="none" stroke="black" d="M3039.88,-465.22C3202.96,-449.52 3532.3,-417.8 3718.17,-399.89"/>
<polygon fill="black" stroke="black" points="3718.66,-403.36 3728.28,-398.92 3717.99,-396.4 3718.66,-403.36"/>
</g>
<!-- 2 -->
<g id="node5" class="node">
<title>2</title>
<ellipse fill="none" stroke="black" cx="1023.81" cy="-296.09" rx="130.63" ry="26.74"/>
<text text-anchor="middle" x="1023.81" y="-299.89" font-family="Times,serif" font-size="14.00">split.</text>
<text text-anchor="middle" x="1023.81" y="-284.89" font-family="Times,serif" font-size="14.00">(0.9189863969208617)</text>
</g>
<!-- 1&#45;&gt;2 -->
<g id="edge4" class="edge">
<title>1&#45;&gt;2</title>
<path fill="none" stroke="black" d="M1809.28,-373.49C1639.58,-356.99 1325.64,-326.45 1150.43,-309.41"/>
<polygon fill="black" stroke="black" points="1150.67,-305.91 1140.38,-308.43 1149.99,-312.88 1150.67,-305.91"/>
</g>
<!-- 14 -->
<g id="node6" class="node">
<title>14</title>
<ellipse fill="orange" stroke="black" cx="1620.81" cy="-296.09" rx="143.59" ry="26.74"/>
<text text-anchor="middle" x="1620.81" y="-299.89" font-family="Times,serif" font-size="14.00">simpl.</text>
<text text-anchor="middle" x="1620.81" y="-284.89" font-family="Times,serif" font-size="14.00">(0.008546904995351375)</text>
</g>
<!-- 1&#45;&gt;14 -->
<g id="edge5" class="edge">
<title>1&#45;&gt;14</title>
<path fill="none" stroke="black" d="M1851.98,-363.59C1808.12,-350.97 1752.3,-334.91 1706.5,-321.74"/>
<polygon fill="black" stroke="black" points="1707.46,-318.37 1696.88,-318.97 1705.53,-325.1 1707.46,-318.37"/>
</g>
<!-- 15 -->
<g id="node7" class="node">
<title>15</title>
<ellipse fill="orange" stroke="black" cx="1925.81" cy="-296.09" rx="143.59" ry="26.74"/>
<text text-anchor="middle" x="1925.81" y="-299.89" font-family="Times,serif" font-size="14.00">try discriminate.</text>
<text text-anchor="middle" x="1925.81" y="-284.89" font-family="Times,serif" font-size="14.00">(0.007465977227393175)</text>
</g>
<!-- 1&#45;&gt;15 -->
<g id="edge6" class="edge">
<title>1&#45;&gt;15</title>
<path fill="none" stroke="black" d="M1925.81,-358.51C1925.81,-350.54 1925.81,-341.65 1925.81,-333.16"/>
<polygon fill="black" stroke="black" points="1929.31,-333.09 1925.81,-323.09 1922.31,-333.09 1929.31,-333.09"/>
</g>
<!-- 16 -->
<g id="node8" class="node">
<title>16</title>
<ellipse fill="orange" stroke="black" cx="2230.81" cy="-296.09" rx="143.59" ry="26.74"/>
<text text-anchor="middle" x="2230.81" y="-299.89" font-family="Times,serif" font-size="14.00">subst.</text>
<text text-anchor="middle" x="2230.81" y="-284.89" font-family="Times,serif" font-size="14.00">(0.005277107590304371)</text>
</g>
<!-- 1&#45;&gt;16 -->
<g id="edge7" class="edge">
<title>1&#45;&gt;16</title>
<path fill="none" stroke="black" d="M1999.65,-363.59C2043.51,-350.97 2099.33,-334.91 2145.13,-321.74"/>
<polygon fill="black" stroke="black" points="2146.1,-325.1 2154.74,-318.97 2144.17,-318.37 2146.1,-325.1"/>
</g>
<!-- 18 -->
<g id="node20" class="node">
<title>18</title>
<ellipse fill="none" stroke="black" cx="2643.81" cy="-296.09" rx="130.63" ry="26.74"/>
<text text-anchor="middle" x="2643.81" y="-299.89" font-family="Times,serif" font-size="14.00">intros.</text>
<text text-anchor="middle" x="2643.81" y="-284.89" font-family="Times,serif" font-size="14.00">(0.9894703587983568)</text>
</g>
<!-- 17&#45;&gt;18 -->
<g id="edge19" class="edge">
<title>17&#45;&gt;18</title>
<path fill="none" stroke="black" d="M2868.9,-363.14C2825.65,-350.45 2770.93,-334.39 2726.27,-321.29"/>
<polygon fill="black" stroke="black" points="2727.2,-317.91 2716.62,-318.45 2725.23,-324.63 2727.2,-317.91"/>
</g>
<!-- 29 -->
<g id="node21" class="node">
<title>29</title>
<ellipse fill="orange" stroke="black" cx="2942.81" cy="-296.09" rx="149.81" ry="26.74"/>
<text text-anchor="middle" x="2942.81" y="-299.89" font-family="Times,serif" font-size="14.00">eauto.</text>
<text text-anchor="middle" x="2942.81" y="-284.89" font-family="Times,serif" font-size="14.00">(0.0030522731017719046)</text>
</g>
<!-- 17&#45;&gt;29 -->
<g id="edge20" class="edge">
<title>17&#45;&gt;29</title>
<path fill="none" stroke="black" d="M2942.81,-358.51C2942.81,-350.54 2942.81,-341.65 2942.81,-333.16"/>
<polygon fill="black" stroke="black" points="2946.31,-333.09 2942.81,-323.09 2939.31,-333.09 2946.31,-333.09"/>
</g>
<!-- 30 -->
<g id="node22" class="node">
<title>30</title>
<ellipse fill="orange" stroke="black" cx="3247.81" cy="-296.09" rx="137.36" ry="26.74"/>
<text text-anchor="middle" x="3247.81" y="-299.89" font-family="Times,serif" font-size="14.00">simpl.</text>
<text text-anchor="middle" x="3247.81" y="-284.89" font-family="Times,serif" font-size="14.00">(0.00231565921254891)</text>
</g>
<!-- 17&#45;&gt;30 -->
<g id="edge21" class="edge">
<title>17&#45;&gt;30</title>
<path fill="none" stroke="black" d="M3017.82,-363.25C3061.77,-350.61 3117.43,-334.6 3162.98,-321.49"/>
<polygon fill="black" stroke="black" points="3164.2,-324.79 3172.84,-318.66 3162.26,-318.06 3164.2,-324.79"/>
</g>
<!-- 32 -->
<g id="node33" class="node">
<title>32</title>
<ellipse fill="none" stroke="black" cx="3704.81" cy="-296.09" rx="130.63" ry="26.74"/>
<text text-anchor="middle" x="3704.81" y="-299.89" font-family="Times,serif" font-size="14.00">intros.</text>
<text text-anchor="middle" x="3704.81" y="-284.89" font-family="Times,serif" font-size="14.00">(0.9894703587983568)</text>
</g>
<!-- 31&#45;&gt;32 -->
<g id="edge32" class="edge">
<title>31&#45;&gt;32</title>
<path fill="none" stroke="black" d="M3811.52,-359.92C3793.99,-349.6 3773.53,-337.55 3755.23,-326.78"/>
<polygon fill="black" stroke="black" points="3756.84,-323.66 3746.45,-321.61 3753.29,-329.7 3756.84,-323.66"/>
</g>
<!-- 43 -->
<g id="node34" class="node">
<title>43</title>
<ellipse fill="orange" stroke="black" cx="4003.81" cy="-296.09" rx="149.81" ry="26.74"/>
<text text-anchor="middle" x="4003.81" y="-299.89" font-family="Times,serif" font-size="14.00">eauto.</text>
<text text-anchor="middle" x="4003.81" y="-284.89" font-family="Times,serif" font-size="14.00">(0.0030522731017719046)</text>
</g>
<!-- 31&#45;&gt;43 -->
<g id="edge33" class="edge">
<title>31&#45;&gt;43</title>
<path fill="none" stroke="black" d="M3896.4,-359.92C3913.89,-349.69 3934.29,-337.76 3952.59,-327.05"/>
<polygon fill="black" stroke="black" points="3954.52,-329.98 3961.39,-321.91 3950.99,-323.94 3954.52,-329.98"/>
</g>
<!-- 44 -->
<g id="node35" class="node">
<title>44</title>
<ellipse fill="orange" stroke="black" cx="4308.81" cy="-296.09" rx="137.36" ry="26.74"/>
<text text-anchor="middle" x="4308.81" y="-299.89" font-family="Times,serif" font-size="14.00">simpl.</text>
<text text-anchor="middle" x="4308.81" y="-284.89" font-family="Times,serif" font-size="14.00">(0.00231565921254891)</text>
</g>
<!-- 31&#45;&gt;44 -->
<g id="edge34" class="edge">
<title>31&#45;&gt;44</title>
<path fill="none" stroke="black" d="M3951.14,-366.06C4025.35,-351.75 4127.39,-332.07 4203.5,-317.4"/>
<polygon fill="black" stroke="black" points="4204.43,-320.78 4213.59,-315.45 4203.11,-313.91 4204.43,-320.78"/>
</g>
<!-- 3 -->
<g id="node9" class="node">
<title>3</title>
<ellipse fill="none" stroke="black" cx="270.81" cy="-206.35" rx="130.63" ry="26.74"/>
<text text-anchor="middle" x="270.81" y="-210.15" font-family="Times,serif" font-size="14.00">split.</text>
<text text-anchor="middle" x="270.81" y="-195.15" font-family="Times,serif" font-size="14.00">(0.9834276084149464)</text>
</g>
<!-- 2&#45;&gt;3 -->
<g id="edge8" class="edge">
<title>2&#45;&gt;3</title>
<path fill="none" stroke="black" d="M902.79,-285.83C778.88,-275.65 580.91,-257.48 410.81,-233.22 398.55,-231.47 385.73,-229.42 373.03,-227.24"/>
<polygon fill="black" stroke="black" points="373.34,-223.74 362.89,-225.48 372.14,-230.64 373.34,-223.74"/>
</g>
<!-- 6 -->
<g id="node10" class="node">
<title>6</title>
<ellipse fill="orange" stroke="black" cx="556.81" cy="-206.35" rx="137.36" ry="26.74"/>
<text text-anchor="middle" x="556.81" y="-210.15" font-family="Times,serif" font-size="14.00">eauto.</text>
<text text-anchor="middle" x="556.81" y="-195.15" font-family="Times,serif" font-size="14.00">(0.01506042389662052)</text>
</g>
<!-- 2&#45;&gt;6 -->
<g id="edge9" class="edge">
<title>2&#45;&gt;6</title>
<path fill="none" stroke="black" d="M929.59,-277.39C852.56,-262.91 743.65,-242.45 663.43,-227.38"/>
<polygon fill="black" stroke="black" points="663.77,-223.88 653.3,-225.48 662.48,-230.76 663.77,-223.88"/>
</g>
<!-- 7 -->
<g id="node11" class="node">
<title>7</title>
<ellipse fill="orange" stroke="black" cx="861.81" cy="-206.35" rx="149.81" ry="26.74"/>
<text text-anchor="middle" x="861.81" y="-210.15" font-family="Times,serif" font-size="14.00">simpl.</text>
<text text-anchor="middle" x="861.81" y="-195.15" font-family="Times,serif" font-size="14.00">(0.0003366481094695921)</text>
</g>
<!-- 2&#45;&gt;7 -->
<g id="edge10" class="edge">
<title>2&#45;&gt;7</title>
<path fill="none" stroke="black" d="M978.69,-270.65C959.28,-260.14 936.43,-247.76 916.1,-236.75"/>
<polygon fill="black" stroke="black" points="917.72,-233.65 907.26,-231.96 914.39,-239.8 917.72,-233.65"/>
</g>
<!-- 8 -->
<g id="node12" class="node">
<title>8</title>
<ellipse fill="none" stroke="black" cx="1185.81" cy="-206.35" rx="156.04" ry="26.74"/>
<text text-anchor="middle" x="1185.81" y="-210.15" font-family="Times,serif" font-size="14.00">intuition.</text>
<text text-anchor="middle" x="1185.81" y="-195.15" font-family="Times,serif" font-size="14.00">(0.00016895038660213937)</text>
</g>
<!-- 2&#45;&gt;8 -->
<g id="edge11" class="edge">
<title>2&#45;&gt;8</title>
<path fill="none" stroke="black" d="M1068.94,-270.65C1088.27,-260.18 1111.01,-247.86 1131.27,-236.89"/>
<polygon fill="black" stroke="black" points="1132.96,-239.96 1140.09,-232.12 1129.63,-233.8 1132.96,-239.96"/>
</g>
<!-- 11 -->
<g id="node13" class="node">
<title>11</title>
<ellipse fill="none" stroke="black" cx="1505.81" cy="-206.35" rx="145.83" ry="26.74"/>
<text text-anchor="middle" x="1505.81" y="-210.15" font-family="Times,serif" font-size="14.00">repeat split.</text>
<text text-anchor="middle" x="1505.81" y="-195.15" font-family="Times,serif" font-size="14.00">(7.315046058339548e&#45;05)</text>
</g>
<!-- 2&#45;&gt;11 -->
<g id="edge12" class="edge">
<title>2&#45;&gt;11</title>
<path fill="none" stroke="black" d="M1119.33,-277.7C1198.58,-263.28 1311.37,-242.75 1394.66,-227.58"/>
<polygon fill="black" stroke="black" points="1395.46,-231 1404.67,-225.76 1394.21,-224.11 1395.46,-231"/>
</g>
<!-- 4 -->
<g id="node14" class="node">
<title>4</title>
<ellipse fill="orange" stroke="black" cx="130.81" cy="-116.61" rx="130.63" ry="26.74"/>
<text text-anchor="middle" x="130.81" y="-120.41" font-family="Times,serif" font-size="14.00">eauto.</text>
<text text-anchor="middle" x="130.81" y="-105.41" font-family="Times,serif" font-size="14.00">(0.6255380109358561)</text>
</g>
<!-- 3&#45;&gt;4 -->
<g id="edge13" class="edge">
<title>3&#45;&gt;4</title>
<path fill="none" stroke="black" d="M231.44,-180.68C215.19,-170.49 196.19,-158.58 179.11,-147.88"/>
<polygon fill="black" stroke="black" points="180.71,-144.75 170.37,-142.4 176.99,-150.68 180.71,-144.75"/>
</g>
<!-- 5 -->
<g id="node15" class="node">
<title>5</title>
<ellipse fill="none" stroke="black" cx="410.81" cy="-116.61" rx="130.63" ry="26.74"/>
<text text-anchor="middle" x="410.81" y="-120.41" font-family="Times,serif" font-size="14.00">red.</text>
<text text-anchor="middle" x="410.81" y="-105.41" font-family="Times,serif" font-size="14.00">(0.0641655525841734)</text>
</g>
<!-- 3&#45;&gt;5 -->
<g id="edge14" class="edge">
<title>3&#45;&gt;5</title>
<path fill="none" stroke="black" d="M310.19,-180.68C326.44,-170.49 345.44,-158.58 362.52,-147.88"/>
<polygon fill="black" stroke="black" points="364.64,-150.68 371.25,-142.4 360.92,-144.75 364.64,-150.68"/>
</g>
<!-- 9 -->
<g id="node16" class="node">
<title>9</title>
<ellipse fill="none" stroke="black" cx="893.81" cy="-116.61" rx="137.36" ry="26.74"/>
<text text-anchor="middle" x="893.81" y="-120.41" font-family="Times,serif" font-size="14.00">red.</text>
<text text-anchor="middle" x="893.81" y="-105.41" font-family="Times,serif" font-size="14.00">(0.33748049485491033)</text>
</g>
<!-- 8&#45;&gt;9 -->
<g id="edge15" class="edge">
<title>8&#45;&gt;9</title>
<path fill="none" stroke="black" d="M1110.62,-182.76C1069.47,-170.39 1018.41,-155.05 976.19,-142.36"/>
<polygon fill="black" stroke="black" points="977.07,-138.97 966.49,-139.45 975.06,-145.68 977.07,-138.97"/>
</g>
<!-- 10 -->
<g id="node17" class="node">
<title>10</title>
<ellipse fill="orange" stroke="black" cx="1185.81" cy="-116.61" rx="137.36" ry="26.74"/>
<text text-anchor="middle" x="1185.81" y="-120.41" font-family="Times,serif" font-size="14.00">eauto.</text>
<text text-anchor="middle" x="1185.81" y="-105.41" font-family="Times,serif" font-size="14.00">(0.05764453487847893)</text>
</g>
<!-- 8&#45;&gt;10 -->
<g id="edge16" class="edge">
<title>8&#45;&gt;10</title>
<path fill="none" stroke="black" d="M1185.81,-179.03C1185.81,-171.06 1185.81,-162.17 1185.81,-153.68"/>
<polygon fill="black" stroke="black" points="1189.31,-153.61 1185.81,-143.61 1182.31,-153.61 1189.31,-153.61"/>
</g>
<!-- 12 -->
<g id="node18" class="node">
<title>12</title>
<ellipse fill="orange" stroke="black" cx="1471.81" cy="-116.61" rx="130.63" ry="26.74"/>
<text text-anchor="middle" x="1471.81" y="-120.41" font-family="Times,serif" font-size="14.00">eauto.</text>
<text text-anchor="middle" x="1471.81" y="-105.41" font-family="Times,serif" font-size="14.00">(0.3600638563245119)</text>
</g>
<!-- 11&#45;&gt;12 -->
<g id="edge17" class="edge">
<title>11&#45;&gt;12</title>
<path fill="none" stroke="black" d="M1495.8,-179.5C1492.58,-171.18 1488.95,-161.82 1485.51,-152.95"/>
<polygon fill="black" stroke="black" points="1488.75,-151.64 1481.88,-143.58 1482.23,-154.17 1488.75,-151.64"/>
</g>
<!-- 13 -->
<g id="node19" class="node">
<title>13</title>
<ellipse fill="none" stroke="black" cx="1751.81" cy="-116.61" rx="130.63" ry="26.74"/>
<text text-anchor="middle" x="1751.81" y="-120.41" font-family="Times,serif" font-size="14.00">red.</text>
<text text-anchor="middle" x="1751.81" y="-105.41" font-family="Times,serif" font-size="14.00">(0.0847119612404514)</text>
</g>
<!-- 11&#45;&gt;13 -->
<g id="edge18" class="edge">
<title>11&#45;&gt;13</title>
<path fill="none" stroke="black" d="M1570.77,-182.18C1604.08,-170.3 1644.76,-155.79 1679.11,-143.54"/>
<polygon fill="black" stroke="black" points="1680.38,-146.8 1688.62,-140.15 1678.03,-140.21 1680.38,-146.8"/>
</g>
<!-- 19 -->
<g id="node23" class="node">
<title>19</title>
<ellipse fill="none" stroke="black" cx="2344.81" cy="-206.35" rx="130.63" ry="26.74"/>
<text text-anchor="middle" x="2344.81" y="-210.15" font-family="Times,serif" font-size="14.00">split.</text>
<text text-anchor="middle" x="2344.81" y="-195.15" font-family="Times,serif" font-size="14.00">(0.6129958162196656)</text>
</g>
<!-- 18&#45;&gt;19 -->
<g id="edge22" class="edge">
<title>18&#45;&gt;19</title>
<path fill="none" stroke="black" d="M2571.05,-273.74C2527.65,-261 2472.41,-244.79 2427.38,-231.58"/>
<polygon fill="black" stroke="black" points="2428.22,-228.18 2417.64,-228.72 2426.25,-234.9 2428.22,-228.18"/>
</g>
<!-- 27 -->
<g id="node24" class="node">
<title>27</title>
<ellipse fill="orange" stroke="black" cx="2643.81" cy="-206.35" rx="149.81" ry="26.74"/>
<text text-anchor="middle" x="2643.81" y="-210.15" font-family="Times,serif" font-size="14.00">simpl.</text>
<text text-anchor="middle" x="2643.81" y="-195.15" font-family="Times,serif" font-size="14.00">(0.0057010837021791135)</text>
</g>
<!-- 18&#45;&gt;27 -->
<g id="edge23" class="edge">
<title>18&#45;&gt;27</title>
<path fill="none" stroke="black" d="M2643.81,-268.77C2643.81,-260.8 2643.81,-251.91 2643.81,-243.42"/>
<polygon fill="black" stroke="black" points="2647.31,-243.35 2643.81,-233.35 2640.31,-243.35 2647.31,-243.35"/>
</g>
<!-- 28 -->
<g id="node25" class="node">
<title>28</title>
<ellipse fill="orange" stroke="black" cx="2948.81" cy="-206.35" rx="137.36" ry="26.74"/>
<text text-anchor="middle" x="2948.81" y="-210.15" font-family="Times,serif" font-size="14.00">try discriminate.</text>
<text text-anchor="middle" x="2948.81" y="-195.15" font-family="Times,serif" font-size="14.00">(0.00498006718397854)</text>
</g>
<!-- 18&#45;&gt;28 -->
<g id="edge24" class="edge">
<title>18&#45;&gt;28</title>
<path fill="none" stroke="black" d="M2717.65,-273.85C2761.84,-261.14 2818.17,-244.93 2864.16,-231.7"/>
<polygon fill="black" stroke="black" points="2865.17,-235.06 2873.81,-228.93 2863.23,-228.33 2865.17,-235.06"/>
</g>
<!-- 20 -->
<g id="node26" class="node">
<title>20</title>
<ellipse fill="none" stroke="black" cx="2031.81" cy="-116.61" rx="130.63" ry="26.74"/>
<text text-anchor="middle" x="2031.81" y="-120.41" font-family="Times,serif" font-size="14.00">split.</text>
<text text-anchor="middle" x="2031.81" y="-105.41" font-family="Times,serif" font-size="14.00">(0.9810578795584307)</text>
</g>
<!-- 19&#45;&gt;20 -->
<g id="edge25" class="edge">
<title>19&#45;&gt;20</title>
<path fill="none" stroke="black" d="M2269.45,-184.22C2223.33,-171.3 2164.22,-154.73 2116.5,-141.35"/>
<polygon fill="black" stroke="black" points="2117.37,-137.96 2106.8,-138.63 2115.49,-144.7 2117.37,-137.96"/>
</g>
<!-- 23 -->
<g id="node27" class="node">
<title>23</title>
<ellipse fill="orange" stroke="black" cx="2323.81" cy="-116.61" rx="143.59" ry="26.74"/>
<text text-anchor="middle" x="2323.81" y="-120.41" font-family="Times,serif" font-size="14.00">eauto.</text>
<text text-anchor="middle" x="2323.81" y="-105.41" font-family="Times,serif" font-size="14.00">(0.015024129968305842)</text>
</g>
<!-- 19&#45;&gt;23 -->
<g id="edge26" class="edge">
<title>19&#45;&gt;23</title>
<path fill="none" stroke="black" d="M2338.63,-179.5C2336.68,-171.36 2334.49,-162.22 2332.41,-153.51"/>
<polygon fill="black" stroke="black" points="2335.76,-152.49 2330.03,-143.58 2328.95,-154.12 2335.76,-152.49"/>
</g>
<!-- 24 -->
<g id="node28" class="node">
<title>24</title>
<ellipse fill="orange" stroke="black" cx="2634.81" cy="-116.61" rx="149.81" ry="26.74"/>
<text text-anchor="middle" x="2634.81" y="-120.41" font-family="Times,serif" font-size="14.00">simpl.</text>
<text text-anchor="middle" x="2634.81" y="-105.41" font-family="Times,serif" font-size="14.00">(0.0003358368253758487)</text>
</g>
<!-- 19&#45;&gt;24 -->
<g id="edge27" class="edge">
<title>19&#45;&gt;24</title>
<path fill="none" stroke="black" d="M2416.13,-183.77C2456.89,-171.44 2508.24,-155.91 2550.93,-142.99"/>
<polygon fill="black" stroke="black" points="2552.18,-146.27 2560.74,-140.02 2550.16,-139.57 2552.18,-146.27"/>
</g>
<!-- 25 -->
<g id="node29" class="node">
<title>25</title>
<ellipse fill="none" stroke="black" cx="2958.81" cy="-116.61" rx="156.04" ry="26.74"/>
<text text-anchor="middle" x="2958.81" y="-120.41" font-family="Times,serif" font-size="14.00">intuition.</text>
<text text-anchor="middle" x="2958.81" y="-105.41" font-family="Times,serif" font-size="14.00">(0.00016854323516588723)</text>
</g>
<!-- 19&#45;&gt;25 -->
<g id="edge28" class="edge">
<title>19&#45;&gt;25</title>
<path fill="none" stroke="black" d="M2437.67,-187.29C2453.38,-184.5 2469.54,-181.78 2484.81,-179.48 2621.54,-158.91 2656.82,-162.19 2793.81,-143.48 2808.05,-141.54 2822.96,-139.37 2837.75,-137.15"/>
<polygon fill="black" stroke="black" points="2838.6,-140.56 2847.96,-135.61 2837.55,-133.64 2838.6,-140.56"/>
</g>
<!-- 21 -->
<g id="node30" class="node">
<title>21</title>
<ellipse fill="orange" stroke="black" cx="1885.81" cy="-26.87" rx="130.63" ry="26.74"/>
<text text-anchor="middle" x="1885.81" y="-30.67" font-family="Times,serif" font-size="14.00">eauto.</text>
<text text-anchor="middle" x="1885.81" y="-15.67" font-family="Times,serif" font-size="14.00">(0.4167807285076902)</text>
</g>
<!-- 20&#45;&gt;21 -->
<g id="edge29" class="edge">
<title>20&#45;&gt;21</title>
<path fill="none" stroke="black" d="M1990.76,-90.94C1973.58,-80.61 1953.46,-68.52 1935.46,-57.71"/>
<polygon fill="black" stroke="black" points="1937.19,-54.66 1926.82,-52.51 1933.59,-60.66 1937.19,-54.66"/>
</g>
<!-- 22 -->
<g id="node31" class="node">
<title>22</title>
<ellipse fill="none" stroke="black" cx="2177.81" cy="-26.87" rx="143.59" ry="26.74"/>
<text text-anchor="middle" x="2177.81" y="-30.67" font-family="Times,serif" font-size="14.00">red.</text>
<text text-anchor="middle" x="2177.81" y="-15.67" font-family="Times,serif" font-size="14.00">(0.042751942306620425)</text>
</g>
<!-- 20&#45;&gt;22 -->
<g id="edge30" class="edge">
<title>20&#45;&gt;22</title>
<path fill="none" stroke="black" d="M2072.87,-90.94C2089.98,-80.66 2110,-68.62 2127.94,-57.84"/>
<polygon fill="black" stroke="black" points="2129.79,-60.81 2136.56,-52.66 2126.19,-54.81 2129.79,-60.81"/>
</g>
<!-- 26 -->
<g id="node32" class="node">
<title>26</title>
<ellipse fill="none" stroke="black" cx="2958.81" cy="-26.87" rx="137.36" ry="26.74"/>
<text text-anchor="middle" x="2958.81" y="-30.67" font-family="Times,serif" font-size="14.00">red.</text>
<text text-anchor="middle" x="2958.81" y="-15.67" font-family="Times,serif" font-size="14.00">(0.17667363331802136)</text>
</g>
<!-- 25&#45;&gt;26 -->
<g id="edge31" class="edge">
<title>25&#45;&gt;26</title>
<path fill="none" stroke="black" d="M2958.81,-89.29C2958.81,-81.32 2958.81,-72.43 2958.81,-63.94"/>
<polygon fill="black" stroke="black" points="2962.31,-63.87 2958.81,-53.87 2955.31,-63.87 2962.31,-63.87"/>
</g>
<!-- 33 -->
<g id="node36" class="node">
<title>33</title>
<ellipse fill="none" stroke="black" cx="3555.81" cy="-206.35" rx="130.63" ry="26.74"/>
<text text-anchor="middle" x="3555.81" y="-210.15" font-family="Times,serif" font-size="14.00">split.</text>
<text text-anchor="middle" x="3555.81" y="-195.15" font-family="Times,serif" font-size="14.00">(0.6129958162196656)</text>
</g>
<!-- 32&#45;&gt;33 -->
<g id="edge35" class="edge">
<title>32&#45;&gt;33</title>
<path fill="none" stroke="black" d="M3662.91,-270.42C3645.31,-260.05 3624.68,-247.9 3606.25,-237.05"/>
<polygon fill="black" stroke="black" points="3607.79,-233.9 3597.4,-231.84 3604.24,-239.93 3607.79,-233.9"/>
</g>
<!-- 41 -->
<g id="node37" class="node">
<title>41</title>
<ellipse fill="orange" stroke="black" cx="3854.81" cy="-206.35" rx="149.81" ry="26.74"/>
<text text-anchor="middle" x="3854.81" y="-210.15" font-family="Times,serif" font-size="14.00">simpl.</text>
<text text-anchor="middle" x="3854.81" y="-195.15" font-family="Times,serif" font-size="14.00">(0.0057010837021791135)</text>
</g>
<!-- 32&#45;&gt;41 -->
<g id="edge36" class="edge">
<title>32&#45;&gt;41</title>
<path fill="none" stroke="black" d="M3747,-270.42C3764.57,-260.14 3785.14,-248.11 3803.57,-237.32"/>
<polygon fill="black" stroke="black" points="3805.56,-240.21 3812.43,-232.14 3802.03,-234.17 3805.56,-240.21"/>
</g>
<!-- 42 -->
<g id="node38" class="node">
<title>42</title>
<ellipse fill="orange" stroke="black" cx="4159.81" cy="-206.35" rx="137.36" ry="26.74"/>
<text text-anchor="middle" x="4159.81" y="-210.15" font-family="Times,serif" font-size="14.00">try discriminate.</text>
<text text-anchor="middle" x="4159.81" y="-195.15" font-family="Times,serif" font-size="14.00">(0.00498006718397854)</text>
</g>
<!-- 32&#45;&gt;42 -->
<g id="edge37" class="edge">
<title>32&#45;&gt;42</title>
<path fill="none" stroke="black" d="M3797.99,-277.12C3872.39,-262.78 3976.64,-242.67 4054.14,-227.73"/>
<polygon fill="black" stroke="black" points="4055.26,-231.08 4064.42,-225.75 4053.93,-224.2 4055.26,-231.08"/>
</g>
<!-- 34 -->
<g id="node39" class="node">
<title>34</title>
<ellipse fill="none" stroke="black" cx="3263.81" cy="-116.61" rx="130.63" ry="26.74"/>
<text text-anchor="middle" x="3263.81" y="-120.41" font-family="Times,serif" font-size="14.00">split.</text>
<text text-anchor="middle" x="3263.81" y="-105.41" font-family="Times,serif" font-size="14.00">(0.9810578795584307)</text>
</g>
<!-- 33&#45;&gt;34 -->
<g id="edge38" class="edge">
<title>33&#45;&gt;34</title>
<path fill="none" stroke="black" d="M3484.01,-183.77C3442.01,-171.16 3388.87,-155.19 3345.31,-142.1"/>
<polygon fill="black" stroke="black" points="3346.18,-138.7 3335.6,-139.18 3344.17,-145.41 3346.18,-138.7"/>
</g>
<!-- 37 -->
<g id="node40" class="node">
<title>37</title>
<ellipse fill="orange" stroke="black" cx="3555.81" cy="-116.61" rx="143.59" ry="26.74"/>
<text text-anchor="middle" x="3555.81" y="-120.41" font-family="Times,serif" font-size="14.00">eauto.</text>
<text text-anchor="middle" x="3555.81" y="-105.41" font-family="Times,serif" font-size="14.00">(0.015024129968305842)</text>
</g>
<!-- 33&#45;&gt;37 -->
<g id="edge39" class="edge">
<title>33&#45;&gt;37</title>
<path fill="none" stroke="black" d="M3555.81,-179.03C3555.81,-171.06 3555.81,-162.17 3555.81,-153.68"/>
<polygon fill="black" stroke="black" points="3559.31,-153.61 3555.81,-143.61 3552.31,-153.61 3559.31,-153.61"/>
</g>
<!-- 38 -->
<g id="node41" class="node">
<title>38</title>
<ellipse fill="orange" stroke="black" cx="3866.81" cy="-116.61" rx="149.81" ry="26.74"/>
<text text-anchor="middle" x="3866.81" y="-120.41" font-family="Times,serif" font-size="14.00">simpl.</text>
<text text-anchor="middle" x="3866.81" y="-105.41" font-family="Times,serif" font-size="14.00">(0.0003358368253758487)</text>
</g>
<!-- 33&#45;&gt;38 -->
<g id="edge40" class="edge">
<title>33&#45;&gt;38</title>
<path fill="none" stroke="black" d="M3630.7,-184.22C3675.34,-171.63 3732.22,-155.58 3778.97,-142.39"/>
<polygon fill="black" stroke="black" points="3780.11,-145.71 3788.78,-139.62 3778.21,-138.97 3780.11,-145.71"/>
</g>
<!-- 39 -->
<g id="node42" class="node">
<title>39</title>
<ellipse fill="none" stroke="black" cx="4190.81" cy="-116.61" rx="156.04" ry="26.74"/>
<text text-anchor="middle" x="4190.81" y="-120.41" font-family="Times,serif" font-size="14.00">intuition.</text>
<text text-anchor="middle" x="4190.81" y="-105.41" font-family="Times,serif" font-size="14.00">(0.00016854323516588723)</text>
</g>
<!-- 33&#45;&gt;39 -->
<g id="edge41" class="edge">
<title>33&#45;&gt;39</title>
<path fill="none" stroke="black" d="M3648.28,-187.26C3664.11,-184.46 3680.41,-181.74 3695.81,-179.48 3841.79,-158.06 3879.56,-162.91 4025.81,-143.48 4040.18,-141.57 4055.22,-139.42 4070.13,-137.2"/>
<polygon fill="black" stroke="black" points="4071.05,-140.6 4080.42,-135.65 4070.01,-133.68 4071.05,-140.6"/>
</g>
<!-- 35 -->
<g id="node43" class="node">
<title>35</title>
<ellipse fill="orange" stroke="black" cx="3254.81" cy="-26.87" rx="130.63" ry="26.74"/>
<text text-anchor="middle" x="3254.81" y="-30.67" font-family="Times,serif" font-size="14.00">eauto.</text>
<text text-anchor="middle" x="3254.81" y="-15.67" font-family="Times,serif" font-size="14.00">(0.4167807285076902)</text>
</g>
<!-- 34&#45;&gt;35 -->
<g id="edge42" class="edge">
<title>34&#45;&gt;35</title>
<path fill="none" stroke="black" d="M3261.11,-89.29C3260.3,-81.32 3259.39,-72.43 3258.51,-63.94"/>
<polygon fill="black" stroke="black" points="3261.98,-63.46 3257.48,-53.87 3255.02,-64.18 3261.98,-63.46"/>
</g>
<!-- 36 -->
<g id="node44" class="node">
<title>36</title>
<ellipse fill="none" stroke="black" cx="3546.81" cy="-26.87" rx="143.59" ry="26.74"/>
<text text-anchor="middle" x="3546.81" y="-30.67" font-family="Times,serif" font-size="14.00">red.</text>
<text text-anchor="middle" x="3546.81" y="-15.67" font-family="Times,serif" font-size="14.00">(0.042751942306620425)</text>
</g>
<!-- 34&#45;&gt;36 -->
<g id="edge43" class="edge">
<title>34&#45;&gt;36</title>
<path fill="none" stroke="black" d="M3334.13,-93.81C3373.84,-81.5 3423.66,-66.05 3465.09,-53.21"/>
<polygon fill="black" stroke="black" points="3466.37,-56.47 3474.89,-50.17 3464.3,-49.79 3466.37,-56.47"/>
</g>
<!-- 40 -->
<g id="node45" class="node">
<title>40</title>
<ellipse fill="none" stroke="black" cx="4190.81" cy="-26.87" rx="137.36" ry="26.74"/>
<text text-anchor="middle" x="4190.81" y="-30.67" font-family="Times,serif" font-size="14.00">red.</text>
<text text-anchor="middle" x="4190.81" y="-15.67" font-family="Times,serif" font-size="14.00">(0.17667363331802136)</text>
</g>
<!-- 39&#45;&gt;40 -->
<g id="edge44" class="edge">
<title>39&#45;&gt;40</title>
<path fill="none" stroke="black" d="M4190.81,-89.29C4190.81,-81.32 4190.81,-72.43 4190.81,-63.94"/>
<polygon fill="black" stroke="black" points="4194.31,-63.87 4190.81,-53.87 4187.31,-63.87 4194.31,-63.87"/>
</g>
</g>
</svg>
