<?xml version="1.0" encoding="UTF-8" standalone="no"?>
<!DOCTYPE svg PUBLIC "-//W3C//DTD SVG 1.1//EN"
 "http://www.w3.org/Graphics/SVG/1.1/DTD/svg11.dtd">
<!-- Generated by graphviz version 2.43.0 (0)
 -->
<!-- Pages: 1 -->
<svg width="1995pt" height="600pt"
 viewBox="0.00 0.00 1994.72 600.18" xmlns="http://www.w3.org/2000/svg" xmlns:xlink="http://www.w3.org/1999/xlink">
<g id="graph0" class="graph" transform="scale(1 1) rotate(0) translate(4 596.18)">
<polygon fill="white" stroke="transparent" points="-4,4 -4,-596.18 1990.72,-596.18 1990.72,4 -4,4"/>
<!-- 0 -->
<g id="node1" class="node">
<title>0</title>
<ellipse fill="none" stroke="black" cx="1661.81" cy="-565.31" rx="176.14" ry="26.74"/>
<text text-anchor="middle" x="1661.81" y="-569.11" font-family="Times,serif" font-size="14.00">construction_circonscrit_vecteur</text>
<text text-anchor="middle" x="1661.81" y="-554.11" font-family="Times,serif" font-size="14.00">(1.0)</text>
</g>
<!-- 1 -->
<g id="node2" class="node">
<title>1</title>
<ellipse fill="none" stroke="black" cx="1512.81" cy="-475.57" rx="130.63" ry="26.74"/>
<text text-anchor="middle" x="1512.81" y="-479.37" font-family="Times,serif" font-size="14.00">intros.</text>
<text text-anchor="middle" x="1512.81" y="-464.37" font-family="Times,serif" font-size="14.00">(0.9747793544112943)</text>
</g>
<!-- 0&#45;&gt;1 -->
<g id="edge1" class="edge">
<title>0&#45;&gt;1</title>
<path fill="none" stroke="black" d="M1619.12,-539.17C1601.68,-528.9 1581.37,-516.94 1563.21,-506.25"/>
<polygon fill="black" stroke="black" points="1564.88,-503.17 1554.49,-501.11 1561.33,-509.2 1564.88,-503.17"/>
</g>
<!-- 18 -->
<g id="node3" class="node">
<title>18</title>
<ellipse fill="orange" stroke="black" cx="1811.81" cy="-475.57" rx="149.81" ry="26.74"/>
<text text-anchor="middle" x="1811.81" y="-479.37" font-family="Times,serif" font-size="14.00">simpl.</text>
<text text-anchor="middle" x="1811.81" y="-464.37" font-family="Times,serif" font-size="14.00">(0.0013202919893095333)</text>
</g>
<!-- 0&#45;&gt;18 -->
<g id="edge2" class="edge">
<title>0&#45;&gt;18</title>
<path fill="none" stroke="black" d="M1704.8,-539.17C1722.21,-528.98 1742.45,-517.14 1760.61,-506.52"/>
<polygon fill="black" stroke="black" points="1762.48,-509.48 1769.34,-501.41 1758.94,-503.44 1762.48,-509.48"/>
</g>
<!-- 2 -->
<g id="node4" class="node">
<title>2</title>
<ellipse fill="orange" stroke="black" cx="1220.81" cy="-385.83" rx="137.36" ry="26.74"/>
<text text-anchor="middle" x="1220.81" y="-389.63" font-family="Times,serif" font-size="14.00">subst.</text>
<text text-anchor="middle" x="1220.81" y="-374.63" font-family="Times,serif" font-size="14.00">(0.08853731404492757)</text>
</g>
<!-- 1&#45;&gt;2 -->
<g id="edge3" class="edge">
<title>1&#45;&gt;2</title>
<path fill="none" stroke="black" d="M1441.01,-452.99C1399.33,-440.47 1346.66,-424.64 1303.28,-411.61"/>
<polygon fill="black" stroke="black" points="1304.19,-408.23 1293.61,-408.7 1302.18,-414.93 1304.19,-408.23"/>
</g>
<!-- 3 -->
<g id="node5" class="node">
<title>3</title>
<ellipse fill="none" stroke="black" cx="1512.81" cy="-385.83" rx="137.36" ry="26.74"/>
<text text-anchor="middle" x="1512.81" y="-389.63" font-family="Times,serif" font-size="14.00">econstructor.</text>
<text text-anchor="middle" x="1512.81" y="-374.63" font-family="Times,serif" font-size="14.00">(0.02104863691556468)</text>
</g>
<!-- 1&#45;&gt;3 -->
<g id="edge4" class="edge">
<title>1&#45;&gt;3</title>
<path fill="none" stroke="black" d="M1512.81,-448.25C1512.81,-440.28 1512.81,-431.39 1512.81,-422.9"/>
<polygon fill="black" stroke="black" points="1516.31,-422.83 1512.81,-412.83 1509.31,-422.83 1516.31,-422.83"/>
</g>
<!-- 17 -->
<g id="node6" class="node">
<title>17</title>
<ellipse fill="orange" stroke="black" cx="1811.81" cy="-385.83" rx="143.59" ry="26.74"/>
<text text-anchor="middle" x="1811.81" y="-389.63" font-family="Times,serif" font-size="14.00">simpl.</text>
<text text-anchor="middle" x="1811.81" y="-374.63" font-family="Times,serif" font-size="14.00">(0.018657931602389207)</text>
</g>
<!-- 1&#45;&gt;17 -->
<g id="edge5" class="edge">
<title>1&#45;&gt;17</title>
<path fill="none" stroke="black" d="M1585.58,-453.22C1628.33,-440.67 1682.58,-424.75 1727.24,-411.65"/>
<polygon fill="black" stroke="black" points="1728.29,-414.99 1736.9,-408.81 1726.32,-408.27 1728.29,-414.99"/>
</g>
<!-- 4 -->
<g id="node7" class="node">
<title>4</title>
<ellipse fill="none" stroke="black" cx="1512.81" cy="-296.09" rx="130.63" ry="26.74"/>
<text text-anchor="middle" x="1512.81" y="-299.89" font-family="Times,serif" font-size="14.00">econstructor.</text>
<text text-anchor="middle" x="1512.81" y="-284.89" font-family="Times,serif" font-size="14.00">(0.9781008952473402)</text>
</g>
<!-- 3&#45;&gt;4 -->
<g id="edge6" class="edge">
<title>3&#45;&gt;4</title>
<path fill="none" stroke="black" d="M1512.81,-358.51C1512.81,-350.54 1512.81,-341.65 1512.81,-333.16"/>
<polygon fill="black" stroke="black" points="1516.31,-333.09 1512.81,-323.09 1509.31,-333.09 1516.31,-333.09"/>
</g>
<!-- 5 -->
<g id="node8" class="node">
<title>5</title>
<ellipse fill="none" stroke="black" cx="1207.81" cy="-206.35" rx="130.63" ry="26.74"/>
<text text-anchor="middle" x="1207.81" y="-210.15" font-family="Times,serif" font-size="14.00">econstructor.</text>
<text text-anchor="middle" x="1207.81" y="-195.15" font-family="Times,serif" font-size="14.00">(0.9959238700898666)</text>
</g>
<!-- 4&#45;&gt;5 -->
<g id="edge7" class="edge">
<title>4&#45;&gt;5</title>
<path fill="none" stroke="black" d="M1438.98,-273.85C1394.46,-261.04 1337.62,-244.69 1291.44,-231.41"/>
<polygon fill="black" stroke="black" points="1292.34,-228.02 1281.76,-228.62 1290.4,-234.75 1292.34,-228.02"/>
</g>
<!-- 15 -->
<g id="node9" class="node">
<title>15</title>
<ellipse fill="orange" stroke="black" cx="1512.81" cy="-206.35" rx="156.04" ry="26.74"/>
<text text-anchor="middle" x="1512.81" y="-210.15" font-family="Times,serif" font-size="14.00">eauto.</text>
<text text-anchor="middle" x="1512.81" y="-195.15" font-family="Times,serif" font-size="14.00">(0.00045952135366659434)</text>
</g>
<!-- 4&#45;&gt;15 -->
<g id="edge8" class="edge">
<title>4&#45;&gt;15</title>
<path fill="none" stroke="black" d="M1512.81,-268.77C1512.81,-260.8 1512.81,-251.91 1512.81,-243.42"/>
<polygon fill="black" stroke="black" points="1516.31,-243.35 1512.81,-233.35 1509.31,-243.35 1516.31,-243.35"/>
</g>
<!-- 16 -->
<g id="node10" class="node">
<title>16</title>
<ellipse fill="orange" stroke="black" cx="1836.81" cy="-206.35" rx="149.81" ry="26.74"/>
<text text-anchor="middle" x="1836.81" y="-210.15" font-family="Times,serif" font-size="14.00">simpl.</text>
<text text-anchor="middle" x="1836.81" y="-195.15" font-family="Times,serif" font-size="14.00">(0.0002736282512827792)</text>
</g>
<!-- 4&#45;&gt;16 -->
<g id="edge9" class="edge">
<title>4&#45;&gt;16</title>
<path fill="none" stroke="black" d="M1589.6,-274.3C1636.79,-261.52 1697.47,-245.09 1746.9,-231.7"/>
<polygon fill="black" stroke="black" points="1747.89,-235.06 1756.63,-229.06 1746.06,-228.3 1747.89,-235.06"/>
</g>
<!-- 6 -->
<g id="node11" class="node">
<title>6</title>
<ellipse fill="none" stroke="black" cx="588.81" cy="-116.61" rx="130.63" ry="26.74"/>
<text text-anchor="middle" x="588.81" y="-120.41" font-family="Times,serif" font-size="14.00">split.</text>
<text text-anchor="middle" x="588.81" y="-105.41" font-family="Times,serif" font-size="14.00">(0.9994419352857232)</text>
</g>
<!-- 5&#45;&gt;6 -->
<g id="edge10" class="edge">
<title>5&#45;&gt;6</title>
<path fill="none" stroke="black" d="M1095.3,-192.57C998.08,-181.1 853.9,-163.1 728.81,-143.48 716.87,-141.61 704.38,-139.5 691.98,-137.33"/>
<polygon fill="black" stroke="black" points="692.53,-133.87 682.07,-135.57 691.31,-140.76 692.53,-133.87"/>
</g>
<!-- 11 -->
<g id="node12" class="node">
<title>11</title>
<ellipse fill="orange" stroke="black" cx="893.81" cy="-116.61" rx="156.04" ry="26.74"/>
<text text-anchor="middle" x="893.81" y="-120.41" font-family="Times,serif" font-size="14.00">eauto.</text>
<text text-anchor="middle" x="893.81" y="-105.41" font-family="Times,serif" font-size="14.00">(0.00026396359456327235)</text>
</g>
<!-- 5&#45;&gt;11 -->
<g id="edge11" class="edge">
<title>5&#45;&gt;11</title>
<path fill="none" stroke="black" d="M1132.6,-184.33C1087.72,-171.79 1030.45,-155.79 983.26,-142.6"/>
<polygon fill="black" stroke="black" points="983.92,-139.15 973.35,-139.83 982.04,-145.9 983.92,-139.15"/>
</g>
<!-- 12 -->
<g id="node13" class="node">
<title>12</title>
<ellipse fill="orange" stroke="black" cx="1207.81" cy="-116.61" rx="139.1" ry="26.74"/>
<text text-anchor="middle" x="1207.81" y="-120.41" font-family="Times,serif" font-size="14.00">simpl.</text>
<text text-anchor="middle" x="1207.81" y="-105.41" font-family="Times,serif" font-size="14.00">(5.93674303014951e&#45;05)</text>
</g>
<!-- 5&#45;&gt;12 -->
<g id="edge12" class="edge">
<title>5&#45;&gt;12</title>
<path fill="none" stroke="black" d="M1207.81,-179.03C1207.81,-171.06 1207.81,-162.17 1207.81,-153.68"/>
<polygon fill="black" stroke="black" points="1211.31,-153.61 1207.81,-143.61 1204.31,-153.61 1211.31,-153.61"/>
</g>
<!-- 13 -->
<g id="node14" class="node">
<title>13</title>
<ellipse fill="none" stroke="black" cx="1510.81" cy="-116.61" rx="145.83" ry="26.74"/>
<text text-anchor="middle" x="1510.81" y="-120.41" font-family="Times,serif" font-size="14.00">repeat split.</text>
<text text-anchor="middle" x="1510.81" y="-105.41" font-family="Times,serif" font-size="14.00">(5.584350650482499e&#45;05)</text>
</g>
<!-- 5&#45;&gt;13 -->
<g id="edge13" class="edge">
<title>5&#45;&gt;13</title>
<path fill="none" stroke="black" d="M1281.55,-184C1324.88,-171.45 1379.85,-155.53 1425.1,-142.43"/>
<polygon fill="black" stroke="black" points="1426.27,-145.74 1434.9,-139.59 1424.32,-139.01 1426.27,-145.74"/>
</g>
<!-- 14 -->
<g id="node15" class="node">
<title>14</title>
<ellipse fill="none" stroke="black" cx="1813.81" cy="-116.61" rx="139.1" ry="26.74"/>
<text text-anchor="middle" x="1813.81" y="-120.41" font-family="Times,serif" font-size="14.00">intuition.</text>
<text text-anchor="middle" x="1813.81" y="-105.41" font-family="Times,serif" font-size="14.00">(4.28529768845556e&#45;05)</text>
</g>
<!-- 5&#45;&gt;14 -->
<g id="edge14" class="edge">
<title>5&#45;&gt;14</title>
<path fill="none" stroke="black" d="M1300.29,-187.32C1316.11,-184.5 1332.41,-181.77 1347.81,-179.48 1488.5,-158.54 1525.03,-163.74 1665.81,-143.48 1678.57,-141.65 1691.92,-139.55 1705.15,-137.38"/>
<polygon fill="black" stroke="black" points="1705.94,-140.79 1715.23,-135.7 1704.79,-133.89 1705.94,-140.79"/>
</g>
<!-- 7 -->
<g id="node16" class="node">
<title>7</title>
<ellipse fill="none" stroke="black" cx="130.81" cy="-26.87" rx="130.63" ry="26.74"/>
<text text-anchor="middle" x="130.81" y="-30.67" font-family="Times,serif" font-size="14.00">split.</text>
<text text-anchor="middle" x="130.81" y="-15.67" font-family="Times,serif" font-size="14.00">(0.9798271613717391)</text>
</g>
<!-- 6&#45;&gt;7 -->
<g id="edge15" class="edge">
<title>6&#45;&gt;7</title>
<path fill="none" stroke="black" d="M495.58,-97.75C419.71,-83.21 312.71,-62.72 234.22,-47.68"/>
<polygon fill="black" stroke="black" points="234.79,-44.23 224.31,-45.78 233.47,-51.1 234.79,-44.23"/>
</g>
<!-- 8 -->
<g id="node17" class="node">
<title>8</title>
<ellipse fill="orange" stroke="black" cx="429.81" cy="-26.87" rx="149.81" ry="26.74"/>
<text text-anchor="middle" x="429.81" y="-30.67" font-family="Times,serif" font-size="14.00">simpl.</text>
<text text-anchor="middle" x="429.81" y="-15.67" font-family="Times,serif" font-size="14.00">(0.0024605450727259517)</text>
</g>
<!-- 6&#45;&gt;8 -->
<g id="edge16" class="edge">
<title>6&#45;&gt;8</title>
<path fill="none" stroke="black" d="M544.52,-91.17C525.64,-80.75 503.43,-68.49 483.61,-57.56"/>
<polygon fill="black" stroke="black" points="485.14,-54.4 474.7,-52.64 481.76,-60.53 485.14,-54.4"/>
</g>
<!-- 9 -->
<g id="node18" class="node">
<title>9</title>
<ellipse fill="none" stroke="black" cx="747.81" cy="-26.87" rx="149.81" ry="26.74"/>
<text text-anchor="middle" x="747.81" y="-30.67" font-family="Times,serif" font-size="14.00">intuition.</text>
<text text-anchor="middle" x="747.81" y="-15.67" font-family="Times,serif" font-size="14.00">(0.0006068690790440467)</text>
</g>
<!-- 6&#45;&gt;9 -->
<g id="edge17" class="edge">
<title>6&#45;&gt;9</title>
<path fill="none" stroke="black" d="M633.11,-91.17C651.99,-80.75 674.2,-68.49 694.02,-57.56"/>
<polygon fill="black" stroke="black" points="695.87,-60.53 702.93,-52.64 692.49,-54.4 695.87,-60.53"/>
</g>
<!-- 10 -->
<g id="node19" class="node">
<title>10</title>
<ellipse fill="none" stroke="black" cx="1071.81" cy="-26.87" rx="156.04" ry="26.74"/>
<text text-anchor="middle" x="1071.81" y="-30.67" font-family="Times,serif" font-size="14.00">repeat split.</text>
<text text-anchor="middle" x="1071.81" y="-15.67" font-family="Times,serif" font-size="14.00">(0.00033941679335963064)</text>
</g>
<!-- 6&#45;&gt;10 -->
<g id="edge18" class="edge">
<title>6&#45;&gt;10</title>
<path fill="none" stroke="black" d="M683.69,-98.02C698.78,-95.24 714.23,-92.4 728.81,-89.74 804.54,-75.91 889.71,-60.55 956.24,-48.59"/>
<polygon fill="black" stroke="black" points="957.11,-51.99 966.33,-46.78 955.87,-45.1 957.11,-51.99"/>
</g>
</g>
</svg>
