<?xml version="1.0" encoding="UTF-8" standalone="no"?>
<!DOCTYPE svg PUBLIC "-//W3C//DTD SVG 1.1//EN"
 "http://www.w3.org/Graphics/SVG/1.1/DTD/svg11.dtd">
<!-- Generated by graphviz version 2.43.0 (0)
 -->
<!-- Pages: 1 -->
<svg width="1061pt" height="331pt"
 viewBox="0.00 0.00 1061.09 330.96" xmlns="http://www.w3.org/2000/svg" xmlns:xlink="http://www.w3.org/1999/xlink">
<g id="graph0" class="graph" transform="scale(1 1) rotate(0) translate(4 326.96)">
<polygon fill="white" stroke="transparent" points="-4,4 -4,-326.96 1057.09,-326.96 1057.09,4 -4,4"/>
<!-- 0 -->
<g id="node1" class="node">
<title>0</title>
<ellipse fill="none" stroke="black" cx="436.18" cy="-296.09" rx="93.18" ry="26.74"/>
<text text-anchor="middle" x="436.18" y="-299.89" font-family="Times,serif" font-size="14.00">double_permute</text>
<text text-anchor="middle" x="436.18" y="-284.89" font-family="Times,serif" font-size="14.00">(1.0)</text>
</g>
<!-- 1 -->
<g id="node2" class="node">
<title>1</title>
<ellipse fill="none" stroke="black" cx="137.18" cy="-206.35" rx="130.63" ry="26.74"/>
<text text-anchor="middle" x="137.18" y="-210.15" font-family="Times,serif" font-size="14.00">intros.</text>
<text text-anchor="middle" x="137.18" y="-195.15" font-family="Times,serif" font-size="14.00">(0.9874017705813144)</text>
</g>
<!-- 0&#45;&gt;1 -->
<g id="edge1" class="edge">
<title>0&#45;&gt;1</title>
<path fill="none" stroke="black" d="M372.4,-276.38C327.88,-263.31 268.03,-245.75 219.84,-231.61"/>
<polygon fill="black" stroke="black" points="220.64,-228.19 210.06,-228.74 218.67,-234.91 220.64,-228.19"/>
</g>
<!-- 3 -->
<g id="node3" class="node">
<title>3</title>
<ellipse fill="orange" stroke="black" cx="436.18" cy="-206.35" rx="149.81" ry="26.74"/>
<text text-anchor="middle" x="436.18" y="-210.15" font-family="Times,serif" font-size="14.00">simpl.</text>
<text text-anchor="middle" x="436.18" y="-195.15" font-family="Times,serif" font-size="14.00">(0.0030332590676050803)</text>
</g>
<!-- 0&#45;&gt;3 -->
<g id="edge2" class="edge">
<title>0&#45;&gt;3</title>
<path fill="none" stroke="black" d="M436.18,-268.77C436.18,-260.8 436.18,-251.91 436.18,-243.42"/>
<polygon fill="black" stroke="black" points="439.68,-243.35 436.18,-233.35 432.68,-243.35 439.68,-243.35"/>
</g>
<!-- 4 -->
<g id="node4" class="node">
<title>4</title>
<ellipse fill="none" stroke="black" cx="754.18" cy="-206.35" rx="149.81" ry="26.74"/>
<text text-anchor="middle" x="754.18" y="-210.15" font-family="Times,serif" font-size="14.00">unfold double.</text>
<text text-anchor="middle" x="754.18" y="-195.15" font-family="Times,serif" font-size="14.00">(0.0010271104947405356)</text>
</g>
<!-- 0&#45;&gt;4 -->
<g id="edge3" class="edge">
<title>0&#45;&gt;4</title>
<path fill="none" stroke="black" d="M502.07,-276.91C549.24,-263.9 613.29,-246.22 665.03,-231.95"/>
<polygon fill="black" stroke="black" points="666.16,-235.27 674.87,-229.23 664.3,-228.52 666.16,-235.27"/>
</g>
<!-- 2 -->
<g id="node5" class="node">
<title>2</title>
<ellipse fill="orange" stroke="black" cx="137.18" cy="-116.61" rx="137.36" ry="26.74"/>
<text text-anchor="middle" x="137.18" y="-120.41" font-family="Times,serif" font-size="14.00">simpl.</text>
<text text-anchor="middle" x="137.18" y="-105.41" font-family="Times,serif" font-size="14.00">(0.10685746231920443)</text>
</g>
<!-- 1&#45;&gt;2 -->
<g id="edge4" class="edge">
<title>1&#45;&gt;2</title>
<path fill="none" stroke="black" d="M137.18,-179.03C137.18,-171.06 137.18,-162.17 137.18,-153.68"/>
<polygon fill="black" stroke="black" points="140.68,-153.61 137.18,-143.61 133.68,-153.61 140.68,-153.61"/>
</g>
<!-- 5 -->
<g id="node6" class="node">
<title>5</title>
<ellipse fill="none" stroke="black" cx="604.18" cy="-116.61" rx="130.63" ry="26.74"/>
<text text-anchor="middle" x="604.18" y="-120.41" font-family="Times,serif" font-size="14.00">intros.</text>
<text text-anchor="middle" x="604.18" y="-105.41" font-family="Times,serif" font-size="14.00">(0.9964339799641815)</text>
</g>
<!-- 4&#45;&gt;5 -->
<g id="edge5" class="edge">
<title>4&#45;&gt;5</title>
<path fill="none" stroke="black" d="M711.6,-180.44C693.96,-170.12 673.35,-158.07 654.93,-147.3"/>
<polygon fill="black" stroke="black" points="656.49,-144.15 646.09,-142.13 652.95,-150.2 656.49,-144.15"/>
</g>
<!-- 7 -->
<g id="node7" class="node">
<title>7</title>
<ellipse fill="orange" stroke="black" cx="903.18" cy="-116.61" rx="149.81" ry="26.74"/>
<text text-anchor="middle" x="903.18" y="-120.41" font-family="Times,serif" font-size="14.00">simpl.</text>
<text text-anchor="middle" x="903.18" y="-105.41" font-family="Times,serif" font-size="14.00">(0.0005391346950410441)</text>
</g>
<!-- 4&#45;&gt;7 -->
<g id="edge6" class="edge">
<title>4&#45;&gt;7</title>
<path fill="none" stroke="black" d="M796.48,-180.44C813.85,-170.21 834.12,-158.27 852.3,-147.57"/>
<polygon fill="black" stroke="black" points="854.19,-150.52 861.03,-142.43 850.64,-144.49 854.19,-150.52"/>
</g>
<!-- 6 -->
<g id="node8" class="node">
<title>6</title>
<ellipse fill="orange" stroke="black" cx="604.18" cy="-26.87" rx="137.36" ry="26.74"/>
<text text-anchor="middle" x="604.18" y="-30.67" font-family="Times,serif" font-size="14.00">simpl.</text>
<text text-anchor="middle" x="604.18" y="-15.67" font-family="Times,serif" font-size="14.00">(0.16649673741520768)</text>
</g>
<!-- 5&#45;&gt;6 -->
<g id="edge7" class="edge">
<title>5&#45;&gt;6</title>
<path fill="none" stroke="black" d="M604.18,-89.29C604.18,-81.32 604.18,-72.43 604.18,-63.94"/>
<polygon fill="black" stroke="black" points="607.68,-63.87 604.18,-53.87 600.68,-63.87 607.68,-63.87"/>
</g>
</g>
</svg>
