<?xml version="1.0" encoding="UTF-8" standalone="no"?>
<!DOCTYPE svg PUBLIC "-//W3C//DTD SVG 1.1//EN"
 "http://www.w3.org/Graphics/SVG/1.1/DTD/svg11.dtd">
<!-- Generated by graphviz version 2.43.0 (0)
 -->
<!-- Pages: 1 -->
<svg width="898pt" height="241pt"
 viewBox="0.00 0.00 898.09 241.22" xmlns="http://www.w3.org/2000/svg" xmlns:xlink="http://www.w3.org/1999/xlink">
<g id="graph0" class="graph" transform="scale(1 1) rotate(0) translate(4 237.22)">
<polygon fill="white" stroke="transparent" points="-4,4 -4,-237.22 894.09,-237.22 894.09,4 -4,4"/>
<!-- 0 -->
<g id="node1" class="node">
<title>0</title>
<ellipse fill="none" stroke="black" cx="429.18" cy="-206.35" rx="48.17" ry="26.74"/>
<text text-anchor="middle" x="429.18" y="-210.15" font-family="Times,serif" font-size="14.00">oppu_u</text>
<text text-anchor="middle" x="429.18" y="-195.15" font-family="Times,serif" font-size="14.00">(1.0)</text>
</g>
<!-- 1 -->
<g id="node2" class="node">
<title>1</title>
<ellipse fill="none" stroke="black" cx="137.18" cy="-116.61" rx="130.63" ry="26.74"/>
<text text-anchor="middle" x="137.18" y="-120.41" font-family="Times,serif" font-size="14.00">intros.</text>
<text text-anchor="middle" x="137.18" y="-105.41" font-family="Times,serif" font-size="14.00">(0.9150171229836151)</text>
</g>
<!-- 0&#45;&gt;1 -->
<g id="edge1" class="edge">
<title>0&#45;&gt;1</title>
<path fill="none" stroke="black" d="M387.34,-192.78C343.46,-179.59 273.37,-158.53 218.53,-142.06"/>
<polygon fill="black" stroke="black" points="219.41,-138.67 208.83,-139.14 217.4,-145.37 219.41,-138.67"/>
</g>
<!-- 3 -->
<g id="node3" class="node">
<title>3</title>
<ellipse fill="orange" stroke="black" cx="429.18" cy="-116.61" rx="143.59" ry="26.74"/>
<text text-anchor="middle" x="429.18" y="-120.41" font-family="Times,serif" font-size="14.00">simpl.</text>
<text text-anchor="middle" x="429.18" y="-105.41" font-family="Times,serif" font-size="14.00">(0.013073017141798291)</text>
</g>
<!-- 0&#45;&gt;3 -->
<g id="edge2" class="edge">
<title>0&#45;&gt;3</title>
<path fill="none" stroke="black" d="M429.18,-179.03C429.18,-171.06 429.18,-162.17 429.18,-153.68"/>
<polygon fill="black" stroke="black" points="432.68,-153.61 429.18,-143.61 425.68,-153.61 432.68,-153.61"/>
</g>
<!-- 4 -->
<g id="node4" class="node">
<title>4</title>
<ellipse fill="orange" stroke="black" cx="740.18" cy="-116.61" rx="149.81" ry="26.74"/>
<text text-anchor="middle" x="740.18" y="-120.41" font-family="Times,serif" font-size="14.00">eauto.</text>
<text text-anchor="middle" x="740.18" y="-105.41" font-family="Times,serif" font-size="14.00">(0.0009339678924631452)</text>
</g>
<!-- 0&#45;&gt;4 -->
<g id="edge3" class="edge">
<title>0&#45;&gt;4</title>
<path fill="none" stroke="black" d="M471.45,-193.43C517.7,-180.38 593.14,-159.09 652.34,-142.39"/>
<polygon fill="black" stroke="black" points="653.39,-145.73 662.07,-139.65 651.49,-138.99 653.39,-145.73"/>
</g>
<!-- 2 -->
<g id="node5" class="node">
<title>2</title>
<ellipse fill="orange" stroke="black" cx="137.18" cy="-26.87" rx="137.36" ry="26.74"/>
<text text-anchor="middle" x="137.18" y="-30.67" font-family="Times,serif" font-size="14.00">simpl.</text>
<text text-anchor="middle" x="137.18" y="-15.67" font-family="Times,serif" font-size="14.00">(0.05510890628596412)</text>
</g>
<!-- 1&#45;&gt;2 -->
<g id="edge4" class="edge">
<title>1&#45;&gt;2</title>
<path fill="none" stroke="black" d="M137.18,-89.29C137.18,-81.32 137.18,-72.43 137.18,-63.94"/>
<polygon fill="black" stroke="black" points="140.68,-63.87 137.18,-53.87 133.68,-63.87 140.68,-63.87"/>
</g>
</g>
</svg>
