<?xml version="1.0" encoding="UTF-8" standalone="no"?>
<!DOCTYPE svg PUBLIC "-//W3C//DTD SVG 1.1//EN"
 "http://www.w3.org/Graphics/SVG/1.1/DTD/svg11.dtd">
<!-- Generated by graphviz version 2.43.0 (0)
 -->
<!-- Pages: 1 -->
<svg width="3116pt" height="510pt"
 viewBox="0.00 0.00 3116.36 510.44" xmlns="http://www.w3.org/2000/svg" xmlns:xlink="http://www.w3.org/1999/xlink">
<g id="graph0" class="graph" transform="scale(1 1) rotate(0) translate(4 506.44)">
<polygon fill="white" stroke="transparent" points="-4,4 -4,-506.44 3112.36,-506.44 3112.36,4 -4,4"/>
<!-- 0 -->
<g id="node1" class="node">
<title>0</title>
<ellipse fill="none" stroke="black" cx="2041.81" cy="-475.57" rx="134.2" ry="26.74"/>
<text text-anchor="middle" x="2041.81" y="-479.37" font-family="Times,serif" font-size="14.00">construction_orthogonal</text>
<text text-anchor="middle" x="2041.81" y="-464.37" font-family="Times,serif" font-size="14.00">(1.0)</text>
</g>
<!-- 1 -->
<g id="node2" class="node">
<title>1</title>
<ellipse fill="none" stroke="black" cx="1755.81" cy="-385.83" rx="124.4" ry="26.74"/>
<text text-anchor="middle" x="1755.81" y="-389.63" font-family="Times,serif" font-size="14.00">intros.</text>
<text text-anchor="middle" x="1755.81" y="-374.63" font-family="Times,serif" font-size="14.00">(0.989963830188956)</text>
</g>
<!-- 0&#45;&gt;1 -->
<g id="edge1" class="edge">
<title>0&#45;&gt;1</title>
<path fill="none" stroke="black" d="M1970.38,-452.66C1929.25,-440.04 1877.46,-424.15 1835.07,-411.15"/>
<polygon fill="black" stroke="black" points="1835.94,-407.75 1825.35,-408.16 1833.88,-414.44 1835.94,-407.75"/>
</g>
<!-- 27 -->
<g id="node3" class="node">
<title>27</title>
<ellipse fill="orange" stroke="black" cx="2041.81" cy="-385.83" rx="143.59" ry="26.74"/>
<text text-anchor="middle" x="2041.81" y="-389.63" font-family="Times,serif" font-size="14.00">simpl.</text>
<text text-anchor="middle" x="2041.81" y="-374.63" font-family="Times,serif" font-size="14.00">(0.000174986011826886)</text>
</g>
<!-- 0&#45;&gt;27 -->
<g id="edge2" class="edge">
<title>0&#45;&gt;27</title>
<path fill="none" stroke="black" d="M2041.81,-448.25C2041.81,-440.28 2041.81,-431.39 2041.81,-422.9"/>
<polygon fill="black" stroke="black" points="2045.31,-422.83 2041.81,-412.83 2038.31,-422.83 2045.31,-422.83"/>
</g>
<!-- 28 -->
<g id="node4" class="node">
<title>28</title>
<ellipse fill="orange" stroke="black" cx="2359.81" cy="-385.83" rx="156.04" ry="26.74"/>
<text text-anchor="middle" x="2359.81" y="-389.63" font-family="Times,serif" font-size="14.00">eauto.</text>
<text text-anchor="middle" x="2359.81" y="-374.63" font-family="Times,serif" font-size="14.00">(0.00010838882792206379)</text>
</g>
<!-- 0&#45;&gt;28 -->
<g id="edge3" class="edge">
<title>0&#45;&gt;28</title>
<path fill="none" stroke="black" d="M2118.39,-453.44C2164.04,-440.85 2222.22,-424.8 2270.02,-411.61"/>
<polygon fill="black" stroke="black" points="2271.04,-414.96 2279.75,-408.92 2269.18,-408.21 2271.04,-414.96"/>
</g>
<!-- 2 -->
<g id="node5" class="node">
<title>2</title>
<ellipse fill="none" stroke="black" cx="575.81" cy="-296.09" rx="143.59" ry="26.74"/>
<text text-anchor="middle" x="575.81" y="-299.89" font-family="Times,serif" font-size="14.00">exists u.</text>
<text text-anchor="middle" x="575.81" y="-284.89" font-family="Times,serif" font-size="14.00">(0.057314716544750934)</text>
</g>
<!-- 1&#45;&gt;2 -->
<g id="edge4" class="edge">
<title>1&#45;&gt;2</title>
<path fill="none" stroke="black" d="M1639.44,-376.18C1421.62,-359.98 953.14,-325.15 717.41,-307.62"/>
<polygon fill="black" stroke="black" points="717.63,-304.13 707.39,-306.87 717.11,-311.11 717.63,-304.13"/>
</g>
<!-- 9 -->
<g id="node6" class="node">
<title>9</title>
<ellipse fill="none" stroke="black" cx="1457.81" cy="-296.09" rx="143.59" ry="26.74"/>
<text text-anchor="middle" x="1457.81" y="-299.89" font-family="Times,serif" font-size="14.00">exists u.</text>
<text text-anchor="middle" x="1457.81" y="-284.89" font-family="Times,serif" font-size="14.00">(0.056681294719459936)</text>
</g>
<!-- 1&#45;&gt;9 -->
<g id="edge5" class="edge">
<title>1&#45;&gt;9</title>
<path fill="none" stroke="black" d="M1684.44,-363.81C1641.68,-351.23 1587.11,-335.16 1542.22,-321.94"/>
<polygon fill="black" stroke="black" points="1543.09,-318.55 1532.51,-319.08 1541.11,-325.26 1543.09,-318.55"/>
</g>
<!-- 16 -->
<g id="node7" class="node">
<title>16</title>
<ellipse fill="none" stroke="black" cx="2054.81" cy="-296.09" rx="143.59" ry="26.74"/>
<text text-anchor="middle" x="2054.81" y="-299.89" font-family="Times,serif" font-size="14.00">econstructor.</text>
<text text-anchor="middle" x="2054.81" y="-284.89" font-family="Times,serif" font-size="14.00">(0.012638079740413139)</text>
</g>
<!-- 1&#45;&gt;16 -->
<g id="edge6" class="edge">
<title>1&#45;&gt;16</title>
<path fill="none" stroke="black" d="M1827.43,-363.81C1870.33,-351.23 1925.09,-335.16 1970.12,-321.94"/>
<polygon fill="black" stroke="black" points="1971.26,-325.26 1979.87,-319.08 1969.29,-318.54 1971.26,-325.26"/>
</g>
<!-- 26 -->
<g id="node8" class="node">
<title>26</title>
<ellipse fill="orange" stroke="black" cx="2359.81" cy="-296.09" rx="143.59" ry="26.74"/>
<text text-anchor="middle" x="2359.81" y="-299.89" font-family="Times,serif" font-size="14.00">subst.</text>
<text text-anchor="middle" x="2359.81" y="-284.89" font-family="Times,serif" font-size="14.00">(0.008265569202447991)</text>
</g>
<!-- 1&#45;&gt;26 -->
<g id="edge7" class="edge">
<title>1&#45;&gt;26</title>
<path fill="none" stroke="black" d="M1843.64,-366.72C1858.67,-363.92 1874.17,-361.21 1888.81,-358.96 2029.84,-337.32 2066.54,-342.94 2207.81,-322.96 2221.04,-321.09 2234.88,-318.97 2248.6,-316.76"/>
<polygon fill="black" stroke="black" points="2249.25,-320.2 2258.55,-315.14 2248.12,-313.29 2249.25,-320.2"/>
</g>
<!-- 3 -->
<g id="node9" class="node">
<title>3</title>
<ellipse fill="orange" stroke="black" cx="130.81" cy="-206.35" rx="130.63" ry="26.74"/>
<text text-anchor="middle" x="130.81" y="-210.15" font-family="Times,serif" font-size="14.00">eauto.</text>
<text text-anchor="middle" x="130.81" y="-195.15" font-family="Times,serif" font-size="14.00">(0.9112560874951213)</text>
</g>
<!-- 2&#45;&gt;3 -->
<g id="edge8" class="edge">
<title>2&#45;&gt;3</title>
<path fill="none" stroke="black" d="M479.53,-276.11C406.65,-261.74 306.76,-242.04 232.57,-227.41"/>
<polygon fill="black" stroke="black" points="233.22,-223.97 222.74,-225.47 231.87,-230.84 233.22,-223.97"/>
</g>
<!-- 4 -->
<g id="node10" class="node">
<title>4</title>
<ellipse fill="orange" stroke="black" cx="422.81" cy="-206.35" rx="143.59" ry="26.74"/>
<text text-anchor="middle" x="422.81" y="-210.15" font-family="Times,serif" font-size="14.00">simpl.</text>
<text text-anchor="middle" x="422.81" y="-195.15" font-family="Times,serif" font-size="14.00">(0.001247347939396501)</text>
</g>
<!-- 2&#45;&gt;4 -->
<g id="edge9" class="edge">
<title>2&#45;&gt;4</title>
<path fill="none" stroke="black" d="M532.79,-270.42C514.71,-260.05 493.51,-247.89 474.58,-237.04"/>
<polygon fill="black" stroke="black" points="476.2,-233.93 465.78,-231.99 472.72,-240 476.2,-233.93"/>
</g>
<!-- 5 -->
<g id="node11" class="node">
<title>5</title>
<ellipse fill="none" stroke="black" cx="727.81" cy="-206.35" rx="143.59" ry="26.74"/>
<text text-anchor="middle" x="727.81" y="-210.15" font-family="Times,serif" font-size="14.00">unfold orthogonal.</text>
<text text-anchor="middle" x="727.81" y="-195.15" font-family="Times,serif" font-size="14.00">(0.000599194527277016)</text>
</g>
<!-- 2&#45;&gt;5 -->
<g id="edge10" class="edge">
<title>2&#45;&gt;5</title>
<path fill="none" stroke="black" d="M618.56,-270.42C636.45,-260.09 657.4,-248 676.15,-237.18"/>
<polygon fill="black" stroke="black" points="677.95,-240.17 684.86,-232.14 674.45,-234.11 677.95,-240.17"/>
</g>
<!-- 10 -->
<g id="node15" class="node">
<title>10</title>
<ellipse fill="orange" stroke="black" cx="1019.81" cy="-206.35" rx="130.63" ry="26.74"/>
<text text-anchor="middle" x="1019.81" y="-210.15" font-family="Times,serif" font-size="14.00">eauto.</text>
<text text-anchor="middle" x="1019.81" y="-195.15" font-family="Times,serif" font-size="14.00">(0.9112560874951213)</text>
</g>
<!-- 9&#45;&gt;10 -->
<g id="edge14" class="edge">
<title>9&#45;&gt;10</title>
<path fill="none" stroke="black" d="M1362.51,-276C1291.24,-261.72 1193.98,-242.24 1121.27,-227.67"/>
<polygon fill="black" stroke="black" points="1121.67,-224.19 1111.18,-225.65 1120.3,-231.05 1121.67,-224.19"/>
</g>
<!-- 11 -->
<g id="node16" class="node">
<title>11</title>
<ellipse fill="orange" stroke="black" cx="1311.81" cy="-206.35" rx="143.59" ry="26.74"/>
<text text-anchor="middle" x="1311.81" y="-210.15" font-family="Times,serif" font-size="14.00">simpl.</text>
<text text-anchor="middle" x="1311.81" y="-195.15" font-family="Times,serif" font-size="14.00">(0.001247347939396501)</text>
</g>
<!-- 9&#45;&gt;11 -->
<g id="edge15" class="edge">
<title>9&#45;&gt;11</title>
<path fill="none" stroke="black" d="M1416.37,-270.18C1399.5,-260.04 1379.84,-248.23 1362.16,-237.6"/>
<polygon fill="black" stroke="black" points="1363.49,-234.32 1353.11,-232.17 1359.88,-240.32 1363.49,-234.32"/>
</g>
<!-- 12 -->
<g id="node17" class="node">
<title>12</title>
<ellipse fill="none" stroke="black" cx="1616.81" cy="-206.35" rx="143.59" ry="26.74"/>
<text text-anchor="middle" x="1616.81" y="-210.15" font-family="Times,serif" font-size="14.00">unfold orthogonal.</text>
<text text-anchor="middle" x="1616.81" y="-195.15" font-family="Times,serif" font-size="14.00">(0.000599194527277016)</text>
</g>
<!-- 9&#45;&gt;12 -->
<g id="edge16" class="edge">
<title>9&#45;&gt;12</title>
<path fill="none" stroke="black" d="M1502.53,-270.42C1521.41,-260 1543.54,-247.78 1563.28,-236.89"/>
<polygon fill="black" stroke="black" points="1565.1,-239.89 1572.16,-231.99 1561.72,-233.76 1565.1,-239.89"/>
</g>
<!-- 17 -->
<g id="node21" class="node">
<title>17</title>
<ellipse fill="orange" stroke="black" cx="1908.81" cy="-206.35" rx="130.63" ry="26.74"/>
<text text-anchor="middle" x="1908.81" y="-210.15" font-family="Times,serif" font-size="14.00">eauto.</text>
<text text-anchor="middle" x="1908.81" y="-195.15" font-family="Times,serif" font-size="14.00">(0.9938031601290874)</text>
</g>
<!-- 16&#45;&gt;17 -->
<g id="edge20" class="edge">
<title>16&#45;&gt;17</title>
<path fill="none" stroke="black" d="M2013.37,-270.18C1996.27,-259.91 1976.31,-247.91 1958.44,-237.17"/>
<polygon fill="black" stroke="black" points="1960.23,-234.17 1949.86,-232.02 1956.63,-240.17 1960.23,-234.17"/>
</g>
<!-- 18 -->
<g id="node22" class="node">
<title>18</title>
<ellipse fill="none" stroke="black" cx="2200.81" cy="-206.35" rx="143.59" ry="26.74"/>
<text text-anchor="middle" x="2200.81" y="-210.15" font-family="Times,serif" font-size="14.00">red.</text>
<text text-anchor="middle" x="2200.81" y="-195.15" font-family="Times,serif" font-size="14.00">(0.001347592572201259)</text>
</g>
<!-- 16&#45;&gt;18 -->
<g id="edge21" class="edge">
<title>16&#45;&gt;18</title>
<path fill="none" stroke="black" d="M2096.26,-270.18C2113.13,-260.04 2132.79,-248.23 2150.47,-237.6"/>
<polygon fill="black" stroke="black" points="2152.75,-240.32 2159.52,-232.17 2149.14,-234.32 2152.75,-240.32"/>
</g>
<!-- 21 -->
<g id="node23" class="node">
<title>21</title>
<ellipse fill="orange" stroke="black" cx="2518.81" cy="-206.35" rx="156.04" ry="26.74"/>
<text text-anchor="middle" x="2518.81" y="-210.15" font-family="Times,serif" font-size="14.00">simpl.</text>
<text text-anchor="middle" x="2518.81" y="-195.15" font-family="Times,serif" font-size="14.00">(0.00015654336912792276)</text>
</g>
<!-- 16&#45;&gt;21 -->
<g id="edge22" class="edge">
<title>16&#45;&gt;21</title>
<path fill="none" stroke="black" d="M2153.22,-276.48C2227.3,-262.47 2328.96,-243.25 2406.28,-228.63"/>
<polygon fill="black" stroke="black" points="2407.36,-231.99 2416.54,-226.69 2406.06,-225.11 2407.36,-231.99"/>
</g>
<!-- 22 -->
<g id="node24" class="node">
<title>22</title>
<ellipse fill="none" stroke="black" cx="2838.81" cy="-206.35" rx="145.83" ry="26.74"/>
<text text-anchor="middle" x="2838.81" y="-210.15" font-family="Times,serif" font-size="14.00">unfold orthogonal.</text>
<text text-anchor="middle" x="2838.81" y="-195.15" font-family="Times,serif" font-size="14.00">(4.590815629135552e&#45;05)</text>
</g>
<!-- 16&#45;&gt;22 -->
<g id="edge23" class="edge">
<title>16&#45;&gt;22</title>
<path fill="none" stroke="black" d="M2154.78,-276.71C2172.09,-273.92 2189.94,-271.29 2206.81,-269.22 2417.84,-243.36 2472.75,-258.75 2683.81,-233.22 2697.9,-231.52 2712.66,-229.44 2727.23,-227.21"/>
<polygon fill="black" stroke="black" points="2727.94,-230.64 2737.28,-225.64 2726.87,-223.72 2727.94,-230.64"/>
</g>
<!-- 6 -->
<g id="node12" class="node">
<title>6</title>
<ellipse fill="orange" stroke="black" cx="578.81" cy="-116.61" rx="137.36" ry="26.74"/>
<text text-anchor="middle" x="578.81" y="-120.41" font-family="Times,serif" font-size="14.00">simpl.</text>
<text text-anchor="middle" x="578.81" y="-105.41" font-family="Times,serif" font-size="14.00">(0.09913940626130367)</text>
</g>
<!-- 5&#45;&gt;6 -->
<g id="edge11" class="edge">
<title>5&#45;&gt;6</title>
<path fill="none" stroke="black" d="M685.52,-180.44C668.07,-170.17 647.7,-158.17 629.46,-147.43"/>
<polygon fill="black" stroke="black" points="631.1,-144.34 620.7,-142.28 627.54,-150.37 631.1,-144.34"/>
</g>
<!-- 7 -->
<g id="node13" class="node">
<title>7</title>
<ellipse fill="none" stroke="black" cx="877.81" cy="-116.61" rx="143.59" ry="26.74"/>
<text text-anchor="middle" x="877.81" y="-120.41" font-family="Times,serif" font-size="14.00">unfold double.</text>
<text text-anchor="middle" x="877.81" y="-105.41" font-family="Times,serif" font-size="14.00">(0.027354705944638017)</text>
</g>
<!-- 5&#45;&gt;7 -->
<g id="edge12" class="edge">
<title>5&#45;&gt;7</title>
<path fill="none" stroke="black" d="M770.4,-180.44C787.89,-170.21 808.29,-158.27 826.59,-147.57"/>
<polygon fill="black" stroke="black" points="828.52,-150.5 835.39,-142.43 824.99,-144.46 828.52,-150.5"/>
</g>
<!-- 8 -->
<g id="node14" class="node">
<title>8</title>
<ellipse fill="orange" stroke="black" cx="877.81" cy="-26.87" rx="137.36" ry="26.74"/>
<text text-anchor="middle" x="877.81" y="-30.67" font-family="Times,serif" font-size="14.00">simpl.</text>
<text text-anchor="middle" x="877.81" y="-15.67" font-family="Times,serif" font-size="14.00">(0.04847348142932028)</text>
</g>
<!-- 7&#45;&gt;8 -->
<g id="edge13" class="edge">
<title>7&#45;&gt;8</title>
<path fill="none" stroke="black" d="M877.81,-89.29C877.81,-81.32 877.81,-72.43 877.81,-63.94"/>
<polygon fill="black" stroke="black" points="881.31,-63.87 877.81,-53.87 874.31,-63.87 881.31,-63.87"/>
</g>
<!-- 13 -->
<g id="node18" class="node">
<title>13</title>
<ellipse fill="orange" stroke="black" cx="1459.81" cy="-116.61" rx="137.36" ry="26.74"/>
<text text-anchor="middle" x="1459.81" y="-120.41" font-family="Times,serif" font-size="14.00">simpl.</text>
<text text-anchor="middle" x="1459.81" y="-105.41" font-family="Times,serif" font-size="14.00">(0.09913940626130367)</text>
</g>
<!-- 12&#45;&gt;13 -->
<g id="edge17" class="edge">
<title>12&#45;&gt;13</title>
<path fill="none" stroke="black" d="M1572.66,-180.68C1553.94,-170.22 1531.98,-157.94 1512.43,-147.01"/>
<polygon fill="black" stroke="black" points="1514.07,-143.92 1503.63,-142.1 1510.66,-150.03 1514.07,-143.92"/>
</g>
<!-- 14 -->
<g id="node19" class="node">
<title>14</title>
<ellipse fill="none" stroke="black" cx="1758.81" cy="-116.61" rx="143.59" ry="26.74"/>
<text text-anchor="middle" x="1758.81" y="-120.41" font-family="Times,serif" font-size="14.00">unfold double.</text>
<text text-anchor="middle" x="1758.81" y="-105.41" font-family="Times,serif" font-size="14.00">(0.027354705944638017)</text>
</g>
<!-- 12&#45;&gt;14 -->
<g id="edge18" class="edge">
<title>12&#45;&gt;14</title>
<path fill="none" stroke="black" d="M1657.13,-180.44C1673.47,-170.35 1692.49,-158.59 1709.63,-148"/>
<polygon fill="black" stroke="black" points="1711.73,-150.81 1718.4,-142.58 1708.06,-144.86 1711.73,-150.81"/>
</g>
<!-- 15 -->
<g id="node20" class="node">
<title>15</title>
<ellipse fill="orange" stroke="black" cx="1758.81" cy="-26.87" rx="137.36" ry="26.74"/>
<text text-anchor="middle" x="1758.81" y="-30.67" font-family="Times,serif" font-size="14.00">simpl.</text>
<text text-anchor="middle" x="1758.81" y="-15.67" font-family="Times,serif" font-size="14.00">(0.04847348142932028)</text>
</g>
<!-- 14&#45;&gt;15 -->
<g id="edge19" class="edge">
<title>14&#45;&gt;15</title>
<path fill="none" stroke="black" d="M1758.81,-89.29C1758.81,-81.32 1758.81,-72.43 1758.81,-63.94"/>
<polygon fill="black" stroke="black" points="1762.31,-63.87 1758.81,-53.87 1755.31,-63.87 1762.31,-63.87"/>
</g>
<!-- 19 -->
<g id="node25" class="node">
<title>19</title>
<ellipse fill="orange" stroke="black" cx="2073.81" cy="-116.61" rx="137.36" ry="26.74"/>
<text text-anchor="middle" x="2073.81" y="-120.41" font-family="Times,serif" font-size="14.00">simpl.</text>
<text text-anchor="middle" x="2073.81" y="-105.41" font-family="Times,serif" font-size="14.00">(0.07955692904880762)</text>
</g>
<!-- 18&#45;&gt;19 -->
<g id="edge24" class="edge">
<title>18&#45;&gt;19</title>
<path fill="none" stroke="black" d="M2164.42,-180.21C2150.21,-170.39 2133.76,-159.02 2118.81,-148.7"/>
<polygon fill="black" stroke="black" points="2120.43,-145.56 2110.21,-142.76 2116.45,-151.32 2120.43,-145.56"/>
</g>
<!-- 20 -->
<g id="node26" class="node">
<title>20</title>
<ellipse fill="orange" stroke="black" cx="2365.81" cy="-116.61" rx="137.36" ry="26.74"/>
<text text-anchor="middle" x="2365.81" y="-120.41" font-family="Times,serif" font-size="14.00">subst.</text>
<text text-anchor="middle" x="2365.81" y="-105.41" font-family="Times,serif" font-size="14.00">(0.01796499701237434)</text>
</g>
<!-- 18&#45;&gt;20 -->
<g id="edge25" class="edge">
<title>18&#45;&gt;20</title>
<path fill="none" stroke="black" d="M2247.22,-180.68C2267.06,-170.12 2290.38,-157.73 2311.06,-146.73"/>
<polygon fill="black" stroke="black" points="2312.86,-149.73 2320.05,-141.95 2309.57,-143.55 2312.86,-149.73"/>
</g>
<!-- 23 -->
<g id="node27" class="node">
<title>23</title>
<ellipse fill="orange" stroke="black" cx="2665.81" cy="-116.61" rx="137.36" ry="26.74"/>
<text text-anchor="middle" x="2665.81" y="-120.41" font-family="Times,serif" font-size="14.00">simpl.</text>
<text text-anchor="middle" x="2665.81" y="-105.41" font-family="Times,serif" font-size="14.00">(0.10101577750688759)</text>
</g>
<!-- 22&#45;&gt;23 -->
<g id="edge26" class="edge">
<title>22&#45;&gt;23</title>
<path fill="none" stroke="black" d="M2790.62,-180.91C2769.63,-170.26 2744.86,-157.7 2722.94,-146.58"/>
<polygon fill="black" stroke="black" points="2724.25,-143.32 2713.75,-141.92 2721.08,-149.56 2724.25,-143.32"/>
</g>
<!-- 24 -->
<g id="node28" class="node">
<title>24</title>
<ellipse fill="none" stroke="black" cx="2964.81" cy="-116.61" rx="143.59" ry="26.74"/>
<text text-anchor="middle" x="2964.81" y="-120.41" font-family="Times,serif" font-size="14.00">unfold double.</text>
<text text-anchor="middle" x="2964.81" y="-105.41" font-family="Times,serif" font-size="14.00">(0.027872437345314728)</text>
</g>
<!-- 22&#45;&gt;24 -->
<g id="edge27" class="edge">
<title>22&#45;&gt;24</title>
<path fill="none" stroke="black" d="M2874.92,-180.21C2889.02,-170.39 2905.34,-159.02 2920.17,-148.7"/>
<polygon fill="black" stroke="black" points="2922.5,-151.34 2928.7,-142.76 2918.5,-145.6 2922.5,-151.34"/>
</g>
<!-- 25 -->
<g id="node29" class="node">
<title>25</title>
<ellipse fill="orange" stroke="black" cx="2964.81" cy="-26.87" rx="137.36" ry="26.74"/>
<text text-anchor="middle" x="2964.81" y="-30.67" font-family="Times,serif" font-size="14.00">simpl.</text>
<text text-anchor="middle" x="2964.81" y="-15.67" font-family="Times,serif" font-size="14.00">(0.04996311664139467)</text>
</g>
<!-- 24&#45;&gt;25 -->
<g id="edge28" class="edge">
<title>24&#45;&gt;25</title>
<path fill="none" stroke="black" d="M2964.81,-89.29C2964.81,-81.32 2964.81,-72.43 2964.81,-63.94"/>
<polygon fill="black" stroke="black" points="2968.31,-63.87 2964.81,-53.87 2961.31,-63.87 2968.31,-63.87"/>
</g>
</g>
</svg>
