<?xml version="1.0" encoding="UTF-8" standalone="no"?>
<!DOCTYPE svg PUBLIC "-//W3C//DTD SVG 1.1//EN"
 "http://www.w3.org/Graphics/SVG/1.1/DTD/svg11.dtd">
<!-- Generated by graphviz version 2.43.0 (0)
 -->
<!-- Pages: 1 -->
<svg width="591pt" height="241pt"
 viewBox="0.00 0.00 591.21 241.22" xmlns="http://www.w3.org/2000/svg" xmlns:xlink="http://www.w3.org/1999/xlink">
<g id="graph0" class="graph" transform="scale(1 1) rotate(0) translate(4 237.22)">
<polygon fill="white" stroke="transparent" points="-4,4 -4,-237.22 587.21,-237.22 587.21,4 -4,4"/>
<!-- 0 -->
<g id="node1" class="node">
<title>0</title>
<ellipse fill="none" stroke="black" cx="290.54" cy="-206.35" rx="95.42" ry="26.74"/>
<text text-anchor="middle" x="290.54" y="-210.15" font-family="Times,serif" font-size="14.00">somme_permute</text>
<text text-anchor="middle" x="290.54" y="-195.15" font-family="Times,serif" font-size="14.00">(1.0)</text>
</g>
<!-- 1 -->
<g id="node2" class="node">
<title>1</title>
<ellipse fill="none" stroke="black" cx="143.54" cy="-116.61" rx="130.63" ry="26.74"/>
<text text-anchor="middle" x="143.54" y="-120.41" font-family="Times,serif" font-size="14.00">intros.</text>
<text text-anchor="middle" x="143.54" y="-105.41" font-family="Times,serif" font-size="14.00">(0.9990160619878998)</text>
</g>
<!-- 0&#45;&gt;1 -->
<g id="edge1" class="edge">
<title>0&#45;&gt;1</title>
<path fill="none" stroke="black" d="M251.15,-181.84C233.46,-171.28 212.37,-158.69 193.58,-147.48"/>
<polygon fill="black" stroke="black" points="195.22,-144.38 184.84,-142.26 191.64,-150.39 195.22,-144.38"/>
</g>
<!-- 3 -->
<g id="node3" class="node">
<title>3</title>
<ellipse fill="orange" stroke="black" cx="437.54" cy="-116.61" rx="145.83" ry="26.74"/>
<text text-anchor="middle" x="437.54" y="-120.41" font-family="Times,serif" font-size="14.00">simpl.</text>
<text text-anchor="middle" x="437.54" y="-105.41" font-family="Times,serif" font-size="14.00">(9.314625689191446e&#45;05)</text>
</g>
<!-- 0&#45;&gt;3 -->
<g id="edge2" class="edge">
<title>0&#45;&gt;3</title>
<path fill="none" stroke="black" d="M329.94,-181.84C347.56,-171.32 368.54,-158.8 387.27,-147.61"/>
<polygon fill="black" stroke="black" points="389.19,-150.55 395.98,-142.42 385.6,-144.54 389.19,-150.55"/>
</g>
<!-- 2 -->
<g id="node4" class="node">
<title>2</title>
<ellipse fill="orange" stroke="black" cx="143.54" cy="-26.87" rx="143.59" ry="26.74"/>
<text text-anchor="middle" x="143.54" y="-30.67" font-family="Times,serif" font-size="14.00">simpl.</text>
<text text-anchor="middle" x="143.54" y="-15.67" font-family="Times,serif" font-size="14.00">(0.034056332590507485)</text>
</g>
<!-- 1&#45;&gt;2 -->
<g id="edge3" class="edge">
<title>1&#45;&gt;2</title>
<path fill="none" stroke="black" d="M143.54,-89.29C143.54,-81.32 143.54,-72.43 143.54,-63.94"/>
<polygon fill="black" stroke="black" points="147.04,-63.87 143.54,-53.87 140.04,-63.87 147.04,-63.87"/>
</g>
</g>
</svg>
