<?xml version="1.0" encoding="UTF-8" standalone="no"?>
<!DOCTYPE svg PUBLIC "-//W3C//DTD SVG 1.1//EN"
 "http://www.w3.org/Graphics/SVG/1.1/DTD/svg11.dtd">
<!-- Generated by graphviz version 2.43.0 (0)
 -->
<!-- Pages: 1 -->
<svg width="581pt" height="241pt"
 viewBox="0.00 0.00 580.72 241.22" xmlns="http://www.w3.org/2000/svg" xmlns:xlink="http://www.w3.org/1999/xlink">
<g id="graph0" class="graph" transform="scale(1 1) rotate(0) translate(4 237.22)">
<polygon fill="white" stroke="transparent" points="-4,4 -4,-237.22 576.72,-237.22 576.72,4 -4,4"/>
<!-- 0 -->
<g id="node1" class="node">
<title>0</title>
<ellipse fill="none" stroke="black" cx="276.81" cy="-206.35" rx="54.39" ry="26.74"/>
<text text-anchor="middle" x="276.81" y="-210.15" font-family="Times,serif" font-size="14.00">permute</text>
<text text-anchor="middle" x="276.81" y="-195.15" font-family="Times,serif" font-size="14.00">(1.0)</text>
</g>
<!-- 1 -->
<g id="node2" class="node">
<title>1</title>
<ellipse fill="none" stroke="black" cx="130.81" cy="-116.61" rx="124.4" ry="26.74"/>
<text text-anchor="middle" x="130.81" y="-120.41" font-family="Times,serif" font-size="14.00">intros.</text>
<text text-anchor="middle" x="130.81" y="-105.41" font-family="Times,serif" font-size="14.00">(0.974189903587787)</text>
</g>
<!-- 0&#45;&gt;1 -->
<g id="edge1" class="edge">
<title>0&#45;&gt;1</title>
<path fill="none" stroke="black" d="M242.95,-185C224.3,-173.79 200.82,-159.68 180.16,-147.27"/>
<polygon fill="black" stroke="black" points="181.88,-144.22 171.51,-142.07 178.28,-150.22 181.88,-144.22"/>
</g>
<!-- 3 -->
<g id="node3" class="node">
<title>3</title>
<ellipse fill="orange" stroke="black" cx="422.81" cy="-116.61" rx="149.81" ry="26.74"/>
<text text-anchor="middle" x="422.81" y="-120.41" font-family="Times,serif" font-size="14.00">simpl.</text>
<text text-anchor="middle" x="422.81" y="-105.41" font-family="Times,serif" font-size="14.00">(0.0022056972288255904)</text>
</g>
<!-- 0&#45;&gt;3 -->
<g id="edge2" class="edge">
<title>0&#45;&gt;3</title>
<path fill="none" stroke="black" d="M310.68,-185C329.1,-173.93 352.25,-160.01 372.73,-147.71"/>
<polygon fill="black" stroke="black" points="374.55,-150.7 381.32,-142.55 370.94,-144.7 374.55,-150.7"/>
</g>
<!-- 2 -->
<g id="node4" class="node">
<title>2</title>
<ellipse fill="orange" stroke="black" cx="130.81" cy="-26.87" rx="130.63" ry="26.74"/>
<text text-anchor="middle" x="130.81" y="-30.67" font-family="Times,serif" font-size="14.00">simpl.</text>
<text text-anchor="middle" x="130.81" y="-15.67" font-family="Times,serif" font-size="14.00">(0.1282508146758299)</text>
</g>
<!-- 1&#45;&gt;2 -->
<g id="edge3" class="edge">
<title>1&#45;&gt;2</title>
<path fill="none" stroke="black" d="M130.81,-89.29C130.81,-81.32 130.81,-72.43 130.81,-63.94"/>
<polygon fill="black" stroke="black" points="134.31,-63.87 130.81,-53.87 127.31,-63.87 134.31,-63.87"/>
</g>
</g>
</svg>
