<?xml version="1.0" encoding="UTF-8" standalone="no"?>
<!DOCTYPE svg PUBLIC "-//W3C//DTD SVG 1.1//EN"
 "http://www.w3.org/Graphics/SVG/1.1/DTD/svg11.dtd">
<!-- Generated by graphviz version 2.43.0 (0)
 -->
<!-- Pages: 1 -->
<svg width="1190pt" height="331pt"
 viewBox="0.00 0.00 1190.36 330.96" xmlns="http://www.w3.org/2000/svg" xmlns:xlink="http://www.w3.org/1999/xlink">
<g id="graph0" class="graph" transform="scale(1 1) rotate(0) translate(4 326.96)">
<polygon fill="white" stroke="transparent" points="-4,4 -4,-326.96 1186.36,-326.96 1186.36,4 -4,4"/>
<!-- 0 -->
<g id="node1" class="node">
<title>0</title>
<ellipse fill="none" stroke="black" cx="429.18" cy="-296.09" rx="94.09" ry="26.74"/>
<text text-anchor="middle" x="429.18" y="-299.89" font-family="Times,serif" font-size="14.00">isocele_permute</text>
<text text-anchor="middle" x="429.18" y="-284.89" font-family="Times,serif" font-size="14.00">(1.0)</text>
</g>
<!-- 1 -->
<g id="node2" class="node">
<title>1</title>
<ellipse fill="none" stroke="black" cx="137.18" cy="-206.35" rx="130.63" ry="26.74"/>
<text text-anchor="middle" x="137.18" y="-210.15" font-family="Times,serif" font-size="14.00">intros.</text>
<text text-anchor="middle" x="137.18" y="-195.15" font-family="Times,serif" font-size="14.00">(0.9929077577943413)</text>
</g>
<!-- 0&#45;&gt;1 -->
<g id="edge1" class="edge">
<title>0&#45;&gt;1</title>
<path fill="none" stroke="black" d="M365.82,-276.05C322.68,-263.09 265.18,-245.81 218.64,-231.83"/>
<polygon fill="black" stroke="black" points="219.47,-228.42 208.88,-228.9 217.45,-235.13 219.47,-228.42"/>
</g>
<!-- 3 -->
<g id="node3" class="node">
<title>3</title>
<ellipse fill="orange" stroke="black" cx="429.18" cy="-206.35" rx="143.59" ry="26.74"/>
<text text-anchor="middle" x="429.18" y="-210.15" font-family="Times,serif" font-size="14.00">simpl.</text>
<text text-anchor="middle" x="429.18" y="-195.15" font-family="Times,serif" font-size="14.00">(0.004984728488376873)</text>
</g>
<!-- 0&#45;&gt;3 -->
<g id="edge2" class="edge">
<title>0&#45;&gt;3</title>
<path fill="none" stroke="black" d="M429.18,-268.77C429.18,-260.8 429.18,-251.91 429.18,-243.42"/>
<polygon fill="black" stroke="black" points="432.68,-243.35 429.18,-233.35 425.68,-243.35 432.68,-243.35"/>
</g>
<!-- 4 -->
<g id="node4" class="node">
<title>4</title>
<ellipse fill="none" stroke="black" cx="740.18" cy="-206.35" rx="149.81" ry="26.74"/>
<text text-anchor="middle" x="740.18" y="-210.15" font-family="Times,serif" font-size="14.00">unfold isocele.</text>
<text text-anchor="middle" x="740.18" y="-195.15" font-family="Times,serif" font-size="14.00">(0.0003435995465385358)</text>
</g>
<!-- 0&#45;&gt;4 -->
<g id="edge3" class="edge">
<title>0&#45;&gt;4</title>
<path fill="none" stroke="black" d="M494.37,-276.7C540.21,-263.77 602.07,-246.31 652.26,-232.15"/>
<polygon fill="black" stroke="black" points="653.46,-235.45 662.14,-229.37 651.56,-228.71 653.46,-235.45"/>
</g>
<!-- 2 -->
<g id="node5" class="node">
<title>2</title>
<ellipse fill="orange" stroke="black" cx="137.18" cy="-116.61" rx="137.36" ry="26.74"/>
<text text-anchor="middle" x="137.18" y="-120.41" font-family="Times,serif" font-size="14.00">simpl.</text>
<text text-anchor="middle" x="137.18" y="-105.41" font-family="Times,serif" font-size="14.00">(0.03494475201446182)</text>
</g>
<!-- 1&#45;&gt;2 -->
<g id="edge4" class="edge">
<title>1&#45;&gt;2</title>
<path fill="none" stroke="black" d="M137.18,-179.03C137.18,-171.06 137.18,-162.17 137.18,-153.68"/>
<polygon fill="black" stroke="black" points="140.68,-153.61 137.18,-143.61 133.68,-153.61 140.68,-153.61"/>
</g>
<!-- 5 -->
<g id="node6" class="node">
<title>5</title>
<ellipse fill="none" stroke="black" cx="441.18" cy="-116.61" rx="130.63" ry="26.74"/>
<text text-anchor="middle" x="441.18" y="-120.41" font-family="Times,serif" font-size="14.00">intros.</text>
<text text-anchor="middle" x="441.18" y="-105.41" font-family="Times,serif" font-size="14.00">(0.9951483510971639)</text>
</g>
<!-- 4&#45;&gt;5 -->
<g id="edge5" class="edge">
<title>4&#45;&gt;5</title>
<path fill="none" stroke="black" d="M664.34,-183.1C621.48,-170.52 567.84,-154.78 523.89,-141.88"/>
<polygon fill="black" stroke="black" points="524.68,-138.47 514.1,-139.01 522.71,-145.18 524.68,-138.47"/>
</g>
<!-- 7 -->
<g id="node7" class="node">
<title>7</title>
<ellipse fill="orange" stroke="black" cx="740.18" cy="-116.61" rx="149.81" ry="26.74"/>
<text text-anchor="middle" x="740.18" y="-120.41" font-family="Times,serif" font-size="14.00">simpl.</text>
<text text-anchor="middle" x="740.18" y="-105.41" font-family="Times,serif" font-size="14.00">(0.0021105672059106616)</text>
</g>
<!-- 4&#45;&gt;7 -->
<g id="edge6" class="edge">
<title>4&#45;&gt;7</title>
<path fill="none" stroke="black" d="M740.18,-179.03C740.18,-171.06 740.18,-162.17 740.18,-153.68"/>
<polygon fill="black" stroke="black" points="743.68,-153.61 740.18,-143.61 736.68,-153.61 743.68,-153.61"/>
</g>
<!-- 8 -->
<g id="node8" class="node">
<title>8</title>
<ellipse fill="orange" stroke="black" cx="1045.18" cy="-116.61" rx="137.36" ry="26.74"/>
<text text-anchor="middle" x="1045.18" y="-120.41" font-family="Times,serif" font-size="14.00">eauto.</text>
<text text-anchor="middle" x="1045.18" y="-105.41" font-family="Times,serif" font-size="14.00">(0.00095440588575276)</text>
</g>
<!-- 4&#45;&gt;8 -->
<g id="edge7" class="edge">
<title>4&#45;&gt;8</title>
<path fill="none" stroke="black" d="M817.14,-183.21C860.88,-170.63 915.7,-154.86 960.63,-141.93"/>
<polygon fill="black" stroke="black" points="961.71,-145.27 970.35,-139.14 959.77,-138.54 961.71,-145.27"/>
</g>
<!-- 6 -->
<g id="node9" class="node">
<title>6</title>
<ellipse fill="orange" stroke="black" cx="441.18" cy="-26.87" rx="143.59" ry="26.74"/>
<text text-anchor="middle" x="441.18" y="-30.67" font-family="Times,serif" font-size="14.00">simpl.</text>
<text text-anchor="middle" x="441.18" y="-15.67" font-family="Times,serif" font-size="14.00">(0.033772215656084674)</text>
</g>
<!-- 5&#45;&gt;6 -->
<g id="edge8" class="edge">
<title>5&#45;&gt;6</title>
<path fill="none" stroke="black" d="M441.18,-89.29C441.18,-81.32 441.18,-72.43 441.18,-63.94"/>
<polygon fill="black" stroke="black" points="444.68,-63.87 441.18,-53.87 437.68,-63.87 444.68,-63.87"/>
</g>
</g>
</svg>
