<?xml version="1.0" encoding="UTF-8" standalone="no"?>
<!DOCTYPE svg PUBLIC "-//W3C//DTD SVG 1.1//EN"
 "http://www.w3.org/Graphics/SVG/1.1/DTD/svg11.dtd">
<!-- Generated by graphviz version 2.43.0 (0)
 -->
<!-- Pages: 1 -->
<svg width="6822pt" height="600pt"
 viewBox="0.00 0.00 6821.99 600.18" xmlns="http://www.w3.org/2000/svg" xmlns:xlink="http://www.w3.org/1999/xlink">
<g id="graph0" class="graph" transform="scale(1 1) rotate(0) translate(4 596.18)">
<polygon fill="white" stroke="transparent" points="-4,4 -4,-596.18 6817.99,-596.18 6817.99,4 -4,4"/>
<!-- 0 -->
<g id="node1" class="node">
<title>0</title>
<ellipse fill="none" stroke="black" cx="2819.81" cy="-565.31" rx="55.72" ry="26.74"/>
<text text-anchor="middle" x="2819.81" y="-569.11" font-family="Times,serif" font-size="14.00">reflexion</text>
<text text-anchor="middle" x="2819.81" y="-554.11" font-family="Times,serif" font-size="14.00">(1.0)</text>
</g>
<!-- 1 -->
<g id="node2" class="node">
<title>1</title>
<ellipse fill="none" stroke="black" cx="2819.81" cy="-475.57" rx="130.63" ry="26.74"/>
<text text-anchor="middle" x="2819.81" y="-479.37" font-family="Times,serif" font-size="14.00">intros.</text>
<text text-anchor="middle" x="2819.81" y="-464.37" font-family="Times,serif" font-size="14.00">(0.9848734033946341)</text>
</g>
<!-- 0&#45;&gt;1 -->
<g id="edge1" class="edge">
<title>0&#45;&gt;1</title>
<path fill="none" stroke="black" d="M2819.81,-537.99C2819.81,-530.02 2819.81,-521.13 2819.81,-512.64"/>
<polygon fill="black" stroke="black" points="2823.31,-512.57 2819.81,-502.57 2816.31,-512.57 2823.31,-512.57"/>
</g>
<!-- 2 -->
<g id="node3" class="node">
<title>2</title>
<ellipse fill="none" stroke="black" cx="1031.81" cy="-385.83" rx="143.59" ry="26.74"/>
<text text-anchor="middle" x="1031.81" y="-389.63" font-family="Times,serif" font-size="14.00">eapply R_permute.</text>
<text text-anchor="middle" x="1031.81" y="-374.63" font-family="Times,serif" font-size="14.00">(0.013073497145536671)</text>
</g>
<!-- 1&#45;&gt;2 -->
<g id="edge2" class="edge">
<title>1&#45;&gt;2</title>
<path fill="none" stroke="black" d="M2693.73,-468.38C2372.28,-452.61 1523.32,-410.95 1179.51,-394.08"/>
<polygon fill="black" stroke="black" points="1179.65,-390.58 1169.49,-393.59 1179.3,-397.57 1179.65,-390.58"/>
</g>
<!-- 15 -->
<g id="node4" class="node">
<title>15</title>
<ellipse fill="none" stroke="black" cx="2819.81" cy="-385.83" rx="143.59" ry="26.74"/>
<text text-anchor="middle" x="2819.81" y="-389.63" font-family="Times,serif" font-size="14.00">eapply rotation.</text>
<text text-anchor="middle" x="2819.81" y="-374.63" font-family="Times,serif" font-size="14.00">(0.009080458497302102)</text>
</g>
<!-- 1&#45;&gt;15 -->
<g id="edge3" class="edge">
<title>1&#45;&gt;15</title>
<path fill="none" stroke="black" d="M2819.81,-448.25C2819.81,-440.28 2819.81,-431.39 2819.81,-422.9"/>
<polygon fill="black" stroke="black" points="2823.31,-422.83 2819.81,-412.83 2816.31,-422.83 2823.31,-422.83"/>
</g>
<!-- 56 -->
<g id="node5" class="node">
<title>56</title>
<ellipse fill="none" stroke="black" cx="4231.81" cy="-385.83" rx="143.59" ry="26.74"/>
<text text-anchor="middle" x="4231.81" y="-389.63" font-family="Times,serif" font-size="14.00">apply R_permute.</text>
<text text-anchor="middle" x="4231.81" y="-374.63" font-family="Times,serif" font-size="14.00">(0.008999102607724784)</text>
</g>
<!-- 1&#45;&gt;56 -->
<g id="edge4" class="edge">
<title>1&#45;&gt;56</title>
<path fill="none" stroke="black" d="M2943.88,-466.86C3204.79,-450.65 3809.08,-413.1 4087.1,-395.82"/>
<polygon fill="black" stroke="black" points="4087.49,-399.31 4097.25,-395.19 4087.05,-392.32 4087.49,-399.31"/>
</g>
<!-- 3 -->
<g id="node6" class="node">
<title>3</title>
<ellipse fill="orange" stroke="black" cx="434.81" cy="-296.09" rx="130.63" ry="26.74"/>
<text text-anchor="middle" x="434.81" y="-299.89" font-family="Times,serif" font-size="14.00">eauto.</text>
<text text-anchor="middle" x="434.81" y="-284.89" font-family="Times,serif" font-size="14.00">(0.5418691746318264)</text>
</g>
<!-- 2&#45;&gt;3 -->
<g id="edge5" class="edge">
<title>2&#45;&gt;3</title>
<path fill="none" stroke="black" d="M913.44,-370.48C820.82,-358.86 688.89,-341.43 573.81,-322.96 562.17,-321.09 550,-319.01 537.91,-316.87"/>
<polygon fill="black" stroke="black" points="538.25,-313.37 527.79,-315.06 537.02,-320.26 538.25,-313.37"/>
</g>
<!-- 4 -->
<g id="node7" class="node">
<title>4</title>
<ellipse fill="none" stroke="black" cx="726.81" cy="-296.09" rx="143.59" ry="26.74"/>
<text text-anchor="middle" x="726.81" y="-299.89" font-family="Times,serif" font-size="14.00">eapply rotation.</text>
<text text-anchor="middle" x="726.81" y="-284.89" font-family="Times,serif" font-size="14.00">(0.006307840864494816)</text>
</g>
<!-- 2&#45;&gt;4 -->
<g id="edge6" class="edge">
<title>2&#45;&gt;4</title>
<path fill="none" stroke="black" d="M955.64,-362.92C912.16,-350.41 857.53,-334.69 812.55,-321.75"/>
<polygon fill="black" stroke="black" points="813.39,-318.35 802.81,-318.95 811.46,-325.08 813.39,-318.35"/>
</g>
<!-- 11 -->
<g id="node8" class="node">
<title>11</title>
<ellipse fill="none" stroke="black" cx="1031.81" cy="-296.09" rx="143.59" ry="26.74"/>
<text text-anchor="middle" x="1031.81" y="-299.89" font-family="Times,serif" font-size="14.00">apply rotation.</text>
<text text-anchor="middle" x="1031.81" y="-284.89" font-family="Times,serif" font-size="14.00">(0.005899847874043044)</text>
</g>
<!-- 2&#45;&gt;11 -->
<g id="edge7" class="edge">
<title>2&#45;&gt;11</title>
<path fill="none" stroke="black" d="M1031.81,-358.51C1031.81,-350.54 1031.81,-341.65 1031.81,-333.16"/>
<polygon fill="black" stroke="black" points="1035.31,-333.09 1031.81,-323.09 1028.31,-333.09 1035.31,-333.09"/>
</g>
<!-- 14 -->
<g id="node9" class="node">
<title>14</title>
<ellipse fill="orange" stroke="black" cx="1336.81" cy="-296.09" rx="143.59" ry="26.74"/>
<text text-anchor="middle" x="1336.81" y="-299.89" font-family="Times,serif" font-size="14.00">eapply R_permute.</text>
<text text-anchor="middle" x="1336.81" y="-284.89" font-family="Times,serif" font-size="14.00">(0.004359108359694347)</text>
</g>
<!-- 2&#45;&gt;14 -->
<g id="edge8" class="edge">
<title>2&#45;&gt;14</title>
<path fill="none" stroke="black" d="M1107.99,-362.92C1151.47,-350.41 1206.1,-334.69 1251.08,-321.75"/>
<polygon fill="black" stroke="black" points="1252.17,-325.08 1260.82,-318.95 1250.24,-318.35 1252.17,-325.08"/>
</g>
<!-- 16 -->
<g id="node18" class="node">
<title>16</title>
<ellipse fill="orange" stroke="black" cx="2059.81" cy="-296.09" rx="130.63" ry="26.74"/>
<text text-anchor="middle" x="2059.81" y="-299.89" font-family="Times,serif" font-size="14.00">eauto.</text>
<text text-anchor="middle" x="2059.81" y="-284.89" font-family="Times,serif" font-size="14.00">(0.5753481330839991)</text>
</g>
<!-- 15&#45;&gt;16 -->
<g id="edge17" class="edge">
<title>15&#45;&gt;16</title>
<path fill="none" stroke="black" d="M2688.5,-374.92C2562.74,-364.67 2367.83,-346.82 2199.81,-322.96 2187.55,-321.22 2174.73,-319.17 2162.03,-317"/>
<polygon fill="black" stroke="black" points="2162.34,-313.5 2151.89,-315.23 2161.14,-320.39 2162.34,-313.5"/>
</g>
<!-- 17 -->
<g id="node19" class="node">
<title>17</title>
<ellipse fill="none" stroke="black" cx="2358.81" cy="-296.09" rx="149.81" ry="26.74"/>
<text text-anchor="middle" x="2358.81" y="-299.89" font-family="Times,serif" font-size="14.00">eapply R_permute.</text>
<text text-anchor="middle" x="2358.81" y="-284.89" font-family="Times,serif" font-size="14.00">(0.0062817899987697495)</text>
</g>
<!-- 15&#45;&gt;17 -->
<g id="edge18" class="edge">
<title>15&#45;&gt;17</title>
<path fill="none" stroke="black" d="M2721.77,-366.17C2647.76,-352.08 2546.18,-332.75 2469.31,-318.12"/>
<polygon fill="black" stroke="black" points="2469.58,-314.61 2459.1,-316.18 2468.27,-321.49 2469.58,-314.61"/>
</g>
<!-- 27 -->
<g id="node20" class="node">
<title>27</title>
<ellipse fill="none" stroke="black" cx="2819.81" cy="-296.09" rx="149.81" ry="26.74"/>
<text text-anchor="middle" x="2819.81" y="-299.89" font-family="Times,serif" font-size="14.00">apply R_permute.</text>
<text text-anchor="middle" x="2819.81" y="-284.89" font-family="Times,serif" font-size="14.00">(0.0053315503194990305)</text>
</g>
<!-- 15&#45;&gt;27 -->
<g id="edge19" class="edge">
<title>15&#45;&gt;27</title>
<path fill="none" stroke="black" d="M2819.81,-358.51C2819.81,-350.54 2819.81,-341.65 2819.81,-333.16"/>
<polygon fill="black" stroke="black" points="2823.31,-333.09 2819.81,-323.09 2816.31,-333.09 2823.31,-333.09"/>
</g>
<!-- 32 -->
<g id="node21" class="node">
<title>32</title>
<ellipse fill="orange" stroke="black" cx="3130.81" cy="-296.09" rx="143.59" ry="26.74"/>
<text text-anchor="middle" x="3130.81" y="-299.89" font-family="Times,serif" font-size="14.00">eapply rotation.</text>
<text text-anchor="middle" x="3130.81" y="-284.89" font-family="Times,serif" font-size="14.00">(0.004363142680003589)</text>
</g>
<!-- 15&#45;&gt;32 -->
<g id="edge20" class="edge">
<title>15&#45;&gt;32</title>
<path fill="none" stroke="black" d="M2897.09,-363.03C2941.68,-350.45 2997.88,-334.6 3043.99,-321.59"/>
<polygon fill="black" stroke="black" points="3044.99,-324.94 3053.67,-318.86 3043.09,-318.2 3044.99,-324.94"/>
</g>
<!-- 33 -->
<g id="node22" class="node">
<title>33</title>
<ellipse fill="none" stroke="black" cx="3571.81" cy="-296.09" rx="149.81" ry="26.74"/>
<text text-anchor="middle" x="3571.81" y="-299.89" font-family="Times,serif" font-size="14.00">eapply regulier_cons.</text>
<text text-anchor="middle" x="3571.81" y="-284.89" font-family="Times,serif" font-size="14.00">(0.0031812574223694717)</text>
</g>
<!-- 15&#45;&gt;33 -->
<g id="edge21" class="edge">
<title>15&#45;&gt;33</title>
<path fill="none" stroke="black" d="M2939.39,-370.88C3075.47,-355 3297.13,-329.14 3438.63,-312.63"/>
<polygon fill="black" stroke="black" points="3439.15,-316.09 3448.68,-311.46 3438.34,-309.14 3439.15,-316.09"/>
</g>
<!-- 57 -->
<g id="node58" class="node">
<title>57</title>
<ellipse fill="orange" stroke="black" cx="4231.81" cy="-296.09" rx="137.36" ry="26.74"/>
<text text-anchor="middle" x="4231.81" y="-299.89" font-family="Times,serif" font-size="14.00">eauto.</text>
<text text-anchor="middle" x="4231.81" y="-284.89" font-family="Times,serif" font-size="14.00">(0.16894796583114718)</text>
</g>
<!-- 56&#45;&gt;57 -->
<g id="edge57" class="edge">
<title>56&#45;&gt;57</title>
<path fill="none" stroke="black" d="M4231.81,-358.51C4231.81,-350.54 4231.81,-341.65 4231.81,-333.16"/>
<polygon fill="black" stroke="black" points="4235.31,-333.09 4231.81,-323.09 4228.31,-333.09 4235.31,-333.09"/>
</g>
<!-- 58 -->
<g id="node59" class="node">
<title>58</title>
<ellipse fill="none" stroke="black" cx="4878.81" cy="-296.09" rx="137.36" ry="26.74"/>
<text text-anchor="middle" x="4878.81" y="-299.89" font-family="Times,serif" font-size="14.00">apply rotation.</text>
<text text-anchor="middle" x="4878.81" y="-284.89" font-family="Times,serif" font-size="14.00">(0.01141011361720898)</text>
</g>
<!-- 56&#45;&gt;58 -->
<g id="edge58" class="edge">
<title>56&#45;&gt;58</title>
<path fill="none" stroke="black" d="M4345.62,-369.4C4461.36,-353.7 4640.03,-329.47 4758.17,-313.45"/>
<polygon fill="black" stroke="black" points="4758.9,-316.88 4768.34,-312.07 4757.96,-309.95 4758.9,-316.88"/>
</g>
<!-- 5 -->
<g id="node10" class="node">
<title>5</title>
<ellipse fill="orange" stroke="black" cx="130.81" cy="-206.35" rx="130.63" ry="26.74"/>
<text text-anchor="middle" x="130.81" y="-210.15" font-family="Times,serif" font-size="14.00">eauto.</text>
<text text-anchor="middle" x="130.81" y="-195.15" font-family="Times,serif" font-size="14.00">(0.5451566675963573)</text>
</g>
<!-- 4&#45;&gt;5 -->
<g id="edge9" class="edge">
<title>4&#45;&gt;5</title>
<path fill="none" stroke="black" d="M625.13,-277.05C608.35,-274.28 591.11,-271.57 574.81,-269.22 439.71,-249.76 404.76,-253.72 269.81,-233.22 258.06,-231.43 245.78,-229.4 233.59,-227.27"/>
<polygon fill="black" stroke="black" points="233.84,-223.76 223.38,-225.47 232.62,-230.65 233.84,-223.76"/>
</g>
<!-- 6 -->
<g id="node11" class="node">
<title>6</title>
<ellipse fill="orange" stroke="black" cx="422.81" cy="-206.35" rx="143.59" ry="26.74"/>
<text text-anchor="middle" x="422.81" y="-210.15" font-family="Times,serif" font-size="14.00">eapply rotation.</text>
<text text-anchor="middle" x="422.81" y="-195.15" font-family="Times,serif" font-size="14.00">(0.004868519087262925)</text>
</g>
<!-- 4&#45;&gt;6 -->
<g id="edge10" class="edge">
<title>4&#45;&gt;6</title>
<path fill="none" stroke="black" d="M650.89,-273.18C607.55,-260.67 553.1,-244.95 508.27,-232.01"/>
<polygon fill="black" stroke="black" points="509.14,-228.62 498.56,-229.21 507.2,-235.35 509.14,-228.62"/>
</g>
<!-- 7 -->
<g id="node12" class="node">
<title>7</title>
<ellipse fill="none" stroke="black" cx="727.81" cy="-206.35" rx="143.59" ry="26.74"/>
<text text-anchor="middle" x="727.81" y="-210.15" font-family="Times,serif" font-size="14.00">eapply R_permute.</text>
<text text-anchor="middle" x="727.81" y="-195.15" font-family="Times,serif" font-size="14.00">(0.004385553020555482)</text>
</g>
<!-- 4&#45;&gt;7 -->
<g id="edge11" class="edge">
<title>4&#45;&gt;7</title>
<path fill="none" stroke="black" d="M727.11,-268.77C727.21,-260.8 727.31,-251.91 727.4,-243.42"/>
<polygon fill="black" stroke="black" points="730.9,-243.39 727.52,-233.35 723.9,-243.31 730.9,-243.39"/>
</g>
<!-- 12 -->
<g id="node16" class="node">
<title>12</title>
<ellipse fill="orange" stroke="black" cx="1029.81" cy="-206.35" rx="137.36" ry="26.74"/>
<text text-anchor="middle" x="1029.81" y="-210.15" font-family="Times,serif" font-size="14.00">eauto.</text>
<text text-anchor="middle" x="1029.81" y="-195.15" font-family="Times,serif" font-size="14.00">(0.17020785604249788)</text>
</g>
<!-- 11&#45;&gt;12 -->
<g id="edge15" class="edge">
<title>11&#45;&gt;12</title>
<path fill="none" stroke="black" d="M1031.21,-268.77C1031.03,-260.8 1030.83,-251.91 1030.64,-243.42"/>
<polygon fill="black" stroke="black" points="1034.13,-243.27 1030.41,-233.35 1027.14,-243.43 1034.13,-243.27"/>
</g>
<!-- 13 -->
<g id="node17" class="node">
<title>13</title>
<ellipse fill="orange" stroke="black" cx="1328.81" cy="-206.35" rx="143.59" ry="26.74"/>
<text text-anchor="middle" x="1328.81" y="-210.15" font-family="Times,serif" font-size="14.00">apply rotation.</text>
<text text-anchor="middle" x="1328.81" y="-195.15" font-family="Times,serif" font-size="14.00">(0.006012936722086453)</text>
</g>
<!-- 11&#45;&gt;13 -->
<g id="edge16" class="edge">
<title>11&#45;&gt;13</title>
<path fill="none" stroke="black" d="M1106.38,-273.06C1148.39,-260.65 1201.01,-245.11 1244.51,-232.25"/>
<polygon fill="black" stroke="black" points="1245.62,-235.58 1254.22,-229.39 1243.64,-228.86 1245.62,-235.58"/>
</g>
<!-- 8 -->
<g id="node13" class="node">
<title>8</title>
<ellipse fill="orange" stroke="black" cx="429.81" cy="-116.61" rx="130.63" ry="26.74"/>
<text text-anchor="middle" x="429.81" y="-120.41" font-family="Times,serif" font-size="14.00">eauto.</text>
<text text-anchor="middle" x="429.81" y="-105.41" font-family="Times,serif" font-size="14.00">(0.5177361384500627)</text>
</g>
<!-- 7&#45;&gt;8 -->
<g id="edge12" class="edge">
<title>7&#45;&gt;8</title>
<path fill="none" stroke="black" d="M653,-183.32C610.2,-170.72 556.45,-154.89 512.41,-141.93"/>
<polygon fill="black" stroke="black" points="513.18,-138.51 502.6,-139.04 511.2,-145.22 513.18,-138.51"/>
</g>
<!-- 9 -->
<g id="node14" class="node">
<title>9</title>
<ellipse fill="orange" stroke="black" cx="721.81" cy="-116.61" rx="143.59" ry="26.74"/>
<text text-anchor="middle" x="721.81" y="-120.41" font-family="Times,serif" font-size="14.00">eapply R_permute.</text>
<text text-anchor="middle" x="721.81" y="-105.41" font-family="Times,serif" font-size="14.00">(0.005652769999179631)</text>
</g>
<!-- 7&#45;&gt;9 -->
<g id="edge13" class="edge">
<title>7&#45;&gt;9</title>
<path fill="none" stroke="black" d="M726.01,-179.03C725.47,-171.06 724.86,-162.17 724.28,-153.68"/>
<polygon fill="black" stroke="black" points="727.77,-153.35 723.59,-143.61 720.78,-153.83 727.77,-153.35"/>
</g>
<!-- 10 -->
<g id="node15" class="node">
<title>10</title>
<ellipse fill="orange" stroke="black" cx="1026.81" cy="-116.61" rx="143.59" ry="26.74"/>
<text text-anchor="middle" x="1026.81" y="-120.41" font-family="Times,serif" font-size="14.00">apply R_permute.</text>
<text text-anchor="middle" x="1026.81" y="-105.41" font-family="Times,serif" font-size="14.00">(0.004797681504966426)</text>
</g>
<!-- 7&#45;&gt;10 -->
<g id="edge14" class="edge">
<title>7&#45;&gt;10</title>
<path fill="none" stroke="black" d="M802.88,-183.32C845.26,-170.89 898.35,-155.31 942.2,-142.44"/>
<polygon fill="black" stroke="black" points="943.37,-145.74 951.98,-139.57 941.4,-139.03 943.37,-145.74"/>
</g>
<!-- 18 -->
<g id="node23" class="node">
<title>18</title>
<ellipse fill="orange" stroke="black" cx="1624.81" cy="-206.35" rx="124.4" ry="26.74"/>
<text text-anchor="middle" x="1624.81" y="-210.15" font-family="Times,serif" font-size="14.00">eauto.</text>
<text text-anchor="middle" x="1624.81" y="-195.15" font-family="Times,serif" font-size="14.00">(0.541977932640245)</text>
</g>
<!-- 17&#45;&gt;18 -->
<g id="edge22" class="edge">
<title>17&#45;&gt;18</title>
<path fill="none" stroke="black" d="M2253.79,-276.78C2235.82,-274 2217.3,-271.35 2199.81,-269.22 2004.17,-245.38 1953.07,-260.08 1757.81,-233.22 1746.07,-231.61 1733.8,-229.62 1721.66,-227.48"/>
<polygon fill="black" stroke="black" points="1721.97,-223.98 1711.51,-225.65 1720.73,-230.87 1721.97,-223.98"/>
</g>
<!-- 19 -->
<g id="node24" class="node">
<title>19</title>
<ellipse fill="none" stroke="black" cx="1910.81" cy="-206.35" rx="143.59" ry="26.74"/>
<text text-anchor="middle" x="1910.81" y="-210.15" font-family="Times,serif" font-size="14.00">eapply rotation.</text>
<text text-anchor="middle" x="1910.81" y="-195.15" font-family="Times,serif" font-size="14.00">(0.006309104272426096)</text>
</g>
<!-- 17&#45;&gt;19 -->
<g id="edge23" class="edge">
<title>17&#45;&gt;19</title>
<path fill="none" stroke="black" d="M2260.22,-275.78C2188.5,-261.73 2091.46,-242.73 2017.85,-228.31"/>
<polygon fill="black" stroke="black" points="2018.11,-224.8 2007.63,-226.31 2016.77,-231.67 2018.11,-224.8"/>
</g>
<!-- 23 -->
<g id="node25" class="node">
<title>23</title>
<ellipse fill="none" stroke="black" cx="2215.81" cy="-206.35" rx="143.59" ry="26.74"/>
<text text-anchor="middle" x="2215.81" y="-210.15" font-family="Times,serif" font-size="14.00">apply rotation.</text>
<text text-anchor="middle" x="2215.81" y="-195.15" font-family="Times,serif" font-size="14.00">(0.005901029564380123)</text>
</g>
<!-- 17&#45;&gt;23 -->
<g id="edge24" class="edge">
<title>17&#45;&gt;23</title>
<path fill="none" stroke="black" d="M2318.22,-270.18C2301.77,-260.09 2282.61,-248.33 2265.34,-237.74"/>
<polygon fill="black" stroke="black" points="2266.87,-234.57 2256.51,-232.32 2263.2,-240.53 2266.87,-234.57"/>
</g>
<!-- 26 -->
<g id="node26" class="node">
<title>26</title>
<ellipse fill="orange" stroke="black" cx="2520.81" cy="-206.35" rx="143.59" ry="26.74"/>
<text text-anchor="middle" x="2520.81" y="-210.15" font-family="Times,serif" font-size="14.00">eapply R_permute.</text>
<text text-anchor="middle" x="2520.81" y="-195.15" font-family="Times,serif" font-size="14.00">(0.004359981452753168)</text>
</g>
<!-- 17&#45;&gt;26 -->
<g id="edge25" class="edge">
<title>17&#45;&gt;26</title>
<path fill="none" stroke="black" d="M2404.37,-270.42C2423.61,-260 2446.16,-247.78 2466.27,-236.89"/>
<polygon fill="black" stroke="black" points="2468.19,-239.83 2475.32,-231.99 2464.86,-233.68 2468.19,-239.83"/>
</g>
<!-- 28 -->
<g id="node32" class="node">
<title>28</title>
<ellipse fill="orange" stroke="black" cx="2819.81" cy="-206.35" rx="137.36" ry="26.74"/>
<text text-anchor="middle" x="2819.81" y="-210.15" font-family="Times,serif" font-size="14.00">eauto.</text>
<text text-anchor="middle" x="2819.81" y="-195.15" font-family="Times,serif" font-size="14.00">(0.16894039329807548)</text>
</g>
<!-- 27&#45;&gt;28 -->
<g id="edge31" class="edge">
<title>27&#45;&gt;28</title>
<path fill="none" stroke="black" d="M2819.81,-268.77C2819.81,-260.8 2819.81,-251.91 2819.81,-243.42"/>
<polygon fill="black" stroke="black" points="2823.31,-243.35 2819.81,-233.35 2816.31,-243.35 2823.31,-243.35"/>
</g>
<!-- 29 -->
<g id="node33" class="node">
<title>29</title>
<ellipse fill="none" stroke="black" cx="3118.81" cy="-206.35" rx="143.59" ry="26.74"/>
<text text-anchor="middle" x="3118.81" y="-210.15" font-family="Times,serif" font-size="14.00">apply rotation.</text>
<text text-anchor="middle" x="3118.81" y="-195.15" font-family="Times,serif" font-size="14.00">(0.011409602196652399)</text>
</g>
<!-- 27&#45;&gt;29 -->
<g id="edge32" class="edge">
<title>27&#45;&gt;29</title>
<path fill="none" stroke="black" d="M2895.65,-272.84C2937.87,-260.45 2990.55,-244.99 3034.12,-232.2"/>
<polygon fill="black" stroke="black" points="3035.23,-235.53 3043.84,-229.35 3033.25,-228.81 3035.23,-235.53"/>
</g>
<!-- 34 -->
<g id="node36" class="node">
<title>34</title>
<ellipse fill="orange" stroke="black" cx="3410.81" cy="-206.35" rx="130.63" ry="26.74"/>
<text text-anchor="middle" x="3410.81" y="-210.15" font-family="Times,serif" font-size="14.00">eauto.</text>
<text text-anchor="middle" x="3410.81" y="-195.15" font-family="Times,serif" font-size="14.00">(0.4977796044360935)</text>
</g>
<!-- 33&#45;&gt;34 -->
<g id="edge35" class="edge">
<title>33&#45;&gt;34</title>
<path fill="none" stroke="black" d="M3526.54,-270.42C3507.26,-259.91 3484.63,-247.58 3464.52,-236.62"/>
<polygon fill="black" stroke="black" points="3465.93,-233.4 3455.47,-231.69 3462.58,-239.55 3465.93,-233.4"/>
</g>
<!-- 35 -->
<g id="node37" class="node">
<title>35</title>
<ellipse fill="none" stroke="black" cx="3702.81" cy="-206.35" rx="143.59" ry="26.74"/>
<text text-anchor="middle" x="3702.81" y="-210.15" font-family="Times,serif" font-size="14.00">eapply rotation.</text>
<text text-anchor="middle" x="3702.81" y="-195.15" font-family="Times,serif" font-size="14.00">(0.004445418974751276)</text>
</g>
<!-- 33&#45;&gt;35 -->
<g id="edge36" class="edge">
<title>33&#45;&gt;35</title>
<path fill="none" stroke="black" d="M3609.35,-269.95C3624.15,-260.04 3641.3,-248.55 3656.83,-238.15"/>
<polygon fill="black" stroke="black" points="3658.91,-240.97 3665.27,-232.5 3655.01,-235.15 3658.91,-240.97"/>
</g>
<!-- 39 -->
<g id="node38" class="node">
<title>39</title>
<ellipse fill="none" stroke="black" cx="4579.81" cy="-206.35" rx="143.59" ry="26.74"/>
<text text-anchor="middle" x="4579.81" y="-210.15" font-family="Times,serif" font-size="14.00">eapply R_permute.</text>
<text text-anchor="middle" x="4579.81" y="-195.15" font-family="Times,serif" font-size="14.00">(0.004004425219028056)</text>
</g>
<!-- 33&#45;&gt;39 -->
<g id="edge37" class="edge">
<title>33&#45;&gt;39</title>
<path fill="none" stroke="black" d="M3704.63,-283.53C3895.9,-266.88 4247.21,-236.3 4441.5,-219.39"/>
<polygon fill="black" stroke="black" points="4441.83,-222.87 4451.49,-218.52 4441.22,-215.9 4441.83,-222.87"/>
</g>
<!-- 20 -->
<g id="node27" class="node">
<title>20</title>
<ellipse fill="orange" stroke="black" cx="1318.81" cy="-116.61" rx="130.63" ry="26.74"/>
<text text-anchor="middle" x="1318.81" y="-120.41" font-family="Times,serif" font-size="14.00">eauto.</text>
<text text-anchor="middle" x="1318.81" y="-105.41" font-family="Times,serif" font-size="14.00">(0.5479003122429743)</text>
</g>
<!-- 19&#45;&gt;20 -->
<g id="edge26" class="edge">
<title>19&#45;&gt;20</title>
<path fill="none" stroke="black" d="M1808.87,-187.41C1791.84,-184.62 1774.35,-181.87 1757.81,-179.48 1624.9,-160.28 1590.56,-163.78 1457.81,-143.48 1446.06,-141.68 1433.78,-139.64 1421.59,-137.51"/>
<polygon fill="black" stroke="black" points="1421.84,-134 1411.39,-135.7 1420.62,-140.89 1421.84,-134"/>
</g>
<!-- 21 -->
<g id="node28" class="node">
<title>21</title>
<ellipse fill="orange" stroke="black" cx="1610.81" cy="-116.61" rx="143.59" ry="26.74"/>
<text text-anchor="middle" x="1610.81" y="-120.41" font-family="Times,serif" font-size="14.00">eapply rotation.</text>
<text text-anchor="middle" x="1610.81" y="-105.41" font-family="Times,serif" font-size="14.00">(0.004893021193033026)</text>
</g>
<!-- 19&#45;&gt;21 -->
<g id="edge27" class="edge">
<title>19&#45;&gt;21</title>
<path fill="none" stroke="black" d="M1835.5,-183.32C1792.98,-170.89 1739.71,-155.31 1695.72,-142.44"/>
<polygon fill="black" stroke="black" points="1696.48,-139.02 1685.9,-139.57 1694.52,-145.74 1696.48,-139.02"/>
</g>
<!-- 22 -->
<g id="node29" class="node">
<title>22</title>
<ellipse fill="orange" stroke="black" cx="1921.81" cy="-116.61" rx="149.81" ry="26.74"/>
<text text-anchor="middle" x="1921.81" y="-120.41" font-family="Times,serif" font-size="14.00">apply rotation.</text>
<text text-anchor="middle" x="1921.81" y="-105.41" font-family="Times,serif" font-size="14.00">(0.0031204553437516607)</text>
</g>
<!-- 19&#45;&gt;22 -->
<g id="edge28" class="edge">
<title>19&#45;&gt;22</title>
<path fill="none" stroke="black" d="M1914.12,-179.03C1915.11,-171.06 1916.23,-162.17 1917.29,-153.68"/>
<polygon fill="black" stroke="black" points="1920.78,-153.97 1918.55,-143.61 1913.84,-153.1 1920.78,-153.97"/>
</g>
<!-- 24 -->
<g id="node30" class="node">
<title>24</title>
<ellipse fill="orange" stroke="black" cx="2220.81" cy="-116.61" rx="130.63" ry="26.74"/>
<text text-anchor="middle" x="2220.81" y="-120.41" font-family="Times,serif" font-size="14.00">eauto.</text>
<text text-anchor="middle" x="2220.81" y="-105.41" font-family="Times,serif" font-size="14.00">(0.1705053491709636)</text>
</g>
<!-- 23&#45;&gt;24 -->
<g id="edge29" class="edge">
<title>23&#45;&gt;24</title>
<path fill="none" stroke="black" d="M2217.31,-179.03C2217.77,-171.06 2218.28,-162.17 2218.76,-153.68"/>
<polygon fill="black" stroke="black" points="2222.26,-153.8 2219.33,-143.61 2215.27,-153.4 2222.26,-153.8"/>
</g>
<!-- 25 -->
<g id="node31" class="node">
<title>25</title>
<ellipse fill="orange" stroke="black" cx="2512.81" cy="-116.61" rx="143.59" ry="26.74"/>
<text text-anchor="middle" x="2512.81" y="-120.41" font-family="Times,serif" font-size="14.00">apply rotation.</text>
<text text-anchor="middle" x="2512.81" y="-105.41" font-family="Times,serif" font-size="14.00">(0.006023445550412226)</text>
</g>
<!-- 23&#45;&gt;25 -->
<g id="edge30" class="edge">
<title>23&#45;&gt;25</title>
<path fill="none" stroke="black" d="M2290.38,-183.32C2332.39,-170.91 2385.01,-155.37 2428.51,-142.51"/>
<polygon fill="black" stroke="black" points="2429.62,-145.84 2438.22,-139.65 2427.64,-139.12 2429.62,-145.84"/>
</g>
<!-- 30 -->
<g id="node34" class="node">
<title>30</title>
<ellipse fill="orange" stroke="black" cx="2826.81" cy="-116.61" rx="130.63" ry="26.74"/>
<text text-anchor="middle" x="2826.81" y="-120.41" font-family="Times,serif" font-size="14.00">eauto.</text>
<text text-anchor="middle" x="2826.81" y="-105.41" font-family="Times,serif" font-size="14.00">(0.1705053491709636)</text>
</g>
<!-- 29&#45;&gt;30 -->
<g id="edge33" class="edge">
<title>29&#45;&gt;30</title>
<path fill="none" stroke="black" d="M3045.13,-183.21C3003.35,-170.66 2951,-154.92 2908.03,-142.02"/>
<polygon fill="black" stroke="black" points="2909.04,-138.66 2898.46,-139.14 2907.03,-145.37 2909.04,-138.66"/>
</g>
<!-- 31 -->
<g id="node35" class="node">
<title>31</title>
<ellipse fill="orange" stroke="black" cx="3118.81" cy="-116.61" rx="143.59" ry="26.74"/>
<text text-anchor="middle" x="3118.81" y="-120.41" font-family="Times,serif" font-size="14.00">apply rotation.</text>
<text text-anchor="middle" x="3118.81" y="-105.41" font-family="Times,serif" font-size="14.00">(0.006023445550412226)</text>
</g>
<!-- 29&#45;&gt;31 -->
<g id="edge34" class="edge">
<title>29&#45;&gt;31</title>
<path fill="none" stroke="black" d="M3118.81,-179.03C3118.81,-171.06 3118.81,-162.17 3118.81,-153.68"/>
<polygon fill="black" stroke="black" points="3122.31,-153.61 3118.81,-143.61 3115.31,-153.61 3122.31,-153.61"/>
</g>
<!-- 36 -->
<g id="node39" class="node">
<title>36</title>
<ellipse fill="orange" stroke="black" cx="3410.81" cy="-116.61" rx="130.63" ry="26.74"/>
<text text-anchor="middle" x="3410.81" y="-120.41" font-family="Times,serif" font-size="14.00">eauto.</text>
<text text-anchor="middle" x="3410.81" y="-105.41" font-family="Times,serif" font-size="14.00">(0.5290735961162656)</text>
</g>
<!-- 35&#45;&gt;36 -->
<g id="edge38" class="edge">
<title>35&#45;&gt;36</title>
<path fill="none" stroke="black" d="M3629.13,-183.21C3587.35,-170.66 3535,-154.92 3492.03,-142.02"/>
<polygon fill="black" stroke="black" points="3493.04,-138.66 3482.46,-139.14 3491.03,-145.37 3493.04,-138.66"/>
</g>
<!-- 37 -->
<g id="node40" class="node">
<title>37</title>
<ellipse fill="orange" stroke="black" cx="3702.81" cy="-116.61" rx="143.59" ry="26.74"/>
<text text-anchor="middle" x="3702.81" y="-120.41" font-family="Times,serif" font-size="14.00">eapply rotation.</text>
<text text-anchor="middle" x="3702.81" y="-105.41" font-family="Times,serif" font-size="14.00">(0.004724890700256165)</text>
</g>
<!-- 35&#45;&gt;37 -->
<g id="edge39" class="edge">
<title>35&#45;&gt;37</title>
<path fill="none" stroke="black" d="M3702.81,-179.03C3702.81,-171.06 3702.81,-162.17 3702.81,-153.68"/>
<polygon fill="black" stroke="black" points="3706.31,-153.61 3702.81,-143.61 3699.31,-153.61 3706.31,-153.61"/>
</g>
<!-- 38 -->
<g id="node41" class="node">
<title>38</title>
<ellipse fill="orange" stroke="black" cx="4007.81" cy="-116.61" rx="143.59" ry="26.74"/>
<text text-anchor="middle" x="4007.81" y="-120.41" font-family="Times,serif" font-size="14.00">apply rotation.</text>
<text text-anchor="middle" x="4007.81" y="-105.41" font-family="Times,serif" font-size="14.00">(0.003013231053414399)</text>
</g>
<!-- 35&#45;&gt;38 -->
<g id="edge40" class="edge">
<title>35&#45;&gt;38</title>
<path fill="none" stroke="black" d="M3778.99,-183.44C3822.47,-170.93 3877.1,-155.21 3922.08,-142.27"/>
<polygon fill="black" stroke="black" points="3923.17,-145.6 3931.82,-139.47 3921.24,-138.87 3923.17,-145.6"/>
</g>
<!-- 40 -->
<g id="node42" class="node">
<title>40</title>
<ellipse fill="orange" stroke="black" cx="4299.81" cy="-116.61" rx="130.63" ry="26.74"/>
<text text-anchor="middle" x="4299.81" y="-120.41" font-family="Times,serif" font-size="14.00">eauto.</text>
<text text-anchor="middle" x="4299.81" y="-105.41" font-family="Times,serif" font-size="14.00">(0.6319365879536089)</text>
</g>
<!-- 39&#45;&gt;40 -->
<g id="edge41" class="edge">
<title>39&#45;&gt;40</title>
<path fill="none" stroke="black" d="M4508.43,-182.98C4468.98,-170.62 4419.88,-155.23 4379.22,-142.49"/>
<polygon fill="black" stroke="black" points="4380.2,-139.13 4369.61,-139.48 4378.11,-145.81 4380.2,-139.13"/>
</g>
<!-- 41 -->
<g id="node43" class="node">
<title>41</title>
<ellipse fill="none" stroke="black" cx="4579.81" cy="-116.61" rx="130.63" ry="26.74"/>
<text text-anchor="middle" x="4579.81" y="-120.41" font-family="Times,serif" font-size="14.00">eapply rotation.</text>
<text text-anchor="middle" x="4579.81" y="-105.41" font-family="Times,serif" font-size="14.00">(0.0056435079401758)</text>
</g>
<!-- 39&#45;&gt;41 -->
<g id="edge42" class="edge">
<title>39&#45;&gt;41</title>
<path fill="none" stroke="black" d="M4579.81,-179.03C4579.81,-171.06 4579.81,-162.17 4579.81,-153.68"/>
<polygon fill="black" stroke="black" points="4583.31,-153.61 4579.81,-143.61 4576.31,-153.61 4583.31,-153.61"/>
</g>
<!-- 47 -->
<g id="node44" class="node">
<title>47</title>
<ellipse fill="orange" stroke="black" cx="4871.81" cy="-116.61" rx="143.59" ry="26.74"/>
<text text-anchor="middle" x="4871.81" y="-120.41" font-family="Times,serif" font-size="14.00">eapply R_permute.</text>
<text text-anchor="middle" x="4871.81" y="-105.41" font-family="Times,serif" font-size="14.00">(0.005083661550864164)</text>
</g>
<!-- 39&#45;&gt;47 -->
<g id="edge43" class="edge">
<title>39&#45;&gt;47</title>
<path fill="none" stroke="black" d="M4653.5,-183.21C4694.56,-170.87 4745.84,-155.46 4788.38,-142.68"/>
<polygon fill="black" stroke="black" points="4789.58,-145.97 4798.15,-139.74 4787.57,-139.27 4789.58,-145.97"/>
</g>
<!-- 48 -->
<g id="node45" class="node">
<title>48</title>
<ellipse fill="none" stroke="black" cx="5342.81" cy="-116.61" rx="149.81" ry="26.74"/>
<text text-anchor="middle" x="5342.81" y="-120.41" font-family="Times,serif" font-size="14.00">apply rotation.</text>
<text text-anchor="middle" x="5342.81" y="-105.41" font-family="Times,serif" font-size="14.00">(0.0035990659793688974)</text>
</g>
<!-- 39&#45;&gt;48 -->
<g id="edge44" class="edge">
<title>39&#45;&gt;48</title>
<path fill="none" stroke="black" d="M4681.31,-187.22C4698.47,-184.43 4716.13,-181.73 4732.81,-179.48 4891.59,-158.03 5074.54,-140.41 5198.34,-129.54"/>
<polygon fill="black" stroke="black" points="5198.98,-133 5208.64,-128.64 5198.37,-126.02 5198.98,-133"/>
</g>
<!-- 52 -->
<g id="node46" class="node">
<title>52</title>
<ellipse fill="none" stroke="black" cx="6231.81" cy="-116.61" rx="149.81" ry="26.74"/>
<text text-anchor="middle" x="6231.81" y="-120.41" font-family="Times,serif" font-size="14.00">eapply regulier_cons.</text>
<text text-anchor="middle" x="6231.81" y="-105.41" font-family="Times,serif" font-size="14.00">(0.0034941510102487966)</text>
</g>
<!-- 39&#45;&gt;52 -->
<g id="edge45" class="edge">
<title>39&#45;&gt;52</title>
<path fill="none" stroke="black" d="M4678.74,-186.75C4696.68,-183.91 4715.27,-181.32 4732.81,-179.48 4863.39,-165.8 5718.12,-135.29 6075.33,-122.95"/>
<polygon fill="black" stroke="black" points="6075.62,-126.44 6085.49,-122.6 6075.38,-119.44 6075.62,-126.44"/>
</g>
<!-- 42 -->
<g id="node47" class="node">
<title>42</title>
<ellipse fill="orange" stroke="black" cx="3671.81" cy="-26.87" rx="130.63" ry="26.74"/>
<text text-anchor="middle" x="3671.81" y="-30.67" font-family="Times,serif" font-size="14.00">eauto.</text>
<text text-anchor="middle" x="3671.81" y="-15.67" font-family="Times,serif" font-size="14.00">(0.5953087923750627)</text>
</g>
<!-- 41&#45;&gt;42 -->
<g id="edge46" class="edge">
<title>41&#45;&gt;42</title>
<path fill="none" stroke="black" d="M4489.32,-97.17C4472.9,-94.32 4455.89,-91.68 4439.81,-89.74 4161.81,-56.23 4088.79,-87.43 3810.81,-53.74 3798.19,-52.21 3784.99,-50.24 3771.95,-48.07"/>
<polygon fill="black" stroke="black" points="3772.48,-44.61 3762.03,-46.38 3771.3,-51.51 3772.48,-44.61"/>
</g>
<!-- 43 -->
<g id="node48" class="node">
<title>43</title>
<ellipse fill="none" stroke="black" cx="3963.81" cy="-26.87" rx="143.59" ry="26.74"/>
<text text-anchor="middle" x="3963.81" y="-30.67" font-family="Times,serif" font-size="14.00">eapply R_permute.</text>
<text text-anchor="middle" x="3963.81" y="-15.67" font-family="Times,serif" font-size="14.00">(0.005628681015231502)</text>
</g>
<!-- 41&#45;&gt;43 -->
<g id="edge47" class="edge">
<title>41&#45;&gt;43</title>
<path fill="none" stroke="black" d="M4487.34,-97.55C4471.52,-94.74 4455.22,-92.02 4439.81,-89.74 4296.48,-68.56 4259.29,-73.9 4115.81,-53.74 4102.59,-51.88 4088.75,-49.76 4075.03,-47.56"/>
<polygon fill="black" stroke="black" points="4075.5,-44.09 4065.07,-45.94 4074.38,-51 4075.5,-44.09"/>
</g>
<!-- 44 -->
<g id="node49" class="node">
<title>44</title>
<ellipse fill="orange" stroke="black" cx="4268.81" cy="-26.87" rx="143.59" ry="26.74"/>
<text text-anchor="middle" x="4268.81" y="-30.67" font-family="Times,serif" font-size="14.00">eapply rotation.</text>
<text text-anchor="middle" x="4268.81" y="-15.67" font-family="Times,serif" font-size="14.00">(0.004514515611233867)</text>
</g>
<!-- 41&#45;&gt;44 -->
<g id="edge48" class="edge">
<title>41&#45;&gt;44</title>
<path fill="none" stroke="black" d="M4504.93,-94.48C4459.96,-81.8 4402.55,-65.6 4355.61,-52.36"/>
<polygon fill="black" stroke="black" points="4356.33,-48.92 4345.76,-49.58 4354.43,-55.66 4356.33,-48.92"/>
</g>
<!-- 45 -->
<g id="node50" class="node">
<title>45</title>
<ellipse fill="none" stroke="black" cx="4579.81" cy="-26.87" rx="149.81" ry="26.74"/>
<text text-anchor="middle" x="4579.81" y="-30.67" font-family="Times,serif" font-size="14.00">eapply regulier_cons.</text>
<text text-anchor="middle" x="4579.81" y="-15.67" font-family="Times,serif" font-size="14.00">(0.0044884082389872685)</text>
</g>
<!-- 41&#45;&gt;45 -->
<g id="edge49" class="edge">
<title>41&#45;&gt;45</title>
<path fill="none" stroke="black" d="M4579.81,-89.29C4579.81,-81.32 4579.81,-72.43 4579.81,-63.94"/>
<polygon fill="black" stroke="black" points="4583.31,-63.87 4579.81,-53.87 4576.31,-63.87 4583.31,-63.87"/>
</g>
<!-- 46 -->
<g id="node51" class="node">
<title>46</title>
<ellipse fill="none" stroke="black" cx="4897.81" cy="-26.87" rx="149.81" ry="26.74"/>
<text text-anchor="middle" x="4897.81" y="-30.67" font-family="Times,serif" font-size="14.00">apply R_permute.</text>
<text text-anchor="middle" x="4897.81" y="-15.67" font-family="Times,serif" font-size="14.00">(0.0038700191970976448)</text>
</g>
<!-- 41&#45;&gt;46 -->
<g id="edge50" class="edge">
<title>41&#45;&gt;46</title>
<path fill="none" stroke="black" d="M4655.98,-94.59C4701.97,-81.91 4760.78,-65.68 4808.88,-52.41"/>
<polygon fill="black" stroke="black" points="4809.96,-55.74 4818.67,-49.71 4808.1,-48.99 4809.96,-55.74"/>
</g>
<!-- 49 -->
<g id="node52" class="node">
<title>49</title>
<ellipse fill="orange" stroke="black" cx="5196.81" cy="-26.87" rx="130.63" ry="26.74"/>
<text text-anchor="middle" x="5196.81" y="-30.67" font-family="Times,serif" font-size="14.00">eauto.</text>
<text text-anchor="middle" x="5196.81" y="-15.67" font-family="Times,serif" font-size="14.00">(0.2018325266705535)</text>
</g>
<!-- 48&#45;&gt;49 -->
<g id="edge51" class="edge">
<title>48&#45;&gt;49</title>
<path fill="none" stroke="black" d="M5301.37,-90.7C5284.27,-80.43 5264.31,-68.43 5246.44,-57.69"/>
<polygon fill="black" stroke="black" points="5248.23,-54.69 5237.86,-52.54 5244.63,-60.69 5248.23,-54.69"/>
</g>
<!-- 50 -->
<g id="node53" class="node">
<title>50</title>
<ellipse fill="none" stroke="black" cx="5488.81" cy="-26.87" rx="143.59" ry="26.74"/>
<text text-anchor="middle" x="5488.81" y="-30.67" font-family="Times,serif" font-size="14.00">apply R_permute.</text>
<text text-anchor="middle" x="5488.81" y="-15.67" font-family="Times,serif" font-size="14.00">(0.008138653554199203)</text>
</g>
<!-- 48&#45;&gt;50 -->
<g id="edge52" class="edge">
<title>48&#45;&gt;50</title>
<path fill="none" stroke="black" d="M5384.26,-90.7C5401.13,-80.56 5420.79,-68.75 5438.47,-58.12"/>
<polygon fill="black" stroke="black" points="5440.75,-60.84 5447.52,-52.69 5437.14,-54.84 5440.75,-60.84"/>
</g>
<!-- 51 -->
<g id="node54" class="node">
<title>51</title>
<ellipse fill="orange" stroke="black" cx="5793.81" cy="-26.87" rx="143.59" ry="26.74"/>
<text text-anchor="middle" x="5793.81" y="-30.67" font-family="Times,serif" font-size="14.00">apply rotation.</text>
<text text-anchor="middle" x="5793.81" y="-15.67" font-family="Times,serif" font-size="14.00">(0.005026565450755789)</text>
</g>
<!-- 48&#45;&gt;51 -->
<g id="edge53" class="edge">
<title>48&#45;&gt;51</title>
<path fill="none" stroke="black" d="M5441.79,-96.36C5514.25,-82.26 5612.48,-63.15 5686.77,-48.7"/>
<polygon fill="black" stroke="black" points="5687.47,-52.12 5696.62,-46.78 5686.14,-45.25 5687.47,-52.12"/>
</g>
<!-- 53 -->
<g id="node55" class="node">
<title>53</title>
<ellipse fill="orange" stroke="black" cx="6085.81" cy="-26.87" rx="130.63" ry="26.74"/>
<text text-anchor="middle" x="6085.81" y="-30.67" font-family="Times,serif" font-size="14.00">eauto.</text>
<text text-anchor="middle" x="6085.81" y="-15.67" font-family="Times,serif" font-size="14.00">(0.5430052482073019)</text>
</g>
<!-- 52&#45;&gt;53 -->
<g id="edge54" class="edge">
<title>52&#45;&gt;53</title>
<path fill="none" stroke="black" d="M6190.37,-90.7C6173.27,-80.43 6153.31,-68.43 6135.44,-57.69"/>
<polygon fill="black" stroke="black" points="6137.23,-54.69 6126.86,-52.54 6133.63,-60.69 6137.23,-54.69"/>
</g>
<!-- 54 -->
<g id="node56" class="node">
<title>54</title>
<ellipse fill="none" stroke="black" cx="6377.81" cy="-26.87" rx="143.59" ry="26.74"/>
<text text-anchor="middle" x="6377.81" y="-30.67" font-family="Times,serif" font-size="14.00">eapply rotation.</text>
<text text-anchor="middle" x="6377.81" y="-15.67" font-family="Times,serif" font-size="14.00">(0.004534571423912571)</text>
</g>
<!-- 52&#45;&gt;54 -->
<g id="edge55" class="edge">
<title>52&#45;&gt;54</title>
<path fill="none" stroke="black" d="M6273.26,-90.7C6290.13,-80.56 6309.79,-68.75 6327.47,-58.12"/>
<polygon fill="black" stroke="black" points="6329.75,-60.84 6336.52,-52.69 6326.14,-54.84 6329.75,-60.84"/>
</g>
<!-- 55 -->
<g id="node57" class="node">
<title>55</title>
<ellipse fill="none" stroke="black" cx="6676.81" cy="-26.87" rx="137.36" ry="26.74"/>
<text text-anchor="middle" x="6676.81" y="-30.67" font-family="Times,serif" font-size="14.00">eapply R_permute.</text>
<text text-anchor="middle" x="6676.81" y="-15.67" font-family="Times,serif" font-size="14.00">(0.00400636187835425)</text>
</g>
<!-- 52&#45;&gt;55 -->
<g id="edge56" class="edge">
<title>52&#45;&gt;55</title>
<path fill="none" stroke="black" d="M6330.02,-96.25C6401.89,-82.08 6499.24,-62.88 6572.5,-48.44"/>
<polygon fill="black" stroke="black" points="6573.54,-51.8 6582.67,-46.43 6572.18,-44.93 6573.54,-51.8"/>
</g>
<!-- 59 -->
<g id="node60" class="node">
<title>59</title>
<ellipse fill="orange" stroke="black" cx="4878.81" cy="-206.35" rx="137.36" ry="26.74"/>
<text text-anchor="middle" x="4878.81" y="-210.15" font-family="Times,serif" font-size="14.00">eauto.</text>
<text text-anchor="middle" x="4878.81" y="-195.15" font-family="Times,serif" font-size="14.00">(0.17020785604249788)</text>
</g>
<!-- 58&#45;&gt;59 -->
<g id="edge59" class="edge">
<title>58&#45;&gt;59</title>
<path fill="none" stroke="black" d="M4878.81,-268.77C4878.81,-260.8 4878.81,-251.91 4878.81,-243.42"/>
<polygon fill="black" stroke="black" points="4882.31,-243.35 4878.81,-233.35 4875.31,-243.35 4882.31,-243.35"/>
</g>
<!-- 60 -->
<g id="node61" class="node">
<title>60</title>
<ellipse fill="orange" stroke="black" cx="5177.81" cy="-206.35" rx="143.59" ry="26.74"/>
<text text-anchor="middle" x="5177.81" y="-210.15" font-family="Times,serif" font-size="14.00">apply rotation.</text>
<text text-anchor="middle" x="5177.81" y="-195.15" font-family="Times,serif" font-size="14.00">(0.006012936722086453)</text>
</g>
<!-- 58&#45;&gt;60 -->
<g id="edge60" class="edge">
<title>58&#45;&gt;60</title>
<path fill="none" stroke="black" d="M4952.72,-273.4C4995.25,-260.92 5048.85,-245.19 5093.07,-232.22"/>
<polygon fill="black" stroke="black" points="5094.33,-235.5 5102.94,-229.32 5092.36,-228.78 5094.33,-235.5"/>
</g>
</g>
</svg>
