<?xml version="1.0" encoding="UTF-8" standalone="no"?>
<!DOCTYPE svg PUBLIC "-//W3C//DTD SVG 1.1//EN"
 "http://www.w3.org/Graphics/SVG/1.1/DTD/svg11.dtd">
<!-- Generated by graphviz version 2.43.0 (0)
 -->
<!-- Pages: 1 -->
<svg width="3203pt" height="510pt"
 viewBox="0.00 0.00 3203.36 510.44" xmlns="http://www.w3.org/2000/svg" xmlns:xlink="http://www.w3.org/1999/xlink">
<g id="graph0" class="graph" transform="scale(1 1) rotate(0) translate(4 506.44)">
<polygon fill="white" stroke="transparent" points="-4,4 -4,-506.44 3199.36,-506.44 3199.36,4 -4,4"/>
<!-- 0 -->
<g id="node1" class="node">
<title>0</title>
<ellipse fill="none" stroke="black" cx="2106.81" cy="-475.57" rx="134.2" ry="26.74"/>
<text text-anchor="middle" x="2106.81" y="-479.37" font-family="Times,serif" font-size="14.00">construction_orthogonal</text>
<text text-anchor="middle" x="2106.81" y="-464.37" font-family="Times,serif" font-size="14.00">(1.0)</text>
</g>
<!-- 1 -->
<g id="node2" class="node">
<title>1</title>
<ellipse fill="none" stroke="black" cx="1807.81" cy="-385.83" rx="130.63" ry="26.74"/>
<text text-anchor="middle" x="1807.81" y="-389.63" font-family="Times,serif" font-size="14.00">intros.</text>
<text text-anchor="middle" x="1807.81" y="-374.63" font-family="Times,serif" font-size="14.00">(0.9899667510121655)</text>
</g>
<!-- 0&#45;&gt;1 -->
<g id="edge1" class="edge">
<title>0&#45;&gt;1</title>
<path fill="none" stroke="black" d="M2033.29,-452.99C1989.95,-440.28 1935.02,-424.16 1890.23,-411.01"/>
<polygon fill="black" stroke="black" points="1891.12,-407.63 1880.54,-408.17 1889.15,-414.35 1891.12,-407.63"/>
</g>
<!-- 27 -->
<g id="node3" class="node">
<title>27</title>
<ellipse fill="orange" stroke="black" cx="2106.81" cy="-385.83" rx="149.81" ry="26.74"/>
<text text-anchor="middle" x="2106.81" y="-389.63" font-family="Times,serif" font-size="14.00">simpl.</text>
<text text-anchor="middle" x="2106.81" y="-374.63" font-family="Times,serif" font-size="14.00">(0.0001749865124665978)</text>
</g>
<!-- 0&#45;&gt;27 -->
<g id="edge2" class="edge">
<title>0&#45;&gt;27</title>
<path fill="none" stroke="black" d="M2106.81,-448.25C2106.81,-440.28 2106.81,-431.39 2106.81,-422.9"/>
<polygon fill="black" stroke="black" points="2110.31,-422.83 2106.81,-412.83 2103.31,-422.83 2110.31,-422.83"/>
</g>
<!-- 28 -->
<g id="node4" class="node">
<title>28</title>
<ellipse fill="orange" stroke="black" cx="2430.81" cy="-385.83" rx="156.04" ry="26.74"/>
<text text-anchor="middle" x="2430.81" y="-389.63" font-family="Times,serif" font-size="14.00">eauto.</text>
<text text-anchor="middle" x="2430.81" y="-374.63" font-family="Times,serif" font-size="14.00">(0.00010838913802543152)</text>
</g>
<!-- 0&#45;&gt;28 -->
<g id="edge3" class="edge">
<title>0&#45;&gt;28</title>
<path fill="none" stroke="black" d="M2184.42,-453.55C2231.1,-440.91 2290.74,-424.76 2339.66,-411.52"/>
<polygon fill="black" stroke="black" points="2340.87,-414.81 2349.61,-408.82 2339.04,-408.06 2340.87,-414.81"/>
</g>
<!-- 2 -->
<g id="node5" class="node">
<title>2</title>
<ellipse fill="none" stroke="black" cx="588.81" cy="-296.09" rx="143.59" ry="26.74"/>
<text text-anchor="middle" x="588.81" y="-299.89" font-family="Times,serif" font-size="14.00">exists u.</text>
<text text-anchor="middle" x="588.81" y="-284.89" font-family="Times,serif" font-size="14.00">(0.058951503717669614)</text>
</g>
<!-- 1&#45;&gt;2 -->
<g id="edge4" class="edge">
<title>1&#45;&gt;2</title>
<path fill="none" stroke="black" d="M1685.91,-376.06C1458.98,-359.72 972.91,-324.74 731.26,-307.34"/>
<polygon fill="black" stroke="black" points="731.23,-303.83 721,-306.6 730.72,-310.81 731.23,-303.83"/>
</g>
<!-- 9 -->
<g id="node6" class="node">
<title>9</title>
<ellipse fill="none" stroke="black" cx="1499.81" cy="-296.09" rx="137.36" ry="26.74"/>
<text text-anchor="middle" x="1499.81" y="-299.89" font-family="Times,serif" font-size="14.00">exists u.</text>
<text text-anchor="middle" x="1499.81" y="-284.89" font-family="Times,serif" font-size="14.00">(0.05829999270375158)</text>
</g>
<!-- 1&#45;&gt;9 -->
<g id="edge5" class="edge">
<title>1&#45;&gt;9</title>
<path fill="none" stroke="black" d="M1733.26,-363.59C1688.55,-350.85 1631.53,-334.61 1585.04,-321.37"/>
<polygon fill="black" stroke="black" points="1585.87,-317.96 1575.29,-318.59 1583.95,-324.7 1585.87,-317.96"/>
</g>
<!-- 16 -->
<g id="node7" class="node">
<title>16</title>
<ellipse fill="none" stroke="black" cx="2111.81" cy="-296.09" rx="143.59" ry="26.74"/>
<text text-anchor="middle" x="2111.81" y="-299.89" font-family="Times,serif" font-size="14.00">econstructor.</text>
<text text-anchor="middle" x="2111.81" y="-284.89" font-family="Times,serif" font-size="14.00">(0.012998996587891226)</text>
</g>
<!-- 1&#45;&gt;16 -->
<g id="edge6" class="edge">
<title>1&#45;&gt;16</title>
<path fill="none" stroke="black" d="M1881.4,-363.59C1925.03,-351 1980.53,-334.98 2026.13,-321.82"/>
<polygon fill="black" stroke="black" points="2027.36,-325.11 2035.99,-318.97 2025.42,-318.38 2027.36,-325.11"/>
</g>
<!-- 26 -->
<g id="node8" class="node">
<title>26</title>
<ellipse fill="orange" stroke="black" cx="2416.81" cy="-296.09" rx="143.59" ry="26.74"/>
<text text-anchor="middle" x="2416.81" y="-299.89" font-family="Times,serif" font-size="14.00">subst.</text>
<text text-anchor="middle" x="2416.81" y="-284.89" font-family="Times,serif" font-size="14.00">(0.008501616390029826)</text>
</g>
<!-- 1&#45;&gt;26 -->
<g id="edge7" class="edge">
<title>1&#45;&gt;26</title>
<path fill="none" stroke="black" d="M1900.29,-366.8C1916.11,-363.99 1932.41,-361.26 1947.81,-358.96 2088.06,-338.07 2124.42,-342.86 2264.81,-322.96 2277.93,-321.1 2291.66,-318.99 2305.26,-316.8"/>
<polygon fill="black" stroke="black" points="2305.83,-320.26 2315.14,-315.2 2304.71,-313.35 2305.83,-320.26"/>
</g>
<!-- 3 -->
<g id="node9" class="node">
<title>3</title>
<ellipse fill="orange" stroke="black" cx="130.81" cy="-206.35" rx="130.63" ry="26.74"/>
<text text-anchor="middle" x="130.81" y="-210.15" font-family="Times,serif" font-size="14.00">eauto.</text>
<text text-anchor="middle" x="130.81" y="-195.15" font-family="Times,serif" font-size="14.00">(0.9114967962582757)</text>
</g>
<!-- 2&#45;&gt;3 -->
<g id="edge8" class="edge">
<title>2&#45;&gt;3</title>
<path fill="none" stroke="black" d="M491.12,-276.38C415.57,-261.9 311.22,-241.91 234.25,-227.17"/>
<polygon fill="black" stroke="black" points="234.53,-223.66 224.05,-225.21 233.22,-230.53 234.53,-223.66"/>
</g>
<!-- 4 -->
<g id="node10" class="node">
<title>4</title>
<ellipse fill="orange" stroke="black" cx="429.81" cy="-206.35" rx="149.81" ry="26.74"/>
<text text-anchor="middle" x="429.81" y="-210.15" font-family="Times,serif" font-size="14.00">simpl.</text>
<text text-anchor="middle" x="429.81" y="-195.15" font-family="Times,serif" font-size="14.00">(0.0012476774920662627)</text>
</g>
<!-- 2&#45;&gt;4 -->
<g id="edge9" class="edge">
<title>2&#45;&gt;4</title>
<path fill="none" stroke="black" d="M544.1,-270.42C525.3,-260.04 503.27,-247.89 483.6,-237.03"/>
<polygon fill="black" stroke="black" points="485.19,-233.91 474.74,-232.14 481.81,-240.04 485.19,-233.91"/>
</g>
<!-- 5 -->
<g id="node11" class="node">
<title>5</title>
<ellipse fill="none" stroke="black" cx="747.81" cy="-206.35" rx="149.81" ry="26.74"/>
<text text-anchor="middle" x="747.81" y="-210.15" font-family="Times,serif" font-size="14.00">unfold orthogonal.</text>
<text text-anchor="middle" x="747.81" y="-195.15" font-family="Times,serif" font-size="14.00">(0.0005993528360775792)</text>
</g>
<!-- 2&#45;&gt;5 -->
<g id="edge10" class="edge">
<title>2&#45;&gt;5</title>
<path fill="none" stroke="black" d="M633.53,-270.42C652.33,-260.04 674.36,-247.89 694.03,-237.03"/>
<polygon fill="black" stroke="black" points="695.82,-240.04 702.89,-232.14 692.44,-233.91 695.82,-240.04"/>
</g>
<!-- 10 -->
<g id="node15" class="node">
<title>10</title>
<ellipse fill="orange" stroke="black" cx="1046.81" cy="-206.35" rx="130.63" ry="26.74"/>
<text text-anchor="middle" x="1046.81" y="-210.15" font-family="Times,serif" font-size="14.00">eauto.</text>
<text text-anchor="middle" x="1046.81" y="-195.15" font-family="Times,serif" font-size="14.00">(0.9114967962582757)</text>
</g>
<!-- 9&#45;&gt;10 -->
<g id="edge14" class="edge">
<title>9&#45;&gt;10</title>
<path fill="none" stroke="black" d="M1404.85,-276.7C1330.24,-262.25 1226.48,-242.15 1149.87,-227.31"/>
<polygon fill="black" stroke="black" points="1150.2,-223.81 1139.72,-225.34 1148.87,-230.68 1150.2,-223.81"/>
</g>
<!-- 11 -->
<g id="node16" class="node">
<title>11</title>
<ellipse fill="orange" stroke="black" cx="1345.81" cy="-206.35" rx="149.81" ry="26.74"/>
<text text-anchor="middle" x="1345.81" y="-210.15" font-family="Times,serif" font-size="14.00">simpl.</text>
<text text-anchor="middle" x="1345.81" y="-195.15" font-family="Times,serif" font-size="14.00">(0.0012476774920662627)</text>
</g>
<!-- 9&#45;&gt;11 -->
<g id="edge15" class="edge">
<title>9&#45;&gt;11</title>
<path fill="none" stroke="black" d="M1456.51,-270.42C1438.38,-260.09 1417.15,-248 1398.16,-237.18"/>
<polygon fill="black" stroke="black" points="1399.75,-234.05 1389.33,-232.14 1396.29,-240.13 1399.75,-234.05"/>
</g>
<!-- 12 -->
<g id="node17" class="node">
<title>12</title>
<ellipse fill="none" stroke="black" cx="1663.81" cy="-206.35" rx="149.81" ry="26.74"/>
<text text-anchor="middle" x="1663.81" y="-210.15" font-family="Times,serif" font-size="14.00">unfold orthogonal.</text>
<text text-anchor="middle" x="1663.81" y="-195.15" font-family="Times,serif" font-size="14.00">(0.0005993528360775792)</text>
</g>
<!-- 9&#45;&gt;12 -->
<g id="edge16" class="edge">
<title>9&#45;&gt;12</title>
<path fill="none" stroke="black" d="M1545.5,-270.65C1565.15,-260.14 1588.28,-247.76 1608.86,-236.75"/>
<polygon fill="black" stroke="black" points="1610.64,-239.77 1617.81,-231.96 1607.34,-233.6 1610.64,-239.77"/>
</g>
<!-- 17 -->
<g id="node21" class="node">
<title>17</title>
<ellipse fill="orange" stroke="black" cx="1962.81" cy="-206.35" rx="130.63" ry="26.74"/>
<text text-anchor="middle" x="1962.81" y="-210.15" font-family="Times,serif" font-size="14.00">eauto.</text>
<text text-anchor="middle" x="1962.81" y="-195.15" font-family="Times,serif" font-size="14.00">(0.9938617959975765)</text>
</g>
<!-- 16&#45;&gt;17 -->
<g id="edge20" class="edge">
<title>16&#45;&gt;17</title>
<path fill="none" stroke="black" d="M2069.52,-270.18C2051.99,-259.86 2031.53,-247.81 2013.23,-237.04"/>
<polygon fill="black" stroke="black" points="2014.84,-233.92 2004.45,-231.87 2011.29,-239.96 2014.84,-233.92"/>
</g>
<!-- 18 -->
<g id="node22" class="node">
<title>18</title>
<ellipse fill="none" stroke="black" cx="2261.81" cy="-206.35" rx="149.81" ry="26.74"/>
<text text-anchor="middle" x="2261.81" y="-210.15" font-family="Times,serif" font-size="14.00">red.</text>
<text text-anchor="middle" x="2261.81" y="-195.15" font-family="Times,serif" font-size="14.00">(0.0013476722547513184)</text>
</g>
<!-- 16&#45;&gt;18 -->
<g id="edge21" class="edge">
<title>16&#45;&gt;18</title>
<path fill="none" stroke="black" d="M2154.4,-270.18C2171.89,-259.95 2192.29,-248.01 2210.59,-237.31"/>
<polygon fill="black" stroke="black" points="2212.52,-240.24 2219.39,-232.17 2208.99,-234.2 2212.52,-240.24"/>
</g>
<!-- 21 -->
<g id="node23" class="node">
<title>21</title>
<ellipse fill="orange" stroke="black" cx="2585.81" cy="-206.35" rx="156.04" ry="26.74"/>
<text text-anchor="middle" x="2585.81" y="-210.15" font-family="Times,serif" font-size="14.00">simpl.</text>
<text text-anchor="middle" x="2585.81" y="-195.15" font-family="Times,serif" font-size="14.00">(0.00015655262546778714)</text>
</g>
<!-- 16&#45;&gt;21 -->
<g id="edge22" class="edge">
<title>16&#45;&gt;21</title>
<path fill="none" stroke="black" d="M2211.18,-276.7C2287.33,-262.6 2392.49,-243.14 2472.01,-228.42"/>
<polygon fill="black" stroke="black" points="2472.87,-231.82 2482.07,-226.55 2471.6,-224.93 2472.87,-231.82"/>
</g>
<!-- 22 -->
<g id="node24" class="node">
<title>22</title>
<ellipse fill="none" stroke="black" cx="2905.81" cy="-206.35" rx="145.83" ry="26.74"/>
<text text-anchor="middle" x="2905.81" y="-210.15" font-family="Times,serif" font-size="14.00">unfold orthogonal.</text>
<text text-anchor="middle" x="2905.81" y="-195.15" font-family="Times,serif" font-size="14.00">(4.591087082024005e&#45;05)</text>
</g>
<!-- 16&#45;&gt;22 -->
<g id="edge23" class="edge">
<title>16&#45;&gt;22</title>
<path fill="none" stroke="black" d="M2211.78,-276.69C2229.09,-273.9 2246.94,-271.28 2263.81,-269.22 2479.26,-242.98 2535.33,-259.11 2750.81,-233.22 2764.9,-231.53 2779.66,-229.46 2794.24,-227.23"/>
<polygon fill="black" stroke="black" points="2794.94,-230.66 2804.29,-225.66 2793.87,-223.74 2794.94,-230.66"/>
</g>
<!-- 6 -->
<g id="node12" class="node">
<title>6</title>
<ellipse fill="orange" stroke="black" cx="598.81" cy="-116.61" rx="137.36" ry="26.74"/>
<text text-anchor="middle" x="598.81" y="-120.41" font-family="Times,serif" font-size="14.00">simpl.</text>
<text text-anchor="middle" x="598.81" y="-105.41" font-family="Times,serif" font-size="14.00">(0.09922046590838063)</text>
</g>
<!-- 5&#45;&gt;6 -->
<g id="edge11" class="edge">
<title>5&#45;&gt;6</title>
<path fill="none" stroke="black" d="M705.52,-180.44C688.07,-170.17 667.7,-158.17 649.46,-147.43"/>
<polygon fill="black" stroke="black" points="651.1,-144.34 640.7,-142.28 647.54,-150.37 651.1,-144.34"/>
</g>
<!-- 7 -->
<g id="node13" class="node">
<title>7</title>
<ellipse fill="none" stroke="black" cx="897.81" cy="-116.61" rx="143.59" ry="26.74"/>
<text text-anchor="middle" x="897.81" y="-120.41" font-family="Times,serif" font-size="14.00">unfold double.</text>
<text text-anchor="middle" x="897.81" y="-105.41" font-family="Times,serif" font-size="14.00">(0.027377078581276464)</text>
</g>
<!-- 5&#45;&gt;7 -->
<g id="edge12" class="edge">
<title>5&#45;&gt;7</title>
<path fill="none" stroke="black" d="M790.4,-180.44C807.89,-170.21 828.29,-158.27 846.59,-147.57"/>
<polygon fill="black" stroke="black" points="848.52,-150.5 855.39,-142.43 844.99,-144.46 848.52,-150.5"/>
</g>
<!-- 8 -->
<g id="node14" class="node">
<title>8</title>
<ellipse fill="orange" stroke="black" cx="897.81" cy="-26.87" rx="143.59" ry="26.74"/>
<text text-anchor="middle" x="897.81" y="-30.67" font-family="Times,serif" font-size="14.00">simpl.</text>
<text text-anchor="middle" x="897.81" y="-15.67" font-family="Times,serif" font-size="14.00">(0.049012527051361506)</text>
</g>
<!-- 7&#45;&gt;8 -->
<g id="edge13" class="edge">
<title>7&#45;&gt;8</title>
<path fill="none" stroke="black" d="M897.81,-89.29C897.81,-81.32 897.81,-72.43 897.81,-63.94"/>
<polygon fill="black" stroke="black" points="901.31,-63.87 897.81,-53.87 894.31,-63.87 901.31,-63.87"/>
</g>
<!-- 13 -->
<g id="node18" class="node">
<title>13</title>
<ellipse fill="orange" stroke="black" cx="1367.81" cy="-116.61" rx="137.36" ry="26.74"/>
<text text-anchor="middle" x="1367.81" y="-120.41" font-family="Times,serif" font-size="14.00">simpl.</text>
<text text-anchor="middle" x="1367.81" y="-105.41" font-family="Times,serif" font-size="14.00">(0.09922046590838063)</text>
</g>
<!-- 12&#45;&gt;13 -->
<g id="edge17" class="edge">
<title>12&#45;&gt;13</title>
<path fill="none" stroke="black" d="M1588.36,-182.98C1546.32,-170.52 1493.9,-154.98 1450.72,-142.19"/>
<polygon fill="black" stroke="black" points="1451.67,-138.82 1441.09,-139.33 1449.68,-145.53 1451.67,-138.82"/>
</g>
<!-- 14 -->
<g id="node19" class="node">
<title>14</title>
<ellipse fill="none" stroke="black" cx="1666.81" cy="-116.61" rx="143.59" ry="26.74"/>
<text text-anchor="middle" x="1666.81" y="-120.41" font-family="Times,serif" font-size="14.00">unfold double.</text>
<text text-anchor="middle" x="1666.81" y="-105.41" font-family="Times,serif" font-size="14.00">(0.027377078581276464)</text>
</g>
<!-- 12&#45;&gt;14 -->
<g id="edge18" class="edge">
<title>12&#45;&gt;14</title>
<path fill="none" stroke="black" d="M1664.71,-179.03C1664.99,-171.06 1665.29,-162.17 1665.58,-153.68"/>
<polygon fill="black" stroke="black" points="1669.08,-153.73 1665.93,-143.61 1662.09,-153.49 1669.08,-153.73"/>
</g>
<!-- 15 -->
<g id="node20" class="node">
<title>15</title>
<ellipse fill="orange" stroke="black" cx="1666.81" cy="-26.87" rx="143.59" ry="26.74"/>
<text text-anchor="middle" x="1666.81" y="-30.67" font-family="Times,serif" font-size="14.00">simpl.</text>
<text text-anchor="middle" x="1666.81" y="-15.67" font-family="Times,serif" font-size="14.00">(0.049012527051361506)</text>
</g>
<!-- 14&#45;&gt;15 -->
<g id="edge19" class="edge">
<title>14&#45;&gt;15</title>
<path fill="none" stroke="black" d="M1666.81,-89.29C1666.81,-81.32 1666.81,-72.43 1666.81,-63.94"/>
<polygon fill="black" stroke="black" points="1670.31,-63.87 1666.81,-53.87 1663.31,-63.87 1670.31,-63.87"/>
</g>
<!-- 19 -->
<g id="node25" class="node">
<title>19</title>
<ellipse fill="orange" stroke="black" cx="2002.81" cy="-116.61" rx="137.36" ry="26.74"/>
<text text-anchor="middle" x="2002.81" y="-120.41" font-family="Times,serif" font-size="14.00">simpl.</text>
<text text-anchor="middle" x="2002.81" y="-105.41" font-family="Times,serif" font-size="14.00">(0.08053689558515516)</text>
</g>
<!-- 18&#45;&gt;19 -->
<g id="edge24" class="edge">
<title>18&#45;&gt;19</title>
<path fill="none" stroke="black" d="M2193.77,-182.3C2158.54,-170.37 2115.43,-155.76 2079.08,-143.45"/>
<polygon fill="black" stroke="black" points="2080.11,-140.1 2069.51,-140.21 2077.86,-146.73 2080.11,-140.1"/>
</g>
<!-- 20 -->
<g id="node26" class="node">
<title>20</title>
<ellipse fill="orange" stroke="black" cx="2294.81" cy="-116.61" rx="137.36" ry="26.74"/>
<text text-anchor="middle" x="2294.81" y="-120.41" font-family="Times,serif" font-size="14.00">subst.</text>
<text text-anchor="middle" x="2294.81" y="-105.41" font-family="Times,serif" font-size="14.00">(0.01818629063271633)</text>
</g>
<!-- 18&#45;&gt;20 -->
<g id="edge25" class="edge">
<title>18&#45;&gt;20</title>
<path fill="none" stroke="black" d="M2271.54,-179.5C2274.66,-171.18 2278.19,-161.82 2281.52,-152.95"/>
<polygon fill="black" stroke="black" points="2284.8,-154.17 2285.05,-143.58 2278.25,-151.71 2284.8,-154.17"/>
</g>
<!-- 23 -->
<g id="node27" class="node">
<title>23</title>
<ellipse fill="orange" stroke="black" cx="2759.81" cy="-116.61" rx="130.63" ry="26.74"/>
<text text-anchor="middle" x="2759.81" y="-120.41" font-family="Times,serif" font-size="14.00">simpl.</text>
<text text-anchor="middle" x="2759.81" y="-105.41" font-family="Times,serif" font-size="14.00">(0.1011663184712655)</text>
</g>
<!-- 22&#45;&gt;23 -->
<g id="edge26" class="edge">
<title>22&#45;&gt;23</title>
<path fill="none" stroke="black" d="M2864.37,-180.44C2847.27,-170.17 2827.31,-158.17 2809.44,-147.43"/>
<polygon fill="black" stroke="black" points="2811.23,-144.43 2800.86,-142.28 2807.63,-150.43 2811.23,-144.43"/>
</g>
<!-- 24 -->
<g id="node28" class="node">
<title>24</title>
<ellipse fill="none" stroke="black" cx="3051.81" cy="-116.61" rx="143.59" ry="26.74"/>
<text text-anchor="middle" x="3051.81" y="-120.41" font-family="Times,serif" font-size="14.00">unfold double.</text>
<text text-anchor="middle" x="3051.81" y="-105.41" font-family="Times,serif" font-size="14.00">(0.027913974852633725)</text>
</g>
<!-- 22&#45;&gt;24 -->
<g id="edge27" class="edge">
<title>22&#45;&gt;24</title>
<path fill="none" stroke="black" d="M2947.26,-180.44C2964.13,-170.3 2983.79,-158.49 3001.47,-147.86"/>
<polygon fill="black" stroke="black" points="3003.75,-150.58 3010.52,-142.43 3000.14,-144.58 3003.75,-150.58"/>
</g>
<!-- 25 -->
<g id="node29" class="node">
<title>25</title>
<ellipse fill="orange" stroke="black" cx="3051.81" cy="-26.87" rx="143.59" ry="26.74"/>
<text text-anchor="middle" x="3051.81" y="-30.67" font-family="Times,serif" font-size="14.00">simpl.</text>
<text text-anchor="middle" x="3051.81" y="-15.67" font-family="Times,serif" font-size="14.00">(0.050451683723801634)</text>
</g>
<!-- 24&#45;&gt;25 -->
<g id="edge28" class="edge">
<title>24&#45;&gt;25</title>
<path fill="none" stroke="black" d="M3051.81,-89.29C3051.81,-81.32 3051.81,-72.43 3051.81,-63.94"/>
<polygon fill="black" stroke="black" points="3055.31,-63.87 3051.81,-53.87 3048.31,-63.87 3055.31,-63.87"/>
</g>
</g>
</svg>
