<?xml version="1.0" encoding="UTF-8" standalone="no"?>
<!DOCTYPE svg PUBLIC "-//W3C//DTD SVG 1.1//EN"
 "http://www.w3.org/Graphics/SVG/1.1/DTD/svg11.dtd">
<!-- Generated by graphviz version 2.43.0 (0)
 -->
<!-- Pages: 1 -->
<svg width="600pt" height="241pt"
 viewBox="0.00 0.00 600.09 241.22" xmlns="http://www.w3.org/2000/svg" xmlns:xlink="http://www.w3.org/1999/xlink">
<g id="graph0" class="graph" transform="scale(1 1) rotate(0) translate(4 237.22)">
<polygon fill="white" stroke="transparent" points="-4,4 -4,-237.22 596.09,-237.22 596.09,4 -4,4"/>
<!-- 0 -->
<g id="node1" class="node">
<title>0</title>
<ellipse fill="none" stroke="black" cx="282.81" cy="-206.35" rx="62.45" ry="26.74"/>
<text text-anchor="middle" x="282.81" y="-210.15" font-family="Times,serif" font-size="14.00">somme_pi</text>
<text text-anchor="middle" x="282.81" y="-195.15" font-family="Times,serif" font-size="14.00">(1.0)</text>
</g>
<!-- 1 -->
<g id="node2" class="node">
<title>1</title>
<ellipse fill="none" stroke="black" cx="130.81" cy="-116.61" rx="130.63" ry="26.74"/>
<text text-anchor="middle" x="130.81" y="-120.41" font-family="Times,serif" font-size="14.00">intros.</text>
<text text-anchor="middle" x="130.81" y="-105.41" font-family="Times,serif" font-size="14.00">(0.9984920150211405)</text>
</g>
<!-- 0&#45;&gt;1 -->
<g id="edge1" class="edge">
<title>0&#45;&gt;1</title>
<path fill="none" stroke="black" d="M246.41,-184.33C227.19,-173.24 203.3,-159.45 182.23,-147.29"/>
<polygon fill="black" stroke="black" points="183.8,-144.16 173.39,-142.19 180.3,-150.22 183.8,-144.16"/>
</g>
<!-- 3 -->
<g id="node3" class="node">
<title>3</title>
<ellipse fill="orange" stroke="black" cx="435.81" cy="-116.61" rx="156.04" ry="26.74"/>
<text text-anchor="middle" x="435.81" y="-120.41" font-family="Times,serif" font-size="14.00">simpl.</text>
<text text-anchor="middle" x="435.81" y="-105.41" font-family="Times,serif" font-size="14.00">(0.00014125369329240903)</text>
</g>
<!-- 0&#45;&gt;3 -->
<g id="edge2" class="edge">
<title>0&#45;&gt;3</title>
<path fill="none" stroke="black" d="M319.46,-184.33C338.65,-173.33 362.47,-159.67 383.55,-147.58"/>
<polygon fill="black" stroke="black" points="385.47,-150.52 392.4,-142.51 381.98,-144.45 385.47,-150.52"/>
</g>
<!-- 2 -->
<g id="node4" class="node">
<title>2</title>
<ellipse fill="orange" stroke="black" cx="130.81" cy="-26.87" rx="130.63" ry="26.74"/>
<text text-anchor="middle" x="130.81" y="-30.67" font-family="Times,serif" font-size="14.00">simpl.</text>
<text text-anchor="middle" x="130.81" y="-15.67" font-family="Times,serif" font-size="14.00">(0.0397043503170805)</text>
</g>
<!-- 1&#45;&gt;2 -->
<g id="edge3" class="edge">
<title>1&#45;&gt;2</title>
<path fill="none" stroke="black" d="M130.81,-89.29C130.81,-81.32 130.81,-72.43 130.81,-63.94"/>
<polygon fill="black" stroke="black" points="134.31,-63.87 130.81,-53.87 127.31,-63.87 134.31,-63.87"/>
</g>
</g>
</svg>
