<?xml version="1.0" encoding="UTF-8" standalone="no"?>
<!DOCTYPE svg PUBLIC "-//W3C//DTD SVG 1.1//EN"
 "http://www.w3.org/Graphics/SVG/1.1/DTD/svg11.dtd">
<!-- Generated by graphviz version 2.43.0 (0)
 -->
<!-- Pages: 1 -->
<svg width="1438pt" height="331pt"
 viewBox="0.00 0.00 1437.72 330.96" xmlns="http://www.w3.org/2000/svg" xmlns:xlink="http://www.w3.org/1999/xlink">
<g id="graph0" class="graph" transform="scale(1 1) rotate(0) translate(4 326.96)">
<polygon fill="white" stroke="transparent" points="-4,4 -4,-326.96 1433.72,-326.96 1433.72,4 -4,4"/>
<!-- 0 -->
<g id="node1" class="node">
<title>0</title>
<ellipse fill="none" stroke="black" cx="616.81" cy="-296.09" rx="64.19" ry="26.74"/>
<text text-anchor="middle" x="616.81" y="-299.89" font-family="Times,serif" font-size="14.00">cocyclique</text>
<text text-anchor="middle" x="616.81" y="-284.89" font-family="Times,serif" font-size="14.00">(1.0)</text>
</g>
<!-- 1 -->
<g id="node2" class="node">
<title>1</title>
<ellipse fill="none" stroke="black" cx="197.81" cy="-206.35" rx="130.63" ry="26.74"/>
<text text-anchor="middle" x="197.81" y="-210.15" font-family="Times,serif" font-size="14.00">intros.</text>
<text text-anchor="middle" x="197.81" y="-195.15" font-family="Times,serif" font-size="14.00">(0.9104724609060124)</text>
</g>
<!-- 0&#45;&gt;1 -->
<g id="edge1" class="edge">
<title>0&#45;&gt;1</title>
<path fill="none" stroke="black" d="M559.87,-283.17C492.46,-269.05 379.04,-245.3 297.08,-228.14"/>
<polygon fill="black" stroke="black" points="297.75,-224.7 287.25,-226.08 296.32,-231.55 297.75,-224.7"/>
</g>
<!-- 3 -->
<g id="node3" class="node">
<title>3</title>
<ellipse fill="none" stroke="black" cx="616.81" cy="-206.35" rx="137.36" ry="26.74"/>
<text text-anchor="middle" x="616.81" y="-210.15" font-family="Times,serif" font-size="14.00">unfold isocele.</text>
<text text-anchor="middle" x="616.81" y="-195.15" font-family="Times,serif" font-size="14.00">(0.01394834163301816)</text>
</g>
<!-- 0&#45;&gt;3 -->
<g id="edge2" class="edge">
<title>0&#45;&gt;3</title>
<path fill="none" stroke="black" d="M616.81,-268.77C616.81,-260.8 616.81,-251.91 616.81,-243.42"/>
<polygon fill="black" stroke="black" points="620.31,-243.35 616.81,-233.35 613.31,-243.35 620.31,-243.35"/>
</g>
<!-- 7 -->
<g id="node4" class="node">
<title>7</title>
<ellipse fill="none" stroke="black" cx="987.81" cy="-206.35" rx="149.81" ry="26.74"/>
<text text-anchor="middle" x="987.81" y="-210.15" font-family="Times,serif" font-size="14.00">unfold isocele.</text>
<text text-anchor="middle" x="987.81" y="-195.15" font-family="Times,serif" font-size="14.00">(0.0035954072531339805)</text>
</g>
<!-- 0&#45;&gt;7 -->
<g id="edge3" class="edge">
<title>0&#45;&gt;7</title>
<path fill="none" stroke="black" d="M671.96,-282.05C729.29,-268.49 820.22,-246.99 889.82,-230.53"/>
<polygon fill="black" stroke="black" points="891,-233.84 899.93,-228.14 889.39,-227.03 891,-233.84"/>
</g>
<!-- 2 -->
<g id="node5" class="node">
<title>2</title>
<ellipse fill="orange" stroke="black" cx="130.81" cy="-116.61" rx="130.63" ry="26.74"/>
<text text-anchor="middle" x="130.81" y="-120.41" font-family="Times,serif" font-size="14.00">simpl.</text>
<text text-anchor="middle" x="130.81" y="-105.41" font-family="Times,serif" font-size="14.00">(0.0422921257122964)</text>
</g>
<!-- 1&#45;&gt;2 -->
<g id="edge4" class="edge">
<title>1&#45;&gt;2</title>
<path fill="none" stroke="black" d="M178.07,-179.5C171.33,-170.66 163.68,-160.65 156.53,-151.29"/>
<polygon fill="black" stroke="black" points="159.26,-149.1 150.41,-143.28 153.7,-153.35 159.26,-149.1"/>
</g>
<!-- 4 -->
<g id="node6" class="node">
<title>4</title>
<ellipse fill="none" stroke="black" cx="403.81" cy="-116.61" rx="124.4" ry="26.74"/>
<text text-anchor="middle" x="403.81" y="-120.41" font-family="Times,serif" font-size="14.00">intros.</text>
<text text-anchor="middle" x="403.81" y="-105.41" font-family="Times,serif" font-size="14.00">(0.989471409327248)</text>
</g>
<!-- 3&#45;&gt;4 -->
<g id="edge5" class="edge">
<title>3&#45;&gt;4</title>
<path fill="none" stroke="black" d="M559.73,-181.84C531.95,-170.39 498.39,-156.57 469.54,-144.68"/>
<polygon fill="black" stroke="black" points="470.52,-141.3 459.95,-140.73 467.86,-147.78 470.52,-141.3"/>
</g>
<!-- 6 -->
<g id="node7" class="node">
<title>6</title>
<ellipse fill="orange" stroke="black" cx="695.81" cy="-116.61" rx="149.81" ry="26.74"/>
<text text-anchor="middle" x="695.81" y="-120.41" font-family="Times,serif" font-size="14.00">simpl.</text>
<text text-anchor="middle" x="695.81" y="-105.41" font-family="Times,serif" font-size="14.00">(0.0023156614209346796)</text>
</g>
<!-- 3&#45;&gt;6 -->
<g id="edge6" class="edge">
<title>3&#45;&gt;6</title>
<path fill="none" stroke="black" d="M640.09,-179.5C648.21,-170.49 657.43,-160.24 666,-150.72"/>
<polygon fill="black" stroke="black" points="668.62,-153.05 672.71,-143.28 663.41,-148.37 668.62,-153.05"/>
</g>
<!-- 8 -->
<g id="node9" class="node">
<title>8</title>
<ellipse fill="none" stroke="black" cx="987.81" cy="-116.61" rx="124.4" ry="26.74"/>
<text text-anchor="middle" x="987.81" y="-120.41" font-family="Times,serif" font-size="14.00">intros.</text>
<text text-anchor="middle" x="987.81" y="-105.41" font-family="Times,serif" font-size="14.00">(0.989471409327248)</text>
</g>
<!-- 7&#45;&gt;8 -->
<g id="edge8" class="edge">
<title>7&#45;&gt;8</title>
<path fill="none" stroke="black" d="M987.81,-179.03C987.81,-171.06 987.81,-162.17 987.81,-153.68"/>
<polygon fill="black" stroke="black" points="991.31,-153.61 987.81,-143.61 984.31,-153.61 991.31,-153.61"/>
</g>
<!-- 10 -->
<g id="node10" class="node">
<title>10</title>
<ellipse fill="orange" stroke="black" cx="1279.81" cy="-116.61" rx="149.81" ry="26.74"/>
<text text-anchor="middle" x="1279.81" y="-120.41" font-family="Times,serif" font-size="14.00">simpl.</text>
<text text-anchor="middle" x="1279.81" y="-105.41" font-family="Times,serif" font-size="14.00">(0.0023156614209346796)</text>
</g>
<!-- 7&#45;&gt;10 -->
<g id="edge9" class="edge">
<title>7&#45;&gt;10</title>
<path fill="none" stroke="black" d="M1062.25,-182.98C1102.93,-170.76 1153.46,-155.58 1195.58,-142.92"/>
<polygon fill="black" stroke="black" points="1196.69,-146.24 1205.26,-140.01 1194.67,-139.54 1196.69,-146.24"/>
</g>
<!-- 5 -->
<g id="node8" class="node">
<title>5</title>
<ellipse fill="orange" stroke="black" cx="403.81" cy="-26.87" rx="137.36" ry="26.74"/>
<text text-anchor="middle" x="403.81" y="-30.67" font-family="Times,serif" font-size="14.00">simpl.</text>
<text text-anchor="middle" x="403.81" y="-15.67" font-family="Times,serif" font-size="14.00">(0.03068644040842685)</text>
</g>
<!-- 4&#45;&gt;5 -->
<g id="edge7" class="edge">
<title>4&#45;&gt;5</title>
<path fill="none" stroke="black" d="M403.81,-89.29C403.81,-81.32 403.81,-72.43 403.81,-63.94"/>
<polygon fill="black" stroke="black" points="407.31,-63.87 403.81,-53.87 400.31,-63.87 407.31,-63.87"/>
</g>
<!-- 9 -->
<g id="node11" class="node">
<title>9</title>
<ellipse fill="orange" stroke="black" cx="987.81" cy="-26.87" rx="137.36" ry="26.74"/>
<text text-anchor="middle" x="987.81" y="-30.67" font-family="Times,serif" font-size="14.00">simpl.</text>
<text text-anchor="middle" x="987.81" y="-15.67" font-family="Times,serif" font-size="14.00">(0.03068644040842685)</text>
</g>
<!-- 8&#45;&gt;9 -->
<g id="edge10" class="edge">
<title>8&#45;&gt;9</title>
<path fill="none" stroke="black" d="M987.81,-89.29C987.81,-81.32 987.81,-72.43 987.81,-63.94"/>
<polygon fill="black" stroke="black" points="991.31,-63.87 987.81,-53.87 984.31,-63.87 991.31,-63.87"/>
</g>
</g>
</svg>
