<?xml version="1.0" encoding="UTF-8" standalone="no"?>
<!DOCTYPE svg PUBLIC "-//W3C//DTD SVG 1.1//EN"
 "http://www.w3.org/Graphics/SVG/1.1/DTD/svg11.dtd">
<!-- Generated by graphviz version 2.43.0 (0)
 -->
<!-- Pages: 1 -->
<svg width="1928pt" height="421pt"
 viewBox="0.00 0.00 1928.45 420.70" xmlns="http://www.w3.org/2000/svg" xmlns:xlink="http://www.w3.org/1999/xlink">
<g id="graph0" class="graph" transform="scale(1 1) rotate(0) translate(4 416.7)">
<polygon fill="white" stroke="transparent" points="-4,4 -4,-416.7 1924.45,-416.7 1924.45,4 -4,4"/>
<!-- 0 -->
<g id="node1" class="node">
<title>0</title>
<ellipse fill="none" stroke="black" cx="578.54" cy="-385.83" rx="56.64" ry="26.74"/>
<text text-anchor="middle" x="578.54" y="-389.63" font-family="Times,serif" font-size="14.00">tangente</text>
<text text-anchor="middle" x="578.54" y="-374.63" font-family="Times,serif" font-size="14.00">(1.0)</text>
</g>
<!-- 1 -->
<g id="node2" class="node">
<title>1</title>
<ellipse fill="none" stroke="black" cx="289.54" cy="-296.09" rx="124.4" ry="26.74"/>
<text text-anchor="middle" x="289.54" y="-299.89" font-family="Times,serif" font-size="14.00">intros.</text>
<text text-anchor="middle" x="289.54" y="-284.89" font-family="Times,serif" font-size="14.00">(0.974492633609196)</text>
</g>
<!-- 0&#45;&gt;1 -->
<g id="edge1" class="edge">
<title>0&#45;&gt;1</title>
<path fill="none" stroke="black" d="M531.79,-370.64C487.95,-357.33 421.51,-337.16 369.3,-321.3"/>
<polygon fill="black" stroke="black" points="370.31,-317.95 359.72,-318.4 368.27,-324.65 370.31,-317.95"/>
</g>
<!-- 3 -->
<g id="node3" class="node">
<title>3</title>
<ellipse fill="none" stroke="black" cx="578.54" cy="-296.09" rx="143.59" ry="26.74"/>
<text text-anchor="middle" x="578.54" y="-299.89" font-family="Times,serif" font-size="14.00">unfold isocele.</text>
<text text-anchor="middle" x="578.54" y="-284.89" font-family="Times,serif" font-size="14.00">(0.003968901667641593)</text>
</g>
<!-- 0&#45;&gt;3 -->
<g id="edge2" class="edge">
<title>0&#45;&gt;3</title>
<path fill="none" stroke="black" d="M578.54,-358.51C578.54,-350.54 578.54,-341.65 578.54,-333.16"/>
<polygon fill="black" stroke="black" points="582.04,-333.09 578.54,-323.09 575.04,-333.09 582.04,-333.09"/>
</g>
<!-- 7 -->
<g id="node4" class="node">
<title>7</title>
<ellipse fill="none" stroke="black" cx="1176.54" cy="-296.09" rx="149.81" ry="26.74"/>
<text text-anchor="middle" x="1176.54" y="-299.89" font-family="Times,serif" font-size="14.00">unfold orthogonal.</text>
<text text-anchor="middle" x="1176.54" y="-284.89" font-family="Times,serif" font-size="14.00">(0.0015500906115167932)</text>
</g>
<!-- 0&#45;&gt;7 -->
<g id="edge3" class="edge">
<title>0&#45;&gt;7</title>
<path fill="none" stroke="black" d="M632.14,-376.97C726.3,-363.15 923.68,-334.19 1053.1,-315.2"/>
<polygon fill="black" stroke="black" points="1053.69,-318.65 1063.08,-313.74 1052.68,-311.73 1053.69,-318.65"/>
</g>
<!-- 2 -->
<g id="node5" class="node">
<title>2</title>
<ellipse fill="orange" stroke="black" cx="143.54" cy="-206.35" rx="143.59" ry="26.74"/>
<text text-anchor="middle" x="143.54" y="-210.15" font-family="Times,serif" font-size="14.00">simpl.</text>
<text text-anchor="middle" x="143.54" y="-195.15" font-family="Times,serif" font-size="14.00">(0.040326333776951995)</text>
</g>
<!-- 1&#45;&gt;2 -->
<g id="edge4" class="edge">
<title>1&#45;&gt;2</title>
<path fill="none" stroke="black" d="M248.87,-270.65C231.69,-260.32 211.51,-248.19 193.43,-237.33"/>
<polygon fill="black" stroke="black" points="195.13,-234.27 184.75,-232.12 191.52,-240.27 195.13,-234.27"/>
</g>
<!-- 4 -->
<g id="node6" class="node">
<title>4</title>
<ellipse fill="none" stroke="black" cx="435.54" cy="-206.35" rx="130.63" ry="26.74"/>
<text text-anchor="middle" x="435.54" y="-210.15" font-family="Times,serif" font-size="14.00">intros.</text>
<text text-anchor="middle" x="435.54" y="-195.15" font-family="Times,serif" font-size="14.00">(0.9964926903140768)</text>
</g>
<!-- 3&#45;&gt;4 -->
<g id="edge5" class="edge">
<title>3&#45;&gt;4</title>
<path fill="none" stroke="black" d="M537.95,-270.18C521.35,-260 502.01,-248.13 484.63,-237.47"/>
<polygon fill="black" stroke="black" points="486.1,-234.26 475.74,-232.02 482.44,-240.23 486.1,-234.26"/>
</g>
<!-- 6 -->
<g id="node7" class="node">
<title>6</title>
<ellipse fill="orange" stroke="black" cx="734.54" cy="-206.35" rx="149.81" ry="26.74"/>
<text text-anchor="middle" x="734.54" y="-210.15" font-family="Times,serif" font-size="14.00">simpl.</text>
<text text-anchor="middle" x="734.54" y="-195.15" font-family="Times,serif" font-size="14.00">(0.0005391665738360245)</text>
</g>
<!-- 3&#45;&gt;6 -->
<g id="edge6" class="edge">
<title>3&#45;&gt;6</title>
<path fill="none" stroke="black" d="M622.41,-270.42C640.77,-260.09 662.28,-248 681.51,-237.18"/>
<polygon fill="black" stroke="black" points="683.46,-240.1 690.46,-232.14 680.03,-233.99 683.46,-240.1"/>
</g>
<!-- 8 -->
<g id="node9" class="node">
<title>8</title>
<ellipse fill="none" stroke="black" cx="1033.54" cy="-206.35" rx="130.63" ry="26.74"/>
<text text-anchor="middle" x="1033.54" y="-210.15" font-family="Times,serif" font-size="14.00">intros.</text>
<text text-anchor="middle" x="1033.54" y="-195.15" font-family="Times,serif" font-size="14.00">(0.9815626337442737)</text>
</g>
<!-- 7&#45;&gt;8 -->
<g id="edge8" class="edge">
<title>7&#45;&gt;8</title>
<path fill="none" stroke="black" d="M1135.95,-270.18C1119.35,-260 1100.01,-248.13 1082.63,-237.47"/>
<polygon fill="black" stroke="black" points="1084.1,-234.26 1073.74,-232.02 1080.44,-240.23 1084.1,-234.26"/>
</g>
<!-- 10 -->
<g id="node10" class="node">
<title>10</title>
<ellipse fill="orange" stroke="black" cx="1319.54" cy="-206.35" rx="137.36" ry="26.74"/>
<text text-anchor="middle" x="1319.54" y="-210.15" font-family="Times,serif" font-size="14.00">simpl.</text>
<text text-anchor="middle" x="1319.54" y="-195.15" font-family="Times,serif" font-size="14.00">(0.01082434941052604)</text>
</g>
<!-- 7&#45;&gt;10 -->
<g id="edge9" class="edge">
<title>7&#45;&gt;10</title>
<path fill="none" stroke="black" d="M1217.14,-270.18C1233.59,-260.09 1252.75,-248.33 1270.01,-237.74"/>
<polygon fill="black" stroke="black" points="1272.15,-240.53 1278.85,-232.32 1268.49,-234.57 1272.15,-240.53"/>
</g>
<!-- 11 -->
<g id="node11" class="node">
<title>11</title>
<ellipse fill="none" stroke="black" cx="1618.54" cy="-206.35" rx="143.59" ry="26.74"/>
<text text-anchor="middle" x="1618.54" y="-210.15" font-family="Times,serif" font-size="14.00">unfold isocele.</text>
<text text-anchor="middle" x="1618.54" y="-195.15" font-family="Times,serif" font-size="14.00">(0.002911674516869002)</text>
</g>
<!-- 7&#45;&gt;11 -->
<g id="edge10" class="edge">
<title>7&#45;&gt;11</title>
<path fill="none" stroke="black" d="M1274.36,-275.67C1344.91,-261.67 1440.07,-242.78 1512.45,-228.41"/>
<polygon fill="black" stroke="black" points="1513.38,-231.79 1522.5,-226.41 1512.01,-224.93 1513.38,-231.79"/>
</g>
<!-- 5 -->
<g id="node8" class="node">
<title>5</title>
<ellipse fill="orange" stroke="black" cx="435.54" cy="-116.61" rx="137.36" ry="26.74"/>
<text text-anchor="middle" x="435.54" y="-120.41" font-family="Times,serif" font-size="14.00">simpl.</text>
<text text-anchor="middle" x="435.54" y="-105.41" font-family="Times,serif" font-size="14.00">(0.03421211437738637)</text>
</g>
<!-- 4&#45;&gt;5 -->
<g id="edge7" class="edge">
<title>4&#45;&gt;5</title>
<path fill="none" stroke="black" d="M435.54,-179.03C435.54,-171.06 435.54,-162.17 435.54,-153.68"/>
<polygon fill="black" stroke="black" points="439.04,-153.61 435.54,-143.61 432.04,-153.61 439.04,-153.61"/>
</g>
<!-- 9 -->
<g id="node12" class="node">
<title>9</title>
<ellipse fill="orange" stroke="black" cx="1033.54" cy="-116.61" rx="143.59" ry="26.74"/>
<text text-anchor="middle" x="1033.54" y="-120.41" font-family="Times,serif" font-size="14.00">simpl.</text>
<text text-anchor="middle" x="1033.54" y="-105.41" font-family="Times,serif" font-size="14.00">(0.028918136401578063)</text>
</g>
<!-- 8&#45;&gt;9 -->
<g id="edge11" class="edge">
<title>8&#45;&gt;9</title>
<path fill="none" stroke="black" d="M1033.54,-179.03C1033.54,-171.06 1033.54,-162.17 1033.54,-153.68"/>
<polygon fill="black" stroke="black" points="1037.04,-153.61 1033.54,-143.61 1030.04,-153.61 1037.04,-153.61"/>
</g>
<!-- 12 -->
<g id="node13" class="node">
<title>12</title>
<ellipse fill="none" stroke="black" cx="1471.54" cy="-116.61" rx="130.63" ry="26.74"/>
<text text-anchor="middle" x="1471.54" y="-120.41" font-family="Times,serif" font-size="14.00">intros.</text>
<text text-anchor="middle" x="1471.54" y="-105.41" font-family="Times,serif" font-size="14.00">(0.9964932821820546)</text>
</g>
<!-- 11&#45;&gt;12 -->
<g id="edge12" class="edge">
<title>11&#45;&gt;12</title>
<path fill="none" stroke="black" d="M1576.81,-180.44C1559.52,-170.12 1539.33,-158.07 1521.28,-147.3"/>
<polygon fill="black" stroke="black" points="1523,-144.25 1512.62,-142.13 1519.41,-150.26 1523,-144.25"/>
</g>
<!-- 14 -->
<g id="node14" class="node">
<title>14</title>
<ellipse fill="orange" stroke="black" cx="1770.54" cy="-116.61" rx="149.81" ry="26.74"/>
<text text-anchor="middle" x="1770.54" y="-120.41" font-family="Times,serif" font-size="14.00">simpl.</text>
<text text-anchor="middle" x="1770.54" y="-105.41" font-family="Times,serif" font-size="14.00">(0.0005391668309307427)</text>
</g>
<!-- 11&#45;&gt;14 -->
<g id="edge13" class="edge">
<title>11&#45;&gt;14</title>
<path fill="none" stroke="black" d="M1661.29,-180.68C1679.18,-170.35 1700.13,-158.26 1718.87,-147.44"/>
<polygon fill="black" stroke="black" points="1720.68,-150.43 1727.59,-142.4 1717.18,-144.37 1720.68,-150.43"/>
</g>
<!-- 13 -->
<g id="node15" class="node">
<title>13</title>
<ellipse fill="orange" stroke="black" cx="1471.54" cy="-26.87" rx="130.63" ry="26.74"/>
<text text-anchor="middle" x="1471.54" y="-30.67" font-family="Times,serif" font-size="14.00">simpl.</text>
<text text-anchor="middle" x="1471.54" y="-15.67" font-family="Times,serif" font-size="14.00">(0.0256330751044835)</text>
</g>
<!-- 12&#45;&gt;13 -->
<g id="edge14" class="edge">
<title>12&#45;&gt;13</title>
<path fill="none" stroke="black" d="M1471.54,-89.29C1471.54,-81.32 1471.54,-72.43 1471.54,-63.94"/>
<polygon fill="black" stroke="black" points="1475.04,-63.87 1471.54,-53.87 1468.04,-63.87 1475.04,-63.87"/>
</g>
</g>
</svg>
