<?xml version="1.0" encoding="UTF-8" standalone="no"?>
<!DOCTYPE svg PUBLIC "-//W3C//DTD SVG 1.1//EN"
 "http://www.w3.org/Graphics/SVG/1.1/DTD/svg11.dtd">
<!-- Generated by graphviz version 2.43.0 (0)
 -->
<!-- Pages: 1 -->
<svg width="4478pt" height="510pt"
 viewBox="0.00 0.00 4477.72 510.44" xmlns="http://www.w3.org/2000/svg" xmlns:xlink="http://www.w3.org/1999/xlink">
<g id="graph0" class="graph" transform="scale(1 1) rotate(0) translate(4 506.44)">
<polygon fill="white" stroke="transparent" points="-4,4 -4,-506.44 4473.72,-506.44 4473.72,4 -4,4"/>
<!-- 0 -->
<g id="node1" class="node">
<title>0</title>
<ellipse fill="none" stroke="black" cx="2946.81" cy="-475.57" rx="104.8" ry="26.74"/>
<text text-anchor="middle" x="2946.81" y="-479.37" font-family="Times,serif" font-size="14.00">unicite_circonscrit</text>
<text text-anchor="middle" x="2946.81" y="-464.37" font-family="Times,serif" font-size="14.00">(1.0)</text>
</g>
<!-- 1 -->
<g id="node2" class="node">
<title>1</title>
<ellipse fill="none" stroke="black" cx="1927.81" cy="-385.83" rx="130.63" ry="26.74"/>
<text text-anchor="middle" x="1927.81" y="-389.63" font-family="Times,serif" font-size="14.00">intros.</text>
<text text-anchor="middle" x="1927.81" y="-374.63" font-family="Times,serif" font-size="14.00">(0.9104928185625042)</text>
</g>
<!-- 0&#45;&gt;1 -->
<g id="edge1" class="edge">
<title>0&#45;&gt;1</title>
<path fill="none" stroke="black" d="M2848.65,-466.12C2663.63,-450.19 2263.39,-415.72 2056.88,-397.94"/>
<polygon fill="black" stroke="black" points="2057.15,-394.45 2046.89,-397.08 2056.55,-401.43 2057.15,-394.45"/>
</g>
<!-- 17 -->
<g id="node3" class="node">
<title>17</title>
<ellipse fill="none" stroke="black" cx="2946.81" cy="-385.83" rx="143.59" ry="26.74"/>
<text text-anchor="middle" x="2946.81" y="-389.63" font-family="Times,serif" font-size="14.00">unfold isocele.</text>
<text text-anchor="middle" x="2946.81" y="-374.63" font-family="Times,serif" font-size="14.00">(0.013948654237637631)</text>
</g>
<!-- 0&#45;&gt;17 -->
<g id="edge2" class="edge">
<title>0&#45;&gt;17</title>
<path fill="none" stroke="black" d="M2946.81,-448.25C2946.81,-440.28 2946.81,-431.39 2946.81,-422.9"/>
<polygon fill="black" stroke="black" points="2950.31,-422.83 2946.81,-412.83 2943.31,-422.83 2950.31,-422.83"/>
</g>
<!-- 31 -->
<g id="node4" class="node">
<title>31</title>
<ellipse fill="none" stroke="black" cx="3855.81" cy="-385.83" rx="149.81" ry="26.74"/>
<text text-anchor="middle" x="3855.81" y="-389.63" font-family="Times,serif" font-size="14.00">unfold isocele.</text>
<text text-anchor="middle" x="3855.81" y="-374.63" font-family="Times,serif" font-size="14.00">(0.0035954878319544438)</text>
</g>
<!-- 0&#45;&gt;31 -->
<g id="edge3" class="edge">
<title>0&#45;&gt;31</title>
<path fill="none" stroke="black" d="M3043.66,-465.22C3205.04,-449.65 3529.57,-418.32 3715.83,-400.34"/>
<polygon fill="black" stroke="black" points="3716.35,-403.81 3725.97,-399.36 3715.68,-396.84 3716.35,-403.81"/>
</g>
<!-- 2 -->
<g id="node5" class="node">
<title>2</title>
<ellipse fill="none" stroke="black" cx="1038.81" cy="-296.09" rx="130.63" ry="26.74"/>
<text text-anchor="middle" x="1038.81" y="-299.89" font-family="Times,serif" font-size="14.00">split.</text>
<text text-anchor="middle" x="1038.81" y="-284.89" font-family="Times,serif" font-size="14.00">(0.9200242318429956)</text>
</g>
<!-- 1&#45;&gt;2 -->
<g id="edge4" class="edge">
<title>1&#45;&gt;2</title>
<path fill="none" stroke="black" d="M1811.59,-373.36C1644.55,-356.87 1337.74,-326.59 1165.21,-309.57"/>
<polygon fill="black" stroke="black" points="1165.36,-306.06 1155.06,-308.56 1164.67,-313.03 1165.36,-306.06"/>
</g>
<!-- 14 -->
<g id="node6" class="node">
<title>14</title>
<ellipse fill="orange" stroke="black" cx="1622.81" cy="-296.09" rx="143.59" ry="26.74"/>
<text text-anchor="middle" x="1622.81" y="-299.89" font-family="Times,serif" font-size="14.00">simpl.</text>
<text text-anchor="middle" x="1622.81" y="-284.89" font-family="Times,serif" font-size="14.00">(0.008556557107000543)</text>
</g>
<!-- 1&#45;&gt;14 -->
<g id="edge5" class="edge">
<title>1&#45;&gt;14</title>
<path fill="none" stroke="black" d="M1853.98,-363.59C1810.12,-350.97 1754.3,-334.91 1708.5,-321.74"/>
<polygon fill="black" stroke="black" points="1709.46,-318.37 1698.88,-318.97 1707.53,-325.1 1709.46,-318.37"/>
</g>
<!-- 15 -->
<g id="node7" class="node">
<title>15</title>
<ellipse fill="orange" stroke="black" cx="1927.81" cy="-296.09" rx="143.59" ry="26.74"/>
<text text-anchor="middle" x="1927.81" y="-299.89" font-family="Times,serif" font-size="14.00">try discriminate.</text>
<text text-anchor="middle" x="1927.81" y="-284.89" font-family="Times,serif" font-size="14.00">(0.007474408635699239)</text>
</g>
<!-- 1&#45;&gt;15 -->
<g id="edge6" class="edge">
<title>1&#45;&gt;15</title>
<path fill="none" stroke="black" d="M1927.81,-358.51C1927.81,-350.54 1927.81,-341.65 1927.81,-333.16"/>
<polygon fill="black" stroke="black" points="1931.31,-333.09 1927.81,-323.09 1924.31,-333.09 1931.31,-333.09"/>
</g>
<!-- 16 -->
<g id="node8" class="node">
<title>16</title>
<ellipse fill="orange" stroke="black" cx="2238.81" cy="-296.09" rx="149.81" ry="26.74"/>
<text text-anchor="middle" x="2238.81" y="-299.89" font-family="Times,serif" font-size="14.00">subst.</text>
<text text-anchor="middle" x="2238.81" y="-284.89" font-family="Times,serif" font-size="14.00">(0.0052830670846095015)</text>
</g>
<!-- 1&#45;&gt;16 -->
<g id="edge7" class="edge">
<title>1&#45;&gt;16</title>
<path fill="none" stroke="black" d="M2002.7,-363.7C2047.34,-351.11 2104.22,-335.06 2150.97,-321.87"/>
<polygon fill="black" stroke="black" points="2152.11,-325.19 2160.78,-319.1 2150.21,-318.45 2152.11,-325.19"/>
</g>
<!-- 18 -->
<g id="node20" class="node">
<title>18</title>
<ellipse fill="none" stroke="black" cx="2654.81" cy="-296.09" rx="124.4" ry="26.74"/>
<text text-anchor="middle" x="2654.81" y="-299.89" font-family="Times,serif" font-size="14.00">intros.</text>
<text text-anchor="middle" x="2654.81" y="-284.89" font-family="Times,serif" font-size="14.00">(0.989471059150827)</text>
</g>
<!-- 17&#45;&gt;18 -->
<g id="edge19" class="edge">
<title>17&#45;&gt;18</title>
<path fill="none" stroke="black" d="M2873.13,-362.69C2831.04,-350.04 2778.21,-334.17 2735.07,-321.2"/>
<polygon fill="black" stroke="black" points="2736.04,-317.84 2725.45,-318.32 2734.02,-324.55 2736.04,-317.84"/>
</g>
<!-- 29 -->
<g id="node21" class="node">
<title>29</title>
<ellipse fill="orange" stroke="black" cx="2946.81" cy="-296.09" rx="149.81" ry="26.74"/>
<text text-anchor="middle" x="2946.81" y="-299.89" font-family="Times,serif" font-size="14.00">eauto.</text>
<text text-anchor="middle" x="2946.81" y="-284.89" font-family="Times,serif" font-size="14.00">(0.0030522745572094836)</text>
</g>
<!-- 17&#45;&gt;29 -->
<g id="edge20" class="edge">
<title>17&#45;&gt;29</title>
<path fill="none" stroke="black" d="M2946.81,-358.51C2946.81,-350.54 2946.81,-341.65 2946.81,-333.16"/>
<polygon fill="black" stroke="black" points="2950.31,-333.09 2946.81,-323.09 2943.31,-333.09 2950.31,-333.09"/>
</g>
<!-- 30 -->
<g id="node22" class="node">
<title>30</title>
<ellipse fill="orange" stroke="black" cx="3264.81" cy="-296.09" rx="149.81" ry="26.74"/>
<text text-anchor="middle" x="3264.81" y="-299.89" font-family="Times,serif" font-size="14.00">simpl.</text>
<text text-anchor="middle" x="3264.81" y="-284.89" font-family="Times,serif" font-size="14.00">(0.0023156603167415316)</text>
</g>
<!-- 17&#45;&gt;30 -->
<g id="edge21" class="edge">
<title>17&#45;&gt;30</title>
<path fill="none" stroke="black" d="M3025.01,-363.25C3070.69,-350.65 3128.49,-334.7 3175.89,-321.62"/>
<polygon fill="black" stroke="black" points="3176.83,-325 3185.54,-318.96 3174.97,-318.25 3176.83,-325"/>
</g>
<!-- 32 -->
<g id="node33" class="node">
<title>32</title>
<ellipse fill="none" stroke="black" cx="3709.81" cy="-296.09" rx="124.4" ry="26.74"/>
<text text-anchor="middle" x="3709.81" y="-299.89" font-family="Times,serif" font-size="14.00">intros.</text>
<text text-anchor="middle" x="3709.81" y="-284.89" font-family="Times,serif" font-size="14.00">(0.989471059150827)</text>
</g>
<!-- 31&#45;&gt;32 -->
<g id="edge32" class="edge">
<title>31&#45;&gt;32</title>
<path fill="none" stroke="black" d="M3814.37,-359.92C3797.2,-349.6 3777.14,-337.55 3759.22,-326.78"/>
<polygon fill="black" stroke="black" points="3760.98,-323.76 3750.61,-321.61 3757.38,-329.76 3760.98,-323.76"/>
</g>
<!-- 43 -->
<g id="node34" class="node">
<title>43</title>
<ellipse fill="orange" stroke="black" cx="4001.81" cy="-296.09" rx="149.81" ry="26.74"/>
<text text-anchor="middle" x="4001.81" y="-299.89" font-family="Times,serif" font-size="14.00">eauto.</text>
<text text-anchor="middle" x="4001.81" y="-284.89" font-family="Times,serif" font-size="14.00">(0.0030522745572094836)</text>
</g>
<!-- 31&#45;&gt;43 -->
<g id="edge33" class="edge">
<title>31&#45;&gt;43</title>
<path fill="none" stroke="black" d="M3897.26,-359.92C3914.06,-349.83 3933.62,-338.07 3951.25,-327.48"/>
<polygon fill="black" stroke="black" points="3953.5,-330.21 3960.26,-322.06 3949.89,-324.21 3953.5,-330.21"/>
</g>
<!-- 44 -->
<g id="node35" class="node">
<title>44</title>
<ellipse fill="orange" stroke="black" cx="4319.81" cy="-296.09" rx="149.81" ry="26.74"/>
<text text-anchor="middle" x="4319.81" y="-299.89" font-family="Times,serif" font-size="14.00">simpl.</text>
<text text-anchor="middle" x="4319.81" y="-284.89" font-family="Times,serif" font-size="14.00">(0.0023156603167415316)</text>
</g>
<!-- 31&#45;&gt;44 -->
<g id="edge34" class="edge">
<title>31&#45;&gt;44</title>
<path fill="none" stroke="black" d="M3956.21,-365.85C4030.68,-351.76 4132.17,-332.57 4209.01,-318.04"/>
<polygon fill="black" stroke="black" points="4210.03,-321.41 4219.21,-316.11 4208.73,-314.53 4210.03,-321.41"/>
</g>
<!-- 3 -->
<g id="node9" class="node">
<title>3</title>
<ellipse fill="none" stroke="black" cx="273.81" cy="-206.35" rx="130.63" ry="26.74"/>
<text text-anchor="middle" x="273.81" y="-210.15" font-family="Times,serif" font-size="14.00">split.</text>
<text text-anchor="middle" x="273.81" y="-195.15" font-family="Times,serif" font-size="14.00">(0.9835510998963684)</text>
</g>
<!-- 2&#45;&gt;3 -->
<g id="edge8" class="edge">
<title>2&#45;&gt;3</title>
<path fill="none" stroke="black" d="M916.98,-286.15C790.55,-276.15 587.3,-258.03 412.81,-233.22 400.73,-231.5 388.1,-229.48 375.59,-227.33"/>
<polygon fill="black" stroke="black" points="376.05,-223.85 365.6,-225.58 374.85,-230.75 376.05,-223.85"/>
</g>
<!-- 6 -->
<g id="node10" class="node">
<title>6</title>
<ellipse fill="orange" stroke="black" cx="565.81" cy="-206.35" rx="143.59" ry="26.74"/>
<text text-anchor="middle" x="565.81" y="-210.15" font-family="Times,serif" font-size="14.00">eauto.</text>
<text text-anchor="middle" x="565.81" y="-195.15" font-family="Times,serif" font-size="14.00">(0.015062312715294263)</text>
</g>
<!-- 2&#45;&gt;6 -->
<g id="edge9" class="edge">
<title>2&#45;&gt;6</title>
<path fill="none" stroke="black" d="M943.95,-277.49C866.49,-263.12 756.94,-242.8 675.68,-227.73"/>
<polygon fill="black" stroke="black" points="675.89,-224.21 665.42,-225.83 674.61,-231.09 675.89,-224.21"/>
</g>
<!-- 7 -->
<g id="node11" class="node">
<title>7</title>
<ellipse fill="orange" stroke="black" cx="876.81" cy="-206.35" rx="149.81" ry="26.74"/>
<text text-anchor="middle" x="876.81" y="-210.15" font-family="Times,serif" font-size="14.00">simpl.</text>
<text text-anchor="middle" x="876.81" y="-195.15" font-family="Times,serif" font-size="14.00">(0.0003366903305411908)</text>
</g>
<!-- 2&#45;&gt;7 -->
<g id="edge10" class="edge">
<title>2&#45;&gt;7</title>
<path fill="none" stroke="black" d="M993.69,-270.65C974.28,-260.14 951.43,-247.76 931.1,-236.75"/>
<polygon fill="black" stroke="black" points="932.72,-233.65 922.26,-231.96 929.39,-239.8 932.72,-233.65"/>
</g>
<!-- 8 -->
<g id="node12" class="node">
<title>8</title>
<ellipse fill="none" stroke="black" cx="1200.81" cy="-206.35" rx="156.04" ry="26.74"/>
<text text-anchor="middle" x="1200.81" y="-210.15" font-family="Times,serif" font-size="14.00">intuition.</text>
<text text-anchor="middle" x="1200.81" y="-195.15" font-family="Times,serif" font-size="14.00">(0.00016897165626194425)</text>
</g>
<!-- 2&#45;&gt;8 -->
<g id="edge11" class="edge">
<title>2&#45;&gt;8</title>
<path fill="none" stroke="black" d="M1083.94,-270.65C1103.27,-260.18 1126.01,-247.86 1146.27,-236.89"/>
<polygon fill="black" stroke="black" points="1147.96,-239.96 1155.09,-232.12 1144.63,-233.8 1147.96,-239.96"/>
</g>
<!-- 11 -->
<g id="node13" class="node">
<title>11</title>
<ellipse fill="none" stroke="black" cx="1520.81" cy="-206.35" rx="145.83" ry="26.74"/>
<text text-anchor="middle" x="1520.81" y="-210.15" font-family="Times,serif" font-size="14.00">repeat split.</text>
<text text-anchor="middle" x="1520.81" y="-195.15" font-family="Times,serif" font-size="14.00">(7.315966970947368e&#45;05)</text>
</g>
<!-- 2&#45;&gt;11 -->
<g id="edge12" class="edge">
<title>2&#45;&gt;11</title>
<path fill="none" stroke="black" d="M1134.33,-277.7C1213.58,-263.28 1326.37,-242.75 1409.66,-227.58"/>
<polygon fill="black" stroke="black" points="1410.46,-231 1419.67,-225.76 1409.21,-224.11 1410.46,-231"/>
</g>
<!-- 4 -->
<g id="node14" class="node">
<title>4</title>
<ellipse fill="orange" stroke="black" cx="130.81" cy="-116.61" rx="130.63" ry="26.74"/>
<text text-anchor="middle" x="130.81" y="-120.41" font-family="Times,serif" font-size="14.00">eauto.</text>
<text text-anchor="middle" x="130.81" y="-105.41" font-family="Times,serif" font-size="14.00">(0.6449407769600717)</text>
</g>
<!-- 3&#45;&gt;4 -->
<g id="edge13" class="edge">
<title>3&#45;&gt;4</title>
<path fill="none" stroke="black" d="M233.6,-180.68C217,-170.49 197.59,-158.58 180.14,-147.88"/>
<polygon fill="black" stroke="black" points="181.58,-144.65 171.22,-142.4 177.92,-150.62 181.58,-144.65"/>
</g>
<!-- 5 -->
<g id="node15" class="node">
<title>5</title>
<ellipse fill="none" stroke="black" cx="416.81" cy="-116.61" rx="137.36" ry="26.74"/>
<text text-anchor="middle" x="416.81" y="-120.41" font-family="Times,serif" font-size="14.00">red.</text>
<text text-anchor="middle" x="416.81" y="-105.41" font-family="Times,serif" font-size="14.00">(0.06615582402275724)</text>
</g>
<!-- 3&#45;&gt;5 -->
<g id="edge14" class="edge">
<title>3&#45;&gt;5</title>
<path fill="none" stroke="black" d="M314.03,-180.68C330.63,-170.49 350.04,-158.58 367.49,-147.88"/>
<polygon fill="black" stroke="black" points="369.71,-150.62 376.41,-142.4 366.05,-144.65 369.71,-150.62"/>
</g>
<!-- 9 -->
<g id="node16" class="node">
<title>9</title>
<ellipse fill="none" stroke="black" cx="908.81" cy="-116.61" rx="130.63" ry="26.74"/>
<text text-anchor="middle" x="908.81" y="-120.41" font-family="Times,serif" font-size="14.00">red.</text>
<text text-anchor="middle" x="908.81" y="-105.41" font-family="Times,serif" font-size="14.00">(0.3596854748030652)</text>
</g>
<!-- 8&#45;&gt;9 -->
<g id="edge15" class="edge">
<title>8&#45;&gt;9</title>
<path fill="none" stroke="black" d="M1125.62,-182.76C1084.23,-170.32 1032.83,-154.87 990.46,-142.14"/>
<polygon fill="black" stroke="black" points="991.32,-138.75 980.74,-139.22 989.31,-145.45 991.32,-138.75"/>
</g>
<!-- 10 -->
<g id="node17" class="node">
<title>10</title>
<ellipse fill="orange" stroke="black" cx="1200.81" cy="-116.61" rx="143.59" ry="26.74"/>
<text text-anchor="middle" x="1200.81" y="-120.41" font-family="Times,serif" font-size="14.00">eauto.</text>
<text text-anchor="middle" x="1200.81" y="-105.41" font-family="Times,serif" font-size="14.00">(0.061437326725527944)</text>
</g>
<!-- 8&#45;&gt;10 -->
<g id="edge16" class="edge">
<title>8&#45;&gt;10</title>
<path fill="none" stroke="black" d="M1200.81,-179.03C1200.81,-171.06 1200.81,-162.17 1200.81,-153.68"/>
<polygon fill="black" stroke="black" points="1204.31,-153.61 1200.81,-143.61 1197.31,-153.61 1204.31,-153.61"/>
</g>
<!-- 12 -->
<g id="node18" class="node">
<title>12</title>
<ellipse fill="orange" stroke="black" cx="1492.81" cy="-116.61" rx="130.63" ry="26.74"/>
<text text-anchor="middle" x="1492.81" y="-120.41" font-family="Times,serif" font-size="14.00">eauto.</text>
<text text-anchor="middle" x="1492.81" y="-105.41" font-family="Times,serif" font-size="14.00">(0.3848853715406761)</text>
</g>
<!-- 11&#45;&gt;12 -->
<g id="edge17" class="edge">
<title>11&#45;&gt;12</title>
<path fill="none" stroke="black" d="M1512.57,-179.5C1509.94,-171.27 1506.99,-162.02 1504.18,-153.23"/>
<polygon fill="black" stroke="black" points="1507.48,-152.04 1501.1,-143.58 1500.81,-154.17 1507.48,-152.04"/>
</g>
<!-- 13 -->
<g id="node19" class="node">
<title>13</title>
<ellipse fill="none" stroke="black" cx="1778.81" cy="-116.61" rx="137.36" ry="26.74"/>
<text text-anchor="middle" x="1778.81" y="-120.41" font-family="Times,serif" font-size="14.00">red.</text>
<text text-anchor="middle" x="1778.81" y="-105.41" font-family="Times,serif" font-size="14.00">(0.09055170644497793)</text>
</g>
<!-- 11&#45;&gt;13 -->
<g id="edge18" class="edge">
<title>11&#45;&gt;13</title>
<path fill="none" stroke="black" d="M1588.26,-182.41C1623.35,-170.48 1666.37,-155.85 1702.65,-143.51"/>
<polygon fill="black" stroke="black" points="1703.87,-146.8 1712.21,-140.26 1701.61,-140.17 1703.87,-146.8"/>
</g>
<!-- 19 -->
<g id="node23" class="node">
<title>19</title>
<ellipse fill="none" stroke="black" cx="2362.81" cy="-206.35" rx="130.63" ry="26.74"/>
<text text-anchor="middle" x="2362.81" y="-210.15" font-family="Times,serif" font-size="14.00">split.</text>
<text text-anchor="middle" x="2362.81" y="-195.15" font-family="Times,serif" font-size="14.00">(0.6134573110366213)</text>
</g>
<!-- 18&#45;&gt;19 -->
<g id="edge22" class="edge">
<title>18&#45;&gt;19</title>
<path fill="none" stroke="black" d="M2584.13,-273.85C2541.92,-261.17 2488.14,-245.01 2444.17,-231.8"/>
<polygon fill="black" stroke="black" points="2444.95,-228.38 2434.37,-228.85 2442.94,-235.08 2444.95,-228.38"/>
</g>
<!-- 27 -->
<g id="node24" class="node">
<title>27</title>
<ellipse fill="orange" stroke="black" cx="2654.81" cy="-206.35" rx="143.59" ry="26.74"/>
<text text-anchor="middle" x="2654.81" y="-210.15" font-family="Times,serif" font-size="14.00">simpl.</text>
<text text-anchor="middle" x="2654.81" y="-195.15" font-family="Times,serif" font-size="14.00">(0.005705375091436327)</text>
</g>
<!-- 18&#45;&gt;27 -->
<g id="edge23" class="edge">
<title>18&#45;&gt;27</title>
<path fill="none" stroke="black" d="M2654.81,-268.77C2654.81,-260.8 2654.81,-251.91 2654.81,-243.42"/>
<polygon fill="black" stroke="black" points="2658.31,-243.35 2654.81,-233.35 2651.31,-243.35 2658.31,-243.35"/>
</g>
<!-- 28 -->
<g id="node25" class="node">
<title>28</title>
<ellipse fill="orange" stroke="black" cx="2953.81" cy="-206.35" rx="137.36" ry="26.74"/>
<text text-anchor="middle" x="2953.81" y="-210.15" font-family="Times,serif" font-size="14.00">try discriminate.</text>
<text text-anchor="middle" x="2953.81" y="-195.15" font-family="Times,serif" font-size="14.00">(0.00498381584088834)</text>
</g>
<!-- 18&#45;&gt;28 -->
<g id="edge24" class="edge">
<title>18&#45;&gt;28</title>
<path fill="none" stroke="black" d="M2726.43,-274.07C2769.65,-261.39 2824.91,-245.18 2870.14,-231.91"/>
<polygon fill="black" stroke="black" points="2871.31,-235.21 2879.92,-229.03 2869.34,-228.49 2871.31,-235.21"/>
</g>
<!-- 20 -->
<g id="node26" class="node">
<title>20</title>
<ellipse fill="none" stroke="black" cx="2064.81" cy="-116.61" rx="130.63" ry="26.74"/>
<text text-anchor="middle" x="2064.81" y="-120.41" font-family="Times,serif" font-size="14.00">split.</text>
<text text-anchor="middle" x="2064.81" y="-105.41" font-family="Times,serif" font-size="14.00">(0.9811805471206294)</text>
</g>
<!-- 19&#45;&gt;20 -->
<g id="edge25" class="edge">
<title>19&#45;&gt;20</title>
<path fill="none" stroke="black" d="M2289.92,-183.89C2246.73,-171.17 2191.89,-155.03 2147.15,-141.85"/>
<polygon fill="black" stroke="black" points="2148.06,-138.47 2137.48,-139 2146.08,-145.19 2148.06,-138.47"/>
</g>
<!-- 23 -->
<g id="node27" class="node">
<title>23</title>
<ellipse fill="orange" stroke="black" cx="2356.81" cy="-116.61" rx="143.59" ry="26.74"/>
<text text-anchor="middle" x="2356.81" y="-120.41" font-family="Times,serif" font-size="14.00">eauto.</text>
<text text-anchor="middle" x="2356.81" y="-105.41" font-family="Times,serif" font-size="14.00">(0.015026014235138946)</text>
</g>
<!-- 19&#45;&gt;23 -->
<g id="edge26" class="edge">
<title>19&#45;&gt;23</title>
<path fill="none" stroke="black" d="M2361.01,-179.03C2360.47,-171.06 2359.86,-162.17 2359.28,-153.68"/>
<polygon fill="black" stroke="black" points="2362.77,-153.35 2358.59,-143.61 2355.78,-153.83 2362.77,-153.35"/>
</g>
<!-- 24 -->
<g id="node28" class="node">
<title>24</title>
<ellipse fill="orange" stroke="black" cx="2674.81" cy="-116.61" rx="156.04" ry="26.74"/>
<text text-anchor="middle" x="2674.81" y="-120.41" font-family="Times,serif" font-size="14.00">simpl.</text>
<text text-anchor="middle" x="2674.81" y="-105.41" font-family="Times,serif" font-size="14.00">(0.00033587894469941186)</text>
</g>
<!-- 19&#45;&gt;24 -->
<g id="edge27" class="edge">
<title>19&#45;&gt;24</title>
<path fill="none" stroke="black" d="M2437.94,-184.22C2482.47,-171.7 2539.14,-155.76 2585.89,-142.62"/>
<polygon fill="black" stroke="black" points="2587.03,-145.93 2595.71,-139.86 2585.14,-139.19 2587.03,-145.93"/>
</g>
<!-- 25 -->
<g id="node29" class="node">
<title>25</title>
<ellipse fill="none" stroke="black" cx="2985.81" cy="-116.61" rx="137.36" ry="26.74"/>
<text text-anchor="middle" x="2985.81" y="-120.41" font-family="Times,serif" font-size="14.00">intuition.</text>
<text text-anchor="middle" x="2985.81" y="-105.41" font-family="Times,serif" font-size="14.00">(0.00016856429281269)</text>
</g>
<!-- 19&#45;&gt;25 -->
<g id="edge28" class="edge">
<title>19&#45;&gt;25</title>
<path fill="none" stroke="black" d="M2454.99,-187.15C2470.58,-184.37 2486.63,-181.7 2501.81,-179.48 2651.3,-157.64 2690.24,-164.67 2839.81,-143.48 2852.51,-141.68 2865.79,-139.6 2878.95,-137.42"/>
<polygon fill="black" stroke="black" points="2879.69,-140.85 2888.98,-135.74 2878.53,-133.94 2879.69,-140.85"/>
</g>
<!-- 21 -->
<g id="node30" class="node">
<title>21</title>
<ellipse fill="orange" stroke="black" cx="1921.81" cy="-26.87" rx="130.63" ry="26.74"/>
<text text-anchor="middle" x="1921.81" y="-30.67" font-family="Times,serif" font-size="14.00">eauto.</text>
<text text-anchor="middle" x="1921.81" y="-15.67" font-family="Times,serif" font-size="14.00">(0.4253058200988619)</text>
</g>
<!-- 20&#45;&gt;21 -->
<g id="edge29" class="edge">
<title>20&#45;&gt;21</title>
<path fill="none" stroke="black" d="M2024.6,-90.94C2008,-80.75 1988.59,-68.84 1971.14,-58.14"/>
<polygon fill="black" stroke="black" points="1972.58,-54.91 1962.22,-52.66 1968.92,-60.88 1972.58,-54.91"/>
</g>
<!-- 22 -->
<g id="node31" class="node">
<title>22</title>
<ellipse fill="none" stroke="black" cx="2207.81" cy="-26.87" rx="137.36" ry="26.74"/>
<text text-anchor="middle" x="2207.81" y="-30.67" font-family="Times,serif" font-size="14.00">red.</text>
<text text-anchor="middle" x="2207.81" y="-15.67" font-family="Times,serif" font-size="14.00">(0.04362641445747792)</text>
</g>
<!-- 20&#45;&gt;22 -->
<g id="edge30" class="edge">
<title>20&#45;&gt;22</title>
<path fill="none" stroke="black" d="M2105.03,-90.94C2121.63,-80.75 2141.04,-68.84 2158.49,-58.14"/>
<polygon fill="black" stroke="black" points="2160.71,-60.88 2167.41,-52.66 2157.05,-54.91 2160.71,-60.88"/>
</g>
<!-- 26 -->
<g id="node32" class="node">
<title>26</title>
<ellipse fill="none" stroke="black" cx="2985.81" cy="-26.87" rx="130.63" ry="26.74"/>
<text text-anchor="middle" x="2985.81" y="-30.67" font-family="Times,serif" font-size="14.00">red.</text>
<text text-anchor="middle" x="2985.81" y="-15.67" font-family="Times,serif" font-size="14.00">(0.1825742028700543)</text>
</g>
<!-- 25&#45;&gt;26 -->
<g id="edge31" class="edge">
<title>25&#45;&gt;26</title>
<path fill="none" stroke="black" d="M2985.81,-89.29C2985.81,-81.32 2985.81,-72.43 2985.81,-63.94"/>
<polygon fill="black" stroke="black" points="2989.31,-63.87 2985.81,-53.87 2982.31,-63.87 2989.31,-63.87"/>
</g>
<!-- 33 -->
<g id="node36" class="node">
<title>33</title>
<ellipse fill="none" stroke="black" cx="3563.81" cy="-206.35" rx="130.63" ry="26.74"/>
<text text-anchor="middle" x="3563.81" y="-210.15" font-family="Times,serif" font-size="14.00">split.</text>
<text text-anchor="middle" x="3563.81" y="-195.15" font-family="Times,serif" font-size="14.00">(0.6134573110366213)</text>
</g>
<!-- 32&#45;&gt;33 -->
<g id="edge35" class="edge">
<title>32&#45;&gt;33</title>
<path fill="none" stroke="black" d="M3669.15,-270.65C3651.89,-260.28 3631.61,-248.09 3613.48,-237.2"/>
<polygon fill="black" stroke="black" points="3615.15,-234.12 3604.77,-231.96 3611.54,-240.12 3615.15,-234.12"/>
</g>
<!-- 41 -->
<g id="node37" class="node">
<title>41</title>
<ellipse fill="orange" stroke="black" cx="3855.81" cy="-206.35" rx="143.59" ry="26.74"/>
<text text-anchor="middle" x="3855.81" y="-210.15" font-family="Times,serif" font-size="14.00">simpl.</text>
<text text-anchor="middle" x="3855.81" y="-195.15" font-family="Times,serif" font-size="14.00">(0.005705375091436327)</text>
</g>
<!-- 32&#45;&gt;41 -->
<g id="edge36" class="edge">
<title>32&#45;&gt;41</title>
<path fill="none" stroke="black" d="M3750.48,-270.65C3767.67,-260.32 3787.85,-248.19 3805.92,-237.33"/>
<polygon fill="black" stroke="black" points="3807.84,-240.27 3814.6,-232.12 3804.23,-234.27 3807.84,-240.27"/>
</g>
<!-- 42 -->
<g id="node38" class="node">
<title>42</title>
<ellipse fill="orange" stroke="black" cx="4154.81" cy="-206.35" rx="137.36" ry="26.74"/>
<text text-anchor="middle" x="4154.81" y="-210.15" font-family="Times,serif" font-size="14.00">try discriminate.</text>
<text text-anchor="middle" x="4154.81" y="-195.15" font-family="Times,serif" font-size="14.00">(0.00498381584088834)</text>
</g>
<!-- 32&#45;&gt;42 -->
<g id="edge37" class="edge">
<title>32&#45;&gt;42</title>
<path fill="none" stroke="black" d="M3799.6,-277.39C3872.13,-263.09 3974.3,-242.94 4050.47,-227.92"/>
<polygon fill="black" stroke="black" points="4051.43,-231.3 4060.56,-225.93 4050.07,-224.43 4051.43,-231.3"/>
</g>
<!-- 34 -->
<g id="node39" class="node">
<title>34</title>
<ellipse fill="none" stroke="black" cx="3271.81" cy="-116.61" rx="130.63" ry="26.74"/>
<text text-anchor="middle" x="3271.81" y="-120.41" font-family="Times,serif" font-size="14.00">split.</text>
<text text-anchor="middle" x="3271.81" y="-105.41" font-family="Times,serif" font-size="14.00">(0.9811805471206294)</text>
</g>
<!-- 33&#45;&gt;34 -->
<g id="edge38" class="edge">
<title>33&#45;&gt;34</title>
<path fill="none" stroke="black" d="M3492.01,-183.77C3450.01,-171.16 3396.87,-155.19 3353.31,-142.1"/>
<polygon fill="black" stroke="black" points="3354.18,-138.7 3343.6,-139.18 3352.17,-145.41 3354.18,-138.7"/>
</g>
<!-- 37 -->
<g id="node40" class="node">
<title>37</title>
<ellipse fill="orange" stroke="black" cx="3563.81" cy="-116.61" rx="143.59" ry="26.74"/>
<text text-anchor="middle" x="3563.81" y="-120.41" font-family="Times,serif" font-size="14.00">eauto.</text>
<text text-anchor="middle" x="3563.81" y="-105.41" font-family="Times,serif" font-size="14.00">(0.015026014235138946)</text>
</g>
<!-- 33&#45;&gt;37 -->
<g id="edge39" class="edge">
<title>33&#45;&gt;37</title>
<path fill="none" stroke="black" d="M3563.81,-179.03C3563.81,-171.06 3563.81,-162.17 3563.81,-153.68"/>
<polygon fill="black" stroke="black" points="3567.31,-153.61 3563.81,-143.61 3560.31,-153.61 3567.31,-153.61"/>
</g>
<!-- 38 -->
<g id="node41" class="node">
<title>38</title>
<ellipse fill="orange" stroke="black" cx="3881.81" cy="-116.61" rx="156.04" ry="26.74"/>
<text text-anchor="middle" x="3881.81" y="-120.41" font-family="Times,serif" font-size="14.00">simpl.</text>
<text text-anchor="middle" x="3881.81" y="-105.41" font-family="Times,serif" font-size="14.00">(0.00033587894469941186)</text>
</g>
<!-- 33&#45;&gt;38 -->
<g id="edge40" class="edge">
<title>33&#45;&gt;38</title>
<path fill="none" stroke="black" d="M3639.98,-184.33C3685.62,-171.74 3743.9,-155.66 3791.8,-142.45"/>
<polygon fill="black" stroke="black" points="3792.84,-145.79 3801.55,-139.76 3790.98,-139.04 3792.84,-145.79"/>
</g>
<!-- 39 -->
<g id="node42" class="node">
<title>39</title>
<ellipse fill="none" stroke="black" cx="4192.81" cy="-116.61" rx="137.36" ry="26.74"/>
<text text-anchor="middle" x="4192.81" y="-120.41" font-family="Times,serif" font-size="14.00">intuition.</text>
<text text-anchor="middle" x="4192.81" y="-105.41" font-family="Times,serif" font-size="14.00">(0.00016856429281269)</text>
</g>
<!-- 33&#45;&gt;39 -->
<g id="edge41" class="edge">
<title>33&#45;&gt;39</title>
<path fill="none" stroke="black" d="M3655.61,-187.2C3671.32,-184.4 3687.51,-181.7 3702.81,-179.48 3854.94,-157.4 3894.59,-164.9 4046.81,-143.48 4059.51,-141.69 4072.79,-139.62 4085.95,-137.45"/>
<polygon fill="black" stroke="black" points="4086.7,-140.87 4095.98,-135.76 4085.54,-133.97 4086.7,-140.87"/>
</g>
<!-- 35 -->
<g id="node43" class="node">
<title>35</title>
<ellipse fill="orange" stroke="black" cx="3268.81" cy="-26.87" rx="130.63" ry="26.74"/>
<text text-anchor="middle" x="3268.81" y="-30.67" font-family="Times,serif" font-size="14.00">eauto.</text>
<text text-anchor="middle" x="3268.81" y="-15.67" font-family="Times,serif" font-size="14.00">(0.4253058200988619)</text>
</g>
<!-- 34&#45;&gt;35 -->
<g id="edge42" class="edge">
<title>34&#45;&gt;35</title>
<path fill="none" stroke="black" d="M3270.91,-89.29C3270.64,-81.32 3270.34,-72.43 3270.05,-63.94"/>
<polygon fill="black" stroke="black" points="3273.54,-63.75 3269.7,-53.87 3266.55,-63.99 3273.54,-63.75"/>
</g>
<!-- 36 -->
<g id="node44" class="node">
<title>36</title>
<ellipse fill="none" stroke="black" cx="3554.81" cy="-26.87" rx="137.36" ry="26.74"/>
<text text-anchor="middle" x="3554.81" y="-30.67" font-family="Times,serif" font-size="14.00">red.</text>
<text text-anchor="middle" x="3554.81" y="-15.67" font-family="Times,serif" font-size="14.00">(0.04362641445747792)</text>
</g>
<!-- 34&#45;&gt;36 -->
<g id="edge43" class="edge">
<title>34&#45;&gt;36</title>
<path fill="none" stroke="black" d="M3342.13,-93.81C3382.08,-81.43 3432.25,-65.87 3473.83,-52.98"/>
<polygon fill="black" stroke="black" points="3474.87,-56.32 3483.38,-50.02 3472.79,-49.63 3474.87,-56.32"/>
</g>
<!-- 40 -->
<g id="node45" class="node">
<title>40</title>
<ellipse fill="none" stroke="black" cx="4192.81" cy="-26.87" rx="130.63" ry="26.74"/>
<text text-anchor="middle" x="4192.81" y="-30.67" font-family="Times,serif" font-size="14.00">red.</text>
<text text-anchor="middle" x="4192.81" y="-15.67" font-family="Times,serif" font-size="14.00">(0.1825742028700543)</text>
</g>
<!-- 39&#45;&gt;40 -->
<g id="edge44" class="edge">
<title>39&#45;&gt;40</title>
<path fill="none" stroke="black" d="M4192.81,-89.29C4192.81,-81.32 4192.81,-72.43 4192.81,-63.94"/>
<polygon fill="black" stroke="black" points="4196.31,-63.87 4192.81,-53.87 4189.31,-63.87 4196.31,-63.87"/>
</g>
</g>
</svg>
