<?xml version="1.0" encoding="UTF-8" standalone="no"?>
<!DOCTYPE svg PUBLIC "-//W3C//DTD SVG 1.1//EN"
 "http://www.w3.org/Graphics/SVG/1.1/DTD/svg11.dtd">
<!-- Generated by graphviz version 2.43.0 (0)
 -->
<!-- Pages: 1 -->
<svg width="1026pt" height="331pt"
 viewBox="0.00 0.00 1025.72 330.96" xmlns="http://www.w3.org/2000/svg" xmlns:xlink="http://www.w3.org/1999/xlink">
<g id="graph0" class="graph" transform="scale(1 1) rotate(0) translate(4 326.96)">
<polygon fill="white" stroke="transparent" points="-4,4 -4,-326.96 1021.72,-326.96 1021.72,4 -4,4"/>
<!-- 0 -->
<g id="node1" class="node">
<title>0</title>
<ellipse fill="none" stroke="black" cx="423.18" cy="-296.09" rx="125.73" ry="26.74"/>
<text text-anchor="middle" x="423.18" y="-299.89" font-family="Times,serif" font-size="14.00">orthogonal_bissectrice</text>
<text text-anchor="middle" x="423.18" y="-284.89" font-family="Times,serif" font-size="14.00">(1.0)</text>
</g>
<!-- 1 -->
<g id="node2" class="node">
<title>1</title>
<ellipse fill="none" stroke="black" cx="137.18" cy="-206.35" rx="130.63" ry="26.74"/>
<text text-anchor="middle" x="137.18" y="-210.15" font-family="Times,serif" font-size="14.00">intros.</text>
<text text-anchor="middle" x="137.18" y="-195.15" font-family="Times,serif" font-size="14.00">(0.9679191759392607)</text>
</g>
<!-- 0&#45;&gt;1 -->
<g id="edge1" class="edge">
<title>0&#45;&gt;1</title>
<path fill="none" stroke="black" d="M353.22,-273.63C312.25,-261.06 260.36,-245.14 217.7,-232.05"/>
<polygon fill="black" stroke="black" points="218.5,-228.64 207.91,-229.05 216.44,-235.33 218.5,-228.64"/>
</g>
<!-- 3 -->
<g id="node3" class="node">
<title>3</title>
<ellipse fill="orange" stroke="black" cx="423.18" cy="-206.35" rx="137.36" ry="26.74"/>
<text text-anchor="middle" x="423.18" y="-210.15" font-family="Times,serif" font-size="14.00">simpl.</text>
<text text-anchor="middle" x="423.18" y="-195.15" font-family="Times,serif" font-size="14.00">(0.00991868296029472)</text>
</g>
<!-- 0&#45;&gt;3 -->
<g id="edge2" class="edge">
<title>0&#45;&gt;3</title>
<path fill="none" stroke="black" d="M423.18,-268.77C423.18,-260.8 423.18,-251.91 423.18,-243.42"/>
<polygon fill="black" stroke="black" points="426.68,-243.35 423.18,-233.35 419.68,-243.35 426.68,-243.35"/>
</g>
<!-- 4 -->
<g id="node4" class="node">
<title>4</title>
<ellipse fill="none" stroke="black" cx="728.18" cy="-206.35" rx="149.81" ry="26.74"/>
<text text-anchor="middle" x="728.18" y="-210.15" font-family="Times,serif" font-size="14.00">unfold orthogonal.</text>
<text text-anchor="middle" x="728.18" y="-195.15" font-family="Times,serif" font-size="14.00">(0.0037972262204410247)</text>
</g>
<!-- 0&#45;&gt;4 -->
<g id="edge3" class="edge">
<title>0&#45;&gt;4</title>
<path fill="none" stroke="black" d="M496.23,-274.07C539.92,-261.51 595.67,-245.47 641.56,-232.27"/>
<polygon fill="black" stroke="black" points="642.55,-235.62 651.2,-229.5 640.62,-228.9 642.55,-235.62"/>
</g>
<!-- 2 -->
<g id="node5" class="node">
<title>2</title>
<ellipse fill="orange" stroke="black" cx="137.18" cy="-116.61" rx="137.36" ry="26.74"/>
<text text-anchor="middle" x="137.18" y="-120.41" font-family="Times,serif" font-size="14.00">simpl.</text>
<text text-anchor="middle" x="137.18" y="-105.41" font-family="Times,serif" font-size="14.00">(0.07708580166298494)</text>
</g>
<!-- 1&#45;&gt;2 -->
<g id="edge4" class="edge">
<title>1&#45;&gt;2</title>
<path fill="none" stroke="black" d="M137.18,-179.03C137.18,-171.06 137.18,-162.17 137.18,-153.68"/>
<polygon fill="black" stroke="black" points="140.68,-153.61 137.18,-143.61 133.68,-153.61 140.68,-153.61"/>
</g>
<!-- 5 -->
<g id="node6" class="node">
<title>5</title>
<ellipse fill="none" stroke="black" cx="582.18" cy="-116.61" rx="130.63" ry="26.74"/>
<text text-anchor="middle" x="582.18" y="-120.41" font-family="Times,serif" font-size="14.00">intros.</text>
<text text-anchor="middle" x="582.18" y="-105.41" font-family="Times,serif" font-size="14.00">(0.9858238739549998)</text>
</g>
<!-- 4&#45;&gt;5 -->
<g id="edge5" class="edge">
<title>4&#45;&gt;5</title>
<path fill="none" stroke="black" d="M686.73,-180.44C669.63,-170.17 649.68,-158.17 631.81,-147.43"/>
<polygon fill="black" stroke="black" points="633.6,-144.43 623.22,-142.28 629.99,-150.43 633.6,-144.43"/>
</g>
<!-- 7 -->
<g id="node7" class="node">
<title>7</title>
<ellipse fill="orange" stroke="black" cx="874.18" cy="-116.61" rx="143.59" ry="26.74"/>
<text text-anchor="middle" x="874.18" y="-120.41" font-family="Times,serif" font-size="14.00">simpl.</text>
<text text-anchor="middle" x="874.18" y="-105.41" font-family="Times,serif" font-size="14.00">(0.008342564778255786)</text>
</g>
<!-- 4&#45;&gt;7 -->
<g id="edge6" class="edge">
<title>4&#45;&gt;7</title>
<path fill="none" stroke="black" d="M769.63,-180.44C786.5,-170.3 806.15,-158.49 823.84,-147.86"/>
<polygon fill="black" stroke="black" points="826.11,-150.58 832.88,-142.43 822.51,-144.58 826.11,-150.58"/>
</g>
<!-- 6 -->
<g id="node8" class="node">
<title>6</title>
<ellipse fill="orange" stroke="black" cx="582.18" cy="-26.87" rx="137.36" ry="26.74"/>
<text text-anchor="middle" x="582.18" y="-30.67" font-family="Times,serif" font-size="14.00">simpl.</text>
<text text-anchor="middle" x="582.18" y="-15.67" font-family="Times,serif" font-size="14.00">(0.04335784960375788)</text>
</g>
<!-- 5&#45;&gt;6 -->
<g id="edge7" class="edge">
<title>5&#45;&gt;6</title>
<path fill="none" stroke="black" d="M582.18,-89.29C582.18,-81.32 582.18,-72.43 582.18,-63.94"/>
<polygon fill="black" stroke="black" points="585.68,-63.87 582.18,-53.87 578.68,-63.87 585.68,-63.87"/>
</g>
</g>
</svg>
