<?xml version="1.0" encoding="UTF-8" standalone="no"?>
<!DOCTYPE svg PUBLIC "-//W3C//DTD SVG 1.1//EN"
 "http://www.w3.org/Graphics/SVG/1.1/DTD/svg11.dtd">
<!-- Generated by graphviz version 2.43.0 (0)
 -->
<!-- Pages: 1 -->
<svg width="1340pt" height="421pt"
 viewBox="0.00 0.00 1340.09 420.70" xmlns="http://www.w3.org/2000/svg" xmlns:xlink="http://www.w3.org/1999/xlink">
<g id="graph0" class="graph" transform="scale(1 1) rotate(0) translate(4 416.7)">
<polygon fill="white" stroke="transparent" points="-4,4 -4,-416.7 1336.09,-416.7 1336.09,4 -4,4"/>
<!-- 0 -->
<g id="node1" class="node">
<title>0</title>
<ellipse fill="none" stroke="black" cx="650.18" cy="-385.83" rx="159.2" ry="26.74"/>
<text text-anchor="middle" x="650.18" y="-389.63" font-family="Times,serif" font-size="14.00">changement_base_cocyclique</text>
<text text-anchor="middle" x="650.18" y="-374.63" font-family="Times,serif" font-size="14.00">(1.0)</text>
</g>
<!-- 1 -->
<g id="node2" class="node">
<title>1</title>
<ellipse fill="none" stroke="black" cx="280.18" cy="-296.09" rx="130.63" ry="26.74"/>
<text text-anchor="middle" x="280.18" y="-299.89" font-family="Times,serif" font-size="14.00">intros.</text>
<text text-anchor="middle" x="280.18" y="-284.89" font-family="Times,serif" font-size="14.00">(0.9762836601363724)</text>
</g>
<!-- 0&#45;&gt;1 -->
<g id="edge1" class="edge">
<title>0&#45;&gt;1</title>
<path fill="none" stroke="black" d="M560.61,-363.59C503.9,-350.14 430.72,-332.79 373.33,-319.18"/>
<polygon fill="black" stroke="black" points="374.07,-315.76 363.53,-316.86 372.46,-322.57 374.07,-315.76"/>
</g>
<!-- 3 -->
<g id="node3" class="node">
<title>3</title>
<ellipse fill="none" stroke="black" cx="650.18" cy="-296.09" rx="149.81" ry="26.74"/>
<text text-anchor="middle" x="650.18" y="-299.89" font-family="Times,serif" font-size="14.00">unfold colineaire.</text>
<text text-anchor="middle" x="650.18" y="-284.89" font-family="Times,serif" font-size="14.00">(0.0020619836974094985)</text>
</g>
<!-- 0&#45;&gt;3 -->
<g id="edge2" class="edge">
<title>0&#45;&gt;3</title>
<path fill="none" stroke="black" d="M650.18,-358.51C650.18,-350.54 650.18,-341.65 650.18,-333.16"/>
<polygon fill="black" stroke="black" points="653.68,-333.09 650.18,-323.09 646.68,-333.09 653.68,-333.09"/>
</g>
<!-- 11 -->
<g id="node4" class="node">
<title>11</title>
<ellipse fill="orange" stroke="black" cx="968.18" cy="-296.09" rx="149.81" ry="26.74"/>
<text text-anchor="middle" x="968.18" y="-299.89" font-family="Times,serif" font-size="14.00">simpl.</text>
<text text-anchor="middle" x="968.18" y="-284.89" font-family="Times,serif" font-size="14.00">(0.0012035860788792835)</text>
</g>
<!-- 0&#45;&gt;11 -->
<g id="edge3" class="edge">
<title>0&#45;&gt;11</title>
<path fill="none" stroke="black" d="M730.83,-362.58C776.1,-350.09 832.66,-334.48 879.21,-321.64"/>
<polygon fill="black" stroke="black" points="880.28,-324.97 888.98,-318.94 878.41,-318.23 880.28,-324.97"/>
</g>
<!-- 2 -->
<g id="node5" class="node">
<title>2</title>
<ellipse fill="orange" stroke="black" cx="137.18" cy="-206.35" rx="137.36" ry="26.74"/>
<text text-anchor="middle" x="137.18" y="-210.15" font-family="Times,serif" font-size="14.00">simpl.</text>
<text text-anchor="middle" x="137.18" y="-195.15" font-family="Times,serif" font-size="14.00">(0.04402969663281317)</text>
</g>
<!-- 1&#45;&gt;2 -->
<g id="edge4" class="edge">
<title>1&#45;&gt;2</title>
<path fill="none" stroke="black" d="M239.96,-270.42C223.36,-260.23 203.96,-248.32 186.51,-237.62"/>
<polygon fill="black" stroke="black" points="187.94,-234.39 177.59,-232.14 184.28,-240.36 187.94,-234.39"/>
</g>
<!-- 4 -->
<g id="node6" class="node">
<title>4</title>
<ellipse fill="none" stroke="black" cx="423.18" cy="-206.35" rx="130.63" ry="26.74"/>
<text text-anchor="middle" x="423.18" y="-210.15" font-family="Times,serif" font-size="14.00">intros.</text>
<text text-anchor="middle" x="423.18" y="-195.15" font-family="Times,serif" font-size="14.00">(0.9913993941136613)</text>
</g>
<!-- 3&#45;&gt;4 -->
<g id="edge5" class="edge">
<title>3&#45;&gt;4</title>
<path fill="none" stroke="black" d="M589.05,-271.46C559.18,-259.92 523.11,-245.98 492.25,-234.05"/>
<polygon fill="black" stroke="black" points="493.44,-230.75 482.85,-230.41 490.91,-237.28 493.44,-230.75"/>
</g>
<!-- 6 -->
<g id="node7" class="node">
<title>6</title>
<ellipse fill="orange" stroke="black" cx="722.18" cy="-206.35" rx="149.81" ry="26.74"/>
<text text-anchor="middle" x="722.18" y="-210.15" font-family="Times,serif" font-size="14.00">simpl.</text>
<text text-anchor="middle" x="722.18" y="-195.15" font-family="Times,serif" font-size="14.00">(0.0012726667733572279)</text>
</g>
<!-- 3&#45;&gt;6 -->
<g id="edge6" class="edge">
<title>3&#45;&gt;6</title>
<path fill="none" stroke="black" d="M671.39,-269.24C678.64,-260.4 686.86,-250.39 694.54,-241.03"/>
<polygon fill="black" stroke="black" points="697.48,-242.97 701.12,-233.02 692.07,-238.53 697.48,-242.97"/>
</g>
<!-- 7 -->
<g id="node8" class="node">
<title>7</title>
<ellipse fill="none" stroke="black" cx="1033.18" cy="-206.35" rx="143.59" ry="26.74"/>
<text text-anchor="middle" x="1033.18" y="-210.15" font-family="Times,serif" font-size="14.00">unfold double.</text>
<text text-anchor="middle" x="1033.18" y="-195.15" font-family="Times,serif" font-size="14.00">(0.000716175880629279)</text>
</g>
<!-- 3&#45;&gt;7 -->
<g id="edge7" class="edge">
<title>3&#45;&gt;7</title>
<path fill="none" stroke="black" d="M739.98,-274.52C798.51,-261.11 874.91,-243.61 935.05,-229.83"/>
<polygon fill="black" stroke="black" points="935.97,-233.21 944.94,-227.57 934.41,-226.39 935.97,-233.21"/>
</g>
<!-- 5 -->
<g id="node9" class="node">
<title>5</title>
<ellipse fill="orange" stroke="black" cx="423.18" cy="-116.61" rx="137.36" ry="26.74"/>
<text text-anchor="middle" x="423.18" y="-120.41" font-family="Times,serif" font-size="14.00">simpl.</text>
<text text-anchor="middle" x="423.18" y="-105.41" font-family="Times,serif" font-size="14.00">(0.04398596479474879)</text>
</g>
<!-- 4&#45;&gt;5 -->
<g id="edge8" class="edge">
<title>4&#45;&gt;5</title>
<path fill="none" stroke="black" d="M423.18,-179.03C423.18,-171.06 423.18,-162.17 423.18,-153.68"/>
<polygon fill="black" stroke="black" points="426.68,-153.61 423.18,-143.61 419.68,-153.61 426.68,-153.61"/>
</g>
<!-- 8 -->
<g id="node10" class="node">
<title>8</title>
<ellipse fill="none" stroke="black" cx="883.18" cy="-116.61" rx="130.63" ry="26.74"/>
<text text-anchor="middle" x="883.18" y="-120.41" font-family="Times,serif" font-size="14.00">intros.</text>
<text text-anchor="middle" x="883.18" y="-105.41" font-family="Times,serif" font-size="14.00">(0.9914228289886552)</text>
</g>
<!-- 7&#45;&gt;8 -->
<g id="edge9" class="edge">
<title>7&#45;&gt;8</title>
<path fill="none" stroke="black" d="M990.6,-180.44C972.96,-170.12 952.35,-158.07 933.93,-147.3"/>
<polygon fill="black" stroke="black" points="935.49,-144.15 925.09,-142.13 931.95,-150.2 935.49,-144.15"/>
</g>
<!-- 10 -->
<g id="node11" class="node">
<title>10</title>
<ellipse fill="orange" stroke="black" cx="1182.18" cy="-116.61" rx="149.81" ry="26.74"/>
<text text-anchor="middle" x="1182.18" y="-120.41" font-family="Times,serif" font-size="14.00">simpl.</text>
<text text-anchor="middle" x="1182.18" y="-105.41" font-family="Times,serif" font-size="14.00">(0.0012726971164593217)</text>
</g>
<!-- 7&#45;&gt;10 -->
<g id="edge10" class="edge">
<title>7&#45;&gt;10</title>
<path fill="none" stroke="black" d="M1075.48,-180.44C1092.85,-170.21 1113.12,-158.27 1131.3,-147.57"/>
<polygon fill="black" stroke="black" points="1133.19,-150.52 1140.03,-142.43 1129.64,-144.49 1133.19,-150.52"/>
</g>
<!-- 9 -->
<g id="node12" class="node">
<title>9</title>
<ellipse fill="orange" stroke="black" cx="883.18" cy="-26.87" rx="143.59" ry="26.74"/>
<text text-anchor="middle" x="883.18" y="-30.67" font-family="Times,serif" font-size="14.00">simpl.</text>
<text text-anchor="middle" x="883.18" y="-15.67" font-family="Times,serif" font-size="14.00">(0.038938738091981416)</text>
</g>
<!-- 8&#45;&gt;9 -->
<g id="edge11" class="edge">
<title>8&#45;&gt;9</title>
<path fill="none" stroke="black" d="M883.18,-89.29C883.18,-81.32 883.18,-72.43 883.18,-63.94"/>
<polygon fill="black" stroke="black" points="886.68,-63.87 883.18,-53.87 879.68,-63.87 886.68,-63.87"/>
</g>
</g>
</svg>
