<?xml version="1.0" encoding="UTF-8" standalone="no"?>
<!DOCTYPE svg PUBLIC "-//W3C//DTD SVG 1.1//EN"
 "http://www.w3.org/Graphics/SVG/1.1/DTD/svg11.dtd">
<!-- Generated by graphviz version 2.43.0 (0)
 -->
<!-- Pages: 1 -->
<svg width="1250pt" height="331pt"
 viewBox="0.00 0.00 1249.72 330.96" xmlns="http://www.w3.org/2000/svg" xmlns:xlink="http://www.w3.org/1999/xlink">
<g id="graph0" class="graph" transform="scale(1 1) rotate(0) translate(4 326.96)">
<polygon fill="white" stroke="transparent" points="-4,4 -4,-326.96 1245.72,-326.96 1245.72,4 -4,4"/>
<!-- 0 -->
<g id="node1" class="node">
<title>0</title>
<ellipse fill="none" stroke="black" cx="559.81" cy="-296.09" rx="105.22" ry="26.74"/>
<text text-anchor="middle" x="559.81" y="-299.89" font-family="Times,serif" font-size="14.00">bissectrice_double</text>
<text text-anchor="middle" x="559.81" y="-284.89" font-family="Times,serif" font-size="14.00">(1.0)</text>
</g>
<!-- 1 -->
<g id="node2" class="node">
<title>1</title>
<ellipse fill="none" stroke="black" cx="273.81" cy="-206.35" rx="124.4" ry="26.74"/>
<text text-anchor="middle" x="273.81" y="-210.15" font-family="Times,serif" font-size="14.00">intros.</text>
<text text-anchor="middle" x="273.81" y="-195.15" font-family="Times,serif" font-size="14.00">(0.986781985256184)</text>
</g>
<!-- 0&#45;&gt;1 -->
<g id="edge1" class="edge">
<title>0&#45;&gt;1</title>
<path fill="none" stroke="black" d="M494.2,-274.96C452.18,-262.07 397.4,-245.26 352.97,-231.63"/>
<polygon fill="black" stroke="black" points="353.95,-228.27 343.36,-228.69 351.9,-234.97 353.95,-228.27"/>
</g>
<!-- 5 -->
<g id="node3" class="node">
<title>5</title>
<ellipse fill="orange" stroke="black" cx="559.81" cy="-206.35" rx="143.59" ry="26.74"/>
<text text-anchor="middle" x="559.81" y="-210.15" font-family="Times,serif" font-size="14.00">simpl.</text>
<text text-anchor="middle" x="559.81" y="-195.15" font-family="Times,serif" font-size="14.00">(0.008702408896848132)</text>
</g>
<!-- 0&#45;&gt;5 -->
<g id="edge2" class="edge">
<title>0&#45;&gt;5</title>
<path fill="none" stroke="black" d="M559.81,-268.77C559.81,-260.8 559.81,-251.91 559.81,-243.42"/>
<polygon fill="black" stroke="black" points="563.31,-243.35 559.81,-233.35 556.31,-243.35 563.31,-243.35"/>
</g>
<!-- 6 -->
<g id="node4" class="node">
<title>6</title>
<ellipse fill="none" stroke="black" cx="870.81" cy="-206.35" rx="149.81" ry="26.74"/>
<text text-anchor="middle" x="870.81" y="-210.15" font-family="Times,serif" font-size="14.00">unfold bissectrice.</text>
<text text-anchor="middle" x="870.81" y="-195.15" font-family="Times,serif" font-size="14.00">(0.0007598896868594681)</text>
</g>
<!-- 0&#45;&gt;6 -->
<g id="edge3" class="edge">
<title>0&#45;&gt;6</title>
<path fill="none" stroke="black" d="M628.84,-275.62C674.29,-262.79 734.2,-245.89 783.03,-232.12"/>
<polygon fill="black" stroke="black" points="784.29,-235.4 792.96,-229.31 782.39,-228.66 784.29,-235.4"/>
</g>
<!-- 2 -->
<g id="node5" class="node">
<title>2</title>
<ellipse fill="orange" stroke="black" cx="130.81" cy="-116.61" rx="130.63" ry="26.74"/>
<text text-anchor="middle" x="130.81" y="-120.41" font-family="Times,serif" font-size="14.00">simpl.</text>
<text text-anchor="middle" x="130.81" y="-105.41" font-family="Times,serif" font-size="14.00">(0.2639600012138383)</text>
</g>
<!-- 1&#45;&gt;2 -->
<g id="edge4" class="edge">
<title>1&#45;&gt;2</title>
<path fill="none" stroke="black" d="M233.6,-180.68C217,-170.49 197.59,-158.58 180.14,-147.88"/>
<polygon fill="black" stroke="black" points="181.58,-144.65 171.22,-142.4 177.92,-150.62 181.58,-144.65"/>
</g>
<!-- 3 -->
<g id="node6" class="node">
<title>3</title>
<ellipse fill="none" stroke="black" cx="422.81" cy="-116.61" rx="143.59" ry="26.74"/>
<text text-anchor="middle" x="422.81" y="-120.41" font-family="Times,serif" font-size="14.00">unfold double.</text>
<text text-anchor="middle" x="422.81" y="-105.41" font-family="Times,serif" font-size="14.00">(0.010541877347012252)</text>
</g>
<!-- 1&#45;&gt;3 -->
<g id="edge5" class="edge">
<title>1&#45;&gt;3</title>
<path fill="none" stroke="black" d="M315.32,-180.91C332.86,-170.58 353.45,-158.45 371.9,-147.59"/>
<polygon fill="black" stroke="black" points="373.92,-150.47 380.76,-142.38 370.36,-144.43 373.92,-150.47"/>
</g>
<!-- 7 -->
<g id="node8" class="node">
<title>7</title>
<ellipse fill="none" stroke="black" cx="792.81" cy="-116.61" rx="130.63" ry="26.74"/>
<text text-anchor="middle" x="792.81" y="-120.41" font-family="Times,serif" font-size="14.00">intros.</text>
<text text-anchor="middle" x="792.81" y="-105.41" font-family="Times,serif" font-size="14.00">(0.9964909147122528)</text>
</g>
<!-- 6&#45;&gt;7 -->
<g id="edge7" class="edge">
<title>6&#45;&gt;7</title>
<path fill="none" stroke="black" d="M847.83,-179.5C839.9,-170.57 830.89,-160.45 822.5,-151"/>
<polygon fill="black" stroke="black" points="824.89,-148.42 815.63,-143.28 819.66,-153.07 824.89,-148.42"/>
</g>
<!-- 9 -->
<g id="node9" class="node">
<title>9</title>
<ellipse fill="orange" stroke="black" cx="1091.81" cy="-116.61" rx="149.81" ry="26.74"/>
<text text-anchor="middle" x="1091.81" y="-120.41" font-family="Times,serif" font-size="14.00">simpl.</text>
<text text-anchor="middle" x="1091.81" y="-105.41" font-family="Times,serif" font-size="14.00">(0.0005391655454583778)</text>
</g>
<!-- 6&#45;&gt;9 -->
<g id="edge8" class="edge">
<title>6&#45;&gt;9</title>
<path fill="none" stroke="black" d="M930.62,-181.61C959,-170.34 993.07,-156.81 1022.56,-145.11"/>
<polygon fill="black" stroke="black" points="1023.96,-148.32 1031.96,-141.37 1021.38,-141.81 1023.96,-148.32"/>
</g>
<!-- 4 -->
<g id="node7" class="node">
<title>4</title>
<ellipse fill="orange" stroke="black" cx="422.81" cy="-26.87" rx="130.63" ry="26.74"/>
<text text-anchor="middle" x="422.81" y="-30.67" font-family="Times,serif" font-size="14.00">simpl.</text>
<text text-anchor="middle" x="422.81" y="-15.67" font-family="Times,serif" font-size="14.00">(0.3327332910463466)</text>
</g>
<!-- 3&#45;&gt;4 -->
<g id="edge6" class="edge">
<title>3&#45;&gt;4</title>
<path fill="none" stroke="black" d="M422.81,-89.29C422.81,-81.32 422.81,-72.43 422.81,-63.94"/>
<polygon fill="black" stroke="black" points="426.31,-63.87 422.81,-53.87 419.31,-63.87 426.31,-63.87"/>
</g>
<!-- 8 -->
<g id="node10" class="node">
<title>8</title>
<ellipse fill="orange" stroke="black" cx="792.81" cy="-26.87" rx="137.36" ry="26.74"/>
<text text-anchor="middle" x="792.81" y="-30.67" font-family="Times,serif" font-size="14.00">simpl.</text>
<text text-anchor="middle" x="792.81" y="-15.67" font-family="Times,serif" font-size="14.00">(0.16803799513824583)</text>
</g>
<!-- 7&#45;&gt;8 -->
<g id="edge9" class="edge">
<title>7&#45;&gt;8</title>
<path fill="none" stroke="black" d="M792.81,-89.29C792.81,-81.32 792.81,-72.43 792.81,-63.94"/>
<polygon fill="black" stroke="black" points="796.31,-63.87 792.81,-53.87 789.31,-63.87 796.31,-63.87"/>
</g>
</g>
</svg>
