<?xml version="1.0" encoding="UTF-8" standalone="no"?>
<!DOCTYPE svg PUBLIC "-//W3C//DTD SVG 1.1//EN"
 "http://www.w3.org/Graphics/SVG/1.1/DTD/svg11.dtd">
<!-- Generated by graphviz version 2.43.0 (0)
 -->
<!-- Pages: 1 -->
<svg width="5444pt" height="600pt"
 viewBox="0.00 0.00 5444.36 600.18" xmlns="http://www.w3.org/2000/svg" xmlns:xlink="http://www.w3.org/1999/xlink">
<g id="graph0" class="graph" transform="scale(1 1) rotate(0) translate(4 596.18)">
<polygon fill="white" stroke="transparent" points="-4,4 -4,-596.18 5440.36,-596.18 5440.36,4 -4,4"/>
<!-- 0 -->
<g id="node1" class="node">
<title>0</title>
<ellipse fill="none" stroke="black" cx="1923.18" cy="-565.31" rx="120.42" ry="26.74"/>
<text text-anchor="middle" x="1923.18" y="-569.11" font-family="Times,serif" font-size="14.00">orthogonal_colineaire</text>
<text text-anchor="middle" x="1923.18" y="-554.11" font-family="Times,serif" font-size="14.00">(1.0)</text>
</g>
<!-- 1 -->
<g id="node2" class="node">
<title>1</title>
<ellipse fill="none" stroke="black" cx="888.18" cy="-475.57" rx="130.63" ry="26.74"/>
<text text-anchor="middle" x="888.18" y="-479.37" font-family="Times,serif" font-size="14.00">intros.</text>
<text text-anchor="middle" x="888.18" y="-464.37" font-family="Times,serif" font-size="14.00">(0.9360848186676382)</text>
</g>
<!-- 0&#45;&gt;1 -->
<g id="edge1" class="edge">
<title>0&#45;&gt;1</title>
<path fill="none" stroke="black" d="M1811.92,-554.88C1618.87,-538.51 1222.88,-504.94 1017.75,-487.56"/>
<polygon fill="black" stroke="black" points="1017.79,-484.05 1007.53,-486.69 1017.2,-491.02 1017.79,-484.05"/>
</g>
<!-- 5 -->
<g id="node3" class="node">
<title>5</title>
<ellipse fill="none" stroke="black" cx="1469.18" cy="-475.57" rx="143.59" ry="26.74"/>
<text text-anchor="middle" x="1469.18" y="-479.37" font-family="Times,serif" font-size="14.00">unfold orthogonal.</text>
<text text-anchor="middle" x="1469.18" y="-464.37" font-family="Times,serif" font-size="14.00">(0.010429086426275961)</text>
</g>
<!-- 0&#45;&gt;5 -->
<g id="edge2" class="edge">
<title>0&#45;&gt;5</title>
<path fill="none" stroke="black" d="M1834.3,-547.13C1760.4,-532.85 1655,-512.48 1576.43,-497.3"/>
<polygon fill="black" stroke="black" points="1576.98,-493.84 1566.5,-495.38 1575.65,-500.71 1576.98,-493.84"/>
</g>
<!-- 15 -->
<g id="node4" class="node">
<title>15</title>
<ellipse fill="none" stroke="black" cx="2383.18" cy="-475.57" rx="143.59" ry="26.74"/>
<text text-anchor="middle" x="2383.18" y="-479.37" font-family="Times,serif" font-size="14.00">unfold colineaire.</text>
<text text-anchor="middle" x="2383.18" y="-464.37" font-family="Times,serif" font-size="14.00">(0.006692423630254224)</text>
</g>
<!-- 0&#45;&gt;15 -->
<g id="edge3" class="edge">
<title>0&#45;&gt;15</title>
<path fill="none" stroke="black" d="M2012.42,-547.29C2087.46,-532.98 2194.98,-512.47 2274.93,-497.22"/>
<polygon fill="black" stroke="black" points="2275.86,-500.6 2285.03,-495.29 2274.55,-493.73 2275.86,-500.6"/>
</g>
<!-- 45 -->
<g id="node5" class="node">
<title>45</title>
<ellipse fill="none" stroke="black" cx="4556.18" cy="-475.57" rx="149.81" ry="26.74"/>
<text text-anchor="middle" x="4556.18" y="-479.37" font-family="Times,serif" font-size="14.00">unfold orthogonal.</text>
<text text-anchor="middle" x="4556.18" y="-464.37" font-family="Times,serif" font-size="14.00">(0.0008481237371060775)</text>
</g>
<!-- 0&#45;&gt;45 -->
<g id="edge4" class="edge">
<title>0&#45;&gt;45</title>
<path fill="none" stroke="black" d="M2041.43,-560.37C2466.55,-546.2 3917.64,-497.85 4399.34,-481.8"/>
<polygon fill="black" stroke="black" points="4399.62,-485.29 4409.49,-481.46 4399.38,-478.29 4399.62,-485.29"/>
</g>
<!-- 2 -->
<g id="node6" class="node">
<title>2</title>
<ellipse fill="none" stroke="black" cx="429.18" cy="-385.83" rx="137.36" ry="26.74"/>
<text text-anchor="middle" x="429.18" y="-389.63" font-family="Times,serif" font-size="14.00">red.</text>
<text text-anchor="middle" x="429.18" y="-374.63" font-family="Times,serif" font-size="14.00">(0.07831834072118427)</text>
</g>
<!-- 1&#45;&gt;2 -->
<g id="edge5" class="edge">
<title>1&#45;&gt;2</title>
<path fill="none" stroke="black" d="M794.74,-456.71C719.33,-442.29 613.24,-422.02 534.77,-407.01"/>
<polygon fill="black" stroke="black" points="535.33,-403.56 524.85,-405.12 534.02,-410.43 535.33,-403.56"/>
</g>
<!-- 6 -->
<g id="node9" class="node">
<title>6</title>
<ellipse fill="none" stroke="black" cx="1028.18" cy="-385.83" rx="130.63" ry="26.74"/>
<text text-anchor="middle" x="1028.18" y="-389.63" font-family="Times,serif" font-size="14.00">intros.</text>
<text text-anchor="middle" x="1028.18" y="-374.63" font-family="Times,serif" font-size="14.00">(0.9794153222786418)</text>
</g>
<!-- 5&#45;&gt;6 -->
<g id="edge8" class="edge">
<title>5&#45;&gt;6</title>
<path fill="none" stroke="black" d="M1373.49,-455.53C1301.63,-441.24 1203.41,-421.69 1130.09,-407.11"/>
<polygon fill="black" stroke="black" points="1130.4,-403.6 1119.91,-405.08 1129.03,-410.47 1130.4,-403.6"/>
</g>
<!-- 10 -->
<g id="node10" class="node">
<title>10</title>
<ellipse fill="orange" stroke="black" cx="1314.18" cy="-385.83" rx="137.36" ry="26.74"/>
<text text-anchor="middle" x="1314.18" y="-389.63" font-family="Times,serif" font-size="14.00">simpl.</text>
<text text-anchor="middle" x="1314.18" y="-374.63" font-family="Times,serif" font-size="14.00">(0.00688623714199191)</text>
</g>
<!-- 5&#45;&gt;10 -->
<g id="edge9" class="edge">
<title>5&#45;&gt;10</title>
<path fill="none" stroke="black" d="M1425.59,-449.9C1407.27,-439.53 1385.8,-427.37 1366.63,-416.52"/>
<polygon fill="black" stroke="black" points="1368.14,-413.35 1357.71,-411.47 1364.69,-419.44 1368.14,-413.35"/>
</g>
<!-- 11 -->
<g id="node11" class="node">
<title>11</title>
<ellipse fill="none" stroke="black" cx="1625.18" cy="-385.83" rx="156.04" ry="26.74"/>
<text text-anchor="middle" x="1625.18" y="-389.63" font-family="Times,serif" font-size="14.00">unfold double.</text>
<text text-anchor="middle" x="1625.18" y="-374.63" font-family="Times,serif" font-size="14.00">(0.00043816336427986564)</text>
</g>
<!-- 5&#45;&gt;11 -->
<g id="edge10" class="edge">
<title>5&#45;&gt;11</title>
<path fill="none" stroke="black" d="M1513.05,-449.9C1531.41,-439.57 1552.91,-427.48 1572.15,-416.66"/>
<polygon fill="black" stroke="black" points="1574.1,-419.58 1581.1,-411.62 1570.67,-413.47 1574.1,-419.58"/>
</g>
<!-- 16 -->
<g id="node18" class="node">
<title>16</title>
<ellipse fill="none" stroke="black" cx="1936.18" cy="-385.83" rx="130.63" ry="26.74"/>
<text text-anchor="middle" x="1936.18" y="-389.63" font-family="Times,serif" font-size="14.00">intros.</text>
<text text-anchor="middle" x="1936.18" y="-374.63" font-family="Times,serif" font-size="14.00">(0.9749528042675586)</text>
</g>
<!-- 15&#45;&gt;16 -->
<g id="edge17" class="edge">
<title>15&#45;&gt;16</title>
<path fill="none" stroke="black" d="M2286.74,-455.64C2213.54,-441.27 2113.12,-421.56 2038.51,-406.92"/>
<polygon fill="black" stroke="black" points="2039.11,-403.47 2028.63,-404.98 2037.76,-410.34 2039.11,-403.47"/>
</g>
<!-- 20 -->
<g id="node19" class="node">
<title>20</title>
<ellipse fill="orange" stroke="black" cx="2231.18" cy="-385.83" rx="143.59" ry="26.74"/>
<text text-anchor="middle" x="2231.18" y="-389.63" font-family="Times,serif" font-size="14.00">simpl.</text>
<text text-anchor="middle" x="2231.18" y="-374.63" font-family="Times,serif" font-size="14.00">(0.008756634395439257)</text>
</g>
<!-- 15&#45;&gt;20 -->
<g id="edge18" class="edge">
<title>15&#45;&gt;20</title>
<path fill="none" stroke="black" d="M2340.43,-449.9C2322.54,-439.57 2301.59,-427.48 2282.85,-416.66"/>
<polygon fill="black" stroke="black" points="2284.54,-413.59 2274.13,-411.62 2281.04,-419.65 2284.54,-413.59"/>
</g>
<!-- 21 -->
<g id="node20" class="node">
<title>21</title>
<ellipse fill="none" stroke="black" cx="2536.18" cy="-385.83" rx="143.59" ry="26.74"/>
<text text-anchor="middle" x="2536.18" y="-389.63" font-family="Times,serif" font-size="14.00">unfold orthogonal.</text>
<text text-anchor="middle" x="2536.18" y="-374.63" font-family="Times,serif" font-size="14.00">(0.006957818352112162)</text>
</g>
<!-- 15&#45;&gt;21 -->
<g id="edge19" class="edge">
<title>15&#45;&gt;21</title>
<path fill="none" stroke="black" d="M2426.2,-449.9C2444.29,-439.53 2465.48,-427.37 2484.41,-416.52"/>
<polygon fill="black" stroke="black" points="2486.28,-419.48 2493.21,-411.47 2482.79,-413.41 2486.28,-419.48"/>
</g>
<!-- 31 -->
<g id="node21" class="node">
<title>31</title>
<ellipse fill="orange" stroke="black" cx="2847.18" cy="-385.83" rx="149.81" ry="26.74"/>
<text text-anchor="middle" x="2847.18" y="-389.63" font-family="Times,serif" font-size="14.00">eauto.</text>
<text text-anchor="middle" x="2847.18" y="-374.63" font-family="Times,serif" font-size="14.00">(0.0002901465448861845)</text>
</g>
<!-- 15&#45;&gt;31 -->
<g id="edge20" class="edge">
<title>15&#45;&gt;31</title>
<path fill="none" stroke="black" d="M2481.58,-455.96C2556.18,-441.86 2658.72,-422.47 2736.23,-407.81"/>
<polygon fill="black" stroke="black" points="2737.34,-411.16 2746.52,-405.87 2736.04,-404.28 2737.34,-411.16"/>
</g>
<!-- 32 -->
<g id="node22" class="node">
<title>32</title>
<ellipse fill="none" stroke="black" cx="3465.18" cy="-385.83" rx="156.04" ry="26.74"/>
<text text-anchor="middle" x="3465.18" y="-389.63" font-family="Times,serif" font-size="14.00">unfold double.</text>
<text text-anchor="middle" x="3465.18" y="-374.63" font-family="Times,serif" font-size="14.00">(0.00023961586845646783)</text>
</g>
<!-- 15&#45;&gt;32 -->
<g id="edge21" class="edge">
<title>15&#45;&gt;32</title>
<path fill="none" stroke="black" d="M2512.89,-464.05C2714.67,-447.69 3102.66,-416.23 3315.83,-398.94"/>
<polygon fill="black" stroke="black" points="3316.16,-402.43 3325.85,-398.13 3315.6,-395.45 3316.16,-402.43"/>
</g>
<!-- 46 -->
<g id="node47" class="node">
<title>46</title>
<ellipse fill="none" stroke="black" cx="4413.18" cy="-385.83" rx="130.63" ry="26.74"/>
<text text-anchor="middle" x="4413.18" y="-389.63" font-family="Times,serif" font-size="14.00">intros.</text>
<text text-anchor="middle" x="4413.18" y="-374.63" font-family="Times,serif" font-size="14.00">(0.9794153222786418)</text>
</g>
<!-- 45&#45;&gt;46 -->
<g id="edge46" class="edge">
<title>45&#45;&gt;46</title>
<path fill="none" stroke="black" d="M4515.58,-449.66C4498.99,-439.48 4479.64,-427.61 4462.26,-416.95"/>
<polygon fill="black" stroke="black" points="4463.73,-413.74 4453.38,-411.5 4460.07,-419.71 4463.73,-413.74"/>
</g>
<!-- 50 -->
<g id="node48" class="node">
<title>50</title>
<ellipse fill="orange" stroke="black" cx="4699.18" cy="-385.83" rx="137.36" ry="26.74"/>
<text text-anchor="middle" x="4699.18" y="-389.63" font-family="Times,serif" font-size="14.00">simpl.</text>
<text text-anchor="middle" x="4699.18" y="-374.63" font-family="Times,serif" font-size="14.00">(0.00688623714199191)</text>
</g>
<!-- 45&#45;&gt;50 -->
<g id="edge47" class="edge">
<title>45&#45;&gt;50</title>
<path fill="none" stroke="black" d="M4596.77,-449.66C4613.23,-439.57 4632.39,-427.81 4649.65,-417.22"/>
<polygon fill="black" stroke="black" points="4651.79,-420.01 4658.48,-411.8 4648.13,-414.05 4651.79,-420.01"/>
</g>
<!-- 51 -->
<g id="node49" class="node">
<title>51</title>
<ellipse fill="none" stroke="black" cx="5013.18" cy="-385.83" rx="156.04" ry="26.74"/>
<text text-anchor="middle" x="5013.18" y="-389.63" font-family="Times,serif" font-size="14.00">unfold double.</text>
<text text-anchor="middle" x="5013.18" y="-374.63" font-family="Times,serif" font-size="14.00">(0.00043816336427986564)</text>
</g>
<!-- 45&#45;&gt;51 -->
<g id="edge48" class="edge">
<title>45&#45;&gt;51</title>
<path fill="none" stroke="black" d="M4655.9,-455.42C4728.42,-441.5 4826.62,-422.65 4901.72,-408.23"/>
<polygon fill="black" stroke="black" points="4902.53,-411.64 4911.69,-406.32 4901.21,-404.76 4902.53,-411.64"/>
</g>
<!-- 3 -->
<g id="node7" class="node">
<title>3</title>
<ellipse fill="orange" stroke="black" cx="137.18" cy="-296.09" rx="137.36" ry="26.74"/>
<text text-anchor="middle" x="137.18" y="-299.89" font-family="Times,serif" font-size="14.00">simpl.</text>
<text text-anchor="middle" x="137.18" y="-284.89" font-family="Times,serif" font-size="14.00">(0.07846395373646674)</text>
</g>
<!-- 2&#45;&gt;3 -->
<g id="edge6" class="edge">
<title>2&#45;&gt;3</title>
<path fill="none" stroke="black" d="M356.25,-362.92C314.71,-350.43 262.54,-334.76 219.53,-321.84"/>
<polygon fill="black" stroke="black" points="220.52,-318.48 209.94,-318.95 218.51,-325.18 220.52,-318.48"/>
</g>
<!-- 4 -->
<g id="node8" class="node">
<title>4</title>
<ellipse fill="orange" stroke="black" cx="429.18" cy="-296.09" rx="137.36" ry="26.74"/>
<text text-anchor="middle" x="429.18" y="-299.89" font-family="Times,serif" font-size="14.00">subst.</text>
<text text-anchor="middle" x="429.18" y="-284.89" font-family="Times,serif" font-size="14.00">(0.01771818886560994)</text>
</g>
<!-- 2&#45;&gt;4 -->
<g id="edge7" class="edge">
<title>2&#45;&gt;4</title>
<path fill="none" stroke="black" d="M429.18,-358.51C429.18,-350.54 429.18,-341.65 429.18,-333.16"/>
<polygon fill="black" stroke="black" points="432.68,-333.09 429.18,-323.09 425.68,-333.09 432.68,-333.09"/>
</g>
<!-- 7 -->
<g id="node12" class="node">
<title>7</title>
<ellipse fill="orange" stroke="black" cx="728.18" cy="-296.09" rx="143.59" ry="26.74"/>
<text text-anchor="middle" x="728.18" y="-299.89" font-family="Times,serif" font-size="14.00">simpl.</text>
<text text-anchor="middle" x="728.18" y="-284.89" font-family="Times,serif" font-size="14.00">(0.027560537113108304)</text>
</g>
<!-- 6&#45;&gt;7 -->
<g id="edge11" class="edge">
<title>6&#45;&gt;7</title>
<path fill="none" stroke="black" d="M955.17,-363.48C912.27,-350.93 857.85,-335.01 813.04,-321.91"/>
<polygon fill="black" stroke="black" points="813.92,-318.52 803.34,-319.07 811.96,-325.24 813.92,-318.52"/>
</g>
<!-- 8 -->
<g id="node13" class="node">
<title>8</title>
<ellipse fill="none" stroke="black" cx="1033.18" cy="-296.09" rx="143.59" ry="26.74"/>
<text text-anchor="middle" x="1033.18" y="-299.89" font-family="Times,serif" font-size="14.00">unfold double.</text>
<text text-anchor="middle" x="1033.18" y="-284.89" font-family="Times,serif" font-size="14.00">(0.004896031913788992)</text>
</g>
<!-- 6&#45;&gt;8 -->
<g id="edge12" class="edge">
<title>6&#45;&gt;8</title>
<path fill="none" stroke="black" d="M1029.68,-358.51C1030.13,-350.54 1030.64,-341.65 1031.12,-333.16"/>
<polygon fill="black" stroke="black" points="1034.62,-333.28 1031.7,-323.09 1027.63,-332.88 1034.62,-333.28"/>
</g>
<!-- 12 -->
<g id="node15" class="node">
<title>12</title>
<ellipse fill="none" stroke="black" cx="1334.18" cy="-296.09" rx="130.63" ry="26.74"/>
<text text-anchor="middle" x="1334.18" y="-299.89" font-family="Times,serif" font-size="14.00">intros.</text>
<text text-anchor="middle" x="1334.18" y="-284.89" font-family="Times,serif" font-size="14.00">(0.9554425628399766)</text>
</g>
<!-- 11&#45;&gt;12 -->
<g id="edge14" class="edge">
<title>11&#45;&gt;12</title>
<path fill="none" stroke="black" d="M1550.24,-362.24C1508.99,-349.8 1457.77,-334.35 1415.55,-321.62"/>
<polygon fill="black" stroke="black" points="1416.44,-318.24 1405.85,-318.7 1414.42,-324.94 1416.44,-318.24"/>
</g>
<!-- 14 -->
<g id="node16" class="node">
<title>14</title>
<ellipse fill="orange" stroke="black" cx="1625.18" cy="-296.09" rx="137.36" ry="26.74"/>
<text text-anchor="middle" x="1625.18" y="-299.89" font-family="Times,serif" font-size="14.00">simpl.</text>
<text text-anchor="middle" x="1625.18" y="-284.89" font-family="Times,serif" font-size="14.00">(0.03665068899704046)</text>
</g>
<!-- 11&#45;&gt;14 -->
<g id="edge15" class="edge">
<title>11&#45;&gt;14</title>
<path fill="none" stroke="black" d="M1625.18,-358.51C1625.18,-350.54 1625.18,-341.65 1625.18,-333.16"/>
<polygon fill="black" stroke="black" points="1628.68,-333.09 1625.18,-323.09 1621.68,-333.09 1628.68,-333.09"/>
</g>
<!-- 9 -->
<g id="node14" class="node">
<title>9</title>
<ellipse fill="orange" stroke="black" cx="1025.18" cy="-206.35" rx="137.36" ry="26.74"/>
<text text-anchor="middle" x="1025.18" y="-210.15" font-family="Times,serif" font-size="14.00">simpl.</text>
<text text-anchor="middle" x="1025.18" y="-195.15" font-family="Times,serif" font-size="14.00">(0.04415312042123575)</text>
</g>
<!-- 8&#45;&gt;9 -->
<g id="edge13" class="edge">
<title>8&#45;&gt;9</title>
<path fill="none" stroke="black" d="M1030.78,-268.77C1030.05,-260.8 1029.24,-251.91 1028.47,-243.42"/>
<polygon fill="black" stroke="black" points="1031.94,-243 1027.55,-233.35 1024.97,-243.63 1031.94,-243"/>
</g>
<!-- 13 -->
<g id="node17" class="node">
<title>13</title>
<ellipse fill="orange" stroke="black" cx="1324.18" cy="-206.35" rx="143.59" ry="26.74"/>
<text text-anchor="middle" x="1324.18" y="-210.15" font-family="Times,serif" font-size="14.00">simpl.</text>
<text text-anchor="middle" x="1324.18" y="-195.15" font-family="Times,serif" font-size="14.00">(0.019851157524422295)</text>
</g>
<!-- 12&#45;&gt;13 -->
<g id="edge16" class="edge">
<title>12&#45;&gt;13</title>
<path fill="none" stroke="black" d="M1331.18,-268.77C1330.27,-260.8 1329.26,-251.91 1328.29,-243.42"/>
<polygon fill="black" stroke="black" points="1331.75,-242.89 1327.14,-233.35 1324.8,-243.69 1331.75,-242.89"/>
</g>
<!-- 17 -->
<g id="node23" class="node">
<title>17</title>
<ellipse fill="none" stroke="black" cx="1934.18" cy="-296.09" rx="143.59" ry="26.74"/>
<text text-anchor="middle" x="1934.18" y="-299.89" font-family="Times,serif" font-size="14.00">red.</text>
<text text-anchor="middle" x="1934.18" y="-284.89" font-family="Times,serif" font-size="14.00">(0.058332096181042896)</text>
</g>
<!-- 16&#45;&gt;17 -->
<g id="edge22" class="edge">
<title>16&#45;&gt;17</title>
<path fill="none" stroke="black" d="M1935.58,-358.51C1935.4,-350.54 1935.19,-341.65 1935,-333.16"/>
<polygon fill="black" stroke="black" points="1938.5,-333.01 1934.77,-323.09 1931.5,-333.17 1938.5,-333.01"/>
</g>
<!-- 22 -->
<g id="node26" class="node">
<title>22</title>
<ellipse fill="none" stroke="black" cx="2238.18" cy="-296.09" rx="130.63" ry="26.74"/>
<text text-anchor="middle" x="2238.18" y="-299.89" font-family="Times,serif" font-size="14.00">intros.</text>
<text text-anchor="middle" x="2238.18" y="-284.89" font-family="Times,serif" font-size="14.00">(0.9946894451492988)</text>
</g>
<!-- 21&#45;&gt;22 -->
<g id="edge25" class="edge">
<title>21&#45;&gt;22</title>
<path fill="none" stroke="black" d="M2461.37,-362.8C2418.57,-350.2 2364.81,-334.37 2320.78,-321.41"/>
<polygon fill="black" stroke="black" points="2321.54,-317.99 2310.96,-318.52 2319.57,-324.7 2321.54,-317.99"/>
</g>
<!-- 26 -->
<g id="node27" class="node">
<title>26</title>
<ellipse fill="orange" stroke="black" cx="2537.18" cy="-296.09" rx="149.81" ry="26.74"/>
<text text-anchor="middle" x="2537.18" y="-299.89" font-family="Times,serif" font-size="14.00">simpl.</text>
<text text-anchor="middle" x="2537.18" y="-284.89" font-family="Times,serif" font-size="14.00">(0.0006978099153383695)</text>
</g>
<!-- 21&#45;&gt;26 -->
<g id="edge26" class="edge">
<title>21&#45;&gt;26</title>
<path fill="none" stroke="black" d="M2536.48,-358.51C2536.57,-350.54 2536.67,-341.65 2536.77,-333.16"/>
<polygon fill="black" stroke="black" points="2540.27,-333.13 2536.88,-323.09 2533.27,-333.05 2540.27,-333.13"/>
</g>
<!-- 27 -->
<g id="node28" class="node">
<title>27</title>
<ellipse fill="none" stroke="black" cx="2861.18" cy="-296.09" rx="156.04" ry="26.74"/>
<text text-anchor="middle" x="2861.18" y="-299.89" font-family="Times,serif" font-size="14.00">unfold double.</text>
<text text-anchor="middle" x="2861.18" y="-284.89" font-family="Times,serif" font-size="14.00">(0.00015012950066185612)</text>
</g>
<!-- 21&#45;&gt;27 -->
<g id="edge27" class="edge">
<title>21&#45;&gt;27</title>
<path fill="none" stroke="black" d="M2615.68,-363.37C2662.27,-350.79 2721.3,-334.85 2769.8,-321.76"/>
<polygon fill="black" stroke="black" points="2770.93,-325.08 2779.67,-319.1 2769.1,-318.32 2770.93,-325.08"/>
</g>
<!-- 33 -->
<g id="node35" class="node">
<title>33</title>
<ellipse fill="none" stroke="black" cx="3166.18" cy="-296.09" rx="130.63" ry="26.74"/>
<text text-anchor="middle" x="3166.18" y="-299.89" font-family="Times,serif" font-size="14.00">intros.</text>
<text text-anchor="middle" x="3166.18" y="-284.89" font-family="Times,serif" font-size="14.00">(0.9937231054785076)</text>
</g>
<!-- 32&#45;&gt;33 -->
<g id="edge34" class="edge">
<title>32&#45;&gt;33</title>
<path fill="none" stroke="black" d="M3388.57,-362.35C3345.78,-349.79 3292.44,-334.14 3248.73,-321.31"/>
<polygon fill="black" stroke="black" points="3249.57,-317.91 3238.99,-318.46 3247.6,-324.63 3249.57,-317.91"/>
</g>
<!-- 37 -->
<g id="node36" class="node">
<title>37</title>
<ellipse fill="orange" stroke="black" cx="3465.18" cy="-296.09" rx="149.81" ry="26.74"/>
<text text-anchor="middle" x="3465.18" y="-299.89" font-family="Times,serif" font-size="14.00">eauto.</text>
<text text-anchor="middle" x="3465.18" y="-284.89" font-family="Times,serif" font-size="14.00">(0.0018351043465659094)</text>
</g>
<!-- 32&#45;&gt;37 -->
<g id="edge35" class="edge">
<title>32&#45;&gt;37</title>
<path fill="none" stroke="black" d="M3465.18,-358.51C3465.18,-350.54 3465.18,-341.65 3465.18,-333.16"/>
<polygon fill="black" stroke="black" points="3468.68,-333.09 3465.18,-323.09 3461.68,-333.09 3468.68,-333.09"/>
</g>
<!-- 38 -->
<g id="node37" class="node">
<title>38</title>
<ellipse fill="orange" stroke="black" cx="3783.18" cy="-296.09" rx="149.81" ry="26.74"/>
<text text-anchor="middle" x="3783.18" y="-299.89" font-family="Times,serif" font-size="14.00">simpl.</text>
<text text-anchor="middle" x="3783.18" y="-284.89" font-family="Times,serif" font-size="14.00">(0.0013788040421857232)</text>
</g>
<!-- 32&#45;&gt;38 -->
<g id="edge36" class="edge">
<title>32&#45;&gt;38</title>
<path fill="none" stroke="black" d="M3545.42,-362.69C3590.77,-350.18 3647.56,-334.51 3694.26,-321.63"/>
<polygon fill="black" stroke="black" points="3695.35,-324.95 3704.06,-318.92 3693.49,-318.21 3695.35,-324.95"/>
</g>
<!-- 39 -->
<g id="node38" class="node">
<title>39</title>
<ellipse fill="none" stroke="black" cx="4101.18" cy="-296.09" rx="149.81" ry="26.74"/>
<text text-anchor="middle" x="4101.18" y="-299.89" font-family="Times,serif" font-size="14.00">unfold orthogonal.</text>
<text text-anchor="middle" x="4101.18" y="-284.89" font-family="Times,serif" font-size="14.00">(0.0012190592931187834)</text>
</g>
<!-- 32&#45;&gt;39 -->
<g id="edge37" class="edge">
<title>32&#45;&gt;39</title>
<path fill="none" stroke="black" d="M3590.37,-369.71C3686.67,-357.81 3822.99,-340.38 3942.18,-322.96 3955.76,-320.97 3969.98,-318.8 3984.1,-316.58"/>
<polygon fill="black" stroke="black" points="3985.01,-319.98 3994.34,-314.96 3983.92,-313.07 3985.01,-319.98"/>
</g>
<!-- 18 -->
<g id="node24" class="node">
<title>18</title>
<ellipse fill="orange" stroke="black" cx="1629.18" cy="-206.35" rx="143.59" ry="26.74"/>
<text text-anchor="middle" x="1629.18" y="-210.15" font-family="Times,serif" font-size="14.00">simpl.</text>
<text text-anchor="middle" x="1629.18" y="-195.15" font-family="Times,serif" font-size="14.00">(0.059258378328859794)</text>
</g>
<!-- 17&#45;&gt;18 -->
<g id="edge23" class="edge">
<title>17&#45;&gt;18</title>
<path fill="none" stroke="black" d="M1858,-273.18C1814.52,-260.67 1759.89,-244.95 1714.91,-232.01"/>
<polygon fill="black" stroke="black" points="1715.76,-228.61 1705.18,-229.21 1713.82,-235.34 1715.76,-228.61"/>
</g>
<!-- 19 -->
<g id="node25" class="node">
<title>19</title>
<ellipse fill="orange" stroke="black" cx="1934.18" cy="-206.35" rx="143.59" ry="26.74"/>
<text text-anchor="middle" x="1934.18" y="-210.15" font-family="Times,serif" font-size="14.00">subst.</text>
<text text-anchor="middle" x="1934.18" y="-195.15" font-family="Times,serif" font-size="14.00">(0.013381318288228599)</text>
</g>
<!-- 17&#45;&gt;19 -->
<g id="edge24" class="edge">
<title>17&#45;&gt;19</title>
<path fill="none" stroke="black" d="M1934.18,-268.77C1934.18,-260.8 1934.18,-251.91 1934.18,-243.42"/>
<polygon fill="black" stroke="black" points="1937.68,-243.35 1934.18,-233.35 1930.68,-243.35 1937.68,-243.35"/>
</g>
<!-- 23 -->
<g id="node29" class="node">
<title>23</title>
<ellipse fill="orange" stroke="black" cx="2239.18" cy="-206.35" rx="143.59" ry="26.74"/>
<text text-anchor="middle" x="2239.18" y="-210.15" font-family="Times,serif" font-size="14.00">simpl.</text>
<text text-anchor="middle" x="2239.18" y="-195.15" font-family="Times,serif" font-size="14.00">(0.016332804010555143)</text>
</g>
<!-- 22&#45;&gt;23 -->
<g id="edge28" class="edge">
<title>22&#45;&gt;23</title>
<path fill="none" stroke="black" d="M2238.48,-268.77C2238.57,-260.8 2238.67,-251.91 2238.77,-243.42"/>
<polygon fill="black" stroke="black" points="2242.27,-243.39 2238.88,-233.35 2235.27,-243.31 2242.27,-243.39"/>
</g>
<!-- 24 -->
<g id="node30" class="node">
<title>24</title>
<ellipse fill="none" stroke="black" cx="2550.18" cy="-206.35" rx="149.81" ry="26.74"/>
<text text-anchor="middle" x="2550.18" y="-210.15" font-family="Times,serif" font-size="14.00">unfold double.</text>
<text text-anchor="middle" x="2550.18" y="-195.15" font-family="Times,serif" font-size="14.00">(0.0029014641581112176)</text>
</g>
<!-- 22&#45;&gt;24 -->
<g id="edge29" class="edge">
<title>22&#45;&gt;24</title>
<path fill="none" stroke="black" d="M2313.31,-273.96C2358.09,-261.37 2415.15,-245.32 2462.05,-232.13"/>
<polygon fill="black" stroke="black" points="2463.22,-235.44 2471.9,-229.36 2461.32,-228.7 2463.22,-235.44"/>
</g>
<!-- 28 -->
<g id="node32" class="node">
<title>28</title>
<ellipse fill="none" stroke="black" cx="2849.18" cy="-206.35" rx="130.63" ry="26.74"/>
<text text-anchor="middle" x="2849.18" y="-210.15" font-family="Times,serif" font-size="14.00">intros.</text>
<text text-anchor="middle" x="2849.18" y="-195.15" font-family="Times,serif" font-size="14.00">(0.9554530094452578)</text>
</g>
<!-- 27&#45;&gt;28 -->
<g id="edge31" class="edge">
<title>27&#45;&gt;28</title>
<path fill="none" stroke="black" d="M2857.58,-268.77C2856.49,-260.8 2855.27,-251.91 2854.11,-243.42"/>
<polygon fill="black" stroke="black" points="2857.56,-242.79 2852.74,-233.35 2850.62,-243.74 2857.56,-242.79"/>
</g>
<!-- 30 -->
<g id="node33" class="node">
<title>30</title>
<ellipse fill="orange" stroke="black" cx="3135.18" cy="-206.35" rx="137.36" ry="26.74"/>
<text text-anchor="middle" x="3135.18" y="-210.15" font-family="Times,serif" font-size="14.00">simpl.</text>
<text text-anchor="middle" x="3135.18" y="-195.15" font-family="Times,serif" font-size="14.00">(0.03665109095668356)</text>
</g>
<!-- 27&#45;&gt;30 -->
<g id="edge32" class="edge">
<title>27&#45;&gt;30</title>
<path fill="none" stroke="black" d="M2932.81,-272.15C2970.67,-260.03 3017.23,-245.12 3056.14,-232.66"/>
<polygon fill="black" stroke="black" points="3057.4,-235.93 3065.86,-229.55 3055.27,-229.27 3057.4,-235.93"/>
</g>
<!-- 25 -->
<g id="node31" class="node">
<title>25</title>
<ellipse fill="orange" stroke="black" cx="2550.18" cy="-116.61" rx="137.36" ry="26.74"/>
<text text-anchor="middle" x="2550.18" y="-120.41" font-family="Times,serif" font-size="14.00">simpl.</text>
<text text-anchor="middle" x="2550.18" y="-105.41" font-family="Times,serif" font-size="14.00">(0.03934869633352229)</text>
</g>
<!-- 24&#45;&gt;25 -->
<g id="edge30" class="edge">
<title>24&#45;&gt;25</title>
<path fill="none" stroke="black" d="M2550.18,-179.03C2550.18,-171.06 2550.18,-162.17 2550.18,-153.68"/>
<polygon fill="black" stroke="black" points="2553.68,-153.61 2550.18,-143.61 2546.68,-153.61 2553.68,-153.61"/>
</g>
<!-- 29 -->
<g id="node34" class="node">
<title>29</title>
<ellipse fill="orange" stroke="black" cx="2849.18" cy="-116.61" rx="143.59" ry="26.74"/>
<text text-anchor="middle" x="2849.18" y="-120.41" font-family="Times,serif" font-size="14.00">simpl.</text>
<text text-anchor="middle" x="2849.18" y="-105.41" font-family="Times,serif" font-size="14.00">(0.011489009644024595)</text>
</g>
<!-- 28&#45;&gt;29 -->
<g id="edge33" class="edge">
<title>28&#45;&gt;29</title>
<path fill="none" stroke="black" d="M2849.18,-179.03C2849.18,-171.06 2849.18,-162.17 2849.18,-153.68"/>
<polygon fill="black" stroke="black" points="2852.68,-153.61 2849.18,-143.61 2845.68,-153.61 2852.68,-153.61"/>
</g>
<!-- 34 -->
<g id="node39" class="node">
<title>34</title>
<ellipse fill="none" stroke="black" cx="3427.18" cy="-206.35" rx="137.36" ry="26.74"/>
<text text-anchor="middle" x="3427.18" y="-210.15" font-family="Times,serif" font-size="14.00">red.</text>
<text text-anchor="middle" x="3427.18" y="-195.15" font-family="Times,serif" font-size="14.00">(0.05967048608190844)</text>
</g>
<!-- 33&#45;&gt;34 -->
<g id="edge38" class="edge">
<title>33&#45;&gt;34</title>
<path fill="none" stroke="black" d="M3232.38,-272.84C3268.28,-260.77 3312.85,-245.78 3350.29,-233.2"/>
<polygon fill="black" stroke="black" points="3351.78,-236.39 3360.14,-229.89 3349.55,-229.75 3351.78,-236.39"/>
</g>
<!-- 40 -->
<g id="node42" class="node">
<title>40</title>
<ellipse fill="none" stroke="black" cx="4050.18" cy="-206.35" rx="130.63" ry="26.74"/>
<text text-anchor="middle" x="4050.18" y="-210.15" font-family="Times,serif" font-size="14.00">intros.</text>
<text text-anchor="middle" x="4050.18" y="-195.15" font-family="Times,serif" font-size="14.00">(0.9946907425407622)</text>
</g>
<!-- 39&#45;&gt;40 -->
<g id="edge41" class="edge">
<title>39&#45;&gt;40</title>
<path fill="none" stroke="black" d="M4086.15,-269.24C4081.22,-260.75 4075.65,-251.17 4070.39,-242.12"/>
<polygon fill="black" stroke="black" points="4073.32,-240.21 4065.27,-233.32 4067.27,-243.72 4073.32,-240.21"/>
</g>
<!-- 44 -->
<g id="node43" class="node">
<title>44</title>
<ellipse fill="orange" stroke="black" cx="4349.18" cy="-206.35" rx="149.81" ry="26.74"/>
<text text-anchor="middle" x="4349.18" y="-210.15" font-family="Times,serif" font-size="14.00">simpl.</text>
<text text-anchor="middle" x="4349.18" y="-195.15" font-family="Times,serif" font-size="14.00">(0.0006978109135641745)</text>
</g>
<!-- 39&#45;&gt;44 -->
<g id="edge42" class="edge">
<title>39&#45;&gt;44</title>
<path fill="none" stroke="black" d="M4166.99,-271.81C4199.91,-260.16 4239.91,-246.01 4274.04,-233.94"/>
<polygon fill="black" stroke="black" points="4275.23,-237.22 4283.49,-230.59 4272.9,-230.62 4275.23,-237.22"/>
</g>
<!-- 35 -->
<g id="node40" class="node">
<title>35</title>
<ellipse fill="orange" stroke="black" cx="3175.18" cy="-116.61" rx="130.63" ry="26.74"/>
<text text-anchor="middle" x="3175.18" y="-120.41" font-family="Times,serif" font-size="14.00">simpl.</text>
<text text-anchor="middle" x="3175.18" y="-105.41" font-family="Times,serif" font-size="14.00">(0.0669944336819468)</text>
</g>
<!-- 34&#45;&gt;35 -->
<g id="edge39" class="edge">
<title>34&#45;&gt;35</title>
<path fill="none" stroke="black" d="M3361.95,-182.64C3327.56,-170.67 3285.23,-155.93 3249.56,-143.51"/>
<polygon fill="black" stroke="black" points="3250.29,-140.06 3239.69,-140.07 3247.99,-146.67 3250.29,-140.06"/>
</g>
<!-- 36 -->
<g id="node41" class="node">
<title>36</title>
<ellipse fill="orange" stroke="black" cx="3455.18" cy="-116.61" rx="130.63" ry="26.74"/>
<text text-anchor="middle" x="3455.18" y="-120.41" font-family="Times,serif" font-size="14.00">subst.</text>
<text text-anchor="middle" x="3455.18" y="-105.41" font-family="Times,serif" font-size="14.00">(0.0151282173455152)</text>
</g>
<!-- 34&#45;&gt;36 -->
<g id="edge40" class="edge">
<title>34&#45;&gt;36</title>
<path fill="none" stroke="black" d="M3435.43,-179.5C3438.05,-171.27 3441.01,-162.02 3443.81,-153.23"/>
<polygon fill="black" stroke="black" points="3447.19,-154.17 3446.89,-143.58 3440.52,-152.04 3447.19,-154.17"/>
</g>
<!-- 41 -->
<g id="node44" class="node">
<title>41</title>
<ellipse fill="orange" stroke="black" cx="3910.18" cy="-116.61" rx="137.36" ry="26.74"/>
<text text-anchor="middle" x="3910.18" y="-120.41" font-family="Times,serif" font-size="14.00">simpl.</text>
<text text-anchor="middle" x="3910.18" y="-105.41" font-family="Times,serif" font-size="14.00">(0.02056462463679568)</text>
</g>
<!-- 40&#45;&gt;41 -->
<g id="edge43" class="edge">
<title>40&#45;&gt;41</title>
<path fill="none" stroke="black" d="M4010.81,-180.68C3994.55,-170.49 3975.56,-158.58 3958.47,-147.88"/>
<polygon fill="black" stroke="black" points="3960.07,-144.75 3949.74,-142.4 3956.35,-150.68 3960.07,-144.75"/>
</g>
<!-- 42 -->
<g id="node45" class="node">
<title>42</title>
<ellipse fill="none" stroke="black" cx="4190.18" cy="-116.61" rx="124.4" ry="26.74"/>
<text text-anchor="middle" x="4190.18" y="-120.41" font-family="Times,serif" font-size="14.00">unfold double.</text>
<text text-anchor="middle" x="4190.18" y="-105.41" font-family="Times,serif" font-size="14.00">(0.003653231941687)</text>
</g>
<!-- 40&#45;&gt;42 -->
<g id="edge44" class="edge">
<title>40&#45;&gt;42</title>
<path fill="none" stroke="black" d="M4089.55,-180.68C4105.8,-170.49 4124.8,-158.58 4141.88,-147.88"/>
<polygon fill="black" stroke="black" points="4144,-150.68 4150.62,-142.4 4140.29,-144.75 4144,-150.68"/>
</g>
<!-- 43 -->
<g id="node46" class="node">
<title>43</title>
<ellipse fill="orange" stroke="black" cx="4190.18" cy="-26.87" rx="137.36" ry="26.74"/>
<text text-anchor="middle" x="4190.18" y="-30.67" font-family="Times,serif" font-size="14.00">simpl.</text>
<text text-anchor="middle" x="4190.18" y="-15.67" font-family="Times,serif" font-size="14.00">(0.03599614452039888)</text>
</g>
<!-- 42&#45;&gt;43 -->
<g id="edge45" class="edge">
<title>42&#45;&gt;43</title>
<path fill="none" stroke="black" d="M4190.18,-89.29C4190.18,-81.32 4190.18,-72.43 4190.18,-63.94"/>
<polygon fill="black" stroke="black" points="4193.68,-63.87 4190.18,-53.87 4186.68,-63.87 4193.68,-63.87"/>
</g>
<!-- 47 -->
<g id="node50" class="node">
<title>47</title>
<ellipse fill="orange" stroke="black" cx="4412.18" cy="-296.09" rx="143.59" ry="26.74"/>
<text text-anchor="middle" x="4412.18" y="-299.89" font-family="Times,serif" font-size="14.00">simpl.</text>
<text text-anchor="middle" x="4412.18" y="-284.89" font-family="Times,serif" font-size="14.00">(0.027560537113108304)</text>
</g>
<!-- 46&#45;&gt;47 -->
<g id="edge49" class="edge">
<title>46&#45;&gt;47</title>
<path fill="none" stroke="black" d="M4412.88,-358.51C4412.79,-350.54 4412.69,-341.65 4412.59,-333.16"/>
<polygon fill="black" stroke="black" points="4416.09,-333.05 4412.48,-323.09 4409.09,-333.13 4416.09,-333.05"/>
</g>
<!-- 48 -->
<g id="node51" class="node">
<title>48</title>
<ellipse fill="none" stroke="black" cx="4717.18" cy="-296.09" rx="143.59" ry="26.74"/>
<text text-anchor="middle" x="4717.18" y="-299.89" font-family="Times,serif" font-size="14.00">unfold double.</text>
<text text-anchor="middle" x="4717.18" y="-284.89" font-family="Times,serif" font-size="14.00">(0.004896031913788992)</text>
</g>
<!-- 46&#45;&gt;48 -->
<g id="edge50" class="edge">
<title>46&#45;&gt;48</title>
<path fill="none" stroke="black" d="M4486.77,-363.59C4530.4,-351 4585.89,-334.98 4631.49,-321.82"/>
<polygon fill="black" stroke="black" points="4632.72,-325.11 4641.36,-318.97 4630.78,-318.38 4632.72,-325.11"/>
</g>
<!-- 52 -->
<g id="node53" class="node">
<title>52</title>
<ellipse fill="none" stroke="black" cx="5013.18" cy="-296.09" rx="130.63" ry="26.74"/>
<text text-anchor="middle" x="5013.18" y="-299.89" font-family="Times,serif" font-size="14.00">intros.</text>
<text text-anchor="middle" x="5013.18" y="-284.89" font-family="Times,serif" font-size="14.00">(0.9554425628399766)</text>
</g>
<!-- 51&#45;&gt;52 -->
<g id="edge52" class="edge">
<title>51&#45;&gt;52</title>
<path fill="none" stroke="black" d="M5013.18,-358.51C5013.18,-350.54 5013.18,-341.65 5013.18,-333.16"/>
<polygon fill="black" stroke="black" points="5016.68,-333.09 5013.18,-323.09 5009.68,-333.09 5016.68,-333.09"/>
</g>
<!-- 54 -->
<g id="node54" class="node">
<title>54</title>
<ellipse fill="orange" stroke="black" cx="5299.18" cy="-296.09" rx="137.36" ry="26.74"/>
<text text-anchor="middle" x="5299.18" y="-299.89" font-family="Times,serif" font-size="14.00">simpl.</text>
<text text-anchor="middle" x="5299.18" y="-284.89" font-family="Times,serif" font-size="14.00">(0.03665068899704046)</text>
</g>
<!-- 51&#45;&gt;54 -->
<g id="edge53" class="edge">
<title>51&#45;&gt;54</title>
<path fill="none" stroke="black" d="M5087.2,-362.12C5127.19,-349.85 5176.65,-334.68 5217.73,-322.08"/>
<polygon fill="black" stroke="black" points="5218.91,-325.38 5227.44,-319.1 5216.85,-318.69 5218.91,-325.38"/>
</g>
<!-- 49 -->
<g id="node52" class="node">
<title>49</title>
<ellipse fill="orange" stroke="black" cx="4716.18" cy="-206.35" rx="137.36" ry="26.74"/>
<text text-anchor="middle" x="4716.18" y="-210.15" font-family="Times,serif" font-size="14.00">simpl.</text>
<text text-anchor="middle" x="4716.18" y="-195.15" font-family="Times,serif" font-size="14.00">(0.04415312042123575)</text>
</g>
<!-- 48&#45;&gt;49 -->
<g id="edge51" class="edge">
<title>48&#45;&gt;49</title>
<path fill="none" stroke="black" d="M4716.88,-268.77C4716.79,-260.8 4716.69,-251.91 4716.59,-243.42"/>
<polygon fill="black" stroke="black" points="4720.09,-243.31 4716.48,-233.35 4713.09,-243.39 4720.09,-243.31"/>
</g>
<!-- 53 -->
<g id="node55" class="node">
<title>53</title>
<ellipse fill="orange" stroke="black" cx="5015.18" cy="-206.35" rx="143.59" ry="26.74"/>
<text text-anchor="middle" x="5015.18" y="-210.15" font-family="Times,serif" font-size="14.00">simpl.</text>
<text text-anchor="middle" x="5015.18" y="-195.15" font-family="Times,serif" font-size="14.00">(0.019851157524422295)</text>
</g>
<!-- 52&#45;&gt;53 -->
<g id="edge54" class="edge">
<title>52&#45;&gt;53</title>
<path fill="none" stroke="black" d="M5013.78,-268.77C5013.96,-260.8 5014.16,-251.91 5014.36,-243.42"/>
<polygon fill="black" stroke="black" points="5017.86,-243.43 5014.59,-233.35 5010.86,-243.27 5017.86,-243.43"/>
</g>
</g>
</svg>
