<?xml version="1.0" encoding="UTF-8" standalone="no"?>
<!DOCTYPE svg PUBLIC "-//W3C//DTD SVG 1.1//EN"
 "http://www.w3.org/Graphics/SVG/1.1/DTD/svg11.dtd">
<!-- Generated by graphviz version 2.43.0 (0)
 -->
<!-- Pages: 1 -->
<svg width="585pt" height="241pt"
 viewBox="0.00 0.00 584.84 241.22" xmlns="http://www.w3.org/2000/svg" xmlns:xlink="http://www.w3.org/1999/xlink">
<g id="graph0" class="graph" transform="scale(1 1) rotate(0) translate(4 237.22)">
<polygon fill="white" stroke="transparent" points="-4,4 -4,-237.22 580.84,-237.22 580.84,4 -4,4"/>
<!-- 0 -->
<g id="node1" class="node">
<title>0</title>
<ellipse fill="none" stroke="black" cx="284.18" cy="-206.35" rx="92.76" ry="26.74"/>
<text text-anchor="middle" x="284.18" y="-210.15" font-family="Times,serif" font-size="14.00">somme_triangle</text>
<text text-anchor="middle" x="284.18" y="-195.15" font-family="Times,serif" font-size="14.00">(1.0)</text>
</g>
<!-- 1 -->
<g id="node2" class="node">
<title>1</title>
<ellipse fill="none" stroke="black" cx="137.18" cy="-116.61" rx="130.63" ry="26.74"/>
<text text-anchor="middle" x="137.18" y="-120.41" font-family="Times,serif" font-size="14.00">intros.</text>
<text text-anchor="middle" x="137.18" y="-105.41" font-family="Times,serif" font-size="14.00">(0.9992226449205291)</text>
</g>
<!-- 0&#45;&gt;1 -->
<g id="edge1" class="edge">
<title>0&#45;&gt;1</title>
<path fill="none" stroke="black" d="M244.79,-181.84C227.09,-171.28 206.01,-158.69 187.21,-147.48"/>
<polygon fill="black" stroke="black" points="188.86,-144.38 178.48,-142.26 185.27,-150.39 188.86,-144.38"/>
</g>
<!-- 3 -->
<g id="node3" class="node">
<title>3</title>
<ellipse fill="orange" stroke="black" cx="431.18" cy="-116.61" rx="145.83" ry="26.74"/>
<text text-anchor="middle" x="431.18" y="-120.41" font-family="Times,serif" font-size="14.00">simpl.</text>
<text text-anchor="middle" x="431.18" y="-105.41" font-family="Times,serif" font-size="14.00">(7.440622465590506e&#45;05)</text>
</g>
<!-- 0&#45;&gt;3 -->
<g id="edge2" class="edge">
<title>0&#45;&gt;3</title>
<path fill="none" stroke="black" d="M323.57,-181.84C341.19,-171.32 362.17,-158.8 380.91,-147.61"/>
<polygon fill="black" stroke="black" points="382.83,-150.55 389.62,-142.42 379.24,-144.54 382.83,-150.55"/>
</g>
<!-- 2 -->
<g id="node4" class="node">
<title>2</title>
<ellipse fill="orange" stroke="black" cx="137.18" cy="-26.87" rx="137.36" ry="26.74"/>
<text text-anchor="middle" x="137.18" y="-30.67" font-family="Times,serif" font-size="14.00">simpl.</text>
<text text-anchor="middle" x="137.18" y="-15.67" font-family="Times,serif" font-size="14.00">(0.20431619985398303)</text>
</g>
<!-- 1&#45;&gt;2 -->
<g id="edge3" class="edge">
<title>1&#45;&gt;2</title>
<path fill="none" stroke="black" d="M137.18,-89.29C137.18,-81.32 137.18,-72.43 137.18,-63.94"/>
<polygon fill="black" stroke="black" points="140.68,-63.87 137.18,-53.87 133.68,-63.87 140.68,-63.87"/>
</g>
</g>
</svg>
