<?xml version="1.0" encoding="UTF-8" standalone="no"?>
<!DOCTYPE svg PUBLIC "-//W3C//DTD SVG 1.1//EN"
 "http://www.w3.org/Graphics/SVG/1.1/DTD/svg11.dtd">
<!-- Generated by graphviz version 2.43.0 (0)
 -->
<!-- Pages: 1 -->
<svg width="3345pt" height="869pt"
 viewBox="0.00 0.00 3345.45 869.40" xmlns="http://www.w3.org/2000/svg" xmlns:xlink="http://www.w3.org/1999/xlink">
<g id="graph0" class="graph" transform="scale(1 1) rotate(0) translate(4 865.4)">
<polygon fill="white" stroke="transparent" points="-4,4 -4,-865.4 3341.45,-865.4 3341.45,4 -4,4"/>
<!-- 0 -->
<g id="node1" class="node">
<title>0</title>
<ellipse fill="none" stroke="black" cx="2488.91" cy="-834.53" rx="71.34" ry="26.74"/>
<text text-anchor="middle" x="2488.91" y="-838.33" font-family="Times,serif" font-size="14.00">double_plus</text>
<text text-anchor="middle" x="2488.91" y="-823.33" font-family="Times,serif" font-size="14.00">(1.0)</text>
</g>
<!-- 1 -->
<g id="node2" class="node">
<title>1</title>
<ellipse fill="none" stroke="black" cx="2348.91" cy="-744.79" rx="130.63" ry="26.74"/>
<text text-anchor="middle" x="2348.91" y="-748.59" font-family="Times,serif" font-size="14.00">intros.</text>
<text text-anchor="middle" x="2348.91" y="-733.59" font-family="Times,serif" font-size="14.00">(0.9993444213425623)</text>
</g>
<!-- 0&#45;&gt;1 -->
<g id="edge1" class="edge">
<title>0&#45;&gt;1</title>
<path fill="none" stroke="black" d="M2453.22,-811.16C2436.15,-800.47 2415.47,-787.51 2397.04,-775.96"/>
<polygon fill="black" stroke="black" points="2398.81,-772.94 2388.48,-770.59 2395.09,-778.87 2398.81,-772.94"/>
</g>
<!-- 56 -->
<g id="node3" class="node">
<title>56</title>
<ellipse fill="#404040" stroke="black" cx="2628.91" cy="-744.79" rx="130.63" ry="26.74"/>
<text text-anchor="middle" x="2628.91" y="-748.59" font-family="Times,serif" font-size="14.00">intros.</text>
<text text-anchor="middle" x="2628.91" y="-733.59" font-family="Times,serif" font-size="14.00">(0.9993444213425623)</text>
</g>
<!-- 0&#45;&gt;56 -->
<g id="edge2" class="edge">
<title>0&#45;&gt;56</title>
<path fill="none" stroke="black" d="M2524.6,-811.16C2541.66,-800.47 2562.34,-787.51 2580.77,-775.96"/>
<polygon fill="black" stroke="black" points="2582.72,-778.87 2589.34,-770.59 2579,-772.94 2582.72,-778.87"/>
</g>
<!-- 2 -->
<g id="node4" class="node">
<title>2</title>
<ellipse fill="none" stroke="black" cx="1910.91" cy="-655.05" rx="143.59" ry="26.74"/>
<text text-anchor="middle" x="1910.91" y="-658.85" font-family="Times,serif" font-size="14.00">apply compatible_croix.</text>
<text text-anchor="middle" x="1910.91" y="-643.85" font-family="Times,serif" font-size="14.00">(0.039772404682194874)</text>
</g>
<!-- 1&#45;&gt;2 -->
<g id="edge3" class="edge">
<title>1&#45;&gt;2</title>
<path fill="none" stroke="black" d="M2257.62,-725.5C2187.34,-711.43 2090.09,-691.95 2016.47,-677.2"/>
<polygon fill="black" stroke="black" points="2016.73,-673.68 2006.24,-675.15 2015.36,-680.54 2016.73,-673.68"/>
</g>
<!-- 16 -->
<g id="node5" class="node">
<title>16</title>
<ellipse fill="none" stroke="black" cx="2348.91" cy="-655.05" rx="137.36" ry="26.74"/>
<text text-anchor="middle" x="2348.91" y="-658.85" font-family="Times,serif" font-size="14.00">eapply compatible_croix.</text>
<text text-anchor="middle" x="2348.91" y="-643.85" font-family="Times,serif" font-size="14.00">(0.03563305795578628)</text>
</g>
<!-- 1&#45;&gt;16 -->
<g id="edge4" class="edge">
<title>1&#45;&gt;16</title>
<path fill="none" stroke="black" d="M2348.91,-717.47C2348.91,-709.5 2348.91,-700.61 2348.91,-692.12"/>
<polygon fill="black" stroke="black" points="2352.41,-692.05 2348.91,-682.05 2345.41,-692.05 2352.41,-692.05"/>
</g>
<!-- 55 -->
<g id="node6" class="node">
<title>55</title>
<ellipse fill="#404040" stroke="black" cx="2640.91" cy="-655.05" rx="137.36" ry="26.74"/>
<text text-anchor="middle" x="2640.91" y="-658.85" font-family="Times,serif" font-size="14.00">eapply compatible_croix.</text>
<text text-anchor="middle" x="2640.91" y="-643.85" font-family="Times,serif" font-size="14.00">(0.03563305795578628)</text>
</g>
<!-- 1&#45;&gt;55 -->
<g id="edge5" class="edge">
<title>1&#45;&gt;55</title>
<path fill="none" stroke="black" d="M2420.71,-722.21C2462.39,-709.69 2515.06,-693.86 2558.44,-680.83"/>
<polygon fill="black" stroke="black" points="2559.54,-684.15 2568.11,-677.92 2557.53,-677.45 2559.54,-684.15"/>
</g>
<!-- 3 -->
<g id="node7" class="node">
<title>3</title>
<ellipse fill="none" stroke="black" cx="1293.91" cy="-565.31" rx="130.63" ry="26.74"/>
<text text-anchor="middle" x="1293.91" y="-569.11" font-family="Times,serif" font-size="14.00">apply compatible_croix.</text>
<text text-anchor="middle" x="1293.91" y="-554.11" font-family="Times,serif" font-size="14.00">(0.075642928517108)</text>
</g>
<!-- 2&#45;&gt;3 -->
<g id="edge6" class="edge">
<title>2&#45;&gt;3</title>
<path fill="none" stroke="black" d="M1799.17,-638.16C1688.77,-622.46 1520.68,-598.56 1409.09,-582.69"/>
<polygon fill="black" stroke="black" points="1409.54,-579.22 1399.15,-581.28 1408.55,-586.15 1409.54,-579.22"/>
</g>
<!-- 17 -->
<g id="node20" class="node">
<title>17</title>
<ellipse fill="none" stroke="black" cx="1897.91" cy="-565.31" rx="137.36" ry="26.74"/>
<text text-anchor="middle" x="1897.91" y="-569.11" font-family="Times,serif" font-size="14.00">eapply compatible_croix.</text>
<text text-anchor="middle" x="1897.91" y="-554.11" font-family="Times,serif" font-size="14.00">(0.03308368528872758)</text>
</g>
<!-- 16&#45;&gt;17 -->
<g id="edge19" class="edge">
<title>16&#45;&gt;17</title>
<path fill="none" stroke="black" d="M2254.09,-635.6C2180.65,-621.32 2078.98,-601.54 2003.05,-586.77"/>
<polygon fill="black" stroke="black" points="2003.47,-583.28 1992.99,-584.81 2002.13,-590.15 2003.47,-583.28"/>
</g>
<!-- 29 -->
<g id="node21" class="node">
<title>29</title>
<ellipse fill="none" stroke="black" cx="2348.91" cy="-565.31" rx="137.36" ry="26.74"/>
<text text-anchor="middle" x="2348.91" y="-569.11" font-family="Times,serif" font-size="14.00">apply compatible_croix.</text>
<text text-anchor="middle" x="2348.91" y="-554.11" font-family="Times,serif" font-size="14.00">(0.02243457367545363)</text>
</g>
<!-- 16&#45;&gt;29 -->
<g id="edge20" class="edge">
<title>16&#45;&gt;29</title>
<path fill="none" stroke="black" d="M2348.91,-627.73C2348.91,-619.76 2348.91,-610.87 2348.91,-602.38"/>
<polygon fill="black" stroke="black" points="2352.41,-602.31 2348.91,-592.31 2345.41,-602.31 2352.41,-602.31"/>
</g>
<!-- 42 -->
<g id="node22" class="node">
<title>42</title>
<ellipse fill="none" stroke="black" cx="2805.91" cy="-565.31" rx="137.36" ry="26.74"/>
<text text-anchor="middle" x="2805.91" y="-569.11" font-family="Times,serif" font-size="14.00">eapply regulier.</text>
<text text-anchor="middle" x="2805.91" y="-554.11" font-family="Times,serif" font-size="14.00">(0.01940598107051041)</text>
</g>
<!-- 16&#45;&gt;42 -->
<g id="edge21" class="edge">
<title>16&#45;&gt;42</title>
<path fill="none" stroke="black" d="M2444.43,-635.71C2519.18,-621.36 2623.05,-601.42 2700.27,-586.59"/>
<polygon fill="black" stroke="black" points="2701.35,-589.95 2710.51,-584.63 2700.03,-583.08 2701.35,-589.95"/>
</g>
<!-- 54 -->
<g id="node23" class="node">
<title>54</title>
<ellipse fill="#404040" stroke="black" cx="3097.91" cy="-565.31" rx="137.36" ry="26.74"/>
<text text-anchor="middle" x="3097.91" y="-569.11" font-family="Times,serif" font-size="14.00">eapply regulier.</text>
<text text-anchor="middle" x="3097.91" y="-554.11" font-family="Times,serif" font-size="14.00">(0.01940598107051041)</text>
</g>
<!-- 16&#45;&gt;54 -->
<g id="edge22" class="edge">
<title>16&#45;&gt;54</title>
<path fill="none" stroke="black" d="M2444.52,-635.74C2461.27,-632.93 2478.56,-630.27 2494.91,-628.18 2697.01,-602.38 2749.81,-617.98 2951.91,-592.18 2965.06,-590.5 2978.83,-588.45 2992.43,-586.25"/>
<polygon fill="black" stroke="black" points="2993,-589.7 3002.3,-584.62 2991.86,-582.79 2993,-589.7"/>
</g>
<!-- 4 -->
<g id="node8" class="node">
<title>4</title>
<ellipse fill="blue" stroke="black" cx="1153.91" cy="-475.57" rx="130.63" ry="26.74"/>
<text text-anchor="middle" x="1153.91" y="-479.37" font-family="Times,serif" font-size="14.00">eauto.</text>
<text text-anchor="middle" x="1153.91" y="-464.37" font-family="Times,serif" font-size="14.00">(0.9307122349921335)</text>
</g>
<!-- 3&#45;&gt;4 -->
<g id="edge7" class="edge">
<title>3&#45;&gt;4</title>
<path fill="none" stroke="black" d="M1254.54,-539.64C1238.28,-529.45 1219.28,-517.54 1202.2,-506.84"/>
<polygon fill="black" stroke="black" points="1203.8,-503.71 1193.47,-501.36 1200.08,-509.64 1203.8,-503.71"/>
</g>
<!-- 5 -->
<g id="node9" class="node">
<title>5</title>
<ellipse fill="none" stroke="black" cx="699.91" cy="-385.83" rx="143.59" ry="26.74"/>
<text text-anchor="middle" x="699.91" y="-389.63" font-family="Times,serif" font-size="14.00">eapply regulier.</text>
<text text-anchor="middle" x="699.91" y="-374.63" font-family="Times,serif" font-size="14.00">(0.002445835231126224)</text>
</g>
<!-- 4&#45;&gt;5 -->
<g id="edge8" class="edge">
<title>4&#45;&gt;5</title>
<path fill="none" stroke="black" d="M1060.94,-456.6C987.45,-442.4 884.76,-422.56 807.68,-407.66"/>
<polygon fill="black" stroke="black" points="807.94,-404.14 797.46,-405.68 806.61,-411.02 807.94,-404.14"/>
</g>
<!-- 15 -->
<g id="node10" class="node">
<title>15</title>
<ellipse fill="orange" stroke="black" cx="1153.91" cy="-385.83" rx="149.81" ry="26.74"/>
<text text-anchor="middle" x="1153.91" y="-389.63" font-family="Times,serif" font-size="14.00">simpl.</text>
<text text-anchor="middle" x="1153.91" y="-374.63" font-family="Times,serif" font-size="14.00">(0.0005075796495076304)</text>
</g>
<!-- 4&#45;&gt;15 -->
<g id="edge9" class="edge">
<title>4&#45;&gt;15</title>
<path fill="none" stroke="black" d="M1153.91,-448.25C1153.91,-440.28 1153.91,-431.39 1153.91,-422.9"/>
<polygon fill="black" stroke="black" points="1157.41,-422.83 1153.91,-412.83 1150.41,-422.83 1157.41,-422.83"/>
</g>
<!-- 6 -->
<g id="node11" class="node">
<title>6</title>
<ellipse fill="blue" stroke="black" cx="490.91" cy="-296.09" rx="124.4" ry="26.74"/>
<text text-anchor="middle" x="490.91" y="-299.89" font-family="Times,serif" font-size="14.00">eauto.</text>
<text text-anchor="middle" x="490.91" y="-284.89" font-family="Times,serif" font-size="14.00">(0.996302025270565)</text>
</g>
<!-- 5&#45;&gt;6 -->
<g id="edge10" class="edge">
<title>5&#45;&gt;6</title>
<path fill="none" stroke="black" d="M643.35,-361.09C616.19,-349.69 583.53,-335.97 555.41,-324.17"/>
<polygon fill="black" stroke="black" points="556.64,-320.89 546.06,-320.25 553.93,-327.34 556.64,-320.89"/>
</g>
<!-- 7 -->
<g id="node12" class="node">
<title>7</title>
<ellipse fill="none" stroke="black" cx="149.91" cy="-206.35" rx="143.59" ry="26.74"/>
<text text-anchor="middle" x="149.91" y="-210.15" font-family="Times,serif" font-size="14.00">eapply compatible_croix.</text>
<text text-anchor="middle" x="149.91" y="-195.15" font-family="Times,serif" font-size="14.00">(0.018357345465070143)</text>
</g>
<!-- 6&#45;&gt;7 -->
<g id="edge11" class="edge">
<title>6&#45;&gt;7</title>
<path fill="none" stroke="black" d="M413.1,-275.07C362.12,-261.95 295.25,-244.75 241.68,-230.96"/>
<polygon fill="black" stroke="black" points="242.39,-227.53 231.83,-228.43 240.65,-234.31 242.39,-227.53"/>
</g>
<!-- 10 -->
<g id="node13" class="node">
<title>10</title>
<ellipse fill="none" stroke="black" cx="454.91" cy="-206.35" rx="143.59" ry="26.74"/>
<text text-anchor="middle" x="454.91" y="-210.15" font-family="Times,serif" font-size="14.00">apply compatible_croix.</text>
<text text-anchor="middle" x="454.91" y="-195.15" font-family="Times,serif" font-size="14.00">(0.013867394254431585)</text>
</g>
<!-- 6&#45;&gt;10 -->
<g id="edge12" class="edge">
<title>6&#45;&gt;10</title>
<path fill="none" stroke="black" d="M480.3,-269.24C476.89,-260.92 473.05,-251.56 469.41,-242.69"/>
<polygon fill="black" stroke="black" points="472.6,-241.24 465.56,-233.32 466.12,-243.9 472.6,-241.24"/>
</g>
<!-- 13 -->
<g id="node14" class="node">
<title>13</title>
<ellipse fill="none" stroke="black" cx="759.91" cy="-206.35" rx="143.59" ry="26.74"/>
<text text-anchor="middle" x="759.91" y="-210.15" font-family="Times,serif" font-size="14.00">eapply regulier.</text>
<text text-anchor="middle" x="759.91" y="-195.15" font-family="Times,serif" font-size="14.00">(0.009937406164242843)</text>
</g>
<!-- 6&#45;&gt;13 -->
<g id="edge13" class="edge">
<title>6&#45;&gt;13</title>
<path fill="none" stroke="black" d="M557.75,-273.29C595.04,-261.12 641.72,-245.9 680.83,-233.14"/>
<polygon fill="black" stroke="black" points="682.18,-236.39 690.6,-229.96 680,-229.73 682.18,-236.39"/>
</g>
<!-- 8 -->
<g id="node15" class="node">
<title>8</title>
<ellipse fill="blue" stroke="black" cx="149.91" cy="-116.61" rx="130.63" ry="26.74"/>
<text text-anchor="middle" x="149.91" y="-120.41" font-family="Times,serif" font-size="14.00">eauto.</text>
<text text-anchor="middle" x="149.91" y="-105.41" font-family="Times,serif" font-size="14.00">(0.8391896759386042)</text>
</g>
<!-- 7&#45;&gt;8 -->
<g id="edge14" class="edge">
<title>7&#45;&gt;8</title>
<path fill="none" stroke="black" d="M149.91,-179.03C149.91,-171.06 149.91,-162.17 149.91,-153.68"/>
<polygon fill="black" stroke="black" points="153.41,-153.61 149.91,-143.61 146.41,-153.61 153.41,-153.61"/>
</g>
<!-- 11 -->
<g id="node17" class="node">
<title>11</title>
<ellipse fill="blue" stroke="black" cx="454.91" cy="-116.61" rx="130.63" ry="26.74"/>
<text text-anchor="middle" x="454.91" y="-120.41" font-family="Times,serif" font-size="14.00">eauto.</text>
<text text-anchor="middle" x="454.91" y="-105.41" font-family="Times,serif" font-size="14.00">(0.4540048760616636)</text>
</g>
<!-- 10&#45;&gt;11 -->
<g id="edge16" class="edge">
<title>10&#45;&gt;11</title>
<path fill="none" stroke="black" d="M454.91,-179.03C454.91,-171.06 454.91,-162.17 454.91,-153.68"/>
<polygon fill="black" stroke="black" points="458.41,-153.61 454.91,-143.61 451.41,-153.61 458.41,-153.61"/>
</g>
<!-- 14 -->
<g id="node19" class="node">
<title>14</title>
<ellipse fill="blue" stroke="black" cx="759.91" cy="-116.61" rx="124.4" ry="26.74"/>
<text text-anchor="middle" x="759.91" y="-120.41" font-family="Times,serif" font-size="14.00">eauto.</text>
<text text-anchor="middle" x="759.91" y="-105.41" font-family="Times,serif" font-size="14.00">(0.996302025270565)</text>
</g>
<!-- 13&#45;&gt;14 -->
<g id="edge18" class="edge">
<title>13&#45;&gt;14</title>
<path fill="none" stroke="black" d="M759.91,-179.03C759.91,-171.06 759.91,-162.17 759.91,-153.68"/>
<polygon fill="black" stroke="black" points="763.41,-153.61 759.91,-143.61 756.41,-153.61 763.41,-153.61"/>
</g>
<!-- 9 -->
<g id="node16" class="node">
<title>9</title>
<ellipse fill="none" stroke="black" cx="149.91" cy="-26.87" rx="149.81" ry="26.74"/>
<text text-anchor="middle" x="149.91" y="-30.67" font-family="Times,serif" font-size="14.00">eapply regulier.</text>
<text text-anchor="middle" x="149.91" y="-15.67" font-family="Times,serif" font-size="14.00">(0.0013714901448033182)</text>
</g>
<!-- 8&#45;&gt;9 -->
<g id="edge15" class="edge">
<title>8&#45;&gt;9</title>
<path fill="none" stroke="black" d="M149.91,-89.29C149.91,-81.32 149.91,-72.43 149.91,-63.94"/>
<polygon fill="black" stroke="black" points="153.41,-63.87 149.91,-53.87 146.41,-63.87 153.41,-63.87"/>
</g>
<!-- 12 -->
<g id="node18" class="node">
<title>12</title>
<ellipse fill="none" stroke="black" cx="454.91" cy="-26.87" rx="137.36" ry="26.74"/>
<text text-anchor="middle" x="454.91" y="-30.67" font-family="Times,serif" font-size="14.00">eapply regulier.</text>
<text text-anchor="middle" x="454.91" y="-15.67" font-family="Times,serif" font-size="14.00">(0.00150130579276054)</text>
</g>
<!-- 11&#45;&gt;12 -->
<g id="edge17" class="edge">
<title>11&#45;&gt;12</title>
<path fill="none" stroke="black" d="M454.91,-89.29C454.91,-81.32 454.91,-72.43 454.91,-63.94"/>
<polygon fill="black" stroke="black" points="458.41,-63.87 454.91,-53.87 451.41,-63.87 458.41,-63.87"/>
</g>
<!-- 18 -->
<g id="node24" class="node">
<title>18</title>
<ellipse fill="blue" stroke="black" cx="1707.91" cy="-475.57" rx="124.4" ry="26.74"/>
<text text-anchor="middle" x="1707.91" y="-479.37" font-family="Times,serif" font-size="14.00">eauto.</text>
<text text-anchor="middle" x="1707.91" y="-464.37" font-family="Times,serif" font-size="14.00">(0.996267119322322)</text>
</g>
<!-- 17&#45;&gt;18 -->
<g id="edge23" class="edge">
<title>17&#45;&gt;18</title>
<path fill="none" stroke="black" d="M1845.99,-540.34C1822.02,-529.27 1793.41,-516.06 1768.47,-504.54"/>
<polygon fill="black" stroke="black" points="1769.65,-501.23 1759.1,-500.21 1766.72,-507.58 1769.65,-501.23"/>
</g>
<!-- 30 -->
<g id="node35" class="node">
<title>30</title>
<ellipse fill="blue" stroke="black" cx="2348.91" cy="-475.57" rx="130.63" ry="26.74"/>
<text text-anchor="middle" x="2348.91" y="-479.37" font-family="Times,serif" font-size="14.00">eauto.</text>
<text text-anchor="middle" x="2348.91" y="-464.37" font-family="Times,serif" font-size="14.00">(0.9307122349921335)</text>
</g>
<!-- 29&#45;&gt;30 -->
<g id="edge34" class="edge">
<title>29&#45;&gt;30</title>
<path fill="none" stroke="black" d="M2348.91,-537.99C2348.91,-530.02 2348.91,-521.13 2348.91,-512.64"/>
<polygon fill="black" stroke="black" points="2352.41,-512.57 2348.91,-502.57 2345.41,-512.57 2352.41,-512.57"/>
</g>
<!-- 43 -->
<g id="node47" class="node">
<title>43</title>
<ellipse fill="blue" stroke="black" cx="2846.91" cy="-475.57" rx="124.4" ry="26.74"/>
<text text-anchor="middle" x="2846.91" y="-479.37" font-family="Times,serif" font-size="14.00">eauto.</text>
<text text-anchor="middle" x="2846.91" y="-464.37" font-family="Times,serif" font-size="14.00">(0.996302025270565)</text>
</g>
<!-- 42&#45;&gt;43 -->
<g id="edge46" class="edge">
<title>42&#45;&gt;43</title>
<path fill="none" stroke="black" d="M2817.99,-538.46C2821.91,-530.06 2826.34,-520.59 2830.53,-511.63"/>
<polygon fill="black" stroke="black" points="2833.71,-513.08 2834.77,-502.54 2827.37,-510.12 2833.71,-513.08"/>
</g>
<!-- 53 -->
<g id="node48" class="node">
<title>53</title>
<ellipse fill="#404040" stroke="black" cx="3113.91" cy="-475.57" rx="124.4" ry="26.74"/>
<text text-anchor="middle" x="3113.91" y="-479.37" font-family="Times,serif" font-size="14.00">eauto.</text>
<text text-anchor="middle" x="3113.91" y="-464.37" font-family="Times,serif" font-size="14.00">(0.996302025270565)</text>
</g>
<!-- 42&#45;&gt;53 -->
<g id="edge47" class="edge">
<title>42&#45;&gt;53</title>
<path fill="none" stroke="black" d="M2881.25,-542.85C2926.64,-529.92 2984.49,-513.44 3031.15,-500.14"/>
<polygon fill="black" stroke="black" points="3032.27,-503.46 3040.93,-497.36 3030.36,-496.73 3032.27,-503.46"/>
</g>
<!-- 19 -->
<g id="node25" class="node">
<title>19</title>
<ellipse fill="none" stroke="black" cx="1542.91" cy="-385.83" rx="149.81" ry="26.74"/>
<text text-anchor="middle" x="1542.91" y="-389.63" font-family="Times,serif" font-size="14.00">eapply regulier.</text>
<text text-anchor="middle" x="1542.91" y="-374.63" font-family="Times,serif" font-size="14.00">(0.0021653602104666895)</text>
</g>
<!-- 18&#45;&gt;19 -->
<g id="edge24" class="edge">
<title>18&#45;&gt;19</title>
<path fill="none" stroke="black" d="M1662.38,-450.36C1642.52,-439.8 1619.06,-427.33 1598.21,-416.24"/>
<polygon fill="black" stroke="black" points="1599.61,-413.02 1589.14,-411.42 1596.33,-419.2 1599.61,-413.02"/>
</g>
<!-- 20 -->
<g id="node26" class="node">
<title>20</title>
<ellipse fill="blue" stroke="black" cx="1427.91" cy="-296.09" rx="124.4" ry="26.74"/>
<text text-anchor="middle" x="1427.91" y="-299.89" font-family="Times,serif" font-size="14.00">eauto.</text>
<text text-anchor="middle" x="1427.91" y="-284.89" font-family="Times,serif" font-size="14.00">(0.996302025270565)</text>
</g>
<!-- 19&#45;&gt;20 -->
<g id="edge25" class="edge">
<title>19&#45;&gt;20</title>
<path fill="none" stroke="black" d="M1509.64,-359.45C1496.9,-349.73 1482.21,-338.52 1468.83,-328.31"/>
<polygon fill="black" stroke="black" points="1470.77,-325.39 1460.7,-322.11 1466.52,-330.96 1470.77,-325.39"/>
</g>
<!-- 21 -->
<g id="node27" class="node">
<title>21</title>
<ellipse fill="none" stroke="black" cx="1064.91" cy="-206.35" rx="143.59" ry="26.74"/>
<text text-anchor="middle" x="1064.91" y="-210.15" font-family="Times,serif" font-size="14.00">eapply compatible_croix.</text>
<text text-anchor="middle" x="1064.91" y="-195.15" font-family="Times,serif" font-size="14.00">(0.018357345465070143)</text>
</g>
<!-- 20&#45;&gt;21 -->
<g id="edge26" class="edge">
<title>20&#45;&gt;21</title>
<path fill="none" stroke="black" d="M1346.89,-275.51C1291.69,-262.16 1218.36,-244.44 1160.32,-230.41"/>
<polygon fill="black" stroke="black" points="1160.95,-226.96 1150.41,-228.02 1159.31,-233.77 1160.95,-226.96"/>
</g>
<!-- 24 -->
<g id="node28" class="node">
<title>24</title>
<ellipse fill="none" stroke="black" cx="1369.91" cy="-206.35" rx="143.59" ry="26.74"/>
<text text-anchor="middle" x="1369.91" y="-210.15" font-family="Times,serif" font-size="14.00">apply compatible_croix.</text>
<text text-anchor="middle" x="1369.91" y="-195.15" font-family="Times,serif" font-size="14.00">(0.013867394254431585)</text>
</g>
<!-- 20&#45;&gt;24 -->
<g id="edge27" class="edge">
<title>20&#45;&gt;24</title>
<path fill="none" stroke="black" d="M1410.82,-269.24C1405.15,-260.66 1398.74,-250.97 1392.71,-241.84"/>
<polygon fill="black" stroke="black" points="1395.51,-239.73 1387.07,-233.32 1389.67,-243.59 1395.51,-239.73"/>
</g>
<!-- 27 -->
<g id="node29" class="node">
<title>27</title>
<ellipse fill="none" stroke="black" cx="1674.91" cy="-206.35" rx="143.59" ry="26.74"/>
<text text-anchor="middle" x="1674.91" y="-210.15" font-family="Times,serif" font-size="14.00">eapply regulier.</text>
<text text-anchor="middle" x="1674.91" y="-195.15" font-family="Times,serif" font-size="14.00">(0.009937406164242843)</text>
</g>
<!-- 20&#45;&gt;27 -->
<g id="edge28" class="edge">
<title>20&#45;&gt;27</title>
<path fill="none" stroke="black" d="M1490.55,-272.84C1524,-260.96 1565.38,-246.26 1600.46,-233.8"/>
<polygon fill="black" stroke="black" points="1601.92,-236.99 1610.17,-230.35 1599.58,-230.39 1601.92,-236.99"/>
</g>
<!-- 22 -->
<g id="node30" class="node">
<title>22</title>
<ellipse fill="blue" stroke="black" cx="1064.91" cy="-116.61" rx="130.63" ry="26.74"/>
<text text-anchor="middle" x="1064.91" y="-120.41" font-family="Times,serif" font-size="14.00">eauto.</text>
<text text-anchor="middle" x="1064.91" y="-105.41" font-family="Times,serif" font-size="14.00">(0.8391896759386042)</text>
</g>
<!-- 21&#45;&gt;22 -->
<g id="edge29" class="edge">
<title>21&#45;&gt;22</title>
<path fill="none" stroke="black" d="M1064.91,-179.03C1064.91,-171.06 1064.91,-162.17 1064.91,-153.68"/>
<polygon fill="black" stroke="black" points="1068.41,-153.61 1064.91,-143.61 1061.41,-153.61 1068.41,-153.61"/>
</g>
<!-- 25 -->
<g id="node32" class="node">
<title>25</title>
<ellipse fill="blue" stroke="black" cx="1369.91" cy="-116.61" rx="130.63" ry="26.74"/>
<text text-anchor="middle" x="1369.91" y="-120.41" font-family="Times,serif" font-size="14.00">eauto.</text>
<text text-anchor="middle" x="1369.91" y="-105.41" font-family="Times,serif" font-size="14.00">(0.4540048760616636)</text>
</g>
<!-- 24&#45;&gt;25 -->
<g id="edge31" class="edge">
<title>24&#45;&gt;25</title>
<path fill="none" stroke="black" d="M1369.91,-179.03C1369.91,-171.06 1369.91,-162.17 1369.91,-153.68"/>
<polygon fill="black" stroke="black" points="1373.41,-153.61 1369.91,-143.61 1366.41,-153.61 1373.41,-153.61"/>
</g>
<!-- 28 -->
<g id="node34" class="node">
<title>28</title>
<ellipse fill="blue" stroke="black" cx="1674.91" cy="-116.61" rx="124.4" ry="26.74"/>
<text text-anchor="middle" x="1674.91" y="-120.41" font-family="Times,serif" font-size="14.00">eauto.</text>
<text text-anchor="middle" x="1674.91" y="-105.41" font-family="Times,serif" font-size="14.00">(0.996302025270565)</text>
</g>
<!-- 27&#45;&gt;28 -->
<g id="edge33" class="edge">
<title>27&#45;&gt;28</title>
<path fill="none" stroke="black" d="M1674.91,-179.03C1674.91,-171.06 1674.91,-162.17 1674.91,-153.68"/>
<polygon fill="black" stroke="black" points="1678.41,-153.61 1674.91,-143.61 1671.41,-153.61 1678.41,-153.61"/>
</g>
<!-- 23 -->
<g id="node31" class="node">
<title>23</title>
<ellipse fill="none" stroke="black" cx="1064.91" cy="-26.87" rx="149.81" ry="26.74"/>
<text text-anchor="middle" x="1064.91" y="-30.67" font-family="Times,serif" font-size="14.00">eapply regulier.</text>
<text text-anchor="middle" x="1064.91" y="-15.67" font-family="Times,serif" font-size="14.00">(0.0013714901448033182)</text>
</g>
<!-- 22&#45;&gt;23 -->
<g id="edge30" class="edge">
<title>22&#45;&gt;23</title>
<path fill="none" stroke="black" d="M1064.91,-89.29C1064.91,-81.32 1064.91,-72.43 1064.91,-63.94"/>
<polygon fill="black" stroke="black" points="1068.41,-63.87 1064.91,-53.87 1061.41,-63.87 1068.41,-63.87"/>
</g>
<!-- 26 -->
<g id="node33" class="node">
<title>26</title>
<ellipse fill="none" stroke="black" cx="1369.91" cy="-26.87" rx="137.36" ry="26.74"/>
<text text-anchor="middle" x="1369.91" y="-30.67" font-family="Times,serif" font-size="14.00">eapply regulier.</text>
<text text-anchor="middle" x="1369.91" y="-15.67" font-family="Times,serif" font-size="14.00">(0.00150130579276054)</text>
</g>
<!-- 25&#45;&gt;26 -->
<g id="edge32" class="edge">
<title>25&#45;&gt;26</title>
<path fill="none" stroke="black" d="M1369.91,-89.29C1369.91,-81.32 1369.91,-72.43 1369.91,-63.94"/>
<polygon fill="black" stroke="black" points="1373.41,-63.87 1369.91,-53.87 1366.41,-63.87 1373.41,-63.87"/>
</g>
<!-- 31 -->
<g id="node36" class="node">
<title>31</title>
<ellipse fill="none" stroke="black" cx="2266.91" cy="-385.83" rx="143.59" ry="26.74"/>
<text text-anchor="middle" x="2266.91" y="-389.63" font-family="Times,serif" font-size="14.00">eapply regulier.</text>
<text text-anchor="middle" x="2266.91" y="-374.63" font-family="Times,serif" font-size="14.00">(0.002445835231126224)</text>
</g>
<!-- 30&#45;&gt;31 -->
<g id="edge35" class="edge">
<title>30&#45;&gt;31</title>
<path fill="none" stroke="black" d="M2324.75,-448.72C2316.32,-439.71 2306.75,-429.46 2297.85,-419.94"/>
<polygon fill="black" stroke="black" points="2300.28,-417.41 2290.89,-412.5 2295.16,-422.19 2300.28,-417.41"/>
</g>
<!-- 41 -->
<g id="node37" class="node">
<title>41</title>
<ellipse fill="orange" stroke="black" cx="2577.91" cy="-385.83" rx="149.81" ry="26.74"/>
<text text-anchor="middle" x="2577.91" y="-389.63" font-family="Times,serif" font-size="14.00">simpl.</text>
<text text-anchor="middle" x="2577.91" y="-374.63" font-family="Times,serif" font-size="14.00">(0.0005075796495076304)</text>
</g>
<!-- 30&#45;&gt;41 -->
<g id="edge36" class="edge">
<title>30&#45;&gt;41</title>
<path fill="none" stroke="black" d="M2408.77,-451.63C2438.8,-440.13 2475.37,-426.12 2506.81,-414.07"/>
<polygon fill="black" stroke="black" points="2508.31,-417.24 2516.39,-410.4 2505.8,-410.71 2508.31,-417.24"/>
</g>
<!-- 32 -->
<g id="node38" class="node">
<title>32</title>
<ellipse fill="blue" stroke="black" cx="2275.91" cy="-296.09" rx="124.4" ry="26.74"/>
<text text-anchor="middle" x="2275.91" y="-299.89" font-family="Times,serif" font-size="14.00">eauto.</text>
<text text-anchor="middle" x="2275.91" y="-284.89" font-family="Times,serif" font-size="14.00">(0.996302025270565)</text>
</g>
<!-- 31&#45;&gt;32 -->
<g id="edge37" class="edge">
<title>31&#45;&gt;32</title>
<path fill="none" stroke="black" d="M2269.61,-358.51C2270.42,-350.54 2271.34,-341.65 2272.21,-333.16"/>
<polygon fill="black" stroke="black" points="2275.7,-333.4 2273.24,-323.09 2268.74,-332.69 2275.7,-333.4"/>
</g>
<!-- 33 -->
<g id="node39" class="node">
<title>33</title>
<ellipse fill="none" stroke="black" cx="1979.91" cy="-206.35" rx="143.59" ry="26.74"/>
<text text-anchor="middle" x="1979.91" y="-210.15" font-family="Times,serif" font-size="14.00">eapply compatible_croix.</text>
<text text-anchor="middle" x="1979.91" y="-195.15" font-family="Times,serif" font-size="14.00">(0.018357345465070143)</text>
</g>
<!-- 32&#45;&gt;33 -->
<g id="edge38" class="edge">
<title>32&#45;&gt;33</title>
<path fill="none" stroke="black" d="M2204.63,-273.96C2162.24,-261.4 2108.24,-245.39 2063.79,-232.22"/>
<polygon fill="black" stroke="black" points="2064.76,-228.85 2054.17,-229.36 2062.77,-235.56 2064.76,-228.85"/>
</g>
<!-- 36 -->
<g id="node40" class="node">
<title>36</title>
<ellipse fill="none" stroke="black" cx="2284.91" cy="-206.35" rx="143.59" ry="26.74"/>
<text text-anchor="middle" x="2284.91" y="-210.15" font-family="Times,serif" font-size="14.00">apply compatible_croix.</text>
<text text-anchor="middle" x="2284.91" y="-195.15" font-family="Times,serif" font-size="14.00">(0.013867394254431585)</text>
</g>
<!-- 32&#45;&gt;36 -->
<g id="edge39" class="edge">
<title>32&#45;&gt;36</title>
<path fill="none" stroke="black" d="M2278.61,-268.77C2279.42,-260.8 2280.34,-251.91 2281.21,-243.42"/>
<polygon fill="black" stroke="black" points="2284.7,-243.66 2282.24,-233.35 2277.74,-242.94 2284.7,-243.66"/>
</g>
<!-- 39 -->
<g id="node41" class="node">
<title>39</title>
<ellipse fill="none" stroke="black" cx="2589.91" cy="-206.35" rx="143.59" ry="26.74"/>
<text text-anchor="middle" x="2589.91" y="-210.15" font-family="Times,serif" font-size="14.00">eapply regulier.</text>
<text text-anchor="middle" x="2589.91" y="-195.15" font-family="Times,serif" font-size="14.00">(0.009937406164242843)</text>
</g>
<!-- 32&#45;&gt;39 -->
<g id="edge40" class="edge">
<title>32&#45;&gt;39</title>
<path fill="none" stroke="black" d="M2349.92,-274.41C2395.64,-261.63 2454.52,-245.18 2502.52,-231.77"/>
<polygon fill="black" stroke="black" points="2503.59,-235.1 2512.28,-229.04 2501.71,-228.36 2503.59,-235.1"/>
</g>
<!-- 34 -->
<g id="node42" class="node">
<title>34</title>
<ellipse fill="blue" stroke="black" cx="1979.91" cy="-116.61" rx="130.63" ry="26.74"/>
<text text-anchor="middle" x="1979.91" y="-120.41" font-family="Times,serif" font-size="14.00">eauto.</text>
<text text-anchor="middle" x="1979.91" y="-105.41" font-family="Times,serif" font-size="14.00">(0.8391896759386042)</text>
</g>
<!-- 33&#45;&gt;34 -->
<g id="edge41" class="edge">
<title>33&#45;&gt;34</title>
<path fill="none" stroke="black" d="M1979.91,-179.03C1979.91,-171.06 1979.91,-162.17 1979.91,-153.68"/>
<polygon fill="black" stroke="black" points="1983.41,-153.61 1979.91,-143.61 1976.41,-153.61 1983.41,-153.61"/>
</g>
<!-- 37 -->
<g id="node44" class="node">
<title>37</title>
<ellipse fill="blue" stroke="black" cx="2284.91" cy="-116.61" rx="130.63" ry="26.74"/>
<text text-anchor="middle" x="2284.91" y="-120.41" font-family="Times,serif" font-size="14.00">eauto.</text>
<text text-anchor="middle" x="2284.91" y="-105.41" font-family="Times,serif" font-size="14.00">(0.4540048760616636)</text>
</g>
<!-- 36&#45;&gt;37 -->
<g id="edge43" class="edge">
<title>36&#45;&gt;37</title>
<path fill="none" stroke="black" d="M2284.91,-179.03C2284.91,-171.06 2284.91,-162.17 2284.91,-153.68"/>
<polygon fill="black" stroke="black" points="2288.41,-153.61 2284.91,-143.61 2281.41,-153.61 2288.41,-153.61"/>
</g>
<!-- 40 -->
<g id="node46" class="node">
<title>40</title>
<ellipse fill="blue" stroke="black" cx="2589.91" cy="-116.61" rx="124.4" ry="26.74"/>
<text text-anchor="middle" x="2589.91" y="-120.41" font-family="Times,serif" font-size="14.00">eauto.</text>
<text text-anchor="middle" x="2589.91" y="-105.41" font-family="Times,serif" font-size="14.00">(0.996302025270565)</text>
</g>
<!-- 39&#45;&gt;40 -->
<g id="edge45" class="edge">
<title>39&#45;&gt;40</title>
<path fill="none" stroke="black" d="M2589.91,-179.03C2589.91,-171.06 2589.91,-162.17 2589.91,-153.68"/>
<polygon fill="black" stroke="black" points="2593.41,-153.61 2589.91,-143.61 2586.41,-153.61 2593.41,-153.61"/>
</g>
<!-- 35 -->
<g id="node43" class="node">
<title>35</title>
<ellipse fill="none" stroke="black" cx="1979.91" cy="-26.87" rx="149.81" ry="26.74"/>
<text text-anchor="middle" x="1979.91" y="-30.67" font-family="Times,serif" font-size="14.00">eapply regulier.</text>
<text text-anchor="middle" x="1979.91" y="-15.67" font-family="Times,serif" font-size="14.00">(0.0013714901448033182)</text>
</g>
<!-- 34&#45;&gt;35 -->
<g id="edge42" class="edge">
<title>34&#45;&gt;35</title>
<path fill="none" stroke="black" d="M1979.91,-89.29C1979.91,-81.32 1979.91,-72.43 1979.91,-63.94"/>
<polygon fill="black" stroke="black" points="1983.41,-63.87 1979.91,-53.87 1976.41,-63.87 1983.41,-63.87"/>
</g>
<!-- 38 -->
<g id="node45" class="node">
<title>38</title>
<ellipse fill="none" stroke="black" cx="2284.91" cy="-26.87" rx="137.36" ry="26.74"/>
<text text-anchor="middle" x="2284.91" y="-30.67" font-family="Times,serif" font-size="14.00">eapply regulier.</text>
<text text-anchor="middle" x="2284.91" y="-15.67" font-family="Times,serif" font-size="14.00">(0.00150130579276054)</text>
</g>
<!-- 37&#45;&gt;38 -->
<g id="edge44" class="edge">
<title>37&#45;&gt;38</title>
<path fill="none" stroke="black" d="M2284.91,-89.29C2284.91,-81.32 2284.91,-72.43 2284.91,-63.94"/>
<polygon fill="black" stroke="black" points="2288.41,-63.87 2284.91,-53.87 2281.41,-63.87 2288.41,-63.87"/>
</g>
<!-- 44 -->
<g id="node49" class="node">
<title>44</title>
<ellipse fill="none" stroke="black" cx="2888.91" cy="-385.83" rx="143.59" ry="26.74"/>
<text text-anchor="middle" x="2888.91" y="-389.63" font-family="Times,serif" font-size="14.00">apply compatible_croix.</text>
<text text-anchor="middle" x="2888.91" y="-374.63" font-family="Times,serif" font-size="14.00">(0.028247541336933173)</text>
</g>
<!-- 43&#45;&gt;44 -->
<g id="edge48" class="edge">
<title>43&#45;&gt;44</title>
<path fill="none" stroke="black" d="M2859.28,-448.72C2863.3,-440.32 2867.84,-430.84 2872.13,-421.89"/>
<polygon fill="black" stroke="black" points="2875.31,-423.33 2876.48,-412.8 2869,-420.31 2875.31,-423.33"/>
</g>
<!-- 52 -->
<g id="node50" class="node">
<title>52</title>
<ellipse fill="#404040" stroke="black" cx="3193.91" cy="-385.83" rx="143.59" ry="26.74"/>
<text text-anchor="middle" x="3193.91" y="-389.63" font-family="Times,serif" font-size="14.00">apply compatible_croix.</text>
<text text-anchor="middle" x="3193.91" y="-374.63" font-family="Times,serif" font-size="14.00">(0.028247541336933173)</text>
</g>
<!-- 43&#45;&gt;52 -->
<g id="edge49" class="edge">
<title>43&#45;&gt;52</title>
<path fill="none" stroke="black" d="M2925.65,-454.66C2977.8,-441.47 3046.44,-424.12 3101.23,-410.26"/>
<polygon fill="black" stroke="black" points="3102.11,-413.65 3110.94,-407.81 3100.39,-406.87 3102.11,-413.65"/>
</g>
<!-- 45 -->
<g id="node51" class="node">
<title>45</title>
<ellipse fill="blue" stroke="black" cx="2888.91" cy="-296.09" rx="130.63" ry="26.74"/>
<text text-anchor="middle" x="2888.91" y="-299.89" font-family="Times,serif" font-size="14.00">eauto.</text>
<text text-anchor="middle" x="2888.91" y="-284.89" font-family="Times,serif" font-size="14.00">(0.4540048760616636)</text>
</g>
<!-- 44&#45;&gt;45 -->
<g id="edge50" class="edge">
<title>44&#45;&gt;45</title>
<path fill="none" stroke="black" d="M2888.91,-358.51C2888.91,-350.54 2888.91,-341.65 2888.91,-333.16"/>
<polygon fill="black" stroke="black" points="2892.41,-333.09 2888.91,-323.09 2885.41,-333.09 2892.41,-333.09"/>
</g>
<!-- 51 -->
<g id="node52" class="node">
<title>51</title>
<ellipse fill="#404040" stroke="black" cx="3168.91" cy="-296.09" rx="130.63" ry="26.74"/>
<text text-anchor="middle" x="3168.91" y="-299.89" font-family="Times,serif" font-size="14.00">eauto.</text>
<text text-anchor="middle" x="3168.91" y="-284.89" font-family="Times,serif" font-size="14.00">(0.4540048760616636)</text>
</g>
<!-- 44&#45;&gt;51 -->
<g id="edge51" class="edge">
<title>44&#45;&gt;51</title>
<path fill="none" stroke="black" d="M2960.29,-362.46C2999.74,-350.1 3048.84,-334.71 3089.5,-321.97"/>
<polygon fill="black" stroke="black" points="3090.61,-325.29 3099.11,-318.96 3088.52,-318.61 3090.61,-325.29"/>
</g>
<!-- 46 -->
<g id="node53" class="node">
<title>46</title>
<ellipse fill="none" stroke="black" cx="2888.91" cy="-206.35" rx="137.36" ry="26.74"/>
<text text-anchor="middle" x="2888.91" y="-210.15" font-family="Times,serif" font-size="14.00">apply compatible_croix.</text>
<text text-anchor="middle" x="2888.91" y="-195.15" font-family="Times,serif" font-size="14.00">(0.04010459960446545)</text>
</g>
<!-- 45&#45;&gt;46 -->
<g id="edge52" class="edge">
<title>45&#45;&gt;46</title>
<path fill="none" stroke="black" d="M2888.91,-268.77C2888.91,-260.8 2888.91,-251.91 2888.91,-243.42"/>
<polygon fill="black" stroke="black" points="2892.41,-243.35 2888.91,-233.35 2885.41,-243.35 2892.41,-243.35"/>
</g>
<!-- 50 -->
<g id="node54" class="node">
<title>50</title>
<ellipse fill="#404040" stroke="black" cx="3180.91" cy="-206.35" rx="137.36" ry="26.74"/>
<text text-anchor="middle" x="3180.91" y="-210.15" font-family="Times,serif" font-size="14.00">apply compatible_croix.</text>
<text text-anchor="middle" x="3180.91" y="-195.15" font-family="Times,serif" font-size="14.00">(0.04010459960446545)</text>
</g>
<!-- 45&#45;&gt;50 -->
<g id="edge53" class="edge">
<title>45&#45;&gt;50</title>
<path fill="none" stroke="black" d="M2960.71,-273.51C3002.39,-260.99 3055.06,-245.16 3098.44,-232.13"/>
<polygon fill="black" stroke="black" points="3099.54,-235.45 3108.11,-229.22 3097.53,-228.75 3099.54,-235.45"/>
</g>
<!-- 47 -->
<g id="node55" class="node">
<title>47</title>
<ellipse fill="blue" stroke="black" cx="2875.91" cy="-116.61" rx="130.63" ry="26.74"/>
<text text-anchor="middle" x="2875.91" y="-120.41" font-family="Times,serif" font-size="14.00">eauto.</text>
<text text-anchor="middle" x="2875.91" y="-105.41" font-family="Times,serif" font-size="14.00">(0.9307122349921335)</text>
</g>
<!-- 46&#45;&gt;47 -->
<g id="edge54" class="edge">
<title>46&#45;&gt;47</title>
<path fill="none" stroke="black" d="M2885.01,-179.03C2883.83,-171.06 2882.51,-162.17 2881.25,-153.68"/>
<polygon fill="black" stroke="black" points="2884.69,-152.99 2879.76,-143.61 2877.76,-154.02 2884.69,-152.99"/>
</g>
<!-- 49 -->
<g id="node56" class="node">
<title>49</title>
<ellipse fill="#404040" stroke="black" cx="3155.91" cy="-116.61" rx="130.63" ry="26.74"/>
<text text-anchor="middle" x="3155.91" y="-120.41" font-family="Times,serif" font-size="14.00">eauto.</text>
<text text-anchor="middle" x="3155.91" y="-105.41" font-family="Times,serif" font-size="14.00">(0.9307122349921335)</text>
</g>
<!-- 46&#45;&gt;49 -->
<g id="edge55" class="edge">
<title>46&#45;&gt;49</title>
<path fill="none" stroke="black" d="M2956.97,-182.98C2994.15,-170.77 3040.32,-155.59 3078.81,-142.94"/>
<polygon fill="black" stroke="black" points="3080.02,-146.23 3088.43,-139.78 3077.83,-139.58 3080.02,-146.23"/>
</g>
<!-- 48 -->
<g id="node57" class="node">
<title>48</title>
<ellipse fill="#404040" stroke="black" cx="2875.91" cy="-26.87" rx="130.63" ry="26.74"/>
<text text-anchor="middle" x="2875.91" y="-30.67" font-family="Times,serif" font-size="14.00">eauto.</text>
<text text-anchor="middle" x="2875.91" y="-15.67" font-family="Times,serif" font-size="14.00">(0.9600734299388932)</text>
</g>
<!-- 47&#45;&gt;48 -->
<g id="edge56" class="edge">
<title>47&#45;&gt;48</title>
<path fill="none" stroke="black" d="M2875.91,-89.29C2875.91,-81.32 2875.91,-72.43 2875.91,-63.94"/>
<polygon fill="black" stroke="black" points="2879.41,-63.87 2875.91,-53.87 2872.41,-63.87 2879.41,-63.87"/>
</g>
</g>
</svg>
