<?xml version="1.0" encoding="UTF-8" standalone="no"?>
<!DOCTYPE svg PUBLIC "-//W3C//DTD SVG 1.1//EN"
 "http://www.w3.org/Graphics/SVG/1.1/DTD/svg11.dtd">
<!-- Generated by graphviz version 2.43.0 (0)
 -->
<!-- Pages: 1 -->
<svg width="1488pt" height="331pt"
 viewBox="0.00 0.00 1488.09 330.96" xmlns="http://www.w3.org/2000/svg" xmlns:xlink="http://www.w3.org/1999/xlink">
<g id="graph0" class="graph" transform="scale(1 1) rotate(0) translate(4 326.96)">
<polygon fill="white" stroke="transparent" points="-4,4 -4,-326.96 1484.09,-326.96 1484.09,4 -4,4"/>
<!-- 0 -->
<g id="node1" class="node">
<title>0</title>
<ellipse fill="none" stroke="black" cx="581.18" cy="-296.09" rx="76.24" ry="26.74"/>
<text text-anchor="middle" x="581.18" y="-299.89" font-family="Times,serif" font-size="14.00">angle_inscrit</text>
<text text-anchor="middle" x="581.18" y="-284.89" font-family="Times,serif" font-size="14.00">(1.0)</text>
</g>
<!-- 1 -->
<g id="node2" class="node">
<title>1</title>
<ellipse fill="none" stroke="black" cx="137.18" cy="-206.35" rx="130.63" ry="26.74"/>
<text text-anchor="middle" x="137.18" y="-210.15" font-family="Times,serif" font-size="14.00">intros.</text>
<text text-anchor="middle" x="137.18" y="-195.15" font-family="Times,serif" font-size="14.00">(0.9463747436424575)</text>
</g>
<!-- 0&#45;&gt;1 -->
<g id="edge1" class="edge">
<title>0&#45;&gt;1</title>
<path fill="none" stroke="black" d="M515.66,-282.14C442.81,-267.75 324.19,-244.31 239.16,-227.5"/>
<polygon fill="black" stroke="black" points="239.72,-224.05 229.23,-225.54 238.36,-230.91 239.72,-224.05"/>
</g>
<!-- 3 -->
<g id="node3" class="node">
<title>3</title>
<ellipse fill="none" stroke="black" cx="429.18" cy="-206.35" rx="143.59" ry="26.74"/>
<text text-anchor="middle" x="429.18" y="-210.15" font-family="Times,serif" font-size="14.00">unfold isocele.</text>
<text text-anchor="middle" x="429.18" y="-195.15" font-family="Times,serif" font-size="14.00">(0.007948344108031526)</text>
</g>
<!-- 0&#45;&gt;3 -->
<g id="edge2" class="edge">
<title>0&#45;&gt;3</title>
<path fill="none" stroke="black" d="M542.43,-272.72C523.73,-261.93 501.04,-248.83 480.9,-237.2"/>
<polygon fill="black" stroke="black" points="482.55,-234.12 472.14,-232.15 479.05,-240.18 482.55,-234.12"/>
</g>
<!-- 7 -->
<g id="node4" class="node">
<title>7</title>
<ellipse fill="orange" stroke="black" cx="734.18" cy="-206.35" rx="143.59" ry="26.74"/>
<text text-anchor="middle" x="734.18" y="-210.15" font-family="Times,serif" font-size="14.00">simpl.</text>
<text text-anchor="middle" x="734.18" y="-195.15" font-family="Times,serif" font-size="14.00">(0.005360555006805686)</text>
</g>
<!-- 0&#45;&gt;7 -->
<g id="edge3" class="edge">
<title>0&#45;&gt;7</title>
<path fill="none" stroke="black" d="M620.18,-272.72C639.08,-261.89 662.03,-248.73 682.37,-237.06"/>
<polygon fill="black" stroke="black" points="684.27,-240 691.21,-231.99 680.79,-233.93 684.27,-240"/>
</g>
<!-- 8 -->
<g id="node5" class="node">
<title>8</title>
<ellipse fill="none" stroke="black" cx="1039.18" cy="-206.35" rx="143.59" ry="26.74"/>
<text text-anchor="middle" x="1039.18" y="-210.15" font-family="Times,serif" font-size="14.00">unfold isocele.</text>
<text text-anchor="middle" x="1039.18" y="-195.15" font-family="Times,serif" font-size="14.00">(0.003104299497858945)</text>
</g>
<!-- 0&#45;&gt;8 -->
<g id="edge4" class="edge">
<title>0&#45;&gt;8</title>
<path fill="none" stroke="black" d="M647.29,-282.43C721.59,-268.19 843.33,-244.87 931.42,-227.99"/>
<polygon fill="black" stroke="black" points="932.29,-231.39 941.46,-226.07 930.98,-224.52 932.29,-231.39"/>
</g>
<!-- 2 -->
<g id="node6" class="node">
<title>2</title>
<ellipse fill="orange" stroke="black" cx="137.18" cy="-116.61" rx="137.36" ry="26.74"/>
<text text-anchor="middle" x="137.18" y="-120.41" font-family="Times,serif" font-size="14.00">simpl.</text>
<text text-anchor="middle" x="137.18" y="-105.41" font-family="Times,serif" font-size="14.00">(0.20032734803439747)</text>
</g>
<!-- 1&#45;&gt;2 -->
<g id="edge5" class="edge">
<title>1&#45;&gt;2</title>
<path fill="none" stroke="black" d="M137.18,-179.03C137.18,-171.06 137.18,-162.17 137.18,-153.68"/>
<polygon fill="black" stroke="black" points="140.68,-153.61 137.18,-143.61 133.68,-153.61 140.68,-153.61"/>
</g>
<!-- 4 -->
<g id="node7" class="node">
<title>4</title>
<ellipse fill="none" stroke="black" cx="426.18" cy="-116.61" rx="130.63" ry="26.74"/>
<text text-anchor="middle" x="426.18" y="-120.41" font-family="Times,serif" font-size="14.00">intros.</text>
<text text-anchor="middle" x="426.18" y="-105.41" font-family="Times,serif" font-size="14.00">(0.9964944659190647)</text>
</g>
<!-- 3&#45;&gt;4 -->
<g id="edge6" class="edge">
<title>3&#45;&gt;4</title>
<path fill="none" stroke="black" d="M428.28,-179.03C428.01,-171.06 427.7,-162.17 427.41,-153.68"/>
<polygon fill="black" stroke="black" points="430.91,-153.49 427.07,-143.61 423.91,-153.73 430.91,-153.49"/>
</g>
<!-- 6 -->
<g id="node8" class="node">
<title>6</title>
<ellipse fill="orange" stroke="black" cx="725.18" cy="-116.61" rx="149.81" ry="26.74"/>
<text text-anchor="middle" x="725.18" y="-120.41" font-family="Times,serif" font-size="14.00">simpl.</text>
<text text-anchor="middle" x="725.18" y="-105.41" font-family="Times,serif" font-size="14.00">(0.0005391673451205467)</text>
</g>
<!-- 3&#45;&gt;6 -->
<g id="edge7" class="edge">
<title>3&#45;&gt;6</title>
<path fill="none" stroke="black" d="M503.49,-183.32C545.12,-170.98 597.2,-155.54 640.42,-142.73"/>
<polygon fill="black" stroke="black" points="641.47,-146.07 650.06,-139.88 639.48,-139.36 641.47,-146.07"/>
</g>
<!-- 9 -->
<g id="node10" class="node">
<title>9</title>
<ellipse fill="none" stroke="black" cx="1031.18" cy="-116.61" rx="130.63" ry="26.74"/>
<text text-anchor="middle" x="1031.18" y="-120.41" font-family="Times,serif" font-size="14.00">intros.</text>
<text text-anchor="middle" x="1031.18" y="-105.41" font-family="Times,serif" font-size="14.00">(0.9964944659190647)</text>
</g>
<!-- 8&#45;&gt;9 -->
<g id="edge9" class="edge">
<title>8&#45;&gt;9</title>
<path fill="none" stroke="black" d="M1036.78,-179.03C1036.05,-171.06 1035.24,-162.17 1034.47,-153.68"/>
<polygon fill="black" stroke="black" points="1037.94,-153.26 1033.55,-143.61 1030.97,-153.89 1037.94,-153.26"/>
</g>
<!-- 11 -->
<g id="node11" class="node">
<title>11</title>
<ellipse fill="orange" stroke="black" cx="1330.18" cy="-116.61" rx="149.81" ry="26.74"/>
<text text-anchor="middle" x="1330.18" y="-120.41" font-family="Times,serif" font-size="14.00">simpl.</text>
<text text-anchor="middle" x="1330.18" y="-105.41" font-family="Times,serif" font-size="14.00">(0.0005391673451205467)</text>
</g>
<!-- 8&#45;&gt;11 -->
<g id="edge10" class="edge">
<title>8&#45;&gt;11</title>
<path fill="none" stroke="black" d="M1112.61,-183.21C1153.3,-170.94 1204.05,-155.64 1246.3,-142.9"/>
<polygon fill="black" stroke="black" points="1247.45,-146.21 1256.01,-139.97 1245.43,-139.51 1247.45,-146.21"/>
</g>
<!-- 5 -->
<g id="node9" class="node">
<title>5</title>
<ellipse fill="orange" stroke="black" cx="426.18" cy="-26.87" rx="137.36" ry="26.74"/>
<text text-anchor="middle" x="426.18" y="-30.67" font-family="Times,serif" font-size="14.00">simpl.</text>
<text text-anchor="middle" x="426.18" y="-15.67" font-family="Times,serif" font-size="14.00">(0.07163743650055751)</text>
</g>
<!-- 4&#45;&gt;5 -->
<g id="edge8" class="edge">
<title>4&#45;&gt;5</title>
<path fill="none" stroke="black" d="M426.18,-89.29C426.18,-81.32 426.18,-72.43 426.18,-63.94"/>
<polygon fill="black" stroke="black" points="429.68,-63.87 426.18,-53.87 422.68,-63.87 429.68,-63.87"/>
</g>
<!-- 10 -->
<g id="node12" class="node">
<title>10</title>
<ellipse fill="orange" stroke="black" cx="1031.18" cy="-26.87" rx="137.36" ry="26.74"/>
<text text-anchor="middle" x="1031.18" y="-30.67" font-family="Times,serif" font-size="14.00">simpl.</text>
<text text-anchor="middle" x="1031.18" y="-15.67" font-family="Times,serif" font-size="14.00">(0.07163743650055751)</text>
</g>
<!-- 9&#45;&gt;10 -->
<g id="edge11" class="edge">
<title>9&#45;&gt;10</title>
<path fill="none" stroke="black" d="M1031.18,-89.29C1031.18,-81.32 1031.18,-72.43 1031.18,-63.94"/>
<polygon fill="black" stroke="black" points="1034.68,-63.87 1031.18,-53.87 1027.68,-63.87 1034.68,-63.87"/>
</g>
</g>
</svg>
