<?xml version="1.0" encoding="UTF-8" standalone="no"?>
<!DOCTYPE svg PUBLIC "-//W3C//DTD SVG 1.1//EN"
 "http://www.w3.org/Graphics/SVG/1.1/DTD/svg11.dtd">
<!-- Generated by graphviz version 2.43.0 (0)
 -->
<!-- Pages: 1 -->
<svg width="1197pt" height="331pt"
 viewBox="0.00 0.00 1197.09 330.96" xmlns="http://www.w3.org/2000/svg" xmlns:xlink="http://www.w3.org/1999/xlink">
<g id="graph0" class="graph" transform="scale(1 1) rotate(0) translate(4 326.96)">
<polygon fill="white" stroke="transparent" points="-4,4 -4,-326.96 1193.09,-326.96 1193.09,4 -4,4"/>
<!-- 0 -->
<g id="node1" class="node">
<title>0</title>
<ellipse fill="none" stroke="black" cx="747.54" cy="-296.09" rx="96.75" ry="26.74"/>
<text text-anchor="middle" x="747.54" y="-299.89" font-family="Times,serif" font-size="14.00">exists_opp_angle</text>
<text text-anchor="middle" x="747.54" y="-284.89" font-family="Times,serif" font-size="14.00">(1.0)</text>
</g>
<!-- 1 -->
<g id="node2" class="node">
<title>1</title>
<ellipse fill="none" stroke="black" cx="600.54" cy="-206.35" rx="130.63" ry="26.74"/>
<text text-anchor="middle" x="600.54" y="-210.15" font-family="Times,serif" font-size="14.00">intros.</text>
<text text-anchor="middle" x="600.54" y="-195.15" font-family="Times,serif" font-size="14.00">(0.9923406740949651)</text>
</g>
<!-- 0&#45;&gt;1 -->
<g id="edge1" class="edge">
<title>0&#45;&gt;1</title>
<path fill="none" stroke="black" d="M707.76,-271.35C690.07,-260.79 669.05,-248.24 650.33,-237.07"/>
<polygon fill="black" stroke="black" points="652.02,-234 641.64,-231.88 648.43,-240.01 652.02,-234"/>
</g>
<!-- 9 -->
<g id="node3" class="node">
<title>9</title>
<ellipse fill="orange" stroke="black" cx="894.54" cy="-206.35" rx="145.83" ry="26.74"/>
<text text-anchor="middle" x="894.54" y="-210.15" font-family="Times,serif" font-size="14.00">simpl.</text>
<text text-anchor="middle" x="894.54" y="-195.15" font-family="Times,serif" font-size="14.00">(8.563238264967396e&#45;05)</text>
</g>
<!-- 0&#45;&gt;9 -->
<g id="edge2" class="edge">
<title>0&#45;&gt;9</title>
<path fill="none" stroke="black" d="M787.32,-271.35C804.87,-260.88 825.68,-248.45 844.28,-237.35"/>
<polygon fill="black" stroke="black" points="846.14,-240.32 852.93,-232.19 842.55,-234.31 846.14,-240.32"/>
</g>
<!-- 2 -->
<g id="node4" class="node">
<title>2</title>
<ellipse fill="none" stroke="black" cx="153.54" cy="-116.61" rx="137.36" ry="26.74"/>
<text text-anchor="middle" x="153.54" y="-120.41" font-family="Times,serif" font-size="14.00">exists a.</text>
<text text-anchor="middle" x="153.54" y="-105.41" font-family="Times,serif" font-size="14.00">(0.06706155269570199)</text>
</g>
<!-- 1&#45;&gt;2 -->
<g id="edge3" class="edge">
<title>1&#45;&gt;2</title>
<path fill="none" stroke="black" d="M508.2,-187.22C435.41,-172.94 333.9,-153.01 258.13,-138.14"/>
<polygon fill="black" stroke="black" points="258.57,-134.66 248.08,-136.17 257.22,-141.53 258.57,-134.66"/>
</g>
<!-- 4 -->
<g id="node5" class="node">
<title>4</title>
<ellipse fill="none" stroke="black" cx="454.54" cy="-116.61" rx="137.36" ry="26.74"/>
<text text-anchor="middle" x="454.54" y="-120.41" font-family="Times,serif" font-size="14.00">econstructor.</text>
<text text-anchor="middle" x="454.54" y="-105.41" font-family="Times,serif" font-size="14.00">(0.06014357775714048)</text>
</g>
<!-- 1&#45;&gt;4 -->
<g id="edge4" class="edge">
<title>1&#45;&gt;4</title>
<path fill="none" stroke="black" d="M559.49,-180.68C542.38,-170.4 522.36,-158.37 504.42,-147.58"/>
<polygon fill="black" stroke="black" points="506.17,-144.55 495.8,-142.4 502.57,-150.55 506.17,-144.55"/>
</g>
<!-- 6 -->
<g id="node6" class="node">
<title>6</title>
<ellipse fill="none" stroke="black" cx="746.54" cy="-116.61" rx="137.36" ry="26.74"/>
<text text-anchor="middle" x="746.54" y="-120.41" font-family="Times,serif" font-size="14.00">exists a.</text>
<text text-anchor="middle" x="746.54" y="-105.41" font-family="Times,serif" font-size="14.00">(0.01289804055103763)</text>
</g>
<!-- 1&#45;&gt;6 -->
<g id="edge5" class="edge">
<title>1&#45;&gt;6</title>
<path fill="none" stroke="black" d="M641.6,-180.68C658.71,-170.4 678.73,-158.37 696.67,-147.58"/>
<polygon fill="black" stroke="black" points="698.52,-150.55 705.29,-142.4 694.91,-144.55 698.52,-150.55"/>
</g>
<!-- 8 -->
<g id="node7" class="node">
<title>8</title>
<ellipse fill="orange" stroke="black" cx="1045.54" cy="-116.61" rx="143.59" ry="26.74"/>
<text text-anchor="middle" x="1045.54" y="-120.41" font-family="Times,serif" font-size="14.00">subst.</text>
<text text-anchor="middle" x="1045.54" y="-105.41" font-family="Times,serif" font-size="14.00">(0.006805792613684432)</text>
</g>
<!-- 1&#45;&gt;8 -->
<g id="edge6" class="edge">
<title>1&#45;&gt;8</title>
<path fill="none" stroke="black" d="M692.48,-187.22C764.21,-173.08 863.95,-153.41 939.14,-138.59"/>
<polygon fill="black" stroke="black" points="939.98,-141.99 949.11,-136.62 938.62,-135.12 939.98,-141.99"/>
</g>
<!-- 3 -->
<g id="node8" class="node">
<title>3</title>
<ellipse fill="orange" stroke="black" cx="143.54" cy="-26.87" rx="143.59" ry="26.74"/>
<text text-anchor="middle" x="143.54" y="-30.67" font-family="Times,serif" font-size="14.00">simpl.</text>
<text text-anchor="middle" x="143.54" y="-15.67" font-family="Times,serif" font-size="14.00">(0.016462850489470007)</text>
</g>
<!-- 2&#45;&gt;3 -->
<g id="edge7" class="edge">
<title>2&#45;&gt;3</title>
<path fill="none" stroke="black" d="M150.54,-89.29C149.63,-81.32 148.62,-72.43 147.65,-63.94"/>
<polygon fill="black" stroke="black" points="151.12,-63.41 146.51,-53.87 144.16,-64.21 151.12,-63.41"/>
</g>
<!-- 5 -->
<g id="node9" class="node">
<title>5</title>
<ellipse fill="orange" stroke="black" cx="454.54" cy="-26.87" rx="149.81" ry="26.74"/>
<text text-anchor="middle" x="454.54" y="-30.67" font-family="Times,serif" font-size="14.00">simpl.</text>
<text text-anchor="middle" x="454.54" y="-15.67" font-family="Times,serif" font-size="14.00">(0.0010712325379728183)</text>
</g>
<!-- 4&#45;&gt;5 -->
<g id="edge8" class="edge">
<title>4&#45;&gt;5</title>
<path fill="none" stroke="black" d="M454.54,-89.29C454.54,-81.32 454.54,-72.43 454.54,-63.94"/>
<polygon fill="black" stroke="black" points="458.04,-63.87 454.54,-53.87 451.04,-63.87 458.04,-63.87"/>
</g>
<!-- 7 -->
<g id="node10" class="node">
<title>7</title>
<ellipse fill="orange" stroke="black" cx="765.54" cy="-26.87" rx="143.59" ry="26.74"/>
<text text-anchor="middle" x="765.54" y="-30.67" font-family="Times,serif" font-size="14.00">simpl.</text>
<text text-anchor="middle" x="765.54" y="-15.67" font-family="Times,serif" font-size="14.00">(0.016462850489470007)</text>
</g>
<!-- 6&#45;&gt;7 -->
<g id="edge9" class="edge">
<title>6&#45;&gt;7</title>
<path fill="none" stroke="black" d="M752.14,-89.76C753.9,-81.62 755.88,-72.48 757.77,-63.77"/>
<polygon fill="black" stroke="black" points="761.22,-64.35 759.92,-53.84 754.38,-62.87 761.22,-64.35"/>
</g>
</g>
</svg>
