<?xml version="1.0" encoding="UTF-8" standalone="no"?>
<!DOCTYPE svg PUBLIC "-//W3C//DTD SVG 1.1//EN"
 "http://www.w3.org/Graphics/SVG/1.1/DTD/svg11.dtd">
<!-- Generated by graphviz version 2.43.0 (0)
 -->
<!-- Pages: 1 -->
<svg width="5926pt" height="600pt"
 viewBox="0.00 0.00 5925.99 600.18" xmlns="http://www.w3.org/2000/svg" xmlns:xlink="http://www.w3.org/1999/xlink">
<g id="graph0" class="graph" transform="scale(1 1) rotate(0) translate(4 596.18)">
<polygon fill="white" stroke="transparent" points="-4,4 -4,-596.18 5921.99,-596.18 5921.99,4 -4,4"/>
<!-- 0 -->
<g id="node1" class="node">
<title>0</title>
<ellipse fill="none" stroke="black" cx="3885.45" cy="-565.31" rx="94.09" ry="26.74"/>
<text text-anchor="middle" x="3885.45" y="-569.11" font-family="Times,serif" font-size="14.00">deux_rectangles</text>
<text text-anchor="middle" x="3885.45" y="-554.11" font-family="Times,serif" font-size="14.00">(1.0)</text>
</g>
<!-- 1 -->
<g id="node2" class="node">
<title>1</title>
<ellipse fill="none" stroke="black" cx="2923.45" cy="-475.57" rx="130.63" ry="26.74"/>
<text text-anchor="middle" x="2923.45" y="-479.37" font-family="Times,serif" font-size="14.00">intros.</text>
<text text-anchor="middle" x="2923.45" y="-464.37" font-family="Times,serif" font-size="14.00">(0.9674929548443554)</text>
</g>
<!-- 0&#45;&gt;1 -->
<g id="edge1" class="edge">
<title>0&#45;&gt;1</title>
<path fill="none" stroke="black" d="M3796.67,-556.21C3625.57,-540.61 3249.58,-506.32 3051.43,-488.24"/>
<polygon fill="black" stroke="black" points="3051.54,-484.74 3041.26,-487.32 3050.9,-491.71 3051.54,-484.74"/>
</g>
<!-- 32 -->
<g id="node3" class="node">
<title>32</title>
<ellipse fill="none" stroke="black" cx="3885.45" cy="-475.57" rx="143.59" ry="26.74"/>
<text text-anchor="middle" x="3885.45" y="-479.37" font-family="Times,serif" font-size="14.00">unfold orthogonal.</text>
<text text-anchor="middle" x="3885.45" y="-464.37" font-family="Times,serif" font-size="14.00">(0.005268822822780916)</text>
</g>
<!-- 0&#45;&gt;32 -->
<g id="edge2" class="edge">
<title>0&#45;&gt;32</title>
<path fill="none" stroke="black" d="M3885.45,-537.99C3885.45,-530.02 3885.45,-521.13 3885.45,-512.64"/>
<polygon fill="black" stroke="black" points="3888.95,-512.57 3885.45,-502.57 3881.95,-512.57 3888.95,-512.57"/>
</g>
<!-- 54 -->
<g id="node4" class="node">
<title>54</title>
<ellipse fill="orange" stroke="black" cx="4196.45" cy="-475.57" rx="149.81" ry="26.74"/>
<text text-anchor="middle" x="4196.45" y="-479.37" font-family="Times,serif" font-size="14.00">simpl.</text>
<text text-anchor="middle" x="4196.45" y="-464.37" font-family="Times,serif" font-size="14.00">(0.0012378546546253616)</text>
</g>
<!-- 0&#45;&gt;54 -->
<g id="edge3" class="edge">
<title>0&#45;&gt;54</title>
<path fill="none" stroke="black" d="M3950.65,-545.92C3996.48,-532.99 4058.34,-515.53 4108.53,-501.37"/>
<polygon fill="black" stroke="black" points="4109.74,-504.67 4118.41,-498.59 4107.83,-497.93 4109.74,-504.67"/>
</g>
<!-- 2 -->
<g id="node5" class="node">
<title>2</title>
<ellipse fill="orange" stroke="black" cx="2563.45" cy="-385.83" rx="137.36" ry="26.74"/>
<text text-anchor="middle" x="2563.45" y="-389.63" font-family="Times,serif" font-size="14.00">simpl.</text>
<text text-anchor="middle" x="2563.45" y="-374.63" font-family="Times,serif" font-size="14.00">(0.04278835649936663)</text>
</g>
<!-- 1&#45;&gt;2 -->
<g id="edge4" class="edge">
<title>1&#45;&gt;2</title>
<path fill="none" stroke="black" d="M2841.31,-454.55C2786.38,-441.16 2713.99,-423.52 2656.86,-409.6"/>
<polygon fill="black" stroke="black" points="2657.65,-406.19 2647.11,-407.22 2656,-412.99 2657.65,-406.19"/>
</g>
<!-- 3 -->
<g id="node6" class="node">
<title>3</title>
<ellipse fill="none" stroke="black" cx="2923.45" cy="-385.83" rx="204.21" ry="26.74"/>
<text text-anchor="middle" x="2923.45" y="-389.63" font-family="Times,serif" font-size="14.00">apply changement_base_cocyclique_2.</text>
<text text-anchor="middle" x="2923.45" y="-374.63" font-family="Times,serif" font-size="14.00">(0.02551361974032954)</text>
</g>
<!-- 1&#45;&gt;3 -->
<g id="edge5" class="edge">
<title>1&#45;&gt;3</title>
<path fill="none" stroke="black" d="M2923.45,-448.25C2923.45,-440.28 2923.45,-431.39 2923.45,-422.9"/>
<polygon fill="black" stroke="black" points="2926.95,-422.83 2923.45,-412.83 2919.95,-422.83 2926.95,-422.83"/>
</g>
<!-- 33 -->
<g id="node35" class="node">
<title>33</title>
<ellipse fill="none" stroke="black" cx="3885.45" cy="-385.83" rx="124.4" ry="26.74"/>
<text text-anchor="middle" x="3885.45" y="-389.63" font-family="Times,serif" font-size="14.00">intros.</text>
<text text-anchor="middle" x="3885.45" y="-374.63" font-family="Times,serif" font-size="14.00">(0.995676810956913)</text>
</g>
<!-- 32&#45;&gt;33 -->
<g id="edge34" class="edge">
<title>32&#45;&gt;33</title>
<path fill="none" stroke="black" d="M3885.45,-448.25C3885.45,-440.28 3885.45,-431.39 3885.45,-422.9"/>
<polygon fill="black" stroke="black" points="3888.95,-422.83 3885.45,-412.83 3881.95,-422.83 3888.95,-422.83"/>
</g>
<!-- 53 -->
<g id="node36" class="node">
<title>53</title>
<ellipse fill="orange" stroke="black" cx="4177.45" cy="-385.83" rx="149.81" ry="26.74"/>
<text text-anchor="middle" x="4177.45" y="-389.63" font-family="Times,serif" font-size="14.00">simpl.</text>
<text text-anchor="middle" x="4177.45" y="-374.63" font-family="Times,serif" font-size="14.00">(0.0008823348219993838)</text>
</g>
<!-- 32&#45;&gt;53 -->
<g id="edge35" class="edge">
<title>32&#45;&gt;53</title>
<path fill="none" stroke="black" d="M3959.13,-452.43C3999.97,-440.16 4050.89,-424.86 4093.29,-412.12"/>
<polygon fill="black" stroke="black" points="4094.46,-415.42 4103.03,-409.19 4092.44,-408.72 4094.46,-415.42"/>
</g>
<!-- 4 -->
<g id="node7" class="node">
<title>4</title>
<ellipse fill="orange" stroke="black" cx="2344.45" cy="-296.09" rx="124.4" ry="26.74"/>
<text text-anchor="middle" x="2344.45" y="-299.89" font-family="Times,serif" font-size="14.00">eauto.</text>
<text text-anchor="middle" x="2344.45" y="-284.89" font-family="Times,serif" font-size="14.00">(0.630737526205833)</text>
</g>
<!-- 3&#45;&gt;4 -->
<g id="edge6" class="edge">
<title>3&#45;&gt;4</title>
<path fill="none" stroke="black" d="M2779.37,-366.75C2692.11,-355.31 2578.68,-339.59 2478.45,-322.96 2467.04,-321.07 2455.1,-318.95 2443.26,-316.78"/>
<polygon fill="black" stroke="black" points="2443.82,-313.32 2433.35,-314.93 2442.54,-320.2 2443.82,-313.32"/>
</g>
<!-- 5 -->
<g id="node8" class="node">
<title>5</title>
<ellipse fill="none" stroke="black" cx="2624.45" cy="-296.09" rx="137.36" ry="26.74"/>
<text text-anchor="middle" x="2624.45" y="-299.89" font-family="Times,serif" font-size="14.00">red.</text>
<text text-anchor="middle" x="2624.45" y="-284.89" font-family="Times,serif" font-size="14.00">(0.26869939473936133)</text>
</g>
<!-- 3&#45;&gt;5 -->
<g id="edge7" class="edge">
<title>3&#45;&gt;5</title>
<path fill="none" stroke="black" d="M2842.54,-361.09C2800.82,-348.85 2750.01,-333.93 2707.93,-321.59"/>
<polygon fill="black" stroke="black" points="2708.84,-318.21 2698.26,-318.75 2706.87,-324.92 2708.84,-318.21"/>
</g>
<!-- 29 -->
<g id="node9" class="node">
<title>29</title>
<ellipse fill="orange" stroke="black" cx="2923.45" cy="-296.09" rx="143.59" ry="26.74"/>
<text text-anchor="middle" x="2923.45" y="-299.89" font-family="Times,serif" font-size="14.00">simpl.</text>
<text text-anchor="middle" x="2923.45" y="-284.89" font-family="Times,serif" font-size="14.00">(0.005024425516502539)</text>
</g>
<!-- 3&#45;&gt;29 -->
<g id="edge8" class="edge">
<title>3&#45;&gt;29</title>
<path fill="none" stroke="black" d="M2923.45,-358.51C2923.45,-350.54 2923.45,-341.65 2923.45,-333.16"/>
<polygon fill="black" stroke="black" points="2926.95,-333.09 2923.45,-323.09 2919.95,-333.09 2926.95,-333.09"/>
</g>
<!-- 30 -->
<g id="node10" class="node">
<title>30</title>
<ellipse fill="none" stroke="black" cx="3234.45" cy="-296.09" rx="149.81" ry="26.74"/>
<text text-anchor="middle" x="3234.45" y="-299.89" font-family="Times,serif" font-size="14.00">intuition.</text>
<text text-anchor="middle" x="3234.45" y="-284.89" font-family="Times,serif" font-size="14.00">(0.0012344794638028925)</text>
</g>
<!-- 3&#45;&gt;30 -->
<g id="edge9" class="edge">
<title>3&#45;&gt;30</title>
<path fill="none" stroke="black" d="M3007.2,-361.2C3050.36,-349.03 3102.95,-334.19 3146.67,-321.86"/>
<polygon fill="black" stroke="black" points="3147.75,-325.19 3156.43,-319.1 3145.85,-318.45 3147.75,-325.19"/>
</g>
<!-- 6 -->
<g id="node11" class="node">
<title>6</title>
<ellipse fill="none" stroke="black" cx="1233.45" cy="-206.35" rx="124.4" ry="26.74"/>
<text text-anchor="middle" x="1233.45" y="-210.15" font-family="Times,serif" font-size="14.00">intros.</text>
<text text-anchor="middle" x="1233.45" y="-195.15" font-family="Times,serif" font-size="14.00">(0.941327605046585)</text>
</g>
<!-- 5&#45;&gt;6 -->
<g id="edge10" class="edge">
<title>5&#45;&gt;6</title>
<path fill="none" stroke="black" d="M2529.42,-276.58C2512.18,-273.74 2494.32,-271.12 2477.45,-269.22 2075.41,-224.02 1596.58,-211.84 1367.93,-208.56"/>
<polygon fill="black" stroke="black" points="1367.95,-205.06 1357.9,-208.42 1367.85,-212.06 1367.95,-205.06"/>
</g>
<!-- 18 -->
<g id="node12" class="node">
<title>18</title>
<ellipse fill="orange" stroke="black" cx="2332.45" cy="-206.35" rx="130.63" ry="26.74"/>
<text text-anchor="middle" x="2332.45" y="-210.15" font-family="Times,serif" font-size="14.00">simpl.</text>
<text text-anchor="middle" x="2332.45" y="-195.15" font-family="Times,serif" font-size="14.00">(0.0466632391967979)</text>
</g>
<!-- 5&#45;&gt;18 -->
<g id="edge11" class="edge">
<title>5&#45;&gt;18</title>
<path fill="none" stroke="black" d="M2551.52,-273.18C2509.67,-260.6 2457.02,-244.78 2413.83,-231.8"/>
<polygon fill="black" stroke="black" points="2414.78,-228.44 2404.2,-228.91 2412.77,-235.14 2414.78,-228.44"/>
</g>
<!-- 19 -->
<g id="node13" class="node">
<title>19</title>
<ellipse fill="orange" stroke="black" cx="2624.45" cy="-206.35" rx="143.59" ry="26.74"/>
<text text-anchor="middle" x="2624.45" y="-210.15" font-family="Times,serif" font-size="14.00">eauto.</text>
<text text-anchor="middle" x="2624.45" y="-195.15" font-family="Times,serif" font-size="14.00">(0.008554896673787565)</text>
</g>
<!-- 5&#45;&gt;19 -->
<g id="edge12" class="edge">
<title>5&#45;&gt;19</title>
<path fill="none" stroke="black" d="M2624.45,-268.77C2624.45,-260.8 2624.45,-251.91 2624.45,-243.42"/>
<polygon fill="black" stroke="black" points="2627.95,-243.35 2624.45,-233.35 2620.95,-243.35 2627.95,-243.35"/>
</g>
<!-- 20 -->
<g id="node14" class="node">
<title>20</title>
<ellipse fill="none" stroke="black" cx="2929.45" cy="-206.35" rx="143.59" ry="26.74"/>
<text text-anchor="middle" x="2929.45" y="-210.15" font-family="Times,serif" font-size="14.00">unfold colineaire.</text>
<text text-anchor="middle" x="2929.45" y="-195.15" font-family="Times,serif" font-size="14.00">(0.000985665483431936)</text>
</g>
<!-- 5&#45;&gt;20 -->
<g id="edge13" class="edge">
<title>5&#45;&gt;20</title>
<path fill="none" stroke="black" d="M2699.45,-273.51C2743.08,-260.96 2798.23,-245.1 2843.6,-232.05"/>
<polygon fill="black" stroke="black" points="2844.77,-235.35 2853.41,-229.22 2842.84,-228.63 2844.77,-235.35"/>
</g>
<!-- 31 -->
<g id="node34" class="node">
<title>31</title>
<ellipse fill="orange" stroke="black" cx="3234.45" cy="-206.35" rx="137.36" ry="26.74"/>
<text text-anchor="middle" x="3234.45" y="-210.15" font-family="Times,serif" font-size="14.00">subst.</text>
<text text-anchor="middle" x="3234.45" y="-195.15" font-family="Times,serif" font-size="14.00">(0.06941650104900321)</text>
</g>
<!-- 30&#45;&gt;31 -->
<g id="edge33" class="edge">
<title>30&#45;&gt;31</title>
<path fill="none" stroke="black" d="M3234.45,-268.77C3234.45,-260.8 3234.45,-251.91 3234.45,-243.42"/>
<polygon fill="black" stroke="black" points="3237.95,-243.35 3234.45,-233.35 3230.95,-243.35 3237.95,-243.35"/>
</g>
<!-- 7 -->
<g id="node15" class="node">
<title>7</title>
<ellipse fill="none" stroke="black" cx="404.45" cy="-116.61" rx="209.11" ry="26.74"/>
<text text-anchor="middle" x="404.45" y="-120.41" font-family="Times,serif" font-size="14.00">eelim construction_circonscrit_vecteur.</text>
<text text-anchor="middle" x="404.45" y="-105.41" font-family="Times,serif" font-size="14.00">(0.8608546952454545)</text>
</g>
<!-- 6&#45;&gt;7 -->
<g id="edge14" class="edge">
<title>6&#45;&gt;7</title>
<path fill="none" stroke="black" d="M1121.34,-194.58C998.74,-182.67 796.52,-162.62 622.45,-143.48 603.25,-141.37 583.1,-139.08 563.14,-136.77"/>
<polygon fill="black" stroke="black" points="563.39,-133.27 553.05,-135.59 562.58,-140.22 563.39,-133.27"/>
</g>
<!-- 11 -->
<g id="node16" class="node">
<title>11</title>
<ellipse fill="orange" stroke="black" cx="775.45" cy="-116.61" rx="143.59" ry="26.74"/>
<text text-anchor="middle" x="775.45" y="-120.41" font-family="Times,serif" font-size="14.00">simpl in H0.</text>
<text text-anchor="middle" x="775.45" y="-105.41" font-family="Times,serif" font-size="14.00">(0.009846498943507932)</text>
</g>
<!-- 6&#45;&gt;11 -->
<g id="edge15" class="edge">
<title>6&#45;&gt;11</title>
<path fill="none" stroke="black" d="M1142.69,-187.96C1068.04,-173.66 962.07,-153.36 883.13,-138.24"/>
<polygon fill="black" stroke="black" points="883.64,-134.77 873.16,-136.33 882.32,-141.65 883.64,-134.77"/>
</g>
<!-- 12 -->
<g id="node17" class="node">
<title>12</title>
<ellipse fill="orange" stroke="black" cx="1080.45" cy="-116.61" rx="143.59" ry="26.74"/>
<text text-anchor="middle" x="1080.45" y="-120.41" font-family="Times,serif" font-size="14.00">simpl in H.</text>
<text text-anchor="middle" x="1080.45" y="-105.41" font-family="Times,serif" font-size="14.00">(0.009846498943507932)</text>
</g>
<!-- 6&#45;&gt;12 -->
<g id="edge16" class="edge">
<title>6&#45;&gt;12</title>
<path fill="none" stroke="black" d="M1190.83,-180.91C1172.74,-170.54 1151.48,-158.34 1132.48,-147.45"/>
<polygon fill="black" stroke="black" points="1134.05,-144.32 1123.64,-142.38 1130.57,-150.39 1134.05,-144.32"/>
</g>
<!-- 13 -->
<g id="node18" class="node">
<title>13</title>
<ellipse fill="none" stroke="black" cx="1385.45" cy="-116.61" rx="143.59" ry="26.74"/>
<text text-anchor="middle" x="1385.45" y="-120.41" font-family="Times,serif" font-size="14.00">eelim exists_opp_angle.</text>
<text text-anchor="middle" x="1385.45" y="-105.41" font-family="Times,serif" font-size="14.00">(0.006703733201537459)</text>
</g>
<!-- 6&#45;&gt;13 -->
<g id="edge17" class="edge">
<title>6&#45;&gt;13</title>
<path fill="none" stroke="black" d="M1275.79,-180.91C1293.76,-170.54 1314.88,-158.34 1333.76,-147.45"/>
<polygon fill="black" stroke="black" points="1335.64,-150.41 1342.55,-142.38 1332.14,-144.34 1335.64,-150.41"/>
</g>
<!-- 17 -->
<g id="node19" class="node">
<title>17</title>
<ellipse fill="orange" stroke="black" cx="1684.45" cy="-116.61" rx="137.36" ry="26.74"/>
<text text-anchor="middle" x="1684.45" y="-120.41" font-family="Times,serif" font-size="14.00">simpl in H1.</text>
<text text-anchor="middle" x="1684.45" y="-105.41" font-family="Times,serif" font-size="14.00">(0.00642031340600587)</text>
</g>
<!-- 6&#45;&gt;17 -->
<g id="edge18" class="edge">
<title>6&#45;&gt;17</title>
<path fill="none" stroke="black" d="M1323.63,-187.81C1397.31,-173.47 1501.58,-153.19 1579.09,-138.11"/>
<polygon fill="black" stroke="black" points="1580.22,-141.45 1589.37,-136.11 1578.88,-134.58 1580.22,-141.45"/>
</g>
<!-- 21 -->
<g id="node26" class="node">
<title>21</title>
<ellipse fill="none" stroke="black" cx="2643.45" cy="-116.61" rx="130.63" ry="26.74"/>
<text text-anchor="middle" x="2643.45" y="-120.41" font-family="Times,serif" font-size="14.00">intros.</text>
<text text-anchor="middle" x="2643.45" y="-105.41" font-family="Times,serif" font-size="14.00">(0.6034146126416704)</text>
</g>
<!-- 20&#45;&gt;21 -->
<g id="edge25" class="edge">
<title>20&#45;&gt;21</title>
<path fill="none" stroke="black" d="M2856.91,-183.1C2816.38,-170.66 2765.78,-155.14 2724.02,-142.33"/>
<polygon fill="black" stroke="black" points="2725.02,-138.97 2714.43,-139.39 2722.96,-145.66 2725.02,-138.97"/>
</g>
<!-- 27 -->
<g id="node27" class="node">
<title>27</title>
<ellipse fill="orange" stroke="black" cx="2929.45" cy="-116.61" rx="137.36" ry="26.74"/>
<text text-anchor="middle" x="2929.45" y="-120.41" font-family="Times,serif" font-size="14.00">eauto.</text>
<text text-anchor="middle" x="2929.45" y="-105.41" font-family="Times,serif" font-size="14.00">(0.06925070102901734)</text>
</g>
<!-- 20&#45;&gt;27 -->
<g id="edge26" class="edge">
<title>20&#45;&gt;27</title>
<path fill="none" stroke="black" d="M2929.45,-179.03C2929.45,-171.06 2929.45,-162.17 2929.45,-153.68"/>
<polygon fill="black" stroke="black" points="2932.95,-153.61 2929.45,-143.61 2925.95,-153.61 2932.95,-153.61"/>
</g>
<!-- 28 -->
<g id="node28" class="node">
<title>28</title>
<ellipse fill="orange" stroke="black" cx="3221.45" cy="-116.61" rx="137.36" ry="26.74"/>
<text text-anchor="middle" x="3221.45" y="-120.41" font-family="Times,serif" font-size="14.00">simpl.</text>
<text text-anchor="middle" x="3221.45" y="-105.41" font-family="Times,serif" font-size="14.00">(0.04539294223067804)</text>
</g>
<!-- 20&#45;&gt;28 -->
<g id="edge27" class="edge">
<title>20&#45;&gt;28</title>
<path fill="none" stroke="black" d="M3003.13,-183.21C3044.51,-170.78 3096.26,-155.23 3138.99,-142.39"/>
<polygon fill="black" stroke="black" points="3140.23,-145.67 3148.8,-139.44 3138.22,-138.97 3140.23,-145.67"/>
</g>
<!-- 8 -->
<g id="node20" class="node">
<title>8</title>
<ellipse fill="orange" stroke="black" cx="124.45" cy="-26.87" rx="124.4" ry="26.74"/>
<text text-anchor="middle" x="124.45" y="-30.67" font-family="Times,serif" font-size="14.00">simpl.</text>
<text text-anchor="middle" x="124.45" y="-15.67" font-family="Times,serif" font-size="14.00">(0.776627690587688)</text>
</g>
<!-- 7&#45;&gt;8 -->
<g id="edge19" class="edge">
<title>7&#45;&gt;8</title>
<path fill="none" stroke="black" d="M327.57,-91.52C288.76,-79.36 241.78,-64.64 202.77,-52.41"/>
<polygon fill="black" stroke="black" points="203.63,-49.01 193.04,-49.36 201.53,-55.69 203.63,-49.01"/>
</g>
<!-- 9 -->
<g id="node21" class="node">
<title>9</title>
<ellipse fill="none" stroke="black" cx="404.45" cy="-26.87" rx="137.36" ry="26.74"/>
<text text-anchor="middle" x="404.45" y="-30.67" font-family="Times,serif" font-size="14.00">intros.</text>
<text text-anchor="middle" x="404.45" y="-15.67" font-family="Times,serif" font-size="14.00">(0.16735085462561516)</text>
</g>
<!-- 7&#45;&gt;9 -->
<g id="edge20" class="edge">
<title>7&#45;&gt;9</title>
<path fill="none" stroke="black" d="M404.45,-89.29C404.45,-81.32 404.45,-72.43 404.45,-63.94"/>
<polygon fill="black" stroke="black" points="407.95,-63.87 404.45,-53.87 400.95,-63.87 407.95,-63.87"/>
</g>
<!-- 10 -->
<g id="node22" class="node">
<title>10</title>
<ellipse fill="orange" stroke="black" cx="703.45" cy="-26.87" rx="143.59" ry="26.74"/>
<text text-anchor="middle" x="703.45" y="-30.67" font-family="Times,serif" font-size="14.00">eauto.</text>
<text text-anchor="middle" x="703.45" y="-15.67" font-family="Times,serif" font-size="14.00">(0.013913467093780173)</text>
</g>
<!-- 7&#45;&gt;10 -->
<g id="edge21" class="edge">
<title>7&#45;&gt;10</title>
<path fill="none" stroke="black" d="M485.76,-91.75C526.98,-79.65 577.01,-64.97 618.71,-52.74"/>
<polygon fill="black" stroke="black" points="619.96,-56.02 628.57,-49.84 617.99,-49.3 619.96,-56.02"/>
</g>
<!-- 14 -->
<g id="node23" class="node">
<title>14</title>
<ellipse fill="none" stroke="black" cx="1050.45" cy="-26.87" rx="130.63" ry="26.74"/>
<text text-anchor="middle" x="1050.45" y="-30.67" font-family="Times,serif" font-size="14.00">intros.</text>
<text text-anchor="middle" x="1050.45" y="-15.67" font-family="Times,serif" font-size="14.00">(0.6540673050726205)</text>
</g>
<!-- 13&#45;&gt;14 -->
<g id="edge22" class="edge">
<title>13&#45;&gt;14</title>
<path fill="none" stroke="black" d="M1304.36,-94.37C1254.33,-81.27 1190.14,-64.46 1138.82,-51.02"/>
<polygon fill="black" stroke="black" points="1139.63,-47.61 1129.07,-48.46 1137.85,-54.38 1139.63,-47.61"/>
</g>
<!-- 15 -->
<g id="node24" class="node">
<title>15</title>
<ellipse fill="orange" stroke="black" cx="1330.45" cy="-26.87" rx="130.63" ry="26.74"/>
<text text-anchor="middle" x="1330.45" y="-30.67" font-family="Times,serif" font-size="14.00">simpl.</text>
<text text-anchor="middle" x="1330.45" y="-15.67" font-family="Times,serif" font-size="14.00">(0.0416134230314673)</text>
</g>
<!-- 13&#45;&gt;15 -->
<g id="edge23" class="edge">
<title>13&#45;&gt;15</title>
<path fill="none" stroke="black" d="M1369.25,-89.76C1363.87,-81.18 1357.79,-71.49 1352.07,-62.36"/>
<polygon fill="black" stroke="black" points="1355.01,-60.45 1346.73,-53.84 1349.08,-64.17 1355.01,-60.45"/>
</g>
<!-- 16 -->
<g id="node25" class="node">
<title>16</title>
<ellipse fill="orange" stroke="black" cx="1616.45" cy="-26.87" rx="137.36" ry="26.74"/>
<text text-anchor="middle" x="1616.45" y="-30.67" font-family="Times,serif" font-size="14.00">eauto.</text>
<text text-anchor="middle" x="1616.45" y="-15.67" font-family="Times,serif" font-size="14.00">(0.00953308400654156)</text>
</g>
<!-- 13&#45;&gt;16 -->
<g id="edge24" class="edge">
<title>13&#45;&gt;16</title>
<path fill="none" stroke="black" d="M1447.05,-92.21C1477.45,-80.67 1514.28,-66.68 1545.82,-54.7"/>
<polygon fill="black" stroke="black" points="1547.32,-57.87 1555.42,-51.05 1544.83,-51.33 1547.32,-57.87"/>
</g>
<!-- 22 -->
<g id="node29" class="node">
<title>22</title>
<ellipse fill="none" stroke="black" cx="1980.45" cy="-26.87" rx="209.11" ry="26.74"/>
<text text-anchor="middle" x="1980.45" y="-30.67" font-family="Times,serif" font-size="14.00">eelim construction_circonscrit_vecteur.</text>
<text text-anchor="middle" x="1980.45" y="-15.67" font-family="Times,serif" font-size="14.00">(0.7930929891855282)</text>
</g>
<!-- 21&#45;&gt;22 -->
<g id="edge28" class="edge">
<title>21&#45;&gt;22</title>
<path fill="none" stroke="black" d="M2535.45,-101.32C2425.97,-86.83 2255.62,-64.29 2132.52,-47.99"/>
<polygon fill="black" stroke="black" points="2132.62,-44.48 2122.25,-46.64 2131.7,-51.42 2132.62,-44.48"/>
</g>
<!-- 23 -->
<g id="node30" class="node">
<title>23</title>
<ellipse fill="orange" stroke="black" cx="2344.45" cy="-26.87" rx="137.36" ry="26.74"/>
<text text-anchor="middle" x="2344.45" y="-30.67" font-family="Times,serif" font-size="14.00">simpl in H1.</text>
<text text-anchor="middle" x="2344.45" y="-15.67" font-family="Times,serif" font-size="14.00">(0.01697493593267928)</text>
</g>
<!-- 21&#45;&gt;23 -->
<g id="edge29" class="edge">
<title>21&#45;&gt;23</title>
<path fill="none" stroke="black" d="M2570.69,-94.26C2527.61,-81.62 2472.87,-65.55 2428.02,-52.39"/>
<polygon fill="black" stroke="black" points="2428.9,-49 2418.32,-49.55 2426.93,-55.72 2428.9,-49"/>
</g>
<!-- 24 -->
<g id="node31" class="node">
<title>24</title>
<ellipse fill="orange" stroke="black" cx="2643.45" cy="-26.87" rx="143.59" ry="26.74"/>
<text text-anchor="middle" x="2643.45" y="-30.67" font-family="Times,serif" font-size="14.00">simpl in H0.</text>
<text text-anchor="middle" x="2643.45" y="-15.67" font-family="Times,serif" font-size="14.00">(0.009071435142027769)</text>
</g>
<!-- 21&#45;&gt;24 -->
<g id="edge30" class="edge">
<title>21&#45;&gt;24</title>
<path fill="none" stroke="black" d="M2643.45,-89.29C2643.45,-81.32 2643.45,-72.43 2643.45,-63.94"/>
<polygon fill="black" stroke="black" points="2646.95,-63.87 2643.45,-53.87 2639.95,-63.87 2646.95,-63.87"/>
</g>
<!-- 25 -->
<g id="node32" class="node">
<title>25</title>
<ellipse fill="orange" stroke="black" cx="2948.45" cy="-26.87" rx="143.59" ry="26.74"/>
<text text-anchor="middle" x="2948.45" y="-30.67" font-family="Times,serif" font-size="14.00">simpl in H.</text>
<text text-anchor="middle" x="2948.45" y="-15.67" font-family="Times,serif" font-size="14.00">(0.009071435142027769)</text>
</g>
<!-- 21&#45;&gt;25 -->
<g id="edge31" class="edge">
<title>21&#45;&gt;25</title>
<path fill="none" stroke="black" d="M2717.28,-94.37C2761.15,-81.75 2816.97,-65.69 2862.77,-52.52"/>
<polygon fill="black" stroke="black" points="2863.74,-55.88 2872.38,-49.75 2861.8,-49.15 2863.74,-55.88"/>
</g>
<!-- 26 -->
<g id="node33" class="node">
<title>26</title>
<ellipse fill="none" stroke="black" cx="3253.45" cy="-26.87" rx="143.59" ry="26.74"/>
<text text-anchor="middle" x="3253.45" y="-30.67" font-family="Times,serif" font-size="14.00">eelim exists_opp_angle.</text>
<text text-anchor="middle" x="3253.45" y="-15.67" font-family="Times,serif" font-size="14.00">(0.006176051132093055)</text>
</g>
<!-- 21&#45;&gt;26 -->
<g id="edge32" class="edge">
<title>21&#45;&gt;26</title>
<path fill="none" stroke="black" d="M2735.93,-97.58C2751.75,-94.76 2768.05,-92.03 2783.45,-89.74 2924.14,-68.8 2960.62,-73.68 3101.45,-53.74 3114.57,-51.88 3128.29,-49.78 3141.9,-47.59"/>
<polygon fill="black" stroke="black" points="3142.47,-51.04 3151.78,-45.98 3141.35,-44.13 3142.47,-51.04"/>
</g>
<!-- 34 -->
<g id="node37" class="node">
<title>34</title>
<ellipse fill="orange" stroke="black" cx="3885.45" cy="-296.09" rx="143.59" ry="26.74"/>
<text text-anchor="middle" x="3885.45" y="-299.89" font-family="Times,serif" font-size="14.00">simpl.</text>
<text text-anchor="middle" x="3885.45" y="-284.89" font-family="Times,serif" font-size="14.00">(0.024829488116210652)</text>
</g>
<!-- 33&#45;&gt;34 -->
<g id="edge36" class="edge">
<title>33&#45;&gt;34</title>
<path fill="none" stroke="black" d="M3885.45,-358.51C3885.45,-350.54 3885.45,-341.65 3885.45,-333.16"/>
<polygon fill="black" stroke="black" points="3888.95,-333.09 3885.45,-323.09 3881.95,-333.09 3888.95,-333.09"/>
</g>
<!-- 35 -->
<g id="node38" class="node">
<title>35</title>
<ellipse fill="none" stroke="black" cx="4666.45" cy="-296.09" rx="204.21" ry="26.74"/>
<text text-anchor="middle" x="4666.45" y="-299.89" font-family="Times,serif" font-size="14.00">apply changement_base_cocyclique_2.</text>
<text text-anchor="middle" x="4666.45" y="-284.89" font-family="Times,serif" font-size="14.00">(0.014805195126333284)</text>
</g>
<!-- 33&#45;&gt;35 -->
<g id="edge37" class="edge">
<title>33&#45;&gt;35</title>
<path fill="none" stroke="black" d="M3972.88,-366.57C3988.04,-363.77 4003.67,-361.1 4018.45,-358.96 4172.83,-336.63 4349.12,-320.39 4478.81,-310.17"/>
<polygon fill="black" stroke="black" points="4479.15,-313.65 4488.84,-309.38 4478.6,-306.68 4479.15,-313.65"/>
</g>
<!-- 36 -->
<g id="node39" class="node">
<title>36</title>
<ellipse fill="orange" stroke="black" cx="4380.45" cy="-206.35" rx="130.63" ry="26.74"/>
<text text-anchor="middle" x="4380.45" y="-210.15" font-family="Times,serif" font-size="14.00">eauto.</text>
<text text-anchor="middle" x="4380.45" y="-195.15" font-family="Times,serif" font-size="14.00">(0.6301523702402103)</text>
</g>
<!-- 35&#45;&gt;36 -->
<g id="edge38" class="edge">
<title>35&#45;&gt;36</title>
<path fill="none" stroke="black" d="M4588.68,-271.23C4549.1,-259.09 4501.04,-244.34 4461.07,-232.08"/>
<polygon fill="black" stroke="black" points="4461.94,-228.69 4451.35,-229.1 4459.89,-235.38 4461.94,-228.69"/>
</g>
<!-- 37 -->
<g id="node40" class="node">
<title>37</title>
<ellipse fill="none" stroke="black" cx="4666.45" cy="-206.35" rx="137.36" ry="26.74"/>
<text text-anchor="middle" x="4666.45" y="-210.15" font-family="Times,serif" font-size="14.00">red.</text>
<text text-anchor="middle" x="4666.45" y="-195.15" font-family="Times,serif" font-size="14.00">(0.26845011346583897)</text>
</g>
<!-- 35&#45;&gt;37 -->
<g id="edge39" class="edge">
<title>35&#45;&gt;37</title>
<path fill="none" stroke="black" d="M4666.45,-268.77C4666.45,-260.8 4666.45,-251.91 4666.45,-243.42"/>
<polygon fill="black" stroke="black" points="4669.95,-243.35 4666.45,-233.35 4662.95,-243.35 4669.95,-243.35"/>
</g>
<!-- 50 -->
<g id="node41" class="node">
<title>50</title>
<ellipse fill="orange" stroke="black" cx="4965.45" cy="-206.35" rx="143.59" ry="26.74"/>
<text text-anchor="middle" x="4965.45" y="-210.15" font-family="Times,serif" font-size="14.00">simpl.</text>
<text text-anchor="middle" x="4965.45" y="-195.15" font-family="Times,serif" font-size="14.00">(0.005019765388362479)</text>
</g>
<!-- 35&#45;&gt;50 -->
<g id="edge40" class="edge">
<title>35&#45;&gt;50</title>
<path fill="none" stroke="black" d="M4747.36,-271.35C4788.76,-259.2 4839.11,-244.42 4881,-232.13"/>
<polygon fill="black" stroke="black" points="4882.02,-235.48 4890.63,-229.31 4880.05,-228.76 4882.02,-235.48"/>
</g>
<!-- 51 -->
<g id="node42" class="node">
<title>51</title>
<ellipse fill="none" stroke="black" cx="5419.45" cy="-206.35" rx="149.81" ry="26.74"/>
<text text-anchor="middle" x="5419.45" y="-210.15" font-family="Times,serif" font-size="14.00">intuition.</text>
<text text-anchor="middle" x="5419.45" y="-195.15" font-family="Times,serif" font-size="14.00">(0.0012333344906176598)</text>
</g>
<!-- 35&#45;&gt;51 -->
<g id="edge41" class="edge">
<title>35&#45;&gt;51</title>
<path fill="none" stroke="black" d="M4815.67,-277.7C4952.83,-261.72 5154.32,-238.24 5286.19,-222.88"/>
<polygon fill="black" stroke="black" points="5286.82,-226.33 5296.35,-221.69 5286.01,-219.37 5286.82,-226.33"/>
</g>
<!-- 38 -->
<g id="node43" class="node">
<title>38</title>
<ellipse fill="none" stroke="black" cx="4303.45" cy="-116.61" rx="130.63" ry="26.74"/>
<text text-anchor="middle" x="4303.45" y="-120.41" font-family="Times,serif" font-size="14.00">intros.</text>
<text text-anchor="middle" x="4303.45" y="-105.41" font-family="Times,serif" font-size="14.00">(0.9413170428694345)</text>
</g>
<!-- 37&#45;&gt;38 -->
<g id="edge42" class="edge">
<title>37&#45;&gt;38</title>
<path fill="none" stroke="black" d="M4582.26,-185C4526.43,-171.51 4453.15,-153.79 4395.73,-139.92"/>
<polygon fill="black" stroke="black" points="4396.48,-136.49 4385.93,-137.55 4394.83,-143.3 4396.48,-136.49"/>
</g>
<!-- 44 -->
<g id="node44" class="node">
<title>44</title>
<ellipse fill="orange" stroke="black" cx="4592.45" cy="-116.61" rx="137.36" ry="26.74"/>
<text text-anchor="middle" x="4592.45" y="-120.41" font-family="Times,serif" font-size="14.00">simpl.</text>
<text text-anchor="middle" x="4592.45" y="-105.41" font-family="Times,serif" font-size="14.00">(0.04666271630671785)</text>
</g>
<!-- 37&#45;&gt;44 -->
<g id="edge43" class="edge">
<title>37&#45;&gt;44</title>
<path fill="none" stroke="black" d="M4644.65,-179.5C4637.12,-170.57 4628.58,-160.45 4620.61,-151"/>
<polygon fill="black" stroke="black" points="4623.22,-148.66 4614.1,-143.28 4617.87,-153.18 4623.22,-148.66"/>
</g>
<!-- 45 -->
<g id="node45" class="node">
<title>45</title>
<ellipse fill="orange" stroke="black" cx="4891.45" cy="-116.61" rx="143.59" ry="26.74"/>
<text text-anchor="middle" x="4891.45" y="-120.41" font-family="Times,serif" font-size="14.00">eauto.</text>
<text text-anchor="middle" x="4891.45" y="-105.41" font-family="Times,serif" font-size="14.00">(0.008554798771324921)</text>
</g>
<!-- 37&#45;&gt;45 -->
<g id="edge44" class="edge">
<title>37&#45;&gt;45</title>
<path fill="none" stroke="black" d="M4726.16,-182.07C4755.53,-170.61 4791.12,-156.73 4821.74,-144.79"/>
<polygon fill="black" stroke="black" points="4823.03,-148.05 4831.08,-141.15 4820.49,-141.53 4823.03,-148.05"/>
</g>
<!-- 46 -->
<g id="node46" class="node">
<title>46</title>
<ellipse fill="none" stroke="black" cx="5202.45" cy="-116.61" rx="143.59" ry="26.74"/>
<text text-anchor="middle" x="5202.45" y="-120.41" font-family="Times,serif" font-size="14.00">unfold colineaire.</text>
<text text-anchor="middle" x="5202.45" y="-105.41" font-family="Times,serif" font-size="14.00">(0.000985654203450207)</text>
</g>
<!-- 37&#45;&gt;46 -->
<g id="edge45" class="edge">
<title>37&#45;&gt;46</title>
<path fill="none" stroke="black" d="M4764.96,-187.6C4780.83,-184.82 4797.09,-182.03 4812.45,-179.48 4915.38,-162.38 4941.41,-159.91 5044.45,-143.48 5058.28,-141.28 5072.78,-138.94 5087.16,-136.6"/>
<polygon fill="black" stroke="black" points="5087.78,-140.05 5097.08,-134.99 5086.65,-133.14 5087.78,-140.05"/>
</g>
<!-- 52 -->
<g id="node55" class="node">
<title>52</title>
<ellipse fill="orange" stroke="black" cx="5494.45" cy="-116.61" rx="130.63" ry="26.74"/>
<text text-anchor="middle" x="5494.45" y="-120.41" font-family="Times,serif" font-size="14.00">subst.</text>
<text text-anchor="middle" x="5494.45" y="-105.41" font-family="Times,serif" font-size="14.00">(0.0376963126509501)</text>
</g>
<!-- 51&#45;&gt;52 -->
<g id="edge54" class="edge">
<title>51&#45;&gt;52</title>
<path fill="none" stroke="black" d="M5441.55,-179.5C5449.18,-170.57 5457.84,-160.45 5465.91,-151"/>
<polygon fill="black" stroke="black" points="5468.67,-153.15 5472.51,-143.28 5463.35,-148.6 5468.67,-153.15"/>
</g>
<!-- 39 -->
<g id="node47" class="node">
<title>39</title>
<ellipse fill="none" stroke="black" cx="3624.45" cy="-26.87" rx="209.11" ry="26.74"/>
<text text-anchor="middle" x="3624.45" y="-30.67" font-family="Times,serif" font-size="14.00">eelim construction_circonscrit_vecteur.</text>
<text text-anchor="middle" x="3624.45" y="-15.67" font-family="Times,serif" font-size="14.00">(0.7419123708961497)</text>
</g>
<!-- 38&#45;&gt;39 -->
<g id="edge46" class="edge">
<title>38&#45;&gt;39</title>
<path fill="none" stroke="black" d="M4194.73,-101.56C4082.11,-87.01 3905.15,-64.14 3778.22,-47.74"/>
<polygon fill="black" stroke="black" points="3778.39,-44.23 3768.02,-46.42 3777.49,-51.18 3778.39,-44.23"/>
</g>
<!-- 40 -->
<g id="node48" class="node">
<title>40</title>
<ellipse fill="orange" stroke="black" cx="3995.45" cy="-26.87" rx="143.59" ry="26.74"/>
<text text-anchor="middle" x="3995.45" y="-30.67" font-family="Times,serif" font-size="14.00">simpl in H.</text>
<text text-anchor="middle" x="3995.45" y="-15.67" font-family="Times,serif" font-size="14.00">(0.016265645596539938)</text>
</g>
<!-- 38&#45;&gt;40 -->
<g id="edge47" class="edge">
<title>38&#45;&gt;40</title>
<path fill="none" stroke="black" d="M4228.89,-94.37C4184.51,-81.73 4128.02,-65.63 4081.72,-52.44"/>
<polygon fill="black" stroke="black" points="4082.58,-49.05 4072,-49.68 4080.66,-55.78 4082.58,-49.05"/>
</g>
<!-- 41 -->
<g id="node49" class="node">
<title>41</title>
<ellipse fill="orange" stroke="black" cx="4300.45" cy="-26.87" rx="143.59" ry="26.74"/>
<text text-anchor="middle" x="4300.45" y="-30.67" font-family="Times,serif" font-size="14.00">simpl in H0.</text>
<text text-anchor="middle" x="4300.45" y="-15.67" font-family="Times,serif" font-size="14.00">(0.016265645596539938)</text>
</g>
<!-- 38&#45;&gt;41 -->
<g id="edge48" class="edge">
<title>38&#45;&gt;41</title>
<path fill="none" stroke="black" d="M4302.55,-89.29C4302.28,-81.32 4301.97,-72.43 4301.68,-63.94"/>
<polygon fill="black" stroke="black" points="4305.18,-63.75 4301.34,-53.87 4298.18,-63.99 4305.18,-63.75"/>
</g>
<!-- 42 -->
<g id="node50" class="node">
<title>42</title>
<ellipse fill="none" stroke="black" cx="4605.45" cy="-26.87" rx="143.59" ry="26.74"/>
<text text-anchor="middle" x="4605.45" y="-30.67" font-family="Times,serif" font-size="14.00">eelim exists_opp_angle.</text>
<text text-anchor="middle" x="4605.45" y="-15.67" font-family="Times,serif" font-size="14.00">(0.005777491392971927)</text>
</g>
<!-- 38&#45;&gt;42 -->
<g id="edge49" class="edge">
<title>38&#45;&gt;42</title>
<path fill="none" stroke="black" d="M4376.94,-94.26C4420.21,-81.69 4475.13,-65.73 4520.28,-52.62"/>
<polygon fill="black" stroke="black" points="4521.42,-55.93 4530.05,-49.78 4519.47,-49.2 4521.42,-55.93"/>
</g>
<!-- 43 -->
<g id="node51" class="node">
<title>43</title>
<ellipse fill="orange" stroke="black" cx="4910.45" cy="-26.87" rx="143.59" ry="26.74"/>
<text text-anchor="middle" x="4910.45" y="-30.67" font-family="Times,serif" font-size="14.00">simpl in H1.</text>
<text text-anchor="middle" x="4910.45" y="-15.67" font-family="Times,serif" font-size="14.00">(0.005533231160642561)</text>
</g>
<!-- 38&#45;&gt;43 -->
<g id="edge50" class="edge">
<title>38&#45;&gt;43</title>
<path fill="none" stroke="black" d="M4397.15,-97.77C4413.55,-94.9 4430.48,-92.1 4446.45,-89.74 4584.53,-69.31 4620.26,-73.46 4758.45,-53.74 4771.57,-51.87 4785.29,-49.75 4798.9,-47.56"/>
<polygon fill="black" stroke="black" points="4799.47,-51.01 4808.78,-45.95 4798.34,-44.1 4799.47,-51.01"/>
</g>
<!-- 47 -->
<g id="node52" class="node">
<title>47</title>
<ellipse fill="none" stroke="black" cx="5202.45" cy="-26.87" rx="130.63" ry="26.74"/>
<text text-anchor="middle" x="5202.45" y="-30.67" font-family="Times,serif" font-size="14.00">intros.</text>
<text text-anchor="middle" x="5202.45" y="-15.67" font-family="Times,serif" font-size="14.00">(0.6035237083318477)</text>
</g>
<!-- 46&#45;&gt;47 -->
<g id="edge51" class="edge">
<title>46&#45;&gt;47</title>
<path fill="none" stroke="black" d="M5202.45,-89.29C5202.45,-81.32 5202.45,-72.43 5202.45,-63.94"/>
<polygon fill="black" stroke="black" points="5205.95,-63.87 5202.45,-53.87 5198.95,-63.87 5205.95,-63.87"/>
</g>
<!-- 48 -->
<g id="node53" class="node">
<title>48</title>
<ellipse fill="orange" stroke="black" cx="5482.45" cy="-26.87" rx="130.63" ry="26.74"/>
<text text-anchor="middle" x="5482.45" y="-30.67" font-family="Times,serif" font-size="14.00">eauto.</text>
<text text-anchor="middle" x="5482.45" y="-15.67" font-family="Times,serif" font-size="14.00">(0.0692632172354915)</text>
</g>
<!-- 46&#45;&gt;48 -->
<g id="edge52" class="edge">
<title>46&#45;&gt;48</title>
<path fill="none" stroke="black" d="M5273.83,-93.24C5313.28,-80.88 5362.39,-65.49 5403.05,-52.75"/>
<polygon fill="black" stroke="black" points="5404.16,-56.07 5412.65,-49.74 5402.06,-49.39 5404.16,-56.07"/>
</g>
<!-- 49 -->
<g id="node54" class="node">
<title>49</title>
<ellipse fill="orange" stroke="black" cx="5774.45" cy="-26.87" rx="143.59" ry="26.74"/>
<text text-anchor="middle" x="5774.45" y="-30.67" font-family="Times,serif" font-size="14.00">simpl.</text>
<text text-anchor="middle" x="5774.45" y="-15.67" font-family="Times,serif" font-size="14.00">(0.045401146442750784)</text>
</g>
<!-- 46&#45;&gt;49 -->
<g id="edge53" class="edge">
<title>46&#45;&gt;49</title>
<path fill="none" stroke="black" d="M5304.57,-97.72C5321.23,-94.95 5338.31,-92.2 5354.45,-89.74 5473.26,-71.66 5503.64,-71.83 5622.45,-53.74 5635.31,-51.78 5648.77,-49.63 5662.14,-47.44"/>
<polygon fill="black" stroke="black" points="5663.03,-50.84 5672.33,-45.76 5661.89,-43.93 5663.03,-50.84"/>
</g>
</g>
</svg>
