<?xml version="1.0" encoding="UTF-8" standalone="no"?>
<!DOCTYPE svg PUBLIC "-//W3C//DTD SVG 1.1//EN"
 "http://www.w3.org/Graphics/SVG/1.1/DTD/svg11.dtd">
<!-- Generated by graphviz version 2.43.0 (0)
 -->
<!-- Pages: 1 -->
<svg width="1972pt" height="600pt"
 viewBox="0.00 0.00 1972.36 600.18" xmlns="http://www.w3.org/2000/svg" xmlns:xlink="http://www.w3.org/1999/xlink">
<g id="graph0" class="graph" transform="scale(1 1) rotate(0) translate(4 596.18)">
<polygon fill="white" stroke="transparent" points="-4,4 -4,-596.18 1968.36,-596.18 1968.36,4 -4,4"/>
<!-- 0 -->
<g id="node1" class="node">
<title>0</title>
<ellipse fill="none" stroke="black" cx="1661.81" cy="-565.31" rx="176.14" ry="26.74"/>
<text text-anchor="middle" x="1661.81" y="-569.11" font-family="Times,serif" font-size="14.00">construction_circonscrit_vecteur</text>
<text text-anchor="middle" x="1661.81" y="-554.11" font-family="Times,serif" font-size="14.00">(1.0)</text>
</g>
<!-- 1 -->
<g id="node2" class="node">
<title>1</title>
<ellipse fill="none" stroke="black" cx="1515.81" cy="-475.57" rx="130.63" ry="26.74"/>
<text text-anchor="middle" x="1515.81" y="-479.37" font-family="Times,serif" font-size="14.00">intros.</text>
<text text-anchor="middle" x="1515.81" y="-464.37" font-family="Times,serif" font-size="14.00">(0.9747803730015946)</text>
</g>
<!-- 0&#45;&gt;1 -->
<g id="edge1" class="edge">
<title>0&#45;&gt;1</title>
<path fill="none" stroke="black" d="M1619.98,-539.17C1603.04,-528.99 1583.35,-517.16 1565.68,-506.54"/>
<polygon fill="black" stroke="black" points="1567.02,-503.26 1556.65,-501.11 1563.42,-509.26 1567.02,-503.26"/>
</g>
<!-- 19 -->
<g id="node3" class="node">
<title>19</title>
<ellipse fill="orange" stroke="black" cx="1807.81" cy="-475.57" rx="143.59" ry="26.74"/>
<text text-anchor="middle" x="1807.81" y="-479.37" font-family="Times,serif" font-size="14.00">simpl.</text>
<text text-anchor="middle" x="1807.81" y="-464.37" font-family="Times,serif" font-size="14.00">(0.001320293248438694)</text>
</g>
<!-- 0&#45;&gt;19 -->
<g id="edge2" class="edge">
<title>0&#45;&gt;19</title>
<path fill="none" stroke="black" d="M1703.65,-539.17C1720.44,-529.08 1739.94,-517.36 1757.5,-506.81"/>
<polygon fill="black" stroke="black" points="1759.71,-509.56 1766.48,-501.41 1756.1,-503.56 1759.71,-509.56"/>
</g>
<!-- 2 -->
<g id="node4" class="node">
<title>2</title>
<ellipse fill="orange" stroke="black" cx="1223.81" cy="-385.83" rx="130.63" ry="26.74"/>
<text text-anchor="middle" x="1223.81" y="-389.63" font-family="Times,serif" font-size="14.00">subst.</text>
<text text-anchor="middle" x="1223.81" y="-374.63" font-family="Times,serif" font-size="14.00">(0.0894423525446219)</text>
</g>
<!-- 1&#45;&gt;2 -->
<g id="edge3" class="edge">
<title>1&#45;&gt;2</title>
<path fill="none" stroke="black" d="M1444.01,-452.99C1402.01,-440.38 1348.87,-424.41 1305.31,-411.32"/>
<polygon fill="black" stroke="black" points="1306.18,-407.92 1295.6,-408.4 1304.17,-414.63 1306.18,-407.92"/>
</g>
<!-- 3 -->
<g id="node5" class="node">
<title>3</title>
<ellipse fill="none" stroke="black" cx="1515.81" cy="-385.83" rx="143.59" ry="26.74"/>
<text text-anchor="middle" x="1515.81" y="-389.63" font-family="Times,serif" font-size="14.00">econstructor.</text>
<text text-anchor="middle" x="1515.81" y="-374.63" font-family="Times,serif" font-size="14.00">(0.021263798477445885)</text>
</g>
<!-- 1&#45;&gt;3 -->
<g id="edge4" class="edge">
<title>1&#45;&gt;3</title>
<path fill="none" stroke="black" d="M1515.81,-448.25C1515.81,-440.28 1515.81,-431.39 1515.81,-422.9"/>
<polygon fill="black" stroke="black" points="1519.31,-422.83 1515.81,-412.83 1512.31,-422.83 1519.31,-422.83"/>
</g>
<!-- 18 -->
<g id="node6" class="node">
<title>18</title>
<ellipse fill="orange" stroke="black" cx="1820.81" cy="-385.83" rx="143.59" ry="26.74"/>
<text text-anchor="middle" x="1820.81" y="-389.63" font-family="Times,serif" font-size="14.00">simpl.</text>
<text text-anchor="middle" x="1820.81" y="-374.63" font-family="Times,serif" font-size="14.00">(0.018848655102497388)</text>
</g>
<!-- 1&#45;&gt;18 -->
<g id="edge5" class="edge">
<title>1&#45;&gt;18</title>
<path fill="none" stroke="black" d="M1589.65,-453.33C1633.51,-440.71 1689.33,-424.65 1735.13,-411.48"/>
<polygon fill="black" stroke="black" points="1736.1,-414.84 1744.74,-408.71 1734.17,-408.11 1736.1,-414.84"/>
</g>
<!-- 4 -->
<g id="node7" class="node">
<title>4</title>
<ellipse fill="none" stroke="black" cx="1365.81" cy="-296.09" rx="130.63" ry="26.74"/>
<text text-anchor="middle" x="1365.81" y="-299.89" font-family="Times,serif" font-size="14.00">econstructor.</text>
<text text-anchor="middle" x="1365.81" y="-284.89" font-family="Times,serif" font-size="14.00">(0.9849912448514014)</text>
</g>
<!-- 3&#45;&gt;4 -->
<g id="edge6" class="edge">
<title>3&#45;&gt;4</title>
<path fill="none" stroke="black" d="M1473.23,-359.92C1455.59,-349.6 1434.99,-337.55 1416.57,-326.78"/>
<polygon fill="black" stroke="black" points="1418.12,-323.63 1407.73,-321.61 1414.59,-329.68 1418.12,-323.63"/>
</g>
<!-- 17 -->
<g id="node8" class="node">
<title>17</title>
<ellipse fill="orange" stroke="black" cx="1664.81" cy="-296.09" rx="149.81" ry="26.74"/>
<text text-anchor="middle" x="1664.81" y="-299.89" font-family="Times,serif" font-size="14.00">simpl.</text>
<text text-anchor="middle" x="1664.81" y="-284.89" font-family="Times,serif" font-size="14.00">(0.0002798213228752549)</text>
</g>
<!-- 3&#45;&gt;17 -->
<g id="edge7" class="edge">
<title>3&#45;&gt;17</title>
<path fill="none" stroke="black" d="M1558.11,-359.92C1575.49,-349.69 1595.76,-337.76 1613.93,-327.05"/>
<polygon fill="black" stroke="black" points="1615.83,-330 1622.67,-321.91 1612.28,-323.97 1615.83,-330"/>
</g>
<!-- 5 -->
<g id="node9" class="node">
<title>5</title>
<ellipse fill="none" stroke="black" cx="1060.81" cy="-206.35" rx="130.63" ry="26.74"/>
<text text-anchor="middle" x="1060.81" y="-210.15" font-family="Times,serif" font-size="14.00">econstructor.</text>
<text text-anchor="middle" x="1060.81" y="-195.15" font-family="Times,serif" font-size="14.00">(0.9973625548800357)</text>
</g>
<!-- 4&#45;&gt;5 -->
<g id="edge8" class="edge">
<title>4&#45;&gt;5</title>
<path fill="none" stroke="black" d="M1291.98,-273.85C1247.46,-261.04 1190.62,-244.69 1144.44,-231.41"/>
<polygon fill="black" stroke="black" points="1145.34,-228.02 1134.76,-228.62 1143.4,-234.75 1145.34,-228.02"/>
</g>
<!-- 15 -->
<g id="node10" class="node">
<title>15</title>
<ellipse fill="orange" stroke="black" cx="1365.81" cy="-206.35" rx="156.04" ry="26.74"/>
<text text-anchor="middle" x="1365.81" y="-210.15" font-family="Times,serif" font-size="14.00">eauto.</text>
<text text-anchor="middle" x="1365.81" y="-195.15" font-family="Times,serif" font-size="14.00">(0.00046018531872973835)</text>
</g>
<!-- 4&#45;&gt;15 -->
<g id="edge9" class="edge">
<title>4&#45;&gt;15</title>
<path fill="none" stroke="black" d="M1365.81,-268.77C1365.81,-260.8 1365.81,-251.91 1365.81,-243.42"/>
<polygon fill="black" stroke="black" points="1369.31,-243.35 1365.81,-233.35 1362.31,-243.35 1369.31,-243.35"/>
</g>
<!-- 16 -->
<g id="node11" class="node">
<title>16</title>
<ellipse fill="orange" stroke="black" cx="1696.81" cy="-206.35" rx="156.04" ry="26.74"/>
<text text-anchor="middle" x="1696.81" y="-210.15" font-family="Times,serif" font-size="14.00">simpl.</text>
<text text-anchor="middle" x="1696.81" y="-195.15" font-family="Times,serif" font-size="14.00">(0.00027402361832653307)</text>
</g>
<!-- 4&#45;&gt;16 -->
<g id="edge10" class="edge">
<title>4&#45;&gt;16</title>
<path fill="none" stroke="black" d="M1443.84,-274.41C1491.95,-261.66 1553.9,-245.23 1604.45,-231.83"/>
<polygon fill="black" stroke="black" points="1605.64,-235.14 1614.41,-229.2 1603.84,-228.37 1605.64,-235.14"/>
</g>
<!-- 6 -->
<g id="node12" class="node">
<title>6</title>
<ellipse fill="none" stroke="black" cx="429.81" cy="-116.61" rx="130.63" ry="26.74"/>
<text text-anchor="middle" x="429.81" y="-120.41" font-family="Times,serif" font-size="14.00">split.</text>
<text text-anchor="middle" x="429.81" y="-105.41" font-family="Times,serif" font-size="14.00">(0.9994003794098927)</text>
</g>
<!-- 5&#45;&gt;6 -->
<g id="edge11" class="edge">
<title>5&#45;&gt;6</title>
<path fill="none" stroke="black" d="M947.45,-192.93C847.76,-181.57 698.86,-163.52 569.81,-143.48 557.77,-141.61 545.17,-139.5 532.68,-137.31"/>
<polygon fill="black" stroke="black" points="533.15,-133.84 522.69,-135.54 531.93,-140.73 533.15,-133.84"/>
</g>
<!-- 10 -->
<g id="node13" class="node">
<title>10</title>
<ellipse fill="orange" stroke="black" cx="734.81" cy="-116.61" rx="156.04" ry="26.74"/>
<text text-anchor="middle" x="734.81" y="-120.41" font-family="Times,serif" font-size="14.00">eauto.</text>
<text text-anchor="middle" x="734.81" y="-105.41" font-family="Times,serif" font-size="14.00">(0.00026395251844243376)</text>
</g>
<!-- 5&#45;&gt;10 -->
<g id="edge12" class="edge">
<title>5&#45;&gt;10</title>
<path fill="none" stroke="black" d="M983.56,-184.56C936.34,-171.85 875.7,-155.53 826.12,-142.18"/>
<polygon fill="black" stroke="black" points="826.92,-138.77 816.35,-139.56 825.1,-145.53 826.92,-138.77"/>
</g>
<!-- 11 -->
<g id="node14" class="node">
<title>11</title>
<ellipse fill="orange" stroke="black" cx="1060.81" cy="-116.61" rx="152.06" ry="26.74"/>
<text text-anchor="middle" x="1060.81" y="-120.41" font-family="Times,serif" font-size="14.00">simpl.</text>
<text text-anchor="middle" x="1060.81" y="-105.41" font-family="Times,serif" font-size="14.00">(5.9364939197246494e&#45;05)</text>
</g>
<!-- 5&#45;&gt;11 -->
<g id="edge13" class="edge">
<title>5&#45;&gt;11</title>
<path fill="none" stroke="black" d="M1060.81,-179.03C1060.81,-171.06 1060.81,-162.17 1060.81,-153.68"/>
<polygon fill="black" stroke="black" points="1064.31,-153.61 1060.81,-143.61 1057.31,-153.61 1064.31,-153.61"/>
</g>
<!-- 12 -->
<g id="node15" class="node">
<title>12</title>
<ellipse fill="none" stroke="black" cx="1376.81" cy="-116.61" rx="145.83" ry="26.74"/>
<text text-anchor="middle" x="1376.81" y="-120.41" font-family="Times,serif" font-size="14.00">repeat split.</text>
<text text-anchor="middle" x="1376.81" y="-105.41" font-family="Times,serif" font-size="14.00">(5.584116326720118e&#45;05)</text>
</g>
<!-- 5&#45;&gt;12 -->
<g id="edge14" class="edge">
<title>5&#45;&gt;12</title>
<path fill="none" stroke="black" d="M1136.5,-184.33C1182.37,-171.6 1241.07,-155.3 1288.98,-142"/>
<polygon fill="black" stroke="black" points="1290.02,-145.34 1298.72,-139.29 1288.15,-138.6 1290.02,-145.34"/>
</g>
<!-- 13 -->
<g id="node16" class="node">
<title>13</title>
<ellipse fill="none" stroke="black" cx="1685.81" cy="-116.61" rx="145.83" ry="26.74"/>
<text text-anchor="middle" x="1685.81" y="-120.41" font-family="Times,serif" font-size="14.00">intuition.</text>
<text text-anchor="middle" x="1685.81" y="-105.41" font-family="Times,serif" font-size="14.00">(4.285117873981124e&#45;05)</text>
</g>
<!-- 5&#45;&gt;13 -->
<g id="edge15" class="edge">
<title>5&#45;&gt;13</title>
<path fill="none" stroke="black" d="M1153.28,-187.26C1169.1,-184.45 1185.41,-181.74 1200.81,-179.48 1347.23,-158.02 1385.23,-163.75 1531.81,-143.48 1545.21,-141.63 1559.24,-139.51 1573.14,-137.31"/>
<polygon fill="black" stroke="black" points="1573.9,-140.74 1583.22,-135.7 1572.8,-133.82 1573.9,-140.74"/>
</g>
<!-- 7 -->
<g id="node17" class="node">
<title>7</title>
<ellipse fill="none" stroke="black" cx="130.81" cy="-26.87" rx="130.63" ry="26.74"/>
<text text-anchor="middle" x="130.81" y="-30.67" font-family="Times,serif" font-size="14.00">split.</text>
<text text-anchor="middle" x="130.81" y="-15.67" font-family="Times,serif" font-size="14.00">(0.9773452450449656)</text>
</g>
<!-- 6&#45;&gt;7 -->
<g id="edge16" class="edge">
<title>6&#45;&gt;7</title>
<path fill="none" stroke="black" d="M357.05,-94.26C313.65,-81.52 258.41,-65.31 213.38,-52.1"/>
<polygon fill="black" stroke="black" points="214.22,-48.7 203.64,-49.24 212.25,-55.42 214.22,-48.7"/>
</g>
<!-- 8 -->
<g id="node18" class="node">
<title>8</title>
<ellipse fill="orange" stroke="black" cx="429.81" cy="-26.87" rx="149.81" ry="26.74"/>
<text text-anchor="middle" x="429.81" y="-30.67" font-family="Times,serif" font-size="14.00">simpl.</text>
<text text-anchor="middle" x="429.81" y="-15.67" font-family="Times,serif" font-size="14.00">(0.0024543123074349383)</text>
</g>
<!-- 6&#45;&gt;8 -->
<g id="edge17" class="edge">
<title>6&#45;&gt;8</title>
<path fill="none" stroke="black" d="M429.81,-89.29C429.81,-81.32 429.81,-72.43 429.81,-63.94"/>
<polygon fill="black" stroke="black" points="433.31,-63.87 429.81,-53.87 426.31,-63.87 433.31,-63.87"/>
</g>
<!-- 9 -->
<g id="node19" class="node">
<title>9</title>
<ellipse fill="none" stroke="black" cx="747.81" cy="-26.87" rx="149.81" ry="26.74"/>
<text text-anchor="middle" x="747.81" y="-30.67" font-family="Times,serif" font-size="14.00">intuition.</text>
<text text-anchor="middle" x="747.81" y="-15.67" font-family="Times,serif" font-size="14.00">(0.0006053318291988877)</text>
</g>
<!-- 6&#45;&gt;9 -->
<g id="edge18" class="edge">
<title>6&#45;&gt;9</title>
<path fill="none" stroke="black" d="M505.98,-94.59C551.97,-81.91 610.78,-65.68 658.88,-52.41"/>
<polygon fill="black" stroke="black" points="659.96,-55.74 668.67,-49.71 658.1,-48.99 659.96,-55.74"/>
</g>
<!-- 14 -->
<g id="node20" class="node">
<title>14</title>
<ellipse fill="orange" stroke="black" cx="1685.81" cy="-26.87" rx="137.36" ry="26.74"/>
<text text-anchor="middle" x="1685.81" y="-30.67" font-family="Times,serif" font-size="14.00">simpl.</text>
<text text-anchor="middle" x="1685.81" y="-15.67" font-family="Times,serif" font-size="14.00">(0.01673395580822953)</text>
</g>
<!-- 13&#45;&gt;14 -->
<g id="edge19" class="edge">
<title>13&#45;&gt;14</title>
<path fill="none" stroke="black" d="M1685.81,-89.29C1685.81,-81.32 1685.81,-72.43 1685.81,-63.94"/>
<polygon fill="black" stroke="black" points="1689.31,-63.87 1685.81,-53.87 1682.31,-63.87 1689.31,-63.87"/>
</g>
</g>
</svg>
