<?xml version="1.0" encoding="UTF-8" standalone="no"?>
<!DOCTYPE svg PUBLIC "-//W3C//DTD SVG 1.1//EN"
 "http://www.w3.org/Graphics/SVG/1.1/DTD/svg11.dtd">
<!-- Generated by graphviz version 2.43.0 (0)
 -->
<!-- Pages: 1 -->
<svg width="1427pt" height="510pt"
 viewBox="0.00 0.00 1426.63 510.44" xmlns="http://www.w3.org/2000/svg" xmlns:xlink="http://www.w3.org/1999/xlink">
<g id="graph0" class="graph" transform="scale(1 1) rotate(0) translate(4 506.44)">
<polygon fill="white" stroke="transparent" points="-4,4 -4,-506.44 1422.63,-506.44 1422.63,4 -4,4"/>
<!-- 0 -->
<g id="node1" class="node">
<title>0</title>
<ellipse fill="none" stroke="black" cx="696.81" cy="-475.57" rx="82.05" ry="26.74"/>
<text text-anchor="middle" x="696.81" y="-479.37" font-family="Times,serif" font-size="14.00">binomial_def1</text>
<text text-anchor="middle" x="696.81" y="-464.37" font-family="Times,serif" font-size="14.00">(1.0)</text>
</g>
<!-- 1 -->
<g id="node2" class="node">
<title>1</title>
<ellipse fill="#9aff9a" stroke="black" cx="696.81" cy="-385.83" rx="130.63" ry="26.74"/>
<text text-anchor="middle" x="696.81" y="-389.63" font-family="Times,serif" font-size="14.00">intros.</text>
<text text-anchor="middle" x="696.81" y="-374.63" font-family="Times,serif" font-size="14.00">(0.9196151511877119)</text>
</g>
<!-- 0&#45;&gt;1 -->
<g id="edge1" class="edge">
<title>0&#45;&gt;1</title>
<path fill="none" stroke="black" d="M696.81,-448.25C696.81,-440.28 696.81,-431.39 696.81,-422.9"/>
<polygon fill="black" stroke="black" points="700.31,-422.83 696.81,-412.83 693.31,-422.83 700.31,-422.83"/>
</g>
<!-- 2 -->
<g id="node3" class="node">
<title>2</title>
<ellipse fill="orange" stroke="black" cx="416.81" cy="-296.09" rx="130.63" ry="26.74"/>
<text text-anchor="middle" x="416.81" y="-299.89" font-family="Times,serif" font-size="14.00">eauto.</text>
<text text-anchor="middle" x="416.81" y="-284.89" font-family="Times,serif" font-size="14.00">(0.5043537716579618)</text>
</g>
<!-- 1&#45;&gt;2 -->
<g id="edge2" class="edge">
<title>1&#45;&gt;2</title>
<path fill="none" stroke="black" d="M627.24,-363.03C587.51,-350.58 537.54,-334.92 496.26,-321.99"/>
<polygon fill="black" stroke="black" points="497.1,-318.58 486.52,-318.93 495.01,-325.26 497.1,-318.58"/>
</g>
<!-- 3 -->
<g id="node4" class="node">
<title>3</title>
<ellipse fill="none" stroke="black" cx="696.81" cy="-296.09" rx="130.63" ry="26.74"/>
<text text-anchor="middle" x="696.81" y="-299.89" font-family="Times,serif" font-size="14.00">unfold binomial.</text>
<text text-anchor="middle" x="696.81" y="-284.89" font-family="Times,serif" font-size="14.00">(0.3080897596757467)</text>
</g>
<!-- 1&#45;&gt;3 -->
<g id="edge3" class="edge">
<title>1&#45;&gt;3</title>
<path fill="none" stroke="black" d="M696.81,-358.51C696.81,-350.54 696.81,-341.65 696.81,-333.16"/>
<polygon fill="black" stroke="black" points="700.31,-333.09 696.81,-323.09 693.31,-333.09 700.31,-333.09"/>
</g>
<!-- 8 -->
<g id="node5" class="node">
<title>8</title>
<ellipse fill="#9aff9a" stroke="black" cx="1134.81" cy="-296.09" rx="137.36" ry="26.74"/>
<text text-anchor="middle" x="1134.81" y="-299.89" font-family="Times,serif" font-size="14.00">destruct n.</text>
<text text-anchor="middle" x="1134.81" y="-284.89" font-family="Times,serif" font-size="14.00">(0.02229558900265275)</text>
</g>
<!-- 1&#45;&gt;8 -->
<g id="edge4" class="edge">
<title>1&#45;&gt;8</title>
<path fill="none" stroke="black" d="M788.1,-366.54C858.98,-352.35 957.29,-332.65 1031.13,-317.86"/>
<polygon fill="black" stroke="black" points="1032.26,-321.2 1041.38,-315.81 1030.89,-314.34 1032.26,-321.2"/>
</g>
<!-- 4 -->
<g id="node6" class="node">
<title>4</title>
<ellipse fill="orange" stroke="black" cx="130.81" cy="-206.35" rx="130.63" ry="26.74"/>
<text text-anchor="middle" x="130.81" y="-210.15" font-family="Times,serif" font-size="14.00">simpl.</text>
<text text-anchor="middle" x="130.81" y="-195.15" font-family="Times,serif" font-size="14.00">(0.4503004834701515)</text>
</g>
<!-- 3&#45;&gt;4 -->
<g id="edge5" class="edge">
<title>3&#45;&gt;4</title>
<path fill="none" stroke="black" d="M603.94,-277.15C588.24,-274.34 572.08,-271.59 556.81,-269.22 430.22,-249.57 397.41,-252.87 270.81,-233.22 258.77,-231.35 246.17,-229.24 233.68,-227.05"/>
<polygon fill="black" stroke="black" points="234.15,-223.58 223.69,-225.29 232.93,-230.48 234.15,-223.58"/>
</g>
<!-- 5 -->
<g id="node7" class="node">
<title>5</title>
<ellipse fill="orange" stroke="black" cx="410.81" cy="-206.35" rx="130.63" ry="26.74"/>
<text text-anchor="middle" x="410.81" y="-210.15" font-family="Times,serif" font-size="14.00">eauto.</text>
<text text-anchor="middle" x="410.81" y="-195.15" font-family="Times,serif" font-size="14.00">(0.2692220793797255)</text>
</g>
<!-- 3&#45;&gt;5 -->
<g id="edge6" class="edge">
<title>3&#45;&gt;5</title>
<path fill="none" stroke="black" d="M626.12,-273.4C585.3,-260.88 533.81,-245.08 491.42,-232.08"/>
<polygon fill="black" stroke="black" points="492.28,-228.68 481.69,-229.09 490.22,-235.37 492.28,-228.68"/>
</g>
<!-- 6 -->
<g id="node8" class="node">
<title>6</title>
<ellipse fill="orange" stroke="black" cx="696.81" cy="-206.35" rx="137.36" ry="26.74"/>
<text text-anchor="middle" x="696.81" y="-210.15" font-family="Times,serif" font-size="14.00">f_equal.</text>
<text text-anchor="middle" x="696.81" y="-195.15" font-family="Times,serif" font-size="14.00">(0.09752767688482386)</text>
</g>
<!-- 3&#45;&gt;6 -->
<g id="edge7" class="edge">
<title>3&#45;&gt;6</title>
<path fill="none" stroke="black" d="M696.81,-268.77C696.81,-260.8 696.81,-251.91 696.81,-243.42"/>
<polygon fill="black" stroke="black" points="700.31,-243.35 696.81,-233.35 693.31,-243.35 700.31,-243.35"/>
</g>
<!-- 7 -->
<g id="node9" class="node">
<title>7</title>
<ellipse fill="orange" stroke="black" cx="995.81" cy="-206.35" rx="143.59" ry="26.74"/>
<text text-anchor="middle" x="995.81" y="-210.15" font-family="Times,serif" font-size="14.00">unfold binomial.</text>
<text text-anchor="middle" x="995.81" y="-195.15" font-family="Times,serif" font-size="14.00">(0.006519148977653886)</text>
</g>
<!-- 3&#45;&gt;7 -->
<g id="edge8" class="edge">
<title>3&#45;&gt;7</title>
<path fill="none" stroke="black" d="M769.58,-273.74C812.33,-261.19 866.58,-245.27 911.24,-232.17"/>
<polygon fill="black" stroke="black" points="912.29,-235.51 920.9,-229.33 910.32,-228.79 912.29,-235.51"/>
</g>
<!-- 9 -->
<g id="node10" class="node">
<title>9</title>
<ellipse fill="#9aff9a" stroke="black" cx="1287.81" cy="-206.35" rx="130.63" ry="26.74"/>
<text text-anchor="middle" x="1287.81" y="-210.15" font-family="Times,serif" font-size="14.00">eauto.</text>
<text text-anchor="middle" x="1287.81" y="-195.15" font-family="Times,serif" font-size="14.00">(0.8374100673899387)</text>
</g>
<!-- 8&#45;&gt;9 -->
<g id="edge9" class="edge">
<title>8&#45;&gt;9</title>
<path fill="none" stroke="black" d="M1177.84,-270.42C1196,-260 1217.3,-247.79 1236.28,-236.9"/>
<polygon fill="black" stroke="black" points="1238.18,-239.85 1245.11,-231.84 1234.7,-233.78 1238.18,-239.85"/>
</g>
<!-- 10 -->
<g id="node11" class="node">
<title>10</title>
<ellipse fill="#9aff9a" stroke="black" cx="1287.81" cy="-116.61" rx="130.63" ry="26.74"/>
<text text-anchor="middle" x="1287.81" y="-120.41" font-family="Times,serif" font-size="14.00">eauto.</text>
<text text-anchor="middle" x="1287.81" y="-105.41" font-family="Times,serif" font-size="14.00">(0.5745405073988367)</text>
</g>
<!-- 9&#45;&gt;10 -->
<g id="edge10" class="edge">
<title>9&#45;&gt;10</title>
<path fill="none" stroke="black" d="M1287.81,-179.03C1287.81,-171.06 1287.81,-162.17 1287.81,-153.68"/>
<polygon fill="black" stroke="black" points="1291.31,-153.61 1287.81,-143.61 1284.31,-153.61 1291.31,-153.61"/>
</g>
<!-- 11 -->
<g id="node12" class="node">
<title>11</title>
<ellipse fill="green" stroke="black" cx="1287.81" cy="-26.87" rx="35.21" ry="26.74"/>
<text text-anchor="middle" x="1287.81" y="-30.67" font-family="Times,serif" font-size="14.00">QED</text>
<text text-anchor="middle" x="1287.81" y="-15.67" font-family="Times,serif" font-size="14.00">(1.0)</text>
</g>
<!-- 10&#45;&gt;11 -->
<g id="edge11" class="edge">
<title>10&#45;&gt;11</title>
<path fill="none" stroke="black" d="M1287.81,-89.29C1287.81,-81.32 1287.81,-72.43 1287.81,-63.94"/>
<polygon fill="green" stroke="black" points="1291.31,-63.87 1287.81,-53.87 1284.31,-63.87 1291.31,-63.87"/>
</g>
</g>
</svg>
