<?xml version="1.0" encoding="UTF-8" standalone="no"?>
<!DOCTYPE svg PUBLIC "-//W3C//DTD SVG 1.1//EN"
 "http://www.w3.org/Graphics/SVG/1.1/DTD/svg11.dtd">
<!-- Generated by graphviz version 2.43.0 (0)
 -->
<!-- Pages: 1 -->
<svg width="1171pt" height="1408pt"
 viewBox="0.00 0.00 1171.36 1407.84" xmlns="http://www.w3.org/2000/svg" xmlns:xlink="http://www.w3.org/1999/xlink">
<g id="graph0" class="graph" transform="scale(1 1) rotate(0) translate(4 1403.84)">
<polygon fill="white" stroke="transparent" points="-4,4 -4,-1403.84 1167.36,-1403.84 1167.36,4 -4,4"/>
<!-- 0 -->
<g id="node1" class="node">
<title>0</title>
<ellipse fill="none" stroke="black" cx="427.81" cy="-1372.97" rx="62.45" ry="26.74"/>
<text text-anchor="middle" x="427.81" y="-1376.77" font-family="Times,serif" font-size="14.00">is_gcd_ref</text>
<text text-anchor="middle" x="427.81" y="-1361.77" font-family="Times,serif" font-size="14.00">(1.0)</text>
</g>
<!-- 1 -->
<g id="node2" class="node">
<title>1</title>
<ellipse fill="#9aff9a" stroke="black" cx="427.81" cy="-1283.23" rx="130.63" ry="26.74"/>
<text text-anchor="middle" x="427.81" y="-1287.03" font-family="Times,serif" font-size="14.00">intros.</text>
<text text-anchor="middle" x="427.81" y="-1272.03" font-family="Times,serif" font-size="14.00">(0.7449945988892306)</text>
</g>
<!-- 0&#45;&gt;1 -->
<g id="edge1" class="edge">
<title>0&#45;&gt;1</title>
<path fill="none" stroke="black" d="M427.81,-1345.65C427.81,-1337.68 427.81,-1328.79 427.81,-1320.3"/>
<polygon fill="black" stroke="black" points="431.31,-1320.24 427.81,-1310.24 424.31,-1320.24 431.31,-1320.24"/>
</g>
<!-- 2 -->
<g id="node3" class="node">
<title>2</title>
<ellipse fill="#9aff9a" stroke="black" cx="427.81" cy="-1193.49" rx="130.63" ry="26.74"/>
<text text-anchor="middle" x="427.81" y="-1197.29" font-family="Times,serif" font-size="14.00">destruct x.</text>
<text text-anchor="middle" x="427.81" y="-1182.29" font-family="Times,serif" font-size="14.00">(0.3253256819287094)</text>
</g>
<!-- 1&#45;&gt;2 -->
<g id="edge2" class="edge">
<title>1&#45;&gt;2</title>
<path fill="none" stroke="black" d="M427.81,-1255.91C427.81,-1247.94 427.81,-1239.05 427.81,-1230.56"/>
<polygon fill="black" stroke="black" points="431.31,-1230.5 427.81,-1220.5 424.31,-1230.5 431.31,-1230.5"/>
</g>
<!-- 3 -->
<g id="node4" class="node">
<title>3</title>
<ellipse fill="orange" stroke="black" cx="284.81" cy="-1103.75" rx="130.63" ry="26.74"/>
<text text-anchor="middle" x="284.81" y="-1107.55" font-family="Times,serif" font-size="14.00">eauto.</text>
<text text-anchor="middle" x="284.81" y="-1092.55" font-family="Times,serif" font-size="14.00">(0.9053617993433433)</text>
</g>
<!-- 2&#45;&gt;3 -->
<g id="edge3" class="edge">
<title>2&#45;&gt;3</title>
<path fill="none" stroke="black" d="M387.6,-1167.82C371,-1157.63 351.59,-1145.72 334.14,-1135.02"/>
<polygon fill="black" stroke="black" points="335.58,-1131.79 325.22,-1129.54 331.92,-1137.76 335.58,-1131.79"/>
</g>
<!-- 4 -->
<g id="node5" class="node">
<title>4</title>
<ellipse fill="#9aff9a" stroke="black" cx="570.81" cy="-1103.75" rx="137.36" ry="26.74"/>
<text text-anchor="middle" x="570.81" y="-1107.55" font-family="Times,serif" font-size="14.00">econstructor.</text>
<text text-anchor="middle" x="570.81" y="-1092.55" font-family="Times,serif" font-size="14.00">(0.04951520320607641)</text>
</g>
<!-- 2&#45;&gt;4 -->
<g id="edge4" class="edge">
<title>2&#45;&gt;4</title>
<path fill="none" stroke="black" d="M468.03,-1167.82C484.63,-1157.63 504.04,-1145.72 521.49,-1135.02"/>
<polygon fill="black" stroke="black" points="523.71,-1137.76 530.41,-1129.54 520.05,-1131.79 523.71,-1137.76"/>
</g>
<!-- 5 -->
<g id="node6" class="node">
<title>5</title>
<ellipse fill="#9aff9a" stroke="black" cx="570.81" cy="-1014.01" rx="130.63" ry="26.74"/>
<text text-anchor="middle" x="570.81" y="-1017.81" font-family="Times,serif" font-size="14.00">eauto.</text>
<text text-anchor="middle" x="570.81" y="-1002.81" font-family="Times,serif" font-size="14.00">(0.7990387049353621)</text>
</g>
<!-- 4&#45;&gt;5 -->
<g id="edge5" class="edge">
<title>4&#45;&gt;5</title>
<path fill="none" stroke="black" d="M570.81,-1076.43C570.81,-1068.46 570.81,-1059.57 570.81,-1051.08"/>
<polygon fill="black" stroke="black" points="574.31,-1051.02 570.81,-1041.02 567.31,-1051.02 574.31,-1051.02"/>
</g>
<!-- 6 -->
<g id="node7" class="node">
<title>6</title>
<ellipse fill="#9aff9a" stroke="black" cx="570.81" cy="-924.27" rx="130.63" ry="26.74"/>
<text text-anchor="middle" x="570.81" y="-928.07" font-family="Times,serif" font-size="14.00">eauto.</text>
<text text-anchor="middle" x="570.81" y="-913.07" font-family="Times,serif" font-size="14.00">(0.7990387049353621)</text>
</g>
<!-- 5&#45;&gt;6 -->
<g id="edge6" class="edge">
<title>5&#45;&gt;6</title>
<path fill="none" stroke="black" d="M570.81,-986.69C570.81,-978.72 570.81,-969.83 570.81,-961.34"/>
<polygon fill="black" stroke="black" points="574.31,-961.28 570.81,-951.28 567.31,-961.28 574.31,-961.28"/>
</g>
<!-- 7 -->
<g id="node8" class="node">
<title>7</title>
<ellipse fill="#9aff9a" stroke="black" cx="570.81" cy="-834.53" rx="130.63" ry="26.74"/>
<text text-anchor="middle" x="570.81" y="-838.33" font-family="Times,serif" font-size="14.00">intros.</text>
<text text-anchor="middle" x="570.81" y="-823.33" font-family="Times,serif" font-size="14.00">(0.5123769293948736)</text>
</g>
<!-- 6&#45;&gt;7 -->
<g id="edge7" class="edge">
<title>6&#45;&gt;7</title>
<path fill="none" stroke="black" d="M570.81,-896.95C570.81,-888.98 570.81,-880.09 570.81,-871.6"/>
<polygon fill="black" stroke="black" points="574.31,-871.54 570.81,-861.54 567.31,-871.54 574.31,-871.54"/>
</g>
<!-- 8 -->
<g id="node9" class="node">
<title>8</title>
<ellipse fill="#9aff9a" stroke="black" cx="570.81" cy="-744.79" rx="137.36" ry="26.74"/>
<text text-anchor="middle" x="570.81" y="-748.59" font-family="Times,serif" font-size="14.00">apply all_divides_O.</text>
<text text-anchor="middle" x="570.81" y="-733.59" font-family="Times,serif" font-size="14.00">(0.08072754207659377)</text>
</g>
<!-- 7&#45;&gt;8 -->
<g id="edge8" class="edge">
<title>7&#45;&gt;8</title>
<path fill="none" stroke="black" d="M570.81,-807.21C570.81,-799.24 570.81,-790.35 570.81,-781.86"/>
<polygon fill="black" stroke="black" points="574.31,-781.79 570.81,-771.79 567.31,-781.8 574.31,-781.79"/>
</g>
<!-- 9 -->
<g id="node10" class="node">
<title>9</title>
<ellipse fill="#9aff9a" stroke="black" cx="570.81" cy="-655.05" rx="137.36" ry="26.74"/>
<text text-anchor="middle" x="570.81" y="-658.85" font-family="Times,serif" font-size="14.00">split.</text>
<text text-anchor="middle" x="570.81" y="-643.85" font-family="Times,serif" font-size="14.00">(0.28240209061542465)</text>
</g>
<!-- 8&#45;&gt;9 -->
<g id="edge9" class="edge">
<title>8&#45;&gt;9</title>
<path fill="none" stroke="black" d="M570.81,-717.47C570.81,-709.5 570.81,-700.61 570.81,-692.12"/>
<polygon fill="black" stroke="black" points="574.31,-692.05 570.81,-682.05 567.31,-692.05 574.31,-692.05"/>
</g>
<!-- 10 -->
<g id="node11" class="node">
<title>10</title>
<ellipse fill="#9aff9a" stroke="black" cx="570.81" cy="-565.31" rx="137.36" ry="26.74"/>
<text text-anchor="middle" x="570.81" y="-569.11" font-family="Times,serif" font-size="14.00">eauto.</text>
<text text-anchor="middle" x="570.81" y="-554.11" font-family="Times,serif" font-size="14.00">(0.18117650745475236)</text>
</g>
<!-- 9&#45;&gt;10 -->
<g id="edge10" class="edge">
<title>9&#45;&gt;10</title>
<path fill="none" stroke="black" d="M570.81,-627.73C570.81,-619.76 570.81,-610.87 570.81,-602.38"/>
<polygon fill="black" stroke="black" points="574.31,-602.31 570.81,-592.31 567.31,-602.31 574.31,-602.31"/>
</g>
<!-- 11 -->
<g id="node12" class="node">
<title>11</title>
<ellipse fill="#9aff9a" stroke="black" cx="570.81" cy="-475.57" rx="137.36" ry="26.74"/>
<text text-anchor="middle" x="570.81" y="-479.37" font-family="Times,serif" font-size="14.00">eauto.</text>
<text text-anchor="middle" x="570.81" y="-464.37" font-family="Times,serif" font-size="14.00">(0.18117650745475236)</text>
</g>
<!-- 10&#45;&gt;11 -->
<g id="edge11" class="edge">
<title>10&#45;&gt;11</title>
<path fill="none" stroke="black" d="M570.81,-537.99C570.81,-530.02 570.81,-521.13 570.81,-512.64"/>
<polygon fill="black" stroke="black" points="574.31,-512.57 570.81,-502.57 567.31,-512.57 574.31,-512.57"/>
</g>
<!-- 12 -->
<g id="node13" class="node">
<title>12</title>
<ellipse fill="#9aff9a" stroke="black" cx="570.81" cy="-385.83" rx="130.63" ry="26.74"/>
<text text-anchor="middle" x="570.81" y="-389.63" font-family="Times,serif" font-size="14.00">intros.</text>
<text text-anchor="middle" x="570.81" y="-374.63" font-family="Times,serif" font-size="14.00">(0.6995788502541364)</text>
</g>
<!-- 11&#45;&gt;12 -->
<g id="edge12" class="edge">
<title>11&#45;&gt;12</title>
<path fill="none" stroke="black" d="M570.81,-448.25C570.81,-440.28 570.81,-431.39 570.81,-422.9"/>
<polygon fill="black" stroke="black" points="574.31,-422.83 570.81,-412.83 567.31,-422.83 574.31,-422.83"/>
</g>
<!-- 13 -->
<g id="node14" class="node">
<title>13</title>
<ellipse fill="none" stroke="black" cx="424.81" cy="-296.09" rx="137.36" ry="26.74"/>
<text text-anchor="middle" x="424.81" y="-299.89" font-family="Times,serif" font-size="14.00">eapply divides_plus2.</text>
<text text-anchor="middle" x="424.81" y="-284.89" font-family="Times,serif" font-size="14.00">(0.04420423715102695)</text>
</g>
<!-- 12&#45;&gt;13 -->
<g id="edge13" class="edge">
<title>12&#45;&gt;13</title>
<path fill="none" stroke="black" d="M529.76,-360.16C512.65,-349.88 492.63,-337.85 474.69,-327.06"/>
<polygon fill="black" stroke="black" points="476.44,-324.03 466.07,-321.88 472.84,-330.03 476.44,-324.03"/>
</g>
<!-- 18 -->
<g id="node15" class="node">
<title>18</title>
<ellipse fill="#9aff9a" stroke="black" cx="719.81" cy="-296.09" rx="137.36" ry="26.74"/>
<text text-anchor="middle" x="719.81" y="-299.89" font-family="Times,serif" font-size="14.00">destruct d.</text>
<text text-anchor="middle" x="719.81" y="-284.89" font-family="Times,serif" font-size="14.00">(0.02076289015901642)</text>
</g>
<!-- 12&#45;&gt;18 -->
<g id="edge14" class="edge">
<title>12&#45;&gt;18</title>
<path fill="none" stroke="black" d="M612.72,-360.16C630.25,-349.83 650.78,-337.74 669.15,-326.93"/>
<polygon fill="black" stroke="black" points="671.13,-329.82 677.97,-321.73 667.58,-323.79 671.13,-329.82"/>
</g>
<!-- 14 -->
<g id="node16" class="node">
<title>14</title>
<ellipse fill="blue" stroke="black" cx="418.81" cy="-206.35" rx="130.63" ry="26.74"/>
<text text-anchor="middle" x="418.81" y="-210.15" font-family="Times,serif" font-size="14.00">eauto.</text>
<text text-anchor="middle" x="418.81" y="-195.15" font-family="Times,serif" font-size="14.00">(0.9625341128225307)</text>
</g>
<!-- 13&#45;&gt;14 -->
<g id="edge15" class="edge">
<title>13&#45;&gt;14</title>
<path fill="none" stroke="black" d="M423.01,-268.77C422.47,-260.8 421.86,-251.91 421.28,-243.42"/>
<polygon fill="black" stroke="black" points="424.77,-243.09 420.59,-233.35 417.78,-243.57 424.77,-243.09"/>
</g>
<!-- 19 -->
<g id="node20" class="node">
<title>19</title>
<ellipse fill="none" stroke="black" cx="719.81" cy="-206.35" rx="137.36" ry="26.74"/>
<text text-anchor="middle" x="719.81" y="-210.15" font-family="Times,serif" font-size="14.00">econstructor.</text>
<text text-anchor="middle" x="719.81" y="-195.15" font-family="Times,serif" font-size="14.00">(0.05327108433627024)</text>
</g>
<!-- 18&#45;&gt;19 -->
<g id="edge19" class="edge">
<title>18&#45;&gt;19</title>
<path fill="none" stroke="black" d="M719.81,-268.77C719.81,-260.8 719.81,-251.91 719.81,-243.42"/>
<polygon fill="black" stroke="black" points="723.31,-243.35 719.81,-233.35 716.31,-243.35 723.31,-243.35"/>
</g>
<!-- 20 -->
<g id="node21" class="node">
<title>20</title>
<ellipse fill="#9aff9a" stroke="black" cx="1019.81" cy="-206.35" rx="143.59" ry="26.74"/>
<text text-anchor="middle" x="1019.81" y="-210.15" font-family="Times,serif" font-size="14.00">eauto.</text>
<text text-anchor="middle" x="1019.81" y="-195.15" font-family="Times,serif" font-size="14.00">(0.050693168993008866)</text>
</g>
<!-- 18&#45;&gt;20 -->
<g id="edge20" class="edge">
<title>18&#45;&gt;20</title>
<path fill="none" stroke="black" d="M793.97,-273.4C836.73,-260.9 890.64,-245.13 935.07,-232.14"/>
<polygon fill="black" stroke="black" points="936.07,-235.49 944.69,-229.32 934.11,-228.77 936.07,-235.49"/>
</g>
<!-- 15 -->
<g id="node17" class="node">
<title>15</title>
<ellipse fill="orange" stroke="black" cx="130.81" cy="-116.61" rx="130.63" ry="26.74"/>
<text text-anchor="middle" x="130.81" y="-120.41" font-family="Times,serif" font-size="14.00">eauto.</text>
<text text-anchor="middle" x="130.81" y="-105.41" font-family="Times,serif" font-size="14.00">(0.9699058458758826)</text>
</g>
<!-- 14&#45;&gt;15 -->
<g id="edge16" class="edge">
<title>14&#45;&gt;15</title>
<path fill="none" stroke="black" d="M347.62,-183.66C306.36,-171.09 254.28,-155.22 211.5,-142.19"/>
<polygon fill="black" stroke="black" points="212.27,-138.77 201.69,-139.2 210.23,-145.46 212.27,-138.77"/>
</g>
<!-- 16 -->
<g id="node18" class="node">
<title>16</title>
<ellipse fill="orange" stroke="black" cx="416.81" cy="-116.61" rx="137.36" ry="26.74"/>
<text text-anchor="middle" x="416.81" y="-120.41" font-family="Times,serif" font-size="14.00">apply divides_plus1.</text>
<text text-anchor="middle" x="416.81" y="-105.41" font-family="Times,serif" font-size="14.00">(0.00438352712102459)</text>
</g>
<!-- 14&#45;&gt;16 -->
<g id="edge17" class="edge">
<title>14&#45;&gt;16</title>
<path fill="none" stroke="black" d="M418.21,-179.03C418.03,-171.06 417.83,-162.17 417.64,-153.68"/>
<polygon fill="black" stroke="black" points="421.13,-153.53 417.41,-143.61 414.14,-153.69 421.13,-153.53"/>
</g>
<!-- 17 -->
<g id="node19" class="node">
<title>17</title>
<ellipse fill="none" stroke="black" cx="721.81" cy="-116.61" rx="149.81" ry="26.74"/>
<text text-anchor="middle" x="721.81" y="-120.41" font-family="Times,serif" font-size="14.00">econstructor.</text>
<text text-anchor="middle" x="721.81" y="-105.41" font-family="Times,serif" font-size="14.00">(0.0008432057824976248)</text>
</g>
<!-- 14&#45;&gt;17 -->
<g id="edge18" class="edge">
<title>14&#45;&gt;17</title>
<path fill="none" stroke="black" d="M492.55,-184C535.72,-171.5 590.44,-155.65 635.59,-142.58"/>
<polygon fill="black" stroke="black" points="636.74,-145.89 645.37,-139.75 634.79,-139.17 636.74,-145.89"/>
</g>
<!-- 21 -->
<g id="node22" class="node">
<title>21</title>
<ellipse fill="#9aff9a" stroke="black" cx="1020.81" cy="-116.61" rx="130.63" ry="26.74"/>
<text text-anchor="middle" x="1020.81" y="-120.41" font-family="Times,serif" font-size="14.00">eauto.</text>
<text text-anchor="middle" x="1020.81" y="-105.41" font-family="Times,serif" font-size="14.00">(0.3836538109388005)</text>
</g>
<!-- 20&#45;&gt;21 -->
<g id="edge21" class="edge">
<title>20&#45;&gt;21</title>
<path fill="none" stroke="black" d="M1020.11,-179.03C1020.21,-171.06 1020.31,-162.17 1020.4,-153.68"/>
<polygon fill="black" stroke="black" points="1023.9,-153.65 1020.52,-143.61 1016.9,-153.57 1023.9,-153.65"/>
</g>
<!-- 22 -->
<g id="node23" class="node">
<title>22</title>
<ellipse fill="green" stroke="black" cx="1020.81" cy="-26.87" rx="35.21" ry="26.74"/>
<text text-anchor="middle" x="1020.81" y="-30.67" font-family="Times,serif" font-size="14.00">QED</text>
<text text-anchor="middle" x="1020.81" y="-15.67" font-family="Times,serif" font-size="14.00">(1.0)</text>
</g>
<!-- 21&#45;&gt;22 -->
<g id="edge22" class="edge">
<title>21&#45;&gt;22</title>
<path fill="none" stroke="black" d="M1020.81,-89.29C1020.81,-81.32 1020.81,-72.43 1020.81,-63.94"/>
<polygon fill="green" stroke="black" points="1024.31,-63.87 1020.81,-53.87 1017.31,-63.87 1024.31,-63.87"/>
</g>
</g>
</svg>
