<?xml version="1.0" encoding="UTF-8" standalone="no"?>
<!DOCTYPE svg PUBLIC "-//W3C//DTD SVG 1.1//EN"
 "http://www.w3.org/Graphics/SVG/1.1/DTD/svg11.dtd">
<!-- Generated by graphviz version 2.43.0 (0)
 -->
<!-- Pages: 1 -->
<svg width="714pt" height="600pt"
 viewBox="0.00 0.00 713.99 600.18" xmlns="http://www.w3.org/2000/svg" xmlns:xlink="http://www.w3.org/1999/xlink">
<g id="graph0" class="graph" transform="scale(1 1) rotate(0) translate(4 596.18)">
<polygon fill="white" stroke="transparent" points="-4,4 -4,-596.18 709.99,-596.18 709.99,4 -4,4"/>
<!-- 0 -->
<g id="node1" class="node">
<title>0</title>
<ellipse fill="none" stroke="black" cx="276.81" cy="-565.31" rx="54.39" ry="26.74"/>
<text text-anchor="middle" x="276.81" y="-569.11" font-family="Times,serif" font-size="14.00">cong_ref</text>
<text text-anchor="middle" x="276.81" y="-554.11" font-family="Times,serif" font-size="14.00">(1.0)</text>
</g>
<!-- 1 -->
<g id="node2" class="node">
<title>1</title>
<ellipse fill="#9aff9a" stroke="black" cx="276.81" cy="-475.57" rx="130.63" ry="26.74"/>
<text text-anchor="middle" x="276.81" y="-479.37" font-family="Times,serif" font-size="14.00">intros.</text>
<text text-anchor="middle" x="276.81" y="-464.37" font-family="Times,serif" font-size="14.00">(0.9317826394271603)</text>
</g>
<!-- 0&#45;&gt;1 -->
<g id="edge1" class="edge">
<title>0&#45;&gt;1</title>
<path fill="none" stroke="black" d="M276.81,-537.99C276.81,-530.02 276.81,-521.13 276.81,-512.64"/>
<polygon fill="black" stroke="black" points="280.31,-512.57 276.81,-502.57 273.31,-512.57 280.31,-512.57"/>
</g>
<!-- 2 -->
<g id="node3" class="node">
<title>2</title>
<ellipse fill="orange" stroke="black" cx="130.81" cy="-385.83" rx="130.63" ry="26.74"/>
<text text-anchor="middle" x="130.81" y="-389.63" font-family="Times,serif" font-size="14.00">eauto.</text>
<text text-anchor="middle" x="130.81" y="-374.63" font-family="Times,serif" font-size="14.00">(0.7464027716591446)</text>
</g>
<!-- 1&#45;&gt;2 -->
<g id="edge2" class="edge">
<title>1&#45;&gt;2</title>
<path fill="none" stroke="black" d="M235.76,-449.9C218.58,-439.57 198.46,-427.48 180.46,-416.67"/>
<polygon fill="black" stroke="black" points="182.19,-413.62 171.82,-411.47 178.59,-419.62 182.19,-413.62"/>
</g>
<!-- 3 -->
<g id="node4" class="node">
<title>3</title>
<ellipse fill="#9aff9a" stroke="black" cx="422.81" cy="-385.83" rx="143.59" ry="26.74"/>
<text text-anchor="middle" x="422.81" y="-389.63" font-family="Times,serif" font-size="14.00">econstructor.</text>
<text text-anchor="middle" x="422.81" y="-374.63" font-family="Times,serif" font-size="14.00">(0.029153304636810942)</text>
</g>
<!-- 1&#45;&gt;3 -->
<g id="edge3" class="edge">
<title>1&#45;&gt;3</title>
<path fill="none" stroke="black" d="M317.87,-449.9C334.98,-439.62 355,-427.59 372.94,-416.8"/>
<polygon fill="black" stroke="black" points="374.79,-419.77 381.56,-411.62 371.19,-413.77 374.79,-419.77"/>
</g>
<!-- 4 -->
<g id="node5" class="node">
<title>4</title>
<ellipse fill="#9aff9a" stroke="black" cx="422.81" cy="-296.09" rx="124.4" ry="26.74"/>
<text text-anchor="middle" x="422.81" y="-299.89" font-family="Times,serif" font-size="14.00">eauto.</text>
<text text-anchor="middle" x="422.81" y="-284.89" font-family="Times,serif" font-size="14.00">(0.946197652158317)</text>
</g>
<!-- 3&#45;&gt;4 -->
<g id="edge4" class="edge">
<title>3&#45;&gt;4</title>
<path fill="none" stroke="black" d="M422.81,-358.51C422.81,-350.54 422.81,-341.65 422.81,-333.16"/>
<polygon fill="black" stroke="black" points="426.31,-333.09 422.81,-323.09 419.31,-333.09 426.31,-333.09"/>
</g>
<!-- 5 -->
<g id="node6" class="node">
<title>5</title>
<ellipse fill="#9aff9a" stroke="black" cx="422.81" cy="-206.35" rx="62.45" ry="26.74"/>
<text text-anchor="middle" x="422.81" y="-210.15" font-family="Times,serif" font-size="14.00">Unshelve.</text>
<text text-anchor="middle" x="422.81" y="-195.15" font-family="Times,serif" font-size="14.00">(1.0)</text>
</g>
<!-- 4&#45;&gt;5 -->
<g id="edge5" class="edge">
<title>4&#45;&gt;5</title>
<path fill="none" stroke="black" d="M422.81,-268.77C422.81,-260.8 422.81,-251.91 422.81,-243.42"/>
<polygon fill="black" stroke="black" points="426.31,-243.35 422.81,-233.35 419.31,-243.35 426.31,-243.35"/>
</g>
<!-- 6 -->
<g id="node7" class="node">
<title>6</title>
<ellipse fill="none" stroke="black" cx="276.81" cy="-116.61" rx="137.36" ry="26.74"/>
<text text-anchor="middle" x="276.81" y="-120.41" font-family="Times,serif" font-size="14.00">generalize n.</text>
<text text-anchor="middle" x="276.81" y="-105.41" font-family="Times,serif" font-size="14.00">(0.11312890568765122)</text>
</g>
<!-- 5&#45;&gt;6 -->
<g id="edge6" class="edge">
<title>5&#45;&gt;6</title>
<path fill="none" stroke="black" d="M387.47,-184.11C369.24,-173.15 346.69,-159.6 326.72,-147.6"/>
<polygon fill="black" stroke="black" points="328.42,-144.54 318.04,-142.39 324.81,-150.54 328.42,-144.54"/>
</g>
<!-- 8 -->
<g id="node8" class="node">
<title>8</title>
<ellipse fill="#9aff9a" stroke="black" cx="568.81" cy="-116.61" rx="137.36" ry="26.74"/>
<text text-anchor="middle" x="568.81" y="-120.41" font-family="Times,serif" font-size="14.00">apply n.</text>
<text text-anchor="middle" x="568.81" y="-105.41" font-family="Times,serif" font-size="14.00">(0.09345029714740255)</text>
</g>
<!-- 5&#45;&gt;8 -->
<g id="edge7" class="edge">
<title>5&#45;&gt;8</title>
<path fill="none" stroke="black" d="M458.16,-184.11C476.39,-173.15 498.94,-159.6 518.91,-147.6"/>
<polygon fill="black" stroke="black" points="520.82,-150.54 527.59,-142.39 517.21,-144.54 520.82,-150.54"/>
</g>
<!-- 7 -->
<g id="node9" class="node">
<title>7</title>
<ellipse fill="orange" stroke="black" cx="276.81" cy="-26.87" rx="130.63" ry="26.74"/>
<text text-anchor="middle" x="276.81" y="-30.67" font-family="Times,serif" font-size="14.00">intros.</text>
<text text-anchor="middle" x="276.81" y="-15.67" font-family="Times,serif" font-size="14.00">(0.1651750561506723)</text>
</g>
<!-- 6&#45;&gt;7 -->
<g id="edge8" class="edge">
<title>6&#45;&gt;7</title>
<path fill="none" stroke="black" d="M276.81,-89.29C276.81,-81.32 276.81,-72.43 276.81,-63.94"/>
<polygon fill="black" stroke="black" points="280.31,-63.87 276.81,-53.87 273.31,-63.87 280.31,-63.87"/>
</g>
<!-- 9 -->
<g id="node10" class="node">
<title>9</title>
<ellipse fill="green" stroke="black" cx="568.81" cy="-26.87" rx="35.21" ry="26.74"/>
<text text-anchor="middle" x="568.81" y="-30.67" font-family="Times,serif" font-size="14.00">QED</text>
<text text-anchor="middle" x="568.81" y="-15.67" font-family="Times,serif" font-size="14.00">(1.0)</text>
</g>
<!-- 8&#45;&gt;9 -->
<g id="edge9" class="edge">
<title>8&#45;&gt;9</title>
<path fill="none" stroke="black" d="M568.81,-89.29C568.81,-81.32 568.81,-72.43 568.81,-63.94"/>
<polygon fill="green" stroke="black" points="572.31,-63.87 568.81,-53.87 565.31,-63.87 572.31,-63.87"/>
</g>
</g>
</svg>
