<?xml version="1.0" encoding="UTF-8" standalone="no"?>
<!DOCTYPE svg PUBLIC "-//W3C//DTD SVG 1.1//EN"
 "http://www.w3.org/Graphics/SVG/1.1/DTD/svg11.dtd">
<!-- Generated by graphviz version 2.43.0 (0)
 -->
<!-- Pages: 1 -->
<svg width="836pt" height="780pt"
 viewBox="0.00 0.00 835.63 779.66" xmlns="http://www.w3.org/2000/svg" xmlns:xlink="http://www.w3.org/1999/xlink">
<g id="graph0" class="graph" transform="scale(1 1) rotate(0) translate(4 775.66)">
<polygon fill="white" stroke="transparent" points="-4,4 -4,-775.66 831.63,-775.66 831.63,4 -4,4"/>
<!-- 0 -->
<g id="node1" class="node">
<title>0</title>
<ellipse fill="none" stroke="black" cx="273.81" cy="-744.79" rx="60.62" ry="26.74"/>
<text text-anchor="middle" x="273.81" y="-748.59" font-family="Times,serif" font-size="14.00">is_gcd_Or</text>
<text text-anchor="middle" x="273.81" y="-733.59" font-family="Times,serif" font-size="14.00">(1.0)</text>
</g>
<!-- 1 -->
<g id="node2" class="node">
<title>1</title>
<ellipse fill="#9aff9a" stroke="black" cx="273.81" cy="-655.05" rx="130.63" ry="26.74"/>
<text text-anchor="middle" x="273.81" y="-658.85" font-family="Times,serif" font-size="14.00">intros.</text>
<text text-anchor="middle" x="273.81" y="-643.85" font-family="Times,serif" font-size="14.00">(0.9482490046922405)</text>
</g>
<!-- 0&#45;&gt;1 -->
<g id="edge1" class="edge">
<title>0&#45;&gt;1</title>
<path fill="none" stroke="black" d="M273.81,-717.47C273.81,-709.5 273.81,-700.61 273.81,-692.12"/>
<polygon fill="black" stroke="black" points="277.31,-692.05 273.81,-682.05 270.31,-692.05 277.31,-692.05"/>
</g>
<!-- 2 -->
<g id="node3" class="node">
<title>2</title>
<ellipse fill="orange" stroke="black" cx="130.81" cy="-565.31" rx="130.63" ry="26.74"/>
<text text-anchor="middle" x="130.81" y="-569.11" font-family="Times,serif" font-size="14.00">eauto.</text>
<text text-anchor="middle" x="130.81" y="-554.11" font-family="Times,serif" font-size="14.00">(0.3758540081347319)</text>
</g>
<!-- 1&#45;&gt;2 -->
<g id="edge2" class="edge">
<title>1&#45;&gt;2</title>
<path fill="none" stroke="black" d="M233.6,-629.38C217,-619.19 197.59,-607.28 180.14,-596.58"/>
<polygon fill="black" stroke="black" points="181.58,-593.35 171.22,-591.1 177.92,-599.32 181.58,-593.35"/>
</g>
<!-- 3 -->
<g id="node4" class="node">
<title>3</title>
<ellipse fill="#9aff9a" stroke="black" cx="416.81" cy="-565.31" rx="137.36" ry="26.74"/>
<text text-anchor="middle" x="416.81" y="-569.11" font-family="Times,serif" font-size="14.00">destruct a.</text>
<text text-anchor="middle" x="416.81" y="-554.11" font-family="Times,serif" font-size="14.00">(0.05784865697830402)</text>
</g>
<!-- 1&#45;&gt;3 -->
<g id="edge3" class="edge">
<title>1&#45;&gt;3</title>
<path fill="none" stroke="black" d="M314.03,-629.38C330.63,-619.19 350.04,-607.28 367.49,-596.58"/>
<polygon fill="black" stroke="black" points="369.71,-599.32 376.41,-591.1 366.05,-593.35 369.71,-599.32"/>
</g>
<!-- 4 -->
<g id="node5" class="node">
<title>4</title>
<ellipse fill="orange" stroke="black" cx="276.81" cy="-475.57" rx="124.4" ry="26.74"/>
<text text-anchor="middle" x="276.81" y="-479.37" font-family="Times,serif" font-size="14.00">eauto.</text>
<text text-anchor="middle" x="276.81" y="-464.37" font-family="Times,serif" font-size="14.00">(0.806952451215414)</text>
</g>
<!-- 3&#45;&gt;4 -->
<g id="edge4" class="edge">
<title>3&#45;&gt;4</title>
<path fill="none" stroke="black" d="M377.07,-539.4C360.82,-529.22 341.89,-517.35 324.87,-506.69"/>
<polygon fill="black" stroke="black" points="326.51,-503.58 316.17,-501.24 322.79,-509.51 326.51,-503.58"/>
</g>
<!-- 5 -->
<g id="node6" class="node">
<title>5</title>
<ellipse fill="#9aff9a" stroke="black" cx="556.81" cy="-475.57" rx="137.36" ry="26.74"/>
<text text-anchor="middle" x="556.81" y="-479.37" font-family="Times,serif" font-size="14.00">apply is_gcd_Ol.</text>
<text text-anchor="middle" x="556.81" y="-464.37" font-family="Times,serif" font-size="14.00">(0.06337954756072296)</text>
</g>
<!-- 3&#45;&gt;5 -->
<g id="edge5" class="edge">
<title>3&#45;&gt;5</title>
<path fill="none" stroke="black" d="M456.56,-539.4C472.67,-529.31 491.42,-517.55 508.33,-506.96"/>
<polygon fill="black" stroke="black" points="510.36,-509.82 516.97,-501.54 506.64,-503.89 510.36,-509.82"/>
</g>
<!-- 6 -->
<g id="node7" class="node">
<title>6</title>
<ellipse fill="orange" stroke="black" cx="416.81" cy="-385.83" rx="130.63" ry="26.74"/>
<text text-anchor="middle" x="416.81" y="-389.63" font-family="Times,serif" font-size="14.00">eauto.</text>
<text text-anchor="middle" x="416.81" y="-374.63" font-family="Times,serif" font-size="14.00">(0.6316420303889437)</text>
</g>
<!-- 5&#45;&gt;6 -->
<g id="edge6" class="edge">
<title>5&#45;&gt;6</title>
<path fill="none" stroke="black" d="M517.07,-449.66C500.82,-439.48 481.89,-427.61 464.87,-416.95"/>
<polygon fill="black" stroke="black" points="466.51,-413.84 456.17,-411.5 462.79,-419.77 466.51,-413.84"/>
</g>
<!-- 7 -->
<g id="node8" class="node">
<title>7</title>
<ellipse fill="#9aff9a" stroke="black" cx="696.81" cy="-385.83" rx="130.63" ry="26.74"/>
<text text-anchor="middle" x="696.81" y="-389.63" font-family="Times,serif" font-size="14.00">econstructor.</text>
<text text-anchor="middle" x="696.81" y="-374.63" font-family="Times,serif" font-size="14.00">(0.1398108217936375)</text>
</g>
<!-- 5&#45;&gt;7 -->
<g id="edge7" class="edge">
<title>5&#45;&gt;7</title>
<path fill="none" stroke="black" d="M596.56,-449.66C612.8,-439.48 631.74,-427.61 648.76,-416.95"/>
<polygon fill="black" stroke="black" points="650.84,-419.77 657.46,-411.5 647.12,-413.84 650.84,-419.77"/>
</g>
<!-- 8 -->
<g id="node9" class="node">
<title>8</title>
<ellipse fill="#9aff9a" stroke="black" cx="696.81" cy="-296.09" rx="130.63" ry="26.74"/>
<text text-anchor="middle" x="696.81" y="-299.89" font-family="Times,serif" font-size="14.00">eauto.</text>
<text text-anchor="middle" x="696.81" y="-284.89" font-family="Times,serif" font-size="14.00">(0.9607242503175754)</text>
</g>
<!-- 7&#45;&gt;8 -->
<g id="edge8" class="edge">
<title>7&#45;&gt;8</title>
<path fill="none" stroke="black" d="M696.81,-358.51C696.81,-350.54 696.81,-341.65 696.81,-333.16"/>
<polygon fill="black" stroke="black" points="700.31,-333.09 696.81,-323.09 693.31,-333.09 700.31,-333.09"/>
</g>
<!-- 9 -->
<g id="node10" class="node">
<title>9</title>
<ellipse fill="#9aff9a" stroke="black" cx="696.81" cy="-206.35" rx="130.63" ry="26.74"/>
<text text-anchor="middle" x="696.81" y="-210.15" font-family="Times,serif" font-size="14.00">eauto.</text>
<text text-anchor="middle" x="696.81" y="-195.15" font-family="Times,serif" font-size="14.00">(0.9329591539873395)</text>
</g>
<!-- 8&#45;&gt;9 -->
<g id="edge9" class="edge">
<title>8&#45;&gt;9</title>
<path fill="none" stroke="black" d="M696.81,-268.77C696.81,-260.8 696.81,-251.91 696.81,-243.42"/>
<polygon fill="black" stroke="black" points="700.31,-243.35 696.81,-233.35 693.31,-243.35 700.31,-243.35"/>
</g>
<!-- 10 -->
<g id="node11" class="node">
<title>10</title>
<ellipse fill="#9aff9a" stroke="black" cx="696.81" cy="-116.61" rx="130.63" ry="26.74"/>
<text text-anchor="middle" x="696.81" y="-120.41" font-family="Times,serif" font-size="14.00">eauto.</text>
<text text-anchor="middle" x="696.81" y="-105.41" font-family="Times,serif" font-size="14.00">(0.9246936347776458)</text>
</g>
<!-- 9&#45;&gt;10 -->
<g id="edge10" class="edge">
<title>9&#45;&gt;10</title>
<path fill="none" stroke="black" d="M696.81,-179.03C696.81,-171.06 696.81,-162.17 696.81,-153.68"/>
<polygon fill="black" stroke="black" points="700.31,-153.61 696.81,-143.61 693.31,-153.61 700.31,-153.61"/>
</g>
<!-- 11 -->
<g id="node12" class="node">
<title>11</title>
<ellipse fill="green" stroke="black" cx="696.81" cy="-26.87" rx="35.21" ry="26.74"/>
<text text-anchor="middle" x="696.81" y="-30.67" font-family="Times,serif" font-size="14.00">QED</text>
<text text-anchor="middle" x="696.81" y="-15.67" font-family="Times,serif" font-size="14.00">(1.0)</text>
</g>
<!-- 10&#45;&gt;11 -->
<g id="edge11" class="edge">
<title>10&#45;&gt;11</title>
<path fill="none" stroke="black" d="M696.81,-89.29C696.81,-81.32 696.81,-72.43 696.81,-63.94"/>
<polygon fill="green" stroke="black" points="700.31,-63.87 696.81,-53.87 693.31,-63.87 700.31,-63.87"/>
</g>
</g>
</svg>
