<?xml version="1.0" encoding="UTF-8" standalone="no"?>
<!DOCTYPE svg PUBLIC "-//W3C//DTD SVG 1.1//EN"
 "http://www.w3.org/Graphics/SVG/1.1/DTD/svg11.dtd">
<!-- Generated by graphviz version 2.43.0 (0)
 -->
<!-- Pages: 1 -->
<svg width="1137pt" height="1139pt"
 viewBox="0.00 0.00 1136.99 1138.62" xmlns="http://www.w3.org/2000/svg" xmlns:xlink="http://www.w3.org/1999/xlink">
<g id="graph0" class="graph" transform="scale(1 1) rotate(0) translate(4 1134.62)">
<polygon fill="white" stroke="transparent" points="-4,4 -4,-1134.62 1132.99,-1134.62 1132.99,4 -4,4"/>
<!-- 0 -->
<g id="node1" class="node">
<title>0</title>
<ellipse fill="none" stroke="black" cx="416.81" cy="-1103.75" rx="58.88" ry="26.74"/>
<text text-anchor="middle" x="416.81" y="-1107.55" font-family="Times,serif" font-size="14.00">is_gcd_Ol</text>
<text text-anchor="middle" x="416.81" y="-1092.55" font-family="Times,serif" font-size="14.00">(1.0)</text>
</g>
<!-- 1 -->
<g id="node2" class="node">
<title>1</title>
<ellipse fill="#9aff9a" stroke="black" cx="416.81" cy="-1014.01" rx="130.63" ry="26.74"/>
<text text-anchor="middle" x="416.81" y="-1017.81" font-family="Times,serif" font-size="14.00">intros.</text>
<text text-anchor="middle" x="416.81" y="-1002.81" font-family="Times,serif" font-size="14.00">(0.9483124646962412)</text>
</g>
<!-- 0&#45;&gt;1 -->
<g id="edge1" class="edge">
<title>0&#45;&gt;1</title>
<path fill="none" stroke="black" d="M416.81,-1076.43C416.81,-1068.46 416.81,-1059.57 416.81,-1051.08"/>
<polygon fill="black" stroke="black" points="420.31,-1051.02 416.81,-1041.02 413.31,-1051.02 420.31,-1051.02"/>
</g>
<!-- 2 -->
<g id="node3" class="node">
<title>2</title>
<ellipse fill="orange" stroke="black" cx="130.81" cy="-924.27" rx="130.63" ry="26.74"/>
<text text-anchor="middle" x="130.81" y="-928.07" font-family="Times,serif" font-size="14.00">eauto.</text>
<text text-anchor="middle" x="130.81" y="-913.07" font-family="Times,serif" font-size="14.00">(0.4139392109045558)</text>
</g>
<!-- 1&#45;&gt;2 -->
<g id="edge2" class="edge">
<title>1&#45;&gt;2</title>
<path fill="none" stroke="black" d="M346.12,-991.32C305.3,-978.8 253.81,-963 211.42,-950"/>
<polygon fill="black" stroke="black" points="212.28,-946.6 201.69,-947.01 210.22,-953.29 212.28,-946.6"/>
</g>
<!-- 3 -->
<g id="node4" class="node">
<title>3</title>
<ellipse fill="orange" stroke="black" cx="416.81" cy="-924.27" rx="137.36" ry="26.74"/>
<text text-anchor="middle" x="416.81" y="-928.07" font-family="Times,serif" font-size="14.00">destruct O.</text>
<text text-anchor="middle" x="416.81" y="-913.07" font-family="Times,serif" font-size="14.00">(0.06371044468314188)</text>
</g>
<!-- 1&#45;&gt;3 -->
<g id="edge3" class="edge">
<title>1&#45;&gt;3</title>
<path fill="none" stroke="black" d="M416.81,-986.69C416.81,-978.72 416.81,-969.83 416.81,-961.34"/>
<polygon fill="black" stroke="black" points="420.31,-961.28 416.81,-951.28 413.31,-961.28 420.31,-961.28"/>
</g>
<!-- 4 -->
<g id="node5" class="node">
<title>4</title>
<ellipse fill="#9aff9a" stroke="black" cx="708.81" cy="-924.27" rx="137.36" ry="26.74"/>
<text text-anchor="middle" x="708.81" y="-928.07" font-family="Times,serif" font-size="14.00">destruct a.</text>
<text text-anchor="middle" x="708.81" y="-913.07" font-family="Times,serif" font-size="14.00">(0.04530911272858771)</text>
</g>
<!-- 1&#45;&gt;4 -->
<g id="edge4" class="edge">
<title>1&#45;&gt;4</title>
<path fill="none" stroke="black" d="M488.62,-991.44C530.3,-978.91 582.97,-963.08 626.35,-950.05"/>
<polygon fill="black" stroke="black" points="627.45,-953.37 636.02,-947.14 625.43,-946.67 627.45,-953.37"/>
</g>
<!-- 5 -->
<g id="node6" class="node">
<title>5</title>
<ellipse fill="orange" stroke="black" cx="568.81" cy="-834.53" rx="124.4" ry="26.74"/>
<text text-anchor="middle" x="568.81" y="-838.33" font-family="Times,serif" font-size="14.00">eauto.</text>
<text text-anchor="middle" x="568.81" y="-823.33" font-family="Times,serif" font-size="14.00">(0.861557582721332)</text>
</g>
<!-- 4&#45;&gt;5 -->
<g id="edge5" class="edge">
<title>4&#45;&gt;5</title>
<path fill="none" stroke="black" d="M669.07,-898.36C652.82,-888.18 633.89,-876.31 616.87,-865.65"/>
<polygon fill="black" stroke="black" points="618.51,-862.54 608.17,-860.2 614.79,-868.47 618.51,-862.54"/>
</g>
<!-- 6 -->
<g id="node7" class="node">
<title>6</title>
<ellipse fill="#9aff9a" stroke="black" cx="848.81" cy="-834.53" rx="137.36" ry="26.74"/>
<text text-anchor="middle" x="848.81" y="-838.33" font-family="Times,serif" font-size="14.00">econstructor.</text>
<text text-anchor="middle" x="848.81" y="-823.33" font-family="Times,serif" font-size="14.00">(0.04711950454372007)</text>
</g>
<!-- 4&#45;&gt;6 -->
<g id="edge6" class="edge">
<title>4&#45;&gt;6</title>
<path fill="none" stroke="black" d="M748.56,-898.36C764.67,-888.27 783.42,-876.51 800.33,-865.92"/>
<polygon fill="black" stroke="black" points="802.36,-868.78 808.97,-860.5 798.64,-862.85 802.36,-868.78"/>
</g>
<!-- 7 -->
<g id="node8" class="node">
<title>7</title>
<ellipse fill="#9aff9a" stroke="black" cx="848.81" cy="-744.79" rx="130.63" ry="26.74"/>
<text text-anchor="middle" x="848.81" y="-748.59" font-family="Times,serif" font-size="14.00">eauto.</text>
<text text-anchor="middle" x="848.81" y="-733.59" font-family="Times,serif" font-size="14.00">(0.7981597549985809)</text>
</g>
<!-- 6&#45;&gt;7 -->
<g id="edge7" class="edge">
<title>6&#45;&gt;7</title>
<path fill="none" stroke="black" d="M848.81,-807.21C848.81,-799.24 848.81,-790.35 848.81,-781.86"/>
<polygon fill="black" stroke="black" points="852.31,-781.79 848.81,-771.79 845.31,-781.8 852.31,-781.79"/>
</g>
<!-- 8 -->
<g id="node9" class="node">
<title>8</title>
<ellipse fill="#9aff9a" stroke="black" cx="848.81" cy="-655.05" rx="130.63" ry="26.74"/>
<text text-anchor="middle" x="848.81" y="-658.85" font-family="Times,serif" font-size="14.00">eauto.</text>
<text text-anchor="middle" x="848.81" y="-643.85" font-family="Times,serif" font-size="14.00">(0.7981597549985809)</text>
</g>
<!-- 7&#45;&gt;8 -->
<g id="edge8" class="edge">
<title>7&#45;&gt;8</title>
<path fill="none" stroke="black" d="M848.81,-717.47C848.81,-709.5 848.81,-700.61 848.81,-692.12"/>
<polygon fill="black" stroke="black" points="852.31,-692.05 848.81,-682.05 845.31,-692.05 852.31,-692.05"/>
</g>
<!-- 9 -->
<g id="node10" class="node">
<title>9</title>
<ellipse fill="#9aff9a" stroke="black" cx="848.81" cy="-565.31" rx="124.4" ry="26.74"/>
<text text-anchor="middle" x="848.81" y="-569.11" font-family="Times,serif" font-size="14.00">intros.</text>
<text text-anchor="middle" x="848.81" y="-554.11" font-family="Times,serif" font-size="14.00">(0.512049644686239)</text>
</g>
<!-- 8&#45;&gt;9 -->
<g id="edge9" class="edge">
<title>8&#45;&gt;9</title>
<path fill="none" stroke="black" d="M848.81,-627.73C848.81,-619.76 848.81,-610.87 848.81,-602.38"/>
<polygon fill="black" stroke="black" points="852.31,-602.31 848.81,-592.31 845.31,-602.31 852.31,-602.31"/>
</g>
<!-- 10 -->
<g id="node11" class="node">
<title>10</title>
<ellipse fill="#9aff9a" stroke="black" cx="848.81" cy="-475.57" rx="137.36" ry="26.74"/>
<text text-anchor="middle" x="848.81" y="-479.37" font-family="Times,serif" font-size="14.00">apply all_divides_O.</text>
<text text-anchor="middle" x="848.81" y="-464.37" font-family="Times,serif" font-size="14.00">(0.08022186002734431)</text>
</g>
<!-- 9&#45;&gt;10 -->
<g id="edge10" class="edge">
<title>9&#45;&gt;10</title>
<path fill="none" stroke="black" d="M848.81,-537.99C848.81,-530.02 848.81,-521.13 848.81,-512.64"/>
<polygon fill="black" stroke="black" points="852.31,-512.57 848.81,-502.57 845.31,-512.57 852.31,-512.57"/>
</g>
<!-- 11 -->
<g id="node12" class="node">
<title>11</title>
<ellipse fill="orange" stroke="black" cx="705.81" cy="-385.83" rx="130.63" ry="26.74"/>
<text text-anchor="middle" x="705.81" y="-389.63" font-family="Times,serif" font-size="14.00">eauto.</text>
<text text-anchor="middle" x="705.81" y="-374.63" font-family="Times,serif" font-size="14.00">(0.7275675605097915)</text>
</g>
<!-- 10&#45;&gt;11 -->
<g id="edge11" class="edge">
<title>10&#45;&gt;11</title>
<path fill="none" stroke="black" d="M808.22,-449.66C791.62,-439.48 772.28,-427.61 754.9,-416.95"/>
<polygon fill="black" stroke="black" points="756.37,-413.74 746.02,-411.5 752.71,-419.71 756.37,-413.74"/>
</g>
<!-- 12 -->
<g id="node13" class="node">
<title>12</title>
<ellipse fill="#9aff9a" stroke="black" cx="991.81" cy="-385.83" rx="137.36" ry="26.74"/>
<text text-anchor="middle" x="991.81" y="-389.63" font-family="Times,serif" font-size="14.00">econstructor.</text>
<text text-anchor="middle" x="991.81" y="-374.63" font-family="Times,serif" font-size="14.00">(0.08197463604898621)</text>
</g>
<!-- 10&#45;&gt;12 -->
<g id="edge12" class="edge">
<title>10&#45;&gt;12</title>
<path fill="none" stroke="black" d="M889.41,-449.66C905.86,-439.57 925.02,-427.81 942.29,-417.22"/>
<polygon fill="black" stroke="black" points="944.42,-420.01 951.12,-411.8 940.76,-414.05 944.42,-420.01"/>
</g>
<!-- 13 -->
<g id="node14" class="node">
<title>13</title>
<ellipse fill="#9aff9a" stroke="black" cx="991.81" cy="-296.09" rx="130.63" ry="26.74"/>
<text text-anchor="middle" x="991.81" y="-299.89" font-family="Times,serif" font-size="14.00">eauto.</text>
<text text-anchor="middle" x="991.81" y="-284.89" font-family="Times,serif" font-size="14.00">(0.9330902189939694)</text>
</g>
<!-- 12&#45;&gt;13 -->
<g id="edge13" class="edge">
<title>12&#45;&gt;13</title>
<path fill="none" stroke="black" d="M991.81,-358.51C991.81,-350.54 991.81,-341.65 991.81,-333.16"/>
<polygon fill="black" stroke="black" points="995.31,-333.09 991.81,-323.09 988.31,-333.09 995.31,-333.09"/>
</g>
<!-- 14 -->
<g id="node15" class="node">
<title>14</title>
<ellipse fill="#9aff9a" stroke="black" cx="991.81" cy="-206.35" rx="130.63" ry="26.74"/>
<text text-anchor="middle" x="991.81" y="-210.15" font-family="Times,serif" font-size="14.00">eauto.</text>
<text text-anchor="middle" x="991.81" y="-195.15" font-family="Times,serif" font-size="14.00">(0.9607504380472133)</text>
</g>
<!-- 13&#45;&gt;14 -->
<g id="edge14" class="edge">
<title>13&#45;&gt;14</title>
<path fill="none" stroke="black" d="M991.81,-268.77C991.81,-260.8 991.81,-251.91 991.81,-243.42"/>
<polygon fill="black" stroke="black" points="995.31,-243.35 991.81,-233.35 988.31,-243.35 995.31,-243.35"/>
</g>
<!-- 15 -->
<g id="node16" class="node">
<title>15</title>
<ellipse fill="#9aff9a" stroke="black" cx="991.81" cy="-116.61" rx="124.4" ry="26.74"/>
<text text-anchor="middle" x="991.81" y="-120.41" font-family="Times,serif" font-size="14.00">eauto.</text>
<text text-anchor="middle" x="991.81" y="-105.41" font-family="Times,serif" font-size="14.00">(0.876363090964078)</text>
</g>
<!-- 14&#45;&gt;15 -->
<g id="edge15" class="edge">
<title>14&#45;&gt;15</title>
<path fill="none" stroke="black" d="M991.81,-179.03C991.81,-171.06 991.81,-162.17 991.81,-153.68"/>
<polygon fill="black" stroke="black" points="995.31,-153.61 991.81,-143.61 988.31,-153.61 995.31,-153.61"/>
</g>
<!-- 16 -->
<g id="node17" class="node">
<title>16</title>
<ellipse fill="green" stroke="black" cx="991.81" cy="-26.87" rx="35.21" ry="26.74"/>
<text text-anchor="middle" x="991.81" y="-30.67" font-family="Times,serif" font-size="14.00">QED</text>
<text text-anchor="middle" x="991.81" y="-15.67" font-family="Times,serif" font-size="14.00">(1.0)</text>
</g>
<!-- 15&#45;&gt;16 -->
<g id="edge16" class="edge">
<title>15&#45;&gt;16</title>
<path fill="none" stroke="black" d="M991.81,-89.29C991.81,-81.32 991.81,-72.43 991.81,-63.94"/>
<polygon fill="green" stroke="black" points="995.31,-63.87 991.81,-53.87 988.31,-63.87 995.31,-63.87"/>
</g>
</g>
</svg>
