<?xml version="1.0" encoding="UTF-8" standalone="no"?>
<!DOCTYPE svg PUBLIC "-//W3C//DTD SVG 1.1//EN"
 "http://www.w3.org/Graphics/SVG/1.1/DTD/svg11.dtd">
<!-- Generated by graphviz version 2.43.0 (0)
 -->
<!-- Pages: 1 -->
<svg width="574pt" height="241pt"
 viewBox="0.00 0.00 574.36 241.22" xmlns="http://www.w3.org/2000/svg" xmlns:xlink="http://www.w3.org/1999/xlink">
<g id="graph0" class="graph" transform="scale(1 1) rotate(0) translate(4 237.22)">
<polygon fill="white" stroke="transparent" points="-4,4 -4,-237.22 570.36,-237.22 570.36,4 -4,4"/>
<!-- 0 -->
<g id="node1" class="node">
<title>0</title>
<ellipse fill="none" stroke="black" cx="276.81" cy="-206.35" rx="50.41" ry="26.74"/>
<text text-anchor="middle" x="276.81" y="-210.15" font-family="Times,serif" font-size="14.00">gcd_ind</text>
<text text-anchor="middle" x="276.81" y="-195.15" font-family="Times,serif" font-size="14.00">(1.0)</text>
</g>
<!-- 1 -->
<g id="node2" class="node">
<title>1</title>
<ellipse fill="none" stroke="black" cx="276.81" cy="-116.61" rx="130.63" ry="26.74"/>
<text text-anchor="middle" x="276.81" y="-120.41" font-family="Times,serif" font-size="14.00">intros.</text>
<text text-anchor="middle" x="276.81" y="-105.41" font-family="Times,serif" font-size="14.00">(0.9986416695944639)</text>
</g>
<!-- 0&#45;&gt;1 -->
<g id="edge1" class="edge">
<title>0&#45;&gt;1</title>
<path fill="none" stroke="black" d="M276.81,-179.03C276.81,-171.06 276.81,-162.17 276.81,-153.68"/>
<polygon fill="black" stroke="black" points="280.31,-153.61 276.81,-143.61 273.31,-153.61 280.31,-153.61"/>
</g>
<!-- 2 -->
<g id="node3" class="node">
<title>2</title>
<ellipse fill="orange" stroke="black" cx="130.81" cy="-26.87" rx="130.63" ry="26.74"/>
<text text-anchor="middle" x="130.81" y="-30.67" font-family="Times,serif" font-size="14.00">eauto.</text>
<text text-anchor="middle" x="130.81" y="-15.67" font-family="Times,serif" font-size="14.00">(0.5875171386935293)</text>
</g>
<!-- 1&#45;&gt;2 -->
<g id="edge2" class="edge">
<title>1&#45;&gt;2</title>
<path fill="none" stroke="black" d="M235.76,-90.94C218.58,-80.61 198.46,-68.52 180.46,-57.71"/>
<polygon fill="black" stroke="black" points="182.19,-54.66 171.82,-52.51 178.59,-60.66 182.19,-54.66"/>
</g>
<!-- 3 -->
<g id="node4" class="node">
<title>3</title>
<ellipse fill="orange" stroke="black" cx="422.81" cy="-26.87" rx="143.59" ry="26.74"/>
<text text-anchor="middle" x="422.81" y="-30.67" font-family="Times,serif" font-size="14.00">subst.</text>
<text text-anchor="middle" x="422.81" y="-15.67" font-family="Times,serif" font-size="14.00">(0.005839699476361877)</text>
</g>
<!-- 1&#45;&gt;3 -->
<g id="edge3" class="edge">
<title>1&#45;&gt;3</title>
<path fill="none" stroke="black" d="M317.87,-90.94C334.98,-80.66 355,-68.62 372.94,-57.84"/>
<polygon fill="black" stroke="black" points="374.79,-60.81 381.56,-52.66 371.19,-54.81 374.79,-60.81"/>
</g>
</g>
</svg>
