<?xml version="1.0" encoding="UTF-8" standalone="no"?>
<!DOCTYPE svg PUBLIC "-//W3C//DTD SVG 1.1//EN"
 "http://www.w3.org/Graphics/SVG/1.1/DTD/svg11.dtd">
<!-- Generated by graphviz version 2.43.0 (0)
 -->
<!-- Pages: 1 -->
<svg width="2238pt" height="510pt"
 viewBox="0.00 0.00 2238.36 510.44" xmlns="http://www.w3.org/2000/svg" xmlns:xlink="http://www.w3.org/1999/xlink">
<g id="graph0" class="graph" transform="scale(1 1) rotate(0) translate(4 506.44)">
<polygon fill="white" stroke="transparent" points="-4,4 -4,-506.44 2234.36,-506.44 2234.36,4 -4,4"/>
<!-- 0 -->
<g id="node1" class="node">
<title>0</title>
<ellipse fill="none" stroke="black" cx="1297.18" cy="-475.57" rx="57.97" ry="26.74"/>
<text text-anchor="middle" x="1297.18" y="-479.37" font-family="Times,serif" font-size="14.00">plus_eqO</text>
<text text-anchor="middle" x="1297.18" y="-464.37" font-family="Times,serif" font-size="14.00">(1.0)</text>
</g>
<!-- 1 -->
<g id="node2" class="node">
<title>1</title>
<ellipse fill="#9aff9a" stroke="black" cx="1297.18" cy="-385.83" rx="130.63" ry="26.74"/>
<text text-anchor="middle" x="1297.18" y="-389.63" font-family="Times,serif" font-size="14.00">intros.</text>
<text text-anchor="middle" x="1297.18" y="-374.63" font-family="Times,serif" font-size="14.00">(0.9025808404564039)</text>
</g>
<!-- 0&#45;&gt;1 -->
<g id="edge1" class="edge">
<title>0&#45;&gt;1</title>
<path fill="none" stroke="black" d="M1297.18,-448.25C1297.18,-440.28 1297.18,-431.39 1297.18,-422.9"/>
<polygon fill="black" stroke="black" points="1300.68,-422.83 1297.18,-412.83 1293.68,-422.83 1300.68,-422.83"/>
</g>
<!-- 2 -->
<g id="node3" class="node">
<title>2</title>
<ellipse fill="none" stroke="black" cx="864.18" cy="-296.09" rx="130.63" ry="26.74"/>
<text text-anchor="middle" x="864.18" y="-299.89" font-family="Times,serif" font-size="14.00">rewrite &lt;&#45; H.</text>
<text text-anchor="middle" x="864.18" y="-284.89" font-family="Times,serif" font-size="14.00">(0.6566362343647699)</text>
</g>
<!-- 1&#45;&gt;2 -->
<g id="edge2" class="edge">
<title>1&#45;&gt;2</title>
<path fill="none" stroke="black" d="M1206.41,-366.44C1135.95,-352.16 1038.29,-332.37 965.33,-317.59"/>
<polygon fill="black" stroke="black" points="965.7,-314.09 955.2,-315.53 964.31,-320.95 965.7,-314.09"/>
</g>
<!-- 13 -->
<g id="node4" class="node">
<title>13</title>
<ellipse fill="orange" stroke="black" cx="1297.18" cy="-296.09" rx="137.36" ry="26.74"/>
<text text-anchor="middle" x="1297.18" y="-299.89" font-family="Times,serif" font-size="14.00">eauto.</text>
<text text-anchor="middle" x="1297.18" y="-284.89" font-family="Times,serif" font-size="14.00">(0.05496395087142003)</text>
</g>
<!-- 1&#45;&gt;13 -->
<g id="edge3" class="edge">
<title>1&#45;&gt;13</title>
<path fill="none" stroke="black" d="M1297.18,-358.51C1297.18,-350.54 1297.18,-341.65 1297.18,-333.16"/>
<polygon fill="black" stroke="black" points="1300.68,-333.09 1297.18,-323.09 1293.68,-333.09 1300.68,-333.09"/>
</g>
<!-- 14 -->
<g id="node5" class="node">
<title>14</title>
<ellipse fill="#9aff9a" stroke="black" cx="1657.18" cy="-296.09" rx="130.63" ry="26.74"/>
<text text-anchor="middle" x="1657.18" y="-299.89" font-family="Times,serif" font-size="14.00">destruct x.</text>
<text text-anchor="middle" x="1657.18" y="-284.89" font-family="Times,serif" font-size="14.00">(0.0543998889986465)</text>
</g>
<!-- 1&#45;&gt;14 -->
<g id="edge4" class="edge">
<title>1&#45;&gt;14</title>
<path fill="none" stroke="black" d="M1379.32,-364.81C1434.74,-351.3 1507.94,-333.46 1565.29,-319.49"/>
<polygon fill="black" stroke="black" points="1566.19,-322.87 1575.08,-317.1 1564.54,-316.07 1566.19,-322.87"/>
</g>
<!-- 3 -->
<g id="node6" class="node">
<title>3</title>
<ellipse fill="orange" stroke="black" cx="137.18" cy="-206.35" rx="137.36" ry="26.74"/>
<text text-anchor="middle" x="137.18" y="-210.15" font-family="Times,serif" font-size="14.00">eauto.</text>
<text text-anchor="middle" x="137.18" y="-195.15" font-family="Times,serif" font-size="14.00">(0.21223480205062414)</text>
</g>
<!-- 2&#45;&gt;3 -->
<g id="edge5" class="edge">
<title>2&#45;&gt;3</title>
<path fill="none" stroke="black" d="M745.1,-284.84C627.45,-274.14 442.49,-255.79 283.18,-233.22 270.48,-231.42 257.2,-229.34 244.05,-227.16"/>
<polygon fill="black" stroke="black" points="244.46,-223.68 234.02,-225.48 243.3,-230.59 244.46,-223.68"/>
</g>
<!-- 4 -->
<g id="node7" class="node">
<title>4</title>
<ellipse fill="none" stroke="black" cx="429.18" cy="-206.35" rx="137.36" ry="26.74"/>
<text text-anchor="middle" x="429.18" y="-210.15" font-family="Times,serif" font-size="14.00">symmetry.</text>
<text text-anchor="middle" x="429.18" y="-195.15" font-family="Times,serif" font-size="14.00">(0.11831156576970202)</text>
</g>
<!-- 2&#45;&gt;4 -->
<g id="edge6" class="edge">
<title>2&#45;&gt;4</title>
<path fill="none" stroke="black" d="M773.25,-276.75C702.96,-262.57 605.62,-242.94 532.4,-228.17"/>
<polygon fill="black" stroke="black" points="532.73,-224.67 522.24,-226.12 531.35,-231.53 532.73,-224.67"/>
</g>
<!-- 9 -->
<g id="node8" class="node">
<title>9</title>
<ellipse fill="orange" stroke="black" cx="721.18" cy="-206.35" rx="137.36" ry="26.74"/>
<text text-anchor="middle" x="721.18" y="-210.15" font-family="Times,serif" font-size="14.00">idtac.</text>
<text text-anchor="middle" x="721.18" y="-195.15" font-family="Times,serif" font-size="14.00">(0.06591728176998096)</text>
</g>
<!-- 2&#45;&gt;9 -->
<g id="edge7" class="edge">
<title>2&#45;&gt;9</title>
<path fill="none" stroke="black" d="M823.96,-270.42C807.36,-260.23 787.96,-248.32 770.51,-237.62"/>
<polygon fill="black" stroke="black" points="771.94,-234.39 761.59,-232.14 768.28,-240.36 771.94,-234.39"/>
</g>
<!-- 10 -->
<g id="node9" class="node">
<title>10</title>
<ellipse fill="orange" stroke="black" cx="1007.18" cy="-206.35" rx="130.63" ry="26.74"/>
<text text-anchor="middle" x="1007.18" y="-210.15" font-family="Times,serif" font-size="14.00">rewrite H.</text>
<text text-anchor="middle" x="1007.18" y="-195.15" font-family="Times,serif" font-size="14.00">(0.0511766354040023)</text>
</g>
<!-- 2&#45;&gt;10 -->
<g id="edge8" class="edge">
<title>2&#45;&gt;10</title>
<path fill="none" stroke="black" d="M904.39,-270.42C920.99,-260.23 940.4,-248.32 957.85,-237.62"/>
<polygon fill="black" stroke="black" points="960.08,-240.36 966.77,-232.14 956.42,-234.39 960.08,-240.36"/>
</g>
<!-- 11 -->
<g id="node10" class="node">
<title>11</title>
<ellipse fill="none" stroke="black" cx="1299.18" cy="-206.35" rx="143.59" ry="26.74"/>
<text text-anchor="middle" x="1299.18" y="-210.15" font-family="Times,serif" font-size="14.00">unfold Init.Nat.add.</text>
<text text-anchor="middle" x="1299.18" y="-195.15" font-family="Times,serif" font-size="14.00">(0.027121317778427998)</text>
</g>
<!-- 2&#45;&gt;11 -->
<g id="edge9" class="edge">
<title>2&#45;&gt;11</title>
<path fill="none" stroke="black" d="M955.1,-276.75C1024.68,-262.72 1120.77,-243.34 1193.72,-228.62"/>
<polygon fill="black" stroke="black" points="1194.74,-231.99 1203.85,-226.58 1193.36,-225.12 1194.74,-231.99"/>
</g>
<!-- 15 -->
<g id="node16" class="node">
<title>15</title>
<ellipse fill="#9aff9a" stroke="black" cx="1731.18" cy="-206.35" rx="130.63" ry="26.74"/>
<text text-anchor="middle" x="1731.18" y="-210.15" font-family="Times,serif" font-size="14.00">eauto.</text>
<text text-anchor="middle" x="1731.18" y="-195.15" font-family="Times,serif" font-size="14.00">(0.6828485516250936)</text>
</g>
<!-- 14&#45;&gt;15 -->
<g id="edge15" class="edge">
<title>14&#45;&gt;15</title>
<path fill="none" stroke="black" d="M1678.98,-269.24C1686.51,-260.31 1695.05,-250.19 1703.01,-240.74"/>
<polygon fill="black" stroke="black" points="1705.76,-242.92 1709.53,-233.02 1700.41,-238.4 1705.76,-242.92"/>
</g>
<!-- 5 -->
<g id="node11" class="node">
<title>5</title>
<ellipse fill="orange" stroke="black" cx="137.18" cy="-116.61" rx="130.63" ry="26.74"/>
<text text-anchor="middle" x="137.18" y="-120.41" font-family="Times,serif" font-size="14.00">eauto.</text>
<text text-anchor="middle" x="137.18" y="-105.41" font-family="Times,serif" font-size="14.00">(0.9711779716635346)</text>
</g>
<!-- 4&#45;&gt;5 -->
<g id="edge10" class="edge">
<title>4&#45;&gt;5</title>
<path fill="none" stroke="black" d="M356.25,-183.44C314.4,-170.86 261.75,-155.04 218.56,-142.06"/>
<polygon fill="black" stroke="black" points="219.51,-138.7 208.93,-139.17 217.5,-145.4 219.51,-138.7"/>
</g>
<!-- 6 -->
<g id="node12" class="node">
<title>6</title>
<ellipse fill="orange" stroke="black" cx="429.18" cy="-116.61" rx="143.59" ry="26.74"/>
<text text-anchor="middle" x="429.18" y="-120.41" font-family="Times,serif" font-size="14.00">idtac.</text>
<text text-anchor="middle" x="429.18" y="-105.41" font-family="Times,serif" font-size="14.00">(0.005596357264353995)</text>
</g>
<!-- 4&#45;&gt;6 -->
<g id="edge11" class="edge">
<title>4&#45;&gt;6</title>
<path fill="none" stroke="black" d="M429.18,-179.03C429.18,-171.06 429.18,-162.17 429.18,-153.68"/>
<polygon fill="black" stroke="black" points="432.68,-153.61 429.18,-143.61 425.68,-153.61 432.68,-153.61"/>
</g>
<!-- 7 -->
<g id="node13" class="node">
<title>7</title>
<ellipse fill="none" stroke="black" cx="740.18" cy="-116.61" rx="149.81" ry="26.74"/>
<text text-anchor="middle" x="740.18" y="-120.41" font-family="Times,serif" font-size="14.00">unfold Init.Nat.add.</text>
<text text-anchor="middle" x="740.18" y="-105.41" font-family="Times,serif" font-size="14.00">(0.0009606803524866074)</text>
</g>
<!-- 4&#45;&gt;7 -->
<g id="edge12" class="edge">
<title>4&#45;&gt;7</title>
<path fill="none" stroke="black" d="M505.26,-183.89C549.75,-171.34 606.09,-155.44 652.45,-142.36"/>
<polygon fill="black" stroke="black" points="653.51,-145.7 662.18,-139.61 651.61,-138.96 653.51,-145.7"/>
</g>
<!-- 12 -->
<g id="node15" class="node">
<title>12</title>
<ellipse fill="orange" stroke="black" cx="1229.18" cy="-116.61" rx="137.36" ry="26.74"/>
<text text-anchor="middle" x="1229.18" y="-120.41" font-family="Times,serif" font-size="14.00">simpl.</text>
<text text-anchor="middle" x="1229.18" y="-105.41" font-family="Times,serif" font-size="14.00">(0.08431813103937057)</text>
</g>
<!-- 11&#45;&gt;12 -->
<g id="edge14" class="edge">
<title>11&#45;&gt;12</title>
<path fill="none" stroke="black" d="M1278.56,-179.5C1271.51,-170.66 1263.51,-160.65 1256.05,-151.29"/>
<polygon fill="black" stroke="black" points="1258.63,-148.91 1249.66,-143.28 1253.16,-153.28 1258.63,-148.91"/>
</g>
<!-- 8 -->
<g id="node14" class="node">
<title>8</title>
<ellipse fill="orange" stroke="black" cx="740.18" cy="-26.87" rx="137.36" ry="26.74"/>
<text text-anchor="middle" x="740.18" y="-30.67" font-family="Times,serif" font-size="14.00">simpl.</text>
<text text-anchor="middle" x="740.18" y="-15.67" font-family="Times,serif" font-size="14.00">(0.06634892750794716)</text>
</g>
<!-- 7&#45;&gt;8 -->
<g id="edge13" class="edge">
<title>7&#45;&gt;8</title>
<path fill="none" stroke="black" d="M740.18,-89.29C740.18,-81.32 740.18,-72.43 740.18,-63.94"/>
<polygon fill="black" stroke="black" points="743.68,-63.87 740.18,-53.87 736.68,-63.87 743.68,-63.87"/>
</g>
<!-- 16 -->
<g id="node17" class="node">
<title>16</title>
<ellipse fill="orange" stroke="black" cx="1515.18" cy="-116.61" rx="130.63" ry="26.74"/>
<text text-anchor="middle" x="1515.18" y="-120.41" font-family="Times,serif" font-size="14.00">eauto.</text>
<text text-anchor="middle" x="1515.18" y="-105.41" font-family="Times,serif" font-size="14.00">(0.2444403633106429)</text>
</g>
<!-- 15&#45;&gt;16 -->
<g id="edge16" class="edge">
<title>15&#45;&gt;16</title>
<path fill="none" stroke="black" d="M1673.86,-182.07C1645.55,-170.57 1611.24,-156.63 1581.77,-144.66"/>
<polygon fill="black" stroke="black" points="1582.97,-141.37 1572.39,-140.85 1580.34,-147.86 1582.97,-141.37"/>
</g>
<!-- 17 -->
<g id="node18" class="node">
<title>17</title>
<ellipse fill="orange" stroke="black" cx="1801.18" cy="-116.61" rx="137.36" ry="26.74"/>
<text text-anchor="middle" x="1801.18" y="-120.41" font-family="Times,serif" font-size="14.00">try reflexivity.</text>
<text text-anchor="middle" x="1801.18" y="-105.41" font-family="Times,serif" font-size="14.00">(0.14245901924972018)</text>
</g>
<!-- 15&#45;&gt;17 -->
<g id="edge17" class="edge">
<title>15&#45;&gt;17</title>
<path fill="none" stroke="black" d="M1751.8,-179.5C1758.85,-170.66 1766.84,-160.65 1774.31,-151.29"/>
<polygon fill="black" stroke="black" points="1777.2,-153.28 1780.7,-143.28 1771.73,-148.91 1777.2,-153.28"/>
</g>
<!-- 18 -->
<g id="node19" class="node">
<title>18</title>
<ellipse fill="#9aff9a" stroke="black" cx="2093.18" cy="-116.61" rx="137.36" ry="26.74"/>
<text text-anchor="middle" x="2093.18" y="-120.41" font-family="Times,serif" font-size="14.00">intuition.</text>
<text text-anchor="middle" x="2093.18" y="-105.41" font-family="Times,serif" font-size="14.00">(0.13472000978125587)</text>
</g>
<!-- 15&#45;&gt;18 -->
<g id="edge18" class="edge">
<title>15&#45;&gt;18</title>
<path fill="none" stroke="black" d="M1813.78,-185.33C1869.11,-171.92 1942.07,-154.24 1999.55,-140.3"/>
<polygon fill="black" stroke="black" points="2000.48,-143.68 2009.37,-137.92 1998.83,-136.88 2000.48,-143.68"/>
</g>
<!-- 19 -->
<g id="node20" class="node">
<title>19</title>
<ellipse fill="green" stroke="black" cx="2093.18" cy="-26.87" rx="35.21" ry="26.74"/>
<text text-anchor="middle" x="2093.18" y="-30.67" font-family="Times,serif" font-size="14.00">QED</text>
<text text-anchor="middle" x="2093.18" y="-15.67" font-family="Times,serif" font-size="14.00">(1.0)</text>
</g>
<!-- 18&#45;&gt;19 -->
<g id="edge19" class="edge">
<title>18&#45;&gt;19</title>
<path fill="none" stroke="black" d="M2093.18,-89.29C2093.18,-81.32 2093.18,-72.43 2093.18,-63.94"/>
<polygon fill="green" stroke="black" points="2096.68,-63.87 2093.18,-53.87 2089.68,-63.87 2096.68,-63.87"/>
</g>
</g>
</svg>
