<?xml version="1.0" encoding="UTF-8" standalone="no"?>
<!DOCTYPE svg PUBLIC "-//W3C//DTD SVG 1.1//EN"
 "http://www.w3.org/Graphics/SVG/1.1/DTD/svg11.dtd">
<!-- Generated by graphviz version 2.43.0 (0)
 -->
<!-- Pages: 1 -->
<svg width="3270pt" height="600pt"
 viewBox="0.00 0.00 3270.36 600.18" xmlns="http://www.w3.org/2000/svg" xmlns:xlink="http://www.w3.org/1999/xlink">
<g id="graph0" class="graph" transform="scale(1 1) rotate(0) translate(4 596.18)">
<polygon fill="white" stroke="transparent" points="-4,4 -4,-596.18 3266.36,-596.18 3266.36,4 -4,4"/>
<!-- 0 -->
<g id="node1" class="node">
<title>0</title>
<ellipse fill="none" stroke="black" cx="997.18" cy="-565.31" rx="62.87" ry="26.74"/>
<text text-anchor="middle" x="997.18" y="-569.11" font-family="Times,serif" font-size="14.00">SO_power</text>
<text text-anchor="middle" x="997.18" y="-554.11" font-family="Times,serif" font-size="14.00">(1.0)</text>
</g>
<!-- 1 -->
<g id="node2" class="node">
<title>1</title>
<ellipse fill="#9aff9a" stroke="black" cx="997.18" cy="-475.57" rx="130.63" ry="26.74"/>
<text text-anchor="middle" x="997.18" y="-479.37" font-family="Times,serif" font-size="14.00">intros.</text>
<text text-anchor="middle" x="997.18" y="-464.37" font-family="Times,serif" font-size="14.00">(0.8885179369546137)</text>
</g>
<!-- 0&#45;&gt;1 -->
<g id="edge1" class="edge">
<title>0&#45;&gt;1</title>
<path fill="none" stroke="black" d="M997.18,-537.99C997.18,-530.02 997.18,-521.13 997.18,-512.64"/>
<polygon fill="black" stroke="black" points="1000.68,-512.57 997.18,-502.57 993.68,-512.57 1000.68,-512.57"/>
</g>
<!-- 2 -->
<g id="node3" class="node">
<title>2</title>
<ellipse fill="none" stroke="black" cx="861.18" cy="-385.83" rx="124.4" ry="26.74"/>
<text text-anchor="middle" x="861.18" y="-389.63" font-family="Times,serif" font-size="14.00">unfold power.</text>
<text text-anchor="middle" x="861.18" y="-374.63" font-family="Times,serif" font-size="14.00">(0.302911498881335)</text>
</g>
<!-- 1&#45;&gt;2 -->
<g id="edge2" class="edge">
<title>1&#45;&gt;2</title>
<path fill="none" stroke="black" d="M958.57,-449.66C942.79,-439.48 924.39,-427.61 907.86,-416.95"/>
<polygon fill="black" stroke="black" points="909.71,-413.98 899.41,-411.5 905.92,-419.86 909.71,-413.98"/>
</g>
<!-- 27 -->
<g id="node4" class="node">
<title>27</title>
<ellipse fill="#9aff9a" stroke="black" cx="1624.18" cy="-385.83" rx="130.63" ry="26.74"/>
<text text-anchor="middle" x="1624.18" y="-389.63" font-family="Times,serif" font-size="14.00">apply power_SO.</text>
<text text-anchor="middle" x="1624.18" y="-374.63" font-family="Times,serif" font-size="14.00">(0.0775459013502099)</text>
</g>
<!-- 1&#45;&gt;27 -->
<g id="edge3" class="edge">
<title>1&#45;&gt;27</title>
<path fill="none" stroke="black" d="M1103.19,-459.74C1215.5,-444.02 1392.29,-419.28 1508.24,-403.05"/>
<polygon fill="black" stroke="black" points="1508.8,-406.51 1518.22,-401.66 1507.83,-399.58 1508.8,-406.51"/>
</g>
<!-- 3 -->
<g id="node5" class="node">
<title>3</title>
<ellipse fill="orange" stroke="black" cx="137.18" cy="-296.09" rx="130.63" ry="26.74"/>
<text text-anchor="middle" x="137.18" y="-299.89" font-family="Times,serif" font-size="14.00">simpl.</text>
<text text-anchor="middle" x="137.18" y="-284.89" font-family="Times,serif" font-size="14.00">(0.5937729364419869)</text>
</g>
<!-- 2&#45;&gt;3 -->
<g id="edge4" class="edge">
<title>2&#45;&gt;3</title>
<path fill="none" stroke="black" d="M746.44,-375.31C628.44,-364.9 439.5,-346.52 277.18,-322.96 265.02,-321.2 252.3,-319.14 239.7,-316.97"/>
<polygon fill="black" stroke="black" points="240.09,-313.49 229.64,-315.22 238.89,-320.39 240.09,-313.49"/>
</g>
<!-- 4 -->
<g id="node6" class="node">
<title>4</title>
<ellipse fill="orange" stroke="black" cx="417.18" cy="-296.09" rx="130.63" ry="26.74"/>
<text text-anchor="middle" x="417.18" y="-299.89" font-family="Times,serif" font-size="14.00">unfold power.</text>
<text text-anchor="middle" x="417.18" y="-284.89" font-family="Times,serif" font-size="14.00">(0.0210751255556045)</text>
</g>
<!-- 2&#45;&gt;4 -->
<g id="edge5" class="edge">
<title>2&#45;&gt;4</title>
<path fill="none" stroke="black" d="M771.6,-367.13C698.62,-352.71 595.57,-332.34 519.39,-317.29"/>
<polygon fill="black" stroke="black" points="519.78,-313.8 509.3,-315.29 518.43,-320.67 519.78,-313.8"/>
</g>
<!-- 5 -->
<g id="node7" class="node">
<title>5</title>
<ellipse fill="orange" stroke="black" cx="709.18" cy="-296.09" rx="143.59" ry="26.74"/>
<text text-anchor="middle" x="709.18" y="-299.89" font-family="Times,serif" font-size="14.00">eauto.</text>
<text text-anchor="middle" x="709.18" y="-284.89" font-family="Times,serif" font-size="14.00">(0.012028884395187144)</text>
</g>
<!-- 2&#45;&gt;5 -->
<g id="edge6" class="edge">
<title>2&#45;&gt;5</title>
<path fill="none" stroke="black" d="M818.84,-360.39C800.87,-350.02 779.75,-337.82 760.86,-326.93"/>
<polygon fill="black" stroke="black" points="762.49,-323.82 752.08,-321.86 758.99,-329.89 762.49,-323.82"/>
</g>
<!-- 6 -->
<g id="node8" class="node">
<title>6</title>
<ellipse fill="none" stroke="black" cx="1014.18" cy="-296.09" rx="143.59" ry="26.74"/>
<text text-anchor="middle" x="1014.18" y="-299.89" font-family="Times,serif" font-size="14.00">case power.</text>
<text text-anchor="middle" x="1014.18" y="-284.89" font-family="Times,serif" font-size="14.00">(0.006165152588092315)</text>
</g>
<!-- 2&#45;&gt;6 -->
<g id="edge7" class="edge">
<title>2&#45;&gt;6</title>
<path fill="none" stroke="black" d="M903.8,-360.39C921.89,-350.02 943.15,-337.82 962.15,-326.93"/>
<polygon fill="black" stroke="black" points="964.06,-329.87 970.99,-321.86 960.58,-323.8 964.06,-329.87"/>
</g>
<!-- 20 -->
<g id="node9" class="node">
<title>20</title>
<ellipse fill="none" stroke="black" cx="2066.18" cy="-296.09" rx="143.59" ry="26.74"/>
<text text-anchor="middle" x="2066.18" y="-299.89" font-family="Times,serif" font-size="14.00">destruct power.</text>
<text text-anchor="middle" x="2066.18" y="-284.89" font-family="Times,serif" font-size="14.00">(0.006075871797370288)</text>
</g>
<!-- 2&#45;&gt;20 -->
<g id="edge8" class="edge">
<title>2&#45;&gt;20</title>
<path fill="none" stroke="black" d="M977.81,-376.34C1199.95,-360.16 1683.01,-324.99 1923.8,-307.46"/>
<polygon fill="black" stroke="black" points="1924.3,-310.93 1934.02,-306.71 1923.79,-303.95 1924.3,-310.93"/>
</g>
<!-- 28 -->
<g id="node29" class="node">
<title>28</title>
<ellipse fill="green" stroke="black" cx="2263.18" cy="-296.09" rx="35.21" ry="26.74"/>
<text text-anchor="middle" x="2263.18" y="-299.89" font-family="Times,serif" font-size="14.00">QED</text>
<text text-anchor="middle" x="2263.18" y="-284.89" font-family="Times,serif" font-size="14.00">(1.0)</text>
</g>
<!-- 27&#45;&gt;28 -->
<g id="edge28" class="edge">
<title>27&#45;&gt;28</title>
<path fill="none" stroke="black" d="M1749.51,-378.07C1897.68,-368.98 2134.82,-350.69 2219.18,-322.96 2222.29,-321.94 2225.43,-320.67 2228.51,-319.25"/>
<polygon fill="green" stroke="black" points="2230.23,-322.3 2237.53,-314.62 2227.03,-316.07 2230.23,-322.3"/>
</g>
<!-- 7 -->
<g id="node10" class="node">
<title>7</title>
<ellipse fill="orange" stroke="black" cx="137.18" cy="-206.35" rx="137.36" ry="26.74"/>
<text text-anchor="middle" x="137.18" y="-210.15" font-family="Times,serif" font-size="14.00">eauto.</text>
<text text-anchor="middle" x="137.18" y="-195.15" font-family="Times,serif" font-size="14.00">(0.32488383046123925)</text>
</g>
<!-- 6&#45;&gt;7 -->
<g id="edge9" class="edge">
<title>6&#45;&gt;7</title>
<path fill="none" stroke="black" d="M915.06,-276.66C897.49,-273.84 879.33,-271.21 862.18,-269.22 606.06,-239.55 539.19,-263.76 283.18,-233.22 269.91,-231.64 256.02,-229.63 242.31,-227.44"/>
<polygon fill="black" stroke="black" points="242.8,-223.98 232.37,-225.82 241.67,-230.89 242.8,-223.98"/>
</g>
<!-- 8 -->
<g id="node11" class="node">
<title>8</title>
<ellipse fill="orange" stroke="black" cx="429.18" cy="-206.35" rx="137.36" ry="26.74"/>
<text text-anchor="middle" x="429.18" y="-210.15" font-family="Times,serif" font-size="14.00">trivial.</text>
<text text-anchor="middle" x="429.18" y="-195.15" font-family="Times,serif" font-size="14.00">(0.22347834891317894)</text>
</g>
<!-- 6&#45;&gt;8 -->
<g id="edge10" class="edge">
<title>6&#45;&gt;8</title>
<path fill="none" stroke="black" d="M912.07,-277.08C895.42,-274.32 878.33,-271.61 862.18,-269.22 735,-250.43 702.29,-252.44 575.18,-233.22 562.7,-231.33 549.66,-229.22 536.71,-227.04"/>
<polygon fill="black" stroke="black" points="537.29,-223.59 526.84,-225.36 536.11,-230.49 537.29,-223.59"/>
</g>
<!-- 9 -->
<g id="node12" class="node">
<title>9</title>
<ellipse fill="orange" stroke="black" cx="715.18" cy="-206.35" rx="130.63" ry="26.74"/>
<text text-anchor="middle" x="715.18" y="-210.15" font-family="Times,serif" font-size="14.00">simpl.</text>
<text text-anchor="middle" x="715.18" y="-195.15" font-family="Times,serif" font-size="14.00">(0.0457275899737691)</text>
</g>
<!-- 6&#45;&gt;9 -->
<g id="edge11" class="edge">
<title>6&#45;&gt;9</title>
<path fill="none" stroke="black" d="M939.11,-273.06C896.09,-260.44 842.03,-244.57 797.81,-231.6"/>
<polygon fill="black" stroke="black" points="798.53,-228.16 787.95,-228.7 796.56,-234.88 798.53,-228.16"/>
</g>
<!-- 10 -->
<g id="node13" class="node">
<title>10</title>
<ellipse fill="orange" stroke="black" cx="1014.18" cy="-206.35" rx="149.81" ry="26.74"/>
<text text-anchor="middle" x="1014.18" y="-210.15" font-family="Times,serif" font-size="14.00">case O.</text>
<text text-anchor="middle" x="1014.18" y="-195.15" font-family="Times,serif" font-size="14.00">(0.0011334277279853567)</text>
</g>
<!-- 6&#45;&gt;10 -->
<g id="edge12" class="edge">
<title>6&#45;&gt;10</title>
<path fill="none" stroke="black" d="M1014.18,-268.77C1014.18,-260.8 1014.18,-251.91 1014.18,-243.42"/>
<polygon fill="black" stroke="black" points="1017.68,-243.35 1014.18,-233.35 1010.68,-243.35 1017.68,-243.35"/>
</g>
<!-- 11 -->
<g id="node14" class="node">
<title>11</title>
<ellipse fill="none" stroke="black" cx="1332.18" cy="-206.35" rx="149.81" ry="26.74"/>
<text text-anchor="middle" x="1332.18" y="-210.15" font-family="Times,serif" font-size="14.00">case S.</text>
<text text-anchor="middle" x="1332.18" y="-195.15" font-family="Times,serif" font-size="14.00">(0.0009553524998652652)</text>
</g>
<!-- 6&#45;&gt;11 -->
<g id="edge13" class="edge">
<title>6&#45;&gt;11</title>
<path fill="none" stroke="black" d="M1092.38,-273.51C1138.06,-260.91 1195.85,-244.96 1243.26,-231.88"/>
<polygon fill="black" stroke="black" points="1244.19,-235.26 1252.9,-229.22 1242.33,-228.51 1244.19,-235.26"/>
</g>
<!-- 21 -->
<g id="node23" class="node">
<title>21</title>
<ellipse fill="orange" stroke="black" cx="1631.18" cy="-206.35" rx="130.63" ry="26.74"/>
<text text-anchor="middle" x="1631.18" y="-210.15" font-family="Times,serif" font-size="14.00">eauto.</text>
<text text-anchor="middle" x="1631.18" y="-195.15" font-family="Times,serif" font-size="14.00">(0.6159947555192918)</text>
</g>
<!-- 20&#45;&gt;21 -->
<g id="edge22" class="edge">
<title>20&#45;&gt;21</title>
<path fill="none" stroke="black" d="M1970.99,-275.89C1900.3,-261.63 1804.07,-242.22 1732.06,-227.7"/>
<polygon fill="black" stroke="black" points="1732.56,-224.23 1722.07,-225.68 1731.18,-231.09 1732.56,-224.23"/>
</g>
<!-- 22 -->
<g id="node24" class="node">
<title>22</title>
<ellipse fill="orange" stroke="black" cx="1917.18" cy="-206.35" rx="137.36" ry="26.74"/>
<text text-anchor="middle" x="1917.18" y="-210.15" font-family="Times,serif" font-size="14.00">destruct O.</text>
<text text-anchor="middle" x="1917.18" y="-195.15" font-family="Times,serif" font-size="14.00">(0.03154195001967369)</text>
</g>
<!-- 20&#45;&gt;22 -->
<g id="edge23" class="edge">
<title>20&#45;&gt;22</title>
<path fill="none" stroke="black" d="M2023.88,-270.18C2006.43,-259.91 1986.06,-247.91 1967.83,-237.17"/>
<polygon fill="black" stroke="black" points="1969.46,-234.08 1959.07,-232.02 1965.91,-240.11 1969.46,-234.08"/>
</g>
<!-- 23 -->
<g id="node25" class="node">
<title>23</title>
<ellipse fill="orange" stroke="black" cx="2216.18" cy="-206.35" rx="143.59" ry="26.74"/>
<text text-anchor="middle" x="2216.18" y="-210.15" font-family="Times,serif" font-size="14.00">simpl.</text>
<text text-anchor="middle" x="2216.18" y="-195.15" font-family="Times,serif" font-size="14.00">(0.024012698889206336)</text>
</g>
<!-- 20&#45;&gt;23 -->
<g id="edge24" class="edge">
<title>20&#45;&gt;23</title>
<path fill="none" stroke="black" d="M2108.76,-270.18C2126.25,-259.95 2146.66,-248.01 2164.96,-237.31"/>
<polygon fill="black" stroke="black" points="2166.88,-240.24 2173.75,-232.17 2163.35,-234.2 2166.88,-240.24"/>
</g>
<!-- 24 -->
<g id="node26" class="node">
<title>24</title>
<ellipse fill="orange" stroke="black" cx="2521.18" cy="-206.35" rx="143.59" ry="26.74"/>
<text text-anchor="middle" x="2521.18" y="-210.15" font-family="Times,serif" font-size="14.00">subst.</text>
<text text-anchor="middle" x="2521.18" y="-195.15" font-family="Times,serif" font-size="14.00">(0.009358804319217226)</text>
</g>
<!-- 20&#45;&gt;24 -->
<g id="edge25" class="edge">
<title>20&#45;&gt;24</title>
<path fill="none" stroke="black" d="M2163.51,-276.32C2236.96,-262.16 2337.7,-242.73 2413.55,-228.1"/>
<polygon fill="black" stroke="black" points="2414.46,-231.49 2423.61,-226.16 2413.13,-224.62 2414.46,-231.49"/>
</g>
<!-- 25 -->
<g id="node27" class="node">
<title>25</title>
<ellipse fill="orange" stroke="black" cx="2826.18" cy="-206.35" rx="143.59" ry="26.74"/>
<text text-anchor="middle" x="2826.18" y="-210.15" font-family="Times,serif" font-size="14.00">destruct O.</text>
<text text-anchor="middle" x="2826.18" y="-195.15" font-family="Times,serif" font-size="14.00">(0.007849235399338487)</text>
</g>
<!-- 20&#45;&gt;25 -->
<g id="edge26" class="edge">
<title>20&#45;&gt;25</title>
<path fill="none" stroke="black" d="M2166.4,-276.84C2183.95,-274.02 2202.07,-271.34 2219.18,-269.22 2420.49,-244.29 2472.88,-258.26 2674.18,-233.22 2687.75,-231.53 2701.96,-229.49 2716.02,-227.29"/>
<polygon fill="black" stroke="black" points="2716.88,-230.7 2726.21,-225.68 2715.78,-223.79 2716.88,-230.7"/>
</g>
<!-- 26 -->
<g id="node28" class="node">
<title>26</title>
<ellipse fill="orange" stroke="black" cx="3125.18" cy="-206.35" rx="137.36" ry="26.74"/>
<text text-anchor="middle" x="3125.18" y="-210.15" font-family="Times,serif" font-size="14.00">destruct x.</text>
<text text-anchor="middle" x="3125.18" y="-195.15" font-family="Times,serif" font-size="14.00">(0.00575196299352699)</text>
</g>
<!-- 20&#45;&gt;26 -->
<g id="edge27" class="edge">
<title>20&#45;&gt;26</title>
<path fill="none" stroke="black" d="M2165.11,-276.58C2183.05,-273.73 2201.64,-271.11 2219.18,-269.22 2555.39,-232.97 2643.12,-270.8 2979.18,-233.22 2992.66,-231.71 3006.78,-229.73 3020.71,-227.53"/>
<polygon fill="black" stroke="black" points="3021.49,-230.95 3030.8,-225.89 3020.37,-224.04 3021.49,-230.95"/>
</g>
<!-- 12 -->
<g id="node15" class="node">
<title>12</title>
<ellipse fill="none" stroke="black" cx="1186.18" cy="-116.61" rx="130.63" ry="26.74"/>
<text text-anchor="middle" x="1186.18" y="-120.41" font-family="Times,serif" font-size="14.00">intros.</text>
<text text-anchor="middle" x="1186.18" y="-105.41" font-family="Times,serif" font-size="14.00">(0.9465871518908525)</text>
</g>
<!-- 11&#45;&gt;12 -->
<g id="edge14" class="edge">
<title>11&#45;&gt;12</title>
<path fill="none" stroke="black" d="M1290.73,-180.44C1273.63,-170.17 1253.68,-158.17 1235.81,-147.43"/>
<polygon fill="black" stroke="black" points="1237.6,-144.43 1227.22,-142.28 1233.99,-150.43 1237.6,-144.43"/>
</g>
<!-- 19 -->
<g id="node16" class="node">
<title>19</title>
<ellipse fill="orange" stroke="black" cx="1478.18" cy="-116.61" rx="143.59" ry="26.74"/>
<text text-anchor="middle" x="1478.18" y="-120.41" font-family="Times,serif" font-size="14.00">trivial.</text>
<text text-anchor="middle" x="1478.18" y="-105.41" font-family="Times,serif" font-size="14.00">(0.008304090602344624)</text>
</g>
<!-- 11&#45;&gt;19 -->
<g id="edge15" class="edge">
<title>11&#45;&gt;19</title>
<path fill="none" stroke="black" d="M1373.63,-180.44C1390.5,-170.3 1410.15,-158.49 1427.84,-147.86"/>
<polygon fill="black" stroke="black" points="1430.11,-150.58 1436.88,-142.43 1426.51,-144.58 1430.11,-150.58"/>
</g>
<!-- 13 -->
<g id="node17" class="node">
<title>13</title>
<ellipse fill="orange" stroke="black" cx="459.18" cy="-26.87" rx="130.63" ry="26.74"/>
<text text-anchor="middle" x="459.18" y="-30.67" font-family="Times,serif" font-size="14.00">eauto.</text>
<text text-anchor="middle" x="459.18" y="-15.67" font-family="Times,serif" font-size="14.00">(0.6109272601631915)</text>
</g>
<!-- 12&#45;&gt;13 -->
<g id="edge16" class="edge">
<title>12&#45;&gt;13</title>
<path fill="none" stroke="black" d="M1066.39,-105.73C947.52,-95.28 760.3,-77.08 599.18,-53.74 587.02,-51.98 574.3,-49.93 561.7,-47.76"/>
<polygon fill="black" stroke="black" points="562.09,-44.28 551.64,-46 560.89,-51.17 562.09,-44.28"/>
</g>
<!-- 14 -->
<g id="node18" class="node">
<title>14</title>
<ellipse fill="orange" stroke="black" cx="745.18" cy="-26.87" rx="137.36" ry="26.74"/>
<text text-anchor="middle" x="745.18" y="-30.67" font-family="Times,serif" font-size="14.00">try discriminate.</text>
<text text-anchor="middle" x="745.18" y="-15.67" font-family="Times,serif" font-size="14.00">(0.17591114322905926)</text>
</g>
<!-- 12&#45;&gt;14 -->
<g id="edge17" class="edge">
<title>12&#45;&gt;14</title>
<path fill="none" stroke="black" d="M1094.54,-97.38C1022.93,-83.13 923.38,-63.33 848.87,-48.5"/>
<polygon fill="black" stroke="black" points="849.47,-45.05 838.98,-46.53 848.11,-51.92 849.47,-45.05"/>
</g>
<!-- 15 -->
<g id="node19" class="node">
<title>15</title>
<ellipse fill="orange" stroke="black" cx="1037.18" cy="-26.87" rx="137.36" ry="26.74"/>
<text text-anchor="middle" x="1037.18" y="-30.67" font-family="Times,serif" font-size="14.00">destruct n.</text>
<text text-anchor="middle" x="1037.18" y="-15.67" font-family="Times,serif" font-size="14.00">(0.06945316938692851)</text>
</g>
<!-- 12&#45;&gt;15 -->
<g id="edge18" class="edge">
<title>12&#45;&gt;15</title>
<path fill="none" stroke="black" d="M1144.28,-90.94C1126.75,-80.61 1106.22,-68.52 1087.85,-57.71"/>
<polygon fill="black" stroke="black" points="1089.42,-54.57 1079.02,-52.51 1085.86,-60.6 1089.42,-54.57"/>
</g>
<!-- 16 -->
<g id="node20" class="node">
<title>16</title>
<ellipse fill="orange" stroke="black" cx="1336.18" cy="-26.87" rx="143.59" ry="26.74"/>
<text text-anchor="middle" x="1336.18" y="-30.67" font-family="Times,serif" font-size="14.00">destruct x.</text>
<text text-anchor="middle" x="1336.18" y="-15.67" font-family="Times,serif" font-size="14.00">(0.024983130724456182)</text>
</g>
<!-- 12&#45;&gt;16 -->
<g id="edge19" class="edge">
<title>12&#45;&gt;16</title>
<path fill="none" stroke="black" d="M1228.36,-90.94C1245.94,-80.66 1266.5,-68.62 1284.94,-57.84"/>
<polygon fill="black" stroke="black" points="1286.93,-60.73 1293.79,-52.66 1283.39,-54.69 1286.93,-60.73"/>
</g>
<!-- 17 -->
<g id="node21" class="node">
<title>17</title>
<ellipse fill="orange" stroke="black" cx="1635.18" cy="-26.87" rx="137.36" ry="26.74"/>
<text text-anchor="middle" x="1635.18" y="-30.67" font-family="Times,serif" font-size="14.00">destruct O.</text>
<text text-anchor="middle" x="1635.18" y="-15.67" font-family="Times,serif" font-size="14.00">(0.02433974670505255)</text>
</g>
<!-- 12&#45;&gt;17 -->
<g id="edge20" class="edge">
<title>12&#45;&gt;17</title>
<path fill="none" stroke="black" d="M1278.67,-97.54C1351.88,-83.23 1454.15,-63.25 1530.38,-48.35"/>
<polygon fill="black" stroke="black" points="1531.35,-51.73 1540.49,-46.37 1530.01,-44.86 1531.35,-51.73"/>
</g>
<!-- 18 -->
<g id="node22" class="node">
<title>18</title>
<ellipse fill="orange" stroke="black" cx="1934.18" cy="-26.87" rx="143.59" ry="26.74"/>
<text text-anchor="middle" x="1934.18" y="-30.67" font-family="Times,serif" font-size="14.00">simpl.</text>
<text text-anchor="middle" x="1934.18" y="-15.67" font-family="Times,serif" font-size="14.00">(0.005233317579589339)</text>
</g>
<!-- 12&#45;&gt;18 -->
<g id="edge21" class="edge">
<title>12&#45;&gt;18</title>
<path fill="none" stroke="black" d="M1277.18,-97.26C1293.13,-94.44 1309.6,-91.8 1325.18,-89.74 1526.72,-63.1 1579.42,-78.71 1781.18,-53.74 1795.08,-52.02 1809.65,-49.93 1824.04,-47.69"/>
<polygon fill="black" stroke="black" points="1824.63,-51.14 1833.96,-46.12 1823.54,-44.23 1824.63,-51.14"/>
</g>
</g>
</svg>
