<?xml version="1.0" encoding="UTF-8" standalone="no"?>
<!DOCTYPE svg PUBLIC "-//W3C//DTD SVG 1.1//EN"
 "http://www.w3.org/Graphics/SVG/1.1/DTD/svg11.dtd">
<!-- Generated by graphviz version 2.43.0 (0)
 -->
<!-- Pages: 1 -->
<svg width="9635pt" height="690pt"
 viewBox="0.00 0.00 9635.09 689.92" xmlns="http://www.w3.org/2000/svg" xmlns:xlink="http://www.w3.org/1999/xlink">
<g id="graph0" class="graph" transform="scale(1 1) rotate(0) translate(4 685.92)">
<polygon fill="white" stroke="transparent" points="-4,4 -4,-685.92 9631.09,-685.92 9631.09,4 -4,4"/>
<!-- 0 -->
<g id="node1" class="node">
<title>0</title>
<ellipse fill="none" stroke="black" cx="6426.81" cy="-655.05" rx="55.72" ry="26.74"/>
<text text-anchor="middle" x="6426.81" y="-658.85" font-family="Times,serif" font-size="14.00">power_O</text>
<text text-anchor="middle" x="6426.81" y="-643.85" font-family="Times,serif" font-size="14.00">(1.0)</text>
</g>
<!-- 1 -->
<g id="node2" class="node">
<title>1</title>
<ellipse fill="#9aff9a" stroke="black" cx="6426.81" cy="-565.31" rx="130.63" ry="26.74"/>
<text text-anchor="middle" x="6426.81" y="-569.11" font-family="Times,serif" font-size="14.00">intros.</text>
<text text-anchor="middle" x="6426.81" y="-554.11" font-family="Times,serif" font-size="14.00">(0.9083913439270734)</text>
</g>
<!-- 0&#45;&gt;1 -->
<g id="edge1" class="edge">
<title>0&#45;&gt;1</title>
<path fill="none" stroke="black" d="M6426.81,-627.73C6426.81,-619.76 6426.81,-610.87 6426.81,-602.38"/>
<polygon fill="black" stroke="black" points="6430.31,-602.31 6426.81,-592.31 6423.31,-602.31 6430.31,-602.31"/>
</g>
<!-- 2 -->
<g id="node3" class="node">
<title>2</title>
<ellipse fill="none" stroke="black" cx="5903.81" cy="-475.57" rx="130.63" ry="26.74"/>
<text text-anchor="middle" x="5903.81" y="-479.37" font-family="Times,serif" font-size="14.00">unfold power.</text>
<text text-anchor="middle" x="5903.81" y="-464.37" font-family="Times,serif" font-size="14.00">(0.2385372197331085)</text>
</g>
<!-- 1&#45;&gt;2 -->
<g id="edge2" class="edge">
<title>1&#45;&gt;2</title>
<path fill="none" stroke="black" d="M6327.83,-547.7C6237.97,-532.63 6105.69,-510.44 6012.83,-494.86"/>
<polygon fill="black" stroke="black" points="6013.28,-491.39 6002.84,-493.18 6012.12,-498.29 6013.28,-491.39"/>
</g>
<!-- 54 -->
<g id="node4" class="node">
<title>54</title>
<ellipse fill="orange" stroke="black" cx="6426.81" cy="-475.57" rx="130.63" ry="26.74"/>
<text text-anchor="middle" x="6426.81" y="-479.37" font-family="Times,serif" font-size="14.00">eauto.</text>
<text text-anchor="middle" x="6426.81" y="-464.37" font-family="Times,serif" font-size="14.00">(0.1265890913849648)</text>
</g>
<!-- 1&#45;&gt;54 -->
<g id="edge3" class="edge">
<title>1&#45;&gt;54</title>
<path fill="none" stroke="black" d="M6426.81,-537.99C6426.81,-530.02 6426.81,-521.13 6426.81,-512.64"/>
<polygon fill="black" stroke="black" points="6430.31,-512.57 6426.81,-502.57 6423.31,-512.57 6430.31,-512.57"/>
</g>
<!-- 55 -->
<g id="node5" class="node">
<title>55</title>
<ellipse fill="#9aff9a" stroke="black" cx="7107.81" cy="-475.57" rx="143.59" ry="26.74"/>
<text text-anchor="middle" x="7107.81" y="-479.37" font-family="Times,serif" font-size="14.00">destruct n.</text>
<text text-anchor="middle" x="7107.81" y="-464.37" font-family="Times,serif" font-size="14.00">(0.029157322412153523)</text>
</g>
<!-- 1&#45;&gt;55 -->
<g id="edge4" class="edge">
<title>1&#45;&gt;55</title>
<path fill="none" stroke="black" d="M6535.47,-550.31C6656.95,-534.66 6853.4,-509.35 6981.59,-492.83"/>
<polygon fill="black" stroke="black" points="6982.38,-496.26 6991.85,-491.51 6981.49,-489.32 6982.38,-496.26"/>
</g>
<!-- 3 -->
<g id="node6" class="node">
<title>3</title>
<ellipse fill="orange" stroke="black" cx="5165.81" cy="-385.83" rx="130.63" ry="26.74"/>
<text text-anchor="middle" x="5165.81" y="-389.63" font-family="Times,serif" font-size="14.00">simpl.</text>
<text text-anchor="middle" x="5165.81" y="-374.63" font-family="Times,serif" font-size="14.00">(0.5494781362026271)</text>
</g>
<!-- 2&#45;&gt;3 -->
<g id="edge5" class="edge">
<title>2&#45;&gt;3</title>
<path fill="none" stroke="black" d="M5783.49,-464.96C5662.48,-454.62 5470.72,-436.43 5305.81,-412.7 5293.56,-410.94 5280.73,-408.87 5268.04,-406.69"/>
<polygon fill="black" stroke="black" points="5268.35,-403.19 5257.89,-404.92 5267.14,-410.09 5268.35,-403.19"/>
</g>
<!-- 4 -->
<g id="node7" class="node">
<title>4</title>
<ellipse fill="orange" stroke="black" cx="5451.81" cy="-385.83" rx="137.36" ry="26.74"/>
<text text-anchor="middle" x="5451.81" y="-389.63" font-family="Times,serif" font-size="14.00">eauto.</text>
<text text-anchor="middle" x="5451.81" y="-374.63" font-family="Times,serif" font-size="14.00">(0.02867070509317737)</text>
</g>
<!-- 2&#45;&gt;4 -->
<g id="edge6" class="edge">
<title>2&#45;&gt;4</title>
<path fill="none" stroke="black" d="M5810.98,-456.55C5737.18,-442.22 5633.92,-422.18 5557.05,-407.26"/>
<polygon fill="black" stroke="black" points="5557.34,-403.75 5546.86,-405.28 5556.01,-410.62 5557.34,-403.75"/>
</g>
<!-- 5 -->
<g id="node8" class="node">
<title>5</title>
<ellipse fill="orange" stroke="black" cx="5750.81" cy="-385.83" rx="143.59" ry="26.74"/>
<text text-anchor="middle" x="5750.81" y="-389.63" font-family="Times,serif" font-size="14.00">unfold power.</text>
<text text-anchor="middle" x="5750.81" y="-374.63" font-family="Times,serif" font-size="14.00">(0.021396034969625874)</text>
</g>
<!-- 2&#45;&gt;5 -->
<g id="edge7" class="edge">
<title>2&#45;&gt;5</title>
<path fill="none" stroke="black" d="M5861.2,-450.13C5843.11,-439.76 5821.85,-427.56 5802.84,-416.67"/>
<polygon fill="black" stroke="black" points="5804.42,-413.54 5794,-411.6 5800.94,-419.61 5804.42,-413.54"/>
</g>
<!-- 6 -->
<g id="node9" class="node">
<title>6</title>
<ellipse fill="orange" stroke="black" cx="6055.81" cy="-385.83" rx="143.59" ry="26.74"/>
<text text-anchor="middle" x="6055.81" y="-389.63" font-family="Times,serif" font-size="14.00">f_equal.</text>
<text text-anchor="middle" x="6055.81" y="-374.63" font-family="Times,serif" font-size="14.00">(0.008518923809551899)</text>
</g>
<!-- 2&#45;&gt;6 -->
<g id="edge8" class="edge">
<title>2&#45;&gt;6</title>
<path fill="none" stroke="black" d="M5946.16,-450.13C5964.13,-439.76 5985.25,-427.56 6004.13,-416.67"/>
<polygon fill="black" stroke="black" points="6006,-419.63 6012.91,-411.6 6002.5,-413.56 6006,-419.63"/>
</g>
<!-- 7 -->
<g id="node10" class="node">
<title>7</title>
<ellipse fill="none" stroke="black" cx="6360.81" cy="-385.83" rx="143.59" ry="26.74"/>
<text text-anchor="middle" x="6360.81" y="-389.63" font-family="Times,serif" font-size="14.00">case power.</text>
<text text-anchor="middle" x="6360.81" y="-374.63" font-family="Times,serif" font-size="14.00">(0.006799169028584599)</text>
</g>
<!-- 2&#45;&gt;7 -->
<g id="edge9" class="edge">
<title>2&#45;&gt;7</title>
<path fill="none" stroke="black" d="M5997.12,-456.66C6071.48,-442.38 6175.65,-422.38 6253.46,-407.44"/>
<polygon fill="black" stroke="black" points="6254.14,-410.88 6263.3,-405.55 6252.82,-404 6254.14,-410.88"/>
</g>
<!-- 56 -->
<g id="node57" class="node">
<title>56</title>
<ellipse fill="orange" stroke="black" cx="6688.81" cy="-385.83" rx="124.4" ry="26.74"/>
<text text-anchor="middle" x="6688.81" y="-389.63" font-family="Times,serif" font-size="14.00">eauto.</text>
<text text-anchor="middle" x="6688.81" y="-374.63" font-family="Times,serif" font-size="14.00">(0.751291264857156)</text>
</g>
<!-- 55&#45;&gt;56 -->
<g id="edge56" class="edge">
<title>55&#45;&gt;56</title>
<path fill="none" stroke="black" d="M7014.83,-455.1C6946.81,-440.85 6854.76,-421.58 6785.82,-407.14"/>
<polygon fill="black" stroke="black" points="6786.33,-403.67 6775.82,-405.05 6784.89,-410.53 6786.33,-403.67"/>
</g>
<!-- 57 -->
<g id="node58" class="node">
<title>57</title>
<ellipse fill="orange" stroke="black" cx="6961.81" cy="-385.83" rx="130.63" ry="26.74"/>
<text text-anchor="middle" x="6961.81" y="-389.63" font-family="Times,serif" font-size="14.00">try discriminate.</text>
<text text-anchor="middle" x="6961.81" y="-374.63" font-family="Times,serif" font-size="14.00">(0.0466159358091012)</text>
</g>
<!-- 55&#45;&gt;57 -->
<g id="edge57" class="edge">
<title>55&#45;&gt;57</title>
<path fill="none" stroke="black" d="M7066.37,-449.66C7049.27,-439.39 7029.31,-427.39 7011.44,-416.65"/>
<polygon fill="black" stroke="black" points="7013.23,-413.65 7002.86,-411.5 7009.63,-419.65 7013.23,-413.65"/>
</g>
<!-- 58 -->
<g id="node59" class="node">
<title>58</title>
<ellipse fill="orange" stroke="black" cx="7253.81" cy="-385.83" rx="143.59" ry="26.74"/>
<text text-anchor="middle" x="7253.81" y="-389.63" font-family="Times,serif" font-size="14.00">destruct O.</text>
<text text-anchor="middle" x="7253.81" y="-374.63" font-family="Times,serif" font-size="14.00">(0.009789846217930505)</text>
</g>
<!-- 55&#45;&gt;58 -->
<g id="edge58" class="edge">
<title>55&#45;&gt;58</title>
<path fill="none" stroke="black" d="M7149.26,-449.66C7166.13,-439.52 7185.79,-427.71 7203.47,-417.08"/>
<polygon fill="black" stroke="black" points="7205.75,-419.8 7212.52,-411.65 7202.14,-413.8 7205.75,-419.8"/>
</g>
<!-- 59 -->
<g id="node60" class="node">
<title>59</title>
<ellipse fill="orange" stroke="black" cx="7558.81" cy="-385.83" rx="143.59" ry="26.74"/>
<text text-anchor="middle" x="7558.81" y="-389.63" font-family="Times,serif" font-size="14.00">destruct O.</text>
<text text-anchor="middle" x="7558.81" y="-374.63" font-family="Times,serif" font-size="14.00">(0.009366916423743153)</text>
</g>
<!-- 55&#45;&gt;59 -->
<g id="edge59" class="edge">
<title>55&#45;&gt;59</title>
<path fill="none" stroke="black" d="M7204.84,-455.69C7277.56,-441.55 7377.03,-422.2 7452.01,-407.61"/>
<polygon fill="black" stroke="black" points="7452.81,-411.02 7461.95,-405.67 7451.47,-404.15 7452.81,-411.02"/>
</g>
<!-- 60 -->
<g id="node61" class="node">
<title>60</title>
<ellipse fill="#9aff9a" stroke="black" cx="7884.81" cy="-385.83" rx="143.59" ry="26.74"/>
<text text-anchor="middle" x="7884.81" y="-389.63" font-family="Times,serif" font-size="14.00">simpl.</text>
<text text-anchor="middle" x="7884.81" y="-374.63" font-family="Times,serif" font-size="14.00">(0.005639228128263281)</text>
</g>
<!-- 55&#45;&gt;60 -->
<g id="edge60" class="edge">
<title>55&#45;&gt;60</title>
<path fill="none" stroke="black" d="M7235.56,-463.22C7357.95,-451.93 7547.75,-433.36 7711.81,-412.7 7729.82,-410.43 7748.85,-407.81 7767.44,-405.13"/>
<polygon fill="black" stroke="black" points="7768.02,-408.59 7777.41,-403.68 7767.01,-401.66 7768.02,-408.59"/>
</g>
<!-- 8 -->
<g id="node11" class="node">
<title>8</title>
<ellipse fill="blue" stroke="black" cx="6359.81" cy="-296.09" rx="130.63" ry="26.74"/>
<text text-anchor="middle" x="6359.81" y="-299.89" font-family="Times,serif" font-size="14.00">eauto.</text>
<text text-anchor="middle" x="6359.81" y="-284.89" font-family="Times,serif" font-size="14.00">(0.6039677761750185)</text>
</g>
<!-- 7&#45;&gt;8 -->
<g id="edge10" class="edge">
<title>7&#45;&gt;8</title>
<path fill="none" stroke="black" d="M6360.51,-358.51C6360.42,-350.54 6360.32,-341.65 6360.23,-333.16"/>
<polygon fill="black" stroke="black" points="6363.72,-333.05 6360.11,-323.09 6356.73,-333.13 6363.72,-333.05"/>
</g>
<!-- 9 -->
<g id="node12" class="node">
<title>9</title>
<ellipse fill="none" stroke="black" cx="1669.81" cy="-206.35" rx="130.63" ry="26.74"/>
<text text-anchor="middle" x="1669.81" y="-210.15" font-family="Times,serif" font-size="14.00">intros.</text>
<text text-anchor="middle" x="1669.81" y="-195.15" font-family="Times,serif" font-size="14.00">(0.7686359815222161)</text>
</g>
<!-- 8&#45;&gt;9 -->
<g id="edge11" class="edge">
<title>8&#45;&gt;9</title>
<path fill="none" stroke="black" d="M6229.79,-292.66C5559.93,-280.13 2503,-222.94 1809.86,-209.97"/>
<polygon fill="black" stroke="black" points="1809.89,-206.47 1799.83,-209.78 1809.76,-213.47 1809.89,-206.47"/>
</g>
<!-- 33 -->
<g id="node13" class="node">
<title>33</title>
<ellipse fill="none" stroke="black" cx="6359.81" cy="-206.35" rx="143.59" ry="26.74"/>
<text text-anchor="middle" x="6359.81" y="-210.15" font-family="Times,serif" font-size="14.00">induction n.</text>
<text text-anchor="middle" x="6359.81" y="-195.15" font-family="Times,serif" font-size="14.00">(0.008858490355133461)</text>
</g>
<!-- 8&#45;&gt;33 -->
<g id="edge12" class="edge">
<title>8&#45;&gt;33</title>
<path fill="none" stroke="black" d="M6359.81,-268.77C6359.81,-260.8 6359.81,-251.91 6359.81,-243.42"/>
<polygon fill="black" stroke="black" points="6363.31,-243.35 6359.81,-233.35 6356.31,-243.35 6363.31,-243.35"/>
</g>
<!-- 10 -->
<g id="node14" class="node">
<title>10</title>
<ellipse fill="orange" stroke="black" cx="401.81" cy="-116.61" rx="130.63" ry="26.74"/>
<text text-anchor="middle" x="401.81" y="-120.41" font-family="Times,serif" font-size="14.00">eauto.</text>
<text text-anchor="middle" x="401.81" y="-105.41" font-family="Times,serif" font-size="14.00">(0.7877120573118763)</text>
</g>
<!-- 9&#45;&gt;10 -->
<g id="edge13" class="edge">
<title>9&#45;&gt;10</title>
<path fill="none" stroke="black" d="M1539.38,-203.67C1328.68,-199.73 900.66,-186.64 540.81,-143.48 528.19,-141.97 514.99,-140.01 501.95,-137.84"/>
<polygon fill="black" stroke="black" points="502.47,-134.38 492.03,-136.15 501.3,-141.28 502.47,-134.38"/>
</g>
<!-- 11 -->
<g id="node15" class="node">
<title>11</title>
<ellipse fill="orange" stroke="black" cx="693.81" cy="-116.61" rx="143.59" ry="26.74"/>
<text text-anchor="middle" x="693.81" y="-120.41" font-family="Times,serif" font-size="14.00">try discriminate.</text>
<text text-anchor="middle" x="693.81" y="-105.41" font-family="Times,serif" font-size="14.00">(0.040374425551907886)</text>
</g>
<!-- 9&#45;&gt;11 -->
<g id="edge14" class="edge">
<title>9&#45;&gt;11</title>
<path fill="none" stroke="black" d="M1543.11,-199.53C1381.02,-191.23 1091.8,-173.58 845.81,-143.48 832.24,-141.82 818.03,-139.79 803.97,-137.61"/>
<polygon fill="black" stroke="black" points="804.2,-134.1 793.78,-135.99 803.11,-141.01 804.2,-134.1"/>
</g>
<!-- 12 -->
<g id="node16" class="node">
<title>12</title>
<ellipse fill="orange" stroke="black" cx="998.81" cy="-116.61" rx="143.59" ry="26.74"/>
<text text-anchor="middle" x="998.81" y="-120.41" font-family="Times,serif" font-size="14.00">destruct O.</text>
<text text-anchor="middle" x="998.81" y="-105.41" font-family="Times,serif" font-size="14.00">(0.011699504261372883)</text>
</g>
<!-- 9&#45;&gt;12 -->
<g id="edge15" class="edge">
<title>9&#45;&gt;12</title>
<path fill="none" stroke="black" d="M1555.19,-193.35C1449.88,-181.93 1289.57,-163.55 1150.81,-143.48 1137.7,-141.58 1123.98,-139.45 1110.37,-137.25"/>
<polygon fill="black" stroke="black" points="1110.93,-133.8 1100.5,-135.64 1109.8,-140.71 1110.93,-133.8"/>
</g>
<!-- 13 -->
<g id="node17" class="node">
<title>13</title>
<ellipse fill="none" stroke="black" cx="1303.81" cy="-116.61" rx="143.59" ry="26.74"/>
<text text-anchor="middle" x="1303.81" y="-120.41" font-family="Times,serif" font-size="14.00">destruct n0.</text>
<text text-anchor="middle" x="1303.81" y="-105.41" font-family="Times,serif" font-size="14.00">(0.010982054700802227)</text>
</g>
<!-- 9&#45;&gt;13 -->
<g id="edge16" class="edge">
<title>9&#45;&gt;13</title>
<path fill="none" stroke="black" d="M1586.76,-185.44C1531.14,-172.11 1457.74,-154.51 1399.64,-140.58"/>
<polygon fill="black" stroke="black" points="1400.26,-137.13 1389.72,-138.2 1398.62,-143.94 1400.26,-137.13"/>
</g>
<!-- 18 -->
<g id="node18" class="node">
<title>18</title>
<ellipse fill="none" stroke="black" cx="2036.81" cy="-116.61" rx="143.59" ry="26.74"/>
<text text-anchor="middle" x="2036.81" y="-120.41" font-family="Times,serif" font-size="14.00">destruct n.</text>
<text text-anchor="middle" x="2036.81" y="-105.41" font-family="Times,serif" font-size="14.00">(0.010982054700802227)</text>
</g>
<!-- 9&#45;&gt;18 -->
<g id="edge17" class="edge">
<title>9&#45;&gt;18</title>
<path fill="none" stroke="black" d="M1752.63,-185.55C1808.49,-172.2 1882.38,-154.53 1940.81,-140.56"/>
<polygon fill="black" stroke="black" points="1941.88,-143.91 1950.79,-138.18 1940.25,-137.1 1941.88,-143.91"/>
</g>
<!-- 27 -->
<g id="node19" class="node">
<title>27</title>
<ellipse fill="orange" stroke="black" cx="2347.81" cy="-116.61" rx="149.81" ry="26.74"/>
<text text-anchor="middle" x="2347.81" y="-120.41" font-family="Times,serif" font-size="14.00">simpl.</text>
<text text-anchor="middle" x="2347.81" y="-105.41" font-family="Times,serif" font-size="14.00">(0.0070787574303350165)</text>
</g>
<!-- 9&#45;&gt;27 -->
<g id="edge18" class="edge">
<title>9&#45;&gt;27</title>
<path fill="none" stroke="black" d="M1784.12,-193.21C1889.61,-181.66 2050.51,-163.16 2189.81,-143.48 2203.32,-141.57 2217.46,-139.44 2231.49,-137.25"/>
<polygon fill="black" stroke="black" points="2232.34,-140.66 2241.68,-135.64 2231.25,-133.75 2232.34,-140.66"/>
</g>
<!-- 28 -->
<g id="node20" class="node">
<title>28</title>
<ellipse fill="none" stroke="black" cx="3999.81" cy="-116.61" rx="143.59" ry="26.74"/>
<text text-anchor="middle" x="3999.81" y="-120.41" font-family="Times,serif" font-size="14.00">destruct n0.</text>
<text text-anchor="middle" x="3999.81" y="-105.41" font-family="Times,serif" font-size="14.00">(0.006750366664576457)</text>
</g>
<!-- 9&#45;&gt;28 -->
<g id="edge19" class="edge">
<title>9&#45;&gt;28</title>
<path fill="none" stroke="black" d="M1797.57,-200.54C2197.07,-185.5 3421.5,-139.39 3849.91,-123.26"/>
<polygon fill="black" stroke="black" points="3850.33,-126.74 3860.19,-122.87 3850.06,-119.75 3850.33,-126.74"/>
</g>
<!-- 34 -->
<g id="node37" class="node">
<title>34</title>
<ellipse fill="none" stroke="black" cx="5448.81" cy="-116.61" rx="124.4" ry="26.74"/>
<text text-anchor="middle" x="5448.81" y="-120.41" font-family="Times,serif" font-size="14.00">intros.</text>
<text text-anchor="middle" x="5448.81" y="-105.41" font-family="Times,serif" font-size="14.00">(0.945265989859631)</text>
</g>
<!-- 33&#45;&gt;34 -->
<g id="edge36" class="edge">
<title>33&#45;&gt;34</title>
<path fill="none" stroke="black" d="M6234.1,-193.24C6059.06,-176.38 5743.99,-146.04 5570.9,-129.37"/>
<polygon fill="black" stroke="black" points="5571.02,-125.86 5560.73,-128.39 5570.35,-132.83 5571.02,-125.86"/>
</g>
<!-- 39 -->
<g id="node38" class="node">
<title>39</title>
<ellipse fill="orange" stroke="black" cx="6349.81" cy="-116.61" rx="137.36" ry="26.74"/>
<text text-anchor="middle" x="6349.81" y="-120.41" font-family="Times,serif" font-size="14.00">simpl.</text>
<text text-anchor="middle" x="6349.81" y="-105.41" font-family="Times,serif" font-size="14.00">(0.04840370443464238)</text>
</g>
<!-- 33&#45;&gt;39 -->
<g id="edge37" class="edge">
<title>33&#45;&gt;39</title>
<path fill="none" stroke="black" d="M6356.81,-179.03C6355.91,-171.06 6354.89,-162.17 6353.93,-153.68"/>
<polygon fill="black" stroke="black" points="6357.39,-153.15 6352.78,-143.61 6350.43,-153.95 6357.39,-153.15"/>
</g>
<!-- 40 -->
<g id="node39" class="node">
<title>40</title>
<ellipse fill="none" stroke="black" cx="6654.81" cy="-116.61" rx="149.81" ry="26.74"/>
<text text-anchor="middle" x="6654.81" y="-120.41" font-family="Times,serif" font-size="14.00">destruct n.</text>
<text text-anchor="middle" x="6654.81" y="-105.41" font-family="Times,serif" font-size="14.00">(0.0053740785314735345)</text>
</g>
<!-- 33&#45;&gt;40 -->
<g id="edge38" class="edge">
<title>33&#45;&gt;40</title>
<path fill="none" stroke="black" d="M6433.87,-183.32C6475.29,-171.01 6527.07,-155.6 6570.09,-142.81"/>
<polygon fill="black" stroke="black" points="6571.11,-146.16 6579.7,-139.95 6569.11,-139.45 6571.11,-146.16"/>
</g>
<!-- 47 -->
<g id="node40" class="node">
<title>47</title>
<ellipse fill="none" stroke="black" cx="8514.81" cy="-116.61" rx="139.1" ry="26.74"/>
<text text-anchor="middle" x="8514.81" y="-120.41" font-family="Times,serif" font-size="14.00">destruct n.</text>
<text text-anchor="middle" x="8514.81" y="-105.41" font-family="Times,serif" font-size="14.00">(5.00508740567561e&#45;05)</text>
</g>
<!-- 33&#45;&gt;47 -->
<g id="edge39" class="edge">
<title>33&#45;&gt;47</title>
<path fill="none" stroke="black" d="M6499.14,-199.68C6886.67,-183.9 7974.71,-139.6 8369.44,-123.53"/>
<polygon fill="black" stroke="black" points="8369.64,-127.02 8379.49,-123.12 8369.35,-120.03 8369.64,-127.02"/>
</g>
<!-- 14 -->
<g id="node21" class="node">
<title>14</title>
<ellipse fill="orange" stroke="black" cx="130.81" cy="-26.87" rx="130.63" ry="26.74"/>
<text text-anchor="middle" x="130.81" y="-30.67" font-family="Times,serif" font-size="14.00">eauto.</text>
<text text-anchor="middle" x="130.81" y="-15.67" font-family="Times,serif" font-size="14.00">(0.7262119551700016)</text>
</g>
<!-- 13&#45;&gt;14 -->
<g id="edge20" class="edge">
<title>13&#45;&gt;14</title>
<path fill="none" stroke="black" d="M1205.54,-97C1187.72,-94.16 1169.25,-91.57 1151.81,-89.74 762.08,-48.78 660.25,-97.45 270.81,-53.74 257.9,-52.29 244.38,-50.34 231.05,-48.17"/>
<polygon fill="black" stroke="black" points="231.35,-44.67 220.91,-46.46 230.19,-51.57 231.35,-44.67"/>
</g>
<!-- 15 -->
<g id="node22" class="node">
<title>15</title>
<ellipse fill="orange" stroke="black" cx="416.81" cy="-26.87" rx="137.36" ry="26.74"/>
<text text-anchor="middle" x="416.81" y="-30.67" font-family="Times,serif" font-size="14.00">intuition.</text>
<text text-anchor="middle" x="416.81" y="-15.67" font-family="Times,serif" font-size="14.00">(0.15176927212105895)</text>
</g>
<!-- 13&#45;&gt;15 -->
<g id="edge21" class="edge">
<title>13&#45;&gt;15</title>
<path fill="none" stroke="black" d="M1204.69,-97.16C1187.12,-94.34 1168.97,-91.72 1151.81,-89.74 891.28,-59.69 823.25,-84.67 562.81,-53.74 549.55,-52.16 535.66,-50.16 521.95,-47.98"/>
<polygon fill="black" stroke="black" points="522.44,-44.51 512,-46.35 521.31,-51.42 522.44,-44.51"/>
</g>
<!-- 16 -->
<g id="node23" class="node">
<title>16</title>
<ellipse fill="orange" stroke="black" cx="715.81" cy="-26.87" rx="143.59" ry="26.74"/>
<text text-anchor="middle" x="715.81" y="-30.67" font-family="Times,serif" font-size="14.00">try discriminate.</text>
<text text-anchor="middle" x="715.81" y="-15.67" font-family="Times,serif" font-size="14.00">(0.020686036422945187)</text>
</g>
<!-- 13&#45;&gt;16 -->
<g id="edge22" class="edge">
<title>13&#45;&gt;16</title>
<path fill="none" stroke="black" d="M1201.71,-97.62C1185.05,-94.86 1167.97,-92.14 1151.81,-89.74 1025.96,-71.06 993.67,-72.42 867.81,-53.74 854.94,-51.83 841.48,-49.71 828.11,-47.54"/>
<polygon fill="black" stroke="black" points="828.36,-44.03 817.92,-45.86 827.22,-50.94 828.36,-44.03"/>
</g>
<!-- 17 -->
<g id="node24" class="node">
<title>17</title>
<ellipse fill="orange" stroke="black" cx="1020.81" cy="-26.87" rx="143.59" ry="26.74"/>
<text text-anchor="middle" x="1020.81" y="-30.67" font-family="Times,serif" font-size="14.00">simpl.</text>
<text text-anchor="middle" x="1020.81" y="-15.67" font-family="Times,serif" font-size="14.00">(0.010088970082806896)</text>
</g>
<!-- 13&#45;&gt;17 -->
<g id="edge23" class="edge">
<title>13&#45;&gt;17</title>
<path fill="none" stroke="black" d="M1231.67,-93.24C1192.25,-81.02 1143.29,-65.84 1102.48,-53.19"/>
<polygon fill="black" stroke="black" points="1103.42,-49.82 1092.83,-50.2 1101.34,-56.5 1103.42,-49.82"/>
</g>
<!-- 19 -->
<g id="node25" class="node">
<title>19</title>
<ellipse fill="orange" stroke="black" cx="1312.81" cy="-26.87" rx="130.63" ry="26.74"/>
<text text-anchor="middle" x="1312.81" y="-30.67" font-family="Times,serif" font-size="14.00">eauto.</text>
<text text-anchor="middle" x="1312.81" y="-15.67" font-family="Times,serif" font-size="14.00">(0.8420804117815036)</text>
</g>
<!-- 18&#45;&gt;19 -->
<g id="edge24" class="edge">
<title>18&#45;&gt;19</title>
<path fill="none" stroke="black" d="M1907.72,-104.82C1789.14,-94.22 1608.7,-76.37 1452.81,-53.74 1440.66,-51.98 1427.94,-49.92 1415.34,-47.75"/>
<polygon fill="black" stroke="black" points="1415.73,-44.27 1405.28,-46 1414.52,-51.16 1415.73,-44.27"/>
</g>
<!-- 20 -->
<g id="node26" class="node">
<title>20</title>
<ellipse fill="orange" stroke="black" cx="1598.81" cy="-26.87" rx="137.36" ry="26.74"/>
<text text-anchor="middle" x="1598.81" y="-30.67" font-family="Times,serif" font-size="14.00">try discriminate.</text>
<text text-anchor="middle" x="1598.81" y="-15.67" font-family="Times,serif" font-size="14.00">(0.04008649386767868)</text>
</g>
<!-- 18&#45;&gt;20 -->
<g id="edge25" class="edge">
<title>18&#45;&gt;20</title>
<path fill="none" stroke="black" d="M1941.51,-96.52C1870.96,-82.39 1774.94,-63.15 1702.49,-48.64"/>
<polygon fill="black" stroke="black" points="1702.92,-45.15 1692.42,-46.62 1701.54,-52.02 1702.92,-45.15"/>
</g>
<!-- 21 -->
<g id="node27" class="node">
<title>21</title>
<ellipse fill="orange" stroke="black" cx="1890.81" cy="-26.87" rx="137.36" ry="26.74"/>
<text text-anchor="middle" x="1890.81" y="-30.67" font-family="Times,serif" font-size="14.00">try congruence.</text>
<text text-anchor="middle" x="1890.81" y="-15.67" font-family="Times,serif" font-size="14.00">(0.01359504451200468)</text>
</g>
<!-- 18&#45;&gt;21 -->
<g id="edge26" class="edge">
<title>18&#45;&gt;21</title>
<path fill="none" stroke="black" d="M1995.37,-90.7C1978.27,-80.43 1958.31,-68.43 1940.44,-57.69"/>
<polygon fill="black" stroke="black" points="1942.23,-54.69 1931.86,-52.54 1938.63,-60.69 1942.23,-54.69"/>
</g>
<!-- 22 -->
<g id="node28" class="node">
<title>22</title>
<ellipse fill="orange" stroke="black" cx="2182.81" cy="-26.87" rx="137.36" ry="26.74"/>
<text text-anchor="middle" x="2182.81" y="-30.67" font-family="Times,serif" font-size="14.00">simpl in H.</text>
<text text-anchor="middle" x="2182.81" y="-15.67" font-family="Times,serif" font-size="14.00">(0.00491093769627903)</text>
</g>
<!-- 18&#45;&gt;22 -->
<g id="edge27" class="edge">
<title>18&#45;&gt;22</title>
<path fill="none" stroke="black" d="M2078.26,-90.7C2095.36,-80.43 2115.32,-68.43 2133.19,-57.69"/>
<polygon fill="black" stroke="black" points="2135,-60.69 2141.77,-52.54 2131.4,-54.69 2135,-60.69"/>
</g>
<!-- 23 -->
<g id="node29" class="node">
<title>23</title>
<ellipse fill="orange" stroke="black" cx="2481.81" cy="-26.87" rx="143.59" ry="26.74"/>
<text text-anchor="middle" x="2481.81" y="-30.67" font-family="Times,serif" font-size="14.00">simpl.</text>
<text text-anchor="middle" x="2481.81" y="-15.67" font-family="Times,serif" font-size="14.00">(0.004908212693332156)</text>
</g>
<!-- 18&#45;&gt;23 -->
<g id="edge28" class="edge">
<title>18&#45;&gt;23</title>
<path fill="none" stroke="black" d="M2133.1,-96.63C2204.37,-82.57 2301.46,-63.43 2375.1,-48.91"/>
<polygon fill="black" stroke="black" points="2376.19,-52.26 2385.33,-46.89 2374.84,-45.4 2376.19,-52.26"/>
</g>
<!-- 24 -->
<g id="node30" class="node">
<title>24</title>
<ellipse fill="orange" stroke="black" cx="2792.81" cy="-26.87" rx="149.81" ry="26.74"/>
<text text-anchor="middle" x="2792.81" y="-30.67" font-family="Times,serif" font-size="14.00">subst.</text>
<text text-anchor="middle" x="2792.81" y="-15.67" font-family="Times,serif" font-size="14.00">(0.0027891641358450624)</text>
</g>
<!-- 18&#45;&gt;24 -->
<g id="edge29" class="edge">
<title>18&#45;&gt;24</title>
<path fill="none" stroke="black" d="M2136.79,-97.31C2154.1,-94.51 2171.95,-91.85 2188.81,-89.74 2386.14,-65.03 2437.41,-77.83 2634.81,-53.74 2648.94,-52.02 2663.73,-49.95 2678.36,-47.74"/>
<polygon fill="black" stroke="black" points="2679.1,-51.17 2688.45,-46.19 2678.04,-44.25 2679.1,-51.17"/>
</g>
<!-- 25 -->
<g id="node31" class="node">
<title>25</title>
<ellipse fill="orange" stroke="black" cx="3103.81" cy="-26.87" rx="143.59" ry="26.74"/>
<text text-anchor="middle" x="3103.81" y="-30.67" font-family="Times,serif" font-size="14.00">destruct O.</text>
<text text-anchor="middle" x="3103.81" y="-15.67" font-family="Times,serif" font-size="14.00">(0.001173825101777875)</text>
</g>
<!-- 18&#45;&gt;25 -->
<g id="edge30" class="edge">
<title>18&#45;&gt;25</title>
<path fill="none" stroke="black" d="M2135.51,-97.02C2153.2,-94.2 2171.52,-91.61 2188.81,-89.74 2526.33,-53.19 2614.3,-90.29 2951.81,-53.74 2965.87,-52.22 2980.59,-50.22 2995.11,-48.02"/>
<polygon fill="black" stroke="black" points="2995.78,-51.45 3005.12,-46.46 2994.7,-44.54 2995.78,-51.45"/>
</g>
<!-- 26 -->
<g id="node32" class="node">
<title>26</title>
<ellipse fill="none" stroke="black" cx="3414.81" cy="-26.87" rx="149.81" ry="26.74"/>
<text text-anchor="middle" x="3414.81" y="-30.67" font-family="Times,serif" font-size="14.00">destruct n0.</text>
<text text-anchor="middle" x="3414.81" y="-15.67" font-family="Times,serif" font-size="14.00">(0.0011018420133020962)</text>
</g>
<!-- 18&#45;&gt;26 -->
<g id="edge31" class="edge">
<title>18&#45;&gt;26</title>
<path fill="none" stroke="black" d="M2135.08,-96.9C2152.9,-94.07 2171.37,-91.51 2188.81,-89.74 2661.32,-41.79 2784.16,-100.21 3256.81,-53.74 3271.68,-52.28 3287.26,-50.29 3302.61,-48.06"/>
<polygon fill="black" stroke="black" points="3303.28,-51.5 3312.65,-46.57 3302.24,-44.58 3303.28,-51.5"/>
</g>
<!-- 29 -->
<g id="node33" class="node">
<title>29</title>
<ellipse fill="orange" stroke="black" cx="3713.81" cy="-26.87" rx="130.63" ry="26.74"/>
<text text-anchor="middle" x="3713.81" y="-30.67" font-family="Times,serif" font-size="14.00">eauto.</text>
<text text-anchor="middle" x="3713.81" y="-15.67" font-family="Times,serif" font-size="14.00">(0.7262119551700016)</text>
</g>
<!-- 28&#45;&gt;29 -->
<g id="edge32" class="edge">
<title>28&#45;&gt;29</title>
<path fill="none" stroke="black" d="M3927.28,-93.36C3886.74,-80.92 3836.14,-65.4 3794.38,-52.59"/>
<polygon fill="black" stroke="black" points="3795.38,-49.23 3784.79,-49.64 3793.33,-55.92 3795.38,-49.23"/>
</g>
<!-- 30 -->
<g id="node34" class="node">
<title>30</title>
<ellipse fill="orange" stroke="black" cx="3999.81" cy="-26.87" rx="137.36" ry="26.74"/>
<text text-anchor="middle" x="3999.81" y="-30.67" font-family="Times,serif" font-size="14.00">intuition.</text>
<text text-anchor="middle" x="3999.81" y="-15.67" font-family="Times,serif" font-size="14.00">(0.15176927212105895)</text>
</g>
<!-- 28&#45;&gt;30 -->
<g id="edge33" class="edge">
<title>28&#45;&gt;30</title>
<path fill="none" stroke="black" d="M3999.81,-89.29C3999.81,-81.32 3999.81,-72.43 3999.81,-63.94"/>
<polygon fill="black" stroke="black" points="4003.31,-63.87 3999.81,-53.87 3996.31,-63.87 4003.31,-63.87"/>
</g>
<!-- 31 -->
<g id="node35" class="node">
<title>31</title>
<ellipse fill="orange" stroke="black" cx="4298.81" cy="-26.87" rx="143.59" ry="26.74"/>
<text text-anchor="middle" x="4298.81" y="-30.67" font-family="Times,serif" font-size="14.00">try discriminate.</text>
<text text-anchor="middle" x="4298.81" y="-15.67" font-family="Times,serif" font-size="14.00">(0.020686036422945187)</text>
</g>
<!-- 28&#45;&gt;31 -->
<g id="edge34" class="edge">
<title>28&#45;&gt;31</title>
<path fill="none" stroke="black" d="M4074.88,-93.58C4117.26,-81.15 4170.35,-65.57 4214.2,-52.7"/>
<polygon fill="black" stroke="black" points="4215.37,-56 4223.98,-49.83 4213.4,-49.29 4215.37,-56"/>
</g>
<!-- 32 -->
<g id="node36" class="node">
<title>32</title>
<ellipse fill="orange" stroke="black" cx="4603.81" cy="-26.87" rx="143.59" ry="26.74"/>
<text text-anchor="middle" x="4603.81" y="-30.67" font-family="Times,serif" font-size="14.00">simpl.</text>
<text text-anchor="middle" x="4603.81" y="-15.67" font-family="Times,serif" font-size="14.00">(0.010088970082806896)</text>
</g>
<!-- 28&#45;&gt;32 -->
<g id="edge35" class="edge">
<title>28&#45;&gt;32</title>
<path fill="none" stroke="black" d="M4116.09,-100.75C4207.47,-88.82 4337.91,-71.22 4451.81,-53.74 4464.57,-51.78 4477.91,-49.64 4491.17,-47.46"/>
<polygon fill="black" stroke="black" points="4491.98,-50.88 4501.28,-45.79 4490.84,-43.97 4491.98,-50.88"/>
</g>
<!-- 35 -->
<g id="node41" class="node">
<title>35</title>
<ellipse fill="orange" stroke="black" cx="4889.81" cy="-26.87" rx="124.4" ry="26.74"/>
<text text-anchor="middle" x="4889.81" y="-30.67" font-family="Times,serif" font-size="14.00">eauto.</text>
<text text-anchor="middle" x="4889.81" y="-15.67" font-family="Times,serif" font-size="14.00">(0.408974726705909)</text>
</g>
<!-- 34&#45;&gt;35 -->
<g id="edge40" class="edge">
<title>34&#45;&gt;35</title>
<path fill="none" stroke="black" d="M5344.43,-101.87C5258.05,-90.16 5132.23,-72.32 5022.81,-53.74 5011.78,-51.87 5000.26,-49.8 4988.81,-47.67"/>
<polygon fill="black" stroke="black" points="4989.25,-44.19 4978.78,-45.79 4987.96,-51.07 4989.25,-44.19"/>
</g>
<!-- 36 -->
<g id="node42" class="node">
<title>36</title>
<ellipse fill="none" stroke="black" cx="5162.81" cy="-26.87" rx="130.63" ry="26.74"/>
<text text-anchor="middle" x="5162.81" y="-30.67" font-family="Times,serif" font-size="14.00">destruct n.</text>
<text text-anchor="middle" x="5162.81" y="-15.67" font-family="Times,serif" font-size="14.00">(0.0379231900940903)</text>
</g>
<!-- 34&#45;&gt;36 -->
<g id="edge41" class="edge">
<title>34&#45;&gt;36</title>
<path fill="none" stroke="black" d="M5379.22,-94.26C5338.26,-81.69 5286.28,-65.75 5243.53,-52.63"/>
<polygon fill="black" stroke="black" points="5244.31,-49.21 5233.72,-49.62 5242.25,-55.9 5244.31,-49.21"/>
</g>
<!-- 37 -->
<g id="node43" class="node">
<title>37</title>
<ellipse fill="orange" stroke="black" cx="5448.81" cy="-26.87" rx="137.36" ry="26.74"/>
<text text-anchor="middle" x="5448.81" y="-30.67" font-family="Times,serif" font-size="14.00">subst.</text>
<text text-anchor="middle" x="5448.81" y="-15.67" font-family="Times,serif" font-size="14.00">(0.02475180581029481)</text>
</g>
<!-- 34&#45;&gt;37 -->
<g id="edge42" class="edge">
<title>34&#45;&gt;37</title>
<path fill="none" stroke="black" d="M5448.81,-89.29C5448.81,-81.32 5448.81,-72.43 5448.81,-63.94"/>
<polygon fill="black" stroke="black" points="5452.31,-63.87 5448.81,-53.87 5445.31,-63.87 5452.31,-63.87"/>
</g>
<!-- 38 -->
<g id="node44" class="node">
<title>38</title>
<ellipse fill="orange" stroke="black" cx="5747.81" cy="-26.87" rx="143.59" ry="26.74"/>
<text text-anchor="middle" x="5747.81" y="-30.67" font-family="Times,serif" font-size="14.00">simpl.</text>
<text text-anchor="middle" x="5747.81" y="-15.67" font-family="Times,serif" font-size="14.00">(0.013573286812655806)</text>
</g>
<!-- 34&#45;&gt;38 -->
<g id="edge43" class="edge">
<title>34&#45;&gt;38</title>
<path fill="none" stroke="black" d="M5520.43,-94.59C5563.33,-82.01 5618.09,-65.94 5663.12,-52.72"/>
<polygon fill="black" stroke="black" points="5664.26,-56.04 5672.87,-49.86 5662.29,-49.32 5664.26,-56.04"/>
</g>
<!-- 41 -->
<g id="node45" class="node">
<title>41</title>
<ellipse fill="orange" stroke="black" cx="6039.81" cy="-26.87" rx="130.63" ry="26.74"/>
<text text-anchor="middle" x="6039.81" y="-30.67" font-family="Times,serif" font-size="14.00">eauto.</text>
<text text-anchor="middle" x="6039.81" y="-15.67" font-family="Times,serif" font-size="14.00">(0.8753867435154117)</text>
</g>
<!-- 40&#45;&gt;41 -->
<g id="edge44" class="edge">
<title>40&#45;&gt;41</title>
<path fill="none" stroke="black" d="M6548.44,-97.58C6530.88,-94.81 6512.85,-92.1 6495.81,-89.74 6355.79,-70.38 6319.62,-74.6 6179.81,-53.74 6167.66,-51.93 6154.95,-49.84 6142.35,-47.66"/>
<polygon fill="black" stroke="black" points="6142.75,-44.18 6132.29,-45.89 6141.53,-51.07 6142.75,-44.18"/>
</g>
<!-- 42 -->
<g id="node46" class="node">
<title>42</title>
<ellipse fill="orange" stroke="black" cx="6338.81" cy="-26.87" rx="149.81" ry="26.74"/>
<text text-anchor="middle" x="6338.81" y="-30.67" font-family="Times,serif" font-size="14.00">simpl.</text>
<text text-anchor="middle" x="6338.81" y="-15.67" font-family="Times,serif" font-size="14.00">(0.0044925236655067174)</text>
</g>
<!-- 40&#45;&gt;42 -->
<g id="edge45" class="edge">
<title>40&#45;&gt;42</title>
<path fill="none" stroke="black" d="M6575.89,-93.7C6530.83,-81.19 6474.22,-65.47 6427.61,-52.53"/>
<polygon fill="black" stroke="black" points="6428.4,-49.11 6417.83,-49.81 6426.53,-55.86 6428.4,-49.11"/>
</g>
<!-- 43 -->
<g id="node47" class="node">
<title>43</title>
<ellipse fill="orange" stroke="black" cx="6649.81" cy="-26.87" rx="143.59" ry="26.74"/>
<text text-anchor="middle" x="6649.81" y="-30.67" font-family="Times,serif" font-size="14.00">subst.</text>
<text text-anchor="middle" x="6649.81" y="-15.67" font-family="Times,serif" font-size="14.00">(0.003005631251914822)</text>
</g>
<!-- 40&#45;&gt;43 -->
<g id="edge46" class="edge">
<title>40&#45;&gt;43</title>
<path fill="none" stroke="black" d="M6653.31,-89.29C6652.86,-81.32 6652.35,-72.43 6651.87,-63.94"/>
<polygon fill="black" stroke="black" points="6655.36,-63.66 6651.3,-53.87 6648.37,-64.06 6655.36,-63.66"/>
</g>
<!-- 44 -->
<g id="node48" class="node">
<title>44</title>
<ellipse fill="orange" stroke="black" cx="6960.81" cy="-26.87" rx="149.81" ry="26.74"/>
<text text-anchor="middle" x="6960.81" y="-30.67" font-family="Times,serif" font-size="14.00">destruct O.</text>
<text text-anchor="middle" x="6960.81" y="-15.67" font-family="Times,serif" font-size="14.00">(0.0018954516158930818)</text>
</g>
<!-- 40&#45;&gt;44 -->
<g id="edge47" class="edge">
<title>40&#45;&gt;44</title>
<path fill="none" stroke="black" d="M6732.03,-93.47C6775.25,-81.08 6829.26,-65.59 6873.94,-52.78"/>
<polygon fill="black" stroke="black" points="6874.97,-56.12 6883.62,-50 6873.05,-49.4 6874.97,-56.12"/>
</g>
<!-- 45 -->
<g id="node49" class="node">
<title>45</title>
<ellipse fill="orange" stroke="black" cx="7278.81" cy="-26.87" rx="149.81" ry="26.74"/>
<text text-anchor="middle" x="7278.81" y="-30.67" font-family="Times,serif" font-size="14.00">destruct O.</text>
<text text-anchor="middle" x="7278.81" y="-15.67" font-family="Times,serif" font-size="14.00">(0.0010936355179155947)</text>
</g>
<!-- 40&#45;&gt;45 -->
<g id="edge48" class="edge">
<title>40&#45;&gt;45</title>
<path fill="none" stroke="black" d="M6775.38,-100.54C6869.33,-88.57 7003,-71.01 7119.81,-53.74 7133.28,-51.75 7147.38,-49.58 7161.38,-47.37"/>
<polygon fill="black" stroke="black" points="7162.22,-50.78 7171.54,-45.76 7161.12,-43.87 7162.22,-50.78"/>
</g>
<!-- 46 -->
<g id="node50" class="node">
<title>46</title>
<ellipse fill="orange" stroke="black" cx="7602.81" cy="-26.87" rx="156.04" ry="26.74"/>
<text text-anchor="middle" x="7602.81" y="-30.67" font-family="Times,serif" font-size="14.00">try destruct O.</text>
<text text-anchor="middle" x="7602.81" y="-15.67" font-family="Times,serif" font-size="14.00">(0.00039634888434771575)</text>
</g>
<!-- 40&#45;&gt;46 -->
<g id="edge49" class="edge">
<title>40&#45;&gt;46</title>
<path fill="none" stroke="black" d="M6796.59,-107.69C6953.68,-98.14 7214.36,-80.05 7437.81,-53.74 7452.7,-51.99 7468.29,-49.89 7483.71,-47.65"/>
<polygon fill="black" stroke="black" points="7484.43,-51.09 7493.81,-46.17 7483.41,-44.16 7484.43,-51.09"/>
</g>
<!-- 48 -->
<g id="node51" class="node">
<title>48</title>
<ellipse fill="orange" stroke="black" cx="7907.81" cy="-26.87" rx="130.63" ry="26.74"/>
<text text-anchor="middle" x="7907.81" y="-30.67" font-family="Times,serif" font-size="14.00">eauto.</text>
<text text-anchor="middle" x="7907.81" y="-15.67" font-family="Times,serif" font-size="14.00">(0.8753867435154117)</text>
</g>
<!-- 47&#45;&gt;48 -->
<g id="edge50" class="edge">
<title>47&#45;&gt;48</title>
<path fill="none" stroke="black" d="M8397.98,-101.81C8303.38,-90.23 8166.76,-72.6 8047.81,-53.74 8035.87,-51.85 8023.38,-49.73 8010.99,-47.55"/>
<polygon fill="black" stroke="black" points="8011.54,-44.09 8001.08,-45.79 8010.31,-50.99 8011.54,-44.09"/>
</g>
<!-- 49 -->
<g id="node52" class="node">
<title>49</title>
<ellipse fill="orange" stroke="black" cx="8206.81" cy="-26.87" rx="149.81" ry="26.74"/>
<text text-anchor="middle" x="8206.81" y="-30.67" font-family="Times,serif" font-size="14.00">simpl.</text>
<text text-anchor="middle" x="8206.81" y="-15.67" font-family="Times,serif" font-size="14.00">(0.0044925236655067174)</text>
</g>
<!-- 47&#45;&gt;49 -->
<g id="edge51" class="edge">
<title>47&#45;&gt;49</title>
<path fill="none" stroke="black" d="M8439.08,-94.03C8395.18,-81.53 8339.74,-65.74 8294.03,-52.72"/>
<polygon fill="black" stroke="black" points="8294.71,-49.27 8284.14,-49.9 8292.8,-56 8294.71,-49.27"/>
</g>
<!-- 50 -->
<g id="node53" class="node">
<title>50</title>
<ellipse fill="orange" stroke="black" cx="8517.81" cy="-26.87" rx="143.59" ry="26.74"/>
<text text-anchor="middle" x="8517.81" y="-30.67" font-family="Times,serif" font-size="14.00">subst.</text>
<text text-anchor="middle" x="8517.81" y="-15.67" font-family="Times,serif" font-size="14.00">(0.003005631251914822)</text>
</g>
<!-- 47&#45;&gt;50 -->
<g id="edge52" class="edge">
<title>47&#45;&gt;50</title>
<path fill="none" stroke="black" d="M8515.71,-89.29C8515.99,-81.32 8516.29,-72.43 8516.58,-63.94"/>
<polygon fill="black" stroke="black" points="8520.08,-63.99 8516.93,-53.87 8513.09,-63.75 8520.08,-63.99"/>
</g>
<!-- 51 -->
<g id="node54" class="node">
<title>51</title>
<ellipse fill="orange" stroke="black" cx="8828.81" cy="-26.87" rx="149.81" ry="26.74"/>
<text text-anchor="middle" x="8828.81" y="-30.67" font-family="Times,serif" font-size="14.00">destruct O.</text>
<text text-anchor="middle" x="8828.81" y="-15.67" font-family="Times,serif" font-size="14.00">(0.0018954516158930818)</text>
</g>
<!-- 47&#45;&gt;51 -->
<g id="edge53" class="edge">
<title>47&#45;&gt;51</title>
<path fill="none" stroke="black" d="M8591.63,-94.15C8636.63,-81.57 8693.65,-65.64 8740.5,-52.55"/>
<polygon fill="black" stroke="black" points="8741.65,-55.86 8750.34,-49.8 8739.77,-49.12 8741.65,-55.86"/>
</g>
<!-- 52 -->
<g id="node55" class="node">
<title>52</title>
<ellipse fill="orange" stroke="black" cx="9146.81" cy="-26.87" rx="149.81" ry="26.74"/>
<text text-anchor="middle" x="9146.81" y="-30.67" font-family="Times,serif" font-size="14.00">destruct O.</text>
<text text-anchor="middle" x="9146.81" y="-15.67" font-family="Times,serif" font-size="14.00">(0.0010936355179155947)</text>
</g>
<!-- 47&#45;&gt;52 -->
<g id="edge54" class="edge">
<title>47&#45;&gt;52</title>
<path fill="none" stroke="black" d="M8613.66,-97.57C8630.37,-94.78 8647.57,-92.05 8663.81,-89.74 8807.26,-69.34 8844.27,-73.38 8987.81,-53.74 9001.66,-51.85 9016.16,-49.71 9030.53,-47.49"/>
<polygon fill="black" stroke="black" points="9031.1,-50.94 9040.45,-45.94 9030.03,-44.02 9031.1,-50.94"/>
</g>
<!-- 53 -->
<g id="node56" class="node">
<title>53</title>
<ellipse fill="orange" stroke="black" cx="9470.81" cy="-26.87" rx="156.04" ry="26.74"/>
<text text-anchor="middle" x="9470.81" y="-30.67" font-family="Times,serif" font-size="14.00">try destruct O.</text>
<text text-anchor="middle" x="9470.81" y="-15.67" font-family="Times,serif" font-size="14.00">(0.00039634888434771575)</text>
</g>
<!-- 47&#45;&gt;53 -->
<g id="edge55" class="edge">
<title>47&#45;&gt;53</title>
<path fill="none" stroke="black" d="M8611.16,-97.2C8628.63,-94.34 8646.73,-91.7 8663.81,-89.74 8947.74,-57.24 9021.63,-83.91 9305.81,-53.74 9320.95,-52.13 9336.82,-50.1 9352.48,-47.88"/>
<polygon fill="black" stroke="black" points="9353.34,-51.29 9362.74,-46.39 9352.34,-44.36 9353.34,-51.29"/>
</g>
<!-- 61 -->
<g id="node62" class="node">
<title>61</title>
<ellipse fill="orange" stroke="black" cx="7884.81" cy="-296.09" rx="130.63" ry="26.74"/>
<text text-anchor="middle" x="7884.81" y="-299.89" font-family="Times,serif" font-size="14.00">eauto.</text>
<text text-anchor="middle" x="7884.81" y="-284.89" font-family="Times,serif" font-size="14.00">(0.6049746865943191)</text>
</g>
<!-- 60&#45;&gt;61 -->
<g id="edge61" class="edge">
<title>60&#45;&gt;61</title>
<path fill="none" stroke="black" d="M7884.81,-358.51C7884.81,-350.54 7884.81,-341.65 7884.81,-333.16"/>
<polygon fill="black" stroke="black" points="7888.31,-333.09 7884.81,-323.09 7881.31,-333.09 7888.31,-333.09"/>
</g>
<!-- 62 -->
<g id="node63" class="node">
<title>62</title>
<ellipse fill="#9aff9a" stroke="black" cx="8336.81" cy="-296.09" rx="137.36" ry="26.74"/>
<text text-anchor="middle" x="8336.81" y="-299.89" font-family="Times,serif" font-size="14.00">intuition.</text>
<text text-anchor="middle" x="8336.81" y="-284.89" font-family="Times,serif" font-size="14.00">(0.03374015202257015)</text>
</g>
<!-- 60&#45;&gt;62 -->
<g id="edge62" class="edge">
<title>60&#45;&gt;62</title>
<path fill="none" stroke="black" d="M7981.78,-366.01C8055.39,-351.72 8156.46,-332.1 8231.94,-317.45"/>
<polygon fill="black" stroke="black" points="8232.8,-320.85 8241.95,-315.51 8231.46,-313.98 8232.8,-320.85"/>
</g>
<!-- 63 -->
<g id="node64" class="node">
<title>63</title>
<ellipse fill="orange" stroke="black" cx="8336.81" cy="-206.35" rx="137.36" ry="26.74"/>
<text text-anchor="middle" x="8336.81" y="-210.15" font-family="Times,serif" font-size="14.00">try discriminate.</text>
<text text-anchor="middle" x="8336.81" y="-195.15" font-family="Times,serif" font-size="14.00">(0.37357553656224474)</text>
</g>
<!-- 62&#45;&gt;63 -->
<g id="edge63" class="edge">
<title>62&#45;&gt;63</title>
<path fill="none" stroke="black" d="M8336.81,-268.77C8336.81,-260.8 8336.81,-251.91 8336.81,-243.42"/>
<polygon fill="black" stroke="black" points="8340.31,-243.35 8336.81,-233.35 8333.31,-243.35 8340.31,-243.35"/>
</g>
<!-- 64 -->
<g id="node65" class="node">
<title>64</title>
<ellipse fill="#9aff9a" stroke="black" cx="8705.81" cy="-206.35" rx="130.63" ry="26.74"/>
<text text-anchor="middle" x="8705.81" y="-210.15" font-family="Times,serif" font-size="14.00">intuition.</text>
<text text-anchor="middle" x="8705.81" y="-195.15" font-family="Times,serif" font-size="14.00">(0.2555297696516517)</text>
</g>
<!-- 62&#45;&gt;64 -->
<g id="edge64" class="edge">
<title>62&#45;&gt;64</title>
<path fill="none" stroke="black" d="M8421.93,-274.85C8478.97,-261.29 8554.08,-243.43 8612.71,-229.49"/>
<polygon fill="black" stroke="black" points="8613.79,-232.83 8622.71,-227.11 8612.17,-226.02 8613.79,-232.83"/>
</g>
<!-- 65 -->
<g id="node66" class="node">
<title>65</title>
<ellipse fill="green" stroke="black" cx="8707.81" cy="-116.61" rx="35.21" ry="26.74"/>
<text text-anchor="middle" x="8707.81" y="-120.41" font-family="Times,serif" font-size="14.00">QED</text>
<text text-anchor="middle" x="8707.81" y="-105.41" font-family="Times,serif" font-size="14.00">(1.0)</text>
</g>
<!-- 64&#45;&gt;65 -->
<g id="edge65" class="edge">
<title>64&#45;&gt;65</title>
<path fill="none" stroke="black" d="M8706.41,-179.03C8706.6,-171.06 8706.8,-162.17 8706.99,-153.68"/>
<polygon fill="green" stroke="black" points="8710.49,-153.69 8707.22,-143.61 8703.49,-153.53 8710.49,-153.69"/>
</g>
</g>
</svg>
