<?xml version="1.0" encoding="UTF-8" standalone="no"?>
<!DOCTYPE svg PUBLIC "-//W3C//DTD SVG 1.1//EN"
 "http://www.w3.org/Graphics/SVG/1.1/DTD/svg11.dtd">
<!-- Generated by graphviz version 2.43.0 (0)
 -->
<!-- Pages: 1 -->
<svg width="536pt" height="331pt"
 viewBox="0.00 0.00 536.27 330.96" xmlns="http://www.w3.org/2000/svg" xmlns:xlink="http://www.w3.org/1999/xlink">
<g id="graph0" class="graph" transform="scale(1 1) rotate(0) translate(4 326.96)">
<polygon fill="white" stroke="transparent" points="-4,4 -4,-326.96 532.27,-326.96 532.27,4 -4,4"/>
<!-- 0 -->
<g id="node1" class="node">
<title>0</title>
<ellipse fill="none" stroke="black" cx="266.81" cy="-296.09" rx="60.62" ry="26.74"/>
<text text-anchor="middle" x="266.81" y="-299.89" font-family="Times,serif" font-size="14.00">le_plus_le</text>
<text text-anchor="middle" x="266.81" y="-284.89" font-family="Times,serif" font-size="14.00">(1.0)</text>
</g>
<!-- 1 -->
<g id="node2" class="node">
<title>1</title>
<ellipse fill="#9aff9a" stroke="black" cx="266.81" cy="-206.35" rx="130.63" ry="26.74"/>
<text text-anchor="middle" x="266.81" y="-210.15" font-family="Times,serif" font-size="14.00">intros.</text>
<text text-anchor="middle" x="266.81" y="-195.15" font-family="Times,serif" font-size="14.00">(0.9974407060147922)</text>
</g>
<!-- 0&#45;&gt;1 -->
<g id="edge1" class="edge">
<title>0&#45;&gt;1</title>
<path fill="none" stroke="black" d="M266.81,-268.77C266.81,-260.8 266.81,-251.91 266.81,-243.42"/>
<polygon fill="black" stroke="black" points="270.31,-243.35 266.81,-233.35 263.31,-243.35 270.31,-243.35"/>
</g>
<!-- 2 -->
<g id="node3" class="node">
<title>2</title>
<ellipse fill="orange" stroke="black" cx="130.81" cy="-116.61" rx="130.63" ry="26.74"/>
<text text-anchor="middle" x="130.81" y="-120.41" font-family="Times,serif" font-size="14.00">eauto.</text>
<text text-anchor="middle" x="130.81" y="-105.41" font-family="Times,serif" font-size="14.00">(0.3130019828496933)</text>
</g>
<!-- 1&#45;&gt;2 -->
<g id="edge2" class="edge">
<title>1&#45;&gt;2</title>
<path fill="none" stroke="black" d="M228.21,-180.44C212.7,-170.44 194.67,-158.81 178.37,-148.29"/>
<polygon fill="black" stroke="black" points="179.82,-145.06 169.52,-142.58 176.03,-150.94 179.82,-145.06"/>
</g>
<!-- 3 -->
<g id="node4" class="node">
<title>3</title>
<ellipse fill="#9aff9a" stroke="black" cx="403.81" cy="-116.61" rx="124.4" ry="26.74"/>
<text text-anchor="middle" x="403.81" y="-120.41" font-family="Times,serif" font-size="14.00">omega.</text>
<text text-anchor="middle" x="403.81" y="-105.41" font-family="Times,serif" font-size="14.00">(0.141661185098682)</text>
</g>
<!-- 1&#45;&gt;3 -->
<g id="edge3" class="edge">
<title>1&#45;&gt;3</title>
<path fill="none" stroke="black" d="M305.71,-180.44C321.61,-170.26 340.14,-158.39 356.79,-147.73"/>
<polygon fill="black" stroke="black" points="358.77,-150.62 365.3,-142.28 354.99,-144.72 358.77,-150.62"/>
</g>
<!-- 4 -->
<g id="node5" class="node">
<title>4</title>
<ellipse fill="green" stroke="black" cx="403.81" cy="-26.87" rx="35.21" ry="26.74"/>
<text text-anchor="middle" x="403.81" y="-30.67" font-family="Times,serif" font-size="14.00">QED</text>
<text text-anchor="middle" x="403.81" y="-15.67" font-family="Times,serif" font-size="14.00">(1.0)</text>
</g>
<!-- 3&#45;&gt;4 -->
<g id="edge4" class="edge">
<title>3&#45;&gt;4</title>
<path fill="none" stroke="black" d="M403.81,-89.29C403.81,-81.32 403.81,-72.43 403.81,-63.94"/>
<polygon fill="green" stroke="black" points="407.31,-63.87 403.81,-53.87 400.31,-63.87 407.31,-63.87"/>
</g>
</g>
</svg>
